<?xml version="1.0" encoding="iso-8859-1"?>
<!-- Generator: Adobe Illustrator 16.0.0, SVG Export Plug-In . SVG Version: 6.00 Build 0)  -->
<!DOCTYPE svg PUBLIC "-//W3C//DTD SVG 1.1//EN" "http://www.w3.org/Graphics/SVG/1.1/DTD/svg11.dtd">
<svg version="1.1" id="Capa_1" xmlns="http://www.w3.org/2000/svg" xmlns:xlink="http://www.w3.org/1999/xlink" x="0px" y="0px"
	 width="585.553px" height="585.553px" viewBox="0 0 585.553 585.553" style="enable-background:new 0 0 585.553 585.553;"
	 xml:space="preserve">
<g>
	<g>
		<path d="M151.939,13.317c0.318,0.29,0.636,0.58,0.958,0.869c3.337,3.027,8.479,8.221,11.188,11.82
			c12.028,15.965,21.387,36.08,35.749,49.751c3.264,3.109,5.561,5.284,4.729,5.324c-0.832,0.041-1.685,0.375-1.901,0.743
			c-0.216,0.367,2.04,3.093,5.071,6.055c1.856,1.812,3.778,3.521,5.94,4.831c9.91,6.001,17.132,14.08,21.057,24.847
			c6.328,17.356,17.54,30.567,32.624,40.951c9.184,6.32,9.208,8.687-0.914,13.872c-16.936,8.674-31.065,20.69-44.476,33.905
			c-3.717,3.66-8.486,6.581-13.268,8.756c-8.042,3.66-12.362,9.56-13.868,18.07c-2.88,16.308-3.447,32.636-1.979,49.16
			c2.207,24.819,2.624,49.854,6.018,74.489c3.655,26.531,9.947,52.697,14.872,79.062c0.698,3.736,1.016,7.906,0.106,11.521
			c-4.945,19.682-10.408,39.236-15.533,58.875c-1.591,6.1-2.999,12.252-4.41,18.4c-1.008,4.395,1.546,5.857,4.402,2.375
			c6.132-7.484,12.191-15.035,18.85-22.018c6.74-7.07,14.084-13.568,21.473-20.256c3.342-3.023,6.761-1.934,7.675,2.48
			c2.113,10.199,4.28,20.67,6.446,31.121c0.914,4.416,1.975,7.17,2.33,6.145c0.212-0.615,0.379-1.268,0.375-1.92
			c-0.078-9.744,0.065-19.516-0.625-29.223c-0.526-7.424-2.285-14.756-3.219-22.166c-0.086-0.686,0.2-1.42,0.579-2.162
			c0.567-1.121,1.999-1.664,3.195-1.203c0.763,0.297,1.473,0.645,1.962,1.188c2.167,2.41,3.999,5.137,5.838,7.816
			c13.513,19.682,27.744,38.629,47.43,52.877c9.71,7.025,17.67,15.912,22.265,27.34c2.606,6.479,5.222,12.959,8.07,19.332
			c0.433,0.971,1.142,1.818,2.027,2.799c1.281,1.424,4.672,0.086,4.904,1.68c0.38,2.611,1.146,4.729,1.689,4.729
			c0.542,0,2.737-2.814,4.243-6.641c0.853-2.176,1.905-4.33,4.1-6.104c4.068-3.289,6.562-9.482,7.993-14.859
			c2.501-9.385,1.746-18.98-0.946-28.467c-8.719-30.727-21.139-59.727-38.397-86.721c-7.992-12.502-12.301-26.523-12.464-41.576
			c-0.127-11.574,6.434-17.168,17.825-15.234c1.604,0.273,3.228,0.543,4.773,1.025c9.829,3.059,19.805,5.695,23.913,17.143
			c0.62,1.73,5.186,3.395,7.393,2.865c2.705-0.652,4.966-3.521,7.182-5.676c1.154-1.121,1.469-3.395,2.737-4.062
			c4.17-2.209,8.413-4.277,12.668-6.324c4.06-1.955,7.699-3.387,8.128-3.195c0.428,0.191,0.42,3.982,0.049,8.475
			c-0.322,3.871-0.747,7.711-1.894,11.326c-2.978,9.387-7.507,18.27-11.162,27.453c-2.326,5.852,0.159,12.154,5.165,15.545
			c3.729,2.525,5.369-0.35,4.981-4.516c-0.22-2.398,0.253-4.844,1.42-7.352c4.488-9.635,5.729-19.932,6.201-30.41
			c0.078-1.717,0.311-3.426,0.584-5.137c0.453-2.818,1.114-5.107,1.456-5.111c0.343-0.004,1.697,3.484,3.04,7.785
			c0.877,2.807,1.783,5.602,2.815,8.352c1.057,2.818,2.448,5.777,4.487,7.906c4.13,4.316,8.842,8.066,13.236,12.135
			c1.611,1.492,3.264,2.51,5.01,2.836c3.166,0.592,5.549-1.498,5.549-1.771s-2.685-0.465-4.056-2.791
			c-0.812-1.379-1.109-3.137-1.559-4.613c-1.326-4.383-4.165-7.006-7.625-9.711c-3.187-2.488-6.382-5.732-7.969-9.348
			c-2.855-6.508-4.77-13.477-6.553-20.393c-0.787-3.051-1.216-6.76-0.208-9.607c4.921-13.908,10.425-27.613,15.599-41.432
			c0.477-1.273,0.812-2.6,1.105-3.941c0.489-2.209,0.583-4.109,0.225-4.252c-0.359-0.143,0.448-0.955,1.799-1.816
			c1.351-0.859-0.938-3.965-5.386-3.252c-2.701,0.434-5.026,2.105-6.602,5.137c-2.623,5.047-3.9,10.918-5.071,16.574
			c-1.195,5.764-2.003,11.611-4.076,17.396c-1.518,4.244-4.431,3.848-5.626-0.498c-1.575-5.715-3.076-11.17-4.459-16.662
			c-1.82-7.213-3.595-14.455-4.925-21.771c-0.522-2.871,1.199-6.186-2.301-8.326c-0.352-0.217-0.119-2.195,0.432-2.889
			c0.478-0.604,1.106-1.094,1.841-1.607c1.105-0.779-1.686-2.93-6.071-1.906c-3.934,0.914-5.651,4.166-5.092,9.828
			c0.73,7.346,3.027,14.57,5.019,21.742c2.521,9.07,5.806,17.941,7.968,27.084c0.727,3.072,0.176,7.768-1.783,9.895
			c-2.492,2.705-5.568,4.568-8.771,5.895c-4.162,1.727-9.11-1.076-10.714-5.287c-7.206-18.936-14.17-37.434-21.396-55.83
			c-4.402-11.209-4.733-22.143-1.478-33.84c4.876-17.515,9.311-35.227,12.514-53.105c1.958-10.931,1.828-22.351,1.566-33.525
			c-0.22-9.499-4.129-17.287-14.296-20.502c-4.848-1.534-8.291-5.067-10.241-9.87c-3.052-7.52-8.319-13.309-14.94-17.662
			c-6.369-4.19-13.244-7.602-19.816-11.494c-5.166-3.06-10.408-6.059-15.207-9.637c-1.126-0.84-1.926-2.109-2.758-3.61
			c-1.224-2.216,1.204-4.435,5.483-4.978c2.75-0.347,5.251-0.694,7.716-1.204c11.607-2.387,22.864-1.86,34.047,2.407
			c16.545,6.316,33.208,12.33,49.879,18.312c0.689,0.245,1.391,0.453,2.101,0.636c1.175,0.302,2.55,0.702,3.061,0.979
			c0.306,0.167,0.615,0.335,0.922,0.494c0.453,0.236,0.897,0.322,1.31,0.297c0.751-0.049,1.465-0.428,1.722-0.379
			c0.257,0.053,0.363-0.045,0.232-0.212c-0.131-0.167,0.56-1.11,0.42-2.281c-0.077-0.641-0.444-1.249-1.211-1.648
			c-13.334-6.989-25.97-15.121-37.802-24.3c-3.562-2.762-6.308-5.063-6.234-5.01c0.074,0.053-2.342-2.599-5.626-5.684
			c-3.685-3.456-7.434-6.765-10.608-10.551c-14.137-16.858-32.187-27.85-52.105-36.145c-41.184-17.144-82.522-33.945-121.29-56.222
			c-3.909-2.244-7.919-4.125-9-4.125s0.559,2.652,3.66,5.92c0.078,0.082,0.151,0.159,0.229,0.241
			c3.105,3.268,2.175,4.745-2.073,3.305c-4.247-1.44-7.678-2.391-7.678-2.122C145.896,7.613,148.602,10.286,151.939,13.317z"/>
	</g>
</g>
<g>
</g>
<g>
</g>
<g>
</g>
<g>
</g>
<g>
</g>
<g>
</g>
<g>
</g>
<g>
</g>
<g>
</g>
<g>
</g>
<g>
</g>
<g>
</g>
<g>
</g>
<g>
</g>
<g>
</g>
</svg>
