<?xml version="1.0" encoding="iso-8859-1"?>
<!-- Generator: Adobe Illustrator 16.0.0, SVG Export Plug-In . SVG Version: 6.00 Build 0)  -->
<!DOCTYPE svg PUBLIC "-//W3C//DTD SVG 1.1//EN" "http://www.w3.org/Graphics/SVG/1.1/DTD/svg11.dtd">
<svg version="1.1" id="Capa_1" xmlns="http://www.w3.org/2000/svg" xmlns:xlink="http://www.w3.org/1999/xlink" x="0px" y="0px"
	 width="597.67px" height="597.669px" viewBox="0 0 597.67 597.669" style="enable-background:new 0 0 597.67 597.669;"
	 xml:space="preserve">
<g>
	<g>
		<path d="M0,282.023c3.04,4.096,2.991,7.577,0.094,7.136c-1.273,4.288,10.967,5.883,0.208,11.106
			c3.129,1.461,5.623,2.623,8.491,3.957c0.326,0.438,0.673,0.861,1.061,1.249c0.024,0.024,0.053,0.045,0.078,0.065
			c-2.497,0.248-4.292,0.428-6.259,0.624c-0.216,2.456,3.468,5.141-0.518,6.916c0.673,1.289,1.061,2.921,2.093,3.77
			c1.016,0.837,2.685,0.873,4.202,1.298c-3.313,3.573-1.53,9.51,3.627,14.011c2.02,1.758,3.603,4.01,5.422,6.005
			c0.612,0.67,1.277,1.318,2.02,1.837c9.866,6.891,20.539,10.885,32.86,9.931c4.688-0.363,9.486,0.75,14.187,0.437
			c8.535-0.567,17.197-0.963,25.516-2.763c14.288-3.093,28.254-7.683,42.554-10.693c7.414-1.559,15.251-1.167,22.905-1.461
			c2.342-0.09,4.708,0.457,7.066,0.714c-0.184-0.481-0.371-0.959-0.555-1.44c1.2-0.853,2.473-2.509,3.582-2.406
			c3.774,0.351,7.475,1.439,11.236,2.027c6.544,1.028,13.113,1.893,19.674,2.831c-13.129,7.128-27.315,11.073-41.963,13.187
			c-7.152,1.032-14.496,0.698-21.742,1.159c-7.479,0.474-13.774,4.382-20.212,7.662c-0.645,0.326-0.253,4.941,0.339,5.104
			c7.209,2.003,12.697,9.4,21.538,6.597c-0.832,1.538-1.46,2.705-1.726,3.195c3.301,2.799,6.1,5.41,9.176,7.642
			c0.983,0.714,2.726,0.727,4.056,0.551c2.134-0.281,4.21-0.983,6.218-1.481c2.142,4.146,11.844,7.038,18.233,5.708
			c3.338-0.697,6.663-1.473,11.494-2.55c-2.322,2.808-3.664,4.431-5.851,7.07c12.179-0.521,23.248,4.468,34.251-1.003
			c2.982-1.481,5.051,0.069,7.944,1.256c7.246,2.983,15.022,2.049,22.244-1.488c1.966-0.963,3.896-2.012,5.904-2.877
			c0.792-0.343,2.003-0.706,2.603-0.351c7.038,4.202,14.141,3.108,20.645-0.584c10.098-5.732,19.809-12.146,29.645-18.331
			c3.705-2.33,7.568-4.509,10.886-7.323c2.521-2.143,4.692-4.692,6.72-7.471c23.905,3.595,48.242,3.578,72.195,0.024
			c2.636,0.017,5.275,0.021,7.916,0.004c-0.335,0.429-0.657,0.861-0.979,1.293c-4.676,1.596-10.612,1.931-14.297,3.248
			c-2.301,0.82-4.553,1.722-6.765,2.697c-6.675,1.33-15.271,5.887-18.457,10.734c0.461-0.188,0.938-0.384,1.407-0.575
			c-1.477,1.469-2.51,3.243-2.926,5.148c-0.869,1.253-1.366,2.566-1.562,3.872c-3.292,3.492-6.096,7.544-8.274,12.281
			c-1.399,3.035-2.428,6.308-3.088,9.579c-0.2,0.992,1.407,2.351,2.505,4.027c-0.906,1.306-2.228,3.215-3.889,5.614h4.223
			c0.09,0.388,0.352,0.865,0.221,1.032c-2.945,3.713-2.95,6.736,1.632,9.245c0.678,0.371,0.425,2.444,0.612,3.823
			c4.77,1.354,10.155,2.884,15.892,4.517c-1,1.15,3.949,1.509,7.405-0.592c0.188,0.191,0.371,0.379,0.559,0.571
			c-1.232,1.293-2.464,2.587-4.373,4.598c3.949-0.665,7.552-0.424,10.188-1.905c4.794-2.692,9.466-1.293,14.28-1.257
			c3.239,0.024,6.486-0.934,9.727-1.484c6.883-1.171,13.814-2.109,20.624-3.611c8.482-1.872,16.858-4.219,25.279-6.377
			c1.021-0.261,2-0.881,3.012-0.914c4.749-0.15,7.715-2.771,9.738-6.761c1.38-2.721,2.681-5.479,4.02-8.221l1.371,0.481
			c-0.886,2.795-1.771,5.59-2.656,8.384c0.298,0.172,0.596,0.343,0.894,0.515c0.587-0.555,1.477-1,1.713-1.677
			c2.489-7.124,8.254-10.923,14.187-14.844c9.417-6.226,8.719-25.182-1.889-31.15c-5.737-3.228-7.887-8.67-11.983-12.771
			c-0.396-0.396-0.771-0.796-1.143-1.188c27.589-2.276,54.855-8.355,80.776-18.123c0.118-0.045,0.232-0.098,0.351-0.146
			c3.407-0.2,6.336-1.416,9.033-4.488c6.364-7.246,14.847-10.743,24.423-10.103c5.075,0.339,8.136-0.685,9.233-6.173
			c-8.683-5.271-17.014-3.035-25.496,1.804c2.819-6.891,20.763-10.6,28.07-7.141c0.31,0.498,0.804,0.743,1.313,0.792
			c0.29,0.225,0.82,0.155,0.833-0.098c0.236-0.082,0.444-0.212,0.615-0.376c0.715-0.102,1.326-0.619,1.249-1.562
			c-1.008-11.954-7.12-22.599-16.81-29.339c-0.579-0.979-1.298-1.91-1.983-2.526c-4.74-4.268-9.906-8.078-15.928-12.848
			c-1.428-2.526-3.272-4.794-5.524-6.683c-0.11-2.88-1.959-4.725-4.46-5.871c-6.74-3.097-13.594-6.353-20.755-7.972
			c-4.08-0.922-8.865,1.24-13.325,2.06c-4.23,0.775-8.519,2.546-12.66,2.236c-12.036-0.901-23.986-2.835-36.014-3.921
			c-4.721-0.428-6.406-2.215-6.178-6.887c0.339-6.94,0.506-13.921,0.172-20.857c-0.6-12.473-5.606-23.448-12.489-33.644
			c-0.567-0.836-1.815-1.946-2.554-1.815c-10.841,1.91-19.768-4.488-29.613-6.797c-3.166-0.742-5.182-0.526-7.878,1.44
			c-7.821,5.695-15.981,10.93-24.097,16.206c-1.493,0.971-3.374,1.738-5.12,1.848c-4.174,0.253-3.913,2.322-4.031,5.822
			c-0.171,5.043-2.276,9.996-3.162,15.06c-0.322,1.856-0.24,4.659,0.89,5.736c4.076,3.872,8.666,7.197,13.076,10.714
			c1.611,1.285,3.26,2.526,4.892,3.787l-0.424,1.746c-5.149,0-10.339-0.424-15.435,0.085c-11.514,1.151-19.16-2.721-22.967-14.337
			c-4.406-13.444-13.741-23.856-23.252-33.962c-4.308-4.578-8.678-9.139-13.419-13.256c-6.389-5.549-6.626-5.422-19.681-4.953
			c-1.84-1.804-4.411-2.982-7.748-2.982c-3.386,0-5.989,1.199-7.833,3.04c-2.04-0.49-4.276-0.322-6.92,0.971
			c-2.876,1.407-6.854,0.437-10.29,0.869c-0.637,0.082-1.257,0.278-1.873,0.518c-1.587,0.09-3.129,0.506-4.537,1.216
			c-8.703-2.493-16.548,3.929-25.174,2.722c-1.358-0.192-2.945,1.212-4.427,1.881c1.139,1.412,1.995,3.333,3.468,4.137
			c0.901,0.494,0.53,1.726-0.571,1.881c-4.77-2.705-9.147-5.01-15.431-2.583c-5.634,2.179-12.224,1.807-18.332,2.9
			c-1.869,0.335-3.545,1.767-5.206,2.966c-10.779,4.064-22.64,5.096-32.167,12.746c-1.922,1.542-4.325,2.893-6.704,3.378
			c-4.72,0.967-8.751,1.987-12.073,6.365c-2.623,3.456-7.393,5.279-11.195,7.854c-1.469,0.995-2.893,2.056-4.818,3.431
			c2.619,0.147,5.137,0.424,7.584,0.799c-0.306,1.265-5.214,3.064-7.842,2.607c4.753,5.561,10.065,9.527,14.48,11.351
			c1.428,2.326,2,5.312,0.208,4.981c-0.11,0.449-0.216,0.898-0.326,1.351c16.316,9.886,36.087,9.645,54.762,16.928
			c-2.521,1.367-3.517,2.228-4.643,2.468c-22.779,4.855-45.406,8.368-67.634-2.876c-7.267-3.676-15.435-5.533-22.905-8.858
			c-4.354-1.938-7.899-5.679-12.244-7.65c-5.1-2.309-10.751-5.108-16.03-4.859c-5.178,0.245-8.254-2.293-12.322-3.807
			c-6.091-2.268-12.656-3.99-19.099-4.316c-3.791-0.2-7.752,2.693-11.55,4.374c-1.506,0.665-2.799,1.812-4.321,2.824
			c-0.065,1.322-0.139,2.913-0.216,4.463c-8.405,1.008-8.784,1.351-7.43,6.565c-2.158,0.453-4.321,0.906-7.071,1.481
			c0.881,1.313,1.228,1.893,1.636,2.423c0.934,1.208,1.905,2.391,2.86,3.583c-1.358,0.518-2.688,1.167-4.092,1.538
			c-5.333,1.399-1.938,4.578-1.211,7.479c-1.685,0.795-3.252,1.534-5.275,2.489c3.203,2.901,4.312,5.61-0.543,8.013
			c-2.758,1.367-2.081,3.423,0.065,5.19C5.961,278.168,0,282.023,0,282.023z"/>
	</g>
</g>
<g>
</g>
<g>
</g>
<g>
</g>
<g>
</g>
<g>
</g>
<g>
</g>
<g>
</g>
<g>
</g>
<g>
</g>
<g>
</g>
<g>
</g>
<g>
</g>
<g>
</g>
<g>
</g>
<g>
</g>
</svg>
