<?xml version="1.0" encoding="iso-8859-1"?>
<!-- Generator: Adobe Illustrator 16.0.0, SVG Export Plug-In . SVG Version: 6.00 Build 0)  -->
<!DOCTYPE svg PUBLIC "-//W3C//DTD SVG 1.1//EN" "http://www.w3.org/Graphics/SVG/1.1/DTD/svg11.dtd">
<svg version="1.1" id="Capa_1" xmlns="http://www.w3.org/2000/svg" xmlns:xlink="http://www.w3.org/1999/xlink" x="0px" y="0px"
	 width="556.878px" height="556.878px" viewBox="0 0 556.878 556.878" style="enable-background:new 0 0 556.878 556.878;"
	 xml:space="preserve">
<g>
	<g>
		<path d="M26.623,354.429c1.15,0.412,2.232,1.012,3.129,1.57c0,0.005,0,0.005,0,0.009c-0.539,0.408-1.069,0.853-1.591,1.375
			c-3.088,3.088-4.847,7.331-4.847,11.701s1.759,8.613,4.847,11.701c2.771,2.771,7.617,5.361,11.702,4.848
			c0.016-0.005,0.037-0.005,0.057-0.009c0.229,0.816,0.477,1.588,0.759,2.297c3.097,7.826,7.307,14.954,12.921,21.266
			c7.299,8.205,16.471,14.847,26.63,19.062c5.398,4.296,10.812,8.707,16.985,10.922c12.252,4.395,20.783,12.191,28.242,21.869
			l6.055,8.486c1.587,2.228,3.468,3.941,5.5,5.198c1.195,1.093,2.436,2.125,3.721,3.072c4.043,2.97,9.69,3.668,14.398,5.867
			c3.884,1.815,7.821,3.888,11.061,6.646c27.887,23.767,59.532,41.629,91.641,58.781c14.667,7.837,30.649,7.956,46.655,7.735
			c1.521-0.021,3.023-1.064,4.7-1.697c-0.017-6.761-2.611-10.42-9.095-12.938c-30.016-11.669-55.822-29.861-76.851-54.117
			c-6.846-7.899-10.788-18.36-15.814-27.781c-2.55-4.777,0.885-7.25,4.606-8.816c0.518-0.217,1.061-0.375,1.632-0.498
			c9.404,1.845,18.805,3.688,28.209,5.537c3.542,1.742,7.173,3.431,10.988,4.422c11.709,3.036,23.741,4.823,35.562,7.475
			c2.48,0.56,4.594,2.677,6.936,3.962c10.796,5.933,21.604,11.836,32.42,17.731c11.819,6.438,23.619,12.918,35.487,19.267
			c18.263,9.771,36.875,18.091,58.173,19.184c18.246,0.935,36.23-1.171,52.293-8.874c6.785-3.252,12.098-13.635,14.162-21.771
			c3.443-13.57-0.82-26.602-6.899-39.67c-18.082-38.854-34.606-78.43-52.093-117.565c-2.983-6.679-7.675-12.607-11.661-18.825
			c-0.559-0.873-1.868-2.195-2.399-2.02c-10.33,3.468-9.567-7.36-15.377-11.057c10.18-5.729,17.625-4.627,24.333,3.839
			c17.45,22.021,34.5,44.35,51.877,66.427c6.467,8.217,13.121,16.332,20.277,23.945c2.362,2.51,7.083,5.108,9.772,4.342
			c2.599-0.743,5.487-5.7,5.643-8.936c1.064-21.849,8.543-42.032,15.879-62.139c6.667-18.266,11.722-36.691,11.894-56.182
			c0.073-8.208-0.511-16.458-1.33-24.635c-1.791-17.769-4.623-35.455-5.667-53.26c-0.657-11.179,1.085-22.514,1.881-33.766
			c0.648-9.147-2.334-11.824-10.462-7.414c-10.343,5.614-20.354,12.073-29.727,19.192c-15.104,11.473-29.625,23.725-44.284,35.778
			c-8.286,6.813-16.263,14.006-24.554,20.816c-9.62,7.907-15.948,8.425-25.247,1.657c2.685-0.718,4.758-0.902,6.455-1.799
			c4.745-2.518,10.433-4.362,13.794-8.189c14.986-17.054,24.064-36.785,28.267-59.474c2.497-13.472,9.567-26.104,14.647-39.09
			c6.609-16.908,13.333-33.77,19.832-50.723c0.629-1.644,0.47-3.921-0.105-5.643c-3.9-11.714-8.059-23.342-12.036-35.031
			c-2.562-7.532-8.123-11.726-14.713-15.875c-18.854-11.873-40.028-16.675-61.199-21.567c-4.415-1.02-9.286,0.053-13.946-0.041
			c-13.492-0.277-27.033-1.522-40.465-0.767c-15.015,0.849-30.506,1.534-44.762,5.752c-26.944,7.96-51.763,20.339-72.734,40.225
			c-12.627,11.975-27.825,21.245-41.893,31.698c-3.538,2.627-7.561,4.729-10.706,7.748c-26.422,25.39-56.924,45.716-85.056,68.977
			c-2.46,2.032-4.235,4.892-6.316,7.373c-3.146,3.754-5.578,8.707-9.551,11.061c-15.888,9.413-23.199,24.806-29.217,40.836
			c-11.689,31.126-18.385,63.208-17.797,96.603c-1.97,5.847-3.5,11.808-3.255,18.434c0.069,1.844,0.342,3.696,0.742,5.536
			c-0.171,0.575-0.338,1.15-0.526,1.714C16.272,345.041,17.214,351.051,26.623,354.429z"/>
	</g>
</g>
<g>
</g>
<g>
</g>
<g>
</g>
<g>
</g>
<g>
</g>
<g>
</g>
<g>
</g>
<g>
</g>
<g>
</g>
<g>
</g>
<g>
</g>
<g>
</g>
<g>
</g>
<g>
</g>
<g>
</g>
</svg>
