<?xml version="1.0" encoding="iso-8859-1"?>
<!-- Generator: Adobe Illustrator 16.0.0, SVG Export Plug-In . SVG Version: 6.00 Build 0)  -->
<!DOCTYPE svg PUBLIC "-//W3C//DTD SVG 1.1//EN" "http://www.w3.org/Graphics/SVG/1.1/DTD/svg11.dtd">
<svg version="1.1" id="Capa_1" xmlns="http://www.w3.org/2000/svg" xmlns:xlink="http://www.w3.org/1999/xlink" x="0px" y="0px"
	 width="578.97px" height="578.97px" viewBox="0 0 578.97 578.97" style="enable-background:new 0 0 578.97 578.97;"
	 xml:space="preserve">
<g>
	<path d="M578.672,221.905c-1.396-3.235-3.803-5.569-6.422-8.017c-2.619-2.448-4.953-4.978-8.147-6.838
		c-3.121-1.82-6.255-2.599-9.743-2.534c-0.979,0.016-1.959-0.029-2.938-0.041c-4.998-0.078-5.541-0.334-6.279-5.227
		c-0.065-0.444-0.478-0.75-0.922-0.681c-1.877,0.298-3.754,0.608-5.639,0.861c-0.828,0.11-2.113,0.404-2.461-0.004
		c-3.166-3.733-9.077-3.558-11.771-7.895c-0.236-0.383-0.71-0.894-1.102-1.118c-6.707-3.901-12.815-9.083-21.028-9.764
		c-0.077-0.008-0.151-0.082-0.22-0.167c-0.099-0.122-0.311-0.216-0.474-0.216s-0.653,0.082-1.094,0.171
		c-0.567,0.118-1.13,0.236-1.681,0.408c-4.084,1.277-8.49,1.995-12.158,4.031c-4.852,2.688-9.119,6.426-13.644,9.706
		c-3.636,2.632-7.079,5.602-10.955,7.809c-10.689,6.087-21.824,6.912-33.677,3.084c-11.33-3.664-23.133-5.026-35.1-4.431
		c-2.632,0.13-5.264,0.253-7.891,0.379c-2.154,0.061-4.309,0.163-6.459,0.31c-7.527,0.355-15.055,0.706-22.587,1.049
		c-2.448,0.11-4.97-0.241-7.332,0.24c-6.98,1.416-13.896,3.15-20.845,4.737c-10.184,2.321-20.298,5.083-30.587,6.797
		c-10.278,1.714-20.719,2.583-31.119,3.432c-7.707,0.628-15.471,0.559-23.203,0.938c-2.272,0.11-4.545,0.208-6.813,0.281
		c-0.743-0.021-1.485-0.033-2.224-0.053c-0.473-0.017-0.942,0.004-1.403,0.053c-0.449,0.049-1.175,0.126-1.628,0.131
		c-13.533,0.24-27.026-0.38-40.392-2.885c-1.579-0.294-3.154-0.6-4.733-0.91c-5.353-1.22-10.726-2.371-16.116-3.399
		c-5.663-1.265-11.31-2.587-16.948-3.949c-15.5-3.742-31.11-3.497-46.741-1.742c-14.398,1.616-28.515,4.782-42.306,9.262
		c-0.428,0.139-0.967,0.29-1.199,0.334c-0.139,0.028-0.282,0.053-0.42,0.082c-0.216,0.045-0.416,0.106-0.6,0.179
		c-0.322,0.135-0.898,0.424-1.326,0.567c-8.707,2.876-17.43,5.724-26.075,8.772c-11.473,4.043-22.457,9.176-32.828,15.561
		c-0.485,0.298-0.877,0.743-1.273,1.188c-0.298,0.338-0.204,0.71,0.241,0.783c0.963,0.163,1.718,0.061,2.399-0.22
		c5.614-2.297,11.138-4.827,16.813-6.953c7.124-2.668,14.227-5.593,21.592-7.385c12.529-3.047,25.247-5.34,37.903-7.87
		c10.743-2.146,21.522-3.199,32.326-2.738c12.529,1.081,24.924,3.713,37.136,6.94c6.185,1.636,12.342,3.382,18.486,5.186
		c2.285,0.808,4.565,1.656,6.83,2.554c8.605,3.407,17.503,6.316,26.512,8.401c12.285,2.844,24.823,4.558,37.206,6.993
		c15.565,3.06,30.833,6.883,45.027,14.529c6.1,3.284,12.31,7.43,19.918,6.826c0.103-0.009,0.213,0.073,0.4,0.199
		c0.204,0.144,0.424,0.608,0.478,1.053c0.485,4.121,0.946,8.405,1.55,12.669c0.311,2.17-0.199,3.603-2.17,4.847
		c-6.414,4.035-10.649,9.87-13,16.883c-0.245,0.58-0.437,1.184-0.58,1.804c-1.938,5.965-5.606,10.645-10.657,13.896
		c-7.271,4.68-13.472,10.453-19.348,16.643c-1.746,1.84-3.048,4.223-4.117,6.557c-2.17,4.745-2.721,10.518-9.094,12.954
		c-0.42,0.159-0.433,0.403-0.012,0.571c1.261,0.497,2.187,0.864,3.06,1.211c0.42,0.168,0.689,0.661,0.587,1.098
		c-0.792,3.501-2.15,6.712-4.986,8.915c-3.958,3.08-4.598,6.744-2.958,11.179c0.339,0.914,0.632,1.873,0.755,2.832
		c0.457,3.606,2.17,6.463,5.031,8.642c3.166,2.415,6.361,4.79,9.445,7.107c0.359,0.269,0.93,0.249,1.334,0.045
		c3.015-1.51,6.928,1.778,8.858-1.604c0.224-0.392,0.689-0.62,1.118-0.474c1.175,0.404,2.305,0.796,3.66,1.265
		c0.424,0.147,0.637-0.073,0.474-0.493c-0.196-0.515-0.286-0.775-0.42-1.008c-2.125-3.647-5.431-4.725-9.466-4.578
		c-3.623,0.131-6.332-1.297-7.842-4.925c-1.334-3.206-1.016-5.744,1.444-8.273c1.897-1.95,2.864-4.325,1.995-7.267
		c-0.396-1.343-0.485-3.109,0.057-4.346c3.382-7.687,6.969-15.287,10.539-22.893c0.408-0.865,1.069-1.641,1.713-2.358
		c2.211-2.456,4.643-4.729,6.671-7.323c4.476-5.717,10.224-9.393,17.227-10.963c5.613-1.261,11.366-1.905,16.96-3.231
		c2.559-0.608,4.949-1.926,7.03-2.885c0.407-0.188,1.028-0.102,1.379,0.184c2.599,2.109,4.937,4.092,7.389,5.92
		c3.664,2.729,7.104,5.569,7.797,10.485c0.013,0.078,0.09,0.147,0.184,0.213c0.131,0.094,0.478-0.099,0.779-0.433
		c0.082-0.094,0.172-0.188,0.266-0.29c0.302-0.334,0.66-0.257,0.8,0.172c1.403,4.275,2.615,8.388,4.182,12.366
		c1.375,3.496,2.672,7.274,5.047,10.032c1.485,1.722,1.999,2.926,1.685,4.884c-0.061,0.384-0.069,0.775-0.077,1.216
		c-0.008,0.449,0.311,0.653,0.697,0.421c3.415-2.049,4.134-5.235,3.733-9.123c-0.045-0.449,0.114-0.519,0.372-0.147
		c2.517,3.623,4.206,7.214,7.021,9.229c3.039,2.175,3.876,4.77,4.651,7.829c0.016,0.065,0.105,0.11,0.212,0.151
		c0.139,0.057,0.478-0.184,0.722-0.56c2.077-3.178,1.808-7.078-1.028-11.473c-4.035-6.263-7.494-12.656-8.71-19.82l-0.388-3.301
		c-0.11-1.656-0.11-3.354,0.049-5.104c0.33-3.644-0.82-4.394-4.419-4.859c-0.841-0.109-1.767-0.293-2.46-0.738
		c-5.345-3.455-10.661-6.952-15.937-10.514c-1.021-0.689-1.918-1.555-2.774-2.33c-0.335-0.302-0.33-0.779,0.028-1.057
		c1.881-1.452,4.125-2.599,4.672-4.296c1.938-5.998,6.062-7.051,11.448-6.467c1.045,0.114,2.134-0.258,3.207-0.322
		c4.484-0.27,8.968-0.641,13.456-0.723c4.304-0.077,8.617,0.273,12.921,0.217c5.26-0.074,9.404-1.755,11.404-7.353
		c0.853-2.387,2.333-4.239,4.332-5.442c0.388-0.233,1.065-0.502,1.494-0.641c0.465-0.151,0.926-0.302,1.387-0.457
		c0.429-0.143,1.02-0.311,1.318-0.355c0.175-0.028,0.354-0.049,0.538-0.069c1.946-0.204,3.88-0.551,5.834-0.693
		c12.958-0.946,25.284-4.084,36.635-10.563c0.588-0.334,1.109-0.526,1.583-0.526c0.449-0.004,1.012,0.478,1.289,0.833
		c0.588,0.759,1.176,1.518,1.767,2.276c0.073,0.098,0.159,0.184,0.245,0.261c0.146,0.131,0.506,0.511,0.771,0.873
		c3.067,4.17,6.14,8.332,9.151,12.547c1.342,1.881,2.497,3.892,3.713,5.862c0.236,0.384,0.66,0.584,0.942,0.449
		c0.281-0.135,0.383-0.592,0.224-1.012c-1.142-3.044-2.28-6.071-3.337-8.887c-0.159-0.42,0.081-0.787,0.53-0.815
		c1.958-0.127,3.958-0.258,5.957-0.388c0.448-0.029,0.8-0.245,0.783-0.478s-0.384-0.522-0.812-0.665
		c-3.248-1.077-5.758-2.941-7.952-5.206c-1.273-3.509-3.488-6.536-6.438-8.821c0.041-0.081,0.053-0.18,0.139-0.225
		c0.229-0.122,0.388-0.208,0.547-0.298c0.767-0.432,1.501-0.934,2.301-1.293c8.291-3.737,13.216-9.486,12.265-19.237
		c-0.339-3.472,2.407-6.369,5.74-7.723c5.786-2.35,11.706-4.5,17.173-7.471c5.243-2.848,9.837-2.525,14.574,0.616
		c3.981,2.636,8.151,5.026,11.922,7.936c7.438,5.745,14.651,11.783,21.967,17.691c2.134,1.722,4.174,3.606,6.475,5.071
		c3.052,1.942,6.646,2.42,9.764,1.62c0.437-0.114,1.154-0.241,1.57-0.412c0.416-0.168,0.747-0.445,0.809-0.49
		c0.061-0.045,0.436-0.253,0.815-0.501c0.249-0.159,0.485-0.335,0.718-0.515c0.355-0.277,0.481-0.869,0.314-1.289
		c-0.727-1.795-1.44-3.57-2.175-5.386c-0.167-0.416-0.607-0.551-0.979-0.298c-0.362,0.245-0.709,0.478-1.102,0.743
		c-0.375,0.253-0.729,0.42-0.791,0.375s0.024-0.417,0.2-0.833c0.143-0.343,0.269-0.649,0.396-0.959
		c0.171-0.416-0.037-0.64-0.465-0.506c-0.192,0.062-0.363,0.114-0.526,0.167c-0.429,0.139-0.755-0.106-0.723-0.547
		c0.032-0.437-0.27-0.632-0.677-0.437c-0.237,0.114-0.457,0.22-0.678,0.326c-0.404,0.196-0.775-0.008-0.828-0.453
		c-0.118-1.004-0.225-1.938-0.326-2.835c-0.054-0.449-0.429-0.661-0.845-0.481c-0.302,0.13-0.629,0.273-0.979,0.428
		c-0.412,0.18-0.661-0.028-0.551-0.465c0.069-0.27,0.131-0.519,0.191-0.763c0.11-0.437-0.143-0.653-0.562-0.485
		c-0.47,0.188-0.914,0.367-1.396,0.563c-0.416,0.167-0.587-0.024-0.375-0.424c0.433-0.808,0.849-1.522,1.391-2.428
		c0.233-0.388,0.086-0.542-0.326-0.355c-0.746,0.343-1.302,0.6-1.84,0.849c-0.408,0.188-0.657-0.012-0.551-0.449
		c0.09-0.367,0.171-0.71,0.27-1.102c0.105-0.437-0.114-0.587-0.486-0.339c-0.383,0.257-0.718,0.481-1.085,0.727
		c-0.375,0.253-0.555,0.114-0.399-0.31c0.134-0.367,0.257-0.698,0.379-1.032c0.155-0.424-0.073-0.677-0.51-0.571
		c-0.037,0.008-0.073,0.016-0.11,0.029c-0.437,0.106-0.656-0.143-0.489-0.563c0.09-0.229,0.184-0.457,0.281-0.702
		c0.167-0.42-0.049-0.648-0.478-0.514l-0.008,0.004c-0.429,0.134-0.824-0.123-0.861-0.571c-0.032-0.367-0.085-0.71-0.277-0.942
		c-1.057-1.293-2.599-2.285-3.357-3.709c-2.697-5.059-1.208-9.6,2.22-13.753c0.819-0.992,1.604-2.146,2.636-2.774
		c0.383-0.233,0.877-0.31,1.048-0.265c0.114,0.028,0.221,0.057,0.307,0.089c0.44,0.167,0.894,0.257,1.346,0.282
		c0.449,0.024,1.065,0.232,1.429,0.502c0.367,0.273,0.759,0.502,1.179,0.681c0.412,0.18,1.065,0.494,1.396,0.8
		c0.828,0.771,1.461,1.673,1.897,2.774c0.167,0.42,0.542,0.539,0.881,0.241c0.045-0.041,0.09-0.078,0.131-0.114
		c0.339-0.294,0.963-0.416,1.387-0.265c0.498,0.175,0.951,0.334,1.384,0.485c0.424,0.147,0.71,0.628,0.645,1.073
		c-0.041,0.261-0.078,0.51-0.114,0.747c-0.069,0.445,0.225,0.702,0.656,0.571c1.232-0.372,2.399-0.727,3.607-1.089
		c0.433-0.131,0.779,0.134,0.779,0.583v2.673c0,0.449,0.109,0.865,0.244,0.93c0.135,0.065,0.441-0.196,0.678-0.58
		c0.335-0.542,0.673-1.085,1.008-1.632c0.236-0.384,0.51-0.653,0.607-0.6c0.099,0.053,0.086,0.449-0.028,0.885
		c-0.139,0.526-0.273,1.057-0.412,1.583c-0.114,0.437-0.057,0.861,0.122,0.955c0.18,0.094,0.515-0.147,0.743-0.53
		c0.551-0.922,1.13-1.897,1.864-3.133c0.232-0.388,0.371-0.339,0.311,0.11c-0.086,0.657-0.155,1.171-0.217,1.628
		c-0.057,0.445,0.073,0.942,0.294,1.102c0.221,0.163,0.579-0.028,0.796-0.424c0.257-0.465,0.514-0.926,0.767-1.391
		c0.217-0.396,0.498-0.628,0.62-0.518c0.127,0.106,0.131,0.546,0.017,0.983c-0.122,0.449-0.24,0.902-0.363,1.351
		c-0.118,0.437-0.081,0.873,0.078,0.979c0.158,0.106,0.534-0.069,0.844-0.396c0.539-0.575,1.09-1.159,1.678-1.783
		c0.31-0.327,0.559-0.233,0.559,0.22v1.322c0,0.449,0.24,0.539,0.534,0.196c0.547-0.636,1.021-1.179,1.485-1.722
		c0.294-0.343,0.6-0.257,0.682,0.188c0.081,0.457,0.154,0.894,0.224,1.334c0.074,0.445,0.433,0.604,0.809,0.351
		c0.109-0.073,0.212-0.143,0.31-0.208c0.375-0.253,0.877-0.147,1.122,0.229c0.008,0.008,0.013,0.021,0.021,0.029
		c0.245,0.379,0.579,0.42,0.746,0.085c0.164-0.331,0.56-0.571,0.878-0.567c0.318,0.004,0.587,0.024,0.6,0.082
		c0.012,0.057,0.384,0.061,0.824-0.033c3.509-0.747,5.165-3.015,5.337-6.561c0.004-0.078,0.077-0.155,0.163-0.233
		c0.118-0.102,0.212-0.551,0.212-1v-1.901C578.974,223.036,578.848,222.322,578.672,221.905z"/>
</g>
<g>
</g>
<g>
</g>
<g>
</g>
<g>
</g>
<g>
</g>
<g>
</g>
<g>
</g>
<g>
</g>
<g>
</g>
<g>
</g>
<g>
</g>
<g>
</g>
<g>
</g>
<g>
</g>
<g>
</g>
</svg>
