<?xml version="1.0" encoding="iso-8859-1"?>
<!-- Generator: Adobe Illustrator 16.0.0, SVG Export Plug-In . SVG Version: 6.00 Build 0)  -->
<!DOCTYPE svg PUBLIC "-//W3C//DTD SVG 1.1//EN" "http://www.w3.org/Graphics/SVG/1.1/DTD/svg11.dtd">
<svg version="1.1" id="Capa_1" xmlns="http://www.w3.org/2000/svg" xmlns:xlink="http://www.w3.org/1999/xlink" x="0px" y="0px"
	 width="593.701px" height="593.701px" viewBox="0 0 593.701 593.701" style="enable-background:new 0 0 593.701 593.701;"
	 xml:space="preserve">
<g>
	<g>
		<path d="M593.496,288.508c-8.702-11.918-20.959-19.499-33.79-26.369c-0.196-0.103-0.302-0.196-0.408-0.29
			c-0.159-0.143-0.339-0.261-0.526-0.351c-0.314-0.151-0.918-0.363-1.31-0.584c-3.02-1.705-6.087-3.292-9.192-4.773
			c-8.009-4.39-16.528-7.76-25.354-10.053c-4.202-1.416-8.429-2.762-12.668-4.08c-0.429-0.135-1.064-0.473-1.448-0.71
			c-0.996-0.612-2.109-0.951-3.26-1.004c-0.449-0.02-1.159-0.094-1.592-0.228c-4.202-1.286-8.404-2.566-12.591-3.889
			c-17.238-5.438-35.125-7.385-53.195-6.201c-5.193,0.338-10.362,1.024-15.532,1.75c-0.632,0.09-1.102,0.155-1.57,0.22
			c-2.726,0.278-5.447,0.616-8.16,1.004c-1.289,0.086-2.587,0.106-3.864,0.286c-6.96,0.967-13.884,2.289-20.873,2.905
			c-16.83,1.481-33.48,1.155-50-0.567c-12.697-2.101-25.395-4.203-38.091-6.304c-4.036-0.897-8.062-1.86-12.089-2.885
			c-19.915-5.067-39.103-12.387-60.474-12.525c-23.583-0.151-46.696,0.445-69.658,6.222c-9.27,2.333-18.956,3.182-28.511,4.186
			c-6.467,0.681-12.317-1.693-17.34-5.838c-4.219-3.484-8.38-7.034-12.514-10.621c-7.332-6.365-15.953-9-25.521-9.155
			c-11.163-0.184-20.775,4.321-30.171,9.498c-0.184,0.09-0.367,0.188-0.539,0.298c-0.273,0.151-0.547,0.302-0.82,0.453
			c-0.273,0.155-0.501,0.424-0.693,0.738c-0.237,0.384-0.485,0.897-0.6,1.126c-0.114,0.225-0.453,0.669-0.775,0.983
			c-0.702,0.677-1.399,1.351-2.101,2.028c-0.322,0.314-0.645,0.559-0.714,0.547c-0.07-0.012-0.375-0.298-0.722-0.583
			c-0.481-0.392-1.024-0.71-1.604-0.938c-0.42-0.167-0.833-0.29-0.898-0.343c-0.041-0.029-0.077-0.061-0.118-0.094
			c-2.125-1.722-3.606-1.991-5.324,0.677c-0.204,0.314-0.42,0.624-0.649,0.922c-0.273,0.359-0.82,0.833-1.195,1.082
			c-5.769,3.778-10.751,8.543-14.786,14.117c-0.265,0.363-0.771,0.885-1.134,1.15c-1.758,1.29-3.513,2.579-5.271,3.868
			c-0.788,0.576-1.449,1.273-1.942,2.044c-0.241,0.379-0.624,1-0.889,1.363c-2.603,3.586-3.713,7.976-2.57,12.62
			c0.11,0.44,0.253,0.84,0.424,1.203c0.191,0.408,0.522,1.053,0.734,1.448c0.763,1.399,2.036,2.257,3.598,1.815
			c0.151-0.04,0.302-0.09,0.453-0.143c0.249-0.086,0.514-0.163,0.6-0.167c0.082-0.004,0.396,0.257,0.734,0.559
			c1.2,1.073,2.681,1.82,4.312,2.105c0.751,0.135,1.33-0.706,0.763-1.306c-0.298-0.314-0.596-0.628-0.894-0.942
			c-0.31-0.326-0.208-0.519,0.232-0.42c1.016,0.22,2.032,0.444,3.048,0.665c0.139,0.028,0.261,0.024,0.375-0.009
			c0.2-0.057,0.759-0.204,1-0.579c0.135-0.208,0.155-0.478-0.028-0.755c-0.147-0.22-0.298-0.444-0.445-0.665
			c-0.245-0.367-0.094-0.555,0.338-0.424c1.791,0.551,3.583,1.098,5.374,1.648c0.73,0.224,1.354-0.784,0.763-1.306
			c-0.824-0.73-1.432-1.596-1.807-2.546c-0.163-0.421,0.028-0.535,0.396-0.277c1.065,0.738,2.305,1.199,3.631,1.321
			c0.449,0.041,1.2,0.188,1.607-0.004c0.31-0.146,0.506-0.453,0.355-0.861c-0.404-1.093-0.804-2.187-1.208-3.28
			c-0.155-0.424,0.082-0.734,0.53-0.697c1.269,0.11,2.542,0.221,3.811,0.33c0.449,0.041,1.216,0.225,1.6-0.02
			c0.392-0.249,0.575-0.771,0.126-1.146c-0.922-0.768-1.579-1.702-1.971-2.779c-0.155-0.424,0.045-1.016,0.388-1.31
			c0.388-0.334,0.779-0.673,1.179-1.016c0.343-0.294,0.958-0.392,1.375-0.225c0.636,0.253,1.269,0.51,1.905,0.763
			c0.473,0.192,1-0.286,0.991-0.755c-0.016-0.775-0.028-1.554-0.045-2.33c-0.008-0.449,0.18-0.955,0.42-1.118
			c0.241-0.163,0.665-0.004,0.947,0.351c0.767,0.975,1.534,1.954,2.301,2.929c0.481,0.612,1.261,0.021,1.334-0.555
			c0.045-0.322,0.085-0.648,0.13-0.971c0.061-0.444,0.412-0.596,0.767-0.318c1.881,1.464,3.529,3.402,4.671,5.532
			c0.212,0.396,0.314,1.09,0.331,1.542c0.049,1.277,0.587,2.51,1.432,3.505c0.29,0.343,0.469,0.689,0.347,0.812
			c-0.118,0.122-0.298,0.171-0.396,0.114c-0.061-0.037-0.118-0.074-0.18-0.11c-0.069-0.049-0.139-0.103-0.212-0.151
			c-0.053-0.037-0.11-0.073-0.164-0.102c-0.094-0.049-0.489-0.27-0.873-0.502c-0.506-0.307-1.012-0.608-1.518-0.914
			c-0.057-0.033-0.114-0.062-0.171-0.077c-0.098-0.033-0.51-0.209-0.865-0.058s-0.588,0.579-0.653,0.747
			c-0.037,0.09-0.053,0.195-0.041,0.317c0.094,1.281,0.575,2.433,1.387,3.346c0.298,0.339,0.327,0.829,0.012,1.155
			c-0.298,0.302-0.591,0.607-0.889,0.909c-0.314,0.322-0.653,0.519-0.759,0.441l-0.188-0.144c-0.849-0.652-2.187-0.13-2.676,0.702
			c-0.266,0.453-0.335,1.004-0.196,1.506c0.049,0.179,0.119,0.33,0.208,0.469c0.02,0.033,0.004,0.09,0.016,0.131
			c-1.036-0.073-2.056-0.2-2.783-0.445c-0.428-0.146-0.563-0.032-0.322,0.352c0.237,0.379,0.616,0.864,1.053,1.358
			c-0.13-0.041-0.261-0.086-0.392-0.127c-1.914-0.624-2.946,1.637-2.089,2.979c0.053,0.086,0.061,0.18,0.094,0.27
			c-1.228,0.11-2.62,0.017-3.954-0.567c-0.412-0.179-0.616-0.024-0.457,0.396c0.294,0.779,0.816,2.023,1.493,3.117
			c-0.049-0.013-0.106,0.008-0.155-0.013c-0.261-0.114-0.522-0.229-0.788-0.339c-0.979-0.424-6.169-4.378-6.756-3.378
			c-0.49,0.836,3.803,6.332,4.782,6.757c0.057,0.024,0.114,0.049,0.171,0.073c-0.926-0.078-1.885-0.225-2.701-0.526
			c-0.424-0.155-0.498-0.073-0.191,0.257l1.881,2.04c-0.163,0.041-0.327,0.098-0.481,0.069c-1.24-0.216-2.485-0.433-3.725-0.645
			c-0.445-0.077-1.2-0.273-1.604-0.077c-0.392,0.188-0.608,0.6-0.294,1.016c0.653,0.865,1.306,1.729,1.958,2.595
			c0.069,0.094,0.069,0.18,0.102,0.273c-1.379-0.037-2.717-0.184-3.533-0.302c-0.445-0.065-0.539,0.118-0.208,0.424l1.656,1.522
			c-0.021-0.005-0.033-0.013-0.053-0.013l-1.534-0.11c-0.449-0.032-1.216-0.191-1.6,0.045c-0.261,0.163-0.432,0.453-0.355,0.828
			c0.086,0.404,0.225,0.788,0.417,1.143c0.212,0.396,0.42,1.049,0.575,1.448c0.09,0.237,0.232,0.457,0.42,0.645
			c0.787,0.775,1.571,1.555,2.358,2.33c0.139,0.139,0.294,0.249,0.461,0.335c0.282,0.146,0.682,0.302,0.857,0.433
			c0.106,0.077,0.212,0.154,0.322,0.228c1.709,1.135,4.015,0.938,5.937,0.694c0.11-0.013,0.216-0.037,0.322-0.062
			c0.175-0.045,0.669-0.077,1.077-0.236c0.232-0.09,0.457-0.225,0.677-0.4c13.46-10.71,27.107-21.864,35.692-37.001
			c0.225-0.392,0.653-0.976,0.963-1.302c0.53-0.555,1.061-1.114,1.587-1.669c4.986-5.255,11.514-6.638,16.834-2.909
			c8.927,6.258,17.707,12.738,26.316,19.424c1.726,1.343,3.251,3.962,3.419,6.108c0.726,9.335,5.463,15.446,13.831,19.106
			c4.35,1.901,8.674,3.859,13.807,6.156c0.412,0.184,0.478,0.584,0.151,0.894c-5.431,5.101-10.335,9.825-15.402,14.374
			c-2.072,1.856-4.496,3.317-6.703,5.027c-0.212,0.167-0.424,0.334-0.633,0.501c-0.734,0.604-1.248,1.478-1.791,2.313
			c-0.245,0.38-0.122,0.535,0.294,0.367c0.677-0.273,1.354-0.551,2.028-0.824c0.416-0.171,0.91-0.114,1.102,0.127
			c0.192,0.24,0.147,0.742-0.098,1.118c-0.334,0.514-0.673,1.027-1.008,1.546c-0.245,0.375-0.151,0.474,0.216,0.208
			c1.779-1.269,3.558-2.538,5.341-3.807c0.367-0.261,0.824-0.367,1.024-0.236c0.2,0.13,0.192,0.559-0.02,0.959
			c-1.424,2.688-2.844,5.373-4.268,8.062c-0.212,0.4-0.191,0.927,0.037,1.18c0.232,0.253,0.64,0.167,0.914-0.192
			c0.951-1.244,1.897-2.488,2.848-3.733c0.273-0.358,0.693-0.342,0.938,0.033c0.294,0.448,0.583,0.901,0.877,1.351
			c0.245,0.379,0.18,0.935-0.114,1.276c-1.926,2.253-2.187,4.97-2.485,7.675c-0.049,0.449,0.147,0.894,0.441,0.991
			c0.293,0.103,0.665-0.154,0.828-0.575c1.041-2.685,2.085-5.373,3.125-8.058c1.204-3.419,2.403-6.834,3.606-10.253
			c0.151-0.425,0.539-1.012,0.873-1.318c0.641-0.583,1.281-1.167,1.926-1.746c4.949-3.811,9.931-7.576,14.725-11.57
			c0.816-0.682,1.522-1.077,2.261-1.225c0.44-0.086,1.142,0.09,1.559,0.266c4.565,1.971,9.429,3.19,14.431,3.933
			c5.071,1.131,10.233,1.885,15.504,2.15c4.386,0.221,8.772,1.139,13.064,2.138c2.938,0.686,5.447,2.188,6.63,5.468
			c0.057,0.163,0.151,0.322,0.269,0.477c0.184,0.241,0.535,0.743,0.894,1.017c0.062,0.049,0.131,0.09,0.2,0.13
			c0.392,0.225,1.065,0.372,1.444,0.494c0.245,0.077,0.481,0.139,0.706,0.171c1.738,0.258,3.623-0.184,5.398-0.555
			c5.851-1.231,11.628-2.99,17.532-3.725c4.578-0.567,9.657-0.51,13.138,3.272c0.628,0.681,1.228,1.387,1.815,2.109
			c0.286,0.351,0.571,0.828,0.694,1.031c0.073,0.123,0.155,0.241,0.257,0.348c0.27,0.293,0.539,0.591,0.804,0.885
			c1.587,2.134,3.117,4.378,4.774,6.635c0.265,0.362,0.273,0.95,0.016,1.317c-2.856,4.076-5.577,8.638-10.881,10.792
			c-2.378,0.967-3.097,2.917-2.681,5.438c0.857,5.182-1.093,9.44-4.619,13.089c-1.448,1.497-3.19,2.745-4.459,4.373
			c-2.292,2.946-4.741,5.933-4.333,9.915c0.045,0.448,0.428,0.615,0.808,0.371c3.933-2.505,7.622-4.855,11.33-7.218
			c0.379-0.24,0.808-0.094,0.963,0.33c0.453,1.27,0.841,2.347,1.302,3.636c0.151,0.425,0.449,0.444,0.648,0.041
			c0.926-1.909,1.399-3.55,2.489-4.391c4.35-3.341,5.863-8.27,7.544-12.994c0.702-1.975,0.947-3.737,3.06-3.938
			c0.449-0.041,0.739-0.363,0.677-0.808c-0.799-5.773,2.032-11.824,7.161-14.978c0.485-0.298,1.289-0.466,1.799-0.282
			c6.34,2.269,12.872,4.154,18.923,7.042c9.531,4.55,15.459,12.975,20.338,21.886c3.016,5.5,5.708,11.469,4.203,18.254
			c-0.257,1.158,0.265,2.542,0.596,3.773c0.102,0.376,0.18,0.747,0.232,1.114c0.069,0.444,0.021,1.167-0.082,1.607
			c-0.354,1.559-0.832,3.101-1.448,4.619c-0.171,0.416-0.547,1.036-0.869,1.354c-1.285,1.276-3.007,2.19-5.063,2.57
			c-2.546,0.465-5.161,0.894-7.519,1.881c-1.318,0.551-2.293,1.917-3.884,3.524c-0.318,0.322-0.22,0.535,0.225,0.47
			c2.656-0.392,4.594-1.13,5.537-0.465c4.394,3.117,8.523,2.432,12.909,0.289c0.327-0.159,0.779-0.053,1.176,0.086
			c0.424,0.146,0.975-0.021,1.248-0.38c1.248-1.64,2.574-3.063,3.272-4.749c2.199-5.287,3.908-10.779,6.111-16.062
			c1.358-3.26,1.306-5.684-2.089-7.038c-0.42-0.167-0.506-0.522-0.18-0.832c0.575-0.547,1.09-1.041,1.506-1.437
			c0.326-0.311,0.314-0.8-0.045-1.073c-1.84-1.432-3.958-2.55-4.655-4.255c-1.714-4.179-2.827-8.666-3.647-13.13
			c-0.922-5.019-3.402-8.196-7.973-10.673c-8.666-4.704-17.438-9.494-21.579-19.441c-0.045-0.11-0.094-0.217-0.139-0.326
			c-0.077-0.18,0.119-0.604,0.237-1.041c0.078-0.281,0.09-0.6,0.016-0.946c-1.02-4.757-2.04-9.515-3.056-14.268
			c-0.094-0.44,0.004-1.118,0.167-1.538c0.293-0.759,0.571-1.767,0.938-3.142c0.286-1.073,0.857-2.24,1.653-2.975
			c3.92-3.606,7.789-7.303,12.028-10.51c2.195-1.661,5.03-3.04,7.724-3.379c7.47-0.942,15.022-1.265,22.537-1.848
			c1.73-0.135,3.464-0.241,5.202-0.339c0.449-0.024,1.18-0.017,1.628,0.013c7.467,0.477,15.101-0.298,22.636-1.804
			c1.583-0.232,3.158-0.498,4.725-0.816c11.678-2.383,23.265-5.524,34.647-9.196c6.182-1.733,12.285-3.749,18.299-6.038
			c12.909-3.868,26.002-6.397,39.355-7.63c5.513-0.281,11.041-0.358,16.562-0.236c0.677,0.017,1.293-0.069,1.844-0.232
			c0.433-0.127,1.13-0.273,1.579-0.249c12.113,0.628,23.848,3.688,35.667,6.075c0.441,0.09,1.139,0.285,1.562,0.437
			c13.105,4.696,26.504,8.511,40.144,11.407c0.44,0.095,1.139,0.298,1.559,0.457c12.787,4.896,25.022,10.996,36.096,19.323
			c2.053,1.542,4.174,2.995,6.271,4.479c0.367,0.262,0.869,0.196,1.118-0.146S593.765,288.872,593.496,288.508z M376.942,238.858
			c-0.106,0.012-0.176-0.028-0.155-0.094s0.11-0.082,0.196-0.029C377.068,238.789,377.048,238.846,376.942,238.858z"/>
	</g>
</g>
<g>
</g>
<g>
</g>
<g>
</g>
<g>
</g>
<g>
</g>
<g>
</g>
<g>
</g>
<g>
</g>
<g>
</g>
<g>
</g>
<g>
</g>
<g>
</g>
<g>
</g>
<g>
</g>
<g>
</g>
</svg>
