<?xml version="1.0" encoding="iso-8859-1"?>
<!-- Generator: Adobe Illustrator 16.0.0, SVG Export Plug-In . SVG Version: 6.00 Build 0)  -->
<!DOCTYPE svg PUBLIC "-//W3C//DTD SVG 1.1//EN" "http://www.w3.org/Graphics/SVG/1.1/DTD/svg11.dtd">
<svg version="1.1" id="Capa_1" xmlns="http://www.w3.org/2000/svg" xmlns:xlink="http://www.w3.org/1999/xlink" x="0px" y="0px"
	 width="580.742px" height="580.743px" viewBox="0 0 580.742 580.743" style="enable-background:new 0 0 580.742 580.743;"
	 xml:space="preserve">
<g>
	<g>
		<path d="M576.273,290.499c-3.541-2.774-7.323-5.25-11.069-7.756c-3.476-2.326-6.854-4.896-10.583-6.724
			c-8.164-4.002-16.471-7.736-24.827-11.33c-7.694-3.313-15.496-6.41-23.872-7.675c-0.836-0.126-1.652-0.4-2.464-0.653
			c-3.057-0.958-6.051-2.187-9.164-2.856c-6.055-1.301-12.183-2.24-18.266-3.427c-3.909-0.763-7.772-1.762-11.673-2.554
			c-3.008-0.612-6.063-0.992-9.066-1.62c-2.436-0.51-4.802-1.363-7.242-1.824c-2.913-0.551-5.883-0.787-8.809-1.281
			c-2.729-0.461-5.414-1.2-8.151-1.6c-4.439-0.653-8.907-1.155-13.362-1.677c-5.353-0.632-10.722-1.159-16.067-1.853
			c-4.879-0.632-9.751-1.346-14.602-2.17c-7.128-1.208-14.203-2.738-21.359-3.746c-3.717-0.522-7.564-0.028-11.322-0.359
			c-3.047-0.27-6.878,1.546-8.739-2.693c-0.15,0.074-0.306,0.151-0.448,0.225c-9.943-14.219-21.938-26.944-35.479-37.818
			c-2.175-2.705-4.685-4.978-7.871-6.589c-1.044-0.526-2.052-1.122-3.052-1.734c-3.243-4.781-10.788-7.34-15.81-3.676
			c-0.563,0.412-1.122,0.828-1.677,1.249c-0.396,0.298-0.486,1.003-0.486,1.824c-0.788,0.286-1.624,0.587-2.574,0.934
			c0.787,0.885,1.575,1.771,2.382,2.681c-0.061,0.119-0.126,0.22-0.22,0.298c-1.562,1.29-5.451-0.526-6.924,0.853
			c-0.71,0.661-0.958,1.868-1.179,3.113c-1.13,0.608-2.313,1.273-2.709,2.224c-0.269,0.645-0.73,1.118-1.252,1.526
			c-0.743-0.073-1.424-0.073-1.767,0.326c-0.204,0.237-0.265,0.649-0.257,1.159c-0.62,0.555-1.073,1.232-1.081,2.28
			c-1.803,0.445-0.473,1.371-0.232,2.334c0.645-0.253,1.232-0.693,1.795-1.065c0.123,0.926,0.151,1.726-0.146,2.105
			c-1.184,1.509-5.076-0.486-6.161,1.11c-0.918,1.346,0.176,4.296-0.669,5.704c-0.347,0.579-2.66,1.167-2.995,1.754
			c-1.126,1.987,1.408,5.594,0.481,7.654c-1.085,2.415-5.606,1.722-6.524,4.206c-0.547,1.477,0.897,4.929,0.383,6.418
			c-1.065,3.064-4.072,4.17-5.177,7.222c-0.559,1.538,0.444,4.643-0.164,6.161c-0.481,1.069-0.987,2.122-1.53,3.162
			c-2.917,0.498-5.838,0.975-8.76,1.448c-2.085,0.339-4.198,0.535-6.279,0.89c-1.774,0.302-3.529,0.747-5.296,1.114
			c-0.689,0.143-1.395,0.229-2.084,0.379c-2.269,0.494-4.517,1.118-6.81,1.473c-1.832,0.285-3.725,0.163-5.573,0.375
			c-3.436,0.396-6.842,1.004-10.282,1.342c-2.962,0.294-5.965,0.18-8.915,0.522c-3.639,0.424-7.226,1.252-10.865,1.697
			c-5.386,0.657-10.649,1.763-15.831,3.366c-1.836,0.567-3.958,1.494-5.639,1.057c-4.304-1.114-8.462-2.832-12.619-4.464
			c-1.306-0.51-2.358-1.632-3.635-2.252c-2.289-1.118-4.603-2.244-7.014-3.048c-0.547-0.184-1.105-0.347-1.665-0.494
			c-3.346-1.485-7.312-1.444-10.71,0.547c-5.476,3.207-7.601,10.669-4.243,16.177c0.608,0.996,1.211,1.987,1.819,2.982
			c-1.44,0.306-2.876,0.591-4.325,0.804c-9.388,0.383-18.801-0.008-28.14-1.159c-9.764-1.424-19.38-3.672-28.744-6.728
			c-0.245-0.098-0.485-0.204-0.722-0.318c-1.089-0.526-2.04-1.33-3.081-1.966c-0.861-0.53-1.819-0.918-2.631-1.51
			c-2.15-1.566-4.158-3.354-6.394-4.777c-1.705-1.085-3.66-1.808-5.544-2.587c-0.282-0.118-0.555-0.241-0.82-0.375
			c-0.596-0.477-1.204-0.942-1.812-1.403c-0.424-0.535-0.718-1.191-0.82-2.024c-0.433,0.2-0.951,0.306-1.501,0.334
			c-1.812-1.273-3.668-2.48-5.569-3.611c-0.016-0.196-0.033-0.399-0.069-0.6c-6.304-3.542-12.807-7.201-19.307-10.853
			c-0.196-0.616-0.518-1.179-0.942-1.604c-1.652-1.652-3.888-1.33-5.573,0c-4.394,3.464-4.402,8.576-3.256,13.5
			c-0.526,4.75,1.424,9.417,3.537,13.929c1.399,2.995,2.799,5.985,4.199,8.98c0.028,0.078,0.057,0.159,0.085,0.237
			c-0.273,0.73-0.506,1.465-0.702,2.203c-0.062-0.021-0.123-0.037-0.184-0.057c-0.098,0.669-0.27,1.114-0.2,1.522
			c0.008,0.045,0.017,0.09,0.024,0.135c-1.199,6.328,0.302,12.889,4.076,18.49c1.232,1.832,2.787,3.623,4.382,5.446
			c-0.065,0.078-0.139,0.159-0.224,0.237c0.281,0.645,0.534,1.22,0.771,1.758c0.11,3.391-1.877,7.152-3.431,9.857
			c-3.484,6.075-6.589,12.155-8.752,18.842c-3.137,9.694-4.251,19.976-3.521,30.123c-0.008,1.162,0.171,2.301-0.041,3.451
			c-0.302,1.632,0.155,3.428,0.4,5.129c0.044,0.314,0.22,0.71,0.449,0.999c0.31,2.489,2.999,4.803,5.891,3.216
			c4.958-2.718,9.911-5.435,14.864-8.148c0.318-0.109,0.628-0.277,0.93-0.51c18.764-10.285,37.528-20.575,56.292-30.861
			c6.487-2.46,13.219-4.129,20.082-5.173c10.661-1.273,21.379-1.212,32.081-0.515c0.257,1.273,0.518,2.551,0.775,3.823
			c-0.387,0.159-0.779,0.318-1.167,0.478c-1.171,0.086-2.342,0.122-3.521,0.114c-3.562-0.024-3.794,5.133-0.702,5.83
			c0.147,0.143,0.306,0.273,0.478,0.392c1.281,0.882,2.562,1.759,3.843,2.64l-0.175,1.588c-0.029,0.04-0.057,0.081-0.082,0.126
			c-0.2,0.343-0.314,0.714-0.363,1.094c-0.894,0.281-1.62,0.938-1.905,1.971c-0.396,1.448,0.478,3.35,2.064,3.635
			c1.844,0.335,2.876,1.061,3.713,2.559c0.045,0.987,0.526,1.958,1.444,2.387c0.135,0.057,0.261,0.126,0.383,0.2
			c0.017,0.016,0.037,0.032,0.057,0.053c0.012,0.016,0.021,0.032,0.033,0.053c0.024,0.041,0.049,0.073,0.069,0.103
			c0.008,0.04,0.024,0.089,0.045,0.163c0.012,0.057,0.021,0.102,0.033,0.143c-0.004,0.114-0.012,0.257-0.012,0.335
			c-0.012,0.04-0.021,0.085-0.033,0.126c0.012-0.012,0.021-0.024,0.037-0.037c-0.012,0.017-0.024,0.033-0.037,0.045
			c-0.004,0.009-0.004,0.021-0.008,0.029c0-0.009,0.004-0.017,0.004-0.024c-0.437,0.514-0.706,1.126-0.784,1.75
			c-0.653,1.13-0.506,2.628,0.453,3.586c0.526,0.526,1.053,1.053,1.575,1.575c0.518,0.522,1.2,0.8,1.893,0.845
			c0.2,0.384,0.384,0.767,0.535,1.163c0.065,0.628,0.171,1.256,0.343,1.872c0.085,0.311,0.192,0.62,0.306,0.922
			c0.053,0.575,0.069,1.171,0.032,1.783c-0.004,0.069,0,0.131,0,0.196c-0.106,0.105-0.208,0.216-0.322,0.313
			c0.2-0.126,0.151-0.085-0.147,0.11c-0.689,0.481-1.244,0.641-1.738,0.678c-0.596,0.045-1.159,0.229-1.628,0.53
			c-2.521,1.081-2.105,5.63,1.232,5.684c25.753,0.388,51.253-8.887,70.845-25.5c18.548,5.716,37.32,10.714,56.292,14.961
			c-1.269,1.298-2.677,2.383-4.211,3.248c-0.628,0.212-1.26,0.424-1.889,0.641c-0.302,0.105-0.563,0.334-0.812,0.6
			c-1.081,0.392-2.211,0.697-3.398,0.905c-0.702,0.123-1.293,0.486-1.759,0.987c-0.743,0.225-1.489,0.437-2.244,0.637
			c-1.876,0.494-1.889,3.313,0,3.799c0.669,0.171,1.298,0.412,1.877,0.718c0.445,0.6,1.049,1.021,1.738,1.269
			c0.318,0.318,0.616,0.67,0.889,1.062l0,0c-0.188,0.42-0.261,0.864-0.212,1.285c-0.041,0.159-0.069,0.318-0.069,0.489
			c0,1.073,0.897,1.971,1.971,1.971h1.04c0.069,0.653,0.135,1.31,0.204,1.963c0.008,0.073,0.024,0.143,0.037,0.216
			c-0.216,0.689-0.102,1.51,0.478,1.971c0.657,0.526,1.314,1.053,1.971,1.575c0.09,0.073,0.18,0.139,0.269,0.199
			c-0.689,1.021-0.926,2.272-0.477,3.493c-0.012,0.008-0.024,0.012-0.037,0.021c0.016,0.004,0.032,0.012,0.049,0.016
			c0.078,0.204,0.171,0.408,0.29,0.608c0.881,1.501,2.95,2.383,4.631,1.799c0.314,0.661,1.004,1.057,1.787,1.146
			c1.183,0.131,2.366,0.262,3.545,0.396c0.041,0.004,0.082,0.004,0.118,0.004c1.089,1.252,1.489,2.855,1.302,4.394
			c-0.314,0.159-0.628,0.327-0.938,0.498c0.29,0.073,0.559,0.143,0.812,0.204c-0.282,1.15-0.894,2.235-1.812,3.064
			c-0.012,0.012-0.021,0.02-0.033,0.032c-0.008,0.004-0.016,0.008-0.024,0.013c-1.208,0.538-1.24,1.717-0.669,2.578
			c0.384,1.04,1.571,1.84,2.84,1.154c2.138-1.15,4.227-2.387,6.263-3.696c2.852-1.718,5.549-3.672,8.07-5.826
			c8.659-6.977,16.064-15.476,21.788-25.063c13.587,2.199,27.238,4.007,40.923,5.357c26.026,2.566,52.31,3.08,78.34,0.289
			c36.997-3.966,73.738-14.41,105.562-33.994c12.759-5.94,24.909-13.085,36.284-21.388c0.371-0.016,0.746-0.028,1.113-0.045
			c0.021-0.313,0.037-0.579,0.049-0.804c0.698-0.518,1.396-1.04,2.089-1.566c0.327-0.017,0.649-0.032,0.976-0.049
			c2.529-0.127,2.542-4.068,0-3.941c-0.078,0.004-0.155,0.008-0.232,0.012c-0.535-0.437-1.27-0.538-2.008,0.029
			c-0.032,0.024-0.065,0.049-0.098,0.073c-0.71,0.037-1.416,0.069-2.126,0.106c-0.191-0.775-0.804-1.433-1.84-1.433
			c-1.118,0-1.742,0.763-1.877,1.616c-0.727,0.036-1.452,0.073-2.179,0.105c-1.399-0.195-3.048-0.114-4.23,0.208
			c-5.725,0.282-11.453,0.567-17.182,0.849c0.327-0.167,0.674-0.302,1.032-0.416l0.792-0.225c0.379-0.098,0.759-0.188,1.134-0.285
			c-0.008-0.013-0.016-0.021-0.024-0.033c0.942-0.281,1.828-0.677,2.64-1.166c0.539-0.099,1.065-0.213,1.567-0.392
			c2.726-0.976,5.426-2.04,8.135-3.068c0.58,0.155,1.225,0.028,1.768-0.547c0.061-0.065,0.13-0.122,0.191-0.184
			c0.277-0.103,0.551-0.208,0.828-0.311c0.914-0.334,1.938-0.354,2.885-0.616c0.351-0.098,0.787-0.416,0.91-0.738
			c0.085-0.225,0.191-0.424,0.302-0.612c2.183-0.212,4.438,0.421,6.132,1.983c1.102,1.021,2.848,0.579,3.293-0.869
			c0.273-0.894,0.502-1.787,0.689-2.692c0.265-0.041,0.53-0.09,0.783-0.159c3.921-1.102,6.822-3.934,4.256-8.467
			C578.84,293.449,577.755,291.658,576.273,290.499z"/>
		<rect x="136.625" y="349.667" width="0.004" height="0.004"/>
		<path d="M136.625,349.663C136.677,349.377,136.323,349.994,136.625,349.663L136.625,349.663z"/>
	</g>
</g>
<g>
</g>
<g>
</g>
<g>
</g>
<g>
</g>
<g>
</g>
<g>
</g>
<g>
</g>
<g>
</g>
<g>
</g>
<g>
</g>
<g>
</g>
<g>
</g>
<g>
</g>
<g>
</g>
<g>
</g>
</svg>
