<?xml version="1.0" encoding="iso-8859-1"?>
<!-- Generator: Adobe Illustrator 16.0.0, SVG Export Plug-In . SVG Version: 6.00 Build 0)  -->
<!DOCTYPE svg PUBLIC "-//W3C//DTD SVG 1.1//EN" "http://www.w3.org/Graphics/SVG/1.1/DTD/svg11.dtd">
<svg version="1.1" id="Capa_1" xmlns="http://www.w3.org/2000/svg" xmlns:xlink="http://www.w3.org/1999/xlink" x="0px" y="0px"
	 width="545.65px" height="545.65px" viewBox="0 0 545.65 545.65" style="enable-background:new 0 0 545.65 545.65;"
	 xml:space="preserve">
<g>
	<g>
		<path d="M514.279,492.461c-10.632-9.739-23.468-16.067-36.394-22.15c-4.753-2.236-11.272-4.366-15.463-7.332
			c-5.112-3.619-4.504-6.104-7.214-10.4c-16.744-26.561-32.032-61.457-55.125-82.705c-2.08-1.914-3.573-3.464-3.688-6.545
			c-0.054-1.379-2.105-2.97-3.591-3.945c-2.477-1.624-5.238-2.807-7.854-4.227c-3.832-2.085-7.63-4.235-11.461-6.315
			c-0.461-0.253-0.947-0.453-1.502-0.674c-0.844-0.334-1.529-1.257-1.525-2.056c0-0.466,0-0.955-0.004-1.449
			c-0.159-25.989-4.117-48.882-8.739-74.395c-0.29-1.6,0.774-2.885,2.391-2.885c2.913-0.004,5.536-0.008,8.164,0.004
			c2.705,0.013,5.573,0.478,7.499-1.403c1.158-1.13,2.521-1.693,3.855-0.783c19.123,13.027,40.257,31.657,54.774,49.735
			c0.763-1.114,3.161-3.591,4.993-2.383c2.881,1.901,3.448,5.476,5.985,7.36c3.085,2.289,7.772,3.203,11.261,4.855
			c7.969,3.773,15.455,8.567,22.257,14.178c12.754,10.519,23.134,23.962,29.792,39.106c1.849,4.199,3.447,8.756,2.758,13.289
			c-0.828,5.438-5.255,8.274-9.882,10.032c1.086,1.555,2.66,2.024,4.554,2.685c0.021,0.009,0.045,0.017,0.065,0.025
			c0.596,0.203,1.636-0.05,2.117-0.486c2.109-1.909,4.321-3.786,6.038-6.021c1.326-1.727,2.579-3.909,2.8-6.006
			c0.437-4.19,1.012-8.679-1.796-12.371c-2.428-3.194-1.179-10.571-3.684-15.377c-2.624-5.031-6.178-9.567-9.98-13.75
			c-7.425-8.164-16.442-14.818-25.528-21.012c-10.914-7.438-22.261-14.541-31.853-23.701c-8.062-7.694-13.929-18.494-22.542-25.271
			c-1.885-1.48-4.047-2.603-5.928-4.088c-13.068-10.339-24.46-21.057-40.539-26.675c-14.651-5.116-30.311-6.631-45.635-8.381
			c-3.276-0.375-19.629-0.983-17.291-6.748c0.652-1.616,2.692-2.289,4.402-1.959c8.563,1.657,16.377-2.77,21.815-11.46
			c0.465-0.743,1.085-1.388,1.71-1.955c1.064-0.967,3.247-1.439,4.822-1.102c0.999,0.213,1.942,0.38,2.889,0.384
			c6.434,0.045,12.872-0.069,19.311-0.216c0.983-0.021,1.954-0.526,2.93-0.809c0.452-0.13,1.102-0.521,1.334-0.351
			c3.243,2.411,6.414-0.767,9.596-0.073c2.86,0.624,4.839-1.375,7.169-2.338c0.232-0.098,0.539-0.408,0.534-0.616
			c-0.049-4.663,3.758-4.908,6.813-6.364c2.779-1.322,5.325-3.306,7.654-5.354c5.761-5.075,11.637-10.081,16.899-15.646
			c4.198-4.436,7.344-9.854,11.375-14.472c3.007-3.452,6.157-7.165,11.706-6.455c2.309,0.294,4.569,0.302,6.646-0.521
			c-3.843-2.289-7.911-5.741-7.784-10.845c0.122-4.929,3.709-9.348,8.201-11.38c4.467-2.02,9.596-1.533,14.011-1.301
			c-3.375-1.775-6.581-5.186-6.075-9.29c0.559-4.501,5.532-6.92,8.906-8.152c-1.285-0.796-5.401-3.966-4.361-5.884
			c0.004-0.008,0.012-0.016,0.017-0.028c2.97-5.197,10.085-9.624,13.696-15.01c4.663-6.965,8.462-14.505,11.317-22.383
			c5.513-15.194,7.54-31.678,5.578-47.732c-0.959-7.842-2.905-15.757-7.324-22.306c-6.552-9.706-14.732-12.235-25.071-9.604
			c-0.008,0.004-0.017,0.004-0.024,0.008c6.602,3.451,13.546,2.836,17.381,11.518c2.64,5.969,2.66,12.714,2.958,19.233
			c0.448,9.849,1.624,19.706,0.918,29.539c-1.437,20.028-11.257,39.196-26.197,52.526c-6.631,5.911-14.709,7.372-21.307,12.447
			c-8.188,6.3-12.835,18.785-18.878,27.019c-8.543,11.644-17.083,23.288-25.626,34.933c-1.294,1.763-2.726,3.631-4.811,4.292
			c-4.578,1.452-7.54-5.92-13.35-4.59c-0.71,0.163-1.424,0.322-2.146,0.461c-6.263,1.22-12.15-1.069-18.164-2.068
			c-1.298-0.217-2.562-0.665-3.966-1.18c-5.137-1.881-9.335-18.809-12.048-23.578c-4.982-8.756-11.017-16.911-17.944-24.223
			c-3.451-3.64-7.258-7.308-8.629-12.13c-2.073-7.308,4.598-11.979,3.402-18.683c-1.326-7.438-8.597-8.616-14.112-11.228
			c-16.455-7.781-15.438-36.17-10.147-50.474c2.073-5.603,12.559-26.904-1.436-26.716c-3.688,0.049-7.585-1.037-10.976,1.456
			c-0.204,0.151-0.6,0.176-0.856,0.094c-1.429-0.44-2.853-0.894-4.28-1.351c-0.796-0.248-1.51-0.118-2.02,0.282
			c-0.51-0.404-1.224-0.53-2.023-0.277c-1.424,0.452-2.852,0.905-4.28,1.351c-0.257,0.081-0.653,0.053-0.857-0.095
			c-3.39-2.492-7.287-1.407-10.975-1.456c-13.994-0.184-3.509,21.114-1.436,26.716c5.292,14.305,6.308,42.693-10.147,50.474
			c-5.516,2.611-12.787,3.79-14.113,11.229c-1.195,6.703,5.476,11.375,3.403,18.682c-1.371,4.827-5.178,8.491-8.629,12.13
			c-6.928,7.312-12.962,15.468-17.944,24.224c-2.713,4.77-6.916,21.693-12.048,23.578c-1.404,0.514-2.665,0.959-3.966,1.179
			c-6.014,1.004-11.897,3.289-18.164,2.068c-0.718-0.139-1.437-0.298-2.142-0.461c-5.81-1.33-8.772,6.043-13.35,4.59
			c-2.085-0.66-3.517-2.529-4.81-4.292c-8.543-11.645-17.083-23.288-25.626-34.933c-6.039-8.237-10.69-20.719-18.878-27.018
			c-6.593-5.076-14.676-6.536-21.306-12.448c-14.941-13.329-24.761-32.497-26.198-52.526c-0.706-9.832,0.469-19.689,0.918-29.539
			c0.298-6.523,0.318-13.264,2.958-19.232C67.046,3.827,73.99,4.439,80.592,0.987c-0.008,0-0.016-0.004-0.024-0.008
			c-10.343-2.632-18.519-0.103-25.072,9.604c-4.422,6.544-6.365,14.463-7.323,22.305c-1.962,16.06,0.065,32.542,5.577,47.732
			c2.86,7.878,6.655,15.418,11.318,22.383c3.607,5.386,10.722,9.812,13.697,15.011c0.004,0.008,0.012,0.02,0.016,0.028
			c1.041,1.922-3.072,5.088-4.361,5.883c3.374,1.232,8.348,3.652,8.907,8.152c0.51,4.104-2.697,7.516-6.075,9.29
			c4.415-0.232,9.543-0.718,14.011,1.302c4.492,2.031,8.078,6.45,8.201,11.379c0.126,5.104-3.941,8.56-7.785,10.845
			c2.077,0.824,4.333,0.815,6.646,0.522c5.549-0.71,8.694,3.003,11.706,6.454c4.031,4.618,7.177,10.033,11.375,14.472
			c5.263,5.565,11.138,10.571,16.899,15.646c2.33,2.053,4.875,4.031,7.654,5.354c3.056,1.456,6.863,1.701,6.813,6.364
			c-0.004,0.209,0.302,0.519,0.535,0.616c2.326,0.963,4.304,2.963,7.168,2.338c3.187-0.693,6.353,2.485,9.596,0.074
			c0.229-0.172,0.881,0.22,1.334,0.351c0.975,0.281,1.946,0.787,2.93,0.808c6.434,0.146,12.873,0.261,19.311,0.216
			c0.947-0.004,1.893-0.171,2.889-0.383c1.579-0.339,3.758,0.135,4.823,1.102c0.624,0.567,1.244,1.212,1.709,1.954
			c5.438,8.69,13.252,13.117,21.815,11.461c1.71-0.331,3.75,0.343,4.402,1.958c2.338,5.766-14.015,6.373-17.291,6.748
			c-15.324,1.751-30.983,3.265-45.635,8.381c-16.079,5.614-27.471,16.336-40.539,26.675c-1.877,1.485-4.043,2.607-5.928,4.089
			c-8.613,6.776-14.48,17.576-22.542,25.271c-9.596,9.159-20.939,16.263-31.853,23.7c-9.083,6.193-18.099,12.844-25.529,21.013
			c-3.803,4.182-7.356,8.719-9.979,13.749c-2.505,4.807-1.257,12.183-3.685,15.378c-2.807,3.692-2.231,8.18-1.795,12.37
			c0.22,2.093,1.473,4.276,2.799,6.006c1.718,2.236,3.929,4.112,6.039,6.022c0.481,0.437,1.521,0.689,2.117,0.485
			c0.021-0.008,0.045-0.017,0.065-0.024c1.897-0.661,3.468-1.126,4.553-2.685c-4.627-1.763-9.058-4.595-9.882-10.033
			c-0.689-4.537,0.91-9.09,2.758-13.288c6.663-15.149,17.038-28.593,29.792-39.107c6.801-5.609,14.288-10.403,22.256-14.178
			c3.488-1.652,8.176-2.566,11.261-4.855c2.538-1.885,3.105-5.459,5.985-7.36c1.832-1.207,4.231,1.27,4.994,2.383
			c14.517-18.078,35.651-36.707,54.774-49.735c1.334-0.909,2.701-0.347,3.855,0.783c1.926,1.877,4.794,1.416,7.499,1.404
			c2.624-0.013,5.251-0.009,8.164-0.005c1.616,0,2.681,1.285,2.391,2.885c-4.623,25.513-8.581,48.409-8.739,74.396
			c-0.004,0.493-0.004,0.983-0.004,1.448c0,0.8-0.681,1.722-1.526,2.057c-0.555,0.22-1.044,0.424-1.501,0.673
			c-3.831,2.081-7.629,4.23-11.46,6.315c-2.615,1.424-5.377,2.604-7.854,4.228c-1.485,0.975-3.542,2.565-3.59,3.945
			c-0.114,3.08-1.608,4.626-3.688,6.544c-23.093,21.249-38.381,56.145-55.125,82.706c-2.705,4.296-2.097,6.78-7.213,10.399
			c-4.19,2.967-10.71,5.096-15.463,7.332c-12.925,6.083-25.757,12.411-36.394,22.15c-13.558,12.419-28.858,37.471-12.419,52.154
			c1.204,1.077,3.174,1.358,4.411,0.616s1.514-1.729,0.624-2.211c-0.563-0.303-1.081-0.629-1.477-1.065
			c-1.803-2.02-4.117-4.015-4.851-6.438c-0.742-2.452-0.91-6.45,0.547-7.943c4.504-4.61,6.993-9.825,7.862-16.038
			c0.085-0.612,0.375-1.262,0.75-1.755c2.064-2.737,3.872-5.777,6.365-8.054c3.354-3.064,5.643-7.825,11.143-7.98
			c0.339-0.008,0.734-0.465,0.979-0.804c3.452-4.7,8.393-7.21,13.517-9.633c0.669-0.318,1.322-0.665,1.971-1.041
			c1.065-0.616,3.183-1.439,4.741-1.864c9.372-2.559,17.952-7.548,24.941-14.219c1.171-1.114,2.815-2.395,3.737-2.795
			c0.922-0.399,1.897,0.049,2.183,1.008c0.282,0.959,1.102,0.563,1.869-0.856c0.008-0.013,0.012-0.024,0.021-0.041
			c1.726-3.203,5.7-5.528,8.38-8.56c5.541-6.263,9.666-14.778,14.251-21.783c6.324-9.674,12.652-19.344,18.976-29.013
			c5.076-7.757,8.939-19.16,15.72-25.361c1.542-1.412,2.509-0.89,3.66-0.045c1.424,1.044,5.769,1.505,7.022,0.526
			c2.477-1.935,5.194-3.102,8.4-3.142c3.884-0.045,3.799-0.009,4.109,3.77c2.558,31.105,12.619,68.724,34.61,91.865
			c9.221,9.702,20.682,16.838,30.351,26.038c7.381,7.026,15.219,27.626,28.009,20.135c0.367-0.216,0.718-0.448,1.053-0.697
			c0.334,0.249,0.686,0.481,1.053,0.697c12.791,7.491,20.628-13.108,28.009-20.135c9.67-9.2,21.127-16.336,30.352-26.038
			c21.991-23.142,32.053-60.76,34.61-91.865c0.311-3.778,0.225-3.814,4.108-3.77c3.207,0.036,5.925,1.203,8.401,3.142
			c1.252,0.979,5.598,0.518,7.021-0.526c1.15-0.845,2.117-1.367,3.659,0.045c6.781,6.205,10.646,17.604,15.721,25.361
			c6.328,9.669,12.652,19.339,18.976,29.013c4.586,7.009,8.711,15.524,14.252,21.783c2.681,3.031,6.654,5.353,8.38,8.56
			c0.009,0.012,0.013,0.024,0.021,0.041c0.768,1.424,1.583,1.815,1.869,0.856c0.285-0.959,1.261-1.407,2.183-1.008
			c0.922,0.4,2.57,1.681,3.737,2.795c6.989,6.671,15.569,11.656,24.941,14.219c1.559,0.424,3.676,1.248,4.74,1.864
			c0.649,0.376,1.302,0.723,1.971,1.041c5.125,2.423,10.062,4.929,13.518,9.633c0.249,0.338,0.645,0.795,0.979,0.804
			c5.5,0.154,7.789,4.912,11.143,7.98c2.493,2.28,4.301,5.316,6.365,8.054c0.375,0.493,0.665,1.143,0.751,1.754
			c0.864,6.214,3.357,11.425,7.862,16.039c1.456,1.493,1.289,5.491,0.546,7.943c-0.734,2.424-3.048,4.419-4.851,6.438
			c-0.392,0.437-0.91,0.763-1.478,1.064c-0.889,0.482-0.611,1.47,0.625,2.212c1.235,0.742,3.206,0.461,4.41-0.616
			C543.138,529.932,527.838,504.88,514.279,492.461z"/>
	</g>
</g>
<g>
</g>
<g>
</g>
<g>
</g>
<g>
</g>
<g>
</g>
<g>
</g>
<g>
</g>
<g>
</g>
<g>
</g>
<g>
</g>
<g>
</g>
<g>
</g>
<g>
</g>
<g>
</g>
<g>
</g>
</svg>
