<?xml version="1.0" encoding="iso-8859-1"?>
<!-- Generator: Adobe Illustrator 16.0.0, SVG Export Plug-In . SVG Version: 6.00 Build 0)  -->
<!DOCTYPE svg PUBLIC "-//W3C//DTD SVG 1.1//EN" "http://www.w3.org/Graphics/SVG/1.1/DTD/svg11.dtd">
<svg version="1.1" id="Capa_1" xmlns="http://www.w3.org/2000/svg" xmlns:xlink="http://www.w3.org/1999/xlink" x="0px" y="0px"
	 width="558.662px" height="558.662px" viewBox="0 0 558.662 558.662" style="enable-background:new 0 0 558.662 558.662;"
	 xml:space="preserve">
<g>
	<g>
		<path d="M547.711,339.219c-5.059-6.817-7.553-14.749-10.494-22.477c-2.252-5.916-4.238-11.971-5.768-18.107
			c-1.037-4.17-1.07-8.593-1.568-12.896c-0.648-5.599-0.934-11.27-2.043-16.769c-2.436-12.064-4.465-24.447-12.48-34.386
			c-5.252-6.504-11.307-12.362-17.002-18.503c-0.146-0.159-0.355-0.261-0.51-0.412c-4.672-4.447-9.449-8.788-13.926-13.423
			c-0.971-1.008-1.689-3.606-1.084-4.565c4.418-7.013,2.055-13.766-0.977-20.078c-2.615-5.447-6.324-10.216-6.115-16.801
			c0.105-3.317-5.605-5.549-8.789-3.583c-2.664,1.645-5.182,3.631-7.412,5.822c-1.67,1.636-2.783,1.399-3.938-0.192
			c-4.357-6.005-9.906-10.616-16.287-14.325c-1.352-0.788-2.469-1.967-4.41-3.55c-1.375,2.901-3.371,5.659-3.99,8.695
			c-1.576,7.719-2.955,15.532-3.562,23.374c-0.299,3.852,1.346,7.842,1.986,11.792c0.176,1.089,0.299,2.607-0.293,3.268
			c-0.461,0.514-2.139,0.232-3.154-0.086c-8.115-2.554-16.234-5.1-24.283-7.842c-8.654-2.946-17.369-5.777-25.799-9.278
			c-6.34-2.636-12.779-4.264-19.52-5.361c-4.174-0.677-8.061-2.962-12.207-4.019c-5.822-1.481-11.758-2.505-17.65-3.701
			c-5.475-1.11-10.953-2.203-16.434-3.264c-5.818-1.13-11.607-2.55-17.479-3.228c-5.717-0.657-11.546-0.955-17.291-0.649
			c-7.564,0.404-15.096,1.518-22.636,2.391c-5.688,0.657-11.399,1.212-17.038,2.191c-3.574,0.62-7.059,1.844-10.535,2.946
			c-6.328,2.007-12.624,4.101-18.923,6.202c-2.852,0.951-5.643,2.101-8.511,2.986c-2.044,0.628-4.325,0.633-6.246,1.489
			c-5.777,2.562-11.596,5.108-17.087,8.209c-8.396,4.741-16.622,9.8-24.753,14.99c-9.388,5.998-18.629,12.419-25.811,20.963
			c-5.548,6.605-12.896,11.91-16.075,20.392c-3.243,8.662-6.136,17.471-9.735,25.981c-3.357,7.932-4.345,16.227-5.124,24.615
			c-0.135,1.456,0.636,3.043,0.334,4.427c-2.15,9.775-12.966,17.748-23.064,13.17c-6.789-3.076-13.252-7.458-18.895-12.366
			c-9.547-8.308-18.021-17.711-23.325-29.523c-5.002-11.138-8.943-22.607-11.534-34.549c-1.922-8.862-4.529-17.617-5.798-26.569
			c-1.33-9.368-1.444-18.911-2.04-28.38c-0.126-1.975,0.237-4.117-2.57-4.521c-2.721-0.396-3.558,1.653-3.802,3.529
			C1.179,180.025-0.004,186.839,0,193.64c0.004,12.342,0.322,24.716,1.326,37.014C3.737,260.071,13.284,287.035,31,310.781
			c8.172,10.954,17.528,20.983,29.572,27.817c12.057,6.838,25.051,9.009,38.687,5.594c3.419-0.857,6.814-1.938,10.074-3.272
			c2.493-1.021,4.721-1.322,6.385,1.004c3.019,4.219,6.952,6.748,12.093,7.434c2.982,0.399,4.149,2.778,4.9,5.141
			c3.248,10.184,7.062,20.213,8.131,30.996c0.637,6.434,4.565,10.302,10.673,12.012c7.866,2.203,15.651,4.879,23.66,6.323
			c5.451,0.983,11.245,0.526,16.834,0.078c2.782-0.225,5.496-1.779,8.16-2.913c2.216-0.942,3.929-0.519,5.533,1.199
			c0.722,0.775,1.624,1.432,2.55,1.95c0.583,0.326,1.371,0.285,2.069,0.412c0.11-0.665,0.2-1.334,0.338-1.991
			c0.233-1.077,0.498-2.15,0.747-3.228c1.11,0.466,2.293,0.812,3.313,1.425c1.102,0.665,1.979,1.701,3.093,2.337
			c0.722,0.412,1.689,0.396,2.542,0.571c0.139-0.897,0.416-1.795,0.396-2.688c-0.147-6.728-5.544-9.649-9.759-13.472
			c-5.688-5.153-12.105-4.782-18.915-3.012c-6.63,1.722-12.905,0.392-17.903-4.206c-1.632-1.502-1.346-4.908-2.48-7.173
			c-2.526-5.055-0.131-8.393,3.39-11.579c5.341-4.83,10.616-9.739,15.933-14.594c1.746-1.596,3.603-2.183,5.381-0.082
			c5.284,6.242,10.979,12.208,15.63,18.895c3.011,4.329,4.953,9.592,6.487,14.704c1.889,6.304,6.365,8.997,12.057,10.429
			c5.74,1.444,11.505,3.044,17.356,3.713c4.7,0.539,9.543-0.24,14.329-0.367c1.236-0.032,2.481,0.208,3.725,0.298
			c0.951,0.069,2.199,0.51,2.815,0.077c3.998-2.811,7.536-1.068,11.118,0.824c3.035,1.604,4.252,1.045,5.859-1.889
			c0.355-0.648,2.574-1.049,3.324-0.583c3.848,2.402,3.779,2.517,7.631,0.098c-3.086-7.899-12.76-14.692-21.029-14.599
			c-3.586,0.041-7.234,0.935-10.734,0.498c-5.104-0.637-10.139-2.003-15.121-3.362c-0.992-0.269-1.873-1.791-2.358-2.925
			c-1.012-2.366-2.179-4.818-2.419-7.319c-0.188-1.963,0.49-4.317,1.546-6.026c2.056-3.321,4.888-6.157,6.944-9.474
			c2.011-3.24,4.765-3.37,7.948-2.982c5.471,0.673,10.955,1.265,16.43,1.941c5.264,0.649,10.543,1.212,15.762,2.146
			c1.455,0.261,2.668,1.759,4.047,2.595c4.998,3.031,9.91,6.227,15.059,8.984c8.711,4.663,14.268,11.95,19.018,20.399
			c4.619,8.214,9.518,16.455,17.246,22.31c2.199,1.669,4.766,3.061,7.385,3.921c5.209,1.714,10.555,3.016,15.875,4.37
			c1.082,0.277,2.297,0.094,3.447,0.024c1.791-0.11,3.664-0.033,5.346-0.547c1.578-0.485,3.178-1.396,4.373-2.533
			c4.084-3.889,4.586-3.938,9.748-1.27c1.643,0.853,3.631,1.204,5.5,1.392c0.814,0.081,1.691-0.946,2.615-1.253
			c1.305-0.437,2.66-0.804,4.021-0.95c1.42-0.151,2.873-0.009,4.309,0.008c-0.113-1.767,0.482-4.296-0.461-5.182
			c-7.141-6.707-15.021-11.979-25.572-10.995c-7.932,0.738-13.342-3.574-17.969-9.319c-4.227-5.242-5.537-10.877-2.668-17.262
			c1.057-2.354,1.611-4.934,2.561-7.345c0.959-2.428,2.457-2.868,4.889-1.473c7.605,4.37,13.289,10.478,17.25,18.242
			c4.672,9.155,11.836,15.765,20.441,21.272c5.867,3.758,11.721,7.165,18.604,8.446c1.498,0.277,3.109,0.036,4.66-0.078
			c0.621-0.045,1.262-0.637,1.828-0.551c3.691,0.571,5.908-1.248,7.768-4.186c1.045-1.652,2.723-2.396,4.818-1.281
			c1.6,0.849,3.449,1.252,4.994,2.179c2.449,1.469,4.635,2.737,6.83-0.421c0.266-0.379,1.779,0.114,2.713,0.196
			c0.861,0.077,1.723,0.143,2.584,0.216c-0.059-1.126,0.326-2.623-0.254-3.305c-1.949-2.293-4.055-4.545-6.445-6.356
			c-5.713-4.329-12.326-6.079-19.459-6.201c-8.449-0.147-17.535-9.486-17.543-17.899c-0.004-4.717-0.045-9.438,0.008-14.153
			c0.037-3.423,1.404-4.382,4.736-4.892c5.338-0.816,10.805-1.526,15.859-3.297c10.527-3.688,16.777-11.146,17.564-22.628
			c0.18-2.607,0.371-5.214,0.719-7.801c0.135-1.012,0.578-2.709,1.102-2.799c1.105-0.188,2.619,0.143,3.504,0.845
			c10.15,8.037,20.078,16.364,30.34,24.26c11.518,8.865,23.324,17.36,34.99,26.034c0.873,0.648,1.709,1.383,2.432,2.195
			c2.744,3.092,6.066,2.717,9.592,1.848c3.252-0.8,6.531-1.673,9.848-1.999c5.607-0.547,8.441-5.116,5.598-10.18
			C554.57,349.251,551.318,344.082,547.711,339.219z"/>
	</g>
</g>
<g>
</g>
<g>
</g>
<g>
</g>
<g>
</g>
<g>
</g>
<g>
</g>
<g>
</g>
<g>
</g>
<g>
</g>
<g>
</g>
<g>
</g>
<g>
</g>
<g>
</g>
<g>
</g>
<g>
</g>
</svg>
