<?xml version="1.0" encoding="iso-8859-1"?>
<!-- Generator: Adobe Illustrator 16.0.0, SVG Export Plug-In . SVG Version: 6.00 Build 0)  -->
<!DOCTYPE svg PUBLIC "-//W3C//DTD SVG 1.1//EN" "http://www.w3.org/Graphics/SVG/1.1/DTD/svg11.dtd">
<svg version="1.1" id="Capa_1" xmlns="http://www.w3.org/2000/svg" xmlns:xlink="http://www.w3.org/1999/xlink" x="0px" y="0px"
	 width="572.958px" height="572.958px" viewBox="0 0 572.958 572.958" style="enable-background:new 0 0 572.958 572.958;"
	 xml:space="preserve">
<g>
	<g>
		<path d="M511.251,258.982c-1.061-4.708-4.305-8.274-6.365-12.444c-2.782-5.626-5.124-11.485-7.352-17.36
			c-0.486-1.277,0.073-3.113,0.547-4.565c1.313-4.047,0.689-7.805-1.747-11.114c-1.109-1.506-2.889-2.55-4.463-3.676
			c-3.591-2.57-6.504-5.524-7.508-10.09c-0.343-1.555-1.424-3.04-2.452-4.325c-1.366-1.709-1.644-3.297-0.265-5.047
			c1.261-1.604,1.321-2.86-0.567-4.174c-1.763-1.228-1.53-3.207-0.645-5.202c1.195-2.701,1.84-5.647,2.726-8.482
			c0.473-1.505,0.963-3.007,1.436-4.512c0.144-0.461,0.343-0.938,0.352-1.408c0.053-3.488,0.167-6.985,0.004-10.465
			c-0.032-0.673-1.175-1.812-1.819-1.824c-1.114-0.016-2.538,0.384-3.301,1.143c-1.498,1.493-2.648,3.333-3.896,5.063
			c-0.481,0.661-0.824,1.424-1.265,2.114c-0.273,0.428-0.637,0.738-1.127,0.877c1.127-2.546-0.298-6.487,0.417-8.16
			c3.586-8.434,0.804-18.189-3.102-26.483c-2.794-5.937-6.193-11.645-8.307-17.879c-2.265-6.679,0.151-9.967,1.004-16.618
			c1.559-12.183-8.434-22.624-11.526-34.513c-1.48-5.688-1.354-11.697-2.84-17.381c-1.603-6.132-5.01-11.616-7.458-17.466
			c-2.154-5.145-3.562-10.6-4.186-16.141c-0.372-3.28,0.224-8.046-3.958-8.85c-1.073,6.769-3.733,15.325-1.501,22.313
			c1.13,3.542,2.974,6.814,4.23,10.314c2.02,5.614,2.473,11.648,2.913,17.601c0.343,4.655,0.073,9.8,1.795,14.125
			c0.771,1.934,2.416,7.715,3.656,8.992c9.147,9.433,2.183,25.251,3.994,36.634c2.167,13.623,14.949,24.864,13.484,38.581
			c0.086,9.376,1.542,24.337-3.823,32.383c-8.396,12.586-31.595-32.159-38.262-33.75c-12.86-3.068-20.307-13.219-26.218-24.28
			c-3.509-6.568-4.799-9.498-11.236-13.317c-6.324-3.746-12.518-7.65-17.202-13.439c-5.821-7.201-8.869-16.585-15.806-22.717
			c-4.166-3.685-9.408-5.888-14.112-8.854c0-1.616-7.622-7.752-8.793-9.29c-2.97-3.905-5.479-8.14-8.335-12.125
			c-3.224-4.497-8.173-7.552-13.085-9.902c-4.06-1.946-7.548-7.654-11.803-8.413c-0.625-0.11,3.361,8.38,4.218,9.396
			c2.412,2.86,5.545,5.247,8.805,7.046c6.129,11.416,13.827,25.92,25.162,32.856c6.838,4.182,12.636,10.016,16.858,16.817
			c3.908,6.296,5.965,12.289,11.195,17.748c3.647,3.807,8.658,3.88,12.901,7.01c4.169,3.072,7.385,7.425,9.946,11.873
			c4.472,7.756,7.842,16.475,14.566,22.383c6.315,5.549,14.965,8.018,20.942,13.929c7.568,7.487,10.637,17.838,18.866,24.872
			c-1.82,1.84-4.595,2.975-6.83,4.407c-2.289,1.465-4.162,1.481-6.471-0.327c-2.686-2.101-5.937-3.456-8.772-5.385
			c-3.035-2.064-5.863-4.427-8.797-6.638c-1.436-1.085-2.451-2.975-4.749-2.457c-0.265,0.062-0.652-0.236-0.934-0.44
			c-5.9-4.312-13.008-6.181-19.355-9.584c-2.322-1.244-4.525-2.709-6.798-4.08c-1.787,1.236-2.146,3.529-0.886,6.34
			c0.457,1.02,1.11,1.955,1.616,2.958c2.566,5.1,4.533,10.526,8.132,15.067c4.68,5.908,9.335,11.836,15.813,15.969
			c4.039,2.579,8.034,5.23,12.04,7.87c0.208,0.135,0.302,0.441,0.481,0.71c-4.063,3.403-5.521,8.393-8.082,12.677
			c-2.407,4.023-4.68,8.131-7.006,12.208c-2.003,3.513-4.137,6.96-5.965,10.559c-1.575,3.101-4.071,5.292-6.622,7.43
			c-2.672,2.24-5.508,4.304-8.4,6.25c-0.995,0.669-2.436,1.163-3.586,1.024c-5.378-0.661-10.706-1.775-16.096-2.297
			c-2.497-0.245-5.121,0.326-7.63,0.808c-5.112,0.979-10.221,2.02-15.271,3.268c-8.445,2.085-16.907,3.982-25.671,3.036
			c-3.081-0.334-6.084-1.302-9.152-1.803c-7.221-1.179-14.451-2.273-21.685-3.354c-7.683-1.146-15.377-2.248-23.064-3.358
			c-4.354-0.628-8.703-1.256-13.064-1.832c-7.793-1.032-15.574-2.199-23.391-2.991c-8.584-0.869-17.189-0.829-25.798,0.126
			c-4.154,0.461-8.376,0.273-12.562,0.498c-10.057,0.547-19.853,2.322-29.486,5.439c-6.781,2.195-12.766,5.863-19.106,8.866
			c-2.485,1.175-5.071,2.219-7.36,3.708c-2.982,1.938-5.72,4.243-8.552,6.414c-3.386,2.595-6.928,5.018-10.098,7.854
			c-5.569,4.978-10.314,10.686-13.231,17.658c-3.17,7.585-6.067,15.28-9.27,22.849c-1.24,2.929-3.125,5.581-4.472,8.474
			c-1.342,2.889-2.938,5.854-3.305,8.919c-0.175,1.473,0.547,3.546,0.734,5.373c0.024,0.253,0.453,0.556,0.755,0.67
			c1.62,0.604,1.399,1.688,0.767,2.855c-0.812,1.506-1.281,2.718,0.359,4.264c0.661,0.624,0.016,2.604,0.037,3.966
			c0.008,0.673,0.171,1.347,0.265,2.02c0.628-0.326,1.298-0.592,1.873-0.991c0.812-0.563,1.559-1.225,2.33-1.845
			c0.147,0.176,0.29,0.352,0.433,0.526c-1.245,1.212-2.489,2.428-3.811,3.717c0.114,0.706,0.257,1.575,0.388,2.399
			c2.713-1.167,5.476-2.109,7.997-3.501c2.995-1.652,4.513-4.557,5.243-7.816c0.657-2.934,1.509-5.888,1.628-8.858
			c0.179-4.594-0.486-9.225-0.257-13.814c0.265-5.329,0.804-10.682,1.775-15.92c1.073-5.777,4.733-10.318,8.429-14.713
			c0.592-0.702,1.498-1.139,2.126-1.604c-1.061,3.855-2.514,7.658-3.081,11.587c-0.82,5.68-2.272,11.335-0.947,17.238
			c0.645,2.86,0.049,5.978,0.298,8.951c0.257,3.138,0.677,6.283,1.338,9.36c1.236,5.732,2.501,11.473,4.133,17.099
			c1.052,3.627,2.611,7.01,5.01,10.2c3.149,4.194,5.553,9.058,4.732,14.786c-0.171,1.188,0.849,2.619,0.522,3.696
			c-1.073,3.541-2.354,7.038-3.855,10.42c-1.277,2.869-2.876,5.606-4.521,8.291c-0.787,1.285-1.885,2.46-3.06,3.419
			c-5.614,4.599-11.195,9.249-17.009,13.578c-2.558,1.905-5.304,3.709-6.626,6.528c-1.012,2.154-0.783,4.875-1.188,7.332
			c-0.22,1.33-0.33,2.794-0.975,3.921c-1.942,3.386-2.321,7.168-3.158,10.84c-0.82,3.599-0.718,7.319-2.33,10.849
			c-1.037,2.265-0.8,5.104-1.191,7.675c-0.155,1.008-0.457,1.995-0.718,2.986c-0.906,3.398-1.873,6.785-2.729,10.196
			c-1.204,4.786-2.26,9.608-3.504,14.382c-1.844,7.091-3.823,14.146-5.692,21.229c-0.689,2.611-1.399,5.242-1.75,7.911
			c-0.171,1.297,0.449,2.705,0.726,4.12c0.6-0.028,1.098-0.146,1.559-0.061c1.273,0.24,2.375,0.208,2.701,2.22
			c0.567,3.492,0.404,6.85,0.164,10.334c-0.159,2.33,0.216,4.933,1.819,7.12c0.771,1.057,1.016,2.566,1.273,3.916
			c0.424,2.229,2,2.967,3.905,3.525c3.57,1.053,7.156,1.188,10.84,0.751c2.179-0.257,2.701-0.89,1.608-3.321
			c1.04,0.648,1.807,1.13,2.676,1.673c1.86-2.848,1.204-5.59,0.192-8.393c-0.727-2.016-1.171-4.137-1.938-6.136
			c-0.526-1.363-1.269-2.689-2.138-3.864c-1.665-2.252-2.231-4.806-2.542-7.495c-0.159-1.399-0.502-2.782-0.645-4.182
			c-0.338-3.284-1.016-6.605-0.799-9.861c0.29-4.337,1.261-8.634,2.011-12.934c0.653-3.741,1.257-7.499,2.146-11.188
			c0.788-3.264,1.914-6.45,2.93-9.657c0.955-3.007,1.815-6.051,2.982-8.977c1.673-4.189,3.248-8.478,5.487-12.366
			c2.195-3.807,4.998-7.315,7.866-10.673c1.991-2.33,4.517-4.215,6.867-6.227c0.461-0.396,1.224-0.44,1.816-0.637
			c0.787,3.505,1.579,7.022,2.37,10.539c1.42,6.32,2.881,12.632,4.239,18.964c1.514,7.046,2.913,14.112,4.406,21.167
			c0.526,2.497,1.318,4.949,1.734,7.462c0.501,2.995,0.693,6.039,1.097,9.054c0.143,1.073,0.596,2.109,0.739,3.183
			c0.449,3.415,1.244,6.862,1.089,10.257c-0.159,3.428,2.538,5.275,3.354,8.07c0.012,0.045,0.114,0.094,0.18,0.094
			c4.578,0.147,5.443,4.545,7.98,7.014c2.061,2.003,3.252,4.305,3.86,7.336c0.461,2.289,2.77,4.565,4.831,6.051
			c1.477,1.068,3.888,1.004,5.899,1.126c3.839,0.236,7.695,0.33,11.542,0.311c2.191-0.009,2.591-0.592,1.885-2.734
			c-0.718-2.175-1.665-4.284-2.627-6.368c-0.979-2.118-1.799-4.411-3.231-6.194c-1.71-2.129-3.901-3.921-6.071-5.618
			c-1.387-1.089-2.75-1.941-3.443-3.77c-0.408-1.077-2.057-1.632-2.665-2.696c-2.26-3.946-4.875-7.817-6.328-12.069
			c-2.411-7.05-4.198-14.329-5.916-21.587c-1.558-6.59-2.733-13.272-3.974-19.931c-0.824-4.419,0.106-8.744,1.053-13.036
			c1.338-6.046,2.644-12.097,4.117-18.111c0.318-1.293,0.62-2.713,2.37-3.402c0.963-0.379,1.232-2.256,2.175-2.999
			c1.469-1.158,3.403-1.733,4.859-2.9c2.395-1.918,4.492-4.202,6.862-6.153c1.171-0.967,2.795-1.374,3.99-2.317
			c3.566-2.811,7.222-5.557,10.474-8.706c5.994-5.811,11.75-11.865,17.548-17.875c1.355-1.403,2.424-3.08,3.713-4.557
			c0.673-0.768,0.824-2.583,2.681-1.555c0.147,0.081,1.065-0.996,1.46-1.637c0.914-1.477,1.958-1.722,3.697-1.261
			c2.375,0.633,4.463,2.44,7.148,1.861c0.065-0.013,0.18-0.017,0.204,0.02c1.546,2.33,3.961,0.547,5.793,1.221
			c3.99,1.469,8.172,0.934,12.248,1.37c4.248,0.453,8.556,0.421,12.836,0.388c8.038-0.064,16.083-0.077,24.101-0.521
			c4.178-0.229,8.291-1.461,12.464-1.991c3.154-0.4,6.361-0.437,9.547-0.567c4.671-0.191,9.352-0.592,14.011-0.399
			c5.03,0.208,10.036,1.008,15.055,1.529c1.926,0.2,3.864,0.539,5.781,0.466c1.832-0.069,2.437,1.187,2.51,2.35
			c0.163,2.652-0.172,5.328-0.143,7.997c0.04,3.406,0.179,6.813,0.396,10.212c0.339,5.309,0.652,10.624,1.183,15.916
			c-1.146,0.49-2.293,1.232-3.492,2.281c-7.769,6.793-15.871,13.207-25.133,20.853c12.366,5.402,21.808,6.234,32.347,2.456
			c0.71,5.125,1.415,10.245,2.239,15.349c0.441,2.729,0.734,5.847,2.253,7.952c2.562,3.562,1.396,7.356,1.66,10.963
			c0.416,5.622,0.204,11.33-0.229,16.965c-0.547,7.111-5.573,20.09-6.148,27.197c-0.159,1.95,4.019,1,4.076,4.549
			c0.114,7.03,0.229,13.452,1.167,14.509c0.387,0.437,27.295,13.766,26.834,11.592c4.271,0.212,9.155,2.782,11.448-2.767
			c1.045-0.339,2.228-0.375,2.668-0.967c0.359-0.481,0.037-1.726-0.334-2.456c-1.645-3.26-3.379-6.476-5.161-9.662
			c-0.47-0.84-1.232-1.514-1.873-2.26c-1.444-1.686-3.844-2.587-4.219-5.145c-3.387-2.028-1.93-5.565-2.591-8.43
			c-1.853-8.029-0.922-16.148-0.433-24.219c0.318-5.251,1.27-10.466,1.995-15.688c0.657-4.717,1.289-9.441,2.126-14.125
			c0.596-3.35,1.461-6.659,2.297-9.964c0.257-1.02,0.91-1.941,1.208-2.958c0.2-0.681,0.102-1.452,0.122-2.187
			c0.024-0.89,0.004-1.779,0.041-2.664c0.139-3.46,0.191-6.928,0.474-10.376c0.139-1.697,0.551-3.374,0.901-5.051
			c25.345-6.993,49.964-15.141,74.872-23.803c1.31-0.461,2.407-1.105,3.333-1.864c3.15-0.714,6.084-2.203,8.083-4.623
			c2.668-3.235,4.223-6.483,4.528-10.697c0.217-3.003-0.665-6.214-2.228-8.772c-2.313-3.79-6.724-5.65-10.901-4.835
			c-6.455-5.197-12.909-10.396-19.364-15.594c-0.991-0.8-2.068-1.448-3.187-1.938c-5.356-4.056-12.529-5.627-19.103-6.071
			c2.293-3.795,4.721-7.507,7.658-10.861c0.09-0.105,0.208-0.261,0.314-0.265c3.235-0.123,3.962-2.934,5.386-5.007
			c3.129-4.557,6.283-9.098,9.38-13.676c4.357-6.446,8.972-12.75,12.909-19.449c3.17-5.394,5.646-11.216,8.16-16.969
			c2.097-4.802,3.773-9.788,5.688-14.672c1.934-4.937,4.104-9.792,5.842-14.798c1.277-3.676,2.024-7.536,3.023-11.31
			c0.106-0.396,0.314-0.763,0.584-1.391c3.174,1.159,6.25,2.378,9.396,3.398c3.105,1.008,6.247,2.395,9.425,2.542
			c3.677,0.171,6.124,1.763,8.516,4.178c3.55,3.583,7.531,6.071,12.934,6.308c6.405,0.277,10.448-3.489,14.524-7.353
			c0.645-0.612,0.481-2.084,0.673-3.162c0.07-0.396-0.049-0.877,0.131-1.196c2.317-4.084,0.172-7.532-1.542-11.036
			C511.908,259.892,511.366,259.492,511.251,258.982z M400.9,408.951c0.057,0.045,0.118,0.09,0.179,0.139
			c-3.827,4.06-7.649,8.123-11.477,12.183c-0.526,0.559-0.963,1.134-1.334,1.718c-6.769,2.358-13.75,4.39-20.556,6.691
			c0.352-1.514,0.788-2.991,1.461-4.338c2.297-4.586,2.089-9.808,4.26-14.357c0.991-2.076,1.926-4.174,2.9-6.259
			c0.445-0.95,0.922-1.881,1.371-2.827c0.163-0.347,0.339-0.682,0.514-1.016c1.298,0.204,2.596,0.408,3.893,0.624
			C388.374,403.985,394.636,406.466,400.9,408.951z"/>
	</g>
</g>
<g>
</g>
<g>
</g>
<g>
</g>
<g>
</g>
<g>
</g>
<g>
</g>
<g>
</g>
<g>
</g>
<g>
</g>
<g>
</g>
<g>
</g>
<g>
</g>
<g>
</g>
<g>
</g>
<g>
</g>
</svg>
