<?xml version="1.0" encoding="iso-8859-1"?>
<!-- Generator: Adobe Illustrator 16.0.0, SVG Export Plug-In . SVG Version: 6.00 Build 0)  -->
<!DOCTYPE svg PUBLIC "-//W3C//DTD SVG 1.1//EN" "http://www.w3.org/Graphics/SVG/1.1/DTD/svg11.dtd">
<svg version="1.1" id="Capa_1" xmlns="http://www.w3.org/2000/svg" xmlns:xlink="http://www.w3.org/1999/xlink" x="0px" y="0px"
	 width="573.185px" height="573.185px" viewBox="0 0 573.185 573.185" style="enable-background:new 0 0 573.185 573.185;"
	 xml:space="preserve">
<g>
	<g>
		<path d="M564.289,294.33c-22.48-10.682-38.891-28.005-52.6-48.071c-8.979-13.142-16.854-27.034-25.426-40.461
			c-4.179-6.544-4.154-13.248-1.208-19.947c12.265-27.907-10.633-56.006-38.074-55.068c-14.097,0.481-28.776,6.336-38.336,18.348
			c-10.298,12.938-18.278,27.267-20.192,44.333c-0.579,5.153-2.533,10.147-4.051,15.194c-0.266,0.89-1.069,2.064-1.812,2.62
			c-0.311,0.232-0.625,0.465-0.935,0.702c-0.742,0.555-1.673,0.331-2.023-0.526c-0.976-2.371-1.779-4.912-3.443-6.614
			c-26.361-26.932-57.071-46.483-94.367-54.484c-26.361-5.655-52.481-4.264-78.679,1.901c-9.103,2.142-18.854,1.538-28.307,2.195
			c-27.234,1.885-54.472,3.774-81.706,5.663c-0.926,0.065-1.689,0.648-1.709,1.305c-0.021,0.657,0.689,1.387,1.583,1.632
			c0.326,0.09,0.657,0.179,0.983,0.269c0.894,0.245,1.559,0.996,1.485,1.681c-0.073,0.681-0.881,1.146-1.803,1.041
			c-20.062-2.367-40.119-4.717-60.176-7.116c-5.268-0.628-10.522-1.383-15.77-2.158c-6.414-0.951-12.428-0.706-17.381,4.782
			c-0.62,0.689-0.367,1.559,0.502,1.889c2.66,1.012,5.243,1.991,7.862,2.982c0.869,0.33,1.334,1.31,1.044,2.191
			c-0.322,0.979-0.624,1.897-0.881,2.676c-0.29,0.881,0.126,1.975,0.93,2.44c14.562,8.462,29.025,16.63,43.195,25.284
			c6.116,3.733,11.493,8.662,17.34,12.86c10.2,7.332,20.682,14.28,30.686,21.869c4.958,3.758,9.119,8.568,13.619,12.925
			c3.545,3.432,7.376,6.626,10.526,10.392c5.655,6.748,12.501,13.154,15.879,20.983c3.758,8.711,10.62,11.444,17.846,14.428
			c10.967,4.528,22.13,8.575,34.411,13.256c0.865,0.33,1.105,1.191,0.539,1.926c-13.236,17.066-25.823,33.292-39.209,50.555
			c-0.567,0.734-0.494,1.856,0.163,2.51c6.357,6.295,13.497,13.365,20.486,20.285c0.657,0.653,1.673,1.763,2.297,2.444
			c1.93,2.113,6.116,6.283,10.363,7.857c0.869,0.322,2.317,0.723,3.158,1.122c2.762,1.322,8.491,4.778,11.016,11.534
			c2.281,6.104,2.317,7.128-2.681,11.086c-3.802,3.007-8.531,4.826-12.762,7.315c-1.142,0.673-2.125,1.624-3.48,2.823
			c-0.62,0.551-0.478,1.118,0.347,1.216c5.255,0.62,8.572-1.236,11.571-4.068c7.23-6.829,15.602-6.834,24.292-3.704
			c5.002,1.804,9.661,5.019,14.773,5.92c3.228,0.571,7.511-0.93,10.955-1.371c0.918-0.118,1.575,0.629,1.306,1.519
			c-0.588,1.962-1.709,3.736-3.635,5.263c-4.129,3.269-9.27,5.243-13.868,7.952c-1.244,0.73-2.309,1.763-3.782,3.068
			c-0.677,0.6-0.518,1.211,0.375,1.317c5.712,0.673,9.314-1.342,12.575-4.423c7.858-7.421,16.957-7.43,26.394-4.022
			c5.435,1.958,10.498,5.455,16.05,6.434c4.586,0.809,11.147-2.248,15.052-1.529c0.89,0.163,1.208-0.09,0.751-0.869
			c-2.224-3.815-4.554-4.374-10.519-3.774c-7.083,0.71-13.594-0.575-19.8-5.94c-0.681-0.592-0.477-1.102,0.424-1.102h23.355
			c0.901,0,1.456-0.343,1.235-0.767c-0.22-0.425-0.575-1.522-0.317-2.387c0.358-1.2,1.574-2.53,5.365-1.931
			c0.889,0.144,1.052-0.154,0.326-0.693c-2.559-1.901-6.296-3.827-8.822-3.187c-4.712,1.191-9.119,3.542-13.786,4.962
			c-4.965,1.509-8.479,0.367-10.955-3.473c-0.49-0.759-0.11-1.188,0.779-1.049c3.301,0.519,4.958-1.012,5.149-4.124
			c0.057-0.902,0.71-1.596,1.611-1.551c0.612,0.032,1.212,0.062,1.848,0.094c0.902,0.045,1.114-0.433,0.417-1.004
			c-5.655-4.635-9.368-1.632-12.905,3.623c-0.506,0.747-1.24,0.73-1.693-0.053c-1.909-3.305-3.623-5.789-4.561-8.539
			c-1.922-5.647-3.203-11.51-4.827-17.263l-0.404-1.918c-5.418-17.148-4.802-34.235-0.889-51.33
			c2.183-9.531,4.61-11.351,14.068-9.364c31.461,6.614,60.695,0.119,89.723-12.46c11.8-5.112,24.272-8.409,35.08-15.937
			c3.28-2.285,8.356-1.823,12.061-3.704c25.142-12.771,36.639-34.672,40.686-61.531c1.204-7.989,3.183-15.855,4.521-23.828
			c0.909-5.422,4.418-7.188,9.004-6.132c10.894,2.505,21.388,5.842,28.687,15.414c12.379,16.23,24.595,32.616,37.703,48.242
			c14.068,16.772,32.065,28.188,53.497,34.484c0.89,0.261,1.032-0.013,0.339-0.629C570.018,298.598,567.455,295.835,564.289,294.33z
			 M217.88,405.493c-0.449-0.697-0.102-1.093,0.718-0.967c3.04,0.478,4.561-0.93,4.741-3.794c0.053-0.829,0.653-1.469,1.481-1.429
			c0.563,0.029,1.114,0.058,1.702,0.086c0.828,0.041,1.024-0.399,0.383-0.926c-5.206-4.268-8.621-1.502-11.877,3.337
			c-0.465,0.689-1.142,0.669-1.559-0.049c-1.391-2.407-2.672-4.341-3.57-6.3c-0.388-0.84-0.698-2.333-1.265-3.067
			c-0.526-0.689-1.481-1.616-3.183-2.795c-2.073-1.433-5.259-3.231-10.159-5.423c-0.845-0.379-2.142-1.122-2.868-1.697
			c-5.243-4.149-9.857-9.318-14.317-14.402c-1-1.138-2.415-2.831-2.187-3.978c1.334-6.671-0.102-13.603,5.447-19.796
			c7.572-8.458,13.635-18.319,19.914-27.863c2.934-4.459,5.606-6.091,10.78-3.365c5.385,2.835,11.249,4.761,16.891,7.107
			c5.508,2.293,8.592,5.94,7.001,12.325c-0.469,1.881-0.473,3.876-0.901,5.77c-3.289,14.476-6.691,28.865-0.139,43.477
			c0.897,1.999,0.139,4.74-0.229,8.204c-0.098,0.923,0.229,2.33,0.673,3.142l5.21,9.47c0.449,0.812,0.648,1.478,0.449,1.498
			c-0.123,0.012-0.241,0.032-0.359,0.061c-4.337,1.098-8.393,3.26-12.689,4.565C223.393,410.079,220.161,409.022,217.88,405.493z
			 M244.739,410.152l0.441,0.8c0.449,0.812,0.947,2.208,1.105,3.121c0.261,1.502,0.481,2.963,0.596,4.37
			c0.078,0.926-0.469,1.15-1.322,0.783c-1.53-0.657-3.529-0.682-6.536-0.379c-6.52,0.652-12.513-0.531-18.221-5.468
			c-0.628-0.543-0.441-1.012,0.392-1.012h21.489c0.833,0,1.338-0.318,1.139-0.706c-0.204-0.392-0.531-1.399-0.294-2.194
			c0.041-0.135,0.094-0.273,0.163-0.412C243.805,408.839,244.29,409.341,244.739,410.152z"/>
	</g>
</g>
<g>
</g>
<g>
</g>
<g>
</g>
<g>
</g>
<g>
</g>
<g>
</g>
<g>
</g>
<g>
</g>
<g>
</g>
<g>
</g>
<g>
</g>
<g>
</g>
<g>
</g>
<g>
</g>
<g>
</g>
</svg>
