<?xml version="1.0" encoding="iso-8859-1"?>
<!-- Generator: Adobe Illustrator 16.0.0, SVG Export Plug-In . SVG Version: 6.00 Build 0)  -->
<!DOCTYPE svg PUBLIC "-//W3C//DTD SVG 1.1//EN" "http://www.w3.org/Graphics/SVG/1.1/DTD/svg11.dtd">
<svg version="1.1" id="Capa_1" xmlns="http://www.w3.org/2000/svg" xmlns:xlink="http://www.w3.org/1999/xlink" x="0px" y="0px"
	 width="591.201px" height="591.201px" viewBox="0 0 591.201 591.201" style="enable-background:new 0 0 591.201 591.201;"
	 xml:space="preserve">
<g>
	<path d="M588.676,243.675c-4.366-2.68-8.793-5.271-13.301-7.69c-1.412-0.759-2.8-1.546-4.154-2.383
		c-0.958-0.592-1.836-1.212-1.999-1.342c-0.098-0.078-0.199-0.155-0.302-0.229c-0.918-0.632-1.832-1.265-2.75-1.901
		c-2.954-2.285-5.635-4.896-7.87-7.98c-2.138-2.946-4.043-3.17-6.997-1.836c-4.505,2.036-7.43,1.236-11.017-2.313
		c-6.956-6.887-17.866-10.016-27.67-6.173c-7.532,2.954-13.623,7.482-19.833,12.423c-4.271,3.399-9.992,4.998-15.108,7.299
		c-7.887,3.545-16.152,3.366-24.284,1.497c-1.853-0.428-3.696-0.906-5.528-1.412c-0.425-0.151-0.853-0.273-1.293-0.363
		c-5.663-1.6-11.27-3.436-16.961-4.937c-3.664-0.967-7.263-1.75-10.861-3.215c-5.189-2.114-10.967-2.893-16.557-3.872
		c-6.785-1.191-13.623-2.199-20.473-2.885c-2.726-0.273-5.558,0.673-8.353,0.836c-4.761,0.278-9.539,0.323-14.304,0.551
		c-8.381,0.408-16.757,0.853-25.133,1.371c-0.393,0.024-0.775,0.175-1.159,0.359c-0.607,0.294-1.991,0.718-3.06,1.073
		c-0.563,0.188-1.118,0.4-1.657,0.636c-1.032,0.449-2.203,1.008-2.672,1.098c-0.281,0.053-0.567,0.098-0.853,0.123
		c-5.794,0.53-10.972,2.787-16.251,4.896c-2.117,0.844-4.39,1.416-6.646,1.783c-6.977,1.13-14.276,1.204-20.874,3.419
		c-5.394,1.812-11.277,1.889-16.141,4.447c-2.33,1.224-4.725,1.477-6.964,2.489c-1.44,0.653-2.982,1.082-4.59,1.538
		c-1.085,0.306-1.709,0.849-1.412,1.179c0.298,0.335-0.375,0.592-1.501,0.559c-1.048-0.029-2.015-0.045-2.97,0.069
		c-7.662,0.926-15.296,2.125-22.979,2.844c-3.468,0.322-7.054,0.004-10.526-0.477c-16.997-2.363-33.999-4.7-50.943-7.393
		c-15.7-2.497-31.534-3.86-47.32-3.011c-12.832,0.694-25.516,3.758-38.311,5.398c-14.753,1.893-28.792,6.34-42.575,11.579
		c-11.163,4.243-22.048,9.229-32.979,14.064c-0.551,0.244-0.951,0.84-1.31,1.518c-0.53,0.991-0.143,2.17,0.877,2.632
		c0.702,0.317,1.379,0.551,1.946,0.392c4.325-1.216,8.556-2.795,12.779-4.35c6.295-2.317,12.391-5.451,18.87-6.944
		c12.093-2.786,24.341-5.039,36.63-6.756c9.511-1.326,19.172-1.812,28.78-2.064c1.608-0.041,3.224-0.045,4.843-0.013
		c19.861,1.281,39.4,5.978,58.817,10.453c1.53,0.457,3.052,0.926,4.573,1.42c11.102,3.614,22.387,6.817,33.783,9.326
		c9.771,2.15,19.714,3.652,29.657,4.917l8.797,2.023c0.799,0.184,1.546,0.204,2.228,0.09c1.11-0.184,2.803-0.641,3.925-0.551
		c6.373,0.51,12.762,0.873,19.139,1.322c6.638,0.465,13.313,0.502,19.919,1.216c1.204,0.22,2.248,0.437,3.289,0.669
		c2.072,0.579,4.121,1.399,6.161,2.097c3.693,1.265,7.336,2.685,10.98,4.089c0.771,0.298,1.469,0.795,2.183,1.228
		c2.325,1.42,4.528,3.093,6.989,4.215c2.407,1.098,3.451,3.986,1.742,5.883c-3.999,4.432-8.104,8.776-11.922,13.354
		c-4.651,5.577-11.065,7.984-17.639,9.764c-5.52,1.493-9.433,4.174-12.595,9.069c-3.203,4.961-7.605,9.155-11.485,13.681
		c-0.078,0.094-0.163,0.22-0.265,0.249c-10.897,3.101-8.658,12.488-9.425,20.236c-0.277,2.786,0.73,5.753,1.46,8.56
		c0.212,0.816,1.449,1.408,2.281,2.012c1.645,1.195,3.309,2.358,5.055,3.582c0.922,0.648,2.301,0.498,3.248-0.105
		c2.322-1.485,4.619-1.069,8.07,1.652c0.886,0.697,1.869,0.424,1.84-0.702c-0.065-2.893-2.048-5.732-5.088-6.667
		c-3.358-1.032-6.206-2.627-6.708-6.377c-0.51-3.823,1.024-6.834,4.418-8.947c1.024-0.637,2.187-1.909,2.305-2.999
		c0.841-7.67,6.859-10.71,12.277-14.427c2.644-1.815,4.868-4.235,7.446-6.161c2.493-1.86,4.998-3.99,7.851-5.038
		c7.181-2.636,14.397-5.423,22.509-4.827c1.122,0.082,2.493,1.004,3.109,1.946c1.195,1.836,2.558,3.835,3.329,6.043
		c1.248,3.573,2.061,7.425,2.272,11.203c0.204,3.574,4.847,13.109,7.308,15.721c1.212,1.28,1.673,3.268,2.138,5.107
		c0.277,1.094,1.473,2.012,2.599,2.004c1.583-0.013,3.317,0.012,4.337,0.881c1.245,1.061,1.71,3.031,2.229,4.949
		c0.293,1.089,1.501,1.628,2.26,0.796c1.922-2.105,2.236-6.157,0.266-10.033s-4.55-7.621-5.577-11.746
		c-1.021-4.097-0.812-8.621-0.417-12.893c0.217-2.313,0.408-3.713-1.868-5.067c-3.954-2.354-6.806-5.786-8.666-10.094
		c-0.922-2.134-0.877-3.195,1.31-4.66c2.934-1.966,5.61-4.517,7.866-7.254c2.085-2.533,4.594-3.582,7.568-3.554
		c8.07,0.077,15.721-1.926,23.244-4.483c3.089-1.049,5.63-2.579,7.336-6.015c0.15-0.31,0.367-0.596,0.624-0.869
		c0.412-0.428,1.685-0.982,2.762-1.306c7.405-2.223,15.104-3.438,22.824-4.304c4.026-0.229,8.062-0.384,12.085-0.674
		c1.122-0.081,2.121,0.751,2.13,1.877c0.012,2.428-0.172,4.884,0.954,5.965c1.775,1.706,2.787,3.652,3.917,5.562
		c1.032,1.746,1.469,3.855,2.105,5.826c0.909,2.812,1.938,5.598,2.595,8.47c1.22,5.324,2.411,10.674,3.224,16.071
		c0.534,3.542,1.591,5.361,4.695,6.267c1.081,0.314,1.514-0.351,0.906-1.301c-0.931-1.453-1.742-2.893-1.469-4.477
		c0.191-1.109,1.252-1.048,1.75-0.04c1.012,2.036,1.971,4.104,3.374,5.802c1.73,2.093,4.187,2.64,7.602,2.068
		c1.109-0.188,1.102-0.612,0.045-1.004c-4.77-1.778-5.37-5.268-5.097-9.629c0.114-1.819-0.726-3.696-1.162-5.843
		c-0.225-1.105,0.461-1.452,1.338-0.746c1.656,1.334,3.309,2.668,4.978,3.982c5.304,4.174,13.685,2.745,16.899-2.897
		c0.2-0.351,0.314-0.755,0.478-1.338c0.212-0.759-0.376-0.877-1.379-0.367c-3.252,1.648-6.263,2.13-9.376,0.522
		c-1.016-0.526-1.849-1.453-2.685-2.272c-1.836-1.808-3.374-4.04-5.479-5.427c-4.264-2.815-8.315-5.354-8.556-11.371
		c-0.09-2.195-2.321-4.215-3.012-6.487c-1.782-5.896,1.322-9.743,5.929-12.807c5.043-3.35,9.095-7.622,11.991-12.954
		c0.399-0.738,0.905-1.522,0.979-2.317c0.677-7.128,5.315-9.902,11.693-10.959c0.15-0.024,0.297-0.058,0.448-0.09
		c0.245-0.058,1.057-0.143,1.804-0.241c0.465-0.061,0.914-0.143,1.342-0.244c1.024-0.249,2.016-0.56,2.958-0.942
		c1.045-0.421,2.729-1.082,3.823-1.354c3.325-0.833,6.626-1.714,9.474-3.366c6.165-3.587,12.358-3.007,18.376-1.534
		c11.367,2.782,22.53,6.397,33.734,9.816c3.28,1,7.005,0.751,9.575,3.945c2.583,3.211,5.472,6.259,8.629,8.886
		c2.159,1.796,4.884,3.293,7.589,3.954c3.443,0.845,5.696-1.665,5.125-5.137c-0.106-0.648-1.285-1.118-1.967-1.677
		c-0.416-0.339-0.832-0.682-1.265-1.036c-0.44-0.363-1.04-0.441-1.62-0.384c3.02-3.876,1.673-10.298,0.62-7.107
		c-0.938,2.831-3.565,4.798-4.721,5.549c-0.383-0.567-0.763-1.139-1.146-1.71c4.301-3.063,4.64-7.556,2.774-5.043
		c-1.306,1.755-3.558,1.979-4.847,1.955c-0.457-0.682-0.914-1.363-1.371-2.049c4.183-2.472,5.007-6.397,2.901-4.268
		c-1.473,1.489-3.607,1.465-4.904,1.281c-0.184-0.277-0.371-0.551-0.555-0.828c5.096-1.877,3.872-6.087,3.215-4.386
		c-0.51,1.321-3.407,1.681-4.961,1.783c-0.339-0.502-0.678-1.013-1.017-1.519c2.199-2.391,1.298-4.174,0.633-3.223
		c-0.339,0.485-1.273,0.795-2.13,0.987c-0.29-0.433-0.579-0.861-0.869-1.294c2.317-2.717,1.188-4.585,0.579-3.545
		c-0.313,0.534-1.285,0.93-2.158,1.191c-0.33-0.494-0.665-0.992-0.995-1.489c2.941-1.53,2.681-3.554,1.729-2.873
		c-0.775,0.555-2.819,0.184-3.651,0.004c-0.857-1.277-1.697-2.529-2.566-3.827c-0.629-0.935-0.266-1.983,0.775-2.42
		c1.493-0.62,2.774-1.203,3.953-1.036c1.167,0.167,2.346,0.334,3.521,0.514c0.437,0.881,0.93,2.097,0.701,2.778
		c-0.363,1.085,1.538,0.767,2.179-2.276c0.519,0.094,1.032,0.196,1.551,0.306c0.424,0.869,0.865,2.007,0.648,2.665
		c-0.351,1.053,1.429,0.787,2.122-2.007c1.317,0.355,2.615,0.759,3.867,1.261c0.253,0.098,0.47,0.286,0.71,0.412
		c-0.587,1.73-1.604,3.998-2.953,4.198c-2.036,0.302,2.211,2.668,5.564-2.272c0.519,0.494,1.032,0.995,1.53,1.534
		c-0.225,1.257-0.796,2.828-2.265,3.721c-2.46,1.501,1.167,1.653,4.443-1.46c0.143,0.139,0.277,0.293,0.42,0.428
		c0.596,0.555,0.935,1.473,1.604,1.844c0.024,0.012,0.049,0.032,0.073,0.045c-0.848,1.138-2.162,2.533-3.904,3.198
		c-2.949,1.126,3.681,2.102,6.826-1.403c1.31,0.686,2.64,0.918,3.99-0.229c-0.318,2.053-1.485,4.921-5.337,7.189
		c-5.806,3.419,9.196,1.256,11.661-6.129c0.253,0.307,0.686,0.575,1.269,0.629c1.729,0.163,3.146-0.824,4.015-2.366
		C591.927,247.392,590.891,245.038,588.676,243.675z"/>
</g>
<g>
</g>
<g>
</g>
<g>
</g>
<g>
</g>
<g>
</g>
<g>
</g>
<g>
</g>
<g>
</g>
<g>
</g>
<g>
</g>
<g>
</g>
<g>
</g>
<g>
</g>
<g>
</g>
<g>
</g>
</svg>
