<?xml version="1.0" encoding="iso-8859-1"?>
<!-- Generator: Adobe Illustrator 16.0.0, SVG Export Plug-In . SVG Version: 6.00 Build 0)  -->
<!DOCTYPE svg PUBLIC "-//W3C//DTD SVG 1.1//EN" "http://www.w3.org/Graphics/SVG/1.1/DTD/svg11.dtd">
<svg version="1.1" id="Capa_1" xmlns="http://www.w3.org/2000/svg" xmlns:xlink="http://www.w3.org/1999/xlink" x="0px" y="0px"
	 width="563.24px" height="563.239px" viewBox="0 0 563.24 563.239" style="enable-background:new 0 0 563.24 563.239;"
	 xml:space="preserve">
<g>
	<g>
		<path d="M533.133,467.246c-1.583-10.583-3.452-21.293-5.513-32.171c-14.309-75.627-41.064-142.032-75.704-210.89
			c-8.801-17.499-13.428-33.016-15.12-48.552c-0.363-3.329,2.134-5.447,5.459-5.051c19.298,2.301,36.817-4.802,34.052-30.718
			c-1.38-12.921-10.515-26.357-18.364-38.274c-1.845-2.799-1.388-7.026,1.317-9.001c7.116-5.189,16.268-8.482,27.993-9.519
			c5.463-0.485,10.722-3.28,17.943-6.405c3.072-1.33,3.154-3.456,0.029-4.66c-20.861-8.042-39.021-6.124-54.917,5.32
			c-2.718,1.958-6.107,1.408-7.785-1.493c-6.512-11.29-13.022-22.583-19.534-33.876c-1.673-2.9-3.199-5.883-3.595-6.564
			c-0.396-0.682-2.183-3.5-3.733-6.471c-5.337-10.241-11.86-23.627-21.714-27.193c-20.404-7.385-25.247,10.624-10.204,21.709
			c6.813,5.022,13.627,10.045,20.441,15.068c2.696,1.987,6.242,5.953,7.915,8.857c7.756,13.452,15.516,26.903,23.272,40.355
			c0.216,0.375,0.432,0.75,0.652,1.13c0.359,0.625-1.122,3.19-3.142,5.863c-9.947,13.158-18.861,30.967-26.867,53.366
			c-1.126,3.154-4.369,4.398-7.278,2.746c-23.443-13.317-46.414-27.667-70.816-38.907c-20.221-9.311-30.669-2.991-31.347,17.781
			c-0.11,3.346-2.595,5.479-5.903,4.974c-1-0.151-2.017-0.298-3.04-0.441c-3.317-0.465-6.01,1.885-6.01,5.23
			c0-3.35-2.693-5.695-6.01-5.23c-1.024,0.143-2.04,0.29-3.04,0.441c-3.313,0.506-5.798-1.624-5.904-4.974
			c-0.682-20.775-11.13-27.095-31.347-17.781c-24.403,11.236-47.373,25.59-70.817,38.907c-2.913,1.657-6.152,0.408-7.278-2.746
			c-8.005-22.403-16.916-40.208-26.867-53.366c-2.02-2.673-3.5-5.239-3.142-5.863c0.216-0.375,0.433-0.75,0.649-1.13
			c7.756-13.452,15.516-26.904,23.272-40.355c1.673-2.901,5.218-6.871,7.915-8.857c6.813-5.023,13.627-10.045,20.441-15.068
			c15.039-11.085,10.2-29.094-10.204-21.709c-9.854,3.562-16.377,16.948-21.714,27.193c-1.546,2.97-3.337,5.789-3.733,6.471
			c-0.396,0.681-1.921,3.66-3.594,6.564c-6.512,11.29-13.023,22.583-19.535,33.876c-1.673,2.901-5.063,3.448-7.785,1.493
			c-15.896-11.448-34.056-13.362-54.917-5.32c-3.125,1.204-3.044,3.33,0.028,4.66c7.222,3.125,12.481,5.92,17.944,6.405
			c11.726,1.037,20.877,4.329,27.993,9.519c2.705,1.975,3.162,6.202,1.317,9c-7.85,11.918-16.985,25.354-18.364,38.275
			c-2.766,25.92,14.753,33.023,34.052,30.718c3.325-0.396,5.822,1.722,5.459,5.051c-1.697,15.537-6.32,31.053-15.121,48.552
			c-34.639,68.858-61.396,135.268-75.705,210.89c-2.056,10.878-3.929,21.588-5.512,32.171c-9.131,61.045,26.328,82.82,21.999,44.309
			c-5.806-51.636,1.975-118.943,20.796-167.198c17.442-44.721,42.73-83.79,62.196-126.438c8.776-19.225,20.224-27.752,41.754-24.484
			c12.163,1.844,24.77,0.722,40.241,0.444c3.35-0.057,3.635,1.163,0.755,2.876c-16.602,9.87-23.627,21.645-12.901,40.792
			c1.876,3.35-8.332,17.438-15.712,21.314c-32.102,16.863-45.455,43.643-54.431,77.931c-8.772,33.518-20.216,69.772-35.929,100.662
			c-4.455,8.756-8.87,17.924-9.196,27.744c-0.273,8.241,16.34,34.754,24.296,18.772c4.031-8.095,0.829-26.455,2.317-36.056
			c4.88-31.456,26.704-62.771,25.978-93.705c-1.02-43.514,24.146-60.682,59.311-72.726c3.17-1.085,6.349,0.746,7.014,4.03
			c4.994,24.692,5.496,45.288-23.028,62.314c-32.428,19.359-32.518,36.002-10.359,67.646c4.626,6.609,9.698,12.921,14.806,19.176
			c29.931,36.63,36.353,44.655,22.048,70.502c-1.624,2.93-4.965,7.165-7.344,9.519c-2.832,2.808-5.663,5.61-8.499,8.417
			c-5.34,5.292-12.583,10.625-16.503,17.124c-5.879,9.747-3.056,21.645,9.282,23.003c2.583,0.286,5.267-2.052,5.847-4.451
			c0.648-2.681,1.293-5.361,1.942-8.041c0.788-3.256,3.256-7.899,5.532-10.355c8.678-9.348,17.52-18.593,24.272-29.168
			c14.464-22.644,14.459-44.672-6.858-65.402c-15.847-15.406-29.486-33.089-44.974-51.302c-2.171-2.55-1.967-6.459,0.477-8.752
			c12.187-11.432,23.562-22.105,37.104-34.811c2.444-2.293,4.757-1.46,5.231,1.856c2.362,16.516,5.267,29.597,4.928,42.596
			c-0.918,35.214,20.351,56.133,46.243,72.982c2.02,1.314,4.325,2.098,6.83,2.432c3.321,0.445,6.047-2.685,6.047-6.034
			c0,3.35,2.725,6.479,6.046,6.034c2.506-0.334,4.811-1.117,6.83-2.432c25.892-16.85,47.161-37.769,46.243-72.982
			c-0.339-12.999,2.566-26.084,4.929-42.596c0.473-3.316,2.786-4.149,5.23-1.856c13.541,12.705,24.916,23.379,37.104,34.811
			c2.443,2.293,2.647,6.202,0.478,8.752c-15.488,18.217-29.127,35.896-44.975,51.302c-21.317,20.727-21.321,42.754-6.858,65.402
			c6.757,10.575,15.594,19.82,24.272,29.168c2.28,2.456,4.749,7.1,5.532,10.355c0.648,2.68,1.293,5.36,1.942,8.041
			c0.579,2.399,3.268,4.737,5.847,4.451c12.338-1.358,15.157-13.256,9.282-23.003c-3.922-6.499-11.163-11.832-16.504-17.124
			c-2.832-2.807-5.663-5.609-8.499-8.417c-2.379-2.357-5.724-6.589-7.344-9.519c-14.305-25.847-7.883-33.872,22.048-70.502
			c5.108-6.255,10.18-12.57,14.807-19.176c22.158-31.641,22.068-48.287-10.359-67.646c-28.519-17.026-28.021-37.618-23.027-62.314
			c0.665-3.279,3.844-5.111,7.014-4.03c35.166,12.044,60.331,29.217,59.311,72.726c-0.722,30.931,21.103,62.249,25.978,93.705
			c1.489,9.601-1.713,27.965,2.317,36.056c7.96,15.98,24.57-10.531,24.297-18.772c-0.326-9.82-4.741-18.988-9.196-27.744
			c-15.712-30.886-27.156-67.145-35.929-100.662c-8.976-34.288-22.33-61.068-54.432-77.931c-7.376-3.872-17.584-17.96-15.712-21.314
			c10.723-19.147,3.701-30.922-12.9-40.792c-2.881-1.713-2.591-2.933,0.755-2.876c15.471,0.278,28.082,1.399,40.24-0.444
			c21.526-3.272,32.975,5.259,41.755,24.484c19.47,42.644,44.758,81.714,62.195,126.438
			c18.821,48.259,26.603,115.562,20.796,167.198C506.805,550.062,542.264,528.291,533.133,467.246z M124.68,158.501
			c-1.408,0.469-4.725-0.857-7.197-3.113c-12.709-11.6-15.945-22.893-9.71-33.889c1.652-2.913,4.688-7.066,6.186-9.662
			c1.497-2.595,4.051-2.33,5.365,0.751c2.758,6.458,4.635,13.823,5.822,21.983c0.853,5.843,1.469,11.485,1.808,17.001
			C127.165,154.919,126.088,158.032,124.68,158.501z M240.05,134.437c-9.515,13.791-19.025,27.577-28.482,41.286
			c-1.901,2.758-6.112,4.504-9.409,3.9c-9.718-1.779-18.768-3.435-27.691-5.071c-3.292-0.604-6.463-2.958-7.071-5.259
			c-0.612-2.301,1.191-5.618,4.023-7.409c19.89-12.575,39.78-25.153,59.674-37.728c2.832-1.792,6.752-1.33,8.764,1.024
			C241.866,127.534,241.952,131.679,240.05,134.437z M395.857,169.292c-0.611,2.301-3.777,4.655-7.07,5.259
			c-8.923,1.632-17.973,3.289-27.691,5.071c-3.292,0.604-7.503-1.142-9.408-3.9c-9.457-13.709-18.968-27.495-28.482-41.286
			c-1.901-2.758-1.815-6.903,0.196-9.257c2.011-2.354,5.932-2.815,8.764-1.024c19.89,12.579,39.78,25.153,59.674,37.728
			C394.666,163.674,396.465,166.992,395.857,169.292z M436.298,151.577c0.343-5.516,0.959-11.159,1.808-17.001
			c1.187-8.16,3.063-15.524,5.822-21.983c1.313-3.081,3.871-3.346,5.365-0.75c1.493,2.595,4.532,6.748,6.185,9.661
			c6.234,10.996,2.999,22.289-9.71,33.889c-2.473,2.256-5.79,3.582-7.197,3.113C437.167,158.032,436.09,154.919,436.298,151.577z"/>
	</g>
</g>
<g>
</g>
<g>
</g>
<g>
</g>
<g>
</g>
<g>
</g>
<g>
</g>
<g>
</g>
<g>
</g>
<g>
</g>
<g>
</g>
<g>
</g>
<g>
</g>
<g>
</g>
<g>
</g>
<g>
</g>
</svg>
