<?xml version="1.0" encoding="iso-8859-1"?>
<!-- Generator: Adobe Illustrator 16.0.0, SVG Export Plug-In . SVG Version: 6.00 Build 0)  -->
<!DOCTYPE svg PUBLIC "-//W3C//DTD SVG 1.1//EN" "http://www.w3.org/Graphics/SVG/1.1/DTD/svg11.dtd">
<svg version="1.1" id="Capa_1" xmlns="http://www.w3.org/2000/svg" xmlns:xlink="http://www.w3.org/1999/xlink" x="0px" y="0px"
	 width="587.461px" height="587.461px" viewBox="0 0 587.461 587.461" style="enable-background:new 0 0 587.461 587.461;"
	 xml:space="preserve">
<g>
	<g>
		<path d="M574.123,361.363c-5.54-4.749-9.771-10.241-12.872-16.854c-0.103-0.216-0.221-0.408-0.347-0.571
			c-0.229-0.294-0.526-1.085-0.918-1.685c-0.232-0.359-0.556-0.653-0.967-0.841c-0.14-0.062-0.278-0.118-0.417-0.167
			c-0.232-0.082-2.061-2.379-4.651-4.546c-2.904-2.427-6.405-4.337-10.538-5.688c-36.316-11.881-72.6-23.872-108.899-35.802
			c-4.79-1.575-9.551-3.325-14.447-4.479c-4.419-1.044-5.019-3.497-3.953-7.295c1.256-4.479,2.358-9.008,3.496-13.521
			c1.489-5.916-0.804-10.225-6.438-11.84c-6.482-1.856-13.194-3.023-19.873-4.031c-6.899-1.044-13.966-1.094-20.792-2.419
			c-2.95-0.575-5.802-1.645-8.646-2.783c-3.138-1.256-5.626-2.799-5.536-3.492c0.089-0.694,2.889-1.579,6.242-1.995
			c10.232-1.273,20.453-2.644,30.718-3.493c6.851-0.567,12.248-3.19,16.854-8.017c5.468-5.729,5.354-8.886-1.109-13.627
			c-8.666-6.356-18.385-10.163-29.245-9.988c-13.391,0.216-26.77,1.012-40.16,1.24c-17.074,0.294-34.157,0.327-51.236,0.31
			c-2.24-0.004-4.614-0.653-6.691-1.546c-20.571-8.878-41.673-15.708-63.979-18.951c-6.854-0.996-13.978-3.656-19.841-7.356
			c-34.19-21.579-68.756-17.409-103.457-2.138c-7.552,3.325-14.619,8.025-21.359,12.856c-9.388,6.732-15.23,16.018-16.242,27.764
			c-0.759,8.825-5.284,14.558-12.351,19.817c-19.519,14.521-36.034,31.865-45.937,54.611c-0.184,0.42-0.347,0.849-0.506,1.276
			c-0.265,0.714,1.505-0.6,3.978-2.909c11.718-10.946,23.827-21.317,37.703-29.592c13.59-8.103,27.589-10.494,41.938-2.534
			c12.844,7.124,25.573,14.521,37.903,22.485c4.415,2.852,7.854,7.467,11.167,11.722c6.638,8.531,13.027,17.255,19.837,26.442
			c2.011,2.718,0.942,5.309-2.399,5.822c-2.815,0.433-5.577,0.82-8.348,0.943c-7.968,0.351-10.473,2.925-9.628,10.946
			c0.077,0.742,0.273,1.477,0.526,2.35c0.372,1.281,2.876,0.719,5.614-1.261c0.58-0.42,1.159-0.836,1.738-1.256
			c2.737-1.979,7.12-1.673,10.437-1.037c5.402,1.032,11.812-0.559,17.332,1.8c3.109,1.326,2.142,3.635-1.236,3.717
			c-5.63,0.135-11.098,0.294-16.549,0.045c-6.964-0.314-7.907,0.191-8.604,7.381c-0.167,1.705-0.4,3.513-1.11,5.038
			c-0.836,1.8-1.024,3.334-0.645,4.651c0.734,2.546,3.888,2.534,4.88,1.318c0.607-0.747,1.22-1.465,1.885-2.126
			c10.481-10.416,24.643-6.279,37.026-9.176c1.257-0.294,2.852,1.016,4.325,1.456c15.011,4.497,29.968,9.177,45.076,13.301
			c2.529,0.69,5.227,0.764,8.201,0.779c3.378,0.021,3.982,1.824,1.351,3.946c-4.402,3.553-8.536,6.895-12.848,9.987
			c-1.216,0.873-3.676,0.326-5.487,0.013c-13.179-2.306-26.324-4.786-39.511-7.038c-2.448-0.421-5.108-0.466-7.528,0.021
			c-3.619,0.726-5.21,3.149-3.819,6.883c0.371,0.995,0.779,1.975,1.208,2.962c0.702,1.624,3.893,2.13,7.136,1.188
			c3.533-1.028,7.07-1.686,10.579-0.204c3.113,1.313,2.134,3.818-1.236,4.063c-4.549,0.335-9.099,0.669-13.648,0.935
			c-5.418,0.318-9.592,3.696-10.265,8.522c-0.433,3.113,0.592,6.406,2.603,8.932c2.109,2.64,4.28,2.443,3.566,1.004
			c-0.714-1.437,0.865-3.424,3.525-4.439s3.917-3.28,2.799-5.06c-1.114-1.782,0.53-2.868,3.684-2.415
			c2.023,0.29,3.88,0.519,5.736,0.563c3.701,0.094,7.45-0.184,11.122-0.702c2.644-0.371,5.268-0.877,7.907-1.298
			c3.337-0.53,3.88,0.923,1.31,3.117c-8.323,7.116-9.935,11.519-6.654,19.413c1.297,3.121,6.291,5.23,7.397,2.036
			c0.298-0.857,0.367-1.808,0.338-2.812c-0.102-3.378,1.522-6.312,3.925-6.593c1.489-0.176,2.929-0.416,4.268-0.935
			c5.137-1.987,10.371-4.052,15.002-6.973c15.084-9.519,27.112-8.356,38.344,3.998c2.272,2.501,4.957,3.864,6.295,2.787
			c1.338-1.081,1.375-3.187,0.065-4.692c-0.795-0.918-1.628-1.799-2.57-2.525c-5.019-3.859-10.559-7.091-15.271-11.269
			c-4.321-3.832-2.962-8.409,2.236-11.135c3.717-1.95,7.001-4.766,10.771-6.581c5.691-2.737,11.436-5.912,17.52-7.164
			c11.832-2.432,22.974-5.423,33.562-12.032c20.184-12.607,41.102-12.917,62.195-0.612c23.623,13.782,47.605,26.924,74.391,33.971
			c10.371,2.729,21.049,4.365,30.792,0.277c7.621-3.199,14.88-6.479,23.142-7.846c4.627-0.768,6.516-2.856,6.744-7.475
			c0.167-3.375,2.289-5.402,5.557-4.546c6.438,1.682,12.86,3.297,19.303,4.501c3.321,0.62,8.658,1.815,11.959,2.558
			c8.457,1.901,17.201,2.485,25.993,1.669c1.897-0.176,3.256-1.697,2.819-3.651C586.11,366.14,578.285,364.928,574.123,361.363z"/>
	</g>
</g>
<g>
</g>
<g>
</g>
<g>
</g>
<g>
</g>
<g>
</g>
<g>
</g>
<g>
</g>
<g>
</g>
<g>
</g>
<g>
</g>
<g>
</g>
<g>
</g>
<g>
</g>
<g>
</g>
<g>
</g>
</svg>
