<?xml version="1.0" encoding="iso-8859-1"?>
<!-- Generator: Adobe Illustrator 16.0.0, SVG Export Plug-In . SVG Version: 6.00 Build 0)  -->
<!DOCTYPE svg PUBLIC "-//W3C//DTD SVG 1.1//EN" "http://www.w3.org/Graphics/SVG/1.1/DTD/svg11.dtd">
<svg version="1.1" id="Capa_1" xmlns="http://www.w3.org/2000/svg" xmlns:xlink="http://www.w3.org/1999/xlink" x="0px" y="0px"
	 width="572.31px" height="572.31px" viewBox="0 0 572.31 572.31" style="enable-background:new 0 0 572.31 572.31;"
	 xml:space="preserve">
<g>
	<g>
		<path d="M65.51,22.032c11.273,4.619,22.432,9.567,33.929,13.545c5.969,2.064,12.627,2.113,18.972,3.109
			c1.105,0.171,2.407,0.216,3.239,0.833c12.464,9.18,27.683,15.361,35.304,29.918c3.276,6.255,5.096,13.444,6.573,20.42
			c1.256,5.937-2.224,11.028-6.051,15.202c-5.329,5.806-11.2,11.122-16.879,16.605c-6.765,6.532-12.62,13.725-15.896,22.24
			c-0.383,1-1.077,2.579-1.538,3.545c-2.085,4.366-3.264,9.221-3.264,14.317c0,1.285,0.082,2.55,0.232,3.794
			c0.13,1.061,0.179,2.778,0.053,3.839c-0.082,0.689-0.163,1.383-0.245,2.072c-0.123,1.061-0.571,2.717-0.942,3.725
			c-0.575,1.571-1.024,3.166-1.306,4.753c-0.188,1.053-0.461,2.766-0.641,3.819c-0.665,3.852-0.693,7.813,0.106,11.489
			c0.229,1.044,0.27,2.713,0.074,3.766c-0.902,4.811-0.698,9.833,0.885,14.717c0.069,0.216,0.139,0.428,0.208,0.645
			c0.114,0.355,0.27,1.069,0.347,1.595c0.078,0.526,0.164,1.82,0.192,2.889c0.102,3.839,0.27,7.683,0.53,11.522
			c0.874,12.844,2.416,25.655,4.594,38.364c0.767,6.018,1.791,12.012,2.889,17.993c0.11,0.595,0.31,1.171,0.567,1.742
			c0.417,0.928,1.049,2.469,1.293,3.51c0.739,3.121,1.51,6.238,2.334,9.338c2.105,11.176,4.986,22.143,9.91,32.518
			c0.727,1.531,1.465,3.057,2.199,4.586c8.311,21.322,18.764,41.805,31.432,60.965c6.887,10.412,14.268,20.533,22.081,30.318
			c2.358,3.293,4.77,6.543,7.299,9.697c5.504,6.863,11.416,13.398,17.348,19.924c0.718,0.791,1.661,2.223,2.125,3.186
			c3.084,6.426,6.879,12.559,12.31,17.021c1.514,1.244,3.06,2.445,4.631,3.586c0.865,0.629,1.75,1.285,1.962,1.486
			c0.13,0.117,0.257,0.236,0.388,0.359c5.165,5.344,10.926,10.146,17.005,14.602c0.861,0.633,0.702,1.135-0.367,1.131
			c-2.689-0.004-5.377,0.016-8.066,0.094c-14.557,0.404-28.67-2.473-42.86-5.15c-4.986-0.941-10.282-0.439-15.418-0.219
			c-1.607,0.068-3.312,1.174-4.659,2.211c-0.555,0.428-0.526,2.004-0.265,2.908c0.114,0.396,1.501,0.592,2.305,0.572
			c0.885-0.021,1.771-0.119,2.656-0.229c1.061-0.131,2.077,0.037,2.269,0.375c0.191,0.338-0.306,1.184-1.106,1.893
			c-0.624,0.555-1.265,1.094-1.966,1.521c-2.419,1.482-5.08,2.592-7.369,4.236c-0.461,0.33-0.71,0.959-0.914,1.652
			c-0.298,1.02,0.302,2.064,1.334,2.346c0.747,0.203,1.452,0.33,1.942,0.061c2.795-1.529,4.953-0.889,6.932,1.176
			c2.109,2.203,3.256,4.287-0.102,6.691c-1.184,0.844-1.906,2.338-3.122,4.354c-0.555,0.914-0.179,1.514,0.877,1.365
			c4.974-0.697,9.09-1.275,13.093-1.84c1.061-0.146,1.375,0.404,0.702,1.236c-1.346,1.666-2.562,3.17-3.741,4.631
			c-0.673,0.832-0.372,1.693,0.673,1.926c0.861,0.191,1.775,0.393,2.815,0.625c1.044,0.232,1.077,0.723,0.069,1.084
			c-3.19,1.16-6.279,2.229-9.27,3.525c-2.016,0.873-4.035,2.041-5.578,3.559c-0.424,0.416-0.506,1.176-0.53,2.004
			c-0.029,1.068,0.71,1.99,1.668,2.051c0.6,0.037,1.188,0.037,1.726-0.121c7.65-2.277,14.635-1.199,20.914,3.834
			c3.521,2.824,7.213,5.48,10.445,8.605c1,0.967,1.668,2.281,2.191,3.41c0.445,0.971,0.322,2.465-0.294,3.338
			c-1.028,1.457-1.921,2.725-2.778,3.938c-0.616,0.873-0.383,2.049,0.518,2.623c0.522,0.33,1.049,0.67,1.6,1.016
			c0.901,0.576,2.011,0.254,2.631-0.619c3.468-4.9,9.131-5.365,14.019-6.557c8.417-2.057,15.169-6.803,22.272-11.217
			c7.201-4.479,14.509-8.865,22.102-12.619c5.036-2.488,10.486-3.781,16.451-3.781c4.558,0,9.078-2.645,13.692-3.799
			c2.306-0.576,4.811-0.307,7.186-0.678c3.211-0.502,6.394-1.305,9.592-1.836c1.057-0.176,2.771-0.113,3.823,0.068
			c15.382,2.689,31.306,2.473,46.345-0.68c1.049-0.221,2.762-0.416,3.831-0.422c15.435-0.064,32.154-0.061,36.871,0.225
			c0.592,0.037,2.235,0.318,3.558,0.43c1.064,0.09,2.705-0.18,3.773-0.176c2.767,0.012,5.599-0.16,8.07,0.705
			c8.903,3.113,18.051,2.535,27.157,2.738c1.068,0.023,1.913,0.078,1.881,0.105c-0.033,0.029,0.774-0.203,1.791-0.543
			c2.885-0.963,5.748-2.047,8.711-2.48c5.259-0.766,10.62-0.859,15.94-1.203c4.174-0.27,8.348-0.656,12.521-0.656
			c4.3-0.004-41.648-16.047-64.595-40.861c-4.798-5.186-10.519-9.531-15.435-14.627c-2.248-2.33-4.101-5.41-5.141-8.482
			c-6.732-19.926-12.501-40.209-19.968-59.85c-5.288-13.904-12.117-27.336-19.384-40.348c-12.93-23.158-26.521-45.957-40.213-68.678
			c-8.05-13.354-15.879-27.018-25.504-39.205c-14.635-18.535-30.086-36.602-51.686-47.838
			c-16.275-8.466-32.383-17.258-48.723-25.594c-12.828-6.544-16.659-22.265-9.184-34.807c10.114-16.969,20.216-34.047,28.715-51.853
			c15.729-32.966-1-68.752-28.185-83.44c-8.87-4.79-17.495-9.956-27.181-12.909C180.798,0.225,179.093,0,178.024,0h-6.781
			c-1.069,0-2.738,0.331-3.725,0.747c-6.605,2.766-13.174,5.635-19.861,8.176c-6.247,2.375-12.526,5.21-19.042,6.206
			c-7.887,1.204-16.042,0.543-24.068,0.943c-12.97,0.645-25.929,1.464-38.891,2.228c-1.069,0.061-1.934,0.763-1.934,1.567
			C63.714,20.653,64.518,21.628,65.51,22.032z M278.461,512.828c1.061,0.139,2.615,0.734,3.484,1.26
			c0.637,0.389,2.269,1.914,2.795,2.398c0.22,0.234,0.555,0.576,0.657,0.682c0.739,0.775,1.909,2.045,2.571,2.889
			c0.331,0.426,0.661,0.85,0.996,1.273c0.656,0.844,0.367,1.795-0.669,2.064c-14.036,3.676-43.641,3.867-64.175,0.281
			c-1.053-0.184-1.073-0.578-0.041-0.873c0.983-0.281,1.738-0.494,2.497-0.678c9.372-2.227,18.764-4.357,28.107-6.678
			C262.562,513.488,270.428,511.768,278.461,512.828z"/>
	</g>
</g>
<g>
</g>
<g>
</g>
<g>
</g>
<g>
</g>
<g>
</g>
<g>
</g>
<g>
</g>
<g>
</g>
<g>
</g>
<g>
</g>
<g>
</g>
<g>
</g>
<g>
</g>
<g>
</g>
<g>
</g>
</svg>
