<?xml version="1.0" encoding="iso-8859-1"?>
<!-- Generator: Adobe Illustrator 16.0.0, SVG Export Plug-In . SVG Version: 6.00 Build 0)  -->
<!DOCTYPE svg PUBLIC "-//W3C//DTD SVG 1.1//EN" "http://www.w3.org/Graphics/SVG/1.1/DTD/svg11.dtd">
<svg version="1.1" id="Capa_1" xmlns="http://www.w3.org/2000/svg" xmlns:xlink="http://www.w3.org/1999/xlink" x="0px" y="0px"
	 width="563.885px" height="563.885px" viewBox="0 0 563.885 563.885" style="enable-background:new 0 0 563.885 563.885;"
	 xml:space="preserve">
<g>
	<g>
		<path d="M495.577,400.345c-9.979-2.986-19.723-6.862-29.376-10.824c-12.432-5.1-25.271-7.711-38.629-6.744
			c-7.308,0.53-13.016-0.289-15.627-8.335c-0.746-2.297-2.676-4.525-4.635-6.055c-4.659-3.644-4.929-7.344-2.709-12.791
			c16.234-39.891,41.89-72.163,79.274-93.538c15.022-8.584,19.947-20,20.653-35.521c0.109-2.448,1.542-5.234,3.19-7.152
			c7.213-8.384,11.02-17.907,11.714-28.972c1.795-28.694-4.228-56.218-11.959-83.513c-0.669-2.367-1.942-4.562-2.934-6.834
			c-0.538-0.049-1.077-0.098-1.615-0.151c-1.673,4.586-3.35,9.172-5.153,14.109c-1.583-4.757-3.044-9.139-4.745-14.251
			c-8.723,6.108-9.629,14.855-11.62,23.986c-1.272-2.097-1.767-3.578-2.786-4.447c-1.967-1.681-4.762-4.626-6.247-4.133
			c-2.492,0.828-5.495,3.664-6.018,6.136c-1.146,5.418-0.873,11.138-1.158,16.34c-3.22-3.578-6.508-7.948-10.563-11.432
			c-1.836-1.579-6.047-2.713-7.613-1.677c-1.759,1.167-2.142,4.969-2.383,7.691c-0.2,2.256,0.673,4.606,1.236,7.907
			c-3.762-2.599-6.594-4.77-9.629-6.609c-6.777-4.104-9.69-2.729-11.388,5.165c-0.154,0.71-0.31,1.424-0.456,2.101
			c-9.837,1.416-11.841,3.027-13.893,11.314c-6.06,0.514-10.8,2.799-11.763,9.776c-0.11,0.808-1.682,1.905-2.677,2.028
			c-7.005,0.861-8.185,6.291-10.767,10.714c-2.31,2.835-4.603,5.688-6.944,8.499c-0.645,0.775-1.318,1.828-2.171,2.073
			c-5.598,1.607-7.426,4.917-4.712,10.518c-4.758,2.159-12.122,0.836-11.648,9.376c-2.199,0.437-4.501,0.481-6.431,1.351
			c-7.091,3.187-15.153,5.447-20.657,10.461c-3.215,2.93-6.65,4.753-9.955,7.156c-1.848,1.347-2.64,4.146-3.297,6.781
			c-4.41,2.224-9.906,3.133-10.942,10.057c-0.204,1.346-3.981,2.146-6.1,3.219c-1.632,0.828-3.337,1.546-4.843,2.562
			c-2.88,1.938-5.427,4.08-0.559,6.801c-3.346,2.167-6.646,3.787-9.295,6.137c-4.32,3.839-1.068,6.267,2.767,8.551
			c-2.758,1.754-5.153,3.305-7.577,4.819c-3.484,2.179-6.234,4.259-5.757,9.433c0.449,4.839-3.468,7.16-8.564,6.047
			c-8.425-1.84-16.765-4.153-25.243-5.684c-9.523-1.718-16.508-6.916-21.702-14.66c-5.414-8.074-10.388-16.442-15.655-24.614
			c-1.424-2.211-3.219-4.186-5.492-5.92c-1.106,11.453,3.459,20.853,9.625,30.184c-9.017-6.165-18.034-12.326-27.05-18.491
			c-0.44,0.567-0.877,1.13-1.318,1.697c5.288,4.745,10.575,9.494,15.859,14.239c-17.915-5.071-34.325-16.063-54.525-11.505
			c10.698,8.254,21.012,16.214,31.085,23.986c-0.816,3.782-2.04,7.209-2.138,10.669c-0.069,2.505,1.473,5.026,2.057,7.597
			c0.273,1.195,0.021,2.521-0.078,3.782c-0.053,0.689-0.514,1.917-0.404,1.962c5.165,2.122,1.395,8.491,5.349,11.285
			c0.616,0.438-0.13,2.518,0.188,3.726c0.542,2.048,1.236,4.125,2.35,5.884c0.204,0.322,2.685-1.041,4.169-1.245
			c3.113-0.42,6.263-0.587,9.396-0.856c0.102,0.481,0.2,0.959,0.302,1.44c-1.436,0.24-2.941,0.293-4.296,0.771
			c-1.791,0.629-4.855,1.518-4.9,2.424c-0.102,1.938,1.073,4.178,2.285,5.896c3.252,4.627,6.806,9.041,10.233,13.546
			c0.331,0.437,0.542,1.012,0.955,1.33c3.827,2.941,7.858,5.65,11.477,8.829c2.056,1.803,3.464,4.354,5.166,6.561
			c-1.098,0.812-2.036,1.51-3.905,2.893c6.034,2.122,11.159,3.921,16.283,5.72c0.078,0.438,0.151,0.869,0.229,1.306
			c-1.848,0.359-3.684,0.935-5.549,1.037c-21.032,1.199-42.085,2.215-63.118,3.521c-2.301,0.143-4.472,1.934-6.765,2.795
			c-1.473,0.551-3.117,1.269-4.59,1.098c-21.869-2.534-43.726-5.189-65.578-7.875c-1.232-0.15-2.717-0.493-3.545-1.301
			c-7.426-7.23-17.581-7.801-26.683-10.751c-2.46-0.796-6.255,0.485-8.67,2.023c-4.92,3.13-9.005,1.706-13.187-0.991
			c-3.995-2.574-7.769-3.619-11.82,0.146c-0.926,0.861-3.162,0.771-4.664,0.466c-3.978-0.804-7.882-1.963-10.897-2.742
			c-1.383,1.686-2.138,2.599-3.856,4.688c5.63,3.141,11.477,7.033,17.813,9.792c9.486,4.129,19.311,7.479,29.017,11.093
			c1.175,0.437,2.517,0.661,3.77,0.616c30.926-1.122,61.498,2.84,92.106,6.304c3.831,0.433,7.69,0.71,11.477,1.383
			c5.397,0.959,10.714,0.694,15.924,4.521c3.521,2.586,10.188,1.607,15.321,1.048c3.643-0.399,6.446-1.154,9.363,2.053
			c1.55,1.705,4.59,2.02,6.908,3.072c5.018,2.272,10.008,4.61,15.006,6.936c0.331,0.155,0.596,0.465,0.935,0.575
			c10.139,3.329,20.159,7.116,30.453,9.854c16.287,4.329,32.762,7.943,49.151,11.877c16.402,3.933,32.632,8.066,49.887,7.352
			c8.522-0.351,17.499,1.828,25.712,4.546c9.869,3.264,18.951,8.841,28.735,12.443c8.535,3.146,17.512,5.186,26.418,7.173
			c2.444,0.543,5.402-0.62,7.977-1.456c2.774-0.902,5.3-2.575,8.066-3.505c9-3.027,15.32-8.377,16.74-18.295
			c0.102-0.714,0.485-1.383,0.722-2.077c3.774-11.044,3.774-11.044-3.651-20.641c18.409,0.809,35.753,4.06,53.529,2.856
			c17.271-1.171,34.741,4.011,52.195,0.971c0.103-0.473,0.208-0.95,0.311-1.424c-1.926-0.804-3.794-1.819-5.79-2.383
			C537.255,412.113,516.32,406.547,495.577,400.345z"/>
	</g>
</g>
<g>
</g>
<g>
</g>
<g>
</g>
<g>
</g>
<g>
</g>
<g>
</g>
<g>
</g>
<g>
</g>
<g>
</g>
<g>
</g>
<g>
</g>
<g>
</g>
<g>
</g>
<g>
</g>
<g>
</g>
</svg>
