<?xml version="1.0" encoding="iso-8859-1"?>
<!-- Generator: Adobe Illustrator 16.0.0, SVG Export Plug-In . SVG Version: 6.00 Build 0)  -->
<!DOCTYPE svg PUBLIC "-//W3C//DTD SVG 1.1//EN" "http://www.w3.org/Graphics/SVG/1.1/DTD/svg11.dtd">
<svg version="1.1" id="Capa_1" xmlns="http://www.w3.org/2000/svg" xmlns:xlink="http://www.w3.org/1999/xlink" x="0px" y="0px"
	 width="572.694px" height="572.694px" viewBox="0 0 572.694 572.694" style="enable-background:new 0 0 572.694 572.694;"
	 xml:space="preserve">
<g>
	<g>
		<path d="M6.178,405.615c5.639,4.541,5.589,5.394-0.641,9.147c-0.424,0.253-0.845,0.515-1.559,0.959
			c-0.861,0.53-0.542,1.313,0.706,1.742c4.737,1.636,9.131,3.153,14.443,4.985c1.249,0.433,1.501,1.534,0.559,2.461
			c-3.048,3.011-5.741,5.671-8.503,8.4c-0.938,0.93-0.648,1.877,0.653,2.117c6.593,1.229,13.174,2.497,19.78,3.623
			c27.85,4.766,55.737,9.323,83.562,14.235c21.167,3.737,42.383,7.03,63.677,9.674c-0.102,0.032-0.204,0.041-0.302,0.077
			c-4.77,1.604-38.364,4.239-43.913,1.954c-0.987-0.407-2.097-0.085-2.554,0.886c-0.277,0.588-0.542,1.154-0.808,1.714
			c-0.457,0.967-0.025,2.085,0.963,2.493c1.371,0.566,2.807,1.158,4.451,1.84c0.987,0.408,1.889,1.599,2.036,2.66
			c0.167,1.231,0.302,2.701-0.024,4.056c-1.061,4.369-2.758,8.588-4.223,12.855c-2.611,7.613-7.94,12.257-15.618,14.423
			c-0.543,0.155-1.041,0.465-1.526,0.82c-0.779,0.567-0.91,1.738-0.314,2.627c0.457,0.686,0.938,1.286,1.518,1.408
			c2.113,0.457,4.447,0.363,6.618,0.024c3.219-0.502,6.401-1.249,9.718-1.979c1.045-0.229,1.281,0.204,0.522,0.954
			c-0.755,0.751-1.42,1.412-2.048,2.032c-0.759,0.755-0.555,1.645,0.461,1.987c1.779,0.604,3.61,1.224,5.638,1.913
			c1.012,0.343,1.044,0.979,0.069,1.42c-3.684,1.665-7.474,3.378-12.048,5.446c-0.975,0.441-0.971,1.146-0.012,1.624
			c2.105,1.053,3.513,1.926,4.965,2.012c0,0,9.743,20.575,95.79-39.372c24.268-3.64,47.903-9.314,70.98-17.042h9.127
			c10.665-1.004,21.342-1.938,31.999-3.02c40.637-4.125,80.082-13.158,118.051-28.421c15.092-6.067,26.047-20.629,22.832-38.107
			c-4.28-23.284-11.828-45.398-22.624-66.442c-14.994-29.226-30.27-58.316-44.61-87.859c-2.938-6.05-2.313-13.839-3.215-20.84
			c-0.041-0.31,0.232-0.661,0.579-1.057c0.453-0.514,1.774-0.502,2.979,0.041c0.24,0.106,0.481,0.216,0.722,0.327
			c1.204,0.542,2.456-0.053,2.787-1.33c0.938-3.656,1.778-7.168,2.885-10.596c2.803-8.703,5.585-17.422,8.845-25.953
			c1.167-3.056,3.081-6.544,5.688-8.209c11.796-7.536,23.95-14.504,38.851-12.934c7.919,0.833,15.858,1.518,23.77,2.444
			c24.088,2.811,47.985,8.262,72.461,5.582c1.313-0.143,2.374-0.555,2.374-0.885s-0.999-0.983-2.235-1.457
			c-15.74-6.059-31.461-12.179-47.251-18.107c-5.956-2.236-12.113-3.934-18.168-5.904c-16.067-5.227-26.94-16.234-35.019-30.702
			c-3.565-6.385-7.193-13.301-12.521-18.017c-9.751-8.629-10.942-18.797-8.968-30.38c0.339-1.987,0.657-3.974,1.085-6.618
			c0.213-1.306-0.338-1.571-1.228-0.596c-1.604,1.758-2.971,3.256-4.264,4.676c-0.89,0.975-2.04,1.616-2.566,1.424
			s-0.82-1.408-0.653-2.717c0.571-4.492,1.159-9.103,1.845-14.521c0.167-1.31-0.159-1.408-0.727-0.212
			c-1.595,3.35-2.954,6.206-4.268,8.964c-0.567,1.191-1.456,2.117-1.982,2.064c-0.526-0.053-0.894-1.167-0.816-2.485
			c0.216-3.746,0.44-7.593,0.693-12.016c0.078-1.318-0.281-1.403-0.795-0.184c-2.828,6.667-5.402,12.726-7.944,18.723
			c-0.518,1.216-1.163,2.195-1.44,2.187c-0.281-0.008-0.506-1.085-0.506-2.407V51.83c0-1.322-0.416-1.408-0.93-0.188
			c-0.669,1.583-1.322,3.125-2.13,5.035c-0.514,1.216-1.18,1.163-1.485-0.122c-0.384-1.604-0.706-2.966-1.081-4.541
			c-0.306-1.285-0.979-1.347-1.51-0.135c-1.232,2.832-2.31,5.3-3.513,8.07c-0.526,1.211-1.375,1.208-1.889-0.008
			c-0.878-2.064-1.742-4.104-2.656-6.255c-0.519-1.216-1.429-1.252-2.036-0.077c-0.318,0.616-0.661,1.273-1.053,2.028
			c-0.607,1.171-1.521,1.138-2.04-0.078c-0.926-2.17-1.726-4.047-2.55-5.981c-0.519-1.216-1.171-1.154-1.457,0.135
			c-0.269,1.22-0.538,2.44-0.856,3.872c-0.285,1.289-1.203,1.514-2.048,0.498c-1.33-1.599-2.493-2.999-3.758-4.517
			c-0.845-1.016-1.343-0.783-1.114,0.518c0.494,2.791,0.938,5.296,1.367,7.732c0.229,1.301,0.176,2.472-0.127,2.619
			c-0.298,0.147-1.28-0.51-2.199-1.46c-4.61-4.814-9.225-9.625-13.835-14.439c-0.914-0.955-1.853-1.595-2.093-1.432
			c-0.241,0.163-0.086,1.305,0.351,2.55c0.616,1.771,1.269,3.639,2.04,5.843c0.437,1.248-0.171,1.783-1.354,1.195
			c-1.102-0.547-2.081-1.028-3.097-1.534c-1.184-0.587-1.624-0.126-0.979,1.028c0.425,0.763,0.824,1.481,1.212,2.17
			c0.645,1.155,1.016,2.416,0.837,2.811c-0.18,0.4-1.318,0.314-2.538-0.188c-5.459-2.252-10.963-4.521-16.822-6.936
			c-1.22-0.502-1.595-0.037-0.836,1.044c0.767,1.093,1.534,2.183,2.464,3.509c0.759,1.081,0.343,1.677-0.93,1.326
			c-4.256-1.167-7.776-2.134-11.163-3.06c-1.272-0.351-2.419-0.465-2.562-0.257c-0.143,0.208,0.584,1.044,1.62,1.865
			c0.983,0.783,2.036,1.616,3.248,2.583c1.036,0.824,0.799,1.489-0.522,1.489h-10.637c-1.322,0-1.428,0.465-0.236,1.041
			c3.949,1.909,7.226,3.492,10.371,5.014c1.191,0.575,2.072,1.302,1.971,1.624c-0.103,0.322-1.24,0.42-2.546,0.216
			c-2.901-0.445-5.855-0.902-9.086-1.4c-1.306-0.2-1.519,0.29-0.47,1.098c0.669,0.519,1.313,1.012,1.971,1.522
			c1.049,0.808,0.869,1.767-0.399,2.146c-2.832,0.845-5.578,1.665-8.748,2.611c-1.265,0.379-1.313,1.126-0.11,1.665
			c6.463,2.889,12.224,5.394,17.896,8.086c8.735,4.142,9.355,6.646,3.048,14.248c-4.831,5.822-10.355,11.065-15.17,16.899
			c-20.261,24.545-24.268,52.13-14.378,81.918c1.787,5.377,5.039,10.351,8.119,15.194c2.555,4.015,5.663,7.724,8.857,11.269
			c9.58,10.625,14.962,22.701,17.585,37.046c2.987,16.336,9.185,32.073,13.701,48.152c3.818,13.591,7.262,27.287,10.779,40.959
			c0.343,1.326,0.358,2.738,0.465,4.831c0.065,1.317-0.771,1.84-1.913,1.175c-5.137-2.999-9.385-5.337-13.407-8.009
			c-15.524-10.322-31.755-19.16-49.996-23.615c-32.861-8.025-66.117-12.971-100.03-10.236c-20.433,1.647-39.608,8.788-58.642,15.858
			C119.467,341.4,84.098,357.295,50.94,377.883c-15.141,9.4-30.641,18.237-49.776,21.208c-1.305,0.204-1.55,1.023-0.542,1.876
			C2.727,402.747,4.432,404.208,6.178,405.615z"/>
	</g>
</g>
<g>
</g>
<g>
</g>
<g>
</g>
<g>
</g>
<g>
</g>
<g>
</g>
<g>
</g>
<g>
</g>
<g>
</g>
<g>
</g>
<g>
</g>
<g>
</g>
<g>
</g>
<g>
</g>
<g>
</g>
</svg>
