<?xml version="1.0" encoding="iso-8859-1"?>
<!-- Generator: Adobe Illustrator 16.0.0, SVG Export Plug-In . SVG Version: 6.00 Build 0)  -->
<!DOCTYPE svg PUBLIC "-//W3C//DTD SVG 1.1//EN" "http://www.w3.org/Graphics/SVG/1.1/DTD/svg11.dtd">
<svg version="1.1" id="Capa_1" xmlns="http://www.w3.org/2000/svg" xmlns:xlink="http://www.w3.org/1999/xlink" x="0px" y="0px"
	 width="570.766px" height="570.767px" viewBox="0 0 570.766 570.767" style="enable-background:new 0 0 570.766 570.767;"
	 xml:space="preserve">
<g>
	<g>
		<path d="M464.172,97.104c-9.515-1.428-19.368-1.338-29.025-0.91c-11.57,0.515-21.306-1.889-31.673-8.237
			c-29.809-18.254-62.412-12.212-77.45,25.088c-7.132,17.69-6.643,34.635,0.677,52.094c6.304,15.03,3.941,24.06-8.588,34.696
			c-2.448,2.08-4.908,4.189-7.401,6.263c-0.062-0.277-0.114-0.555-0.18-0.832c-0.926-7.12-3.011-14.179-6.092-20.825
			c-11.51-24.822-35.985-40.938-58.515-54.692c-8.298-5.626-16.744-11.032-25.329-16.193c-16.471-11.146-32.105-23.223-46.541-37.45
			c-11.697-11.526-22.391-24.06-32.024-37.356c-4.643-6.409-9.037-12.999-13.187-19.739c0.004-0.057,0.012-0.114,0.021-0.171
			c0.379-3.293-1.252-6.3-3.713-8.421c-1.481-4.113-3.146-8.36-5.598-10.2c-3.362-2.514-16.769,17.744-17.968,19.719
			c-3.072,5.047-5.463,10.489-7.287,16.104c-3.166-2.203-6.732-2.709-9.425,1.596c-1.958,3.129-2.122,6.417-1.803,9.824
			c-0.245,2.003,0.008,4.052,0.783,5.908c1.151,7.923,2.297,15.842,3.448,23.766c0.135,0.922,0.665,1.428,1.318,1.604
			c0,0.155,0.004,0.31,0.004,0.465c-1.762-1.954-3.521-3.908-5.284-5.863c-1.208-1.342-3.357-0.555-3.851,1.017
			c-7.267,23.162,0.942,42.636,14.027,59.878c0.604,3.346,1.277,6.683,1.995,10.008c-0.379-0.15-0.759-0.232-1.143-0.277
			l-6.993-3.827c-1.587-0.869-4.219,0.604-3.382,2.604c7.218,17.287,15.904,33.823,25.961,49.474
			c0.322,0.828,0.673,1.641,1.003,2.465c-0.261-0.131-0.518-0.266-0.779-0.396c-0.955-0.486-1.999-0.384-2.791,0.358l-4.529,4.26
			c-0.755,0.71-0.869,1.918-0.359,2.791c6.161,10.648,14.443,19.706,24.183,26.736c1.913,3.537,3.937,7.087,6.042,10.632
			c-1.771-0.424-3.142,1.135-2.803,2.84c3.668,18.462,15.916,33.632,32.718,41.461c-0.045,0.033-0.09,0.062-0.131,0.094
			c-2.44-0.686-4.855-1.538-7.238-2.587c-2.395-1.057-4.545,1.551-2.791,3.619c12.342,14.549,27.83,25.631,45.354,32.652
			c-0.379,0.677-0.759,1.354-1.13,2.027c-3.37,1.27-6.74,2.538-10.11,3.811c-1.424,0.535-2.518,2.673-1.016,3.852
			c1.669,1.311,3.382,2.53,5.141,3.673c-18.947,37.36-27.005,68.315-27.005,68.315c-10.257,32.656-18.344,65.989-28.384,98.715
			c-5.37,17.499-12.84,34.358-19.678,52.33c1.836,0.253,3.223,0.882,4.276,0.522c11.714-3.978,23.664-7.45,34.961-12.403
			c10.159-4.455,19.14-11.934,31.13-10.864c3.231,0.285,7.222,0.354,9.438,2.219c9.755,8.201,21.212,9.593,33.076,9.074
			c16.063-0.697,29.931,4.382,43.036,13.407c9.008,6.205,18.87,11.244,28.629,16.259c3.158,1.624,7.205,1.518,13.436,2.692
			c-2.542-5.189-4.398-8.988-6.43-13.134c7.499-8.494,11.317-9.861,19.641-6.45c2.228-7.181,2.228-7.181-11.497-16.075
			c3.554-5.377,2.321-9.543-3.994-10.95c-4.382-0.979-9.078-0.734-13.632-0.702c-6.385,0.049-12.766,0.522-19.151,0.608
			c-3.533,0.045-7.07-0.331-10.918-0.535c2.844-4.137,2.844-4.092,23.22-4.924c8.286-0.339,16.568-0.927,25.81-1.461
			c-1.693-2.664-2.852-4.492-4.614-7.263c4.247-0.461,8.078-0.881,12.656-1.379c-0.812-1.575-1.139-3.451-2.077-3.839
			c-9.331-3.84-18.764-7.438-29.188-11.498c3.22-5.128,6.451-11.726,10.976-17.263c28.479-34.859,58.854-68.445,79.209-109.029
			c6.875-13.709,10.159-29.262,14.733-44.076c10.399-33.677,14.349-68.405,15.785-103.437c0.702-17.103-6.401-32.432-12.975-47.739
			c-1.514-3.525-4.227-7.022-4.288-10.571c-0.09-5.251-0.098-12.249,3.007-15.492c11.127-11.62,24.611-19.299,41.788-16.071
			c15.365,2.889,30.669,6.476,45.957-0.652c1.632-0.759,4.206,0.506,6.344,0.832C492.162,113.342,480.178,99.503,464.172,97.104z"/>
	</g>
</g>
<g>
</g>
<g>
</g>
<g>
</g>
<g>
</g>
<g>
</g>
<g>
</g>
<g>
</g>
<g>
</g>
<g>
</g>
<g>
</g>
<g>
</g>
<g>
</g>
<g>
</g>
<g>
</g>
<g>
</g>
</svg>
