<?xml version="1.0" encoding="iso-8859-1"?>
<!-- Generator: Adobe Illustrator 16.0.0, SVG Export Plug-In . SVG Version: 6.00 Build 0)  -->
<!DOCTYPE svg PUBLIC "-//W3C//DTD SVG 1.1//EN" "http://www.w3.org/Graphics/SVG/1.1/DTD/svg11.dtd">
<svg version="1.1" id="Capa_1" xmlns="http://www.w3.org/2000/svg" xmlns:xlink="http://www.w3.org/1999/xlink" x="0px" y="0px"
	 width="573.384px" height="573.383px" viewBox="0 0 573.384 573.383" style="enable-background:new 0 0 573.384 573.383;"
	 xml:space="preserve">
<g>
	<g>
		<path d="M573.367,111.899c-10.562,4.039-21.216,7.862-31.669,12.166c-16.051,6.614-31.971,13.542-47.919,20.392
			c-3.582,1.538-7.124,3.211-10.584,5.014c-23.035,11.995-45.899,24.313-69.099,35.986c-20.824,10.478-42.154,19.943-62.975,30.424
			c-26.112,13.146-51.89,26.957-77.924,40.266c-4.418,2.261-9.311,4.472-14.141,4.872c-10.804,0.897-21.706,0.791-32.566,0.75
			c-2.774-0.012-5.933-0.677-8.242-2.121c-8.005-4.998-15.573-10.698-23.579-15.704c-9.021-5.639-18.878-9.454-29.192-12.154
			c-7.266-1.905-14.7-3.574-21.575-6.487c-12.869-5.451-25.431-11.632-38.026-17.707c-5.892-2.84-11.583-6.1-17.328-9.245
			c-4.778-2.62-6.846-7.148-7.246-12.183c-1.249-15.696-2.436-31.412-3.093-47.14c-0.359-8.581-2.774-16.447-6.238-24.04
			c0.836-0.669,1.669-1.338,2.501-2.003c1.028-0.824,0.812-1.958,0.082-2.676c-0.323-0.469-0.833-0.824-1.563-0.853
			c-3.056-0.122-6.107-0.245-9.164-0.367c-4.288-0.955-8.633-1.685-12.958-2.501H37.219c-6.699,1.392-12.097,5.259-17.613,9.005
			c-2.558,1.738-5.7,2.603-8.311,4.284c-3.46,2.224-6.891,4.61-9.898,7.397c-2.125,1.971-1.93,4.631,1.314,5.472
			c4.345,1.126,8.861,1.583,13.244,2.603c2.215,0.514,4.765,1.114,6.356,2.562c14.113,12.868,18.083,27.642,10.306,44.966
			c-4.076,9.082-7.887,18.144-9.894,27.96c-3.142,15.353-3.297,30.865-2.88,46.394c0.445,16.663,4.512,32.392,13.798,46.476
			c4.027,6.107,8.323,12.044,12.371,18.14c7.817,11.771,17.919,20.645,31.914,23.938c12.318,2.9,18.748,12.391,25.688,21.448
			c3.725,4.859,6.932,10.159,10.975,14.721c3.476,3.925,4.957,8.152,3.292,12.84c-3.321,9.348-6.912,18.625-10.914,27.695
			c-3.386,7.679-4.01,7.56-12.134,6.128c-2.395-0.42-4.981-0.098-7.421,0.285c-0.788,0.123-1.375,1.519-2.057,2.33
			c0.812,0.661,1.53,1.628,2.46,1.905c1.436,0.433,3.011,0.392,4.525,0.551c-3.068,0.49-6.071,0.106-9.07,0.127
			c-6.912,0.045-13.864-0.139-20.714,0.591c-4.688,0.498-7.046,3.469-7.43,6.969h46.688c-2.611,3.248-4.59,5.357-6.12,7.757
			c-0.792,1.24-1.538,3.537-0.938,4.386c0.804,1.134,3.06,1.995,4.464,1.738c1.542-0.286,3.104-1.755,4.166-3.097
			c1.938-2.456,3.292-5.382,5.304-7.765c1.962-2.321,4.582-3.183,7.332-0.935c1.734,1.416,3.611,1.229,4.508-0.542
			c0.783-1.538,1.265-3.909,0.608-5.325c-0.677-1.46-3.003-2.076-4.374-3.32c-0.853-0.771-1.75-2.004-1.779-3.048
			c-0.033-1.44,0.587-2.963,1.191-4.338c5.006-11.428,10-22.859,15.19-34.202c0.767-1.677,2.407-3.048,3.872-4.292
			c1.958-1.661,3.476-3.183,2.232-6.071c-0.988-2.289-1.779-4.717-2.252-7.16c-0.481-2.477-0.465-5.051-0.718-8.233
			c9.257,1.909,17.25,4.357,24.411,9.021c9.029,5.875,16.524,13.284,23.913,21.216c9.935,10.661,17.552,21.951,20.441,36.292
			c0.93,4.618-0.098,6.504-4.827,7.389c-3.468,0.648-7.009,0.935-10.457,1.665c-0.992,0.212-1.775,1.407-2.652,2.149
			c1.003,0.775,1.905,1.987,3.027,2.249c3.778,0.881,7.629,1.428,12.754,2.333c-3.166,2.321-5.275,4.211-7.691,5.562
			c-4.619,2.582-9.433,4.806-14.113,7.278c-1.812,0.959-3.578,2.134-2.55,4.721h7.585c5.153-2.007,10.245-4.187,15.475-5.969
			c5.047-1.722,8.03-5.565,10.694-9.719c1.599-2.489,3.142-3.052,5.438-1.098c1.73,1.469,3.362,3.104,5.268,4.301
			c2.378,1.489,4.924,2.758,7.523,3.831c1.938,0.8,4.671,1.02,5.063-1.424c0.306-1.91-0.722-4.782-2.179-6.071
			c-3.239-2.868-7.115-5.006-10.897-7.552c0.126-0.393,0.139-0.988,0.44-1.273c3.456-3.28,3.346-4.296-0.832-6.622
			c-0.331-0.184-0.665-0.452-1.016-0.489c-6.618-0.702-6.708-5.899-7.613-10.727c-1.318-7.042-3.097-14.002-4.284-21.069
			c-0.42-2.497-0.2-5.365,0.624-7.756c1.571-4.541-0.016-7.813-2.473-11.538c-3.223-4.888-5.675-10.298-8.156-15.631
			c-0.326-0.701,0.955-3.039,1.844-3.271c7.356-1.926,12.828-6.688,18.352-11.478c1.085-0.938,2.677-1.538,4.121-1.763
			c2.974-0.461,6.087-0.208,8.984-0.905c3.268-0.783,6.177-2.351,5.953-6.654c-0.049-0.968,0.702-2.195,1.444-2.946
			c4.108-4.137,7.841-8.323,14.32-9.62c5.321-1.065,6.863-2.461,7.091-10.539c2.432-0.347,5.732,0.388,5.573-4.007
			c-0.021-0.497,3.321-0.934,4.941-1.726c1.599-0.779,2.999-1.975,4.488-2.986c-0.151-0.286-0.306-0.575-0.457-0.861
			c2.941-0.869,5.916-1.644,8.821-2.627c2.783-0.938,5.573-1.93,8.225-3.187c3.606-1.71,7.038-3.795,10.633-5.524
			c2.138-1.028,4.442-1.71,6.687-2.514c2.473-0.885,4.962-1.733,8.467-2.954c-2.105-0.84-3.252-1.297-5.137-2.052
			c2.799-0.547,4.973-0.828,7.066-1.416c2.003-0.562,3.916-1.444,6.671-2.488c-1.555-0.927-2.285-1.358-3.13-1.86
			c0.408-0.348,0.759-0.706,1.163-0.979c2.301-1.542,4.517-3.252,6.952-4.549c0.783-0.417,1.358-0.854,1.742-1.311
			c0.277,0.065,0.563,0.131,0.856,0.188c1.135,0.236,2.358,0.416,3.636,0.502c1.281,0.094,2.615,0.089,3.974-0.11
			c1.358-0.2,2.729-0.641,4.121-1.126c1.392-0.49,2.803-0.972,4.23-1.339c2.856-0.726,5.708-1.489,8.373-2.276
			c1.33-0.404,2.619-0.779,3.835-1.167c1.22-0.384,2.37-0.747,3.436-1.081c1.064-0.331,2.035-0.673,2.896-0.955
			c0.86-0.285,1.615-0.538,2.231-0.763c1.236-0.429,1.938-0.693,1.938-0.693l-0.143-1.126c0,0-0.747-0.078-2.053-0.18
			c-0.652-0.058-1.444-0.114-2.35-0.172c-0.906-0.053-1.931-0.139-3.044-0.191c-1.114-0.053-2.317-0.114-3.595-0.176
			c-1.277-0.069-2.619-0.102-4.007-0.159c-0.306-0.008-0.624-0.016-0.934-0.024c0.452-0.154,0.905-0.313,1.362-0.448
			c1.265-0.376,2.534-0.73,3.778-1.122c0.028-0.008,0.057-0.021,0.086-0.028c0.432,0.102,0.881,0.199,1.342,0.277
			c1.032,0.184,2.138,0.31,3.284,0.334c1.146,0.033,2.347-0.016,3.538-0.294c1.195-0.265,2.387-0.767,3.586-1.317
			s2.419-1.098,3.664-1.542c1.24-0.445,2.488-0.873,3.704-1.33c1.221-0.44,2.416-0.922,3.57-1.383
			c1.15-0.482,2.269-0.931,3.321-1.388c1.068-0.469,2.076-0.91,3.011-1.317c0.938-0.412,1.779-0.829,2.521-1.176
			c0.755-0.334,1.358-0.686,1.864-0.975c1.017-0.563,1.592-0.906,1.592-0.906l-0.343-1.085c0,0-0.678,0.013-1.856,0.065
			c-0.592,0.016-1.31,0.073-2.109,0.061c-0.804,0.009-1.71-0.004-2.673,0.017c-0.975,0.017-2.031,0.033-3.146,0.049
			c-0.999,0.005-2.04,0.041-3.113,0.065c0.829-0.408,1.661-0.8,2.506-1.167c3.398-1.465,6.784-2.962,9.942-4.427
			s6.088-2.876,8.604-4.072c1.257-0.608,2.407-1.163,3.428-1.656c1.008-0.478,1.942-0.935,2.607-1.269
			c0.681-0.331,1.211-0.62,1.628-0.787c0.416-0.167,0.636-0.257,0.636-0.257l-0.061-0.567l-0.062-0.567c0,0-0.229,0.008-0.661,0.021
			c-0.429,0.008-1.105,0.106-1.982,0.2c-0.886,0.102-1.82,0.233-2.971,0.392c-1.13,0.163-2.403,0.338-3.786,0.559
			c-1.081,0.176-2.231,0.367-3.439,0.563c1.432-0.844,2.885-1.689,4.378-2.436c3.309-1.657,6.609-3.341,9.678-4.982
			c3.068-1.64,5.912-3.219,8.36-4.553c1.22-0.677,2.338-1.297,3.325-1.848c0.979-0.534,1.885-1.041,2.529-1.416
			c0.661-0.367,1.175-0.689,1.583-0.877c0.404-0.191,0.62-0.293,0.62-0.293l-0.184-1.122c0,0-0.229,0.02-0.657,0.057
			c-0.424,0.033-1.102,0.167-1.966,0.314c-0.196,0.033-0.4,0.069-0.604,0.106c0.082-0.028,0.168-0.061,0.245-0.085
			c0.771-0.277,1.477-0.571,2.105-0.824c0.628-0.253,1.175-0.485,1.624-0.702c0.452-0.216,0.787-0.375,1.126-0.555
			c0.159-0.082,0.22-0.143,0.273-0.184c0.049-0.041,0.077-0.065,0.077-0.065l-0.355-0.8c0.233-0.086,0.466-0.167,0.702-0.241
			c1.021-0.331,2.048-0.641,3.052-0.996c1.008-0.334,1.991-0.706,2.941-1.057c0.951-0.375,1.869-0.718,2.738-1.085
			s1.688-0.71,2.443-1.032c0.759-0.318,1.444-0.657,2.057-0.942s1.143-0.551,1.579-0.792c0.44-0.241,0.767-0.42,1.094-0.62
			c0.154-0.09,0.212-0.155,0.261-0.2c0.049-0.044,0.073-0.069,0.073-0.069l-0.518-1.012c0,0-0.037,0.004-0.103,0.012
			c-0.065,0.008-0.176,0.033-0.261,0.004c-0.144-0.045-0.519-0.045-0.979-0.09c-0.935-0.086-2.269-0.208-3.872-0.355
			c-0.665-0.057-1.387-0.123-2.134-0.188c0.311-0.118,0.62-0.245,0.935-0.371c1.232-0.506,2.484-1.008,3.758-1.396
			c2.546-0.767,5.088-1.566,7.458-2.391c1.184-0.424,2.33-0.812,3.411-1.22c1.081-0.4,2.104-0.779,3.052-1.126
			c0.946-0.347,1.808-0.698,2.57-0.996c0.767-0.298,1.432-0.563,1.979-0.792c1.098-0.445,1.718-0.722,1.718-0.722l-0.18-1.122
			c0,0-0.677-0.065-1.856-0.151c-0.562-0.045-1.244-0.09-2.016-0.13c2.428-0.885,4.844-1.799,7.1-2.729
			c1.158-0.49,2.28-0.942,3.337-1.412c1.062-0.461,2.061-0.898,2.983-1.297c0.926-0.4,1.762-0.8,2.513-1.139
			c0.747-0.338,1.399-0.641,1.93-0.901c1.069-0.506,1.677-0.816,1.677-0.816l-0.24-1.109c0,0-0.682-0.029-1.864-0.045
			c-0.596-0.017-1.311-0.021-2.13-0.017c-0.82,0.004-1.751-0.012-2.759,0.008c-0.204,0.004-0.424,0.008-0.632,0.012
			c1.154-0.514,2.325-1.016,3.513-1.44c2.941-1.048,5.879-2.129,8.613-3.215c1.366-0.555,2.688-1.073,3.937-1.595
			c1.249-0.518,2.428-1.012,3.518-1.465c1.089-0.449,2.08-0.902,2.966-1.277c0.881-0.379,1.648-0.722,2.28-1.012
			c1.266-0.567,1.979-0.91,1.979-0.91l-0.257-1.11c0,0-0.796,0.008-2.18,0.053c-0.693,0.017-1.529,0.049-2.492,0.094
			c-0.959,0.049-2.049,0.078-3.228,0.155c-0.167,0.008-0.351,0.021-0.522,0.033c0.054-0.021,0.103-0.049,0.155-0.074
			c2.881-1.212,5.749-2.456,8.417-3.696c1.33-0.632,2.623-1.22,3.84-1.816c1.216-0.591,2.366-1.146,3.431-1.66
			c1.061-0.51,2.028-1.016,2.889-1.444c0.857-0.429,1.607-0.812,2.22-1.139c1.229-0.636,1.926-1.02,1.926-1.02l-0.318-1.093
			c0,0-0.791,0.053-2.171,0.175c-0.689,0.053-1.525,0.135-2.484,0.233c-0.783,0.082-1.66,0.163-2.599,0.265
			c1.746-0.6,3.464-1.208,5.1-1.824c1.285-0.498,2.534-0.955,3.709-1.428c1.175-0.465,2.289-0.906,3.317-1.313
			c1.027-0.404,1.962-0.812,2.794-1.151c0.833-0.343,1.555-0.648,2.15-0.914c1.191-0.514,1.869-0.824,1.869-0.824l-0.225-1.114
			c0,0-0.743-0.028-2.04-0.041c-0.648-0.012-1.437-0.016-2.334-0.012c-0.897,0.008-1.918-0.008-3.023,0.021
			c-1.105,0.02-2.301,0.045-3.565,0.069c-0.693,0.012-1.412,0.032-2.143,0.057c0.322-0.151,0.641-0.31,0.963-0.469
			c1.302-0.657,2.632-1.314,3.986-1.853c2.713-1.077,5.423-2.187,7.939-3.301c1.257-0.567,2.477-1.097,3.623-1.636
			c0.453-0.208,0.886-0.412,1.318-0.608c1.918-0.722,3.807-1.457,5.605-2.191c1.33-0.559,2.624-1.077,3.84-1.604
			c1.22-0.522,2.37-1.016,3.431-1.473c1.065-0.453,2.032-0.906,2.894-1.285c0.86-0.383,1.607-0.722,2.223-1.016
			c1.232-0.571,1.931-0.914,1.931-0.914l-0.266-1.106c0,0-0.779,0.008-2.134,0.057c-0.682,0.017-1.501,0.053-2.443,0.098
			c-0.938,0.049-2.008,0.085-3.158,0.163c-1.155,0.074-2.403,0.155-3.729,0.241c-1.321,0.082-2.713,0.2-4.153,0.306
			c-0.424,0.033-0.856,0.073-1.289,0.114c0.979-0.4,1.95-0.894,2.93-1.416c1.346-0.722,2.717-1.444,4.12-2.056
			c2.808-1.216,5.61-2.464,8.209-3.705c1.298-0.632,2.559-1.224,3.745-1.82c1.188-0.591,2.31-1.15,3.346-1.665
			c1.037-0.51,1.975-1.016,2.812-1.448c0.841-0.433,1.566-0.812,2.162-1.139c1.195-0.641,1.877-1.024,1.877-1.024l-0.326-1.089
			c0,0-0.779,0.053-2.13,0.18c-0.678,0.057-1.497,0.135-2.432,0.236c-0.935,0.102-1.999,0.196-3.146,0.339
			c-1.146,0.139-2.391,0.29-3.709,0.449c-1.004,0.118-2.052,0.261-3.125,0.404c8.735-6.308,17.63-12.395,26.446-18.588v-1.509
			H573.367z"/>
	</g>
</g>
<g>
</g>
<g>
</g>
<g>
</g>
<g>
</g>
<g>
</g>
<g>
</g>
<g>
</g>
<g>
</g>
<g>
</g>
<g>
</g>
<g>
</g>
<g>
</g>
<g>
</g>
<g>
</g>
<g>
</g>
</svg>
