<?xml version="1.0" encoding="iso-8859-1"?>
<!-- Generator: Adobe Illustrator 16.0.0, SVG Export Plug-In . SVG Version: 6.00 Build 0)  -->
<!DOCTYPE svg PUBLIC "-//W3C//DTD SVG 1.1//EN" "http://www.w3.org/Graphics/SVG/1.1/DTD/svg11.dtd">
<svg version="1.1" id="Capa_1" xmlns="http://www.w3.org/2000/svg" xmlns:xlink="http://www.w3.org/1999/xlink" x="0px" y="0px"
	 width="579.661px" height="579.662px" viewBox="0 0 579.661 579.662" style="enable-background:new 0 0 579.661 579.662;"
	 xml:space="preserve">
<g>
	<g>
		<path d="M102.542,472.874c-0.327,12.966,1.057,26.067,4.586,39.181c6.569,24.398,25.337,60.583,52.591,66.658
			c30.767,6.858,56.385-25.006,72.771-45.32c8.242-10.216,15.365-21.343,21.159-33.121c5.092-10.359,7.266-23.162,13.664-32.628
			c3.081,2.228,6.336,5.536,9.515,8.176c3.562,2.954,7.393,5.325,11.612,6.912v0.963c0.478-0.131,0.922-0.326,1.391-0.481
			c0.465,0.15,0.914,0.347,1.392,0.481v-0.963c4.219-1.587,8.049-3.958,11.612-6.912c3.178-2.635,6.434-5.944,9.514-8.176
			c6.402,9.466,8.572,22.269,13.664,32.628c5.789,11.778,12.918,22.905,21.16,33.121c16.385,20.314,42.002,52.179,72.77,45.32
			c27.256-6.075,46.023-42.26,52.592-66.658c3.529-13.113,4.912-26.215,4.586-39.181c-0.783-31.195-11.441-61.637-25.844-89.703
			c-1.766-3.439-1.59-6.274-0.154-9.371c4.488-9.694,8.977-19.389,13.645-28.997c1.664-3.423,3.088-6.977,6.613-9.339
			c0.127-0.086,0.244-0.18,0.363-0.277c0.273-0.151,0.533-0.343,0.771-0.584c0.627-0.628,0.963-1.448,1.016-2.284
			c0.457-1.771,0.166-3.815-0.832-5.488c-1.506-2.521-3.408-4.802-5.098-7.213c-1.146-1.632-2.605-2.175-4.635-2.093
			c-11.293,0.448-22.604,0.579-33.889,1.207c-5.047,0.281-10.105,1.22-14.789,3.677c-0.367-0.453-0.75-0.841-1.041-1.294
			c-5.895-9.045-11.232-18.731-17.74-27.336c-6.771-8.956-16.123-16.034-20.215-26.83c-5.709-15.063-4.693-33.35-9.021-49.209
			c5.08,0.89,9.91,1.575,14.672,2.599c10.102,2.175,20.139,4.794,29.812,8.458c9.662,3.66,16.441,10.367,26.377,5.423
			c26.867-13.375-28.936-57.691-39.629-69.246c-13.451-14.533-14.275-28.997-2.451-45.112c7.164-9.771,17.828-20.82,25.119-30.498
			c7.084-9.404,5.08-18.014,8.283-28.932c3.672-12.525,9.686-24.509,14.328-36.708c2.473-6.495,3.926-13.276,3.738-20.277
			c-3.135-1.257-3.191-1.277-4.346,1.693c-9.029,23.235-16.957,44.745-31.068,65.835c-11.625,17.372-24.873,33.566-38.385,49.486
			c-3.477,4.092-22.869,33.125-7.422,34.867c4.305,0.485,7.25,2.501,10.105,5.749c5.818,6.609,12.127,12.795,18.369,19.017
			c7.828,7.806,15.49,15.753,21.84,24.835c1.982,2.836,3.736,5.847,4.52,9.299c-0.473,0.489-0.922,0.999-1.342,1.538
			c-0.754-0.127-1.469-0.249-2.174-0.392c-10.996-2.24-21.625-5.741-31.824-10.307c-5.695-2.55-18.445-6.014-22.24-11.053
			c-1.91-2.533-2.803-5.667-3.66-8.719c-5.328-19.009-12.477-37.907-17.209-56.826c-2.6-12.199,12.33-25.708,13.732-38.78
			c1.016-9.462-1.811-19.751-9.113-25.847c-12.494-10.429-21.082,1.501-33.693,0.779c-1.068-7.879,5.586-15.643,2.619-23.044
			c-2.477,0.081-5.662,0.652-7.752,2.13c-2.143,1.514-3.33,4.373-4.938,6.646c-0.264-0.103-0.533-0.204-0.803-0.311
			c-8.033-3.113,6.527-43.366,8.588-49.687c-5.34-1.04-10.637,2.13-12.545,7.401c-1.062-7.267-5.48-5.268-7.953-1.897
			c-2.473-3.365-6.891-5.369-7.956,1.897c-2.179-6.018-6.585-7.874-12.611-7.752c3.484,16.769,7.466,33.19,8.662,50.054
			c-0.266,0.102-0.535,0.204-0.8,0.306c-1.607-2.272-2.795-5.133-4.937-6.646c-2.089-1.477-5.275-2.048-7.752-2.13
			c-2.966,7.401,3.685,15.166,2.62,23.044c-12.611,0.723-21.2-11.207-33.693-0.779c-7.303,6.096-10.13,16.386-9.115,25.847
			c1.404,13.073,16.336,26.582,13.733,38.781c-4.729,18.919-11.881,37.817-17.209,56.826c-0.857,3.056-1.75,6.185-3.66,8.719
			c-3.798,5.043-16.544,8.503-22.24,11.053c-10.2,4.565-20.828,8.066-31.824,10.306c-0.706,0.144-1.42,0.266-2.175,0.392
			c-0.42-0.538-0.869-1.048-1.342-1.538c0.779-3.447,2.538-6.463,4.521-9.298c6.353-9.082,14.011-17.03,21.84-24.835
			c6.242-6.223,12.55-12.411,18.368-19.017c2.86-3.248,5.806-5.264,10.106-5.749c15.443-1.742-3.945-30.775-7.421-34.868
			c-13.517-15.92-26.761-32.109-38.389-49.486C154.44,49.896,146.517,28.386,137.483,5.15c-1.154-2.974-1.211-2.949-4.345-1.692
			c-0.188,7.001,1.265,13.782,3.737,20.277c4.643,12.199,10.657,24.178,14.329,36.708c3.203,10.918,1.195,19.522,8.282,28.931
			c7.291,9.678,17.956,20.727,25.121,30.498c11.824,16.12,11,30.58-2.452,45.112c-10.693,11.555-66.496,55.868-39.629,69.246
			c9.939,4.949,16.716-1.763,26.377-5.422c9.673-3.664,19.71-6.283,29.812-8.458c4.761-1.024,9.596-1.71,14.671-2.599
			c-4.329,15.854-3.309,34.146-9.021,49.208c-4.092,10.796-13.448,17.875-20.217,26.831c-6.507,8.604-11.844,18.29-17.74,27.336
			c-0.293,0.448-0.673,0.84-1.04,1.293c-4.68-2.456-9.739-3.395-14.79-3.676c-11.286-0.629-22.595-0.759-33.889-1.208
			c-2.028-0.081-3.493,0.461-4.635,2.093c-1.689,2.412-3.595,4.692-5.096,7.214c-1,1.673-1.289,3.717-0.832,5.487
			c0.053,0.837,0.387,1.657,1.016,2.285c0.241,0.24,0.498,0.429,0.771,0.583c0.118,0.094,0.232,0.192,0.363,0.277
			c3.525,2.358,4.949,5.912,6.614,9.34c4.667,9.608,9.151,19.307,13.644,28.996c1.436,3.097,1.612,5.933-0.155,9.372
			C113.983,411.237,103.322,441.678,102.542,472.874z M446.336,330.016c0.215,4.207,2.57,6.504,5.348,8.675l-2.818,9.032
			c-2.604,6.472-5.242,13.023-7.969,19.797c-7.49-11.062-14.166-22.045-19.93-34.55
			C429.559,331.971,437.797,331.012,446.336,330.016z M133.318,330.016c8.54,0.996,16.777,1.955,25.374,2.958
			c-5.765,12.506-12.444,23.489-19.931,34.55c-0.457-1.13-0.898-2.228-1.347-3.346c-2.248-5.581-4.451-11.061-6.622-16.45
			l-2.819-9.033c2.676-2.093,4.92-4.342,5.271-8.271C133.252,330.274,133.31,330.167,133.318,330.016z"/>
	</g>
</g>
<g>
</g>
<g>
</g>
<g>
</g>
<g>
</g>
<g>
</g>
<g>
</g>
<g>
</g>
<g>
</g>
<g>
</g>
<g>
</g>
<g>
</g>
<g>
</g>
<g>
</g>
<g>
</g>
<g>
</g>
</svg>
