<?xml version="1.0" encoding="iso-8859-1"?>
<!-- Generator: Adobe Illustrator 16.0.0, SVG Export Plug-In . SVG Version: 6.00 Build 0)  -->
<!DOCTYPE svg PUBLIC "-//W3C//DTD SVG 1.1//EN" "http://www.w3.org/Graphics/SVG/1.1/DTD/svg11.dtd">
<svg version="1.1" id="Capa_1" xmlns="http://www.w3.org/2000/svg" xmlns:xlink="http://www.w3.org/1999/xlink" x="0px" y="0px"
	 width="592.574px" height="592.575px" viewBox="0 0 592.574 592.575" style="enable-background:new 0 0 592.574 592.575;"
	 xml:space="preserve">
<g>
	<g>
		<path d="M1.646,252.918c2.338,4.386,5.802,6.108,8.294,6.777c1.322,0.355,2.835,0.535,4.496,0.535
			c3.603,0,7.201-0.845,9.131-1.301c0.473-0.11,0.861-0.204,1.122-0.253c1.347-0.236,3.468,0.359,4.211,0.583
			c0.428,0.502,1.481,1.636,2.844,2.518c2.081,1.338,7.185,1.354,7.397,1.354c0.412,0,0.759-0.012,1.24-0.045
			c0.983,0,1.91,0.469,1.95,0.469c0.877,0.747,3.219,2.762,3.758,3.301c0.4,0.408,0.975,0.743,1.709,1.163
			c0.824,0.478,1.848,1.073,2.893,1.946c1.24,1.004,2.481,2.158,3.219,2.864c-0.575,0.812-1.228,2.134-0.743,3.533
			c0.751,2.113,4.366,7.858,4.525,8.111c1.289,1.983,5.022,6.397,7.629,9.482c2.395,2.909,4.537,5.026,7.911,7.821
			c1.55,1.27,3.958,3.023,6.288,4.721c2.742,1.999,5.577,4.067,6.683,5.1c2.044,1.938,7.499,6.814,9.099,8.14
			c1.289,1.11,3.493,2.779,4.162,3.276c0.547,1.069,2.921,5.704,3.872,7.287c0.995,1.686,2.623,3.436,5.112,5.496
			c1.4,1.171,5.21,3.415,9.629,6.014c2.362,1.392,4.827,2.836,6.981,4.166c3.484,2.149,8.001,4.447,11.983,6.471
			c2.917,1.485,5.435,2.766,6.851,3.64c3.37,2.064,9.563,5.246,9.625,5.246c0.424,0.363,1.865,1.559,2.819,1.82
			c0.469,0.139,0.759,0.159,0.967,0.171c0.176,0.013,0.249,0.017,0.535,0.139c0.453,0.196,1.51,0.882,2.26,1.396
			c0.118,0.608,0.408,1.579,1.102,2.158c0.184,0.155,0.649,0.347,0.894,0.347c0.384,0,0.82-0.15,1.138-0.697
			c0.212,0.171,0.445,0.351,0.702,0.526c0.506,0.358,1.007,0.587,1.501,0.682c0.061,0.497,0.179,1.081,0.408,1.518
			c0.074,0.135,0.126,0.261,0.188,0.392c0.253,0.555,0.559,1.24,1.542,2.121c0.563,0.498,4.031,3.86,7.091,6.826
			c2.55,2.469,5.047,4.896,6.124,5.912c1.188,1.122,2.261,1.787,3.101,2.17c-0.795,0.854-1.791,2.028-2.371,3.121
			c-1.13,2.126-1.346,4.109-1.391,4.835c-0.767,1.371-4.766,8.585-5.834,11.273c-0.706,1.734-0.518,5.605-0.326,7.111
			c0.094,0.706,0.257,1.566,0.616,2.162c-0.151,0.751-0.428,2.228-0.616,3.652c-0.237,2.072-0.127,3.365,1.146,6.018
			c1.257,2.636,3.321,4.117,6.161,4.41c2.579,0.249,4.557-0.767,4.635-0.8c0.392-0.208,0.604-0.64,0.53-1.081
			c-0.073-0.44-0.424-0.771-0.865-0.836c-0.057-0.009-0.253-0.033-0.514-0.065l0.102-0.032c0.412-0.127,0.698-0.494,0.722-0.923
			c0.024-0.428-0.225-0.819-0.612-0.991c-0.086-0.036-0.829-0.347-1.702-0.347c-0.151,0-0.302,0.008-0.596,0.041
			c-0.555,0-1.746-0.339-2.758-1.257c-0.8-0.738-0.877-1.31-0.4-3.068c0.118-0.437,0.29-0.812,0.473-1.118l0.428,0.768
			c0.233,0.416,0.722,0.628,1.179,0.478c0.457-0.135,0.763-0.575,0.727-1.049l-0.123-1.734c1.122-0.064,1.204-1.46,1.261-2.391
			c0.049-0.804,0.049-1.75,0.049-2.293c0-1.285-0.477-3.337-0.865-4.998c-0.245-1.068-0.225-1.803-0.208-2.587l0.012-0.656
			c0-0.983,0-1.44,0.114-2.334c0.028-0.277,0.212-0.71,0.408-1.159c0.286-0.66,0.608-1.411,0.743-2.264
			c0.114-0.669,1.069-1.652,1.489-2.012l0.363-0.013c0.784,0.604,2.138,0.318,2.346,0.221c0.363-0.18,0.587-0.555,0.571-0.959
			l-0.086-2.056c0.425-0.204,0.694-0.571,0.743-1.013c0.012-0.122,0.008-0.244-0.012-0.358c0.017-0.017,0.037-0.037,0.053-0.058
			c0.175,0.188,0.367,0.396,0.575,0.616c0.942,1.021,2.542,3.146,4.088,5.21c1.208,1.612,2.378,3.166,3.19,4.142
			c0.8,0.95,1.624,1.416,2.525,1.416c0.922,0,1.657-0.494,2.309-0.931c0.286-0.191,0.58-0.392,0.922-0.542
			c0.779-0.376,2.077-0.625,3.325-0.869c0.926-0.18,1.852-0.363,2.664-0.596c1.714-0.502,2.856-0.327,5.235,0.143
			c1.579,0.29,2.791,1.167,3.289,1.583c0.102,0.816,0.351,2.815,0.526,4.603c0.204,2.048,0.028,4.239-0.176,6.776l-0.057,0.719
			c-0.224,2.807-1.146,7.968-2.301,12.835c-0.816,3.443-1.404,4.925-1.787,5.904c-0.164,0.424-0.298,0.767-0.404,1.117
			c-0.065,0.209-0.253,0.837,0.143,1.363c0.192,0.253,0.628,0.465,0.951,0.465c0.298,0,0.632-0.11,1-0.33l0.714,0.403
			c-0.094,0.747-0.322,2.089-0.836,3.668c-0.812,2.591-1.073,4.252-1.085,4.325c-0.045,0.294,0.041,0.596,0.236,0.82
			c0.192,0.224,0.474,0.354,0.771,0.354h0.371c-0.061,0.359-0.102,0.742-0.102,1.081c0,0.29-0.061,0.616-0.13,1.041
			c-0.119,0.705-0.273,1.632-0.347,2.974c-0.106,2.257,0.114,4.256,0.126,4.337c0.025,0.237,0.131,0.453,0.302,0.616
			c0.069,0.065,0.338,0.307,0.775,0.441c-0.343,0.877-0.849,2.423-0.759,3.781c0.143,2.448,1.151,4.864,1.522,5.68
			c-0.106,1.008-0.392,4.068-0.073,5.598c0.314,1.44,1.138,3.044,1.469,3.656c-0.004,1.272,0.082,6.43,1.611,9.902
			c1.82,4.129,5.043,6.638,6.03,7.335c0.343,0.861,1.371,3.289,2.521,4.533c1.701,1.905,3.741,3.035,6.063,3.357
			c2.986,0.445,4.859-2.06,4.933-2.158c0.265-0.367,0.257-0.86-0.016-1.22c-0.192-0.249-0.478-0.388-0.771-0.399
			c0.457-0.335,0.779-0.714,0.951-0.992c0.216-0.351,0.2-0.791-0.037-1.126c-0.241-0.334-0.673-0.481-1.053-0.403
			c0,0-1.15,0.257-1.665,0.481c-0.465,0-1.808-0.502-2.452-0.743l-0.428-0.154c-0.041-0.017-0.082-0.033-0.118-0.05
			c0.175-0.403,0.073-0.877-0.257-1.171c-0.114-0.102-1.146-1.02-1.767-1.37c-0.126-0.086-0.232-0.314-0.225-0.196
			c0-0.126-0.012-0.849-0.134-1.452c-0.184-0.967-2.126-3.195-3.268-4.436c-1.2-1.317-2.921-4.039-3.697-5.495
			c-0.494-0.935-1.159-2.987-1.546-4.272c0.225-0.114,0.478-0.232,0.71-0.298c1.261-0.379,1.387-1.142,1.338-1.913l-0.012-0.351
			c0-1.188-1.048-3.448-2.028-4.966c-0.424-0.657-0.612-1.366-0.702-1.918h1.105c0.335,0,0.649-0.167,0.841-0.44
			c0.191-0.277,0.232-0.632,0.11-0.942l-2.799-7.233l0.017-0.4c0.236,0.163,0.461,0.322,0.657,0.461
			c0.355,0.262,1.33,0.445,1.75-0.102c0.379-0.506,0.212-1.081,0.037-1.686c-0.057-0.188-0.155-0.534-0.159-0.648
			c0-0.567-0.327-1.808-1.917-6.062c-0.029-0.065-0.057-0.139-0.086-0.225c0.069,0.118,0.131,0.24,0.192,0.359
			c0.208,0.42,0.677,0.641,1.126,0.542c0.457-0.098,0.788-0.493,0.804-0.959c0.004-0.139,0.118-3.476-0.123-5.605
			c-0.065-0.592-0.155-1.232-0.245-1.868c-0.012-0.09-0.028-0.188-0.041-0.29c0.444,0.318,1.016,0.212,1.289-0.033
			c0.518,1.041,1.538,2.085,1.652,2.199c0.318,0.322,0.808,0.392,1.2,0.188c0.4-0.213,0.612-0.653,0.526-1.098l-0.547-2.889
			c0.771,0.795,2.375,2.175,3.121,2.721c0.841,0.646,2.301,2.191,2.317,2.208c0.306,0.318,0.775,0.412,1.188,0.216
			c0.404-0.195,0.628-0.624,0.563-1.069l-0.237-1.505c-0.139-0.849-1.085-2.31-1.921-3.231c0.175-0.09,0.326-0.236,0.424-0.416
			c0.057-0.103,1.367-2.525,1.616-5.039c0.008-0.102,0.02-0.216,0.028-0.326c0.996,2.893,2.277,6.222,3.709,9.021
			c2.839,5.521,6.483,8.091,7.899,9.095c1.26,0.918,6.062,3.762,11.469,4.798c2.338,0.461,5.014,0.697,7.948,0.697
			c2.023,0,3.615-0.109,4.333-0.163c0.192,0.412,0.624,1.249,1.73,1.249c1.876,0,5.128-5.757,5.757-6.912
			c0.31-0.562,0.767-1.407,1.285-2.366c3.884,13.117,10.229,20.857,17.213,20.857c6.985,0,13.329-7.74,17.214-20.857
			c0.518,0.959,0.975,1.804,1.281,2.366c0.632,1.155,3.884,6.912,5.761,6.912c1.004,0,1.452-0.694,1.729-1.249
			c0.723,0.054,2.313,0.163,4.333,0.163c2.938,0,5.61-0.236,7.94-0.697c5.409-1.036,10.216-3.88,11.521-4.831
			c1.367-0.971,5.01-3.545,7.85-9.065c1.437-2.799,2.714-6.128,3.709-9.021c0.008,0.109,0.021,0.22,0.028,0.322
			c0.253,2.517,1.562,4.94,1.616,5.043c0.098,0.179,0.253,0.322,0.428,0.416c-0.849,0.934-1.787,2.387-1.93,3.239l-0.232,1.497
			c-0.069,0.441,0.159,0.873,0.563,1.069c0.407,0.204,0.881,0.106,1.187-0.216c0.408-0.429,1.62-1.669,2.298-2.195
			c0.763-0.56,2.362-1.93,3.142-2.733l-0.547,2.889c-0.086,0.44,0.126,0.885,0.526,1.097c0.383,0.2,0.877,0.131,1.199-0.188
			c0.114-0.114,1.154-1.179,1.648-2.19c0.281,0.257,0.853,0.338,1.293,0.024c-0.012,0.102-0.028,0.199-0.04,0.289
			c-0.086,0.637-0.18,1.277-0.241,1.86c-0.249,2.139-0.131,5.476-0.126,5.614c0.016,0.466,0.347,0.861,0.804,0.959
			c0.456,0.106,0.922-0.122,1.126-0.543c0.061-0.118,0.126-0.244,0.195-0.362c-0.036,0.085-0.069,0.171-0.094,0.24
			c-1.587,4.243-1.913,5.487-1.913,6.051c-0.005,0.114-0.103,0.461-0.159,0.648c-0.176,0.604-0.343,1.18,0.036,1.686
			c0.416,0.551,1.408,0.363,1.738,0.11c0.196-0.139,0.429-0.303,0.669-0.47l0.017,0.399l-2.799,7.234
			c-0.118,0.31-0.082,0.665,0.11,0.942c0.191,0.273,0.506,0.44,0.84,0.44h1.146c-0.085,0.551-0.277,1.261-0.697,1.914
			c-0.983,1.521-2.032,3.782-2.032,4.969l-0.012,0.352c-0.049,0.767,0.081,1.534,1.347,1.917c0.228,0.065,0.477,0.18,0.701,0.294
			c-0.388,1.281-1.053,3.338-1.546,4.268c-0.775,1.457-2.497,4.178-3.692,5.496c-1.143,1.244-3.089,3.472-3.269,4.423
			c-0.114,0.579-0.135,1.248-0.122,1.306c-0.028,0.09-0.103,0.273-0.204,0.338c-0.653,0.372-1.686,1.286-1.8,1.392
			c-0.33,0.294-0.432,0.768-0.257,1.171c-0.036,0.013-0.073,0.029-0.105,0.041l-0.437,0.163c-0.646,0.241-1.987,0.743-2.318,0.779
			c-0.648-0.261-1.799-0.522-1.799-0.522c-0.375-0.085-0.812,0.069-1.053,0.404c-0.236,0.335-0.253,0.775-0.037,1.126
			c0.172,0.277,0.494,0.657,0.951,0.991c-0.298,0.013-0.584,0.151-0.771,0.4c-0.273,0.358-0.281,0.853-0.016,1.22
			c0.064,0.09,1.623,2.211,4.238,2.211c0.229,0,0.453-0.016,0.689-0.049c2.326-0.326,4.366-1.456,6.056-3.346
			c1.162-1.265,2.19-3.688,2.533-4.549c0.983-0.697,4.206-3.203,6.03-7.336c1.53-3.472,1.615-8.629,1.611-9.902
			c0.331-0.607,1.159-2.219,1.473-3.663c0.314-1.519,0.033-4.578-0.077-5.586c0.371-0.808,1.379-3.228,1.518-5.671
			c0.094-1.363-0.407-2.905-0.755-3.791c0.437-0.13,0.71-0.379,0.775-0.44c0.172-0.163,0.277-0.384,0.302-0.616
			c0.013-0.085,0.237-2.085,0.127-4.341c-0.073-1.334-0.229-2.265-0.347-2.971c-0.073-0.424-0.131-0.75-0.131-1.04
			c0-0.339-0.045-0.722-0.102-1.081h0.371c0.298,0,0.583-0.131,0.771-0.355c0.196-0.229,0.278-0.525,0.237-0.819
			c-0.013-0.073-0.27-1.734-1.09-4.337c-0.514-1.571-0.742-2.913-0.832-3.656l0.714-0.403c0.367,0.22,0.702,0.33,1,0.33
			c0.322,0,0.763-0.212,0.95-0.465c0.396-0.526,0.208-1.155,0.143-1.363c-0.102-0.354-0.24-0.697-0.403-1.118
			c-0.388-0.979-0.972-2.464-1.787-5.903c-1.154-4.867-2.081-10.028-2.301-12.836l-0.058-0.718
			c-0.204-2.538-0.379-4.729-0.176-6.777c0.176-1.787,0.425-3.786,0.526-4.602c0.498-0.412,1.71-1.289,3.297-1.587
			c2.362-0.462,3.505-0.641,5.227-0.139c0.812,0.236,1.742,0.42,2.664,0.595c1.253,0.245,2.546,0.494,3.358,0.882
			c0.31,0.139,0.6,0.339,0.889,0.53c0.653,0.433,1.392,0.931,2.31,0.931c0.901,0,1.726-0.461,2.525-1.42
			c0.812-0.967,1.983-2.525,3.19-4.138c1.547-2.061,3.146-4.189,4.084-5.21c0.209-0.225,0.404-0.424,0.58-0.616
			c0.016,0.021,0.036,0.041,0.053,0.058c-0.021,0.114-0.024,0.236-0.012,0.358c0.049,0.425,0.289,0.775,0.742,1.008l-0.086,2.057
			c-0.017,0.408,0.208,0.779,0.571,0.959c0.208,0.098,1.403,0.51,2.493-0.335c0.502,0.38,1.574,1.399,1.701,2.126
			c0.135,0.869,0.457,1.615,0.746,2.28c0.196,0.449,0.38,0.882,0.412,1.18c0.11,0.877,0.11,1.33,0.11,2.313l0.013,0.656
			c0.016,0.779,0.036,1.519-0.208,2.596c-0.388,1.647-0.865,3.7-0.865,4.989c0,2.864,0,4.618,1.306,4.684l-0.122,1.734
			c-0.037,0.474,0.265,0.914,0.726,1.049c0.461,0.155,0.947-0.065,1.18-0.478l0.428-0.768c0.184,0.307,0.355,0.686,0.474,1.118
			c0.478,1.759,0.404,2.33-0.392,3.061c-1.004,0.913-2.179,1.252-2.877,1.252c-0.012,0-0.02,0-0.028,0
			c-1.057-0.135-2.061,0.277-2.158,0.318c-0.392,0.172-0.637,0.567-0.612,0.991c0.025,0.425,0.311,0.792,0.723,0.923l0.102,0.032
			c-0.261,0.032-0.457,0.057-0.514,0.065c-0.437,0.065-0.787,0.399-0.865,0.836c-0.077,0.437,0.139,0.873,0.53,1.081
			c0.078,0.037,1.976,1.053,4.644,0.8c2.827-0.293,4.896-1.778,6.152-4.406c1.273-2.651,1.383-3.949,1.146-6.034
			c-0.188-1.416-0.465-2.885-0.616-3.635c0.359-0.596,0.522-1.457,0.616-2.167c0.191-1.501,0.38-5.373-0.322-7.095
			c-1.069-2.701-5.071-9.915-5.838-11.285c-0.045-0.727-0.258-2.705-1.392-4.835c-0.579-1.094-1.575-2.269-2.371-3.121
			c0.841-0.388,1.914-1.049,3.102-2.171c1.077-1.016,3.573-3.443,6.124-5.912c3.06-2.966,6.532-6.328,7.099-6.83
			c0.976-0.877,1.281-1.562,1.534-2.117c0.062-0.127,0.114-0.253,0.188-0.396c0.229-0.437,0.347-1.017,0.408-1.514
			c0.494-0.094,0.996-0.322,1.497-0.678c0.253-0.18,0.49-0.354,0.706-0.53c0.318,0.547,0.759,0.697,1.139,0.697
			c0.244,0,0.701-0.188,0.885-0.342c0.698-0.584,0.988-1.555,1.106-2.163c0.75-0.514,1.799-1.199,2.26-1.396
			c0.286-0.122,0.359-0.126,0.535-0.139c0.212-0.012,0.497-0.032,0.95-0.163c0.971-0.269,2.415-1.465,2.636-1.693
			c0.261-0.134,6.454-3.316,9.829-5.381c1.411-0.873,3.929-2.15,6.846-3.64c3.982-2.023,8.495-4.32,11.979-6.471
			c2.159-1.326,4.623-2.774,6.985-4.166c4.419-2.599,8.233-4.843,9.621-6.01c2.497-2.064,4.124-3.814,5.116-5.491
			c0.954-1.588,3.329-6.227,3.876-7.296c0.665-0.497,2.868-2.158,4.141-3.264c1.62-1.338,7.075-6.214,9.115-8.147
			c1.105-1.036,3.945-3.105,6.687-5.104c2.33-1.697,4.737-3.455,6.292-4.725c3.37-2.791,5.516-4.908,8.046-7.98
			c2.468-2.921,6.205-7.335,7.503-9.327c0.151-0.249,3.77-5.994,4.521-8.111c0.481-1.392-0.172-2.713-0.747-3.525
			c0.739-0.706,1.983-1.864,3.231-2.876c1.032-0.861,2.057-1.452,2.881-1.934c0.734-0.424,1.31-0.759,1.701-1.151
			c0.551-0.551,2.913-2.586,3.623-3.215c0.009-0.004,1-0.559,2.285-0.559c0.008,0,0.017,0,0.028,0
			c0.261,0.024,0.608,0.037,1.021,0.037c0.216,0,5.32-0.016,7.4-1.354c1.363-0.881,2.412-2.016,2.84-2.517
			c0.747-0.225,2.922-0.816,4.202-0.583c0.27,0.049,0.657,0.139,1.131,0.253c1.934,0.453,5.528,1.301,9.131,1.301
			c1.656,0,3.17-0.179,4.5-0.534c2.489-0.669,5.953-2.391,8.291-6.773c0.938-1.763,3.807-7.12-1.343-10.828
			c-0.384-0.273-0.91-0.665-1.562-1.155c-2.673-1.991-7.654-5.7-13.248-9.042c-6.201-3.655-13.533-6.952-16.055-7.707
			c-3.721-1.159-11.146-3.105-19.094-3.105c-2.049,0-4.023,0.131-5.871,0.396c-11.828,1.673-23.546,7.523-27.965,9.723
			c-0.6,0.298-1.069,0.534-1.403,0.689c-2.644,1.273-9.2,4.933-14.986,8.164c-4.896,2.742-9.526,5.329-10.787,5.9
			c-2.484,1.138-8.703,4.141-9.988,4.761c-0.771-0.021-2.456,0.028-3.732,0.661c-1.702,0.902-2.938,2.481-3.313,3.003
			c-1.24,0.857-9.857,6.842-11.714,8.14c-1.905,1.354-8.531,5.773-11.424,7.511c-1.342,0.804-2.921,1.702-4.532,2.62
			c-1.901,1.081-3.844,2.187-5.509,3.203c-0.689,0.424-1.758,1.11-3.043,1.934c-4.085,2.619-10.923,6.997-13.542,8.213
			c-0.429,0.2-1.053,0.502-1.828,0.885c-2.187,1.073-5.495,2.693-9.326,4.296c-6.026,2.558-12.926,5.088-15.271,5.949
			c-4.179,1.525-8.291,3.02-10.065,3.578c-1.51,0.478-4.228,0.648-6.096,0.648c-1.232,0-1.934-0.085-4.406-0.971
			c-0.352-0.131-0.865-0.449-1.412-0.788c-0.804-0.493-1.714-1.061-2.75-1.46c-1.497-0.592-3.998-1.437-6.527-2.211
			c-2.416-0.763-4.647-1.416-5.312-1.562c-1.656-0.363-3.162-0.526-4.157-0.6c0.571-3.007,2.027-11.036,2.231-14.773
			c0.191-3.664,0.53-8.181,0.648-9.755c1.294-0.649,4.749-2.371,6.729-3.19c2.709-1.094,5.508-2.224,6.267-4.035
			c0.607-1.498,0.845-4.17,0.873-4.558v-2.733c0.738-0.367,1.987-1.098,3.174-2.256c1.24-1.199,2.358-3.125,2.93-4.101l0.502-0.738
			c1.428-2.068,4.39-6.365,5.365-9.645c1.04-3.452,2.778-9.233,3.007-14.757c0.262-5.72,0.498-9.315,0.837-12.828l0.053-0.575
			c0.33-3.558,0.673-7.234,1.428-10.816c0.445-2.085,1.27-4.06,1.93-5.655c0.556-1.334,0.992-2.391,1.106-3.219
			c0.061-0.396,0.15-0.824,0.24-1.249c0.298-1.396,0.515-2.407-0.041-3.089c-0.253-0.31-0.611-0.477-1.02-0.477
			c-0.11,0-0.412,0.053-0.515,0.085c-0.611,0.208-2.162,0.743-3.329,1.143c0.049-0.539,0.127-1.183,0.257-1.856
			c0.095-0.53,0.176-1.155,0.258-1.824c0.204-1.652,0.437-3.525,1.048-4.896c0.942-2.138,1.388-4.117,1.388-6.222l0.004-0.616
			c0.008-1.64,0.021-2.938-1.15-3.545c-0.355-0.179-0.734-0.412-1.004-0.591c-0.09-1.089-0.298-3.754-0.298-5.345
			c0-0.657,0.122-1.313,0.253-2.011c0.253-1.314,0.534-2.807-0.098-4.406c-0.257-0.665-0.465-1.347-0.657-1.958
			c-0.522-1.689-0.901-2.913-2.02-3.088c-0.188-0.029-0.359-0.049-0.514-0.065c-0.425-1.461-1.126-3.954-1.273-4.818
			c-0.065-0.306-0.098-0.739-0.143-1.229c-0.139-1.599-0.33-3.786-1.506-5.071c-0.502-0.542-0.824-1.041-1.109-1.481
			c-0.444-0.689-0.869-1.338-1.787-1.55c0-0.114-0.021-0.232-0.062-0.343c-0.073-0.2-1.758-4.941-2.692-6.932
			c-0.286-0.6-0.592-1.408-0.91-2.252c-0.979-2.579-1.697-4.321-2.681-5.01c-0.641-0.44-1.272-0.592-1.954-0.657
			c-1.012-2.126-4.133-8.393-7.793-12.807c-3.337-3.995-7.201-5.994-8.421-6.557c-0.444-0.942-1.734-3.472-3.505-5.21
			c-1.856-1.815-4.161-2.538-5.843-3.068l-0.51-0.159c-3.288-1.102-7.968,0.037-9.4,1.995c-0.975,1.342-2.293,4.61-2.501,5.222
			l-0.363,2.799c-0.065,0.506,0.253,0.979,0.747,1.109c0.473,0.147,1.004-0.114,1.208-0.583c0.004-0.017,0.75-1.718,2.329-2.668
			c1.24-0.779,3.615-1.134,5.716-0.938c1.212,0.106,3.321,1.102,4.342,2.277c0.265,0.293,0.457,0.604,0.6,0.901
			c-1.555-0.232-1.89,0.445-1.991,0.828c-0.253,0.955,0.738,1.518,1.285,1.828c0.494,0.265,0.979,0.489,1.375,0.661
			c-0.221,0.119-0.388,0.318-0.469,0.567c-0.114,0.347-0.037,0.726,0.204,1c0.085,0.094,0.877,0.959,2.509,1.844
			c0.559,0.298,1.134,0.587,1.767,0.897c1.057,0.53,2.265,1.13,3.79,2c2.428,1.403,4.521,3.092,6.23,5.018
			c1.718,1.917,2.493,3.403,3.089,4.753c0.318,0.669,0.628,1.452,0.84,2.02c-0.412,0.31-0.819,0.759-0.934,1.342
			c-0.062,0.322-0.078,0.955,0.534,1.567c0.285,0.281,0.607,0.583,0.946,0.901c0.747,0.694,1.592,1.477,2.366,2.403l0.768,0.881
			c0.983,1.105,2.329,2.631,2.64,3.619c0.347,1.151,0.91,3.101,1.158,3.966c-0.077,0.086-0.143,0.159-0.184,0.171
			c-0.652,0-1.179,0.334-1.407,0.894c-0.392,0.955,0.286,2.097,1.105,2.897c0.89,0.901,2.742,2.774,3.681,4.68
			c0.493,0.979,1.032,1.697,1.46,2.272c0.481,0.645,0.76,1.024,0.76,1.334v1.306c-0.188,0.062-0.396,0.11-0.588,0.11
			c-0.216,0-0.877,0-1.208,0.592c-0.33,0.583-0.012,1.118,0.184,1.44c0.188,0.314,0.474,0.792,0.706,1.612
			c0.273,0.922,0.877,2.207,1.514,3.57c0.689,1.477,1.547,3.317,1.604,3.97c0.062,0.943,0.371,2.208,0.628,3.125
			c-0.13,0-0.265-0.012-0.424-0.033c-0.856-0.085-1.42-0.351-1.42-0.351c-0.399-0.188-0.869-0.106-1.171,0.2
			c-0.311,0.31-0.384,0.787-0.188,1.179c0.008,0.016,0.755,1.538,1.064,4.635l0.159,1.46c0.322,2.946,0.689,6.283,0.311,8.238
			c-0.114,0.616-0.217,1.228-0.314,1.803c-0.232,1.379-0.494,2.938-0.796,3.374c-0.465,0.665-1.771,1.722-2.93,1.881
			c-0.53,0.086-0.934,0.184-1.285,0.266c-0.6,0.139-0.868,0.208-1.358,0.102c-0.363-0.082-0.779-0.281-1.089-0.428
			c-0.804-0.392-1.498-0.388-1.86,0.18c-0.2,0.31-0.192,0.828-0.021,1.154c0.199,0.379,0.934,1.322,1.465,1.995
			c-0.502,1.167-1.624,3.905-2.253,6.418c-0.591,2.375-0.767,4.492-0.901,6.193c-0.062,0.698-0.106,1.31-0.184,1.828
			c-0.38,2.844-0.755,9.633-0.95,13.28l-0.095,1.668c-0.09,1.938-0.57,3.17-0.991,4.264l0.951,0.367l0,0l-1.114,0.041
			c-0.804,1.971-1.645,4.186-1.367,5.549c0.155,0.901,0.376,1.604,0.511,1.983c-0.404,1.652-1.354,5.32-1.942,6.564
			c-0.845,1.759-1.432,4.431-1.253,5.696c0.095,0.816,0.535,1.396,0.902,1.742c-0.155-0.037-0.412-0.163-0.637-0.277
			c-0.547-0.282-1.293-0.665-2.28-0.665c-1.343,0-9.188,1.844-11.792,2.464c-1.37-1.228-5.94-5.186-10.86-7.781l-3.774-1.979
			c-3.439-1.799-5.928-3.101-6.716-3.791c-0.343-0.31-0.652-0.657-0.95-0.983c-0.596-0.661-1.208-1.342-1.963-1.656
			c0.959-0.788,1.873-2.016,1.873-3.811c0-3.264-0.775-4.337-2.428-5.858c-0.995-0.922-1.754-1.359-2.199-1.567l-0.493-0.816
			l1.027-0.437c0.376,0.077,0.943,0.13,1.755,0.045l0.648-0.045c0.963-0.053,1.963-0.106,2.738-1.016
			c0.171-0.212,0.347-0.433,0.501-0.641c0.486,0.372,1.082,0.694,1.665,0.694c0.106,0,0.396-0.045,0.498-0.082l0.122-0.041
			c0.657,0.326,2.334,0.314,2.358,0.31c0,0,0,0,0-0.004l0.567,0.13c0.306,0.469,0.836,0.934,1.623,0.934
			c0.135,0,0.286,0.058,0.563,0.159c0.384,0.147,0.914,0.351,1.665,0.42c0.188,0.016,0.383,0.029,0.579,0.029
			c1.823,0,3.076-0.935,3.439-2.579l0.212-0.983c0.404-1.812,0.951-4.3,0.849-6.361c-0.102-2.203-1.575-6.618-3.509-6.887
			c-0.481,0-0.935,0.257-1.338,0.767c-0.91,1.143-1.938,4.068-1.478,6.059c0.347,1.448,1.155,3.692,1.604,4.892
			c-0.236,0.126-0.424,0.22-0.465,0.236c-0.086-0.008-0.343-0.098-0.51-0.159c-0.425-0.147-0.897-0.318-1.51-0.351
			c-0.135-0.078-0.339-0.188-0.645-0.261c-0.277-0.078-0.637-0.102-0.935-0.086c-0.375-0.338-0.963-0.767-1.64-0.881
			c-0.045-0.004-0.331-0.024-0.38-0.024c-0.416,0-0.82,0.086-1.122,0.176c-0.29-0.135-0.682-0.253-1.171-0.253h-0.416
			c-0.575-0.514-1.787-1.416-3.264-1.416c-0.005,0-0.009,0-0.017,0c-0.363,0.033-0.73,0.094-1.081,0.171
			c0.069-0.135,0.135-0.265,0.208-0.396c0.583-1.069,0.881-3.109,0.403-4.235c-0.277-0.669-0.767-0.889-1.027-0.963
			c-0.833-0.236-2.437,0.184-3.276,0.445l-0.172-0.106c0.306-0.89,0.71-2.167,0.71-2.84c0-0.889-0.637-4.031-2.656-4.031
			c-1.02,0-1.986,1.114-2.88,3.312c-0.118-0.159-0.241-0.298-0.347-0.424c-0.376-0.429-0.498-0.58-0.322-1.257l0.367-1.387
			c0.347-1.314,0.701-2.672,1.117-3.733c0.314-0.828,0.751-1.962,1.661-3.264c0.351-0.506,0.815-1.028,1.289-1.567
			c0.559-0.632,1.126-1.281,1.579-1.934c0.555-0.771,1.053-1.493,1.514-2.167c1.179-1.709,2.109-3.06,3.129-4.072
			c2.105-2.077,4.104-4.284,4.484-6.356c0.375-2.061,0.461-3.921-2.281-5.781c-1.767-1.204-3.125-2.057-4.492-2.057
			c-0.873,0-1.623,0.359-2.231,1.073c-0.738,0.869-1.358,2.036-2.016,3.272c-0.551,1.037-1.118,2.114-1.746,2.942
			c-0.44,0.6-0.82,1.142-1.158,1.628c-0.702,1.003-1.208,1.734-1.832,2.293c-0.47,0.42-0.792,0.894-1.106,1.351
			c-0.51,0.747-1.04,1.518-2.362,2.37c-0.913,0.592-1.439,1.028-1.84,1.371c-0.6,0.502-0.763,0.636-1.885,0.824
			c-0.008,0-0.069,0.008-0.126,0.012l-0.257-0.024c-0.983-0.176-1.143-0.31-1.747-0.812c-0.404-0.343-0.93-0.779-1.84-1.371
			c-1.322-0.853-1.853-1.624-2.362-2.37c-0.314-0.457-0.637-0.935-1.106-1.347c-0.628-0.563-1.134-1.289-1.836-2.293
			c-0.338-0.485-0.718-1.028-1.163-1.628c-0.62-0.828-1.191-1.905-1.742-2.941c-0.657-1.236-1.277-2.403-2.016-3.276
			c-0.604-0.71-1.359-1.069-2.232-1.069c-1.367,0-2.725,0.853-4.492,2.056c-2.742,1.86-2.652,3.721-2.281,5.781
			c0.379,2.073,2.378,4.28,4.479,6.353c1.024,1.016,1.955,2.367,3.134,4.076c0.461,0.673,0.958,1.395,1.505,2.154
			c0.457,0.661,1.028,1.31,1.587,1.946c0.474,0.539,0.938,1.061,1.29,1.567c0.914,1.297,1.346,2.436,1.665,3.276
			c0.416,1.048,0.767,2.407,1.114,3.721l0.363,1.371c0.179,0.693,0.057,0.84-0.318,1.273c-0.102,0.118-0.224,0.253-0.347,0.424
			c-0.894-2.199-1.86-3.313-2.88-3.313c-2.02,0-2.656,3.146-2.656,4.031c0,0.673,0.404,1.955,0.71,2.84l-0.171,0.106
			c-0.84-0.261-2.428-0.681-3.28-0.444c-0.257,0.077-0.747,0.293-1.024,0.963c-0.478,1.126-0.18,3.166,0.408,4.239
			c0.073,0.131,0.143,0.27,0.212,0.412c-0.412-0.09-0.853-0.163-1.306-0.2c-1.314,0-2.497,0.91-3.06,1.424h-0.416
			c-0.49,0-0.881,0.114-1.171,0.253c-0.302-0.085-0.71-0.175-1.122-0.175c-0.057,0-0.355,0.02-0.412,0.028
			c-0.657,0.11-1.241,0.539-1.612,0.877c-0.314-0.017-0.661,0.008-0.918,0.082c-0.322,0.082-0.526,0.192-0.792,0.298
			c-0.481,0-0.955,0.171-1.379,0.318c-0.167,0.061-0.424,0.151-0.412,0.163c-0.098-0.021-0.31-0.114-0.563-0.245
			c0.445-1.2,1.252-3.444,1.599-4.892c0.457-1.987-0.571-4.913-1.477-6.055c-0.408-0.51-0.873-0.722-1.53-0.755
			c-1.746,0.253-3.215,4.671-3.317,6.871c-0.102,2.064,0.444,4.549,0.849,6.365l0.216,1c0.359,1.628,1.612,2.562,3.436,2.562
			c0.196,0,0.392-0.012,0.58-0.029c0.754-0.069,1.281-0.269,1.665-0.42c0.273-0.102,0.424-0.159,0.563-0.159
			c0.788,0,1.318-0.461,1.624-0.935l0.506-0.114c0.045-0.004,1.75,0.012,2.419-0.322l0.11,0.037c0.106,0.037,0.4,0.086,0.51,0.086
			c0.587,0,1.179-0.322,1.665-0.693c0.159,0.212,0.339,0.44,0.514,0.657c0.763,0.894,1.763,0.946,2.726,1l0.632,0.045
			c0.849,0.085,1.395,0.028,1.771-0.045l1.028,0.437l-0.494,0.816c-0.445,0.208-1.204,0.645-2.203,1.567
			c-1.645,1.518-2.424,2.595-2.424,5.859c0,1.795,0.914,3.019,1.877,3.815c-0.767,0.314-1.375,0.991-1.967,1.652
			c-0.298,0.326-0.608,0.673-0.934,0.971c-0.804,0.702-3.297,2-6.732,3.803l-3.774,1.979c-4.92,2.599-9.49,6.552-10.861,7.78
			c-2.603-0.62-10.449-2.464-11.791-2.464c-0.983,0-1.734,0.384-2.281,0.665c-0.261,0.131-0.563,0.286-0.583,0.375
			c-0.012-0.024-0.028-0.065-0.037-0.11c0.359-0.347,0.783-0.914,0.881-1.705c0.179-1.286-0.408-3.962-1.249-5.704
			c-0.592-1.261-1.538-4.92-1.946-6.577c0.135-0.384,0.351-1.073,0.506-1.955c0.282-1.391-0.559-3.607-1.363-5.577l-0.163-0.408
			c-0.424-1.093-0.902-2.326-0.991-4.276l-0.094-1.656c-0.2-3.647-0.575-10.437-0.955-13.293c-0.073-0.506-0.118-1.118-0.179-1.815
			c-0.135-1.701-0.31-3.819-0.902-6.193c-0.625-2.513-1.75-5.251-2.252-6.418c0.534-0.677,1.273-1.628,1.493-2.048
			c0.143-0.318,0.139-0.812-0.049-1.106c-0.359-0.567-1.052-0.575-1.86-0.18c-0.306,0.147-0.726,0.351-1.098,0.429
			c-0.461,0.102-0.75,0.037-1.35-0.102c-0.351-0.086-0.759-0.184-1.306-0.27c-1.138-0.155-2.444-1.211-2.909-1.881
			c-0.302-0.432-0.567-1.991-0.795-3.37c-0.098-0.579-0.2-1.187-0.318-1.807c-0.375-1.95-0.008-5.288,0.314-8.233l0.159-1.461
			c0.31-3.097,1.057-4.619,1.065-4.631c0.2-0.387,0.123-0.861-0.18-1.175c-0.302-0.314-0.775-0.396-1.171-0.212
			c-0.008,0.004-0.571,0.266-1.444,0.359c-0.139,0.016-0.269,0.028-0.404,0.028c0.257-0.914,0.571-2.175,0.628-3.113
			c0.057-0.661,0.914-2.501,1.604-3.982c0.636-1.363,1.24-2.648,1.522-3.586c0.224-0.8,0.51-1.277,0.697-1.595
			c0.196-0.318,0.514-0.857,0.184-1.44c-0.33-0.592-0.991-0.592-1.208-0.592c-0.192,0-0.4-0.053-0.587-0.11v-1.306
			c0-0.31,0.273-0.689,0.759-1.334c0.428-0.575,0.967-1.289,1.46-2.28c0.938-1.901,2.795-3.774,3.733-4.725
			c0.767-0.751,1.444-1.889,1.053-2.844c-0.229-0.559-0.637-0.853-1.392-0.89c-0.049-0.017-0.122-0.086-0.196-0.175
			c0.249-0.865,0.808-2.807,1.151-3.954c0.314-1,1.661-2.521,2.644-3.631l0.771-0.885c0.771-0.922,1.616-1.706,2.362-2.399
			c0.338-0.318,0.661-0.616,0.951-0.906c0.604-0.604,0.591-1.24,0.53-1.563c-0.11-0.587-0.522-1.032-0.935-1.342
			c0.216-0.571,0.526-1.362,0.853-2.048c0.583-1.322,1.358-2.807,3.08-4.729c1.706-1.926,3.803-3.615,6.222-5.014
			c1.53-0.869,2.738-1.469,3.794-1.999c0.628-0.311,1.208-0.596,1.771-0.902c1.628-0.881,2.419-1.746,2.505-1.84
			c0.241-0.273,0.318-0.652,0.204-1c-0.086-0.249-0.253-0.445-0.469-0.567c0.396-0.171,0.889-0.4,1.391-0.669
			c0.535-0.302,1.522-0.865,1.273-1.819c-0.098-0.384-0.437-1.061-1.991-0.829c0.147-0.298,0.343-0.612,0.608-0.914
			c1.012-1.163,3.125-2.154,4.333-2.265c2.109-0.196,4.472,0.159,5.732,0.947c1.567,0.942,2.31,2.644,2.313,2.66
			c0.204,0.465,0.726,0.738,1.208,0.583c0.494-0.131,0.808-0.604,0.747-1.11l-0.424-3.044c-0.147-0.367-1.461-3.635-2.44-4.981
			c-1.424-1.954-6.124-3.076-9.392-1.995l-0.519,0.163c-1.681,0.53-3.986,1.253-5.842,3.068c-1.775,1.742-3.06,4.268-3.505,5.21
			c-1.224,0.567-5.083,2.562-8.421,6.557c-3.66,4.415-6.781,10.677-7.793,12.807c-0.665,0.102-1.313,0.216-1.962,0.661
			c-0.975,0.685-1.693,2.427-2.672,5.006c-0.318,0.845-0.62,1.648-0.91,2.252c-0.935,1.991-2.624,6.732-2.693,6.932
			c-0.041,0.11-0.159,0.196-0.159,0.314c-0.816,0.241-1.24,0.889-1.685,1.579c-0.286,0.44-0.608,0.938-1.114,1.485
			c-1.171,1.281-1.363,3.472-1.501,5.067c-0.045,0.49-0.082,0.922-0.147,1.261c-0.147,0.84-0.849,3.321-1.273,4.786
			c-0.159,0.017-0.334,0.037-0.53,0.065c-1.106,0.175-1.481,1.399-2.003,3.088c-0.192,0.612-0.4,1.293-0.653,1.955
			c-0.636,1.607-0.355,3.101-0.102,4.415c0.131,0.698,0.253,1.354,0.253,2.011c0,1.591-0.208,4.255-0.298,5.345
			c-0.273,0.18-0.653,0.412-1.012,0.596c-1.163,0.604-1.15,1.901-1.143,3.542l0.004,0.616c0,2.109,0.44,4.084,1.387,6.226
			c0.608,1.367,0.844,3.239,1.048,4.892c0.086,0.669,0.163,1.293,0.261,1.84c0.126,0.665,0.208,1.302,0.253,1.84
			c-1.167-0.404-2.726-0.938-3.346-1.151c-0.171-0.053-0.338-0.082-0.498-0.082c-0.306,0-0.829,0.241-1.02,0.478
			c-0.555,0.681-0.339,1.693-0.041,3.088c0.086,0.424,0.18,0.853,0.237,1.24c0.118,0.836,0.559,1.893,1.11,3.228
			c0.661,1.595,1.481,3.57,1.93,5.655c0.755,3.582,1.098,7.258,1.428,10.816l0.053,0.58c0.339,3.505,0.575,7.099,0.836,12.819
			c0.232,5.528,1.967,11.31,3.048,14.896c0.934,3.146,3.9,7.442,5.329,9.51l0.596,0.894c0.477,0.82,1.599,2.746,2.832,3.941
			c1.191,1.163,2.444,1.893,3.178,2.26l0.004,2.815c0.024,0.302,0.257,2.974,0.873,4.488c0.759,1.799,3.554,2.934,6.255,4.023
			c1.987,0.82,5.442,2.542,6.736,3.19c0.119,1.575,0.457,6.087,0.649,9.755c0.204,3.737,1.661,11.767,2.231,14.774
			c-0.991,0.078-2.497,0.241-4.157,0.6c-0.665,0.147-2.897,0.8-5.304,1.559c-2.534,0.779-5.035,1.624-6.54,2.215
			c-1.032,0.403-1.942,0.967-2.746,1.461c-0.546,0.338-1.061,0.656-1.399,0.783c-2.484,0.894-3.187,0.975-4.418,0.975
			c-1.869,0-4.586-0.171-6.096-0.648c-1.774-0.559-5.883-2.052-10.143-3.61c-2.269-0.829-9.168-3.358-15.198-5.916
			c-3.827-1.604-7.136-3.224-9.323-4.296c-0.775-0.384-1.399-0.686-1.824-0.881c-2.627-1.22-9.461-5.598-13.545-8.217
			c-1.285-0.82-2.354-1.505-3.052-1.938c-1.653-1.012-3.599-2.122-5.5-3.199c-1.616-0.918-3.19-1.812-4.533-2.623
			c-2.893-1.734-9.519-6.153-11.428-7.512c-1.853-1.293-10.469-7.278-11.709-8.135c-0.379-0.522-1.616-2.105-3.333-3.015
			c-1.252-0.62-2.925-0.669-3.709-0.649c-1.285-0.62-7.503-3.623-9.988-4.761c-1.261-0.575-5.887-3.158-10.788-5.9
			c-5.785-3.231-12.338-6.891-14.998-8.168c-0.322-0.151-0.787-0.388-1.391-0.686c-4.415-2.199-16.132-8.05-27.964-9.723
			c-1.848-0.261-3.827-0.396-5.871-0.396c-7.944,0-15.374,1.946-19.082,3.101c-2.53,0.759-9.866,4.056-16.067,7.715
			c-5.589,3.333-10.571,7.046-13.244,9.037c-0.652,0.49-1.179,0.881-1.566,1.155C-2.157,245.803,0.708,251.164,1.646,252.918z"/>
	</g>
</g>
<g>
</g>
<g>
</g>
<g>
</g>
<g>
</g>
<g>
</g>
<g>
</g>
<g>
</g>
<g>
</g>
<g>
</g>
<g>
</g>
<g>
</g>
<g>
</g>
<g>
</g>
<g>
</g>
<g>
</g>
</svg>
