<?xml version="1.0" encoding="iso-8859-1"?>
<!-- Generator: Adobe Illustrator 16.0.0, SVG Export Plug-In . SVG Version: 6.00 Build 0)  -->
<!DOCTYPE svg PUBLIC "-//W3C//DTD SVG 1.1//EN" "http://www.w3.org/Graphics/SVG/1.1/DTD/svg11.dtd">
<svg version="1.1" id="Capa_1" xmlns="http://www.w3.org/2000/svg" xmlns:xlink="http://www.w3.org/1999/xlink" x="0px" y="0px"
	 width="560.958px" height="560.958px" viewBox="0 0 560.958 560.958" style="enable-background:new 0 0 560.958 560.958;"
	 xml:space="preserve">
<g>
	<g>
		<path d="M543.02,109.79c-3.418-0.996-7.396-0.938-10.285-2.717c-7.307-4.496-16.1-1.714-23.525-5.692
			c-4.619-2.477-8.91-4.786-12.562-8.825c-2.342-2.595-6.658-3.432-10.131-4.966c-1.346-0.596-2.766-1.158-4.207-1.358
			c-1.717-0.237-3.773-0.648-5.186,0.037c-3.785,1.84-7.176,1.718-10.439-0.816c-3.795-2.95-7.377,0.779-11.102,0.351
			c-0.164-0.021-0.906,1.987-0.779,2.97c0.836,6.564-1.277,11.885-5.93,16.561c-1.439,1.448-1.832,3.941-2.844,6.271
			c0.768,0.098,1.547,0.196,2.918,0.371c-0.889,3.342-1.689,6.614-2.641,9.837c-1.203,4.088-2.467,8.156-3.83,12.195
			c-0.846,2.505-1.281,2.652-4.129,2.248c-0.334,4.243-2.24,7.434-6.076,9.506c-3.838,2.077-5.311,5.712-4.508,10.216
			c0.115,0.632,0.049,1.763-0.301,1.946c-4.555,2.354-4.766,6.45-5.365,10.934c-1.021,7.642-6.885,11.881-13.109,15.415
			c-2.768,1.571-5.615,3.211-8.643,4.047c-3.297,0.91-6.83,1.069-10.277,1.285c-6.504,0.412-12.256-2.208-18.314-4.162
			c-7.393-2.387-12.75-6.818-17.789-12.236c-1.521-1.64-3.514-3.027-5.545-3.982c-7.055-3.317-9.344-10.881-14.492-15.892
			c-4.1-3.986-7.816-8.364-12.223-13.129c2.076-1.093,3.471-1.832,4.451-2.35c-1.682-1.93-3.469-4.19-5.504-6.201
			c-0.678-0.665-1.975-0.816-3.023-0.967c-2.445-0.355-2.457-0.298-2.498-3.644c1.273-0.094,2.562-0.191,3.855-0.286
			c0.236-0.33,0.475-0.657,0.711-0.983c-6.998-0.429-8.16-7.303-12.812-10.159c-3.613-2.22-7.746-3.583-11.627-5.377
			c-1-0.465-2.229-0.898-2.811-1.726c-2.24-3.166-5.064-3.733-8.662-2.835c-6.071,1.514-12.118,0.22-17.765-1.673
			c-4.92-1.648-9.502-4.5-13.933-7.295c-1.444-0.914-2.905-3.46-2.685-5.022c0.494-3.456-1.563-3.823-3.162-4.917
			c-0.775-1.204-2.118-2.387-2.171-3.623c-0.061-1.457,1-2.954,1.669-4.684c-0.363-0.163-1.412-0.636-3.072-1.387
			c1.061-1.375,2.028-2.631,3.129-4.055c-2.395-3.101-4.961-6.43-7.528-9.76c-2.338,3.248-4.157,3.036-6.356,0.017
			c-1.448-1.991-3.586-3.709-5.773-4.867c-1.954-1.037-4.365-2.554-6.646,0.053c-0.417,0.473-2.003,0.375-2.787-0.008
			c-3.423-1.665-6.781-2.423-10.625-1.289c-1.522,0.449-3.431-0.282-5.141-0.612c-4.011-0.775-7.997-1.665-12.012-2.42
			c-0.71-0.134-1.509,0.094-2.248,0.249c-0.82,0.171-1.636,0.694-2.423,0.637c-4.97-0.372-9.923-0.93-14.892-1.273
			c-1.297-0.09-2.656,0.281-3.949,0.596c-3.807,0.934-7.593,1.95-11.236,2.893c0.975,1.771,0.612,3.031-2.322,3.154
			c-2.105,0.086-4.19,0.571-6.442,0.902c0.587,1.599,0.93,2.542,1.273,3.484c-1.012,0.335-2.023,0.673-3.04,0.996
			c-0.334,0.106-0.693,0.119-1.024,0.229c-3.305,1.13-6.528,2.738-9.923,3.289c-3.982,0.649-6.185,2.901-7.972,6.116
			c-0.673,1.208-1.477,2.46-2.521,3.329c-4.639,3.852-10.147,6.948-13.896,11.505c-4.141,5.035-10.75,5.782-14.847,10.4
			c-0.281,0.318-0.922,0.559-1.33,0.481c-5.255-0.975-8.927,2.876-13.391,4.243c-4.602,1.412-9.531,1.726-14.202,2.958
			c-3.954,1.045-7.858,2.452-11.567,4.174c-5.21,2.42-10.22,5.275-13.995,7.254c-2.713,6.189,1.371,12.627-3.835,16.548
			c-5.492,4.133-7.307,10.192-10.412,15.671c-1.681,2.975-4.137,5.578-6.548,8.054c-4.35,4.467-5.741,10.143-6.308,15.904
			c-0.894,9.065-1.624,18.205-1.485,27.295c0.151,9.812,1.281,19.617,2.167,29.409c0.563,6.206-0.359,11.824-4.794,16.569
			c-0.738,0.792-1.505,2.656-1.11,3.228c1.987,2.868,0.775,5.222-0.257,7.988c-1.167,3.125-1.542,6.548-1.616,10.09
			c0.498-1.065,0.991-2.13,1.489-3.19c0.204,0.061,0.412,0.122,0.616,0.184c-0.906,3.275-1.819,6.548-2.709,9.828
			c-0.175,0.657-0.571,1.763-0.326,1.946c4.325,3.235,1.787,7.062,1.187,10.811c-0.212,1.326,0.053,3.24,0.898,4.125
			c2.692,2.828,2.835,2.693,2.766,5.194c0.351,0.045,0.706,0.09,1.057,0.135c0.673-5.264,1.403-10.519,1.983-15.794
			c0.2-1.804-0.065-3.716,3.052-3.227c0.506,8.784,1.518,17.613,1.342,26.421c-0.123,6.239-1.444,12.547-2.938,18.65
			c-2.721,11.089-5.867,22.072-9.062,33.035c-0.82,2.819-2.905,5.284-3.635,8.111c-0.567,2.203-0.881,5.504,0.326,6.956
			c4.676,5.618,6.887,12.188,8.813,18.96c2.554,8.997,5.353,17.944,7.438,27.051c2.146,9.376,3.448,18.939,5.312,28.385
			c2.37,11.999,4.092,24.035,3.868,36.315c-0.029,1.457,1.326,3.158,2.448,4.37c2.93,3.17,4.459,6.319,2.473,10.759
			c-1.86,4.157-0.665,6.589,3.954,6.96c8.16,0.653,16.394,0.657,24.582,0.498c2.179-0.041,4.667-1.261,6.393-2.688
			c1.783-1.469,1.318-3.893-0.714-5.06c-2.525-1.448-5.251-2.889-8.062-3.427c-8.262-1.575-12.313-6.813-14.349-14.521
			c-0.824-3.122-2.828-5.916-3.95-8.984c-1.457-3.986-3.146-8.018-3.721-12.171c-1.812-13.044-2.819-26.206-4.77-39.225
			c-1.461-9.756-0.343-19.233,0.82-28.854c0.567-4.688-0.314-9.539-0.42-14.32c-0.053-2.342,0.155-4.688,0.261-7.034
			c0.041-0.869,0.408-1.824,0.167-2.591c-2.211-6.932,0.897-12.921,3.447-18.911c2.897-6.801,4.084-13.9,4.998-21.158
			c0.567-4.517,1.844-8.956,2.995-13.379c0.269-1.036,1.318-1.864,2.28-3.153c0.694,1.118,1.383,1.709,1.371,2.293
			c-0.118,5.887-0.302,11.774-0.563,17.658c-0.229,5.124-0.396,10.261-0.918,15.356c-0.682,6.663-1.02,13.48-2.787,19.878
			c-1.171,4.243,0.404,7.463,1.966,10.352c5.749,10.624,12.93,20.53,18.111,31.399c7.05,14.786,12.84,30.176,19.009,45.374
			c2.717,6.695,4.839,13.631,7.65,20.285c0.849,2.008,2.946,3.599,4.729,5.071c2.252,1.865,3.276,3.782,2.362,6.806
			c-1.261,4.166-0.281,6.353,3.876,6.414c9.478,0.139,18.968-0.522,28.454-0.906c0.58-0.024,1.143-0.428,1.689-0.645
			c0.922-5.598-2.24-9.343-7.825-9.49c-8.556-0.229-14.737-4.169-18.939-11.693c-2.138-3.831-5.594-6.977-7.442-10.905
			c-3.068-6.524-5.63-13.325-7.846-20.192c-3.811-11.815-7.193-23.77-10.751-35.663c-0.175-0.592-0.489-1.216-0.424-1.791
			c1.008-8.674-3.048-16.516-4.015-24.798c-1.208-10.343-4.133-20.751-0.175-31.311c1.306-3.479,1.093-7.634,1.073-11.48
			c-0.041-7.418-0.314-14.835-0.738-22.24c-0.273-4.745,1.604-8.617,3.855-12.555c3.105-5.431,6.096-10.942,8.809-16.577
			c1.624-3.377,2.232-7.265,3.999-10.546c2.954-5.491,2.811-10.938,0.718-16.446c-1.061-2.787-0.727-5.166-0.241-8.054
			c0.828-4.924,0.249-10.082,0.269-15.141c0.004-0.902,0.053-1.799,0.086-2.701c1.159,0.135,2.542-0.085,3.431,0.478
			c2.203,1.391,4.309,2.999,6.222,4.77c10.983,10.139,22.835,19.078,36.3,25.646c10.033,4.896,20.812,7.401,31.714,9.711
			c10.795,2.288,21.604,2.072,32.464,2.121c6.671,0.028,13.342,0.004,20.012,0c0.253,0,0.535,0.073,0.751-0.017
			c6.312-2.578,12.191,0.943,18.274,1.208c7.07,0.306,14.533,2.212,20.947-2.986c0.412-0.331,2.542,0.44,2.77,1.089
			c0.812,2.302,1.706,4.803,1.559,7.165c-0.449,7.18-1.391,14.329-2.101,21.497c-0.555,5.569-1.522,11.151-1.473,16.72
			c0.09,10.188-2.048,19.98-4.349,29.764c-1.093,4.647-3.178,9.115-3.843,13.799c-0.686,4.802-0.412,9.784-0.163,14.668
			c0.616,12.101,1.95,24.186,2.068,36.283c0.118,12.252-0.714,24.521-1.448,36.765c-0.355,5.924-1.612,11.787-2.081,17.707
			c-0.13,1.641,0.616,3.938,1.799,4.986c3.729,3.312,3.411,8.339-0.073,12.301c-4.198,4.777-3.505,8.123,2.599,9.69
			c4.492,1.15,9.237,1.465,13.893,1.787c3.484,0.24,4.476,1.122,2.999,4.279c-1.514,3.235-0.604,4.513,2.631,5.708
			c7.074,2.607,14.354,2.713,21.693,2.685c3.275-0.012,6.609,0.38,9.809-0.105c3.418-0.522,6.711-1.865,10.109-2.868
			c-1.133-6.549-3.186-8.552-9.57-9.127c-6.781-0.612-14.17-8.932-14.537-15.676c-0.176-3.219-0.719-6.969-2.521-9.438
			c-3.619-4.965-4.672-10.502-5.68-16.218c-2.346-13.305-3.559-26.688-3.053-40.217c0.273-7.344,0.809-14.626,4.248-21.289
			c4.703-9.114,3.275-18.649,2.562-28.267c-0.449-6.03,0.139-12.138,0.305-18.209c0.029-0.979,0.486-1.962,0.441-2.929
			c-0.701-14.717,2.521-28.797,6.381-42.865c2.672-9.742,4.105-19.82,6.699-29.583c0.662-2.484,3.236-5.259,5.635-6.336
			c6.977-3.133,11.629-8.519,15.5-14.623c2.08-3.28,4.379-3.57,7.523-2.591c5.875,1.824,11.674,3.99,17.654,5.353
			c6.496,1.481,13.154,2.276,19.76,3.243c4.287,0.628,8.65,1.665,12.908,1.396c7.377-0.465,14.686-1.971,22.053-2.738
			c15.982-1.668,28.576-10.449,40.846-19.625c4.346-3.252,7.34-8.242,11.375-11.987c9.768-9.07,11.371-22.272,17.266-33.289
			c2.053-3.831,5.48-7.005,5.713-11.84c0.045-0.942,2.061-1.787,3.387-2.852c-1.07-1.518-2.986-3.766,1.48-3.554
			c0.432-4.007,0.135-8.079,4.084-11.037c1.229-0.922,1.154-3.868,1.281-5.916c0.266-4.3,1.648-5.451,5.908-5.944
			c6.748-0.784,13.436-2.077,20.162-3.064c2.584-0.38,5.248-0.294,7.793-0.824c1.494-0.31,2.764-1.567,4.232-2.142
			c3.406-1.326,6.801-2.815,10.346-3.574c1.506-0.322,3.443,0.865,5.059,1.64c2.979,1.428,5.504,2.032,8.572-0.424
			c2.057-1.648,5.219-1.876,7.811-2.925c0.934-0.379,2.32-1.269,2.357-1.987C561.352,126.917,550.543,111.981,543.02,109.79z"/>
	</g>
</g>
<g>
</g>
<g>
</g>
<g>
</g>
<g>
</g>
<g>
</g>
<g>
</g>
<g>
</g>
<g>
</g>
<g>
</g>
<g>
</g>
<g>
</g>
<g>
</g>
<g>
</g>
<g>
</g>
<g>
</g>
</svg>
