<?xml version="1.0" encoding="iso-8859-1"?>
<!-- Generator: Adobe Illustrator 16.0.0, SVG Export Plug-In . SVG Version: 6.00 Build 0)  -->
<!DOCTYPE svg PUBLIC "-//W3C//DTD SVG 1.1//EN" "http://www.w3.org/Graphics/SVG/1.1/DTD/svg11.dtd">
<svg version="1.1" id="Capa_1" xmlns="http://www.w3.org/2000/svg" xmlns:xlink="http://www.w3.org/1999/xlink" x="0px" y="0px"
	 width="557.856px" height="557.856px" viewBox="0 0 557.856 557.856" style="enable-background:new 0 0 557.856 557.856;"
	 xml:space="preserve">
<g>
	<g>
		<path d="M504.325,482.611c1.261,8.98,5.414,15.432,15.463,15.188c15.287-0.377,26.495-8.268,33.994-20.984
			c6.479-10.996,4.545-21.832-1.016-31.293c-0.094-3.799-1.244-7.373-2.95-11.131l-1.105-2.439
			c1.122-4.432,0.062-9.789-2.644-17.545c-7.687-22.064-19.702-40.09-44.423-46.98c-0.539,2-1.073,4.002-1.604,6.006
			c0.673-8.756-3.179-17.891-11.51-21.918c-0.657-0.742-1.313-1.449-1.95-2.094c-14.692-14.818-33.272-22.146-53.791-25.936
			c-0.22,1.652-0.461,3.297-0.706,4.936c-1.265-5.744-4.562-10.953-9.897-13.961c-1.652-1.672-3.664-3.174-5.884-4.541
			c-18.323-11.273-56.21-18.467-78.96-14.77c0.09,1.346,0.126,2.68,0.188,4.02c-3.125-6.676-9.478-11.723-19.103-11.723
			c-0.106,0-0.204,0.012-0.31,0.012c-2.767-0.82-6.006-1.451-9.821-1.957c-8.727-1.164-17.556-1.584-26.353-2.131
			c-2.852-0.18-5.749,0.314-8.511,0.494c-0.021,0.086-0.037,0.172-0.057,0.252c-0.857-0.953-1.803-1.84-2.856-2.623
			c-1.408-5.813-4.92-11.02-10.539-13.872c-0.282-0.375-0.555-0.771-0.853-1.11c-5.998-6.838-11.595-6.781-16.654-1.444
			c0.123-3.586,0.245-7.176,0.367-10.763c0.188-5.508-1.975-10.583-5.488-14.488c-2.566-7.87-8.438-15.932-17.556-24.517
			c-0.996,1.412-2.003,2.799-3.023,4.166c2.081-5.867,1.853-12.648-0.673-18.319c-0.024-0.412-0.041-0.828-0.086-1.224
			c-2.183-18.846-11.758-34.374-24.427-50.119c-0.494,1.093-0.992,2.179-1.493,3.264c0.151-0.437,0.334-0.861,0.461-1.31
			c1.497-5.447,0.955-12.228-2.228-17.038c-0.735-1.11-1.465-2.215-2.199-3.325c-0.869-1.469-1.893-2.783-3.027-3.986
			c-2.371-4.248-5.965-8.903-10.951-14.725c-9.339-10.897-19.352-21.228-29.046-31.824C132.51,69.28,118.357,64.42,103.934,60.051
			H77.398c-3.228,0.991-6.467,1.987-9.796,3.011c-0.596,0.008-1.191,0.016-1.787,0.024c-2.464-0.135-5.018,0.041-6.854,0.75
			c-5.581,2.158-5.414,2.073-10.024,5.843c-0.542,0.445-1.077,1.032-1.595,1.685c-3.248,0.465-6.618,1.383-10.061,2.794
			C15.704,82.997,3.342,98.95,0,121.969v13.268c4.19,13.595,13.631,21.053,27.377,23.579c2.154,0.396,4.476,0.812,6.287,1.921
			c3.603,2.208,6.973,4.798,10.408,7.275c0.065,0.51,0.139,1.02,0.232,1.53c-2.586,3.187-5.026,6.52-7.943,9.364
			c-2.774,2.697-6.206,4.725-9.89,7.45c8.021,3.464,18.637,2.313,28.352-1.962c2.525,1.334,5.483,2.17,8.882,2.37
			c-2.032,2.322-3.305,5.223-2.574,9.641c0.273,1.648-4.39,4.431-7.099,6.185c-4.553,2.954-9.364,5.504-14.068,8.226
			c0.082,1.232,0.163,2.468,0.245,3.701c10.384,0.457,20.767,0.91,32.403,1.419c-0.347,14.313-14.586,11.991-22.15,18.964
			c8.874,4.357,17.777,5.353,26.639,4.712c2.313,3.097,5.512,5.557,9.616,6.896c1.367,4.398,3.439,8.331,6.12,11.599
			c0.694,4.57,2.627,8.903,5.831,12.208c-0.372-0.106-0.747-0.192-1.118-0.302c2.889,12.525,4.459,23.922,8.274,34.508
			c3.313,9.197,1.04,14.77-5.623,21.123c-4.875,4.65-7.642,11.514-11.346,17.389c7.042,1.648,14.37,5.471,21.085,4.602
			c7.605-0.986,14.92-2.418,22.003-4.205c1.75,1.773,3.864,3.234,6.348,4.268c7.98,9.873,13.905,17.928,20.588,25.287
			c9.776,10.76,9.764,12.318,1.444,24.309c-3.244,4.676-4.451,10.768-6.581,16.219c6.295,0.709,13.076,3.279,18.809,1.799
			c12.473-3.23,24.154-8.029,34.529-14.814c1.93,0.525,4.023,0.84,6.32,0.84c0.914,0,1.791-0.061,2.644-0.15
			c-0.049,0.041-0.094,0.082-0.143,0.123c7.916,1.42,14.48,2.646,21.061,3.77c5.418,0.922,10.975,1.289,16.267,2.676
			c7.948,2.082,11.424,6.398,8.519,15.512c-1.836,5.754-0.702,12.449-0.902,18.725c6.838-1.506,15.573-0.883,20.135-4.945
			c9.829-8.76,20.2-18.266,26.753-29.412c1.289,0.211,2.64,0.342,4.075,0.342c1.914,0,3.692-0.203,5.346-0.576h44.215
			c-6.565,7.654-11.73,13.674-16.896,19.695c0.29,1.191,0.583,2.379,0.873,3.566c5.749,0.309,11.967,2.186,17.164,0.641
			c11.18-3.334,21.914-8.104,29.988-15.754c2.117,0.746,4.484,1.184,7.096,1.248c-0.11,0.152-0.209,0.307-0.318,0.461
			c12.619,6.105,25.451,12.221,38.201,18.504c3.741,1.844,7.352,2.783,10.819,2.904c3.248,3.232,7.732,5.41,13.465,5.74
			c10.049,5.121,19.196,10.184,28.857,13.918c0.93,0.359,1.938,0.641,2.97,0.877c2.579,3.672,6.365,6.508,11.363,7.76
			c-0.804,0.396-1.591,0.787-2.395,1.184C502.917,471.221,503.529,476.93,504.325,482.611z"/>
	</g>
</g>
<g>
</g>
<g>
</g>
<g>
</g>
<g>
</g>
<g>
</g>
<g>
</g>
<g>
</g>
<g>
</g>
<g>
</g>
<g>
</g>
<g>
</g>
<g>
</g>
<g>
</g>
<g>
</g>
<g>
</g>
</svg>
