<?xml version="1.0" encoding="iso-8859-1"?>
<!-- Generator: Adobe Illustrator 16.0.0, SVG Export Plug-In . SVG Version: 6.00 Build 0)  -->
<!DOCTYPE svg PUBLIC "-//W3C//DTD SVG 1.1//EN" "http://www.w3.org/Graphics/SVG/1.1/DTD/svg11.dtd">
<svg version="1.1" id="Capa_1" xmlns="http://www.w3.org/2000/svg" xmlns:xlink="http://www.w3.org/1999/xlink" x="0px" y="0px"
	 width="578.161px" height="578.161px" viewBox="0 0 578.161 578.161" style="enable-background:new 0 0 578.161 578.161;"
	 xml:space="preserve">
<g>
	<path d="M577.909,218.228c-0.518-2.75-1.746-5.153-3.603-7.267c-2.819-3.215-5.965-6.034-9.588-8.315
		c-0.29-0.184-0.584-0.355-0.877-0.522c-4.953-5.202-13.109-6.414-19.311-2.938c-7.36,1.061-14.505,3.076-21.653,5.051
		c-14.463,3.99-28.902,8.079-43.37,12.053c-0.538,0.146-1.077,0.293-1.615,0.44c-0.629-0.078-1.273-0.033-1.906,0.167
		c-2.713,0.849-5.43,1.701-8.144,2.55c-4.884,1.302-9.775,2.583-14.676,3.839c-3.807,0.975-7.703,1.583-11.525,2.493
		c-6.883,1.64-13.856,2.734-20.869,3.619c-1.607,0.204-3.228,0.388-4.843,0.396c-7.65,0.037-15.309,0.355-22.946-0.514
		c-3.66-0.417-7.353-0.551-11.021-0.931c-2.297-0.236-4.569-0.73-6.862-1.02c-4.121-0.514-8.245-1.012-12.375-1.424
		c-4.275-0.424-8.556-0.861-12.844-1.052c-4.908-0.225-9.824-0.253-14.736-0.249c-5.479,0.004-10.906,0.686-16.3,1.628
		c-6.328,1.105-12.521,2.742-18.634,4.704c-6.226,1.999-12.333,4.329-18.286,7.018c-4.345,1.962-8.552,4.231-12.856,6.292
		c-4.558,2.183-9.066,4.496-13.75,6.369c-6.034,2.412-12.109,4.717-18.192,7.005c-2.334,0.502-4.655,1.069-6.948,1.775
		c-5.998,1.84-11.816,4.28-17.32,7.291c-0.094,0.041-0.192,0.078-0.29,0.118c-9.319,3.872-18.972,6.785-28.503,10.041
		c-5.022,1.718-10.106,3.231-15.243,4.541c-5.043,1.13-10.094,2.22-15.153,3.264c-7.336,1.399-14.676,2.799-22.036,4.064
		c-8.009,1.378-16.039,2.626-24.088,3.749c-3.447,0.481-6.96,0.563-10.445,0.71c-5.61,0.236-11.224,0.318-16.83,0.571
		c-5.953,0.27-11.848,1.049-17.654,2.415c-5.598,1.318-11.216,2.575-16.761,4.084c-6.271,1.71-12.526,3.525-18.695,5.573
		c-6.12,2.032-12.097,4.496-17.846,7.446c-0.135,0.069-0.273,0.143-0.408,0.212l-1.04,0.314c-0.298,0.09-0.474,0.294-0.547,0.522
		c-2.158,1.163-4.284,2.387-6.418,3.595c-0.408,0.232-1.028,0.424-0.881,1.354c1.094-0.421,2.097-0.8,3.093-1.196
		c1.632-0.645,3.24-1.346,4.888-1.941c3.941-1.424,7.838-3.02,11.861-4.142c5.561-1.55,11.195-2.885,16.854-4.015
		c2.309-0.461,4.631-0.845,6.96-1.203c4.431-0.657,8.866-1.31,13.297-1.967c2.856-0.314,5.72-0.474,8.588-0.51
		c0.167,0.028,0.338,0.053,0.51,0.065c7.769,0.595,15.553,0.823,23.325,0.697c2.754,0.18,5.504,0.404,8.25,0.648
		c8.972,0.804,17.96,0.894,26.96,0.73c5.137-0.094,10.273-0.012,15.406-0.102c1.808-0.033,3.607-0.335,5.41-0.502
		c3.052-0.282,6.104-0.56,9.155-0.816c1.722-0.146,3.456-0.18,5.169-0.379c3.55-0.412,7.095-0.854,10.628-1.367
		c1.028-0.151,2.052-0.302,3.081-0.449c7.172-0.849,14.321-1.909,21.432-3.174c1.742-0.261,3.488-0.526,5.23-0.792
		c2.064-0.313,4.08-0.942,6.145-1.276c3.815-0.62,7.625-0.277,11.44,0.18c4.741,0.566,9.49,1.093,14.251,1.444
		c4.986,0.367,9.979,0.624,14.908,1.55c5.479,1.028,10.747,2.726,15.896,4.855c3.011,1.244,6.145,2.19,9.213,3.301
		c0.253,0.09,0.616,0.403,0.612,0.604c-0.102,3.99,0.094,8.046-1.595,11.791c-0.996,2.203-2.207,4.321-3.464,6.39
		c-2.995,4.925-5.614,10.041-8.025,15.271c-1.893,4.108-3.864,8.172-6.349,11.979c-1.477,2.261-2.574,4.762-4.006,7.055
		c-0.571,0.918-1.379,1.746-2.252,2.407c-1.702,1.428-3.399,2.86-5.096,4.288c-0.702,0.592-0.743,1.726-0.318,2.473
		c0.906,1.604,2.02,3.031,3.297,4.284c0.229,0.347,0.457,0.697,0.698,1.036c0.522,0.738,1.546,1.171,2.407,1.619
		c0.616,0.318,1.244,0.612,1.876,0.878c0.004,0.004,0.008,0.004,0.012,0.008c0.008,0.004,0.017,0.004,0.025,0.008
		c1.579,0.661,3.227,1.106,5.014,1.049c2.203-0.069,4.41-0.073,6.614-0.131c0.383-0.008,0.775-0.098,1.15-0.204
		c1.289-0.367,2.428-0.102,3.443,0.755c0.959,0.809,1.767,0.608,1.979-0.607c0.722-4.17-0.935-7.683-5.508-8.817
		c-0.408-0.102-0.853-0.09-1.285-0.049c-0.249-0.049-0.501-0.073-0.763-0.073h-0.461c-0.571-0.208-0.89-0.714-0.959-1.546
		c-0.225-2.791,0.575-5.235,2.407-7.356c0.857-0.991,1.648-2.04,2.48-3.048c1.95-2.358,4.443-4.052,6.981-5.684
		c2.346-1.51,4.153-3.533,5.684-5.834c4.162-6.264,7.389-13.057,11.102-19.572c2.073-3.64,3.986-7.368,6.1-10.979
		c0.759-1.297,1.885-2.387,2.88-3.541c0.42-0.485,0.779-0.47,1.118,0.195c1.437,2.84,2.941,5.644,4.361,8.487
		c0.27,0.538,0.396,1.224,0.359,1.831c-0.27,4.378-0.747,8.776-0.004,13.13c0.432,2.542,1.191,5.047,2.02,7.495
		c1.068,3.153,1.709,6.381,2.149,9.665c0.221,1.657,0.502,3.313,0.641,4.978c0.131,1.551,0.021,3.126,0.176,4.676
		c0.163,1.628,0.469,3.248,0.787,4.859c0.466,2.371,0.27,4.651-0.701,6.875c-0.298,0.682-0.571,1.412-0.645,2.142
		c-0.188,1.861,0.755,2.84,2.627,2.84c6.455,0.009,20.931,0.045,21.714,0.029c1.6-0.037,2.317-1.082,1.791-2.604
		c-0.229-0.657-0.493-1.298-0.759-1.942c-1.04-2.55-3.215-3.129-5.65-3.243c-0.53-0.024-1.065-0.045-1.592,0.004
		c-1.456,0.135-2.477-0.583-3.256-1.685c-1.407-2-2.264-4.125-2.248-6.688c0.033-4.77,0.502-9.457,1.396-14.146
		c0.963-5.055,1.408-10.18,0.865-15.349c-0.768-7.274-1.478-14.558-2.207-21.841c-0.114-1.134-0.106-1.187,1.027-1.224
		c3.068-0.098,6.145-0.094,9.209-0.232c4.798-0.225,9.604-0.412,14.391-0.837c5.952-0.53,11.885-1.272,17.825-1.95
		c1.521-0.171,3.031-0.424,4.798-0.677c-0.718,0.991-1.261,1.808-1.873,2.578c-2.256,2.84-4.545,5.655-6.793,8.499
		c-2.289,2.896-3.664,6.238-4.732,9.739c-1.62,5.295-2.366,10.746-2.844,16.233c-0.049,0.58-0.103,1.163-0.155,1.742
		c-0.159,0.425-0.204,0.89-0.126,1.347c-0.567,5.994-1.294,11.963-2.583,17.851c-0.094,0.232-0.151,0.473-0.172,0.718
		c-0.518,2.061-1.301,4.06-1.999,6.075c-0.22,0.632-0.648,1.195-1.02,1.767c-0.8,1.228-0.938,2.509-0.253,3.811
		c0.665,1.261,1.754,1.93,3.187,1.942c1.477,0.008,8.021,0.244,8.682,0.24c0.556-0.004,1.351-0.036,1.607-0.379
		c0.318-0.429,0.38-1.245,0.208-1.783c-0.175-0.56-0.722-1.032-1.183-1.465c-0.404-0.38-0.571-0.751-0.526-1.31
		c0.208-2.652,0.575-5.234,1.763-7.69c0.701-1.453,1.118-3.077,1.456-4.668c0.845-3.945,2.636-7.52,4.149-11.208
		c2.15-5.242,4.361-10.469,6.279-15.802c0.869-2.415,1.098-5.059,1.624-7.601c0.073-0.355,0.106-0.738,0.273-1.045
		c1.053-1.93,2.036-3.908,3.228-5.753c2.852-4.418,6.034-8.597,9.678-12.403c0.362-0.379,0.718-0.767,1.285-1.117
		c0.032,1.848,0.249,3.717,0.061,5.54c-0.604,5.835-1.465,11.641-2.007,17.479c-0.024,0.245-0.037,0.486-0.049,0.73
		c-0.486,1.045-0.616,2.244-0.286,3.411c0.094,0.322,0.184,0.648,0.277,0.971c0.131,0.453,0.307,0.854,0.522,1.216
		c0.114,0.604,0.241,1.204,0.371,1.804c1.021,4.647,3.027,8.895,5.419,12.922c2.574,4.328,4.427,8.935,6.062,13.659
		c0.763,2.207,1.229,4.484,1.236,6.81c0.004,1.024-0.4,2.057-0.682,3.068c-0.155,0.559-0.416,1.094-0.673,1.62
		c-0.539,1.093,0.041,1.872,0.734,2.599c0.135,0.143,0.461,0.143,0.697,0.143c1.567,0.008,13.301,0.103,14.031,0.172
		c0.906,0.085,1.334-0.262,1.269-1.163c-0.102-1.465-1.187-2.529-2.64-2.726c-0.265-0.037-0.587-0.433-0.693-0.727
		c-0.229-0.624-0.404-1.256-0.538-1.893c0.289-0.897,0.33-1.877,0.064-2.836l-0.559-2.02c-0.041-1.31,0.032-2.627-0.098-3.925
		c-0.118-1.154-0.506-2.276-0.734-3.423c-0.738-3.75-1.453-7.508-2.188-11.257c-1.619-8.274-3.093-16.585-5.842-24.599
		c-0.262-0.759-0.099-1.705,0.02-2.542c1.2-8.348,2.428-16.687,3.652-25.03c0.061-0.416,0.188-0.824,0.195-1.24
		c0.024-1.44,0.727-2.481,1.751-3.439c3.402-3.195,4.704-7.373,5.602-11.812c0.004-0.012,0.004-0.024,0.008-0.037
		c0.44-0.53,0.779-1.146,0.877-1.771c0.119-0.739,0.217-1.498,0.221-2.256c1.787-5.166,4.884-9.584,9.273-13.162
		c2.856-2.326,6.247-3.778,9.548-5.37c7.69-3.705,15.765-6.462,23.688-9.596c7.898-3.122,15.749-6.369,23.59-9.629
		c6.32-2.627,12.604-5.341,18.891-8.046c3.052-1.313,6.051-2.738,9.106-4.043c6.7-2.86,13.484-5.504,20.567-7.262
		c4.79-1.191,9.678-1.555,14.623-1.134c2.729,0.232,5.328,0.755,7.797,2.003c1.942,0.979,3.61,2.26,4.876,3.998
		c1.726,2.367,3.361,4.798,4.998,7.23c0.481,0.714,1.126,1.102,1.93,1.167c2.309,0.184,4.622,0.314,6.936,0.449
		c0.302,0.016,0.616-0.024,0.914-0.078c1.021-0.192,1.184-0.714,0.608-1.579c-0.176-0.266-0.303-0.567-0.425-0.89
		c1.322-1.2,0.942-4.305,0.538-3.244c-0.126,0.327-0.371,0.58-0.645,0.795c0.441-1.342,0.151-2.925-0.159-2.125
		c-0.171,0.449-0.566,0.767-0.971,1.016c0.314-1.269,0.049-2.583-0.236-1.84c-0.188,0.494-0.637,0.836-1.077,1.089
		c0.27-1.228,0.008-2.44-0.27-1.718c-0.253,0.661-0.946,1.065-1.489,1.306c-0.062-0.065-0.122-0.135-0.184-0.2
		c1.139-0.996,1.673-2.848,1.004-2.208c-0.44,0.42-1.114,0.535-1.673,0.547c0.518-0.808,0.734-1.828,0.669-2.203
		c0.326-0.123,0.824-0.449,1.273-0.918c0.224,0.069,0.437,0.167,0.665,0.229c-0.017,0.371-0.078,0.738-0.286,1.044
		c-0.424,0.628,0.678,0.179,1.526-0.71c0.081,0.016,0.158,0.037,0.236,0.049c0.017,0.204,0.032,0.388,0.045,0.555
		c0.098,0.082,0.184,0.089,0.27,0.089c-0.005,0.212,0.004,0.429-0.078,0.625c-0.253,0.632,0.51,0.147,1.135-0.718
		c0.204,0.143,0.338,0.302,0.42,0.494c-0.086,0.155-0.151,0.322-0.281,0.445c-0.567,0.522,0.656,0.318,1.697-0.383
		c-0.074,0.501-0.225,1.044-0.612,1.403c-0.588,0.539,0.73,0.302,1.791-0.453l0.004,0.004c-0.085,0.461-0.232,0.942-0.583,1.265
		c-0.596,0.547,0.771,0.294,1.836-0.49c0.045,0.013,0.09,0.033,0.139,0.041c-0.102,0.261-0.241,0.514-0.444,0.702
		c-0.73,0.673,1.501,0.147,2.492-1.114c0.163-0.016,0.331-0.004,0.519,0.041c0.645,0.167,0.828-0.306,1.032-0.734
		C578.301,222.565,578.317,220.402,577.909,218.228z M564.29,222.94c-0.094,0.134-0.102,0.212-0.069,0.253
		c-0.428,0.616-1.244,0.824-1.823,0.918c0.979-1.204,1.138-3.264,0.604-2.477c-0.478,0.706-1.526,0.922-2.085,0.991
		c-0.498-0.75-0.905-1.554-1.371-2.326c-0.212-0.355-0.253-0.681-0.188-0.987c1.656,1.016,3.411,1.832,5.219,2.505
		C564.567,222.214,564.511,222.614,564.29,222.94z"/>
</g>
<g>
</g>
<g>
</g>
<g>
</g>
<g>
</g>
<g>
</g>
<g>
</g>
<g>
</g>
<g>
</g>
<g>
</g>
<g>
</g>
<g>
</g>
<g>
</g>
<g>
</g>
<g>
</g>
<g>
</g>
</svg>
