<?xml version="1.0" encoding="iso-8859-1"?>
<!-- Generator: Adobe Illustrator 16.0.0, SVG Export Plug-In . SVG Version: 6.00 Build 0)  -->
<!DOCTYPE svg PUBLIC "-//W3C//DTD SVG 1.1//EN" "http://www.w3.org/Graphics/SVG/1.1/DTD/svg11.dtd">
<svg version="1.1" id="Capa_1" xmlns="http://www.w3.org/2000/svg" xmlns:xlink="http://www.w3.org/1999/xlink" x="0px" y="0px"
	 width="591.354px" height="591.354px" viewBox="0 0 591.354 591.354" style="enable-background:new 0 0 591.354 591.354;"
	 xml:space="preserve">
<g>
	<path d="M28.289,293.122c10.196,4.035,20.62,5.075,31.408,4.925c8.862-0.123,17.267-2.036,25.084-5.949
		c10.547-5.279,20.877-11.004,31.232-16.662c7.319-3.999,14.219-8.589,20.612-13.889c0.522-0.433,1.306-1.195,1.759-1.697
		c8.69-9.604,17.846-18.756,28.396-26.275c7.817-6.728,16.475-11.469,26.259-13.333c0.665-0.126,1.734-0.367,2.387-0.546
		c8.764-2.412,17.85-3.472,26.997-3.309c0.677,0.012,1.738-0.163,2.362-0.416c0.873-0.355,1.742-0.734,2.607-1.151
		c1.489-0.714,3.019-1.346,4.582-1.917c0.637-0.232,1.64-0.661,2.248-0.955c5.406-2.607,11.31-4.309,17.381-5.157
		c5.284-0.734,10.567-0.885,15.847-0.792c5.537-0.184,11.09-0.11,16.61,0.167c8.148,0.412,16.157,1.346,23.962-2.326
		c6.749-3.174,14.183-3.933,21.534-4.264c10.715-0.481,21.449-0.51,32.171-0.743c0.225-0.004,0.449-0.053,0.824-0.13
		c0.453-0.094,0.335-0.417-0.253-0.747c-0.946-0.531-1.64-0.951-2.391-1.191c-4.704-1.51-6.703-4.627-6.658-9.601
		c0.021-2.427-0.955-4.924-1.775-7.291c-0.098-0.282-0.191-0.563-0.281-0.845c-0.146-0.469-0.559-1.326-0.783-1.962
		c-0.249-0.706-0.367-1.461-0.363-2.22c0.004-0.677,0.082-1.767,0.11-2.439c0.081-1.971,0.592-3.921,1.709-5.843
		c0.457-0.788,1.628-1.481,2.53-1.571c0.521-0.049,1.24,1.146,1.75,1.869c0.139,0.2,0.273,0.408,0.404,0.624
		c0.212,0.351,0.665,0.653,1.032,0.714c0.367,0.061,0.987-0.171,1.452-0.481s1.265-0.894,1.819-1.281
		c2.379-1.661,5.211-1.208,6.577,1.734c0.27,0.58,0.555,1.134,0.857,1.669c0.098,0.151,0.188,0.306,0.269,0.465
		c2.375,3.999,5.688,6.806,9.846,9.176c2.003,1.143,3.99,2.313,5.969,3.497c12.762,7.328,25.524,14.651,38.286,21.979
		c6.397,3.248,12.824,6.442,19.042,10c5.993,3.427,12.13,6.169,18.466,8.091c0.648,0.196,1.718,0.433,2.387,0.543
		c4.852,0.787,9.702,1.575,14.554,2.362c0.669,0.11,1.759,0.22,2.432,0.236c1.575,0.037,3.166,0.024,4.773-0.049
		c0.873-0.037,1.795-0.021,2.619,0.22c5.378,1.562,10.314,1.302,15.533-1.424c2.844-1.485,5.12-3.072,6.516-5.296
		c0.358-0.571,0.522-1.257,0.559-1.473c0.021-0.119,0.069-0.241,0.147-0.363c0,0,0.081-0.126,0.184-0.286
		c0.102-0.159,0.342-0.812,0.456-1.477c0.123-0.702,0.188-1.453,0.184-2.264c-0.008-2.689,2.62-3.9,4.681-2.15
		c1.203,1.02,1.791,2.856,2.439,4.415c0.098,0.232,0.188,0.469,0.27,0.71c0.139,0.4,0.351,0.881,0.412,1.102
		c0.061,0.22,0.15,0.828,0.253,1.347c0.061,0.314,0.114,0.628,0.159,0.942c0.306,2.211,0.954,4.586,0.452,6.65
		c-0.641,2.64-1.979,5.112-3.231,7.842c-0.281,0.616,0.009,1.322,0.645,1.55c0.837,0.302,1.682,0.571,2.538,0.775
		c0.657,0.159,1.746,0.22,2.424,0.2c0.791-0.029,1.583-0.053,2.374-0.082c0.678-0.024,1.746-0.163,2.367-0.375
		c0.362-0.126,0.726-0.269,1.097-0.44c1.783-0.812,3.231-1.885,4.509-3.113c0.485-0.469,1.094-1.375,1.469-1.938
		c0.339-0.506,0.73-0.975,1.159-1.408c0.477-0.477,1.248-1.252,1.656-1.795c0.253-0.339,0.51-0.681,0.767-1.02
		c1.204-1.583,3.893-3.35,5.533-3.044c3.953,0.743,6.454,3.383,7.698,7.042c0.217,0.64,0.6,1.66,0.833,2.297
		c0.514,1.42,0.722,2.966,0.583,4.533c-0.058,0.673-0.094,1.759,0.106,2.403c0.497,1.624,1.489,3.031,3.627,3.88
		c4.382,1.742,8.91,3.223,13.056,5.422c7.242,3.843,14.9,6.736,19.241,15.043c5.137,9.829,4.505,19.172,0.902,28.854
		c-1.249,3.357-3.053,3.333-5.129,0.31c-0.991-1.444-1.942-2.921-2.774-4.21c-0.367-0.567-1.114-0.714-1.673-0.331
		c-9.278,6.361-18.271,12.143-29.335,11.873c-0.678-0.017-1.771,0.013-2.444,0.077c-2.036,0.2-4.084,0.298-6.132,0.307
		c-0.678,0.004-1.767,0.073-2.44,0.143c-6.479,0.657-12.896-0.6-19.237-1.95c-10.624-2.265-21.081-5.161-32.097-5.21
		c-4.097-0.017-8.181-1.388-12.277-2.073c-1.396-0.232-2.844-0.448-4.243-0.343c-4.264,0.327-8.608,0.4-12.754,1.335
		c-5.23,1.179-9.841,3.451-11.566,9.429c-0.445,1.546-0.959,3.093-1.538,4.614c-2.628,7.67-6.765,14.721-12.591,20.616
		c-0.474,0.481-1.196,1.302-1.608,1.836c-3.916,5.092-8.433,9.503-14.214,12.771c-4.366,2.469-7.377,6.491-9.996,10.841
		c-0.347,0.579-0.135,1.301,0.469,1.611c2.004,1.032,3.815,1.967,5.631,2.896c6.349,3.252,12.729,6.435,19.017,9.796
		c1.383,0.739,2.737,1.906,3.578,3.216c3.129,4.859,6.055,9.853,9.029,14.814c1.982,3.309,5.377,3.737,8.687,4.663
		c1.358,0.38,2.696,0.873,4.015,1.42c0.624,0.261,1.656,0.628,2.276,0.901c0.073,0.033,0.146,0.065,0.22,0.103
		c0.608,0.294,1.359,0.763,1.727,0.942c0.22,0.11,0.444,0.216,0.665,0.326c2.488,1.232,2.46,3.782,2.582,6.161
		c0.062,1.216,0.759,2.999,0.217,3.509c-0.873,0.824-2.595,1.228-3.859,1.064c-0.204-0.024-0.408-0.053-0.612-0.077
		c-0.335-0.041-1.086,0.208-1.734,0.392c-0.6,0.171-1.232,0.232-1.885,0.159c-0.399-0.045-0.8-0.094-1.199-0.139
		c-0.661-0.078-1.718,0.049-2.293,0.408c-0.571,0.354-1.122,0.824-1.648,1.428c-0.367,0.42-1.624,0.392-2.326,0.15
		c-5.234-1.819-10.412-3.802-15.643-5.622c-5.813-2.02-6.532-2.958-6.789-9.098c-0.114-2.755-0.648-5.129-4.129-5.729
		c-4.618-0.796-9.2-1.873-13.749-3.02c-9.331-2.354-18.646-4.773-27.92-7.34c-1.224-0.339-2.819-1.521-3.113-2.615
		c-0.979-3.66-1.913-7.446-1.971-11.199c-0.053-3.387,0.779-6.79,1.404-10.576c0.109-0.665-0.282-0.922-0.857-0.566
		c-4.112,2.525-7.915,4.834-11.685,7.192c-5.455,3.415-9.608,7.838-11.926,14.048c-1.481,3.962-3.881,7.572-5.627,11.448
		c-2.154,4.777-4.206,9.612-6.01,14.529c-0.853,2.325-0.637,5.067-1.6,7.327c-2.766,6.512-0.864,9.429,6.189,9.846
		c4.774,0.281,9.34,1.754,11.836,6.434c0.474,0.89,0.478,2.411,0.013,3.272c-0.266,0.493-1.913,0.306-2.938,0.31
		c-1.428,0.009-2.856-0.184-4.28-0.126c-3.664,0.139-7.486,1.118-10.946,0.367c-4.402-0.955-9.127-1.783-12.555-5.455
		c-3.288-3.521-8.515-4.925-10.424-10.09c-1.053-2.852-0.967-4.953,1.008-7.291c0.628-0.746,1.134-1.689,1.48-2.677
		c0.225-0.636,0.298-1.726,0.29-2.402c-0.012-0.837,0.008-1.682,0.057-2.526c0.037-0.673,0.058-1.762,0.058-2.436
		c0-0.771,0.053-1.53,0.221-2.269c1.709-7.585,3.704-15.108,5.785-22.599c0.592-2.13,1.199-4.252,1.819-6.373
		c1.392-5.174,2.783-10.352,4.174-15.524c0.176-0.653,0.082-1.224-0.208-1.24c-0.175-0.013-0.351-0.009-0.522,0.017
		c-10.049,1.428-19.959,0.081-29.897-1.286c-3.709-0.51-7.716-1.187-11.225-0.317c-5.483,1.358-10.722,3.811-15.932,6.104
		c-4.092,1.803-8.115,3.859-11.881,6.254c-1.077,0.682-2.061,3.742-1.539,4.329c2.464,2.763,5.157,5.618,8.356,7.356
		c4.631,2.518,6.292,4.606,4.729,9.58c-1.355,4.312-2.052,8.608-1.257,12.782c0.126,0.665,0.416,1.547,0.555,1.995
		c0.139,0.449,0.404,1.33,0.677,1.95c0.176,0.396,0.367,0.788,0.58,1.18c2.668,4.957,3.093,9.963,1.791,15.21
		c-0.22,0.886-0.922,1.648-1.607,2.415c-0.449,0.506-1.175,0.56-1.669,0.099c-0.889-0.824-1.791-1.637-2.493-2.596
		c-0.457-0.624-0.702-1.403-0.947-2.203c-0.2-0.645-0.869-0.905-1.485-0.624c-3.26,1.485-4.158,0.882-5.63-2.574
		c-0.257-0.608-0.27-1.42-0.694-1.84c-1.75-1.755-3.423-4.46-5.479-4.827c-3.154-0.562-3.782-2.35-4.456-4.672
		c-0.51-1.762-0.992-3.537-1.546-5.287c-1.616-5.063-6.1-9.38-3.966-15.447c0.163-0.461-0.298-1.269-0.669-1.771
		c-1.057-1.437-2.171-2.831-3.276-4.23c-0.42-0.531-1.265-0.768-1.901-0.535c-1.501,0.56-2.901,1.057-4.255,1.656
		c-7.014,3.093-13.468,6.806-17.944,13.456c-1.575,2.342-4.219,4.333-6.813,5.541c-4.345,2.016-7.209,4.981-8.176,9.567
		c-0.539,2.55-0.649,5.223-0.657,7.842c-0.017,4.627,2.382,6.797,7.03,7.405c5.149,0.678,9.633,2.9,12.697,7.287
		c0.437,0.624,0.592,1.44,0.747,2.264c0.123,0.666-0.286,1.27-0.955,1.38c-1.102,0.179-2.203,0.367-3.305,0.358
		c-1.563-0.012-3.117-0.51-4.68-0.559c-1.705-0.053-3.419,0.195-5.128,0.24c-0.971,0.024-2.272-0.521-2.856-0.073
		c-2.631,2.016-4.521,0.225-6.565-0.95c-0.734-0.421-1.44-0.894-2.129-1.384c-2.982-2.097-5.978-4.182-8.911-6.348
		c-0.486-0.359-0.759-1.073-1-1.678c-1.534-3.826-3.056-7.658-4.529-11.509c-1.077-2.815-1.942-5.479,0.396-8.348
		c2.681-3.289,4.835-7.002,7.328-10.453c3.668-5.076,6.875-10.645,11.281-14.986c7.764-7.649,14.602-15.646,18.694-25.969
		c1.991-5.019,5.37-9.503,8.262-14.138c1.236-1.975,0.775-2.676-1.375-3.084c-1.579-0.298-3.276-0.71-4.578-1.579
		c-6.479-4.333-12.828-8.866-19.266-13.256c-1.412-0.963-2.921-2.044-4.537-2.396c-9.511-2.08-19.021-4.238-28.621-5.806
		c-5.186-0.845-10.82-1.709-15.794-0.571c-14.716,3.374-29.27,7.536-43.77,11.787c-10.363,3.04-20.808,5.732-31.6,5.757
		c-11.347,0.024-22.799-0.146-33.607-4.541c-6.373-2.591-13.097-4.386-18.323-9.367c-6.218-5.929-13.244-10.551-22.012-11.918
		c-1.31-0.204-2.579-0.689-3.99-1.171c-0.641-0.22-0.89-0.856-0.449-1.371c2.375-2.75,5.618-2.023,8.074-1.559
		C15.057,289.083,21.907,290.597,28.289,293.122z"/>
</g>
<g>
</g>
<g>
</g>
<g>
</g>
<g>
</g>
<g>
</g>
<g>
</g>
<g>
</g>
<g>
</g>
<g>
</g>
<g>
</g>
<g>
</g>
<g>
</g>
<g>
</g>
<g>
</g>
<g>
</g>
</svg>
