<?xml version="1.0" encoding="iso-8859-1"?>
<!-- Generator: Adobe Illustrator 16.0.0, SVG Export Plug-In . SVG Version: 6.00 Build 0)  -->
<!DOCTYPE svg PUBLIC "-//W3C//DTD SVG 1.1//EN" "http://www.w3.org/Graphics/SVG/1.1/DTD/svg11.dtd">
<svg version="1.1" id="Capa_1" xmlns="http://www.w3.org/2000/svg" xmlns:xlink="http://www.w3.org/1999/xlink" x="0px" y="0px"
	 width="552.994px" height="552.994px" viewBox="0 0 552.994 552.994" style="enable-background:new 0 0 552.994 552.994;"
	 xml:space="preserve">
<g>
	<g>
		<path d="M531.724,255.26c-5.141-7.948-8.181-15.863-7.487-25.231c0.433-5.851,0.567-11.734,1.318-17.544
			c4.472-34.443-4.88-66.218-18.512-97.19c-0.669-1.521-1.84-2.819-3.492-5.292c-6.136,7.821-7.878,15.969-8.274,23.962
			c-0.412,8.262,0.054,16.899,2.073,24.884c4.961,19.633,4.149,38.968,0.808,58.707c-1.844,10.894-1.705,22.195-1.665,33.313
			c0.045,12.493,5.904,22.819,13.644,32.306c7.36,9.017,6.467,14.655-3.439,21.09c-12.28,7.972-25.605,11.583-40.212,7.898
			c-7.765-1.958-15.549-3.929-23.142-6.442c-12.008-3.974-19.192-14.483-18.842-27.222c0.27-9.771,0.616-19.56,1.436-29.294
			c1.146-13.672-1.86-26.39-7.617-38.646c-8.221-17.507-16.197-35.129-24.602-52.546c-14.844-30.751-41.646-45.969-73.131-53.505
			c-29.575-7.079-59.601-6.145-88.72,2.778c-16.349,5.01-33.003,7.715-49.601,11.22c-25.312,5.345-49.352,13.795-66.019,35.667
			c-7.075,9.282-16.699,14.9-29.241,18.254c1.249-4.455,2.513-7.886,3.105-11.424c0.53-3.178,1.416-7.018,0.151-9.588
			c-1.64-3.346-4.917-7.332-8.119-7.997c-2.342-0.485-7.271,3.362-8.339,6.275c-4.488,12.219-8.466,24.684-11.583,37.319
			c-1.587,6.438-4.051,10.282-10.681,12.065c-13.301,3.574-22.249,11.881-27.218,25.137c-3.562,9.506-9.025,18.283-13.342,27.52
			c-4.794,10.257-7.458,21.191-5.41,32.396c1.762,9.649,0.693,18.519-2.824,27.479c-3.668,9.344-4.504,18.646,2.815,26.875
			c1.383,1.551,3.623,3.811,5.108,3.562c10.241-1.705,14.994,9.087,23.979,10.221c1.342,0.172,2.285,3.525,3.182,5.022
			c0.265-0.946,0.722-2.603,1.379-4.957c5.406,4.871,5.043,6.275,4.223,1.188c0.432-0.086,0.869-0.176,1.301-0.262l12.416-9.037
			c7.066,2.946,8.56,6.039,5.736,9.784c-1.991-6.026-5.834-1.804-3.097,1.33c2.738,3.133,1.955,5.088-3.521,5.088
			c-5.479,0-8.748,5.997-8.748,5.997c0.465,3.436,0.09,6.573,5.325,6.292c1.713-0.09,3.362,3.28,5.422,4.092
			c7.556,2.971,13.611,0.575,18.951-4.39c0.625-0.123,1.212-0.343,1.697-0.689c0.796-0.567,1.591-1.139,2.387-1.706
			c0.951-0.682,1.726-1.411,2.244-2.374c7.977-4.929,15.349-2.069,21.914,2.284c14.92,9.895,30.722,10.343,47.083,5.447
			c5.21-1.559,9.429-0.212,14.088,1.542c12.02,4.521,24.076,8.992,36.308,12.885c7.487,2.383,14.419,0.836,20.673-4.684
			c6.181-5.455,15.063-4.978,21.612,0.154c4.782,3.746,5.067,12.114-0.653,15.696c-7.833,4.904-16.353,8.96-25.019,12.203
			c-5.928,2.22-12.575,2.737-18.959,3.477c-13.016,1.505-25.002,5.467-35.859,12.97c-3.117,2.154-6.875,3.525-10.51,4.745
			c-4.39,1.473-7.707,3.293-6.104,9.123c1.587-0.098,3.24-0.2,5.369-0.33c-0.461,1.089-0.84,1.986-1.379,3.268
			c1.191,0.217,2.317,0.718,3.321,0.543c2.884-0.502,5.039-2.416,7.878,1.86c1.648,2.48,8.07,2.076,12.383,2.362
			c1.987,0.131,4.17-2.383,5.585,1.236c0.253,0.645,2.558,0.894,3.803,0.677c7.083-1.224,14.259-1.95,20.053-7.233
			c2.068-1.889,5.459-2.354,8.274-3.387c1.62-0.592,3.664-0.566,4.896-1.579c8.813-7.222,19.898-8.641,30.09-12.436
			c8.478-3.158,16.72-7.389,24.304-12.325c3.517-2.289,5.671-7.165,7.573-11.273c1.273-2.75,2.114-4.419,5.545-4.704
			c3.611-0.302,7.479-1.199,10.608-2.954c9.004-5.043,18.682-7.258,28.739-6.862c11.942,0.465,22.289-3.448,31.975-9.694
			c6.957-4.492,14.28-6.602,22.632-6.573c19.882,0.065,34.432-8.376,42.257-27.405c3.521-8.567,2.733-7.805,11.461-4.476
			c23.525,8.968,47.675,10.021,72.139,5.112c18.743-3.758,32.297-15.316,42.762-30.62c5.721-8.368,5.818-18.233,1.901-27.047
			C545.016,277.753,538.777,266.17,531.724,255.26z"/>
	</g>
</g>
<g>
</g>
<g>
</g>
<g>
</g>
<g>
</g>
<g>
</g>
<g>
</g>
<g>
</g>
<g>
</g>
<g>
</g>
<g>
</g>
<g>
</g>
<g>
</g>
<g>
</g>
<g>
</g>
<g>
</g>
</svg>
