<?xml version="1.0" encoding="iso-8859-1"?>
<!-- Generator: Adobe Illustrator 16.0.0, SVG Export Plug-In . SVG Version: 6.00 Build 0)  -->
<!DOCTYPE svg PUBLIC "-//W3C//DTD SVG 1.1//EN" "http://www.w3.org/Graphics/SVG/1.1/DTD/svg11.dtd">
<svg version="1.1" id="Capa_1" xmlns="http://www.w3.org/2000/svg" xmlns:xlink="http://www.w3.org/1999/xlink" x="0px" y="0px"
	 width="567.53px" height="567.53px" viewBox="0 0 567.53 567.53" style="enable-background:new 0 0 567.53 567.53;"
	 xml:space="preserve">
<g>
	<g>
		<path d="M565.268,382.439c-7.793,6.467-15.586,12.934-23.378,19.4c-0.045-0.497-0.078-0.995-0.09-1.497
			c5.789-7.45,11.574-14.9,17.36-22.35c0.195-0.253,0.285-0.526,0.294-0.796c1.048-1.175,2.093-2.351,3.142-3.525
			c1.105-1.244-0.719-3.08-1.832-1.832c-6.667,7.483-13.334,14.966-20,22.452c-0.466,0-1.082,0-1.865,0
			c3.105-5.071,5.708-9.653,8.634-14.019c2.954-4.406,6.229-8.597,8.225-13.79c-5.148,6.838-10.298,13.68-15.446,20.518
			c-0.38-0.081-0.759-0.167-1.139-0.248c0.82-2.738,1.645-5.476,2.073-6.916c-0.168-0.751-0.331-1.477-0.49-2.195
			c4.684-7.217,9.368-14.431,14.052-21.648c0.914-1.403-1.33-2.7-2.235-1.306c-4.203,6.472-8.401,12.942-12.604,19.413
			c-0.191-0.861-0.38-1.701-0.563-2.529c4.158-9.132,8.312-18.263,12.469-27.394c0.686-1.51-1.546-2.823-2.235-1.306
			c-3.713,8.16-7.43,16.32-11.143,24.48c0.367-3.105,0.734-6.214,1.097-9.319c0.196-1.656-2.395-1.636-2.591,0
			c-0.064,0.571-0.134,1.146-0.203,1.718c-1.567-7.769-3.142-15.524-8.813-21.894c-1.42-1.595-1.853-4.397-2.04-6.699
			c-1.252-15.438-8.947-27.772-19.049-38.702c-5.725-6.189-8.389-12.432-8.222-21.27c0.392-20.6-11.053-35.961-26.218-48.16
			c-7.034-5.663-16.043-9.144-24.566-12.599c-6.344-2.575-9.559,0.82-7.776,7.56c0.976,3.692,2.856,7.181,4.554,10.649
			c4.071,8.303,8.449,16.463,12.305,24.864c0.976,2.122,0.441,4.929,0.604,7.421c-2.448,0.09-4.9,0.318-7.34,0.249
			c-10.262-0.282-20.596-1.591-30.755-0.747c-11.689,0.975-21.897,1.052-33.371-4.794c-15.487-7.891-32.868-13.688-50.041-16.14
			c-13.59-1.938-28.136,2.187-42.175,4.206c-21.448,3.085-42.399,7.887-60.4,21.004c-23.533,17.145-45.834,35.578-57.482,63.31
			c-3.317,7.891-5.341,16.332-7.516,24.7c-6.716-8.188-12.387-17.462-17.107-27.72c-6.182-13.436-11.689-27.185-18.14-40.481
			c-1.334-2.754-5.5-4.133-8.36-6.148c-1.301,0.714-2.603,1.424-3.904,2.138c0.82-18.352,2.529-36.724,2.158-55.055
			c-0.265-13.24,7.52-24.933,4.243-39.168c-1.583-6.891,6.047-16.055,9.895-24.002c4.472-9.245,9.371-18.283,14.431-28.086
			c-6.781-3.607-3.823-7.687,0.012-12.734c4.17-5.483,8.589-11.473,10.352-17.94c3.749-13.745,5.854-27.939,8.633-41.955
			c-0.979-0.273-1.962-0.546-2.941-0.816c-2.574,2.228-5.148,4.451-8.271,7.152c-1.746-2.521-3.235-4.672-5.43-7.842
			c-5.472,4.712-10.775,9.282-18.238,15.708c2.497-5.451,3.778-8.242,6.287-13.721c-5.911,4.831-9.783,7.993-13.655,11.155
			c-0.416-0.392-0.837-0.783-1.253-1.175c1.869-3.17,3.741-6.336,5.61-9.507c-0.425-0.844-0.853-1.689-1.277-2.529
			c-6.939,3.023-15.435,4.463-20.489,9.417C101.576,78.672,88.965,82.552,78.075,84c-14.872,1.975-14.394,11.326-17.148,20.379
			c-4.9,1.285-9.662,2.53-15.443,4.047c-1.028,4.92-2.367,11.306-4.284,20.478c-1.604-4.659-2.281-6.622-2.954-8.584
			c-0.853-0.367-1.701-0.734-2.554-1.102c-4.023,9.911-7.895,19.886-12.183,29.678c-0.996,2.276-3.419,3.929-5.186,5.871
			c-0.865-0.526-1.73-1.053-2.595-1.579c1.126,4.619,3.578,13.15,3.178,13.285c-9.719,3.309-1.359,10.359-3.742,15.691
			c-1.387-1.044-2.611-1.966-5.047-3.803c2.199,8.695-0.11,14.831-7.833,20.155c-0.392,5.859,6.96,14.19-1.962,21.277
			c-0.975,0.775,0.551,4.59,0.771,7.009c0.592,6.438,7.091,11.82,1.444,19.857c-1.677,2.387,4.986,10.637,8.854,18.205
			c-3.786-2.371-5.777-3.615-10.069-6.299c4.333,14.019,9.037,25.654,11.342,37.748c2.159,11.326,7.687,20.816,11.787,31.13
			c5.871,14.778,16.288,23.681,28.744,31.71c-1.256,0.184-2.432,0.359-3.606,0.53c11.138,22.053,32.362,32.318,51.987,44.436
			c9.221,5.691,18.213,11.881,27.895,16.654c7.988,3.938,16.679,6.757,25.341,8.964c7.523,1.918,15.051,3.86,22.587,5.749
			c3.076,4.741,6.928,8.563,11.718,11.779c1.897,1.272,3.447,3.067,5.794,5.201c-6.247,2.073-11.734,3.595-16.981,5.713
			c-7.376,2.978-8.286,8.09-1.334,11.954c8.552,4.753,17.789,8.878,27.238,11.269c12.934,3.272,26.059,5.247,37.903,12.184
			c4.223,2.472,9.804,2.627,15.822,4.1c-1.669-2.215-2.648-3.517-3.632-4.822c0.151-0.498,0.307-0.995,0.457-1.493
			c5.182,1.485,10.367,2.97,16.357,4.688c-1.91-2.721-3.358-4.781-5.104-7.271c2.958,0.816,5.491,1.518,8.025,2.22
			c0.384-0.579,0.767-1.158,1.15-1.738c-5.451-4.341-10.905-8.687-16.593-13.219c7.307-2.432,13.239-1.771,20.575,1.819
			c7.882,3.855,17.192,7.189,27.181,2.999c4.998-2.097,11.392-0.579,16.936-1.729c7.467-1.551,13.84-1.281,18.834,5.405
			c0.856,1.146,3.011,1.783,4.602,1.853c8.104,0.339,15.361,2.615,22.661,6.438c4.978,2.606,11.542,2.048,17.286,3.37
			c4.77,1.093,9.482,2.619,14.044,4.406c4.871,1.909,9.535,4.354,15.092,6.936c-0.176-2.219-0.257-3.235-0.388-4.826
			c3.142,1.073,6.071,2.068,9.396,3.203c-0.335-1.951-0.678-3.966-1.122-6.586c5.092,1.392,9.955,2.722,15.594,4.264
			c-3.305-4.149-6.202-7.788-9.637-12.101c2.056-0.657,3.643-1.163,5.426-1.73c-4.978-7.943-12.97-9.449-22.954-9.392
			c5.329-4.855,10.543-3.885,15.329-3.436c13.962,1.301,27.902,2.844,41.808,4.655c3.309,0.428,6.503,2.109,9.629,3.484
			c4.292,1.889,8.552,3.88,12.656,6.145c1.926,1.061,3.443,2.852,6.083,5.116c-0.596-3.546-1.053-6.247-1.714-10.172
			c5.573,1.199,10.445,2.248,15.725,3.387c-0.498-1.656-1.109-3.705-2.15-7.173c3.99,1.236,7.173,2.224,11.89,3.685
			c-2.808-3.819-4.839-6.59-7.23-9.841c1.216-0.119,2.171-0.209,3.717-0.355c-4.688-6.834-10.51-10.983-18.502-10.942
			c2.37-8.152,4.736-16.304,7.106-24.46c0.27,0.151,0.535,0.298,0.805,0.449c-0.294,5.528-0.592,11.057-0.886,16.585
			c0.273,0.041,0.551,0.077,0.824,0.118c0.86-5.598,1.718-11.195,2.578-16.789c0.453,0.004,0.91,0.013,1.363,0.017
			c0.105,1.053,0.212,2.109,0.318,3.162c-2.13,5.639-2.652,11.742-1.522,17.923c0.298,1.641,2.795,0.942,2.497-0.689
			c-1.42-7.772,0.127-15.353,4.256-21.918c0.824-0.387,1.799-0.701,3.003-0.922c22.224-4.056,24.732-11.272,23.076-30.881
			c4.215-1.404,8.425-2.808,12.64-4.215c1.575-0.526,0.902-3.027-0.689-2.497c-1.799,0.6-3.599,1.199-5.401,1.799
			c1.872-1.203,3.749-2.407,5.622-3.61c1.399-0.897,0.102-3.142-1.306-2.236c-1.808,1.163-3.615,2.322-5.423,3.484
			c6.414-5.32,12.824-10.641,19.237-15.961C568.389,383.203,566.545,381.383,565.268,382.439z M496.279,464.995
			c-10.147,0.322-19.327-2.396-28.234-9.099c2.179-1.853,3.995-3.505,5.929-5.007c1.864-1.452,4.852-2.342,5.602-4.186
			c2.448-6.01,7.062-5.292,13.016-4.994c-2.057,4.268-3.835,7.964-6.092,12.652c5.549-4.231,5.676-12.505,13.636-14.023
			c-2.347,5.129-4.696,10.258-7.042,15.386c-0.689,1.506,1.542,2.823,2.235,1.306c1.306-2.852,2.611-5.704,3.917-8.556
			c1.102-1.681,2.199-3.35,3.301-5.022C500.457,450.633,498.368,457.813,496.279,464.995z"/>
	</g>
</g>
<g>
</g>
<g>
</g>
<g>
</g>
<g>
</g>
<g>
</g>
<g>
</g>
<g>
</g>
<g>
</g>
<g>
</g>
<g>
</g>
<g>
</g>
<g>
</g>
<g>
</g>
<g>
</g>
<g>
</g>
</svg>
