<?xml version="1.0" encoding="iso-8859-1"?>
<!-- Generator: Adobe Illustrator 16.0.0, SVG Export Plug-In . SVG Version: 6.00 Build 0)  -->
<!DOCTYPE svg PUBLIC "-//W3C//DTD SVG 1.1//EN" "http://www.w3.org/Graphics/SVG/1.1/DTD/svg11.dtd">
<svg version="1.1" id="Capa_1" xmlns="http://www.w3.org/2000/svg" xmlns:xlink="http://www.w3.org/1999/xlink" x="0px" y="0px"
	 width="573.002px" height="573.002px" viewBox="0 0 573.002 573.002" style="enable-background:new 0 0 573.002 573.002;"
	 xml:space="preserve">
<g>
	<path d="M325.441,406.569c0.629-1.221,1.27-2.457,1.938-3.746c0.518-0.999,1.844-1.669,2.938-1.399
		c5.888,1.457,10.828,4.773,14.35,10.058c2.48,3.721,5.107,6.353,9.979,6.165c2.681-0.103,4.826,2.99,5.238,6.634
		c0.062,0.534,0.103,1.073,0.144,1.64c0.064,0.91,0.894,1.114,1.525,0.184c1.652-2.447,1.656-6.238,0.098-10.24
		c-0.407-1.049,0.103-2.143,1.191-1.865c1.176,0.298,1.804,1.444,2.967,4.721c0.375,1.062,1.599,1.502,2.085,0.485
		c0.362-0.771,0.465-1.99,0.562-4.704c0.041-1.126,0.942-2.317,2.048-2.533c4.819-0.942,8.911,0.29,11.963,4.438
		c0.665,0.91,1.33,1.567,1.611,1.384c0.282-0.184,0.273-1.216,0.021-2.317c-0.354-1.538-0.701-3.076-1.301-4.513
		c-2.607-6.263-7.622-9.556-14.003-11.408c-7.605-2.207-14.056-6.381-19.816-11.917c-3.705-3.558-8.372-5.717-13.664-6.732
		c-9.095-1.746-18.095-3.974-27.124-6.051c-1.098-0.253-2.105-0.812-2.252-1.252c-0.147-0.441,0.424-1.404,1.281-2.134
		c1.673-1.429,3.361-2.84,4.92-4.382c4.505-4.46,8.679-9.278,13.395-13.489c4.035-3.603,8.915-4.23,14.219-3.398
		c1.114,0.176,1.314,0.979,0.47,1.726c-1.057,0.931-2.061,1.816-3.052,2.685c-0.845,0.743-1.412,1.588-1.265,1.886
		c0.146,0.293,1.167,0.379,2.28,0.216c4.048-0.6,8.152-1.012,12.028-2.187c12.272-3.726,24.386-7.956,36.622-11.808
		c1.142-0.359,2.428-0.273,3.757-0.176c1.122,0.082,1.543,0.869,0.91,1.8c-0.901,1.334-1.685,2.713-1.126,4.268
		c0.38,1.061,0.502,2.362-0.261,3.194c-0.556,0.604-1.11,1.212-1.665,1.815c-0.763,0.828-1.244,1.791-1.081,2.143
		c0.163,0.351,1.208,0.497,2.321,0.338c2.905-0.407,5.818-0.771,8.666-1.42c2.105-0.481,3.121,0.258,4.423,1.751
		c4.215,4.843,8.886,9.176,15.255,12.407c1.004,0.51,1.253,0.184,0.53-0.678c-1.799-2.138-3.406-4.051-5.026-5.973
		c-0.727-0.861-0.804-1.71-0.184-1.894c0.624-0.184,0.534-1.032-0.188-1.896c-1.224-1.457-2.439-2.905-3.721-4.432
		c-0.727-0.86-0.466-1.901,0.583-2.317c8.254-3.292,16.169-6.446,24.436-9.743c1.048-0.416,1.799,0.159,1.465,1.232
		c-1.086,3.492-3.628,5.517-5.99,7.634c-0.84,0.751-0.575,1.273,0.515,0.991c3.933-1.012,7.177-3.157,10.069-5.94
		c0.812-0.783,2.199-1.113,3.146-0.701c0.946,0.416,1.791,0.636,1.885,0.497s-0.433-0.8-1.179-1.469
		c-0.743-0.673-1.09-2.097-0.775-3.178c0.359-1.229,0.718-2.444,1.073-3.652c0.318-1.081,1.016-1.15,1.709-0.261
		c1.779,2.265,4.044,4.239,2.918,7.973c-1.502,4.981-3.183,9.58-7.892,12.411c-0.273,0.163-0.514,0.42-0.701,0.682
		c-0.078,0.105-0.086,0.257-0.139,0.624c-0.049,0.354,0.783,0.416,1.856,0.069c3.733-1.195,6.907-2.926,9.49-5.83
		c4.871-5.476,6.854-11.351,4.268-18.769c-2.179-6.246-3.509-12.819-4.79-19.331c-0.759-3.855-0.461-7.911-1.065-11.812
		c-0.289-1.872-0.995-3.68-1.673-5.491c-0.396-1.057-0.416-2.069-0.081-2.248c0.334-0.18,1.094,0.444,1.718,1.383
		c1.729,2.603,3.55,5.161,4.899,7.948c2.615,5.39,5.479,10.036,12.437,10.036c1.077,0,2.374,1.143,3.198,2.077
		c3.252,3.692,5.264,7.842,4.015,12.97c-0.086,0.348-0.102,0.715-0.126,1.241c-0.029,0.689,0.571,0.591,1.228-0.323
		c2.518-3.5,2.877-7.168,2.02-10.787c-0.783-3.312-2.248-6.772-4.361-9.396c-3.77-4.676-8.372-8.666-12.415-13.133
		c-2.714-2.999-5.063-6.324-7.568-9.511c-0.27-0.343-0.429-0.783-0.73-1.081c-4.798-4.741-9.608-9.462-14.415-14.195
		c-0.102-0.102-0.199-0.204-0.285-0.298c-0.151-0.167,0.354-0.983,0.979-1.921c1.403-2.109,2.174-4.415,2.591-6.769
		c0.387-2.183,1.134-2.987,3.284-3.905c6.703-2.86,13.015-6.602,17.393-12.685c3.509-4.876,6.394-10.212,10.086-14.933
		c6.903-8.821,6.043-19.384,6.834-29.441c0.738-9.327,1.755-18.588,4.043-27.593c1.779-6.997,6.745-12.232,12.33-16.671
		c2.99-2.375,6.115-4.606,9.359-6.622c2.664-1.656,5.434-1.975,8.662-0.677c4.447,1.787,9.195,2.828,13.818,4.182
		c0.734,0.216,1.604,0.208,2.191,0.62c4.43,3.072,9.164,2.713,14.104,1.844c1.111-0.196,2.207,0.126,2.457,0.743
		c0.248,0.616,0.686,1.118,0.967,1.122c0.195,0.004,0.367,0,0.502-0.074c4.02-2.073,6.168-5.508,6.936-9.849
		c0.764-4.325,1.355-8.674,2.109-12.999c0.607-3.484,2.959-5.541,6.055-6.854c2.428-1.028,4.916-1.91,7.32-2.991
		c1.814-0.816,3.406-2.199,2.559-4.345c-3.041-7.687-6.982-14.97-15.174-18.083c-5.709-2.167-11.91-1.91-17.904-0.498
		c-4.357,1.028-7.906,0.18-11.105-3.19c-2.586-2.729-5.52-5.133-8.375-7.609c-0.854-0.738-1.734-1.211-1.984-1.044
		c-0.248,0.167-0.162,1.167,0.193,2.236c0.02,0.065,0.043,0.131,0.064,0.2c0.355,1.069-0.105,1.424-1.041,0.787
		c-3.047-2.077-5.969-4.067-8.873-6.046c-0.932-0.632-1.85-0.967-2.053-0.743c-0.203,0.225-0.139,1.094,0.143,1.946
		s-0.338,1.212-1.387,0.8c-2.51-0.979-4.945-1.93-7.369-2.876c-1.049-0.408-1.998-0.555-2.121-0.327
		c-0.123,0.229,0.258,0.963,0.844,1.641c0.588,0.677,0.176,1.008-0.922,0.742c-2.684-0.645-5.307-1.277-7.922-1.909
		c-1.094-0.265-2.064-0.314-2.159-0.114c-0.098,0.2,0.082,0.747,0.4,1.224c0.318,0.477-0.314,0.677-1.416,0.449
		c-2.754-0.575-5.483-1.143-8.205-1.709c-1.102-0.229-2.183-0.171-2.411,0.13c-0.232,0.302,0.294,1.118,1.171,1.828
		c0.768,0.62,1.575,1.269,2.477,1.999c0.877,0.706,0.682,1.351-0.44,1.436c-4.215,0.318-8.091,0.612-11.913,0.902
		c-1.122,0.085-2.064,0.355-2.105,0.604c-0.037,0.249,0.763,0.824,1.795,1.281c1.118,0.498,2.272,1.012,3.541,1.575
		c1.028,0.457,0.959,0.95-0.154,1.105c-2.392,0.326-4.599,0.624-6.761,0.918c-1.118,0.151-2.044,0.506-2.077,0.792
		c-0.032,0.286,0.8,0.833,1.856,1.22c0.792,0.29,1.579,0.58,2.371,0.874c1.057,0.387,1.95,0.849,1.99,1.024
		c0.041,0.175-0.819,0.502-1.926,0.722c-2.129,0.433-4.259,0.861-6.389,1.293c-1.105,0.224-2.032,0.575-2.068,0.792
		c-0.041,0.212,0.759,0.763,1.782,1.232c0.367,0.167,0.739,0.339,1.126,0.514c1.024,0.469,1.058,1.285,0.069,1.828
		c-0.93,0.51-1.885,1.037-2.949,1.62c-0.987,0.542-0.918,1.273,0.146,1.632c0.127,0.041,0.249,0.085,0.371,0.126
		c1.069,0.359,1.229,1.224,0.355,1.934c-0.616,0.501-1.224,0.996-1.849,1.505c-0.873,0.714-1.13,1.559-0.575,1.889
		s0.47,1.342-0.232,2.224c-1.853,2.337-3.876,4.598-4.88,7.246c-1.604,4.219-3.9,8.633-1.975,13.533
		c0.282,0.718-0.188,1.709-0.232,2.579c-0.232,4.284-0.424,8.572-0.661,12.856c-0.616,11.241-4.912,20.673-14.116,27.41
		c-2.84,2.077-6.279,3.321-9.417,5.002c-2.023,1.085-4.035,2.199-5.965,3.439c-3.998,2.57-8.185,1.893-12.656,1.632
		c-8.923-0.522-17.907-0.065-26.862-0.021c-2.317,0.013-4.636,0.008-7.079,0.004c-1.126,0-1.791,0.359-1.489,0.804
		s0.384,0.861,0.188,0.942c-0.139,0.057-0.257,0.098-0.371,0.085c-4.704-0.493-9.331-0.918-13.57,2.097
		c-1.023,0.73-2.766,0.408-4.157,0.682c-0.641,0.126-1.273,0.298-1.897,0.587c-0.999,0.461-0.987,1.249-0.18,1.428
		c0.809,0.179,1.42,0.379,1.367,0.449c-0.037,0.049-0.073,0.09-0.118,0.098c-10.918,2.102-20.082,8.523-30.29,12.424
		c-6.369,2.432-11.853,7.099-17.948,10.359c-8.503,4.549-17.022,9.156-25.884,12.926c-8.434,3.59-17.213,6.458-26.026,9.004
		c-4.582,1.322-9.555,1.624-14.37,1.758c-17.687,0.494-35.378,0.955-53.069,0.987c-14.5,0.029-29.009-0.522-43.509-0.901
		c-7.234-0.188-14.525-0.057-21.673-0.979c-10.983-1.419-21.914-3.395-32.778-5.577c-6.536-1.314-13.154-2.873-19.274-5.431
		c-5.802-2.423-10.983-6.32-16.475-9.502c-1.877-1.089-3.791-2.211-5.822-2.925c-11.399-3.995-22.824-7.916-34.28-11.734
		c-1.032-0.343-2.158-0.424-3.288-0.481c-1.126-0.057-2.183,0.106-2.358,0.404c-0.18,0.298,0.265,1.236,0.987,2.101
		c1.938,2.309,3.88,4.631,5.867,7.001c0.722,0.865,0.4,1.673-0.718,1.808c-2.134,0.249-4.223,0.494-6.295,0.743
		c-1.118,0.135-2.15,0.498-2.301,0.816c-0.151,0.318,0.412,1.175,1.261,1.917c2.195,1.918,4.415,3.852,6.752,5.896
		c0.849,0.743,0.625,1.412-0.498,1.498c-1.832,0.139-3.656,0.277-5.708,0.437c-1.122,0.086-1.469,0.877-0.677,1.681
		c3.949,4.023,8.821,5.753,13.223,8.229c0.983,0.551,0.89,1.342-0.175,1.709c-1.498,0.514-3.003,1.032-4.615,1.583
		c-1.064,0.367-1.379,1.399-0.514,2.122c2.844,2.375,6.397,2.55,9.539,3.692c1.057,0.383,1.236,1.342,0.469,1.954
		c-0.767,0.616-0.6,1.567,0.392,2.101c6.952,3.758,13.978,6.496,21.995,7.764c1.114,0.176,1.188,0.673,0.167,1.151
		c-0.408,0.192-0.804,0.375-1.216,0.567c-1.02,0.478-1.146,1.469-0.164,2.016c3.28,1.824,6.752,1.562,9.641,2.011
		c1.114,0.171,2.452,1.049,2.991,1.775c0.42,0.563,0.759,0.983,1.179,1.089c4.574,1.163,9.192,2.138,13.798,3.167
		c0.318,0.069,0.833-0.054,0.955,0.122c3.239,4.737,8.547,2.909,12.896,4.097c0.539,0.146,1.085,0.277,1.64,0.403
		c0.91,0.208,1.477,0.882,1.273,1.506c-0.208,0.624,0.531,1.228,1.648,1.347c0.706,0.073,1.367,0.163,2.007,0.338
		c3.9,1.065,7.895,0.551,11.995,2.016c4.521,1.616,10.188,0.311,15.321-0.126c7.421-0.633,14.806-1.738,22.228-2.391
		c1.824-0.159,3.815,1.19,5.585,0.913c7.454-1.171,14.847-2.733,22.277-4.067c2.097-0.375,4.3-0.89,6.365-0.628
		c16.292,2.068,32.191,6.038,47.622,11.514c6.65,2.358,12.88,6.145,18.923,9.886c5.945,3.68,11.518,7.952,17.45,12.211
		c0.914,0.657,1.514,2.085,1.359,3.199c-0.241,1.738-0.494,3.595-1.098,5.332c-0.547,1.571-1.812,3.387-3.244,4.068
		c-9.119,4.32-14.619,12.256-19.417,20.384c-2.003,3.398-3.072,7.936-3.101,12.611c-0.041,6.621-3.656,12.436-8.025,17.364
		c-2.423,2.737-5.565,4.851-8.45,7.164c-2.464,1.971-5.002,3.848-7.548,5.716c-1.922,1.408-1.714,2.869-0.625,4.766
		c0.559,0.967,0.918,3.036,0.4,3.477c-3.035,2.603-2.35,6.242-3.097,9.47c-1.428,6.173-2.538,12.448-4.394,18.49
		c-0.738,2.399-3.109,4.301-4.757,6.414c-0.4,0.51-1.159,0.89-1.289,1.44c-0.661,2.79-2.342,4.324-4.807,5.349
		c-1.04,0.433-1.105,1.068-0.094,1.562c0.241,0.118,0.486,0.236,0.739,0.359c1.012,0.493,1.183,1.542,0.506,2.443
		c-3.068,4.093-3.301,8.694-1.175,13.607c0.559,1.293,1.571,2.391,2.134,3.68c1.134,2.604,2.795,5.23,2.995,7.939
		c0.477,6.496,4.027,9.368,9.992,10.163c0.433,0.058,0.873,0.209,1.302,0.176c3.635-0.277,7.03-0.114,8.466,3.778
		c0.392,1.057,0.702,1.836,0.951,1.664c0.249-0.171,0.755-1.061,1.134-1.99c0.379-0.931,1.575-1.926,2.701-1.971
		c3.917-0.159,8.45,1.411,12.126-2.407c0.783-0.812,2.048-1.114,3.011-0.522c1.444,0.89,2.97,1.832,4.496,2.771
		c0.958,0.592,1.734,0.146,1.46-0.947c-1.342-5.315-7.279-10.787-12.566-10.885c-0.991-0.021-1.995,0.188-2.97,0.073
		c-9.257-1.105-11.808-3.003-14.096-11.526c-1.926-7.177,0.583-13.843,2.546-20.448c2.668-8.973,6.956-17.283,12.052-25.149
		c0.686-1.057,0.967-2.791,3.137-1.836c0.461,0.204,1.942-1.285,2.583-2.244c1.526-2.276,2.832-4.7,4.227-7.062
		c6.055-10.232,15.251-17.226,24.852-23.692c8.535-5.749,17.373-11.049,25.998-16.671c1.432-0.935,2.701-2.122,3.975-3.301
		c0.828-0.763,1.648-1.22,1.812-1.045c0.163,0.176-0.347,0.979-1.135,1.783c-2.362,2.424-4.708,4.831-6.957,7.132
		c-0.788,0.808-1.391,2.081-1.351,2.844c0.024,0.485,0.024,0.951-0.106,1.375c-2.118,6.899,0.159,13.962,6.899,16.459
		c6.545,2.424,13.331,4.215,20.066,6.087c4.239,1.18,7.817,2.722,11.335,5.925c2.872,2.61,4.161,5.137,4.435,8.355
		c0.094,1.122,0.273,2.072,0.555,2.117C324.275,408.355,324.924,407.568,325.441,406.569z"/>
</g>
<g>
</g>
<g>
</g>
<g>
</g>
<g>
</g>
<g>
</g>
<g>
</g>
<g>
</g>
<g>
</g>
<g>
</g>
<g>
</g>
<g>
</g>
<g>
</g>
<g>
</g>
<g>
</g>
<g>
</g>
</svg>
