<?xml version="1.0" encoding="iso-8859-1"?>
<!-- Generator: Adobe Illustrator 16.0.0, SVG Export Plug-In . SVG Version: 6.00 Build 0)  -->
<!DOCTYPE svg PUBLIC "-//W3C//DTD SVG 1.1//EN" "http://www.w3.org/Graphics/SVG/1.1/DTD/svg11.dtd">
<svg version="1.1" id="Capa_1" xmlns="http://www.w3.org/2000/svg" xmlns:xlink="http://www.w3.org/1999/xlink" x="0px" y="0px"
	 width="579.185px" height="579.185px" viewBox="0 0 579.185 579.185" style="enable-background:new 0 0 579.185 579.185;"
	 xml:space="preserve">
<g>
	<path d="M573.402,229.833c-2.93-1.465-5.781-4.321-9.054-4.88c-3.235,0-4.174,1-7.601-0.383c-4.182-1.624-7.312-0.245-11.559-0.245
		c-5.198,0-10.208-1.461-15.41-1.461c-3.872,0-7.936,0.359-11.669,1.428c-4.41,1.216-9.481,0.208-13.876,1.673
		c-3.786,1.265-8.368-0.747-11.637,0.942c-5.075,2.579-6.932,3.092-12.477,1.697c-4.871-1.179-9.404,4.321-13.346,3.317
		c-2.61-0.89-3.187-2.093-6.042-2.093c-2.982,0-5.969,0-8.956,0c-0.963,0-2.848,1.722-3.818,2.093
		c-2.465-1.473-4.994-2.774-7.842-3.317c-5.94-1.065-10.804,4.039-16.414,2.097c-7.005-2.514-10.437-3.754-17.458-1.155
		c-3.439,1.31-6.459-1.726-9.453-2.987c-3.901-1.648-7.883-2.448-12.118-2.448c-3.807,0-4.998,0.126-7.809,2.411
		c-2.551,1.971-4.908-1.873-6.969-2.962c-4.921-2.648-10.429-4.186-16.035-4.186c-1.175,0-5.875,3.476-6.446,1.709
		c-1.048-3.101-3.782-4.398-6.654-5.908c-2.525-1.334-5.157-2.493-7.878-3.366c-3.9-1.224-5.929,0.665-9.756,0.665
		c-1.628,0-3.884-2.064-5.577-2.366c-5.985-1.077-11.098-1.526-16.732-4.06c-10.057-4.521-19.648-5.671-30.485-7.062
		c-13.652-1.673-31.767-3.032-44.713,1.261c-2.415,0.755-5.157,0.457-7.666,0.347c-2.159-0.126-2.783-1.979-4.456-2.126
		c-3.529-0.29-17.213,3.382-18.164-1.052c-0.571-2.701-8.009,2.154-10.906,0.457c-3.224-1.885-6.683,5.104-10.943,4.076
		c0-1.775,8.054-16.508,0.747-11.146c-3.427,2.517-7.87,8.735-11.338,4.182c-4.231,6.279-6.263,11.95-13.941,14.635
		c-1.342-4.145,1.55-9.147,3.488-12.534c-1.522-4.17-10.151,5.859-11.155,6.964c-7.042-9.625-8.356,11.012-12.538,15.329
		c-6.05,3.134,1.526-23.464,1.526-25.933c-6.981,0-13.333,14.007-16.169,18.964c-4.704-2.884-3.807-11.571-10.596-11.571
		c0,9.547,2.416,17.124-0.347,26.589c-0.857,2.975-2.109,7.222-5.026,8.878c-3.056,1.734-3.272-6.288-3.546-8.185
		c-2.158-14.386-8.601,14.015-11.154,0.31c-7.34,4.716-2.897,16.981-9.233,22.591c-3.227,2.828-3.909,1.453-6.446-0.591
		c-3.129-2.587-4.48,3.864-7.177,3.864c-4.431,0-6.503-1.229-9.69,2.823c-3.746,4.72-4.716,5.712-10.522,6.614
		c-2.685,0.444-4.239-1.143-6.756-1.143c-4.749,0-5.569,5.985-9.764,7.385c-1.256,0.347-2.534,0.445-3.835,0.282
		c-0.788,3.309-2.897,3.631-5.867,3.378c-2.228-0.188-6.401-2.044-8.07-0.591c-0.914,0.795-0.367,7.209-1.044,8.78
		c-1.995,4.668-1.313,11.159-2.688,16.455c-2.375,9.114-5.557,19.184,5.333,23.525c7.532,2.998,13.843-3.456,19.311-7.643
		c6.854-4.541,15.565-5.598,22.542-10.686c5.989-4.418,10.686-7.601,18.229-8.127c6.793,0,13.578-0.212,20.347,0.494
		c10.551,1.089,14.264,6.132,21.51,13.427c6.989,7.034,17.132,13.501,22.615,21.624c2.272,4.537,1.024,5.165-0.657,10.494
		c-4.064,12.672-14.603,24.553-17.532,37.527c-1.555,1.122-3.285,2.864-3.644,5.284c-0.437,2.966,0.673,1.338,2.905-0.307
		c-0.437,1.285-0.702,2.726-0.424,4.101c0.583,2.921,1.183,0.653,4.162-1.844c3.456-0.976,8.254-4.288,9.617-5.076
		c3.296-1.896,7.312-3.966,9.906-6.834c1.791-1.971,0.624-9.054,2.766-12.334c2.224-3.357,5.239-6.07,8.229-8.715
		c4.341,2.975,7.348,7.691,8.185,12.889c0.685,4.297-0.143,8.087-2.921,11.44c-0.033,0.041-0.057,0.069-0.09,0.11
		c-1.216,1.049-4.227,4.043-3.819,7.728c0.363,3.276,1.126,0.71,3.289-1.677c0.322,0.094,0.612,0.191,1.008,0.29
		c0.229,0.053,0.461,0.069,0.693,0.109c-0.579,1.159-0.971,2.477-0.808,3.917c0.51,4.59,1.787-2.293,6.63-4.08
		c0.09-0.032,0.147-0.065,0.229-0.098c2.688-0.689,5.218-2.081,7.16-4.031c5.508-5.463,16.014-9.303,5.647-16.479
		c-7.613-5.201-5.206-17.98-9.372-25.197c-2.587-4.419-3.982-9.389-5.586-14.207c-0.987-2.97-4.524-7.185-4.524-10.294
		c14.423,0,28.246,2.179,42.705-0.008c5.643-0.856,11.539-2.032,16.752-4.419c2.876-1.24,3.052-0.95,3.48,2.302
		c2.244,17.074,8.543,36.229,2.652,53.321c-1.942,5.736-5.308,7.642-9.967,10.873c-0.698,0.489-1.522,1.158-2.285,1.905
		c-1.767,0.343-4.59,1.22-5.092,3.439c-0.453,1.995,0.563,1.244,2.631,0.547c-0.016,0.583,0.229,1.098,0.812,1.501
		c-0.237,0.327-0.416,0.694-0.51,1.11c-0.641,2.827,1.648,0.155,5.737-0.086c0.767,0.053,1.595,0.098,2.517,0.135
		c0.282,0.024,0.518,0.032,0.714,0.021c10.384,0.343,28.303-0.588,28.303-7.977c0-9.979-0.665-21.771,2.713-31.433
		c2.917-7.218,7.654-13.933,8.821-21.774c0.653-4.423-0.604-8.666-0.461-13.077c7.417,11.098,19.841,17.896,28.47,27.952
		c3.868,4.492,10.697,15.492,6.206,21.706c-1.779,2.448-4.818,3.962-6.446,6.385c-1.354,0.168-5.455,0.882-6.071,3.599
		c-0.563,2.48,1.134,0.73,4.317,0.099c-0.91,1.097-1.612,2.432-1.232,3.811c0.628,2.305,1.277,0.371,3.432-1.571
		c1.248,0.318,3.031-0.114,4.696-0.399c-0.29,1.036-0.343,2.105,0.22,3.027c1.338,2.187,1.33-0.311,3.215-3.012
		c3.178,0.47,5.712,0.706,8.217-2.248c3.529-4.206,12.179-10.812,13.28-16.034c1.322-6.426-4.749-10.689-8.584-15.169
		c-2.592-3.02-2.999-6.92-3.579-10.71c-0.771-5.019-2.863-9.078-5.137-13.562c-1.681-3.321-8.318-7.911-8.318-11.261
		c0-5.704,10-10.412,13.419-14.288c10.661-12.15,17.939-19.539,34.659-19.319c31,0.412,62.106-0.559,92.547-6.985
		c23.265-4.908,46.251-11.91,69.409-17.397c12.514-2.962,24.773-6.851,37.482-8.939c14.154-2.317,27.349-0.792,41.519-0.257
		C583.125,235.741,578.057,232.163,573.402,229.833z"/>
</g>
<g>
</g>
<g>
</g>
<g>
</g>
<g>
</g>
<g>
</g>
<g>
</g>
<g>
</g>
<g>
</g>
<g>
</g>
<g>
</g>
<g>
</g>
<g>
</g>
<g>
</g>
<g>
</g>
<g>
</g>
</svg>
