<?xml version="1.0" encoding="iso-8859-1"?>
<!-- Generator: Adobe Illustrator 16.0.0, SVG Export Plug-In . SVG Version: 6.00 Build 0)  -->
<!DOCTYPE svg PUBLIC "-//W3C//DTD SVG 1.1//EN" "http://www.w3.org/Graphics/SVG/1.1/DTD/svg11.dtd">
<svg version="1.1" id="Capa_1" xmlns="http://www.w3.org/2000/svg" xmlns:xlink="http://www.w3.org/1999/xlink" x="0px" y="0px"
	 width="574.644px" height="574.644px" viewBox="0 0 574.644 574.644" style="enable-background:new 0 0 574.644 574.644;"
	 xml:space="preserve">
<g>
	<g>
		<path d="M475.851,257.301c0.204,1.106,0.388,2.118,0.461,2.75c0.155,1.216,0.31,1.775,0.465,2.342
			c0.073,0.266,0.146,0.531,0.216,0.857l0.099,0.514c0.188,0.983,0.424,2.215,0.424,3.317c0,0.833,0.188,1.559,0.367,2.256
			c0.167,0.649,0.339,1.322,0.4,2.334c0.122,1.717,0.15,2.125,0.755,3.337c0.281,0.579,0.387,1.008,0.51,1.501
			c0.086,0.351,0.175,0.706,0.306,1.085c0.131,0.408,0.143,0.82,0.155,1.257c0.012,0.416,0.024,0.845,0.146,1.313
			c0.277,0.979,1.31,2.436,2.722,2.583c0.041,0.004,0.229,0.016,0.266,0.016c1.591,0,2.203-1.595,2.439-2.207
			c0.396-1.082,0.697-4.276,0.697-6.304c0-1.281-0.347-3.044-0.681-4.749c-0.241-1.216-0.49-2.473-0.49-3.068
			c0-1.008-0.281-1.448-0.575-1.82c-0.09-0.114-0.13-0.167-0.105-0.608c0.069-1.032-0.519-2.856-1.425-5.524
			c-0.473-1.4-1.012-2.983-1.044-3.529c-0.094-1.245-0.886-4.88-2.595-5.639c-0.017-0.008-0.033-0.016-0.045-0.021
			c0.004-0.033,0.004-0.065,0.008-0.094c0.106-0.049,0.249-0.102,0.355-0.143c0.354-0.131,0.795-0.294,1.179-0.576
			c1.298-0.901,0.563-2.999-0.151-5.03l-0.236-0.686c-0.571-1.669-4.019-10.559-4.483-11.645c-0.09-0.245-0.213-0.616-0.355-1.057
			c-0.89-2.713-1.44-4.096-2.142-4.602l-0.404-0.282c-0.204-0.139-0.547-0.375-0.551-0.6c0.033-0.086,0.045-0.098,0.241-0.225
			c0.787-0.485,1.24-1.126,0.873-2.668c-0.172-0.73-1.191-3.746-2.31-6.01c-0.971-2.04-2.04-3.917-2.819-5.288
			c-0.42-0.734-0.894-1.571-0.963-1.767c-0.318-1.085-1.938-4.619-4.072-5.826c-0.265-0.147-0.392-0.249-0.44-0.257
			c0.045-0.119,0.147-0.318,0.225-0.469c0.155-0.302,0.33-0.649,0.478-1.053c0.771-2.122-1.339-5.116-2.179-5.953
			c-0.27-0.286-1.894-2.505-3.468-4.655c-5.271-7.201-6.695-9.045-7.263-9.396c-0.253-0.163-0.306-0.232-0.306-0.204
			c-0.013-0.061-0.009-0.281,0.208-1.036c0.465-1.604,0.293-2.073-0.376-3.452l-0.343-0.718
			c-0.693-1.615-9.788-14.198-11.607-14.986c-0.253-0.102-0.485-0.175-0.697-0.245c-0.535-0.163-0.682-0.212-0.738-2.085
			c-0.058-1.485,0.126-1.844,0.184-1.962c0.392-0.779,0.004-1.277-0.282-1.636l-0.265-0.388c-0.715-1.036-2.604-3.794-4.411-6.075
			c-2.681-3.415-6.278-7.564-7.16-8.066c-0.551-0.306-0.865-1.244-0.865-2.574c0-0.612,0.086-1.122,0.155-1.542
			c0.127-0.771,0.253-1.575-0.257-2.207c-0.028-0.041-3.276-4.296-6.234-7.075c-3.439-3.211-6.847-5.585-7.915-6.308
			c-0.176-0.689-0.551-2.072-0.828-2.68c-0.163-0.404,0.061-1.526,0.22-2.346l0.065-0.326c0.176-0.881,0.184-4.807,0.147-11.293
			l-0.009-2.154c0-2.387,1.624-12.611,2.012-13.66l0.285-0.775c0.927-2.473,1.914-5.259,1.914-6.932
			c0-1.428,0.473-2.383,1.448-2.917c0.935-0.518,1.388-1.494,1.746-2.277c0.123-0.265,0.311-0.669,0.318-0.714
			c1.143-0.49,1.518-1.457,1.559-1.571c0.106-0.302,0.069-0.636-0.11-0.906c-0.175-0.265-0.469-0.437-0.787-0.457
			c0,0-1.836-0.118-3.893,0.11c-0.975,0.102-1.424-0.155-1.909-0.474c-0.257-0.171-0.555-0.363-0.935-0.473
			c-0.298-0.082-0.579-0.53-0.587-0.673c0.036-0.126,0.265-0.481,0.452-0.767c0.4-0.612,0.947-1.449,1.429-2.604
			c0.571-1.338,1.701-3.374,2.044-3.676c1.068-0.718,2.477-3.635,2.477-3.635c0.457-0.877,0.277-1.514,0.049-1.893
			c-0.44-0.73-1.338-0.938-2.212-1.004c0.327-0.139,0.743-0.331,1.216-0.657c0.972-0.681,2.09-2.729,3.469-5.59l0.188-0.396
			c0.457-0.849,0.8-2.163,0.261-3.06c-0.277-0.465-0.783-0.689-1.514-0.714c-0.004,0.004-0.257,0.021-0.261,0.021
			c-0.062,0-0.118-0.004-0.176-0.008c0.294-0.49,0.861-1.24,1.779-2.028c1.926-1.632,4.096-7.385,4.77-9.47
			c0.433-1.379,0.229-2.746-0.58-3.848c-0.738-1.007-1.954-1.713-3.166-1.713c-0.008,0-0.016,0-0.024,0
			c-1.301,0.135-2.737,1.371-3.468,2.125c0.086-3.084,0.196-7.936,0.131-10.045c-0.086-2.28,0.51-5.3,0.991-7.731
			c0.159-0.795,0.302-1.534,0.412-2.175c0.314-1.942,0.191-2.917,0.09-3.705c-0.037-0.298-0.077-0.579-0.077-0.906
			c0-1.208,0.412-1.921,1.415-2.464c0.616-0.326,1.191,0.547,1.429,0.992c0.22,0.416,0.685,0.616,1.15,0.514
			c0.452-0.11,0.775-0.518,0.775-0.988c0-1.358-0.796-4.039-3.799-4.483c-2.375-0.347-4.476,2.117-5.435,3.264l-0.281,0.334
			c-0.67,0.779-1.184,0.959-2.51,0.563c-2.044-0.62-5.234-0.652-7.58-0.13c-2.22,0.49-2.624,2.954-2.514,4.333
			c0.037,0.437,0.347,0.8,0.775,0.906c0.42,0.098,0.873-0.082,1.105-0.453c0.253-0.412,0.808-1,1.428-1.044
			c0.461,0,0.955,0.135,1.579,0.306c0.392,0.11,0.824,0.232,1.33,0.343c0.457,0.09,0.665,0.783,0.886,1.677
			c0.102,0.412,0.195,0.796,0.363,1.146c0.383,0.759,1.954,5.329,2.464,6.83l0.103,0.298c0.203,0.62,0.828,5.349,1.016,9.812
			c0.045,1.142,0.057,2.248,0.041,3.251c-0.103-0.383-0.217-0.767-0.335-1.167c-0.131-0.441-0.266-0.906-0.404-1.424
			c-0.832-2.946-3.647-3.692-6.434-1.493c-2.424,1.95-1.191,6.732-0.457,9.596l0.225,0.894c0.526,2.162,2.807,5.854,3.814,7.328
			c-0.11-0.085-0.229-0.208-0.38-0.359c-0.298-0.302-0.669-0.677-1.256-1.041c-1.012-0.587-2.008-0.494-2.6,0.188
			c-0.51,0.596-0.665,1.542-0.465,2.897c0.204,1.391,0.51,1.897,0.914,2.46c0.188,0.261,0.354,0.49,0.538,1.065
			c0.188,0.6,0.331,1.232,0.466,1.812c0.249,1.085,0.44,1.926,0.849,2.481c-0.277-0.024-0.588-0.012-0.865,0.045
			c-1.701,0.347-1.562,2.477-1.444,4.353c0.032,0.461,0.062,0.918,0.062,1.318c0,0.58,0.012,1.253,0.024,1.934
			c0.024,1.261,0.053,2.685-0.021,3.276c-0.058,0.514-0.355,0.894-0.837,0.942c-0.118,0-0.257-0.008-0.412-0.021
			c-0.236-0.016-0.501-0.033-0.783-0.033c-1.677,0-3.035,0.616-4.153,1.889c-1.742,1.962-2.799,5.23-3.158,9.967
			c-0.004,0.09-0.032,0.359-0.073,0.759c-0.167,1.653-0.562,5.529-0.6,8.731c-0.069,6.308,0.184,13.799,0.311,17.022l-1.077-0.449
			c-0.009-0.037-0.013-0.077-0.021-0.118l-0.103-0.494c-0.22-0.938-0.967-1.999-1.321-2.464c-0.119-0.698-0.425-2.081-1.069-2.795
			c-1.897-2.117-5.598-4.463-7.642-5.145c-2.424-0.804-5.149-3.484-5.732-4.146c-0.526-0.62-1.22-0.93-1.791-1.081
			c-0.049-0.971-0.352-2.44-1.567-3.484c-0.938-0.8-2.138-1.224-3.464-1.224c-0.587,0-1.053,0.082-1.493,0.151
			c-0.184,0-0.473-0.061-0.812-0.334c-0.221-0.273-0.143-1.685-0.086-2.819l0.021-0.359c0.167-2.807-4.157-6.169-6.047-6.279
			c-1.411-0.11-3.896-0.51-4.708-0.636c-0.008-0.004-0.318-0.045-0.331-0.045c-1.02-0.135-1.75-0.037-2.443,0.44
			c-0.236-0.045-0.53-0.094-0.963-0.094c-0.062,0-0.073,0-0.286-0.188c-0.338-0.29-0.909-0.783-1.982-0.783l-0.693-0.008
			c-1.637-0.029-5.513-0.086-8.772,0.037c-4.019,0.147-7.312,0.539-8.612,0.747c-2.51,0.359-3.28,1.245-3.97,2.289
			c-0.335,0.522-1.028,1.607-1.808,1.758c-0.474,0-0.755-0.583-0.91-1.073c-0.559-1.787-1.461-2.268-2.926-2.419
			c0.09-0.225,0.266-0.535,0.531-0.833c0.787-0.906,0.555-2.378,0.347-3.676c-0.058-0.371-0.147-0.934-0.144-1.036
			c0.221-0.726,0.095-1.371,0.005-1.844c-0.033-0.175-0.074-0.351-0.074-0.522c0-0.392-0.489-5.255-1.105-8.756
			c-0.686-4.146-1.574-7.173-1.958-8.47c-0.249-0.816-4.614-12.175-8.552-16.695c-8.233-9.478-19.996-17.385-21.686-18.14
			c0.221-0.314,0.335-0.788,0.217-1.114c-0.294-0.804-1.159-1.036-3.86-1.036h-0.257c-0.261-0.167-0.534-0.221-0.82-0.114
			c-0.123,0.02-0.245,0.061-0.355,0.118l-0.396-0.004c-2.701,0-3.57,0.232-3.859,1.036c-0.119,0.322-0.004,0.8,0.216,1.114
			c-1.641,0.73-13.436,8.642-21.681,18.14c-3.938,4.517-8.307,15.879-8.556,16.704c-0.379,1.289-1.273,4.321-1.954,8.45
			c-0.62,3.509-1.11,8.376-1.11,8.764c0,0.171-0.041,0.347-0.073,0.522c-0.09,0.473-0.212,1.118-0.008,1.787
			c0.021,0.163-0.069,0.726-0.126,1.097c-0.204,1.298-0.437,2.774,0.355,3.685c0.261,0.293,0.437,0.604,0.526,0.824
			c-1.453,0.146-2.362,0.624-2.925,2.419c-0.155,0.481-0.429,1.057-1.049,1.057c-0.008,0-0.016,0-0.024,0
			c-0.612-0.135-1.31-1.22-1.652-1.754c-0.681-1.032-1.448-1.918-3.945-2.277c-1.314-0.208-4.61-0.596-8.625-0.747
			c-3.26-0.114-7.144-0.061-8.776-0.037l-0.693,0.008c-1.073,0-1.64,0.493-1.983,0.783c-0.216,0.188-0.225,0.188-0.286,0.188
			c-0.433,0-0.73,0.053-0.996,0.118c-0.648-0.51-1.387-0.6-2.411-0.465c-0.008,0-0.318,0.041-0.331,0.045
			c-0.816,0.126-3.301,0.526-4.692,0.632c-1.91,0.114-6.23,3.476-6.067,6.279l0.02,0.363c0.062,1.134,0.139,2.546-0.069,2.807
			c-0.351,0.282-0.641,0.343-1.024,0.318c-0.241-0.045-0.706-0.123-1.289-0.123c-1.326,0-2.526,0.424-3.468,1.228
			c-1.212,1.044-1.514,2.505-1.562,3.48c-0.571,0.151-1.261,0.457-1.779,1.069c-0.596,0.673-3.321,3.354-5.749,4.162
			c-2.04,0.681-5.74,3.027-7.633,5.141c-0.653,0.718-0.959,2.102-1.077,2.799c-0.355,0.465-1.102,1.53-1.326,2.484l-0.098,0.474
			c-0.008,0.044-0.016,0.085-0.02,0.122l-1.077,0.449c0.126-3.223,0.375-10.718,0.31-17.026c-0.041-3.199-0.433-7.075-0.6-8.731
			c-0.041-0.4-0.069-0.665-0.089-1.008c-0.343-4.488-1.399-7.752-3.138-9.714c-1.122-1.273-2.48-1.893-4.158-1.893
			c-0.286,0-0.546,0.016-0.783,0.033c-0.155,0.008-0.298,0.016-0.502,0.016c-0.388-0.049-0.686-0.424-0.747-0.951
			c-0.073-0.58-0.045-2.003-0.016-3.264c0.012-0.681,0.024-1.354,0.024-1.934c0-0.404,0.028-0.857,0.061-1.318
			c0.123-1.877,0.261-4.007-1.44-4.354c-0.278-0.057-0.588-0.073-0.857-0.045c0.396-0.547,0.591-1.391,0.84-2.48
			c0.135-0.583,0.277-1.212,0.461-1.804c0.184-0.583,0.351-0.808,0.539-1.073c0.408-0.563,0.71-1.069,0.914-2.46
			c0.2-1.354,0.049-2.301-0.461-2.896c-0.592-0.682-1.567-0.792-2.615-0.176c-0.571,0.351-0.942,0.727-1.24,1.028
			c-0.147,0.147-0.257,0.257-0.372,0.351c1.012-1.481,3.285-5.162,3.811-7.328l0.224-0.886c0.734-2.86,1.967-7.646-0.465-9.604
			c-2.767-2.183-5.594-1.453-6.43,1.518c-0.131,0.502-0.27,0.963-0.4,1.408c-0.118,0.4-0.232,0.787-0.334,1.167
			c-0.012-1.004-0.004-2.105,0.041-3.248c0.188-4.472,0.812-9.196,1.012-9.804l0.106-0.31c0.514-1.501,2.081-6.071,2.477-6.854
			c0.159-0.326,0.253-0.714,0.355-1.122c0.22-0.893,0.428-1.587,0.897-1.681c0.498-0.106,0.926-0.229,1.318-0.339
			c0.628-0.171,1.122-0.257,1.832-0.293c0.367,0.033,0.922,0.62,1.175,1.032c0.233,0.375,0.682,0.559,1.106,0.453
			c0.428-0.102,0.742-0.465,0.775-0.906c0.11-1.379-0.29-3.839-2.513-4.333c-2.35-0.522-5.532-0.489-7.581,0.131
			c-1.33,0.4-1.84,0.229-2.525-0.58l-0.265-0.318c-0.955-1.142-3.109-3.606-5.431-3.264c-3.007,0.44-3.803,3.125-3.803,4.484
			c0,0.469,0.322,0.877,0.775,0.987c0.457,0.102,0.93-0.098,1.15-0.514c0.233-0.445,0.836-1.306,1.42-0.996
			c1.012,0.551,1.42,1.265,1.42,2.469c0,0.326-0.037,0.604-0.078,0.906c-0.102,0.787-0.224,1.767,0.09,3.712
			c0.106,0.633,0.253,1.371,0.412,2.167c0.481,2.432,1.077,5.451,0.991,7.736c-0.065,2.109,0.049,6.96,0.131,10.045
			c-0.747-0.771-2.208-1.999-3.672-2.138c-1.016,0-2.244,0.71-2.987,1.722c-0.808,1.105-1.016,2.468-0.58,3.855
			c0.673,2.081,2.844,7.83,4.762,9.458c0.914,0.783,1.481,1.53,1.779,2.032c-0.057,0.004-0.11,0.008-0.171,0.008l-0.498-0.037
			c-0.539,0-1.004,0.265-1.281,0.73c-0.539,0.898-0.192,2.211,0.245,3.027l0.208,0.424c1.379,2.86,2.493,4.909,3.477,5.598
			c0.473,0.322,0.885,0.514,1.216,0.652c-0.82,0.049-1.763,0.249-2.22,1c-0.229,0.379-0.408,1.016,0.033,1.864
			c0.016,0.029,1.424,2.946,2.48,3.652c0.351,0.314,1.485,2.35,2.048,3.68c0.481,1.159,1.028,1.995,1.432,2.611
			c0.188,0.281,0.42,0.636,0.445,0.685c0,0.225-0.278,0.673-0.596,0.759c-0.363,0.106-0.657,0.298-0.918,0.469
			c-0.49,0.318-0.898,0.6-1.914,0.469c-2.052-0.224-3.893-0.106-3.888-0.106c-0.323,0.021-0.612,0.192-0.788,0.457
			s-0.216,0.6-0.11,0.906c0.041,0.11,0.417,1.081,1.469,1.518c0.098,0.094,0.282,0.498,0.408,0.767
			c0.359,0.779,0.812,1.759,1.75,2.277c0.971,0.534,1.444,1.489,1.444,2.917c0,1.673,0.987,4.459,1.913,6.932l0.29,0.787
			c0.379,1.037,2.007,11.261,2.007,13.648l-0.008,2.154c-0.041,6.487-0.028,10.412,0.143,11.289l0.065,0.331
			c0.163,0.82,0.384,1.946,0.241,2.305c-0.293,0.641-0.669,2.032-0.849,2.721c-1.069,0.722-4.476,3.097-7.915,6.308
			c-2.958,2.782-6.206,7.038-6.202,7.038c-0.542,0.673-0.416,1.473-0.29,2.248c0.069,0.42,0.155,0.931,0.155,1.542
			c0,1.33-0.318,2.269-0.873,2.579c-0.877,0.498-4.476,4.647-7.152,8.058c-1.807,2.289-3.7,5.042-4.415,6.079l-0.241,0.351
			c-0.31,0.396-0.698,0.894-0.306,1.673c0.061,0.119,0.241,0.478,0.184,1.967c-0.057,1.869-0.2,1.917-0.739,2.081
			c-0.212,0.069-0.445,0.139-0.718,0.253c-1.799,0.775-10.894,13.362-11.575,14.949l-0.355,0.747
			c-0.669,1.379-0.84,1.848-0.375,3.452c0.221,0.767,0.221,0.983,0.229,0.996c-0.012,0.017-0.073,0.082-0.322,0.241
			c-0.575,0.355-1.999,2.199-7.271,9.4c-1.571,2.146-3.195,4.366-3.452,4.643c-0.857,0.849-2.966,3.843-2.195,5.965
			c0.146,0.404,0.322,0.751,0.477,1.053c0.094,0.184,0.232,0.469,0.273,0.379c-0.004,0.004-0.09,0.126-0.502,0.355
			c-2.129,1.204-3.75,4.737-4.063,5.806c-0.074,0.212-0.547,1.049-0.967,1.783c-0.779,1.371-1.849,3.248-2.812,5.271
			c-1.126,2.281-2.15,5.295-2.317,6.022c-0.367,1.546,0.082,2.187,0.869,2.672c0.196,0.123,0.208,0.135,0.286,0.338
			c-0.053,0.11-0.396,0.347-0.596,0.486l-0.383,0.269c-0.727,0.519-1.273,1.901-2.163,4.615c-0.143,0.437-0.265,0.812-0.339,1.016
			c-0.481,1.126-3.929,10.017-4.504,11.689l-0.237,0.681c-0.71,2.032-1.448,4.133-0.163,5.022c0.396,0.286,0.836,0.449,1.191,0.583
			c0.106,0.041,0.253,0.094,0.355,0.143c0,0.033,0.004,0.065,0.008,0.094c-0.012,0.004-0.028,0.012-0.045,0.021
			c-1.709,0.759-2.497,4.394-2.595,5.646c-0.037,0.539-0.575,2.126-1.044,3.521c-0.906,2.665-1.493,4.492-1.424,5.512
			c0.024,0.453-0.017,0.506-0.106,0.62c-0.29,0.371-0.575,0.812-0.575,1.82c0,0.596-0.249,1.852-0.489,3.068
			c-0.335,1.706-0.682,3.468-0.682,4.75c0,2.027,0.306,5.222,0.706,6.32c0.232,0.596,0.844,2.191,2.432,2.191
			c0.037,0,0.22-0.008,0.253-0.012c1.424-0.151,2.456-1.607,2.738-2.615c0.114-0.441,0.126-0.873,0.139-1.285
			c0.012-0.433,0.024-0.849,0.147-1.232c0.143-0.404,0.232-0.759,0.318-1.105c0.123-0.494,0.229-0.926,0.51-1.498
			c0.604-1.22,0.632-1.624,0.767-3.525c0.049-0.829,0.22-1.501,0.387-2.15c0.18-0.698,0.367-1.424,0.367-2.256
			c0-1.105,0.237-2.333,0.425-3.317l0.089-0.485c0.074-0.355,0.147-0.616,0.221-0.886c0.159-0.571,0.31-1.126,0.469-2.358
			c0.07-0.616,0.253-1.628,0.457-2.734c0.469-2.57,0.8-4.472,0.73-5.492c-0.061-0.82-0.053-1.509-0.033-1.942
			c0.567-0.396,1.404-1.122,1.636-2.089c0.061-0.257,0.245-0.535,0.437-0.824c0.343-0.518,0.767-1.163,0.677-1.987
			c-0.004-0.318,0.22-1.795,1.787-8.103l0.147-0.592c0.057-0.253,0.22-0.824,0.424-1.559c0.816-2.917,1.55-5.626,1.55-6.715
			c0-1.085,0.204-1.799,0.522-2.077c1.061-0.192,1.767-0.816,3.652-5.692c1.493-3.831,2.974-7.217,3.958-9.449
			c0.616-1.412,1.041-2.383,1.155-2.742c0.102-0.29,0.175-0.73,0.253-1.232c0.147-0.967,0.363-2.427,1.102-2.705
			c1.334-0.506,3.395-3.513,7.601-11.11c0.293-0.531,0.518-0.935,0.657-1.171l0.53-0.926c1.546-2.665,3.077-5.386,3.26-6.83
			c0.085-0.587,0.306-0.718,1-1.044c0.31-0.147,0.665-0.314,0.975-0.551c1.13-0.812,5.79-8.254,6.418-10.008
			c0.31-0.795,1.249-2.342,2.072-3.705c0.931-1.534,1.734-2.86,1.987-3.607l0.118-0.359c0.392-1.171,0.877-2.636,2.04-3.321
			l0.428-0.253c1.514-0.885,2.824-1.644,4.708-5.234c1.077-2.012,2.301-4.194,3.337-6.039c0.873-1.554,1.612-2.868,2.007-3.635
			c0.84-1.583,1.534-3.497,1.848-4.415c0.873-0.261,2.575-0.897,4.076-2.167c1.003-0.861,1.82-2.448,2.305-3.391l0.2-0.387
			c0.608-0.988,2.938-3.974,4.745-6.239c0.273,0.943,0.641,2.089,1.061,3.085c0.844,2.015,1.962,3.631,3.06,4.415
			c1.281,0.938,1.963,3.19,1.792,3.615c-1.494,1.673,0.089,3.97,0.681,4.822c1.195,1.787,6.34,5.117,6.887,5.467
			c0.13,0.09,0.551,0.355,1.175,0.739c1.367,0.844,3.754,2.313,6.059,3.872c1.085,0.747,2.097,1.494,3.104,2.24
			c1.424,1.057,2.897,2.146,4.545,3.19c3.668,2.342,6.507,3.725,7.87,4.386l0.4,0.196c0.743,0.371,1.893,1.052,3.158,1.799
			c1.701,1.003,3.627,2.142,5.071,2.831c0.522,0.245,1.016,0.412,1.477,0.494c-0.522,0.29-0.906,0.792-1.044,1.395
			c-0.2,0.869,0.134,1.783,0.873,2.428c0.473,0.428,0.449,0.596,0.163,1.134c-0.359,0.604-0.437,1.318-0.216,1.954
			c0.229,0.661,0.767,1.196,1.477,1.469c0.383,0.196,0.918,1.404,0.779,1.771c-0.906,1.485-0.555,2.648-0.082,3.398
			c0.314,0.453,0.428,1.053,0.412,1.159c-0.379,0.62-0.347,1.285-0.298,2.297c0.021,0.449,0.049,1.003,0.049,1.697
			c0,0.432-0.021,0.82-0.041,1.175c-0.073,1.375-0.139,2.672,1.2,3.999c1.143,1.15,2.407,1.689,3.333,2.085
			c0.236,0.098,0.445,0.191,0.641,0.286c0.494,0.241,1.154,0.828,1.689,1.297c0.273,0.249,0.53,0.469,0.689,0.596
			c0.441,0.404,5.031,2.591,7.756,3.574c3.598,1.281,7.124,2.231,8.894,2.676c-0.31,0.747-0.693,1.681-0.869,2.224
			c-0.314,0.934-1.419,2.787-1.701,3.072c-0.118,0.11-0.306,0.322-0.53,0.579c-0.359,0.417-1.314,1.506-1.607,1.636
			c-0.881,0.118-8.67,0.857-9.417,0.857c-0.575,0-1.342,0.208-2.448,0.526c-0.469,0.134-1.179,0.343-1.367,0.351
			c-0.91,0-5.235,1.608-6.071,2.615c-0.069,0.074-0.191,0.171-0.355,0.302c-0.779,0.645-2.399,1.987-3.745,4.129
			c-1.196,1.914-2.13,4.557-2.632,5.977c-0.139,0.392-0.237,0.681-0.314,0.849c-0.474,1.163-1.416,5.541-1.75,7.148
			c-0.934,0.388-3.105,1.322-6.259,2.914c-1.954,0.983-3.974,2.129-5.977,3.272c-1.91,1.085-3.803,2.158-5.59,3.064
			c-2.762,1.371-5.5,2.334-5.948,2.424c-2.208,0.432-5.349,1.358-7.801,3.313c-1.673,1.334-3.007,4.055-3.276,4.834
			c-0.155,0.433-0.298,0.902-0.449,1.383c-0.461,1.497-0.938,3.048-1.934,4.129c-1.787,1.901-3.823,6.446-4.904,9.939
			c-0.334,1.028-1.465,3.982-2.893,7.719c-0.926,2.423-2.003,5.227-3.134,8.221l-2.794,7.401c-2.31,6.137-4.7,12.485-4.978,13.016
			c-0.363,0.612-1.007,2.215-1.75,4.067c-0.755,1.881-1.893,4.721-2.277,5.186c-0.779,0.824-2.497,3.175-2.57,3.276
			c-0.249,0.339-0.261,0.792-0.037,1.146c0.22,0.355,0.632,0.522,1.053,0.453c0.424-0.082,2.595-0.534,3.68-1.461
			c0.253-0.22,0.6-0.514,0.693-0.547c0.123,0.045,0.175,0.086,0.29,0.176c0.221,0.167,0.555,0.425,1.184,0.526
			c0.004,0,0.008,0,0.016,0c-0.62,0.657-1.46,1.607-2.317,2.583c-1.281,1.448-2.729,3.097-3.272,3.529
			c-1.2,0.942-2.322,2.529-2.371,2.599c-0.192,0.27-0.237,0.616-0.126,0.935c0.114,0.31,0.371,0.551,0.693,0.636
			c0.037,0.013,0.082,0.024,0.123,0.037c-0.845,0.253-1.685,1.105-2.595,2.097l-0.282,0.298c-1.408,1.416-3.207,3.285-3.794,4.166
			c-0.506,0.759-0.485,1.566-0.282,2.228c-1.154,0.686-3.284,2.036-5.153,3.685c-1.42,1.207-2.738,3.149-3.341,4.039
			c-1.032,1.399-1.726,4.067-0.351,5.435c0.75,0.767,1.632,0.931,2.497,0.787c0.098-0.016,0.188-0.032,0.437-0.036l0.681,0.012
			c0.433,0,0.8-0.021,1.122-0.061c-1.224,1.909-2.889,4.496-4.512,6.952c-1.53,2.329-4.292,5.748-4.753,6.304
			c-1.591,1.999-3.313,3.782-3.635,3.961c-0.743-0.085-0.767-0.15-0.894-0.514c-0.171-0.481,0.853-1.171,1.228-1.354
			c0.437-0.217,0.665-0.714,0.535-1.184c-0.126-0.469-0.551-0.824-1.057-0.75c-0.147,0.008-3.578,0.298-4.284,3.149
			c-0.693,2.697,1.191,4.569,3.187,5.418c0.518,0.225,0.934,0.449,1.293,0.645c0.71,0.388,1.383,0.755,2.264,0.755
			c0.372,0,0.372,0,0.694,0.335l0.306,0.31c0.661,0.702,4.166,3.256,7.087,3.791c2.489,0.437,3.766-0.417,4.378-1.118
			c1.22-1.403,0.983-3.391,0.951-3.615c-0.069-0.485-0.477-0.856-0.967-0.877c-0.485,0.024-0.93,0.314-1.037,0.796
			c0,0.012-0.302,1.154-1.02,1.154l0,0c-0.935-0.073-2.008-0.571-2.493-1.159c-0.306-0.375-0.273-0.652-0.261-0.759
			c0.074-0.656,1.208-5.911,2.464-9.686c1.424-4.223,2.913-6.776,3.211-7.188c0.437-0.616,0.955-1.682,1.461-2.705
			c0.416-0.849,0.885-1.812,1.15-2.163c0.123-0.163,0.343-0.596,0.612-1.158c0.119-0.245,0.249-0.515,0.388-0.792
			c-0.383,1.244-0.563,2.501-0.322,3.529c0.849,3.464,2.925,3.729,3.542,3.729c0.041,0,0.253-0.013,0.294-0.017
			c0.742-0.09,1.762-0.592,2.411-1.714c0.526-0.93,0.89-2.17,1.065-2.844c0.591-0.412,1.346-1.342,1.346-3.415v-0.521
			c0-1.024,0.004-2.139-0.094-3.647c-0.037-0.657-0.102-1.481-0.18-2.302c0.955,0.727,2.183,0.983,2.958,0.298
			c1.02-0.873,0.804-2.334,0.645-3.406c-0.033-0.213-0.065-0.421-0.086-0.625c-0.049-0.407,0.045-2.093,0.114-3.32
			c0.053-0.923,0.086-1.62,0.106-2.15c0.816,0.481,1.918,0.587,2.587-0.086c0.738-0.751,0.788-2.052,0.775-3.537
			c0-0.8,0.759-5.219,1.693-6.609c0.433-0.661,0.894-1.555,1.297-2.407c0.074,0.045,0.155,0.085,0.245,0.109
			c0.433,0.119,0.894-0.028,1.142-0.403c0.037-0.058,0.947-1.392,1.387-2.436c0.119-0.266,0.208-0.515,0.294-0.747
			c0.069-0.195,0.167-0.461,0.253-0.506c1.236-0.184,2.089-1.253,2.285-2.876l0.037-0.498c0.085-1.285,0.265-3.958,1.709-7.687
			c1.73-4.419,7.005-19.862,8.107-24.452c1.008-4.312,1.534-8.242,1.534-9.894c0-2.338,0.58-5.186,1.11-5.528
			c0.245-0.139,0.461-0.249,0.645-0.322c-0.017,0.383,0.044,0.816,0.322,1.236c0.326,0.481,0.865,0.804,1.729,0.975
			c0.58,0.119,1.232,0.253,2.102,0.253c1.771,0,4.035-0.575,7.34-1.86c2.391-0.922,6.132-2.203,8.796-2.787
			c2.57-0.579,4.635-0.8,5.818-0.889c-0.191,3.109-0.718,12.179-1.016,22.55c-0.123,3.66-0.131,7.724-0.135,11.645
			c-0.004,2.224-0.008,4.365-0.033,6.291c-0.082,5.5-0.229,9.682-0.298,11.742c-0.028,0.768-0.045,1.249-0.045,1.404
			c0,0.139-0.008,0.444-0.02,0.922c-0.074,2.542-0.261,9.29-0.029,19.714c0.257,12.669,0.987,29.943,1.102,32.583
			c-0.665,0.972-2.86,4.248-5.006,8.352c-1.51,2.942-2.958,6.467-3.737,8.36c-0.245,0.592-0.408,0.995-0.457,1.098
			c-0.114,0.204-0.4,0.783-0.796,1.591c-1.265,2.583-4.618,9.429-5.912,10.502c-1.314,1.081-3.562,4.843-4.097,8.278
			c-0.306,1.995,0.49,4.023,0.788,4.688c0.004,0.596-0.028,2.497-0.596,4.581c-0.824,2.836-1.256,6.646-1.012,8.834
			c0.175,1.885-2.468,25.524-2.721,26.728c-0.126,0.6-0.747,8.087-1.134,14.02c-0.474,7.229-0.755,14.39-0.816,16.319
			c-0.135,3.505-0.938,11.195-1.437,12.191c-0.73,1.485-1.42,5.304-1.42,6.206c0,0.709,0.359,1.566,0.604,2.064
			c-0.212,0.767-0.539,1.803-0.734,2.162c-0.465,0.759-0.232,1.346-0.11,1.562c0.478,0.853,1.853,0.89,2.848,0.122
			c0.204-0.146,0.453-0.339,0.714-0.555c-0.135,0.392-0.286,0.853-0.449,1.347c-0.539,1.628-1.204,3.655-1.775,4.781
			c-0.897,1.796-1.244,3.048-1.257,3.102c-0.094,0.347,0.004,0.714,0.253,0.971c0.249,0.257,0.616,0.388,0.958,0.285
			c-0.045,0.363-0.143,0.629-0.273,0.771c-0.371,0.354-0.612,0.955-1.077,2.171c-0.314,0.823-0.702,1.852-1.04,2.317
			c-0.567,0.812-1.477,2.357-1.167,3.545c0.13,0.494,0.449,0.89,0.902,1.105c0.077,0.037,0.159,0.074,0.241,0.099
			c-0.898,0.922-1.942,2.113-2.869,3.479c-1.819,2.701-2.946,6.312-3.129,7.271l-0.065,0.358c-0.331,1.856-0.784,4.395,1.358,4.925
			c0.253,0.065,0.539,0.094,0.853,0.094c0.318,0,1.395-0.045,2.174-0.584c-1.191,3.22-3.774,9.629-6.471,14.844
			c-1.799,3.447-4.533,6.801-4.847,7.107c-0.021,0.008-0.118,0.036-0.29,0.036c-0.686,0-1.338-0.347-1.408-0.497
			c-0.033-0.282,0.465-1.159,1.008-1.771c0.322-0.367,0.339-0.913,0.041-1.297c-0.298-0.392-0.829-0.506-1.265-0.29
			c-0.526,0.266-3.162,1.689-3.162,3.737c-0.004,1.942,0.367,3.815,4.92,5.41c2.281,0.779,3.75,0.857,4.59,0.8
			c0.318,0.478,0.849,0.946,1.677,1.167c0.759,0.212,4.672,1.261,7.454,1.261h0.004c1.812-0.021,2.636-0.976,3.154-1.579
			c1.277-1.126,0.539-3.477,0.281-4.166c-0.184-0.493-0.714-0.75-1.211-0.624c-0.51,0.135-0.833,0.637-0.747,1.155
			c0.016,0.118,0.032,0.497-0.147,0.705c-0.196,0.233-0.661,0.266-0.918,0.266c-2.799,0-2.799-1.105-2.799-1.579
			c0-0.057,0.049-5.708,1.722-13.211c1.689-7.34,4.586-15.978,5.271-17.634c-0.277,1.024-0.473,2.325,0.176,3.982
			c0.987,2.513,1.673,4.071,3.219,4.418c0.069,0.017,0.236,0.037,0.31,0.037c2.162,0,2.746-4.541,2.896-6.504
			c0.11-1.583,0.163-3.479-0.604-6.021c-0.331-1.098-0.788-2.277-1.216-3.297c0.143,0.032,0.285,0.057,0.432,0.073
			c0.502,0,0.951-0.225,1.273-0.624c0.987-1.248,0.469-4.047,0.2-5.202c-0.294-1.212-0.649-2.538-0.918-3.525
			c1.057-0.098,1.509-0.819,1.575-1.436c0.069-0.596,0.379-3.692-0.123-5.888c-0.298-1.24-0.257-4.476-0.098-6.43
			c0.045,0.021,0.094,0.036,0.143,0.053c0.449,0.122,0.914-0.069,1.146-0.461c0.082-0.135,0.796-1.379,0.796-2.795
			c0-0.897,0.522-2.207,1.024-2.896c0.759-1.102,0.437-2.853,0.024-4.423c-0.277-1.041-0.277-2.13,0-3.166
			c0.375-1.444,1.461-16.12,1.461-17.3c0-1.387,1.424-15.349,1.799-17.132c0.306-1.301,0.89-10.645,0.682-18.711
			c-0.102-3.786-0.526-7.878-1.269-12.166c0-0.004-0.045-0.253-0.045-0.253c-0.298-1.661-0.102-5.476,0.11-5.94
			c0.338-0.213,0.955-0.596,1.159-1.481c0.049-0.017,0.102-0.028,0.163-0.049c0.31-0.086,0.734-0.208,1.224-0.469
			c0.22-0.127,0.4-0.245,0.551-0.348c1.277,1.294,4.28,0.11,6.781-2.811c1.583-1.86,3.125-4.439,4.484-7.52
			c0.204-0.461,0.522-0.828,0.849-1.109c0.363,3.255,1.286,11.012,2.628,18.694c1.007,5.847,2.211,10.604,3.729,16.626l0.726,2.885
			c1.783,7.156,4.917,15.932,8.833,24.725l0.151,0.343c0.212,0.521,5.32,12.941,12.554,21.347c5.014,5.842,11.93,9.281,14.1,10.139
			c0.078,0.583,0.029,1.93-0.114,3.174c-0.058,0.485,0.24,0.942,0.706,1.094c0.102,0.032,0.632,0.135,1.073,0.069
			c-0.033,0.225-0.074,0.453-0.106,0.645c-0.098,0.583-0.2,1.188-0.245,1.693c-0.028,0.334-0.09,0.686-0.143,1.004
			c-0.151,0.901-0.253,1.493,0.155,1.97c0.261,0.307,0.681,0.494,1.191,0.318c-0.033,0.376,0.012,0.755,0.273,1.082
			c0.302,0.371,1.016,0.465,1.383,0.407c-0.188,0.641-0.293,1.478-0.008,1.983c0.281,0.506,1.191,0.673,1.668,0.339
			c0.057-0.041,0.114-0.086,0.167-0.131c0.033,0.326,0.078,0.677,0.126,1.053c0.057,0.424,0.118,0.885,0.167,1.391
			c0.082,0.938,0.396,2.514,1.587,2.514c0.179,0,0.379-0.037,0.571-0.143c0.004,0.081,0.016,0.159,0.037,0.236
			c0.151,0.738,0.89,1.236,1.648,1.036c0,0.955,0.09,2.081,0.432,2.677c0.184,0.294,0.702,0.637,1.053,0.637
			c0.498,0,0.804-0.298,1.028-0.579c0.049,0.02,0.069,0.049,0.082,0.09l0.078,0.265c0.073,0.253,0.212,0.727,0.167,0.856
			c-0.061,0.05-1.452,1.221-1.073,2.273c0.147,0.407,0.596,0.718,1.028,0.718c0.347,0,0.632-0.159,0.804-0.27
			c0.265-0.171,0.534-0.408,0.804-0.641c0.191-0.171,0.518-0.473,0.771-0.379l0.078,0.412c0.089,0.457,0.139,0.689-0.123,1.493
			c-0.424,1.248-1.049,2.595-1.053,2.606c-0.232,0.502-0.024,1.098,0.469,1.343c0.49,0.245,1.093,0.057,1.354-0.429
			c0.396-0.734,0.881-1.566,1.261-2.154c0.163,0.768,0.298,1.616,0.298,1.624c0.082,0.494,0.51,0.857,1.008,0.857
			c0.612,0,1.763-0.384,2.187-1.836c0.13-0.462,0.163-0.372,0.783-0.099c0.559,0.253,0.624,0.461,0.71,0.837
			c0.338,2.48,0.661,2.953,0.849,3.223c0.171,0.217,0.461,0.571,0.991,0.571c0.372,0,0.82-0.334,1-0.657
			c0.057-0.102,0.118-0.22,0.277-0.375c0.559-0.547,0.955-1.232,1.244-1.734c0.106-0.184,0.2-0.351,0.278-0.456
			c0.041-0.054,0.2-0.155,0.449-0.123c0.208,0.103,0.437,0.196,0.657,0.286c0.241,0.098,0.6,0.249,0.637,0.253
			c0.257,0.485,0.991,1.036,2.187,1.632c0.298,0.146,0.653,0.135,0.951-0.021c0.294-0.163,0.49-0.461,0.518-0.796
			c0-0.012,0-0.024,0.004-0.036c0.302,0.481,0.779,0.897,1.408,0.897c0.277,0,0.963-0.098,1.338-0.987
			c0.11-0.253,0.192-0.478,0.253-0.682c0.335,0.241,0.89,0.266,1.224,0.094c0.641-0.314,1.081-0.995,1.293-1.689
			c0.078,0.135,0.167,0.294,0.269,0.486c0.033,0.424,0.351,0.755,0.771,0.864c0.232,0.062,0.489,0.029,0.709-0.085
			c0.27-0.119,0.478-0.376,0.58-0.661c0.139-0.262,0.253-0.47,0.351-0.637c0.155,0.665,0.604,1.392,1.265,1.718
			c0.335,0.18,0.897,0.146,1.232-0.09c0.057,0.204,0.139,0.425,0.244,0.665c0.38,0.906,1.069,1.004,1.347,1.004
			c0.624,0,1.102-0.412,1.408-0.902c0,0.013,0.004,0.025,0.004,0.041c0.032,0.335,0.229,0.633,0.518,0.796
			c0.298,0.159,0.653,0.171,0.951,0.021c1.191-0.596,1.93-1.146,2.125-1.559c0.095-0.086,0.457-0.232,0.694-0.33
			c0.22-0.09,0.448-0.184,0.759-0.314c0.15,0,0.31,0.098,0.339,0.139c0.085,0.118,0.179,0.285,0.285,0.469
			c0.29,0.502,0.686,1.188,1.232,1.722c0.171,0.168,0.232,0.282,0.289,0.388c0.18,0.322,0.629,0.657,1,0.657
			c0.526,0,0.816-0.355,1.04-0.637c0.139-0.204,0.457-0.673,0.783-3.08c0.099-0.449,0.168-0.657,0.706-0.906
			c0.661-0.285,0.669-0.383,0.808,0.103c0.425,1.444,1.571,1.823,2.184,1.823c0.502,0,0.93-0.363,1.008-0.856
			c0-0.008,0.135-0.861,0.298-1.624c0.379,0.592,0.864,1.424,1.261,2.154c0.261,0.485,0.868,0.673,1.354,0.429
			c0.493-0.249,0.701-0.841,0.469-1.343c-0.004-0.012-0.632-1.358-1.049-2.595c-0.265-0.816-0.22-1.049-0.126-1.506l0.2-0.53
			c0.13,0.041,0.452,0.326,0.648,0.498c0.265,0.236,0.534,0.469,0.791,0.632c0.184,0.119,0.466,0.277,0.816,0.277
			c0.429,0,0.881-0.31,1.028-0.718c0.379-1.053-1.017-2.224-1.073-2.269c-0.049-0.135,0.09-0.604,0.167-0.86l0.086-0.355
			c0.004,0,0.021-0.008,0.062-0.012c0.167,0.216,0.481,0.587,1.036,0.587c0.363,0,0.89-0.354,1.073-0.669
			c0.334-0.575,0.416-1.673,0.416-2.644c0.755,0.195,1.501-0.311,1.632-0.967c0.028-0.103,0.045-0.204,0.049-0.307
			c0.191,0.11,0.392,0.147,0.575,0.147c1.191,0,1.506-1.575,1.587-2.505c0.05-0.515,0.11-0.976,0.168-1.4
			c0.053-0.375,0.094-0.722,0.126-1.048c0.037,0.032,0.078,0.065,0.123,0.094c0.469,0.375,1.419,0.22,1.713-0.306
			c0.286-0.507,0.18-1.343-0.008-1.983c0.371,0.062,1.089-0.037,1.383-0.408c0.262-0.326,0.311-0.706,0.273-1.081
			c0.522,0.18,0.935-0.012,1.191-0.318c0.404-0.478,0.306-1.073,0.155-1.971c-0.053-0.318-0.114-0.669-0.143-0.991
			c-0.041-0.519-0.144-1.122-0.245-1.705c-0.032-0.192-0.073-0.421-0.103-0.645c0.441,0.064,0.968-0.037,1.073-0.069
			c0.47-0.147,0.768-0.604,0.706-1.094c-0.146-1.249-0.191-2.595-0.114-3.175c2.175-0.86,9.086-4.304,14.101-10.139
			c7.233-8.408,12.342-20.824,12.55-21.338l0.155-0.352c3.913-8.788,7.05-17.568,8.833-24.725l0.727-2.885
			c1.521-6.025,2.722-10.783,3.729-16.621c1.342-7.679,2.264-15.427,2.631-18.687c0.331,0.289,0.661,0.677,0.877,1.167
			c1.33,3.011,2.873,5.589,4.456,7.454c2.448,2.852,5.124,4.292,6.776,2.807c0.155,0.103,0.339,0.225,0.571,0.359
			c0.474,0.253,0.897,0.375,1.208,0.461c0.057,0.021,0.11,0.032,0.159,0.045c0.18,0.808,0.722,1.207,1.199,1.518
			c0.196,0.938,0.347,4.357,0.069,5.908l-0.045,0.253c-0.742,4.292-1.167,8.384-1.269,12.166c-0.212,8.066,0.375,17.409,0.677,18.69
			c0.384,1.804,1.804,15.766,1.804,17.152c0,1.18,1.085,15.859,1.461,17.308c0.277,1.028,0.277,2.122,0,3.162
			c-0.412,1.566-0.73,3.317,0.045,4.443c0.485,0.665,1.008,1.975,1.008,2.872c0,1.416,0.714,2.656,0.795,2.795
			c0.233,0.396,0.689,0.587,1.146,0.461c0.054-0.017,0.103-0.037,0.151-0.058c0.151,1.914,0.191,5.186-0.11,6.446
			c-0.502,2.184-0.188,5.28-0.122,5.867c0.065,0.625,0.518,1.347,1.574,1.444c-0.269,0.987-0.628,2.317-0.922,3.533
			c-0.265,1.146-0.783,3.95,0.204,5.194c0.314,0.396,0.755,0.616,1.412,0.616c0.012,0,0.028,0,0.045-0.005
			c0.077-0.008,0.159-0.02,0.24-0.036c-0.428,1.016-0.881,2.183-1.207,3.272c-0.768,2.541-0.715,4.438-0.601,6.03
			c0.151,1.954,0.734,6.495,2.897,6.495c0.077,0,0.249-0.021,0.322-0.037c1.534-0.347,2.22-1.905,3.207-4.423
			c0.632-1.611,0.465-2.889,0.195-3.9c0.796,1.954,3.603,10.38,5.251,17.557c1.677,7.507,1.722,13.162,1.722,13.215
			c0,0.474,0,1.579-2.799,1.579c-0.257,0-0.722-0.037-0.918-0.266c-0.18-0.208-0.167-0.587-0.15-0.689
			c0.098-0.522-0.217-1.032-0.73-1.175c-0.506-0.139-1.049,0.131-1.229,0.628c-0.257,0.69-0.999,3.036,0.408,4.305
			c0.396,0.461,1.216,1.42,3.023,1.44c0.004,0,0.163,0,0.171,0c2.619,0,6.536-1.049,7.283-1.257
			c0.836-0.221,1.371-0.693,1.689-1.171c0.812,0.058,2.305-0.021,4.598-0.8c4.541-1.6,4.912-3.472,4.908-5.516
			c0-1.946-2.636-3.366-3.162-3.636c-0.433-0.216-0.967-0.098-1.269,0.29c-0.298,0.388-0.277,0.934,0.045,1.297
			c0.538,0.608,1.036,1.485,1.012,1.738c-0.077,0.184-0.73,0.53-1.416,0.53c-0.126,0-0.216-0.012-0.208,0.013
			c-0.534-0.522-3.174-3.799-4.929-7.152c-2.692-5.206-5.275-11.607-6.471-14.843c0.796,0.534,1.856,0.579,2.171,0.579
			c0.313,0,0.6-0.033,0.849-0.094c2.142-0.53,1.688-3.068,1.358-4.925l-0.065-0.38c-0.184-0.938-1.306-4.549-3.129-7.254
			c-0.927-1.362-1.967-2.554-2.864-3.477c0.085-0.028,0.163-0.064,0.236-0.098c0.453-0.22,0.775-0.611,0.906-1.105
			c0.31-1.188-0.601-2.733-1.176-3.554c-0.33-0.457-0.718-1.485-1.032-2.31c-0.465-1.216-0.701-1.815-1.028-2.121
			c-0.167-0.184-0.272-0.457-0.322-0.824c0.348,0.09,0.71-0.024,0.959-0.277c0.253-0.257,0.352-0.633,0.253-0.979
			c-0.012-0.053-0.358-1.302-1.261-3.108c-0.566-1.114-1.232-3.146-1.771-4.774c-0.163-0.493-0.314-0.954-0.449-1.342
			c0.253,0.204,0.494,0.392,0.686,0.53c1.057,0.804,2.403,0.751,2.877-0.102c0.122-0.217,0.354-0.805-0.086-1.519
			c-0.216-0.399-0.543-1.439-0.759-2.207c0.245-0.497,0.604-1.354,0.604-2.064c0-0.901-0.689-4.716-1.42-6.206
			c-0.493-0.991-1.297-8.682-1.432-12.179c-0.062-1.938-0.343-9.094-0.816-16.328c-0.392-5.928-1.012-13.415-1.138-14.035
			c-0.249-1.183-2.893-24.822-2.722-26.687c0.249-2.208-0.184-6.019-1.004-8.838c-0.571-2.097-0.607-3.998-0.6-4.598
			c0.298-0.665,1.094-2.693,0.787-4.688c-0.534-3.439-2.786-7.201-4.092-8.274c-1.298-1.081-4.651-7.923-5.916-10.506
			c-0.396-0.804-0.682-1.387-0.779-1.562c-0.065-0.126-0.229-0.534-0.469-1.122c-0.779-1.893-2.229-5.418-3.742-8.368
			c-2.142-4.096-4.337-7.372-5.002-8.344c0.114-2.64,0.845-19.914,1.102-32.578c0.237-10.429,0.045-17.177-0.028-19.719
			c-0.012-0.474-0.021-0.779-0.021-0.922c0-0.155-0.016-0.633-0.045-1.404c-0.073-2.06-0.216-6.242-0.298-11.737
			c-0.024-1.931-0.028-4.072-0.032-6.296c-0.004-3.925-0.013-7.984-0.135-11.64c-0.298-10.379-0.824-19.454-1.016-22.558
			c1.183,0.085,3.247,0.31,5.822,0.889c2.66,0.583,6.401,1.865,8.788,2.787c4.925,1.917,7.434,2.028,9.567,1.579
			c0.742-0.143,1.281-0.465,1.607-0.947c0.27-0.408,0.335-0.828,0.314-1.24c0.18,0.078,0.396,0.18,0.637,0.318
			c0.546,0.351,1.122,3.199,1.122,5.537c0,1.652,0.525,5.581,1.533,9.902c1.102,4.582,6.378,20.025,8.104,24.439
			c1.444,3.733,1.624,6.402,1.709,7.691l0.041,0.518c0.188,1.608,1.04,2.673,2.306,2.836c0.057,0.065,0.154,0.33,0.224,0.526
			c0.086,0.232,0.172,0.478,0.282,0.727c0.452,1.064,1.358,2.398,1.399,2.456c0.253,0.375,0.718,0.526,1.143,0.403
			c0.085-0.028,0.171-0.069,0.244-0.109c0.408,0.853,0.869,1.75,1.306,2.411c0.931,1.387,1.686,5.806,1.686,6.825
			c-0.013,1.27,0.036,2.57,0.774,3.317c0.674,0.673,1.771,0.575,2.587,0.086c0.021,0.53,0.058,1.232,0.106,2.15
			c0.069,1.231,0.163,2.917,0.11,3.35c-0.017,0.179-0.049,0.388-0.082,0.596c-0.159,1.072-0.375,2.533,0.637,3.398
			c0.804,0.701,2.023,0.429,2.966-0.286c-0.077,0.812-0.143,1.637-0.18,2.293c-0.102,1.514-0.098,2.632-0.094,3.656v0.522
			c0,2.072,0.755,3.003,1.347,3.414c0.172,0.674,0.534,1.918,1.069,2.849c0.645,1.117,1.668,1.615,2.432,1.713
			c0.032,0.005,0.236,0.013,0.269,0.013c0.616,0,2.693-0.266,3.542-3.737c0.245-1.024,0.062-2.281-0.322-3.517
			c0.139,0.277,0.27,0.551,0.384,0.787c0.269,0.562,0.493,0.995,0.611,1.154c0.262,0.355,0.734,1.318,1.15,2.167
			c0.506,1.023,1.024,2.089,1.465,2.713c0.29,0.404,1.783,2.958,3.203,7.177c1.257,3.778,2.391,9.033,2.464,9.702
			c0.009,0.09,0.045,0.371-0.261,0.747c-0.485,0.591-1.559,1.089-2.546,1.158c-0.678,0-0.967-1.15-0.967-1.154
			c-0.11-0.481-0.584-0.783-1.036-0.796c-0.494,0.021-0.902,0.392-0.968,0.877c-0.032,0.225-0.269,2.212,0.951,3.619
			c0.612,0.702,1.877,1.562,4.382,1.114c2.917-0.535,6.426-3.089,7.055-3.758l0.338-0.343c0.327-0.335,0.327-0.335,0.694-0.335
			c0.877,0,1.55-0.367,2.264-0.755c0.359-0.195,0.771-0.424,1.29-0.64c1.995-0.854,3.884-2.726,3.19-5.41
			c-0.706-2.864-4.142-3.154-4.284-3.162c-0.522-0.069-0.931,0.277-1.057,0.75c-0.131,0.47,0.098,0.968,0.534,1.184
			c0.371,0.184,1.396,0.873,1.229,1.354c-0.127,0.363-0.151,0.429-0.689,0.526c-0.526-0.191-2.248-1.971-3.856-3.994
			c-0.444-0.534-3.206-3.954-4.74-6.287c-1.62-2.456-3.289-5.035-4.509-6.948c0.311,0.041,0.682,0.061,1.122,0.061l0.816-0.016
			c0.102,0,0.199,0.021,0.302,0.04c0.869,0.144,1.746-0.024,2.484-0.774c1.388-1.379,0.693-4.048-0.448-5.603
			c-0.498-0.734-1.816-2.676-3.224-3.871c-1.877-1.657-4.011-3.012-5.165-3.697c0.204-0.661,0.225-1.469-0.282-2.228
			c-0.591-0.881-2.387-2.75-3.786-4.157l-0.289-0.306c-0.91-0.992-1.751-1.841-2.595-2.098c0.04-0.012,0.085-0.024,0.122-0.036
			c0.322-0.086,0.579-0.327,0.689-0.641c0.11-0.311,0.065-0.657-0.127-0.931c-0.049-0.069-1.171-1.652-2.362-2.595
			c-0.546-0.437-1.999-2.085-3.28-3.533c-0.86-0.976-1.701-1.935-2.317-2.583c0.004,0,0.009,0,0.013,0
			c0.628-0.102,0.963-0.358,1.183-0.526c0.114-0.09,0.172-0.13,0.262-0.175c0.122,0.032,0.469,0.326,0.89,0.685
			c0.922,0.788,3.088,1.245,3.513,1.322c0.412,0.082,0.832-0.098,1.053-0.453c0.224-0.354,0.212-0.808-0.037-1.146
			c-0.073-0.098-1.791-2.452-2.578-3.284c-0.376-0.453-1.514-3.297-2.269-5.178c-0.743-1.852-1.388-3.455-1.73-4.03
			c-0.294-0.571-2.685-6.916-4.998-13.053l-2.795-7.396c-1.13-2.995-2.207-5.802-3.133-8.226c-1.433-3.737-2.559-6.691-2.889-7.707
			c-1.085-3.5-3.121-8.05-4.9-9.947c-1.004-1.085-1.477-2.636-1.941-4.133c-0.151-0.481-0.294-0.946-0.445-1.375
			c-0.273-0.783-1.607-3.504-3.28-4.843c-2.452-1.954-5.598-2.88-7.81-3.313c-0.444-0.085-3.178-1.053-5.936-2.419
			c-1.791-0.91-3.685-1.983-5.594-3.068c-2.004-1.138-4.023-2.289-5.978-3.276c-3.153-1.587-5.32-2.521-6.259-2.909
			c-0.339-1.607-1.277-5.99-1.767-7.181c-0.062-0.135-0.163-0.424-0.298-0.816c-0.502-1.42-1.436-4.064-2.632-5.978
			c-1.346-2.138-2.966-3.484-3.745-4.129c-0.163-0.13-0.285-0.232-0.33-0.27c-0.861-1.04-5.186-2.644-6.088-2.644
			c-0.2-0.008-0.909-0.216-1.375-0.351c-1.105-0.318-1.872-0.526-2.447-0.526c-0.747,0-8.532-0.738-9.34-0.836
			c-0.371-0.151-1.326-1.244-1.685-1.656c-0.225-0.253-0.412-0.465-0.526-0.579c-0.286-0.286-1.392-2.138-1.706-3.064
			c-0.175-0.546-0.562-1.485-0.873-2.231c1.775-0.445,5.3-1.396,8.903-2.677c2.721-0.983,7.311-3.17,7.694-3.525
			c0.217-0.171,0.474-0.396,0.747-0.641c0.534-0.469,1.195-1.061,1.701-1.302c0.18-0.089,0.392-0.184,0.628-0.281
			c0.927-0.396,2.195-0.935,3.325-2.077c1.347-1.334,1.277-2.636,1.208-4.007c-0.021-0.355-0.041-0.742-0.041-1.175
			c0-0.694,0.028-1.249,0.049-1.697c0.049-1.012,0.082-1.677-0.273-2.248c-0.045-0.159,0.074-0.759,0.404-1.245
			c0.453-0.718,0.808-1.881-0.102-3.37c-0.131-0.363,0.403-1.571,0.791-1.771c0.706-0.27,1.24-0.804,1.469-1.465
			c0.225-0.636,0.143-1.351-0.191-1.917c-0.311-0.583-0.335-0.747,0.122-1.159c0.755-0.661,1.09-1.575,0.89-2.444
			c-0.135-0.596-0.515-1.098-1.053-1.396c0.461-0.086,0.959-0.253,1.489-0.498c1.44-0.685,3.366-1.823,5.063-2.827
			c1.265-0.751,2.415-1.432,3.153-1.795l0.404-0.2c1.362-0.661,4.202-2.044,7.866-4.386c1.648-1.044,3.125-2.134,4.549-3.19
			c1.008-0.747,2.02-1.493,3.101-2.236c2.306-1.562,4.692-3.031,6.063-3.876c0.624-0.383,1.044-0.645,1.138-0.714
			c0.584-0.375,5.725-3.705,6.916-5.483c0.596-0.861,2.179-3.154,0.727-4.778c-0.208-0.473,0.473-2.726,1.742-3.656
			c1.105-0.792,2.228-2.407,3.063-4.418c0.425-1,0.792-2.138,1.065-3.089c1.808,2.269,4.133,5.243,4.725,6.206l0.22,0.42
			c0.486,0.942,1.302,2.53,2.31,3.391c1.497,1.273,3.199,1.905,4.072,2.167c0.313,0.918,1.008,2.832,1.844,4.406
			c0.404,0.771,1.139,2.089,2.012,3.644c1.032,1.844,2.26,4.027,3.333,6.034c1.89,3.599,3.199,4.357,4.713,5.243l0.433,0.253
			c1.158,0.689,1.644,2.15,2.035,3.321l0.119,0.355c0.253,0.751,1.057,2.077,1.986,3.611c0.824,1.363,1.763,2.909,2.061,3.676
			c0.637,1.783,5.296,9.225,6.405,10.021c0.335,0.253,0.686,0.42,1,0.567c0.693,0.327,0.918,0.457,1,1.032
			c0.188,1.453,1.713,4.174,3.264,6.842l0.538,0.934c0.131,0.225,0.355,0.628,0.649,1.159c4.206,7.593,6.267,10.604,7.601,11.114
			c0.734,0.273,0.955,1.734,1.102,2.701c0.078,0.502,0.151,0.938,0.245,1.216c0.122,0.375,0.542,1.347,1.163,2.758
			c0.982,2.236,2.464,5.618,3.957,9.445c1.885,4.875,2.591,5.504,3.57,5.638c0.403,0.331,0.604,1.049,0.604,2.13
			c0,1.089,0.734,3.798,1.551,6.716c0.204,0.734,0.363,1.301,0.424,1.571l0.143,0.579c1.567,6.308,1.792,7.785,1.787,8.079
			c-0.094,0.849,0.335,1.493,0.678,2.011c0.191,0.29,0.375,0.567,0.437,0.829c0.236,0.962,1.069,1.689,1.636,2.084
			c0.017,0.429,0.029,1.118-0.032,1.946C475.051,252.83,475.381,254.731,475.851,257.301z M365.54,102.673
			c0.931,0.763,4.215,3.436,5.333,4.272c0.224,0.171,0.979,1.105,1.64,1.938c1.534,1.91,3.636,4.521,5.646,6.136
			c0.837,0.637,1.922,0.947,3.334,0.947c0.294,0,0.551-0.012,0.824-0.062c0.877,0.229,1.126,0.465,1.252,0.763
			c0.18,0.506,0.829,1.257,3.301,3.982c0.886,0.967,1.832,2.012,2.665,2.966c0.853,0.959,1.713,2.175,2.031,2.636
			c0.147,1.073,0.6,4.182,1.024,5.161c0.457,1.008,0.926,2.868,0.84,3.297l-0.098,0.342c-0.261,0.943-0.562,1.82-1.371,2.163
			c-0.808,0.339-1.276,0.281-1.469,0.253c-0.489-0.424-1.767-1.354-3.618-1.354c-1.457,0-2.93,0.567-4.37,1.677l-1.75,1.334
			c-3.325,2.559-6.198,4.77-9.515,5.643c-3.329,0.874-11.388,3.95-14.68,5.227c0.028-0.33,0.081-0.652,0.159-0.889l0.139-0.396
			c0.306-0.865,0.685-1.946,0.159-3.227c-0.14-0.347-0.258-0.587-0.355-0.775c-0.171-0.343-0.176-0.347-0.139-0.799
			c0.021-0.192,0.049-0.363,0.077-0.526c0.135-0.816,0.27-1.661-0.521-3.023c-0.298-0.518-0.551-0.828-0.747-1.069
			c-0.065-0.082-0.122-0.139-0.146-0.164c0-0.008-0.009-0.085,0.04-0.359c0.258-1.354,0.739-3.876-0.477-5.732
			c-0.421-0.641-0.784-1.057-1.077-1.387c-0.392-0.445-0.478-0.551-0.526-1.044c-0.082-1.061-0.176-2.26-1.559-3.358
			c-0.502-0.388-0.535-0.559-0.637-1.016c-0.053-0.253-0.11-0.51-0.221-0.804c-0.481-1.302-2.02-1.967-3.153-2.362
			c-0.163-0.053-0.347-0.131-0.56-0.225c-0.86-0.371-2.162-0.93-4.035-0.93c-0.534,0-1.113,0.045-1.746,0.155
			c-3.149,0.551-4.937,1.665-5.471,3.427c-0.352,1.196-1.367,3.04-1.828,3.333c-0.24,0.147-0.494,0.229-0.869,0.135
			c-0.506-0.849-0.575-1.29-0.543-1.489l0.045-0.253c0.119-0.645,0.294-1.62,0.294-2.844c0-0.539-0.081-1.236-0.167-1.93
			c-0.077-0.608-0.2-1.632-0.151-1.856c0.024-0.049,2.208-5.21,0.601-11.094c-1.404-5.186-5.166-8.572-6.643-9.735
			c0.469-1.677,1.48-5.329,1.566-6.079l0.307-2.252c0.51,0.053,1.126,0.098,1.623,0.098c0.571,0,0.918-0.09,1.249-0.184
			c0.358-0.094,0.771-0.204,1.763-0.257l0.367-0.008c2.627,0,8.89,0.747,9.73,1.244c0.384,0.261,1.191,0.653,2.975,1.506
			l2.325,1.126c2.081,1.036,4.676,2.325,6.561,2.782c1.493,0.359,3.411-0.061,4.565-0.498c0.343,1.085,0.992,2.656,2.081,3.758
			C362.823,102.266,364.728,102.592,365.54,102.673z M295.237,56.557c-0.012,0.49,0.229,0.938,0.678,1.281
			c-0.049,0.123-0.086,0.257-0.098,0.408c-0.004,0.037-0.004,0.077-0.004,0.11c-0.217,0.024-0.408,0.062-0.576,0.102
			c-0.763,0.232-0.979,0.824-0.934,1.265c0.024,0.253,0.135,0.473,0.293,0.661c-0.33,0.167-0.579,0.437-0.615,0.885
			c-0.033,0.412,0.118,0.694,0.351,0.89c-0.172,0.22-0.261,0.49-0.261,0.763c0,0.286,0.085,0.543,0.224,0.767
			c-0.298,0.159-0.485,0.412-0.571,0.653c-0.049,0.139-0.081,0.298-0.073,0.486c-1.085,0.106-2.19,0.742-2.284,1.705
			c-0.037,0.408,0.057,1.392,1.795,1.726c0.15,0.033,0.29,0.065,0.424,0.102c-0.184,0.123-0.343,0.302-0.448,0.555
			c-0.062,0.147-0.09,0.29-0.098,0.424c-0.151,0.086-0.298,0.212-0.425,0.404c-0.212-0.208-0.485-0.338-0.828-0.338
			c-0.375,0-1.036,0.171-1.289,1.351c-0.367-0.102-0.837-0.062-1.216,0.277c-0.515-0.123-1.306-0.029-1.705,1.391
			c-0.078,0.302-0.156,0.575-0.229,0.816c-0.078-0.249-0.159-0.534-0.237-0.849c-0.326-1.146-0.955-1.387-1.428-1.387
			c-0.094,0-0.184,0.008-0.27,0.029c-0.379-0.339-0.849-0.384-1.216-0.277c0-0.004,0-0.008,0-0.013
			c-0.245-1.163-0.914-1.338-1.289-1.338c-0.343,0-0.612,0.13-0.829,0.343c-0.13-0.192-0.277-0.322-0.428-0.404
			c-0.004-0.139-0.033-0.281-0.094-0.428c-0.102-0.253-0.265-0.428-0.449-0.555c0.13-0.041,0.273-0.074,0.424-0.102
			c1.734-0.334,1.832-1.318,1.791-1.726c-0.094-0.963-1.2-1.599-2.285-1.705c0.008-0.188-0.02-0.347-0.073-0.486
			c-0.085-0.245-0.273-0.494-0.571-0.653c0.139-0.229,0.225-0.481,0.225-0.767c0-0.269-0.086-0.542-0.261-0.763
			c0.232-0.196,0.384-0.478,0.351-0.89c-0.037-0.444-0.286-0.718-0.616-0.885c0.159-0.188,0.265-0.408,0.294-0.661
			c0.045-0.437-0.171-1.033-0.963-1.273c-0.155-0.045-0.335-0.073-0.543-0.094c0-0.037,0-0.077-0.004-0.11
			c-0.017-0.139-0.049-0.273-0.094-0.4c0.437-0.331,0.689-0.792,0.673-1.29c-0.008-0.277-0.143-1.208-1.514-1.473
			c-0.277-0.057-0.514-0.09-0.734-0.123c-0.069-0.008-0.134-0.021-0.2-0.028c0.229-0.053,0.473-0.09,0.722-0.11
			c1.473-0.126,1.795-0.792,1.803-1.326c0-0.102-0.008-0.204-0.028-0.298c0.955-0.069,1.216-0.738,1.216-1.138
			c0-0.567-0.396-0.963-0.955-1.211c0.249,0,0.535,0,0.881,0.053c0.351,0.049,0.637,0.069,0.869,0.069c1.24,0,1.6-0.636,1.701-1.016
			c0.188-0.69-0.232-1.322-0.754-1.755c0.747-0.061,1.183-0.567,1.265-1.102c0.555,0.216,1.048,0.327,1.465,0.327
			c0.897,0,1.265-0.514,1.375-0.739c0.114-0.216,0.323-0.791-0.151-1.469c-0.053-0.085-0.114-0.159-0.179-0.236
			c0.122-0.086,0.232-0.196,0.31-0.331c0.245-0.412,0.167-0.938-0.184-1.269c-0.021-0.021-0.225-0.204-0.559-0.449
			c0.098-0.123,0.167-0.257,0.184-0.404c0.004-0.024,0.008-0.053,0.008-0.082c0.253,0.118,0.522,0.232,0.812,0.322
			c0.155,0.085,0.286,0.135,0.535,0.126c0.18,0.008,0.363-0.037,0.519-0.118c0.297-0.09,0.579-0.208,0.836-0.331
			c0,0.028,0.004,0.057,0.008,0.082c0.021,0.143,0.086,0.277,0.184,0.404c-0.334,0.249-0.534,0.428-0.559,0.449
			c-0.351,0.327-0.428,0.857-0.184,1.269c0.082,0.135,0.184,0.249,0.311,0.326c-0.062,0.074-0.114,0.143-0.168,0.221
			c-0.485,0.698-0.273,1.273-0.163,1.489c0.114,0.225,0.478,0.739,1.375,0.739c0.416,0,0.906-0.11,1.465-0.327
			c0.082,0.535,0.519,1.045,1.269,1.106c-0.416,0.343-0.975,0.967-0.763,1.75c0.102,0.379,0.461,1.016,1.701,1.016
			c0.232,0,0.519-0.021,0.869-0.069c0.347-0.053,0.645-0.053,0.882-0.053c-0.56,0.249-0.955,0.645-0.955,1.211
			c0,0.404,0.261,1.073,1.216,1.138c-0.021,0.094-0.033,0.196-0.028,0.298c0.008,0.535,0.33,1.2,1.812,1.326
			c0.244,0.021,0.489,0.061,0.714,0.11c-0.062,0.008-0.127,0.021-0.2,0.028c-0.216,0.033-0.453,0.069-0.73,0.123
			C295.38,55.354,295.246,56.28,295.237,56.557z M237.277,113.139c0.073,0.273-0.053,1.297-0.131,1.91
			c-0.085,0.693-0.167,1.391-0.167,1.93c0,1.224,0.175,2.199,0.293,2.844l0.041,0.237c0.033,0.22-0.033,0.661-0.73,1.607
			c-0.191,0-0.437-0.086-0.661-0.221c-0.478-0.306-1.494-2.15-1.849-3.354c-0.53-1.754-2.321-2.868-5.471-3.419
			c-2.844-0.506-4.675,0.294-5.781,0.771c-0.212,0.09-0.4,0.171-0.583,0.232c-1.114,0.388-2.648,1.053-3.133,2.354
			c-0.11,0.293-0.167,0.555-0.22,0.804c-0.098,0.457-0.139,0.628-0.645,1.024c-1.375,1.094-1.469,2.293-1.562,3.513
			c-0.037,0.331-0.118,0.433-0.51,0.881c-0.294,0.331-0.657,0.747-1.077,1.387c-1.212,1.861-0.734,4.378-0.474,5.749
			c0.041,0.22,0.037,0.306,0.045,0.306c-0.037,0.069-0.094,0.123-0.155,0.2c-0.196,0.241-0.449,0.551-0.743,1.061
			c-0.8,1.371-0.665,2.216-0.53,3.032c0.024,0.163,0.053,0.334,0.073,0.498c0.041,0.481,0.037,0.485-0.134,0.828
			c-0.094,0.192-0.216,0.429-0.355,0.771c-0.526,1.285-0.146,2.362,0.159,3.231l0.139,0.404c0.078,0.229,0.127,0.542,0.159,0.881
			c-3.292-1.277-11.346-4.354-14.68-5.227c-3.317-0.873-6.193-3.084-9.519-5.643l-1.742-1.33c-1.444-1.114-2.917-1.681-4.378-1.681
			c-1.848,0-3.125,0.93-3.619,1.354c-0.196,0.037-0.665,0.082-1.465-0.253c-0.812-0.343-1.114-1.22-1.375-2.163l-0.09-0.322
			c-0.09-0.444,0.375-2.305,0.84-3.329c0.417-0.959,0.869-4.076,1.016-5.145c0.322-0.461,1.179-1.677,2.04-2.644
			c0.824-0.943,1.771-1.983,2.652-2.958c2.477-2.726,3.125-3.476,3.289-3.938c0.139-0.338,0.392-0.579,1.338-0.767
			c0.2,0.013,0.457,0.025,0.755,0.025c1.407,0,2.497-0.31,3.35-0.959c1.995-1.604,4.092-4.215,5.626-6.124
			c0.665-0.828,1.416-1.767,1.636-1.934c1.122-0.84,4.411-3.513,5.341-4.276c0.808-0.085,2.717-0.408,3.925-1.668
			c1.098-1.106,1.747-2.685,2.093-3.77c1.154,0.433,3.088,0.853,4.562,0.498c1.889-0.453,4.484-1.746,6.564-2.782l2.322-1.126
			c1.779-0.853,2.591-1.245,2.966-1.502c0.849-0.501,7.112-1.248,9.739-1.248l0.363,0.008c0.992,0.057,1.404,0.164,1.763,0.257
			c0.334,0.09,0.682,0.184,1.249,0.184c0.498,0,1.114-0.049,1.624-0.098l0.302,2.228c0.09,0.771,1.102,4.427,1.571,6.104
			c-1.477,1.163-5.239,4.545-6.642,9.735C235.094,107.978,237.272,113.139,237.277,113.139z M357.771,74.179v0.004l0,0V74.179z
			 M402.207,573.628L402.207,573.628L402.207,573.628L402.207,573.628z"/>
	</g>
</g>
<g>
</g>
<g>
</g>
<g>
</g>
<g>
</g>
<g>
</g>
<g>
</g>
<g>
</g>
<g>
</g>
<g>
</g>
<g>
</g>
<g>
</g>
<g>
</g>
<g>
</g>
<g>
</g>
<g>
</g>
</svg>
