<?xml version="1.0" encoding="iso-8859-1"?>
<!-- Generator: Adobe Illustrator 16.0.0, SVG Export Plug-In . SVG Version: 6.00 Build 0)  -->
<!DOCTYPE svg PUBLIC "-//W3C//DTD SVG 1.1//EN" "http://www.w3.org/Graphics/SVG/1.1/DTD/svg11.dtd">
<svg version="1.1" id="Capa_1" xmlns="http://www.w3.org/2000/svg" xmlns:xlink="http://www.w3.org/1999/xlink" x="0px" y="0px"
	 width="591.591px" height="591.591px" viewBox="0 0 591.591 591.591" style="enable-background:new 0 0 591.591 591.591;"
	 xml:space="preserve">
<g>
	<g>
		<path d="M589.637,547.357c-15.981-8.776-31.963-17.548-47.948-26.32c-35.063-33.395-93.122-88.69-157.79-150.282
			c-32.354-35.117-64.709-70.237-97.063-105.354c-21.665-23.518-43.333-47.034-64.998-70.552
			c-11.147-12.102-24.272-22.477-40.98-19.278c-7.511-6.72-14.933-13.252-22.224-19.526c-15.206-13.187-29.698-25.513-43.179-36.781
			c-0.122-0.103-0.241-0.2-0.363-0.306c-2.591-15.46-13.142-25.859-28.728-27.508C62.623,68.688,38.89,45.926,15.156,23.167
			c-0.119-2.338-2.052-4.753-5.047-4.12C1.753,20.821-2.078,30.226,1.125,37.676c0.016,0.045,0.069,0.065,0.09,0.11
			c0.286,0.665,0.755,1.285,1.473,1.783c9.723,6.76,18.695,14.341,27.055,22.562c1.497,1.84,2.986,3.684,4.582,5.467
			c1.44,2.313,3.003,4.757,4.807,7.267c2.999,4.275,6.209,9.188,9.971,14.215c3.807,4.989,7.842,10.53,12.334,16.21
			c8.927,11.456,19.355,24.043,31.102,37.381c11.713,13.374,24.721,27.527,38.833,42.109c1.102,1.15,2.26,2.313,3.378,3.468
			c0.061,0.212,0.045,0.416,0.143,0.633c7.413,16.772,17.348,31.971,29.596,45.61c2.57,2.864,8.197-0.062,6.85-3.815
			c0.208-0.481,0.339-1.036,0.339-1.673v-4.479c1.734,1.632,3.448,3.26,5.21,4.896c16.304,14.912,33.668,29.73,51.547,44.517
			c17.838,14.831,35.953,29.882,53.884,45.12c17.965,15.198,35.929,30.396,53.611,45.354c17.675,14.961,35.284,29.438,52.289,43.477
			c17.047,13.998,33.436,27.617,49.181,40.307c15.729,12.696,30.604,24.704,44.333,35.785c18.87,15.149,35.479,28.544,49.327,39.593
			c0.114,0.175,0.159,0.363,0.307,0.534c11.677,13.387,19.991,28.548,25.096,45.562c0.648,2.162,2.823,3.402,5.019,2.848
			c11.787-2.982,21.477-9.155,28.988-18.748C592.02,551.78,592.158,548.744,589.637,547.357z"/>
	</g>
</g>
<g>
</g>
<g>
</g>
<g>
</g>
<g>
</g>
<g>
</g>
<g>
</g>
<g>
</g>
<g>
</g>
<g>
</g>
<g>
</g>
<g>
</g>
<g>
</g>
<g>
</g>
<g>
</g>
<g>
</g>
</svg>
