<?xml version="1.0" encoding="iso-8859-1"?>
<!-- Generator: Adobe Illustrator 16.0.0, SVG Export Plug-In . SVG Version: 6.00 Build 0)  -->
<!DOCTYPE svg PUBLIC "-//W3C//DTD SVG 1.1//EN" "http://www.w3.org/Graphics/SVG/1.1/DTD/svg11.dtd">
<svg version="1.1" id="Capa_1" xmlns="http://www.w3.org/2000/svg" xmlns:xlink="http://www.w3.org/1999/xlink" x="0px" y="0px"
	 width="588.879px" height="588.879px" viewBox="0 0 588.879 588.879" style="enable-background:new 0 0 588.879 588.879;"
	 xml:space="preserve">
<g>
	<g>
		<path d="M5.51,282.51c1.041,0.433,2.24,1.551,3.06,2.064c0.457,0.286,1.008,0.474,1.656,0.519c0,0,0.233,0.016,0.522,0.036
			s0.783,0.339,1.188,0.6c0.232,0.151,0.494,0.278,0.783,0.38c7.695,2.717,15.716,4.206,23.848,4.509
			c1.126,0.04,2.003,0.171,1.958,0.317c-0.045,0.147,0.812,0.478,1.921,0.666c9.29,1.578,18.997-0.103,28.434-1.828
			c11.787-2.158,23.228-6.182,34.876-9.176c5.483-1.412,11.118-2.236,16.65-3.469c3.407-0.763,6.805-1.566,10.302-2.407
			c1.094-0.265,2.542-0.432,3.219-0.514c0.392-0.045,0.796-0.122,1.212-0.24c3.346-0.935,6.695-1.869,10.041-2.804
			c1.085-0.302,2.701-0.469,3.603-0.485c0.542-0.008,1.085-0.049,1.632-0.102c9.8-1.017,19.584-2.191,29.384-3.224
			c12.946-1.362,25.908-1.188,38.846,0.065c8.943,0.865,17.939,1.514,26.773,3.052c13.888,2.42,27.719,5.234,41.461,8.4
			c8.837,2.036,17.462,4.994,26.182,7.557c0.244,0.073,0.473,0.208,0.812,0.412c0.433,0.261,0.049,1.004-0.808,1.738
			c-7.495,6.389-11.118,15.116-14.957,23.578c-2.562,5.643-5.692,10.481-10.641,14.256c-0.343,0.261-0.648,0.575-0.93,0.918
			c-0.457,0.562-1.505,1.619-2.154,2.541c-0.135,0.192-0.261,0.393-0.379,0.601c-0.551,0.982-1.044,2.46-1.379,3.19
			s-0.959,1.754-1.224,2.398c-0.147,0.359-0.245,0.771-0.27,1.229c-0.016,0.273-0.02,0.547-0.02,0.82
			c0.004,0.452-0.119,1.717-0.286,2.831c-0.184,1.253-0.367,2.509-0.632,3.741c-0.869,4.052-1.82,8.099-3.048,12.049
			c-0.18,0.575-0.677,1.053-1.257,1.518c-0.865,0.689-1.114,1.477-0.563,1.742c0.551,0.265,0.751,1.113,0.453,1.897
			c-0.298,0.783-1.041,1.767-1.383,2.402c-0.343,0.637-0.677,1.547-0.938,1.983c-0.184,0.306-0.293,0.6-0.249,0.869
			c0.032,0.208,0.073,0.412,0.114,0.616c0.069,0.338-0.261,1.432-0.021,2.427c0.241,0.996,1.122,2.481,1.403,3.57
			c0.049,0.188,0.098,0.375,0.147,0.567c0.282,1.089,0.367,2.411,0.4,2.949c0.021,0.307,0.085,0.62,0.216,0.947
			c0.212,0.538,0.424,1.077,0.636,1.615c0.351,0.894,0.437,2.203,0.526,2.926c0.053,0.403,0.184,0.824,0.408,1.248
			c0.037,0.065,0.069,0.131,0.106,0.2c0.057,0.11,0.123,0.363,0.167,0.559c0.024,0.11,0.057,0.229,0.102,0.352
			c0.164,0.469,0.286,0.963,0.396,1.469c0.18,0.819,0.094,2.37-0.29,3.431c-0.417,1.159-0.93,2.285-1.534,3.387
			c-0.542,0.987-1.249,1.8-1.489,1.873c-0.143,0.045-0.29,0.094-0.433,0.146c-1.55,0.588-2.856,1.641-3.839,2.946
			c-0.677,0.901-1.546,2.072-2.15,2.48c-0.367,0.244-0.73,0.489-1.098,0.734c-0.498,0.334-0.416,1.061,0.163,1.252
			c0.531,0.176,1.069,0.27,1.6,0.29c0.902,0.037,2.016-0.032,2.452-0.196c0.437-0.167,0.873-0.652,1.138-0.823
			c0.265-0.172,1.342-0.592,2.436-0.857c12.766-3.097,26.483-0.849,39.417-0.045c0.15,0.009,0.289,0,0.42-0.024
			c0.229-0.041,1.302,0,2.428,0.082c1.729,0.126,3.46,0.102,5.193-0.172c1.114-0.175,2.044-0.375,2.126-0.33
			c0.045,0.024,0.094,0.045,0.151,0.057c1.958,0.486,3.912,0.976,5.871,1.461c0.338,0.086,0.604-0.065,0.742-0.294
			c0.245-0.403,0.11-1.028,0.053-1.321c-0.032-0.164-0.126-0.318-0.306-0.433c-0.641-0.408-1.281-0.82-1.922-1.229
			c-0.95-0.607-1.808-1.199-1.917-1.317c-0.11-0.118-0.29-0.4-0.466-0.58c-0.175-0.179-1.027-0.905-1.962-1.538
			c-2.954-2.007-6.337-2.509-9.931-2.174c-1.122,0.102-2.347,0.261-2.742,0.236s-0.746-0.262-0.86-0.481
			c-0.065-0.131-0.155-0.253-0.262-0.367c-2.158-2.24-4.729-4.125-7.687-5.17c-1.122-0.396-2.464-0.57-3.839-0.729
			c-1.118-0.131-2.763-0.796-3.525-1.624c-2-2.183-3.211-5.076-3.162-8.042c0.053-3.247-0.004-6.577-0.661-9.734
			c-0.641-3.085-0.755-6.145-0.388-9.087c0.139-1.117,0.755-2.823,1.2-3.859c0.453-1.044,0.849-2.126,1.179-3.235
			c0.069-0.232,0.114-0.453,0.135-0.669c0.041-0.376,0.404-1.502,0.987-2.465c1.926-3.19,4.569-5.973,7.858-8.131
			c1.945-1.277,3.476-3.175,5.251-4.729c1.66-1.457,3.215-3.167,5.128-4.174c2.872-1.51,5.969-2.645,9.058-3.688
			c9.155-3.105,17.214-7.98,24.207-14.64c0.448-0.428,0.909-0.845,1.371-1.256c0.767-0.686,1.529-0.339,1.664,0.783
			c0.363,3.056,0.53,5.879,1.469,8.417c2.771,7.475,3.097,14.863,1.611,22.456c-0.216,1.105-1.027,2.717-1.37,3.794
			c-0.277,0.874-0.363,1.845-0.208,2.853c0.738,4.892,2.934,9.828,4.442,14.537c0.188,0.592,0.38,1.183,0.575,1.774
			c0.322,0.979,0.29,2.624-0.09,3.685c-0.248,0.701-0.497,1.407-0.75,2.109c-0.812,2.28,1.832,5.21,4.21,4.21
			c0.099-0.04,0.2-0.085,0.294-0.13c0.163-0.074,0.714,0.669,1.313,1.624c1.673,2.68,3.771,5.079,6.553,7.013
			c0.033,0.024,0.069,0.045,0.103,0.065c0.057,0.037,0.448,0.457,0.963,0.837c0.289,0.212,0.615,0.412,0.982,0.604
			c0.318,0.163,0.637,0.335,0.955,0.506c0.526,0.286,1.596,1.175,2.469,1.889c1.143,0.935,2.354,1.734,3.631,2.326
			c1.024,0.474,2.42,1.024,3.044,1.42s1.248,1.733,0.461,2.537c-0.633,0.649-1.587,1.176-2.444,1.559
			c-1.027,0.462-1.126,1.212-0.045,1.519c2.967,0.836,7.051,0.433,9.454-0.123c2.966-0.686,10.493,0,15.969,0.906
			c5.476,0.905,20.53,0.008,24.411-1.135c2.239-0.656,4.553-0.179,6.107,0.343c1.069,0.359,2.061-0.188,1.506-1.167
			c-0.637-1.126-1.873-2.138-2.913-2.848c-0.931-0.637-2.665-1.012-3.791-1.012c-4.888,0.013-9.388-0.742-13.945-3.949
			c-4.333-3.048-10.53-3.293-15.605-5.468c-2.607-1.117-5.137-2.415-7.646-3.773c-0.991-0.534-1.897-1.081-2.04-1.191
			c-0.081-0.065-0.171-0.127-0.265-0.188c-7.042-4.525-12.774-10.824-16.549-18.258c-0.51-1.004-0.942-2.75-0.963-3.876
			c-0.204-11.339,3.803-21.608,10.946-31.094c3.375-4.484,6.406-9.511,8.263-14.766c1.607-4.55,1.848-9.776,1.718-14.68
			c-0.09-3.391,0.44-5.284,3.892-5.729c2.804-0.359,5.635-1.036,8.422-0.894c14.467,0.734,28.196-2.407,41.615-7.422
			c0.433-0.159,0.882-0.27,1.363-0.367c0.763-0.159,1.036,0.555,0.616,1.6c-0.408,1.012-0.788,1.958-1.135,2.917
			c-0.028,0.082-0.028,0.176-0.004,0.286c0.028,0.154,0.021,0.551,0.021,0.889c0,0.339,0.032,1.379,0.478,2.167
			c0.248,0.44,0.611,0.845,1.109,1.183c3.606,2.465,6.732,5.573,9.217,9.168c0.106,0.151,0.216,0.29,0.335,0.416
			c0.199,0.217,0.497,0.816,0.632,1.375c0.082,0.335,0.163,0.674,0.245,1.008c0.155,0.645,0.437,1.15,0.8,1.53
			c0.665,0.697,1.293,1.729,1.179,2.848c-0.571,5.631,1.587,11.701,6.124,13.101c1.077,0.331,1.403-0.383,0.637-1.207
			c-0.865-0.927-1.701-1.856-2.256-2.934c-0.511-0.991-0.013-2.525,0.098-3.811c0.077-0.927,0.347-1.841,0.375-2.767
			c0.078-2.574,0.127-5.149,0.176-7.724c0.021-1.126,0.139-2.076,0.261-2.13c0.073-0.032,0.147-0.064,0.217-0.105
			c0.163-0.099,0.306-0.163,0.42-0.2c0.245-0.073,0.543,1.077,1.028,2.093c1.574,3.301,3.595,4.794,7.066,5.08
			c1.122,0.09,1.261-0.241,0.302-0.579c-0.628-0.221-1.179-0.438-1.677-0.734c-0.734-0.438-1.901-1.4-1.783-1.812
			c1-3.438-2.35-5.051-3.027-7.727c-0.661-2.6-1.399-5.19-1.827-7.83c-0.522-3.223-0.869-6.479-1.302-10.151
			c-0.131-1.117,0.62-2.312,1.677-2.7c2.488-0.914,5.055-1.938,7.724-2.465c7.511-1.48,12.982-5.308,16.422-11.738
			c0.53-0.991,1.559-2.46,2.379-3.235c0.795-0.755,1.591-1.51,2.387-2.265c4.149-3.586,8.249-7.254,14.333-7.507
			c1.02-0.045,2.121,0.232,3.056-0.057c3.807-1.188,7.58-2.244,11.636-1.326c0.702,0.159,1.575-0.2,2.313-0.465
			c4.084-1.485,8.14-3.048,12.24-4.496c0.689-0.245,1.636-0.273,2.293,0.004c6.568,2.771,13.297,5.251,19.584,8.56
			c6.116,3.219,9.229,3.717,13.859,0.359c2.518-1.824,2.477-3.244,0.486-5.933c-0.531-0.714-0.653-1.726-0.861-3.085
			c-0.167-1.113-0.661-1.142-1.028-0.077c-0.155,0.449-0.302,0.873-0.448,1.302c-0.367,1.064-0.955,1.061-1.314-0.009
			c-0.102-0.298-0.195-0.583-0.289-0.86c-0.359-1.069-0.771-1.909-0.918-1.877c-0.147,0.033-0.147,0.897,0,1.934
			c0.146,1.037-0.277,1.11-1.212,0.481c-0.918-0.615-1.894-0.864-2.941-0.877c-1.126-0.017-2.024-0.701-2.024-1.828v-2.227
			c0-1.126-0.428-1.91-0.954-1.73c-0.384,0.13-0.71,0.281-0.82,0.53c-0.257,0.592-0.363,1.249-0.474,2.081
			c-0.146,1.119-0.926,1.379-1.729,0.588c-0.444-0.441-0.873-0.861-1.298-1.285c-0.799-0.792-1.677-1.302-1.95-1.143
			c-0.273,0.163-0.763-0.583-1.085-1.665c-0.212-0.706-0.429-1.428-0.665-2.208c-0.326-1.077-0.922-1.11-1.33-0.061
			c-0.028,0.069-0.053,0.139-0.082,0.204c-0.412,1.048-0.864,1.396-1.016,0.771c-0.151-0.624-0.815-1.265-1.501-1.396
			c-0.629-0.118-1.094-0.208-1.15-0.416c-0.286-1.053-0.474-2.13-0.646-3.215c-0.175-1.114-0.094-2.109,0.18-2.228
			c0.273-0.114-0.277-0.697-1.231-1.297c-1.229-0.771-2.457-1.546-3.668-2.338c-2.224-1.452-2.999-7.234-1.118-8.988
			c0.485-0.453,1.624-0.747,2.138-0.481c0.318,0.164,0.519,0.555,0.71,1.016c0.265,0.645,0.955,0.726,1.525,0.192
			c0.576-0.535,1.738-0.375,2.596,0.355c0.22,0.188,0.44,0.379,0.669,0.571c0.856,0.73,2.374,0.926,3.387,0.437
			c0.077-0.037,0.154-0.078,0.236-0.114c1.016-0.49,1.697,0.016,1.525,1.126c-0.04,0.277-0.085,0.559-0.13,0.857
			c-0.172,1.114,0.317,1.354,1.097,0.542c0.951-0.996,1.816-1.901,2.783-2.917c0.779-0.816,1.322-0.563,1.212,0.555
			c-0.094,0.938-0.184,1.795-0.282,2.697c-0.118,1.122,0.355,1.297,1.29,0.669c2.297-1.555,5.214-1.91,6.426-4.439
			c0.485-1.016,0.954-1.464,1.485-0.853c0.53,0.612,1.187,0.498,1.464-0.249c0.278-0.75,0.653-1.375,0.837-1.391
			c0.184-0.021,0.457,0.845,0.612,1.93c0.15,1.085,0.403,2.032,0.562,2.118c0.159,0.085,0.645-0.686,1.085-1.726
			c0.184-0.428,0.367-0.865,0.56-1.318c0.44-1.036,1.04-1.497,1.342-1.032c0.302,0.465,1.163,0.196,1.926-0.607
			c0.764-0.804,1.245-0.751,1.077,0.118c-0.167,0.869,0.303,1.518,1.062,1.44c0.759-0.077,1.24-0.314,1.072-0.534
			c-0.167-0.22,0.327-1.057,1.106-1.869c0.497-0.514,1.012-1.008,1.591-1.404c4.357-2.958,4.063-11.677-0.645-14.202
			c-2.975-1.595-6.059-3.048-9.217-4.239c-2.02-0.763-4.08-2.232-6.491,0.033c-0.828,0.775-3.244-0.343-4.908-0.216
			c-5.398,0.412-10.854,1.457-15.508-2.566c-2.42-2.089-4.676-2.815-6.7,0.587c-0.399,0.673-1.473,1.363-2.22,1.347
			c-4.63-0.098-9.571,1.521-13.794-1.044c-3.011-1.828-5.937-0.367-8.878-0.914c-2.313-0.428-4.737-0.265-7.111-0.171
			c-1.126,0.045-2.109,0.959-2.203,2.081c-0.033,0.416-0.065,0.804-0.099,1.179c-0.09,1.122-0.93,1.534-1.876,0.922
			c-0.641-0.412-1.294-0.792-1.995-1.028c-1.073-0.359-2.673-0.583-3.489-0.041c-5.275,3.517-10.473,7.168-15.549,10.971
			c-1.31,0.979-2.496,2.118-3.672,3.28c-0.8,0.792-1.514,1.469-1.591,1.501c-0.049,0.021-0.094,0.041-0.143,0.065
			c-2.199,1.122-4.529,1.934-6.969,2.383c-4.933,0.91-9.723,0.249-14.398-1.457c-0.445-0.163-0.894-0.261-1.343-0.302
			c-0.759-0.069-2.272-0.139-3.386-0.286c-4.876-0.637-9.829-0.155-14.77,0.065c-2.179,0.098-4.362,0.245-6.545,0.392
			c-4.374,0-8.743,0.106-13.113,0.302c-1.126,0.049-2.953,0.041-4.08,0.012c-5.467-0.147-10.774,0.383-16.042,1.408
			c-3.289,0.302-6.577,0.632-9.861,0.979c-17.066,1.808-34.354,3.305-51.114,7.14c-4.562,0.616-9.147,1.199-13.627,2.252
			c-12.383,2.913-24.864,4.558-37.541,5.198c-10.029-0.159-20.061,0.269-30.037,1.269c-6.353,0.42-12.697,0.967-19.021,1.636
			c-1.122,0.118-2.509,0.204-3.105,0.188c-0.359-0.012-0.718-0.021-1.073-0.033c-0.518-0.016-1.02,0.037-1.505,0.147
			c-0.816,0.184-2.334,0.616-3.452,0.759c-15.794,1.987-31.506,4.75-47.165,7.63c-9.103,1.673-17.993,4.5-26.969,6.846
			c-0.192,0.05-0.379,0.123-0.563,0.204c-0.298,0.139-1.428,0.408-2.53,0.637c-6.197,1.281-12.281,3.949-18.115,5.961
			c-1.563,0.526-3.023,1.028-4.472,1.562c-8.393,3.093-16.594,6.744-24.725,10.478c-0.494,0.225-0.979,0.494-1.453,0.796
			c-0.771,0.493-2.138,1.411-3.133,1.938c-3.04,1.612-6.132,3.089-9.278,4.432c-2.281,0.746-4.562,1.497-6.846,2.243
			c-1.069,0.352-1.955,0.584-1.979,0.519c-0.02-0.065-0.91,0.163-1.979,0.514c-2.248,0.734-4.496,1.469-6.744,2.203
			c-1.069,0.352-1.918,0.71-1.889,0.8c0.028,0.09-0.828,0.384-1.93,0.637c-1.509,0.347-3.031,0.669-4.561,0.963
			c-0.412,0.077-0.804,0.208-1.175,0.375c-0.62,0.282-1.942,0.865-3.031,1.151c-2.705,0.714-5.463,1.424-8.246,2.052
			c-0.812,0.184-1.652,0.27-2.493,0.347c-1.122,0.103-2.938,0.163-4.063,0.086l-31.967-2.199c-1.126-0.078-2.905-0.425-3.978-0.764
			c-1.869-0.587-3.742-1.154-5.623-1.697c-0.91-0.261-2.729,0.114-3.011,0.719c-0.612,1.306-1.779,3.133,0.767,4.165
			C2.886,281.421,4.2,281.963,5.51,282.51z M311.93,393.645c0.384,0,0.388,0.054,0.013,0.131s-0.686,0.082-0.689,0.004
			C311.249,393.702,311.547,393.645,311.93,393.645z"/>
	</g>
</g>
<g>
</g>
<g>
</g>
<g>
</g>
<g>
</g>
<g>
</g>
<g>
</g>
<g>
</g>
<g>
</g>
<g>
</g>
<g>
</g>
<g>
</g>
<g>
</g>
<g>
</g>
<g>
</g>
<g>
</g>
</svg>
