<?xml version="1.0" encoding="iso-8859-1"?>
<!-- Generator: Adobe Illustrator 16.0.0, SVG Export Plug-In . SVG Version: 6.00 Build 0)  -->
<!DOCTYPE svg PUBLIC "-//W3C//DTD SVG 1.1//EN" "http://www.w3.org/Graphics/SVG/1.1/DTD/svg11.dtd">
<svg version="1.1" id="Capa_1" xmlns="http://www.w3.org/2000/svg" xmlns:xlink="http://www.w3.org/1999/xlink" x="0px" y="0px"
	 width="576.595px" height="576.595px" viewBox="0 0 576.595 576.595" style="enable-background:new 0 0 576.595 576.595;"
	 xml:space="preserve">
<g>
	<path d="M576.076,193.414c-1.334-2.489-2.582-5.574-4.781-6.957c-8.589-5.406-17.426-10.469-26.438-15.125
		c0,0-3.248-1.742-7.462-0.829c-0.441,0.094-1.159,0.188-1.607,0.18c-0.47-0.008-0.935-0.016-1.404-0.021
		c-0.452-0.004-1.179-0.049-1.623-0.089c-1.816-0.171-3.632-0.233-5.439-0.159c-0.452,0.02-1.179,0.016-1.628-0.029
		c-0.551-0.053-1.097-0.118-1.644-0.2c-3.224-0.486-6.312-1.836-9.576-2.934c-0.424-0.143-0.942,0.069-1.146,0.473
		c-0.118,0.229-1.407-0.31-1.767-0.53c-2.199-1.347-7.385,0.416-9.421,2.896c-0.285,0.347-0.791,0.829-1.195,1.024
		c-1.285,0.62-3.929,1.893-5.214,2.513c-0.408,0.196-0.645,0.583-0.539,0.865c0.11,0.282,0.555,0.608,0.991,0.727
		c0.266,0.073,0.531,0.143,0.809,0.22c0.433,0.118,0.66,0.334,0.51,0.494c-0.122,0.131-0.221,0.229-0.311,0.22
		c-5.703-0.396-7.992,4.088-9.931,7.903c-0.412,0.812-0.815,1.628-1.216,2.448c-0.195,0.404-0.579,1.028-0.828,1.403
		c-0.73,1.098-1.306,2.273-1.681,3.509c-0.131,0.432-0.363,1.118-0.551,1.526c-3.423,7.405-6.65,14.912-10.38,22.158
		c-3.619,7.042-9.343,12.505-20.534,11.13c-21.538-2.644-43.109-4.427-64.685,0.469c-13.863,3.146-27.81,6.206-41.881,8.07
		c-13.615,1.803-27.43,2.387-41.18,2.835c-14.19,0.465-28.434,0.677-42.608-0.021c-14.77-0.726-29.478-2.676-44.215-4.08
		c-8.05-0.767-16.108-1.464-24.158-2.219c-27.928-4.603-55.92-8.903-84.105-11.555c-35.688-3.362-71.331-3.088-107.124-2.24
		c-1.551,0.037-2.249,1.375-2.093,2.562c0.057,0.445,0.404,1.069,0.792,1.297c0.44,0.265,1.02,0.526,1.302,0.519
		c0.041,0,0.085,0,0.126-0.004c0.069,0,0.481,0.082,0.926,0.171c0.596,0.119,1.146,0.2,1.693,0.216
		c14.419,0.412,28.862,0.363,43.256,1.204c17.295,1.008,34.565,2.505,51.804,4.243c35.186,3.542,69.201,12.681,103.02,22.509
		c7.43,2.158,14.855,4.341,22.277,6.528c0.432,0.126,1.077,0.437,1.457,0.685c7.393,4.884,16.316,7.201,25.483,7.528
		c0.449,0.016,1.167,0.126,1.6,0.257c18.776,5.614,37.537,11.293,56.28,17.026c7.373,2.252,15.479,3.684,20.567,10.55
		c1.51,2.036,2.33,4.635,4.019,6.475c2.795,3.048,5.888,5.826,8.984,8.735c0.33,0.31,0.354,0.836,0.077,1.191
		c-1.99,2.509-3.586,5.569-3.925,8.633c-0.049,0.449-0.244,1.131-0.469,1.522c-4.436,7.711-8.821,15.312-13.395,22.799
		c-1.245,2.036-3.852,3.513-6.141,4.594c-6.014,2.84-8.147,8.58-10.849,13.86c-1.547,3.023-2.971,6.107-4.402,9.192
		c-0.191,0.407-0.481,0.799-0.633,0.894c-0.09,0.053-0.175,0.118-0.261,0.191c-3.125,2.66-6.247,5.32-9.372,7.984
		c-0.343,0.294-0.975,0.44-1.383,0.249c-0.571-0.27-1.126-0.665-1.632-1.212c-1.926-2.072-5.015,1.032-3.098,3.097
		c2.959,3.187,7.524,3.672,10.943,1.779c0.396-0.221,0.551-0.094,0.375,0.322c-0.645,1.534-1.126,2.795-1.815,3.908
		c-2.346,3.771-2.456,7.667-1.62,11.815c0.09,0.441,0.103,1.159,0.017,1.6l-0.841,4.374c-0.085,0.44-0.351,1.109-0.518,1.53
		c-1.6,4.047,6.051,4.063,9.779,2.819c3.297-1.098,11.657-0.359,14.297-0.086c0.448,0.045,0.592-0.204,0.285-0.534
		c-2.938-3.195-6.454-2.755-7.988-2.358c-0.437,0.114-0.706-0.11-0.579-0.543c0.269-0.905,0.673-1.742,1.244-2.448
		c1.392-1.718,3.146-3.17,4.365-4.989c1.689-2.514,3.611-2.714,5.268-0.127c1.375,2.146,1.759,4.271-0.217,6.214
		c-0.322,0.314-0.253,0.633,0.192,0.702c1.277,0.2,3.644,0.289,3.704-1.763c0.155-3.342,0.311-6.605-1.644-9.225
		c-0.27-0.363-0.608-0.996-0.873-1.359c-0.233-0.322-0.567-0.596-1.013-0.771c-0.184-0.073-0.367-0.144-0.551-0.208
		c-0.302-0.11-0.596-0.217-0.652-0.249c-0.053-0.033-0.453-0.167-0.89-0.281c-3.108-0.809-6.324-0.845-9.429-0.135
		c-0.44,0.102-0.714-0.155-0.616-0.596c1.004-4.541,1.935-9.192,3.194-13.754c2.62-9.478,9.132-16.092,16.969-21.388
		c8.531-5.769,17.72-10.624,25.937-16.781c8.205-6.148,15.55-13.443,23.326-20.175c1.351-1.167,2.97-2.02,4.459-3.023
		c2.391-1.62,4.888-3.109,7.14-4.908c2.143-1.71,4.085-3.664,6.088-5.545c0.33-0.31,0.845-0.449,1.154-0.322
		c0.307,0.126,0.474,0.592,0.367,1.028c-1.057,4.459-2.113,8.919-3.17,13.382c-0.102,0.437-0.444,1.062-0.759,1.384
		c-2.269,2.35-4.541,4.695-6.81,7.046c-0.077,0.077-0.143,0.167-0.208,0.261c-0.103,0.155-0.425,0.551-0.73,0.878
		c-0.367,0.392-0.722,0.795-1.061,1.211c-2.396,2.958,0.098,8.601,3.822,9.711c2.897,0.86,5.998,1.183,8.744,2.362
		c2.46,1.057,4.667,2.713,6.939,4.206c0.376,0.245,1.122,0.91,1.392,1.273c1.432,1.934,2.864,3.863,4.301,5.798
		c0.269,0.362,0.607,0.575,0.759,0.477c0.15-0.098,0.497-0.122,0.771-0.135c0.159-0.004,0.322-0.032,0.494-0.077
		c1.04-0.285,1.986-1.587,1.53-2.692c-0.151-0.363-0.298-0.727-0.449-1.086c-0.171-0.416-0.058-0.493,0.253-0.167
		c0.311,0.331,0.612,0.665,0.901,1.012c3.509,4.157,2.738,9.434,1.991,14.46c-0.065,0.444,0.229,0.701,0.661,0.566
		c3.558-1.102,3.762-1.754,5.504-11.469c0.077-0.444,0.351-0.497,0.571-0.102c2.432,4.354,1.975,11.073-1.057,15.406
		c-0.257,0.367-0.135,0.579,0.302,0.469c6.854-1.729,9.253-5.862,7.503-12.685c-1.664-6.491-4.741-11.433-10.298-15.092
		c-0.375-0.249-0.469-0.73-0.191-1.085l4.369-5.663c0.033-0.041,0.058-0.082,0.082-0.123c0.041-0.069,0.347,0.103,0.689,0.4
		c2.24,1.946,4.182,4.108,5.969,6.026c0.306,0.33,0.714,0.257,0.877-0.159c1.714-4.391,0.481-8.034-3.831-10.185
		c-5.956-3.745-13.505-1.803-16.924,4.317c-0.22,0.392-0.701,0.559-1.117,0.383c-0.694-0.293-1.416-0.521-2.184-0.656
		c-3.202-0.551-5.772-1.693-7.936-4.129c-0.298-0.339-0.281-0.897,0.021-1.232c12.068-13.378,28.769-22.697,35.859-40.481
		c0.167-0.421,0.648-0.67,1.081-0.543c6.899,2.052,11.645,7.744,11.24,13.799c-0.061,0.269-0.126,0.534-0.195,0.804
		c-0.11,0.437-0.339,1.13-0.53,1.538c-0.135,0.289-0.282,0.575-0.441,0.856c-0.09,0.163-0.159,0.322-0.204,0.481
		c-0.081,0.277-0.334,0.779-0.641,1.11c-1.076,1.162-2.194,2.362-3.455,3.721c-0.307,0.33-0.861,0.396-1.236,0.146
		c-0.575-0.383-1.184-0.787-1.8-1.199c-0.375-0.249-0.849-0.302-1.061-0.114s-0.139,0.608,0.143,0.959
		c1.18,1.485,2.518,3.574,3.252,3.378c2.456-0.652,4.651-2.293,7.691-4.088c0.388-0.229,1.061-0.318,1.464-0.11
		c1.714,0.877,2.094,2.767,0.123,5.602c-0.648,0.938-1.294,2.045-1.444,3.142c-0.579,4.203-2.746,3.75-5.279,2.428
		c-0.4-0.208-0.56-0.053-0.331,0.339c1.954,3.309,5.296,3.803,7.503,0.567c2.493-3.647,4.505-7.797,5.871-12.004
		c3.203-9.853-2.578-17.025-7.756-24.284c-0.261-0.367-0.191-0.901,0.114-1.231c0.478-0.515,0.869-1.106,1.171-1.747
		c0.192-0.407,0.649-0.864,1.077-0.999c0.335-0.103,0.669-0.204,1.012-0.311c0.429-0.13,0.833,0.118,0.931,0.56
		c1.326,6.111,6.731,7.608,11.514,9.559c4.157,1.692,8.593,2.7,12.893,4.039c4.733,1.473,9.434,7.829,8.764,12.591
		c-0.139,0.987-1.876,1.746-3.312,2.64c-0.384,0.236-0.322,0.534,0.118,0.632c1.783,0.4,3.966,0.89,6.544,1.465
		c0.441,0.099,0.453,0.318,0.037,0.49c-1.016,0.42-1.901,0.783-2.709,1.117c-0.416,0.172-0.42,0.466,0.008,0.604
		c2.615,0.836,4.606-0.298,6.549-3.815c0.216-0.396,0.607-0.437,0.836-0.045c2.146,3.692,0.213,8.969-3.981,10.824
		c-0.412,0.184-0.453,0.481-0.045,0.674c2.595,1.207,4.912,0.457,6.72-2.191c2.509-3.688,2.052-9.367-0.942-13.513
		c-1.347-1.864-2.677-3.803-3.619-5.884c-2.51-5.536-6.414-9.543-11.865-12.256c-3.639-1.807-7.127-3.945-10.566-6.12
		c-4.187-2.647-4.88-6.438-1.706-10.318c8.356-10.216,17.141-20.094,25.17-30.555c3.447-4.496,5.81-9.951,8.013-15.239
		c2.351-5.63,5.463-8.144,11.751-8.535c2.374-0.147,4.68-1.457,7.054-1.612c1.24-0.082,2.485-0.249,3.729-0.44
		c0.444-0.069,1.167-0.057,1.611,0c1.954,0.241,3.913,0.008,5.692-0.641c0.424-0.155,1.121-0.31,1.57-0.294
		c2.121,0.082,4.235,0.531,6.345,1.661c4.357,2.338,8.739,4.639,13.198,6.777c3.052,1.465,6.019,1.652,8.356-0.971
		c0.302-0.334,0.456-1.008,0.236-1.399c-0.408-0.718-1.146-1.314-1.791-1.938c2.66-3.236,1.848-6.524,1.109-5.479
		c-0.343,0.489-1.203,0.894-2.105,1.208c-0.065,0-0.114-0.021-0.175-0.024c1.224-2.534,0.596-4.578-0.004-3.725
		c-0.698,0.996-3.542,1.661-4.456,1.853c1.461-2.693,0.775-4.961,0.147-4.068c-0.437,0.624-1.727,1.118-2.853,1.448
		c1.396-2.652,0.723-4.855,0.103-3.97c-0.515,0.73-2.199,1.289-3.419,1.607c1.966-2.962,1.265-5.684,0.583-4.721
		c-0.51,0.73-2.187,1.286-3.407,1.604c1.633-2.791,0.947-5.218,0.303-4.296c-0.359,0.51-1.285,0.931-2.232,1.249
		c-0.62-1.163-1.256-2.317-1.946-3.415c-0.24-0.384-0.33-1-0.191-1.392s0.612-0.665,1.061-0.608c1.746,0.22,3.493,0.457,5.239,0.677
		c0.061,0.474,0.065,0.91-0.054,1.22c-0.302,0.804,1.028,0.506,2.289-0.963c0.543,0.065,1.09,0.122,1.632,0.179
		c0.151,0.714,0.217,1.392,0.054,1.828c-0.335,0.897,1.351,0.433,2.717-1.526c0.457,0.045,0.918,0.094,1.371,0.143
		c0.172,0.763,0.253,1.501,0.082,1.967c-0.339,0.91,1.403,0.412,2.778-1.624c0.224,0.029,0.448,0.049,0.673,0.078
		c0.245,0.91,0.392,1.84,0.184,2.395c-0.33,0.881,1.298,0.453,2.652-1.424c0.322,0.775,1.452,3.636,1.016,4.807
		c-0.465,1.24,2.934-0.102,3.99-4.476c0.388,1.155,0.767,2.611,0.481,3.37c-0.478,1.273,3.104-0.179,4.06-4.827
		c0.718-0.171,1.44-0.363,2.158-0.624C576.383,196.976,577.256,195.613,576.076,193.414z"/>
</g>
<g>
</g>
<g>
</g>
<g>
</g>
<g>
</g>
<g>
</g>
<g>
</g>
<g>
</g>
<g>
</g>
<g>
</g>
<g>
</g>
<g>
</g>
<g>
</g>
<g>
</g>
<g>
</g>
<g>
</g>
</svg>
