<?xml version="1.0" encoding="iso-8859-1"?>
<!-- Generator: Adobe Illustrator 16.0.0, SVG Export Plug-In . SVG Version: 6.00 Build 0)  -->
<!DOCTYPE svg PUBLIC "-//W3C//DTD SVG 1.1//EN" "http://www.w3.org/Graphics/SVG/1.1/DTD/svg11.dtd">
<svg version="1.1" id="Capa_1" xmlns="http://www.w3.org/2000/svg" xmlns:xlink="http://www.w3.org/1999/xlink" x="0px" y="0px"
	 width="587.349px" height="587.349px" viewBox="0 0 587.349 587.349" style="enable-background:new 0 0 587.349 587.349;"
	 xml:space="preserve">
<g>
	<path d="M1.203,257.507c-2.611-1.216-0.224-2.211,0.22-3.121c1.51-3.097,3.162-6.124,4.786-9.168
		c0.849-1.591,1.673-3.202,2.652-4.708c0.563-0.865,1.481-1.485,2.122-2.306c2.97-3.814,6.736-6.568,11.094-8.597
		c3.362-1.562,6.858-2.941,9.959-4.928c8.735-5.603,18.413-8.54,28.466-10.209c6.813-1.13,13.798-1.203,20.661-2.085
		c10.302-1.321,20.583-0.771,30.865-0.248c1.126,0.057,2.828-0.38,3.9-0.73c1.734-0.571,3.635-0.657,5.476-0.11
		c2.011,0.596,4.039,1.105,6.087,1.546c1.102,0.237,2.909,0.462,4.035,0.535c4.819,0.306,9.686,0.616,14.615,0.93
		c4.035-0.122,8.066-0.478,12.069-0.971c0.146-0.021,0.338-0.049,0.596-0.086c0.897-0.13,1.795-0.277,2.692-0.42
		c1.799-0.29,3.591-0.624,5.377-0.971c3.293-0.633,6.565-1.371,9.829-2.143c6.507-1.538,12.954-3.317,19.392-5.108
		c7.124-1.982,14.248-3.97,21.371-5.952c1.085-0.302,2.811-0.89,3.855-1.313c0.465-0.188,0.935-0.38,1.399-0.567
		c1.044-0.425,1.934-0.657,1.991-0.526s0.037,0.281-0.049,0.339c-0.086,0.057,0.657-0.123,1.66-0.4c1-0.277,2.33-0.8,3.003-1.094
		c0.408-0.175,0.824-0.326,1.252-0.437c0.836-0.216,1.681-0.399,2.53-0.562c1.106-0.212,2.885-0.6,3.97-0.901
		c13.995-3.901,27.993-7.797,41.987-11.693c1.906-0.531,3.856-0.425,5.626,0.184c1.065,0.362,2.75,0.714,3.864,0.546
		c5.757-0.873,11.514-1.742,17.275-2.582c1.86-0.273,3.725-0.51,5.594-0.734c1.117-0.135,2.855-0.624,3.908-1.028
		c4.541-1.738,9.438-2.505,14.346-1.995c0.604,0.062,1.191,0.163,1.767,0.306c0.963,0.232,1.917,0.584,2.179,0.637
		c0.261,0.053,1.346-0.159,2.428-0.478c3.194-0.942,6.442-1.905,9.698-2.844c0.432-0.126,0.934-0.057,1.399-0.032
		c1.35,0.073,2.705,0.281,4.051,0.245c3.456-0.095,6.916-0.188,10.359-0.478c2.35-0.2,5.129-0.073,6.879-1.29
		c1.073-0.746,1.967-1.166,2.917-1.183c1.126-0.024,2.224-0.494,3.105-1.195c0.714-0.571,1.562-0.588,2.505-0.273
		c1.068,0.358,1.583,0.481,1.289-0.037c-0.294-0.518,0.375-0.763,1.403-0.302c0.719,0.322,1.396,0.678,2.113,0.89
		c1.783,0.526,4.129,1.521,5.415,0.815c1.293-0.71,2.211-0.877,2.933-0.607c1.058,0.392,1.841,1.016,2.351,0.522
		c0.367-0.352,0.727-0.641,1.085-0.641c2.534-0.004,5.051,0.306,6.977,2.313c0.286,0.298,0.938,0.628,1.208,0.497
		c1.987-0.946,3.647-0.648,5.096,0.49c0.886,0.697,1.596,0.853,1.8,0.105c0.204-0.746,0.938-1.354,1.656-1.354
		s1.555,0.878,1.869,1.959c0.028,0.105,0.061,0.208,0.089,0.31c0.314,1.081,1.191,1.313,1.959,0.519
		c0.767-0.796,2.269-1.131,3.187-0.474c1.053,0.751,1.693,1.705,1.795,3.035c0.086,1.122,0.098,1.682,0.465,1.253
		s0.987-0.069,1.392,0.804s1.094,1.804,1.542,2.081c0.449,0.277,0.812,0.265,0.812-0.028c0-0.298,0.914-0.457,2.023-0.262
		c1.575,0.282,2.179,0.686,2.469,1.894c0.265,1.093,1.008,2.537,1.934,3.178c0.652,0.453,1.306,0.906,1.95,1.359
		c0.343,0.236,0.686,0.477,1.028,0.718c0.567,0.396,1.163-0.151,1.33-1.216c0.167-1.061,0.652-1.081,1.105-0.049
		c1.302,2.949,1.913,3.773,2.995,3.316c1.036-0.44,2.203-0.432,2.868,0.478c0.836,1.146,1.66,2.277,2.46,3.379
		c0.665,0.909,1.399,1.754,1.645,1.885c0.244,0.13,0.901-0.086,1.465-0.474c0.559-0.388,1.142-0.139,1.305,0.555
		c0.164,0.694,0.556,1.461,0.906,1.657c0.351,0.195,1.053-0.069,1.587-0.474c0.331-0.253,0.674-0.47,1.045-0.62
		c0.212-0.086,0.587,0.232,0.991,0.616c0.485,0.461,1.064,0.607,1.289,0.339c0.225-0.27,0.682,0.064,1.024,0.742
		c0.343,0.677,1.167,0.783,1.844,0.229c0.678-0.551,2.126-0.824,3.231-0.612c1.399,0.273,2.778,0.543,4.211,0.82
		c1.105,0.216,2.175,0.257,2.387,0.094s0.596,0.106,0.856,0.612c0.262,0.502,0.665,0.873,0.906,0.824
		c0.143-0.029,0.289-0.062,0.433-0.099c0.045-0.012,0.085-0.021,0.13-0.028c0.069-0.012,0.09-0.429,0.041-0.938
		s0.824-0.938,1.95-0.979c1.102-0.041,2.158-0.062,3.175,0.118c1.615,0.281,2.104-0.314,2.488-1.697
		c0.388-1.404,0.987-2.767,1.632-4.076c0.657-1.334,1.457-2.604,2.252-3.864c0.294-0.465,0.616-0.918,0.968-1.391
		c0.555-0.755,0.216-2.277,0.787-3.248c0.351-0.596,1.04-1.134,1.681-1.714c0.976-0.881,1.812-1.926,2.705-2.896
		c0.322-0.351,0.575-0.824,0.967-1.053c1.416-0.812,3.109-2.464,3.778-3.753c0.135-0.258,0.416-0.441,0.637-0.649
		c1.306-1.195,2.611-2.391,4.08-3.737c0.832-0.759,2.02-1.644,2.64-2.003c0.347-0.204,0.727-0.44,1.081-0.706
		c0.698-0.526,1.135-1.55,1.885-1.832c2.191-0.824,2.832-3.831,5.622-3.848c0.363,0,0.764-1.301,1.058-2.031
		c0.102-0.257,0.163-0.53,0.22-0.82c0.086-0.461,1.057-0.665,2.175-0.551c3.085,0.314,6.022,0.065,9.021-1.028
		c1.779-0.648,3.583-1.102,5.41-1.411c1.11-0.188,2.905-0.519,4.02-0.694c2.016-0.313,4.063-0.358,6.059-0.122
		c1.118,0.135,2.076,0.343,2.154,0.347c0.077,0.004,0.416-0.236,0.783-0.493c0.221-0.155,0.453-0.298,0.693-0.425
		c2.33-1.244,5.251-0.604,6.622,1.738c0.024,0.041,0.045,0.082,0.069,0.122c0.037,0.069,0.914,0.466,1.958,0.89
		c2.159,0.869,4.305,1.755,6.373,2.795c9.597,4.831,17.356,12.231,25.599,18.906c4.308,3.489,8.021,7.646,7.947,13.999
		c-0.045,3.635-0.738,5.471-4.133,6.932c-3.925,1.686-7.769,0.041-11.661-0.159c-5.683-0.294-11.272-2.75-17.164-0.294
		c-1.212,0.506-1.942,0.804-2.542,1.853c-0.453,0.788-0.938,1.559-1.428,2.33c-0.608,0.95-1.836,1.179-2.803,0.6
		c-0.89-0.53-1.474-0.742-1.971-0.678c-1.118,0.151-2.518,1.09-3.636,0.963c-1.905-0.212-3.685-0.412-5.397-0.604
		c-1.118-0.126-2.44,0.583-2.954,1.587c-0.307,0.6-0.608,1.188-0.906,1.771c-0.514,1.004-1.514,1.481-2.235,1.065
		c-0.723-0.416-1.865-0.351-2.555,0.146c-0.686,0.498-1.37,0.657-1.525,0.355s-0.755-0.176-1.383,0.22
		c-0.629,0.396-1.245,1.396-1.697,2.13c-0.453,0.734-1.363,0.768-1.689,0.355s-1.049,0.053-1.575,1.044
		c-0.562,1.062-1.085,2.102-1.62,3.134c-2.239,4.354-4.789,8.576-6.666,13.08c-2.538,6.084-6.618,11.049-10.719,15.998
		c-2.19,2.644-4.586,5.41-7.482,7.115c-6.92,4.08-14.206,7.544-21.313,11.314c-1.18,0.624-2.596,1.301-3.235,2.358
		c-3.244,5.349-7.613,9.673-12.538,13.305c-5.659,4.174-8.482,10.408-12.57,15.72c-0.992,1.286-0.694,2.547,0.22,3.767
		c3.13,4.161,6.724,7.788,11.249,10.473c6.471,3.84,13.052,3.958,19.82,0.938c0.322-0.143,0.979-0.184,1.081-0.021
		c0.213,0.335,0.352,0.963,0.176,1.261c-0.657,1.102-1.42,2.146-2.212,3.158c-2.211,2.815-1.722,4.61,1.669,6.014
		c1.935,0.8,3.945,1.465,5.766,2.477c0.652,0.363,1.224,0.865,1.774,1.404c0.808,0.783,1.383,1.611,1.285,1.844
		s-1.098,0.425-2.224,0.425c-1.53,0-3.064,0-4.594,0c-1.126,0-2.094,0.143-2.163,0.322c-0.064,0.179,0.249,0.738,0.706,1.256
		c0.277,0.311,0.551,0.625,0.824,0.935c1.061,1.208,2.212,2.346,3.134,3.651c0.2,0.286,0.27,0.665,0.302,1.065
		c0.053,0.616-0.469,1.199-1.159,1.297c-0.461,0.065-0.901,0.086-1.244-0.085c-1.566-0.775-2.934-1.938-4.451-2.832
		c-0.534-0.314-1.102-0.567-1.783-0.853c-1.008-0.424-1.538,0.094-1.179,1.163c0.29,0.86,0.51,1.546,0.6,2.248
		c0.045,0.358-0.057,0.734-0.195,1.118c-0.217,0.596-0.854,0.868-1.412,0.611c-0.339-0.155-0.669-0.322-0.983-0.514
		c-0.277-0.172-0.534-0.38-0.812-0.624c-0.429-0.372-1.012-0.05-1.302,0.722s-1.004,1.016-1.591,0.539
		c-0.376-0.303-0.715-0.592-1.008-0.918c-1.91-2.126-3.477-4.7-5.729-6.341c-2.559-1.864-5.708-2.909-8.609-4.305
		c-6.964-3.354-14.051-6.52-19.339-12.477c-1.844-2.076-3.672-4.161-5.553-6.299c-0.742-0.845-1.33-1.204-1.31-0.796
		c0.012,0.265,0.041,0.514,0.15,0.718c4.056,7.568,8.805,14.68,15.402,20.258c3.061,2.586,6.663,4.088,10.951,2.056
		c0.856-0.403,1.979-0.249,3.296-0.073c1.118,0.146,1.489,0.942,0.824,1.853c-1.191,1.632-2.158,2.949-3.097,4.288
		c-2.415,3.436-2.305,5.463,0.155,8.943c1.987,2.807,3.889,5.688,5.643,8.646c0.371,0.628,0.208,1.93-0.229,2.566
		c-0.347,0.506-1.611,0.82-2.248,0.592c-1.085-0.384-2.032-1.204-2.966-1.938c-0.433-0.343-0.845-0.714-1.249-1.094
		c-0.669-0.628-1.012-0.249-0.607,0.804c0.567,1.485,1.281,2.84,1.669,4.28c0.253,0.942,0.199,1.967,0.109,2.999
		c-0.098,1.122-0.926,1.542-1.876,0.935c-0.682-0.437-1.359-0.878-2.021-1.339c-0.306-0.212-0.432-0.669-0.66-0.999
		c-0.49-0.698-0.983-1.392-1.538-2.175c-0.653-0.918-1.335-0.764-1.522,0.347c-0.195,1.143-0.375,2.203-0.551,3.228
		c-0.188,1.109-0.547,2.011-0.8,2.016c-0.253,0.004-0.726-0.551-1.061-1.236c-0.2-0.417-0.396-0.833-0.571-1.257
		c-0.645-1.555-1.184-3.162-1.901-4.68c-0.122-0.257-0.358-0.461-0.62-0.649c-0.408-0.293-0.95-0.143-1.212,0.327
		c-0.159,0.285-0.306,0.571-0.416,0.873c-0.33,0.894-0.641,1.799-0.946,2.701c-0.359,1.068-0.853,1.893-1.098,1.848
		s-0.71-0.959-1.012-2.044c-0.596-2.134-1.15-4.284-2.064-6.267c-1.562-3.395-2.934-7.319-5.573-9.694
		c-7.679-6.903-15.729-13.383-21.596-22.02c-3.378-4.978-6.107-10.29-6.463-16.438c-0.077-1.367,0.11-2.75,0.302-4.093
		c0.159-1.113-0.624-1.815-1.722-1.559c-3.688,0.865-7.327,1.734-10.979,2.559c-8.25,1.869-16.517,3.66-24.754,5.577
		c-2.627,0.612-4.929,1.701-5.569,4.839c-0.379,1.86-0.987,3.758-1.889,5.418c-3.383,6.227-6.871,12.396-10.445,18.512
		c-1.171,1.999-2.635,3.855-4.137,5.63c-2.705,3.199-5.892,6.055-8.209,9.498c-1.832,2.722-3.19,6.015-3.823,9.233
		c-1.334,6.769,0.208,13.419,1.995,19.968c0.931,3.411,3.138,5.952,6.186,7.372c4.431,2.064,9.095,3.632,13.664,5.39
		c4.043,1.555,8.156,2.95,12.109,4.709c0.481,0.212,0.808,0.767,1.105,1.399c0.429,0.909,0.196,1.934-0.521,2.272
		c-0.449,0.212-0.898,0.392-1.367,0.448c-2.171,0.27-4.354,0.453-6.569,0.637c-1.122,0.094-1.742,1.114-2.235,2.073
		c-0.494,0.958-1.473,1.183-1.44,1.231c0.033,0.049-0.849-0.004-1.967-0.11c-0.815-0.077-1.501-0.146-2.183-0.236
		c-3.264-0.42-6.512-1.094-9.788-1.248c-5.487-0.257-10.804-0.812-16.062-2.787c-3.477-1.306-6.152-2.913-7.854-6.218
		c-0.326-0.633-1.415-0.828-2.044-1.354c-0.461-0.388-1.162-1.175-1.036-1.469c1.105-2.546,0.637-5.133,0.286-7.679
		c-0.674-4.863-1.526-9.706-2.293-14.558c-1.098-6.956-1.881-13.908,0.759-20.727c0.718-1.856,1.807-3.606,2.297-5.512
		c1.754-6.834,3.387-13.705,4.944-20.588c1.514-6.675,2.134-6.813-5.332-8.372c-3.48-0.727-5.019,0.188-6.21,3.644
		c-0.575,1.665-1.154,3.346-1.942,4.912c-2.085,4.142-4.496,8.128-6.397,12.347c-3.394,7.527-8.645,13.732-13.794,19.996
		c-4.084,4.974-8.862,9.474-10.29,16.07c-0.702,3.248-1.681,6.667-1.301,9.866c0.686,5.806,2.207,11.521,3.533,17.242
		c1.179,5.083,4.398,8.457,9.25,10.343c2.75,1.068,5.479,2.187,8.221,3.271c1.048,0.416,1.962,0.759,2.036,0.779
		c0.045,0.013,0.09,0.024,0.135,0.045c1.771,0.653,3.541,1.31,5.316,1.963c1.236,0.457,2.064,1.624,1.688,2.979
		c-0.069,0.257-0.191,0.506-0.354,0.73c-0.261,0.362-0.412,0.697-0.232,0.844c0.18,0.147-0.575,0.38-1.697,0.522
		c-0.873,0.11-1.714,0.212-2.574,0.322c-1.118,0.139-1.302,0.804-0.392,1.474c0.587,0.432,1.142,0.836,1.664,1.231
		c0.897,0.682,1.669,1.318,1.767,1.367l0.18,0.09c0.388,0.195,0.682,0.502,0.877,0.864c0.331,0.608,0.384,1.519,0.404,1.914
		c0.012,0.257-0.004,0.502-0.062,0.714c-0.175,0.669-1.48,1.244-2.379,1.469c-1.138,0.286-2.439-0.045-3.558,0.273
		c-3.827,1.098-7.486,0.604-11.024-0.967c-3.178-1.412-6.316-2.922-9.572-4.468c-1.02-0.481-1.701-0.53-1.518-0.114
		s0.579,1.036,0.759,1.452c0.175,0.417,0.567,1.551,0.951,2.506c0.232,0.579,0.453,1.158,0.648,1.746
		c0.294,0.869,0.367,2.501-0.094,2.795c-0.963,0.616-2.338,0.705-3.558,0.759c-0.84,0.036-1.701-0.519-2.55-0.502
		c-2.468,0.049-4.626-0.624-6.381-2.37c-2.101-2.094-4.182-4.207-6.206-6.378c-1.371-1.473-2.395-3.365-3.97-4.541
		c-5.243-3.912-6.197-9.547-6.585-15.426c-0.469-7.141-0.881-14.284-1.126-21.433c-0.139-4.002-0.559-8.176,0.326-12.003
		c1.877-8.128,4.521-16.063,5.704-24.378c0.836-5.888,1.95-11.751,3.231-17.564c1.599-7.251,5.288-13.619,8.98-19.968
		c0.281-0.485,0.465-1.363,0.216-1.763c-1.848-2.982-3.26-6.585-5.867-8.666c-4.296-3.432-9.461-5.749-14.113-8.76
		c-2.75-1.783-5.842-3.546-7.695-6.104c-4.753-6.569-10.918-11.399-18.099-14.477c-8.707-3.732-17.772-6.776-26.916-9.281
		c-7.662-2.102-15.704-2.767-23.484-4.492c-10.379-2.302-20.649-5.104-31.008-7.52c-9.812-2.285-18.785-6.748-28.062-10.433
		c-6.434-2.554-12.93-5.006-19.543-7.038c-8.825-2.713-17.977-3.615-27.197-3.827c-5.659-0.131-11.314,0.078-16.74,1.73
		c-2.399,0.729-4.892,1.917-6.72,3.582c-2.586,2.35-5.724,4.374-6.968,7.972c-0.367,1.065-1.106,1.146-2.224,1.013
		c-0.861-0.106-1.318,0.673-1.742,1.876c-0.551,1.571-1.436,3.068-2.419,4.423c-0.535,0.734-1.546,1.502-2.395,1.567
		c-3.696,0.289-4.696,0.922-5.969,4.378c-0.159,0.437-0.338,1.097-0.661,1.211c-3.056,1.069-3.778,4.064-5.133,6.402
		c-1.228,2.113-2.105,4.431-3.043,6.756c-0.42,1.045-1.596,1.473-2.599,0.959c-0.298-0.151-0.596-0.302-0.894-0.453
		c-1.004-0.51-1.428-1.795-1.465-2.921c-0.069-2.162-1.142-4.484,0.604-6.54C1.321,258.034,1.296,257.548,1.203,257.507z"/>
</g>
<g>
</g>
<g>
</g>
<g>
</g>
<g>
</g>
<g>
</g>
<g>
</g>
<g>
</g>
<g>
</g>
<g>
</g>
<g>
</g>
<g>
</g>
<g>
</g>
<g>
</g>
<g>
</g>
<g>
</g>
</svg>
