<?xml version="1.0" encoding="iso-8859-1"?>
<!-- Generator: Adobe Illustrator 16.0.0, SVG Export Plug-In . SVG Version: 6.00 Build 0)  -->
<!DOCTYPE svg PUBLIC "-//W3C//DTD SVG 1.1//EN" "http://www.w3.org/Graphics/SVG/1.1/DTD/svg11.dtd">
<svg version="1.1" id="Capa_1" xmlns="http://www.w3.org/2000/svg" xmlns:xlink="http://www.w3.org/1999/xlink" x="0px" y="0px"
	 width="578.044px" height="578.045px" viewBox="0 0 578.044 578.045" style="enable-background:new 0 0 578.044 578.045;"
	 xml:space="preserve">
<g>
	<path d="M574.834,216.995c0.033-1.84-1.093-3.566-2.966-4.194c-0.624-0.208-1.518-0.628-1.975-1.098
		c-3.505-3.603-8.038-6.417-13.452-7.846c-0.632-0.167-1.477-0.706-1.946-1.167c-0.102-0.098-0.203-0.191-0.306-0.286
		c-0.171-0.155-0.343-0.293-0.493-0.412c-0.278-0.22-0.282-0.461-0.38-0.747c-0.049-0.143-0.122-0.314-0.221-0.498
		c-1.93-3.737-5.234-5.055-9.612-5.679c-4.781-0.682-9.363-2.803-14.022-4.333c-18.964-6.218-35.451,0.004-45.709,17.25
		c-5.769,9.707-19.163,15.214-29.706,11.754c-12.489-4.1-44.978-15.3-47.679-16.148c-16.206-5.108-32.987-6.186-49.902-5.569
		c-17.206,0.625-34.488,0.396-51.608,1.971c-0.326,0.029-0.648,0.065-0.975,0.102c-0.539,0.061-1.506,0.061-2.158,0.008
		c-0.625-0.049-1.249-0.102-1.873-0.151c-0.184-0.017-0.326,0.061-0.425,0.179c-0.167,0.208-0.677,0.51-1.33,0.592
		c-27.434,3.407-53.791,11.84-80.335,19.413c-5.141,1.465-10.31,2.872-15.5,4.202c-0.636,0.164-1.685,0.306-2.338,0.363
		c-1.97,0.171-3.757,0.616-5.349,1.293c-0.604,0.257-1.591,0.628-2.232,0.775c-8.796,2.044-17.65,3.803-26.548,5.096
		c-10.526,1.53-21.653-0.445-32.448-1.481c-1.779-0.171-3.558-0.343-5.337-0.514c-5.875-0.849-11.758-1.379-17.67-1.575
		c-14.998-1.143-30.008-1.571-45.08,0.42c-18.009,2.379-35.092,7.993-51.388,15.835c-4.757,2.288-8.927,5.793-13.309,8.865
		c-0.539,0.376-0.722,1.143-0.412,1.722c0.318,0.592,1.081,0.91,1.709,0.727c3.072-0.897,6.145-1.787,9.208-2.705
		c23.407-7.014,47.316-13.305,71.698-10.812c19.486,1.991,38.915,7.043,57.663,12.971c14.104,4.46,28.123,7.866,42.754,8.902
		c30.453,2.154,60.886,2.763,91.306-0.934c12.089-1.469,18.421,3.904,20.461,15.748c0.11,0.649-0.163,1.575-0.6,2.064
		c-3.35,3.746-6.793,6.863-9.017,10.686c-5.353,9.201-13.717,14.044-23.17,17.442c-5.161,1.856-7.589,5.161-7.871,10.485
		c-0.306,5.708-0.2,11.543-1.444,17.055c-0.946,4.202-3.859,7.932-5.663,11.975c-3.713,8.319-7.467,16.667-5.594,26.459
		c0.122,0.645,0.738,0.959,1.346,0.706c0.747-0.311,1.55-0.641,2.501-1.037c0.608-0.253,1.004,0.069,0.89,0.715
		c-0.212,1.195-0.408,2.297-0.6,3.365c-0.114,0.646,0.318,1.062,0.926,0.816c4.345-1.771,6.728-7.81,7.165-18.136
		c0.029-0.657,0.074-1.261,0.11-1.351c0.13-0.424,0.159-0.693,0.155-0.963c-0.012-0.444,0.057-0.954,0.277-1.15
		c0.135-0.118,0.27-0.236,0.4-0.359l0.188-0.167c0.102-0.09,0.702-0.298,1.322-0.51c4.472-1.53,6.328-4.423,6.565-9.796
		c0.139-3.158,0.212-6.337,0.595-9.47c2.109-17.324,8.262-22.755,26.998-25.871c10.828-1.804,21.86-2.371,32.804-3.428
		c0.652-0.065,1.269,0.408,1.358,1.061c1.656,11.991-1.012,23.599-8.813,34.354c-1.84,2.538-1.681,7.634-0.579,10.927
		c1.592,4.757,5.247,8.784,7.344,13.427c1.73,3.823,2.701,7.993,3.917,12.053c0.188,0.628-0.036,1.289-0.51,1.481
		c-0.474,0.188-0.416,0.636,0.131,1.003c3.039,2.024,6.055,4.031,8.861,5.9c0.547,0.363,1.521,0.665,2.179,0.673
		c6.394,0.086,36.365,0.453,36.116-0.017c-3.818-7.172-10.792-5.512-16.924-6.323c-11.983-1.592-25.137-15.639-27.463-28.173
		c-0.118-0.645-0.077-1.701-0.09-2.358c-0.004-0.384-0.044-0.779-0.13-1.191c-0.033-0.163-0.054-0.326-0.073-0.489
		c-0.029-0.27-0.033-0.987,0.032-1.604c0.037-0.371,0.09-0.738,0.155-1.102c0.6-3.244,1.771-6.193,3.342-8.915
		c1.081-1.718,2.284-3.387,3.464-4.97c2.554-3.097,5.598-5.899,8.82-8.531c6.397-5.227,13.623-10.195,18.025-16.895
		c4.61-7.014,7.748-13.546,17.703-10.646c0.906,0.266,2.485-0.444,3.235-1.207c5.867-5.989,12.905-4.773,20.037-3.587
		c4.872,0.809,9.914,0.886,14.631,2.188c2.709,0.75,5.011,3.183,7.332,5.059c3.565,2.881,7.001,5.929,10.583,8.78
		c0.515,0.408,0.547,1.102,0.09,1.571c-0.645,0.665-1.207,1.375-1.351,2.269c-0.302,1.881,0.303,3.492,1.077,5.186
		c0.245,0.53,1.155,0.277,1.106-0.298c-0.139-1.596,0.285-3.003,1.391-4.182c0.2-0.213,0.441-0.457,0.665-0.723
		c0.352-0.412,0.612-0.27,0.551,0.384c-0.171,1.938-1.126,3.717-2.688,5.002c-0.44,0.363-0.036,0.975,0.42,1.016
		c0.796,0.073,1.539-0.024,2.208-0.249c0.199-0.069,0.379-0.143,0.53-0.212c0.285-0.131,0.11,0.143,0.396,0.53
		c0.163,0.221,0.478,0.335,0.779,0.2c2.154-0.971,4.574-2.354,5.487-4.651c0.082-0.208,0.127-0.429,0.139-0.657
		c0.009-0.146,0.017-0.298,0.021-0.428c0.013-0.237,0.045-0.526,0.037-0.657s0.379-0.216,0.881-0.281
		c0.311-0.041,0.608-0.106,0.89-0.2c0.62-0.212,1.049-0.489,1.028-0.461c-0.559,0.551,0.094,1.244,0.677,0.979
		c2.154-0.972,4.574-2.354,5.488-4.651c0.081-0.208,0.126-0.429,0.139-0.657c0.008-0.146,0.017-0.298,0.021-0.429
		c0.012-0.236,0.012-0.971-0.11-1.636c-0.51-2.717-2.102-4.929-3.758-7.038c-1.566-2.398-3.342-4.704-5.279-7.201
		c-0.416-0.534-0.4-1.098,0.028-1.261c0.261-0.098,0.519-0.199,0.768-0.31c7.344-3.272,15.083-6.193,21.469-10.882
		c3.835-2.815,6.389-8.425,7.728-13.276c1.109-4.026,2.566-6.561,6.079-8.649c6.907-4.108,13.737-8.409,20.245-13.117
		c4.189-3.035,7.988-3.529,12.615-1.326c5.626,2.681,11.714,4.48,17.124,7.508c5.634,3.157,10.689,7.348,16.025,11.044
		c1.763,1.22,3.525,2.987,5.464,3.26c1.644,0.233,3.436-0.559,5.197-1.167c0.62-0.212,1.008-0.669,0.873-1.064
		c-0.049-0.143-0.085-0.281-0.109-0.399c-0.049-0.225,0.028-0.506,0.098-0.629c0.053-0.09,0.09-0.159,0.127-0.229
		c0.102-0.191,0.351-0.522,0.521-0.767c0.172-0.241,0.657-0.845,1.037-1.375c0.489-0.686,0.893-1.444,1.175-2.265
		c0.122-0.351-0.078-0.6-0.347-0.686c-0.457-0.146-0.91,0.241-1.077,0.326c-0.09,0.045-0.176,0.119-0.241,0.233
		c-0.146,0.244-0.347,0.457-0.543,0.632c-0.195,0.176-0.375,0.326-0.403,0.343c-0.404,0.18-0.653,0.311-0.901,0.437
		c-0.417,0.212-0.89,0.114-1.103-0.188c-0.13-0.184-0.269-0.359-0.428-0.514c-0.237-0.237-0.478-0.474-0.714-0.706
		c-0.4-0.388-0.294-1.012,0.188-1.461c0.51-0.473,0.983-1.004,1.407-1.587c0.058-0.082,0.086-0.172,0.09-0.261
		c0.004-0.155-0.081-0.592-0.363-0.764c-0.154-0.098-0.358-0.114-0.567,0.017c-0.13,0.081-0.265,0.163-0.396,0.245
		c-0.22,0.134-0.514,0.163-0.677,0.154c-0.09-0.004-0.188,0.013-0.29,0.062c-0.351,0.172-0.706,0.339-1.057,0.51
		c-0.583,0.282-1.448,0.151-1.934-0.294c-0.196-0.179-0.396-0.358-0.592-0.538c-0.485-0.44-0.474-1.102,0.032-1.481
		c0.307-0.229,0.612-0.457,0.914-0.685c0.416-0.311,0.355-1.167-0.298-1.106c-1.143,0.106-2.269,0.094-3.395-0.045
		c-0.652-0.081-1.199-0.216-1.236-0.249c-0.036-0.032,0.457-0.191,1.028-0.518c0.637-0.367,1.191-0.882,1.615-1.547
		c0.241-0.379-0.073-0.905-0.514-0.894l-3.794,0.099c-0.678,0.016-1.326,0.045-1.433-0.013c-0.057-0.032-0.114-0.077-0.171-0.13
		c-0.123-0.114,0.154-0.47,0.616-0.792c0.461-0.322,0.836-0.579,0.836-0.579c0.506-0.351,0.29-1.041-0.298-1.105
		c-1.42-0.159-2.778-0.519-4.072-1.058c-0.604-0.253-1.436-0.889-1.86-1.391c-3.692-4.378-3.406-6.818,0.119-13.089
		c0.322-0.571,1.052-0.771,1.619-0.445c1.126,0.649,2.248,1.322,3.37,1.991c0.563,0.338,0.901,1.138,0.935,1.791
		c0.028,0.62,0.18,1.24,0.449,1.853c0.184,0.412,0.828,0.363,1.023,0c0.159-0.298,0.352-0.567,0.563-0.808
		c0.363-0.408,0.832-0.604,0.95-0.534s0.163,0.653,0.098,1.306c-0.069,0.709-0.143,1.416-0.212,2.125
		c-0.021,0.2,0.049,0.348,0.159,0.441c0.208,0.171,0.563,0.15,0.689,0.118c0.065-0.017,0.135-0.049,0.204-0.098l1.742-1.282
		c0.53-0.387,1.118-0.628,1.318-0.534c0.199,0.094,0.232,0.686,0.077,1.322c-0.131,0.534-0.261,1.073-0.392,1.607
		c-0.106,0.433,0.285,0.861,0.73,0.73c0.828-0.241,1.538-0.734,2.064-1.371c0.416-0.506,1.118-0.815,1.733-0.587
		c0.678,0.253,1.155,0.958,1.127,1.615c-0.062,1.354-0.119,2.709-0.18,4.063c-0.017,0.371,0.396,0.698,0.75,0.571
		c1.742-0.607,3.183-1.714,4.203-3.133c0.383-0.535,1.138-0.865,1.774-0.702c0.494,0.126,0.987,0.253,1.481,0.371
		c0.636,0.155,1.134,0.808,1.044,1.457c-0.33,2.374-1.272,4.635-2.827,6.609c-0.351,0.448-0.041,1.146,0.579,0.991
		c3.501-0.877,6.32-3.239,7.817-6.373c0.281-0.592,0.616-0.991,0.828-1.012c0.118-0.012,0.237-0.057,0.352-0.143
		c1.207-0.942,1.893-2.293,2.06-3.709c0.074-0.652,0.123-1.457,0.221-1.799c0.062-0.22,0.11-0.432,0.135-0.632
		c0.652-5.018-0.318-10.277-2.648-15.035C574.913,218.635,574.823,217.652,574.834,216.995z M435.208,295.151
		c-0.02-0.139,0.408,0.094,0.931,0.522c2.986,2.473,5.916,5.019,8.947,7.426c0.515,0.407,0.547,1.102,0.09,1.57
		c-0.322,0.331-0.616,0.678-0.853,1.053c-0.359,0.571-0.678,0.828-0.946,0.465c-0.163-0.22-0.327-0.437-0.498-0.648
		c-2.171-3.321-4.717-6.43-7.572-10.167C435.242,295.303,435.217,295.225,435.208,295.151z M448.616,307.31
		c-0.114,1.298-0.6,2.51-1.371,3.558c-0.399,0.543-0.873,0.649-0.991,0.318c-0.118-0.33-0.184-1.15,0.049-1.782
		c0.229-0.633,0.588-1.216,1.094-1.755c0.2-0.212,0.44-0.457,0.665-0.722C448.416,306.515,448.673,306.657,448.616,307.31z"/>
</g>
<g>
</g>
<g>
</g>
<g>
</g>
<g>
</g>
<g>
</g>
<g>
</g>
<g>
</g>
<g>
</g>
<g>
</g>
<g>
</g>
<g>
</g>
<g>
</g>
<g>
</g>
<g>
</g>
<g>
</g>
</svg>
