<?xml version="1.0" encoding="iso-8859-1"?>
<!-- Generator: Adobe Illustrator 16.0.0, SVG Export Plug-In . SVG Version: 6.00 Build 0)  -->
<!DOCTYPE svg PUBLIC "-//W3C//DTD SVG 1.1//EN" "http://www.w3.org/Graphics/SVG/1.1/DTD/svg11.dtd">
<svg version="1.1" id="Capa_1" xmlns="http://www.w3.org/2000/svg" xmlns:xlink="http://www.w3.org/1999/xlink" x="0px" y="0px"
	 width="588.973px" height="588.973px" viewBox="0 0 588.973 588.973" style="enable-background:new 0 0 588.973 588.973;"
	 xml:space="preserve">
<g>
	<g>
		<path d="M0.512,233.977c0.804-0.719,1.51-1.347,2.187-1.946c0.84-0.751,1.024-1.645,0.412-1.991s-1.016-1.538-0.889-2.656
			c0.118-1.057,0.212-1.913,0.253-2.771c0.241-5.128,4.418-4.794,7.499-4.781c17.193,0.062,34.427,1.338,51.567,0.534
			c28.813-1.351,57.128,2.688,85.635,5.329c13.411,1.24,27.287,1.297,40.563-0.698c22.717-3.411,45.063-9.204,67.683-13.346
			c19.2-3.513,38.396-6.667,58.137-6.96c20.383-0.302,40.734-3.076,61.094-4.847c7.482-0.652,14.944-1.53,22.415-2.309
			c4.011-0.424,11.146,0.053,11.146,0.053c13.203,2.211,26.406,4.418,39.608,6.63c1.11,0.188,2.755-0.208,3.868-0.396
			c0.91-0.151,2.265-0.265,4.28-0.257c8.727,0.045,16.891-1.065,24.729-5.557c10.037-5.753,14.766-15.096,19.593-24.802
			c4.63-9.314,10.399-17.601,19.033-22.224c3.578-1.914,2.468-5.79,7.151-6.255c10.046-1.003,24.354,1.742,32.624,5.316
			c8.074,3.488,15.333,10.294,21.82,17.511c2.705,3.007,5.487,6.467,6.638,10.208c1.208,3.937,2.321,9.918,0.29,12.46
			c-1.506,1.885-3.289,3.395-5.247,4.517c-1.681,0.963-3.492-0.942-5.369-0.551c-4.68,0.979-9.764,2.758-14.239,0.086
			c-15.603-9.311-29.115-3.55-41.812,5.451c-18.72,13.272-35.623,29.155-58.218,36.491c-4.937,1.604-11.143,6.659-12.191,11.18
			c-1.685,7.274-5.699,11.261-11.02,14.966c-5.77,4.01-11.652,7.857-17.663,11.868c-0.938,0.624-0.868,1.526,0.151,2.003
			c4.573,2.158,8.833,4.19,13.125,6.148c9.511,4.346,8.821,4.162,6.451,14.379c-3.305,14.238-10.127,28.033-7.214,43.402
			c0.208,1.105-0.375,1.567-1.289,0.906c-7.242-5.219-4.472-12.958-4.035-20.033c0.069-1.126-0.318-1.195-0.763-0.163
			c-4.61,10.633-8.842,21.13-13.064,31.632c-0.392,0.972-0.485,2.729-1.036,2.873c-8.947,2.272-6.54,9.71-7.336,15.695
			c-0.024,0.18-0.204,0.339-0.444,0.534c-0.307,0.245-1.045-0.298-1.673-1.235c-0.241-0.359-0.481-0.719-0.73-1.09
			c-0.629-0.935-1.086-0.763-1.408,0.318c-0.293,0.983-0.819,1.909-1.587,2.677c-0.339,0.338-0.706,0.624-1.098,0.864
			c-0.656,0.408-1.763,1.367-2.378,2.31c-0.739,1.13-1.474,2.248-2.199,3.362c-0.616,0.942-1.648,1.559-2.306,1.379
			s-1.383-1.216-1.628-2.317c-0.437-1.959-0.89-3.913-1.342-5.871c-0.253-1.098-0.531-2.061-0.62-2.154l-0.168-0.168
			c-1.424-1.424-2.023-3.386-1.815-5.271c0.122-1.122,0.465-2.15,0.384-2.383c-0.049-0.147-0.103-0.286-0.151-0.425
			c-0.114-0.322-0.188-0.657-0.225-1.004c-0.061-0.562-0.053-1.211-0.098-1.444c-0.045-0.232-0.742-1.072-1.24-2.08
			c-0.416-0.845-0.652-1.787-0.652-2.779v-1.076c0-0.522,0.069-1.028,0.199-1.514c0.217-0.816,0.421-2.347,0.637-3.452
			c0.049-0.245,0.11-0.485,0.188-0.727c0.343-1.073,0.959-2.362,0.979-3.039c0.012-0.408,0.017-0.816,0.008-1.225
			c-0.004-0.236-0.032-0.473-0.077-0.71c-0.069-0.388-0.926-1.24-1.53-2.194c-0.718-1.131-1.064-2.497-1.044-3.856
			c0.016-1.126,0.22-2.623,0.122-3.378s-0.469-1.901-0.678-2.606c-0.208-0.706-0.922-1.967-1.391-2.991
			c-0.519-1.126-0.719-2.407-0.608-3.655c0.103-1.122-0.208-2.641-0.681-3.66c-0.155-0.339-0.286-0.689-0.384-1.049
			c-0.302-1.085-1.086-2.468-1.836-3.305c-1.028-1.143-1.665-2.636-1.665-4.264c0-0.281,0.024-0.555,0.065-0.82
			c0.069-0.448-0.33-1.501-0.641-2.492c-0.184-0.592-0.285-1.216-0.285-1.86v-0.433c0-0.143,0.012-0.286,0.028-0.425
			c0.028-0.232-0.241-0.808-0.502-1.354c-0.155-0.326-0.285-0.665-0.375-1.028c-0.144-0.575-0.286-1.15-0.433-1.726
			c-0.086-0.347-0.139-0.689-0.163-1.036c-0.041-0.575-0.837-1.477-1.563-2.342c-1.093-1.298-1.599-3.04-1.521-4.75
			c0.053-1.126,0.082-2.864-0.285-3.934c-0.282-0.815-0.563-1.636-0.854-2.473c-0.367-1.064-0.901-1.044-1.244,0.029
			c-0.701,2.183-1.31,3.635-1.212,5.034c1.094,15.729-6.744,28.267-17.728,37.035c-10.22,8.156-15.969,18.124-21.615,29.029
			c-6.903,13.338-7.821,26.524-1.384,40.262c2.367,5.051,4.595,10.335,5.732,15.753c2.387,11.383,10.601,16.145,20.404,19.213
			c3.656,1.146,7.74,0.918,11.408,2.035c2.407,0.734,4.614,2.134,6.85,3.436c0.976,0.567,1.045,1.628-0.073,1.779
			c-2.696,0.371-5.618-1.775-6.553,0.392c-0.444,1.036-1.22,2.057-2.346,2.121c-8.47,0.481-16.516,0.955-24.565,1.379
			c-8.405,0.445-12.538-3.157-13.023-11.497c-0.159-2.722-0.082-5.459-0.045-8.335c0.013-1.126-0.881-1.856-1.987-1.633
			c-0.942,0.192-1.815,0.372-2.709,0.556c-1.105,0.224-1.574-0.4-1.15-1.444c2.452-6.063,1.538-11.588-0.444-17.145
			c-2.75-7.694-5.847-15.308-7.903-23.187c-0.792-3.04,0.29-6.932,1.493-10.062c3.472-9,8.091-17.601,11.061-26.744
			c4.582-14.108,8.188-28.535,12.13-42.849c0.168-0.611,0.176-1.265,0.144-1.934c-0.054-1.073-0.408-1.93-0.792-1.922
			c-0.384,0.009-1.232,0.755-1.877,1.682c-3.28,4.695-6.254,9.698-10.244,13.684c-13.595,13.587-26.981,27.308-35.509,44.791
			c-2.958,6.066-5.867,12.651-6.536,19.229c-1.016,10.009-0.11,20.221,0.078,30.343c0.257,13.941,4.749,18.809,18.776,20.972
			c3.362,0.518,6.716,1.465,9.891,2.692c1.109,0.429,2.056,1.294,2.99,2.179c0.815,0.775,1.379,1.783,1.22,2.289
			s-1.199,0.963-2.325,1.028c-5.631,0.33-11.261,0.734-16.896,0.865c-5.99,0.139-12.004,0.139-17.981-0.196
			c-7.165-0.399-10.339-4.549-9.221-11.652c0.228-1.452,0.661-2.872,1.102-4.337c0.322-1.077-0.343-2.016-1.465-2.085
			c-0.062-0.004-0.123-0.009-0.184-0.013c-1.126-0.069-1.881-1.023-1.763-2.142c0.322-3.076,0.327-6.047,1.693-8.123
			c5.908-8.993,3.296-18.728,3.549-28.25c0.204-7.667-0.93-15.684,4.411-22.334c12.301-15.316,21.265-32.232,25.219-51.641
			c1.073-5.264,2.717-10.404,3.876-15.652c0.273-1.244-0.127-2.77-0.596-4.026c-1.637-4.374-4.125-8.556-4.998-13.061
			c-1.061-5.483-3.741-8.935-8.683-11.068c-14.929-6.447-29.759-10.829-46.769-8.512c-15.01,2.045-30.526,0.099-45.798,0.584
			c-12.13,0.388-23.35-2.628-34.721-6.234c-6.169-1.954-12.982-2.656-19.494-2.595c-24.484,0.216-47.41,9.322-71.286,13.072
			c-3.814,0.6-7.209,2.921-12.056-0.828c-4.043-3.125-11.396-2.036-17.295-2.685c-5.365-0.588-10.743-1.049-16.222-1.555
			c-1.122-0.102-1.767-0.987-1.437-1.975c0.331-0.983-0.31-1.894-1.428-2.032c-0.743-0.09-1.505-0.184-2.338-0.285
			c-1.118-0.139-1.448-0.955-0.738-1.828c0.29-0.354,0.563-0.693,0.832-1.02c0.71-0.873,0.392-1.832-0.73-1.763
			c-3.317,0.204-6.953,2.28-9.674-0.963c-0.727-0.861-2.003-1.796-3.129-1.89c-0.563-0.045-1.167-0.098-1.791-0.15
			c-1.122-0.094-2.313-0.608-2.66-1.155c-0.347-0.542,0.196-1.374,1.211-1.856c0.841-0.399,1.75-0.828,2.815-1.334
			c1.02-0.481,0.951-1.061-0.155-1.293c-2.509-0.526-4.447-0.931-6.532-1.371C-0.112,235.523-0.328,234.727,0.512,233.977z"/>
	</g>
</g>
<g>
</g>
<g>
</g>
<g>
</g>
<g>
</g>
<g>
</g>
<g>
</g>
<g>
</g>
<g>
</g>
<g>
</g>
<g>
</g>
<g>
</g>
<g>
</g>
<g>
</g>
<g>
</g>
<g>
</g>
</svg>
