<?xml version="1.0" encoding="iso-8859-1"?>
<!-- Generator: Adobe Illustrator 16.0.0, SVG Export Plug-In . SVG Version: 6.00 Build 0)  -->
<!DOCTYPE svg PUBLIC "-//W3C//DTD SVG 1.1//EN" "http://www.w3.org/Graphics/SVG/1.1/DTD/svg11.dtd">
<svg version="1.1" id="Capa_1" xmlns="http://www.w3.org/2000/svg" xmlns:xlink="http://www.w3.org/1999/xlink" x="0px" y="0px"
	 width="590.459px" height="590.459px" viewBox="0 0 590.459 590.459" style="enable-background:new 0 0 590.459 590.459;"
	 xml:space="preserve">
<g>
	<path d="M498.602,273.214c-32.139-12.293-64.179-22.457-96.492-34.28c-26.973-9.87-54.134-19.298-81.522-27.928
		c-30.375-9.567-61.608-15.83-93.097-20.424c-14.766-2.154-29.764-3.076-44.692-3.717c-19.874-0.853-38.442,4.325-55.325,14.839
		c-5.137,3.199-9.833,7.238-14.26,11.391c-3.533,3.313-9.18,3.917-12.064-0.061c-3.676-5.071-7.23-10.338-10.017-15.928
		c-3.541-7.116-8.029-11.942-16.365-13.66c-8.576-1.763-16.964-2.562-25.708-2.138c-14.61,0.71-29.078,2.04-43.26,5.757
		c-3.121,0.816-5.855,2.073-5.798,5.247c0.004,0.224,0.2,0.461,0.417,0.526c0.085,0.024,0.175,0.053,0.261,0.077
		c0.216,0.065,0.343,0.29,0.294,0.51c-0.29,1.236-0.596,3.052-0.053,3.705c0.653,0.783,1.049-1.505,2.722-2.587
		c0.188-0.122,0.379-0.016,0.416,0.204c0.212,1.2,0.596,2.656,1.257,3.011c0.767,0.416,0.518-1.204,1.154-2.701
		c0.09-0.208,0.351-0.314,0.567-0.249c0.351,0.098,0.702,0.2,1.044,0.302c0.216,0.065,0.428,0.298,0.481,0.518
		c0.229,0.947,0.571,1.853,1.073,2.125c0.555,0.302,0.579-0.469,0.787-1.485c0.045-0.22,0.265-0.347,0.481-0.277
		c0.498,0.155,0.987,0.314,1.481,0.473c0.216,0.069,0.379,0.302,0.384,0.53c0.016,0.698,0.126,1.314,0.424,1.616
		c0.433,0.437,0.673-0.236,1.134-1.11c0.106-0.2,0.371-0.298,0.583-0.232c0.82,0.257,1.648,0.506,2.456,0.779
		c0.392,0.135,0.31,1.669,0.396,3.215c0.012,0.224-0.045,0.453-0.134,0.514c-0.09,0.062-0.339,0.082-0.559,0.041
		c-3.855-0.734-7.319-1.396-10.763-2.052c-0.22-0.041-0.473,0.09-0.567,0.294c-0.045,0.098-0.086,0.191-0.131,0.29
		c-0.094,0.204-0.008,0.461,0.192,0.571c2.819,1.579,5.651,3.162,8.784,4.917c0.196,0.11,0.31,0.375,0.273,0.595
		c-0.033,0.2-0.061,0.4-0.082,0.608c-0.021,0.225-0.188,0.494-0.396,0.58c-0.64,0.265-1.375,0.42-2.146,0.53
		c-0.224,0.033-0.416-0.13-0.424-0.355c-0.028-0.75-0.057-1.24-0.542-1.061c-0.388,0.143-0.739,0.632-1.041,1.236
		c-0.102,0.2-0.351,0.371-0.575,0.371c-0.163,0-0.326,0-0.49,0c-0.224,0-0.396-0.188-0.367-0.412
		c0.167-1.277,0.657-2.256-0.073-2.183c-0.706,0.073-1.559,1.154-2.203,2.142c-0.123,0.188-0.404,0.335-0.628,0.327
		c0,0-0.041,0-0.057-0.004c-0.225-0.008-0.42-0.2-0.412-0.424c0.053-1.534,0.783-2.812-0.045-2.726
		c-0.861,0.09-1.938,1.665-2.587,2.754c-0.114,0.192-0.387,0.367-0.612,0.4c-0.71,0.098-1.22,0.302-1.408,0.698
		c-0.098,0.204,0.082,0.485,0.278,0.591c3.521,1.922,6.871,4.558,10.632,5.447c6.544,1.546,13.007,3.28,19.278,5.492
		c0.086,0.037,0.167,0.078,0.253,0.114c0.543,0.249,1.094,0.453,1.648,0.612c0.216,0.061,0.563,0.171,0.775,0.249
		c6.067,2.297,11.942,5.084,17.515,8.65c5.28,3.378,10.755,6.634,14.594,11.873c0.82,1.118,2.028,1.958,3.072,2.909
		c0.58,0.587,1.559,1.024,1.803,1.718c0.898,2.546,2.114,4.255,3.852,5.333c0.192,0.118,0.478,0.343,0.628,0.51
		c1.436,1.571,3.003,2.979,4.7,4.223c0.184,0.135,0.277,0.257,0.208,0.281s-0.196,0.212-0.29,0.417
		c-0.024,0.057-0.053,0.118-0.078,0.175c-0.094,0.204,0.004,0.445,0.212,0.534c4.022,1.747,7.993,3.652,12.125,5.072
		c0.294,0.102,0.641,0.037,1.02-0.114c0.208-0.086,0.526-0.069,0.718,0.053c1.869,1.216,9.833,6.544,12.962,9.303
		c3.758,3.309,6.883,7.332,10.372,10.963c1.86,1.938,3.888,3.713,6.12,5.81c0.163,0.155,0.208,0.437,0.102,0.636
		c-1.599,2.966-3.435,6.634-5.553,10.13c-2.868,4.741-3.382,9.479-1.86,14.896c2.872,10.221,2.66,10.311-5.798,16.504
		c-3.456,2.529-6.822,5.271-10.571,7.274c-5.194,2.778-8.185,7.001-10.098,12.346c-1.62,4.533-3.297,8.997-7.597,11.975
		c-2.473,1.714-4.525,3.979-7.409,1.856c-0.18-0.135-0.486-0.163-0.689-0.073c-0.306,0.135-0.502,0.2-0.576,0.335
		c-0.191,0.354-0.347,0.656-0.501,0.959c-0.102,0.199-0.372,0.383-0.592,0.428c-0.306,0.065-0.641,0.168-1.028,0.335
		c-4.879,2.085-7.16,6.059-4.847,5.043c1.036-0.453,2.758-0.734,4.349-0.906c0.225-0.024,0.42,0.049,0.433,0.168
		c0.012,0.118-0.062,0.351-0.2,0.53c-1.738,2.301-2.436,4.695-0.812,3.565c1.448-1.008,5.173-1.759,8.131-2.224
		c0.224-0.036,0.583-0.049,0.808-0.036c3.59,0.232,7.206,0.403,10.771,0.13c1.428-0.11,3.292-1.55,3.99-2.889
		c2.884-5.536,5.222-11.358,8.147-16.87c0.959-1.804,2.864-3.742,4.733-4.309c6.356-1.93,12.885-3.31,19.352-4.88
		c0.22-0.053,0.449,0.077,0.522,0.29c0.241,0.701,0.531,1.334,0.849,1.921c0.433,0.796,0.885,1.424,1.375,1.942
		c0.155,0.163,0.408,0.429,0.555,0.6c1.35,1.547,3.256,3.31,5.3,3.786c2.109,0.494,1.42-0.779,0.514-2.627
		c-0.098-0.204-0.012-0.44,0.184-0.551c0.367-0.2,0.734-0.445,1.097-0.734c0.176-0.144,0.461-0.163,0.657-0.045
		c0.363,0.216,0.726,0.412,1.089,0.571c6.597,2.889,3.606,0.04,1.199-3.321c-0.13-0.184-0.061-0.262,0.147-0.18
		c0.277,0.11,0.555,0.212,0.836,0.277c2.236,0.522,1.334-0.922,0.351-2.945c-0.098-0.204-0.119-0.547-0.053-0.764
		c0.261-0.897,0.388-1.767,0.306-2.541c-0.024-0.225,0.106-0.481,0.31-0.571c4.207-1.853,8.609-3.456,12.627-5.745
		c3.978-2.265,7.556-5.23,11.648-8.164c0.184-0.131,0.44-0.094,0.575,0.086c1.493,2.023,3.484,4.7,5.455,7.389
		c6.087,8.311,12.154,16.639,18.25,24.941c3.027,4.12,3.088,8.168,0.571,12.681c-4.022,7.213-7.442,14.777-11.668,21.864
		c-0.935,1.562-4.211,2.518-6.333,2.399c-1.893-0.106-4.333,0.428-6.507,1.424c-0.204,0.094-0.551,0.167-0.775,0.175
		c-0.363,0.017-0.775,0.074-1.256,0.196c-5.92,1.506-9.221,5.622-6.406,4.876c0.053-0.017,0.118-0.024,0.184-0.033
		c0.106-0.016,0.045,0.078-0.135,0.212c-2.872,2.212-3.802,4.477-1.836,3.611c1.257-0.551,3.391-0.882,5.3-1.077
		c0.225-0.024,0.294,0.106,0.159,0.285c-2.129,2.909-3.08,6.019-1.118,4.651c1.534-1.064,5.292-1.885,8.535-2.428
		c0.22-0.036,0.587-0.053,0.812-0.032c8.845,0.727,17.707,1.265,26.569,1.729c1.065,0.058,2.175-0.705,4.113-1.48
		c0.208-0.082,0.212-0.225,0.008-0.318c-1.918-0.894-3.097-1.44-4.562-2.126c-0.204-0.094-0.2-0.253,0.004-0.351
		c3.117-1.497,6.1-2.66,8.715-4.382c1.469-0.963,3.109-2.893,3.223-4.492c0.82-11.322,1.457-22.664,1.697-34.011
		c0.065-2.913-1.04-6.096-2.391-8.756c-4.415-8.683-6.075-17.988-6.483-27.512c-0.277-6.467-2.105-12.003-6.597-16.707
		c-2.844-2.979-5.5-6.137-8.266-9.258c-0.151-0.167-0.094-0.359,0.123-0.42c7.172-2.04,14.174-4.406,21.359-5.814
		c2.692-0.526,5.859,1.265,8.788,2.073c1.673,0.461,3.268,1.31,4.961,1.566c3.007,0.461,3.958,2.374,4.137,5.019
		c0.277,4.129,2.403,7.132,5.304,9.983c11.648,11.424,23.109,23.04,34.68,34.546c9.16,9.106,9.302,9.103,7.001,21.844
		c-0.727,4.035-2.391,7.895-3.391,11.894c-0.506,2.023-0.653,4.182-0.645,6.279c0.016,3.142-1.689,3.925-4.333,3.479
		c-3.33-0.559-10.519,1.832-13.954,4.974c-0.167,0.151-0.481,0.27-0.706,0.294c-0.216,0.024-0.44,0.073-0.673,0.163
		c-3.235,1.261-5.96,3.301-3.582,3.329c0.865,0.013,2.252,0.114,3.664,0.241c0.224,0.021,0.501,0.106,0.616,0.184
		s0.065,0.253-0.106,0.399c-2.13,1.808-3.219,3.574-1.081,3.076c1.33-0.31,3.831-0.71,5.969-1.027
		c0.225-0.033,0.494-0.041,0.608-0.021s0.069,0.167-0.089,0.322c-1.539,1.506-2.081,2.746-0.249,2.321
		c1.632-0.38,5.035-0.897,7.348-1.232c0.224-0.032,0.583-0.028,0.808,0.009c7.206,1.154,14.443,1.619,21.73-0.719
		c0.171-0.053,0.31-0.195,0.535-0.392c0.167-0.15,0.237-0.433,0.143-0.641c-0.204-0.457-0.408-0.922-0.596-1.351
		c-0.089-0.208-0.028-0.493,0.139-0.64c3.19-2.824,6.41-5.468,9.323-8.409c1.22-1.232,2.407-3.121,2.484-4.762
		c0.579-12.741,0-25.427-3.961-37.679c-0.967-2.982-2.946-5.635-4.419-8.458c-2.884-5.516-5.744-11.049-8.596-16.581
		c-0.245-0.469-0.437-0.995-0.51-1.514c-1.363-9.49-6.528-16.062-15.218-19.968c-0.722-0.326-1.383-0.787-2.061-1.203
		c-0.065-0.041-0.106-0.127-0.179-0.273c-0.082-0.163,0.02-0.339,0.241-0.396c2.105-0.555,4.227-0.951,6.189-1.738
		c7.005-2.807,9.095-9.363,11.526-15.597c1.403-3.603,2.46-7.36,4.092-10.853c4.043-8.649,10.983-12.811,20.522-13.753
		c12.146-1.204,23.979,0.64,35.912,2.134c17.283,2.158,34.574,4.398,51.914,5.977c66.133,10.041,130.972,28.246,192.731,53.962
		c2.093,0.873,3.663-0.127,4.378-1.693c0.094-0.204,0.313-0.466,0.497-0.596c2.13-1.506,2.881-5.101-0.049-6.834
		C564.465,296.074,498.602,273.214,498.602,273.214z M133.584,313.749c-1.424-2.559-2.652-4.774-3.954-7.12
		c-0.11-0.195-0.057-0.478,0.11-0.624c3.244-2.856,6.507-5.732,10.053-8.85c0.167-0.147,0.355-0.094,0.416,0.122
		c1.085,3.754,2.048,7.071,3.101,10.702c0.062,0.216-0.041,0.485-0.236,0.6c-3.146,1.869-6.051,3.599-8.943,5.316
		C133.939,314.01,133.695,313.944,133.584,313.749z"/>
</g>
<g>
</g>
<g>
</g>
<g>
</g>
<g>
</g>
<g>
</g>
<g>
</g>
<g>
</g>
<g>
</g>
<g>
</g>
<g>
</g>
<g>
</g>
<g>
</g>
<g>
</g>
<g>
</g>
<g>
</g>
</svg>
