<?xml version="1.0" encoding="iso-8859-1"?>
<!-- Generator: Adobe Illustrator 16.0.0, SVG Export Plug-In . SVG Version: 6.00 Build 0)  -->
<!DOCTYPE svg PUBLIC "-//W3C//DTD SVG 1.1//EN" "http://www.w3.org/Graphics/SVG/1.1/DTD/svg11.dtd">
<svg version="1.1" id="Capa_1" xmlns="http://www.w3.org/2000/svg" xmlns:xlink="http://www.w3.org/1999/xlink" x="0px" y="0px"
	 width="582.481px" height="582.481px" viewBox="0 0 582.481 582.481" style="enable-background:new 0 0 582.481 582.481;"
	 xml:space="preserve">
<g>
	<path d="M580.534,234.097c-4.831-4.255-20.796,0.159-26.904,0.592c-20.669,1.469-41.469,2.052-62.122,0.028
		c-39.037-3.831-76.521-16.822-114.885-25.006c-39.897-8.507-80.91-11.738-121.653-9.723c-20.58,1.02-41.09,3.374-61.359,7.066
		c-9.992,1.82-20.539,3.415-30.22,6.537c-7.438,2.399-11.897,6.732-17.618,11.383c-0.897,0.73-2.375,1.885-3.276,2.607
		c-5.455,4.333-11.554,9.294-18.103,11.302c-4.3,1.317-8.866,1.787-13.341,1.346c-2.95-0.289-6.198-0.579-8.931-1.815
		c-1.338-0.604-2.138-1.958-3.28-2.529c-5.753-2.856-12.444-4.039-18.486-6.638c-0.551-0.237-0.906-0.408-1.024-1.098
		c-0.102-0.608-0.722-0.693-1.358-0.665c-5.129,0.22-10.367-0.184-15.496-0.078c-0.742,0.017-1.485-0.2-2.236-0.249
		c-4.043-0.257-8.103-0.498-12.097-1.183c-3.337-0.571-6.626-3.272-9.947-2.917c-1.673,0.18-3.35,0.314-5.022,0.453
		c-1.718,0.143-3.354,0.033-5.006-0.69c-0.942-0.408-2.15-0.269-3.244-0.285c-1.799-0.029-3.603,0.049-5.402,0.028
		c-2.085-0.024-4.084,0.27-6.145,0.702c-2.583,0.543-4.827,2.052-7.47,2.293c-0.278,0.024-0.592,0.167-0.804,0.351
		c-1.146,0.971-2.35,1.897-3.357,2.999c-0.563,0.616-0.775,1.546-1.155,2.33c-0.139,0.29-0.359,0.555-0.433,0.857
		c-0.094,0.372-0.253,0.992-0.082,1.126c0.27,0.212,0.478,0.461,0.649,0.73c0.33,0.51,0.522,1.404,1.093,1.652
		c0.045,0.021,0.085,0.024,0.13,0.024c0.074,0-0.012,0.938,0.082,2.089c0.082,1.044,0.339,2.211,0.886,3.464
		c1.566,3.586,1.379,1.269,2.938-1.84c0.518-1.032,1.146-1.759,1.232-1.722c0.086,0.036,0.053,1.003,0.057,2.158
		c0.008,1.799,0.237,3.892,0.918,6.181c2.093,7.018,1.045-1.403,5.227-7.401c0.045-0.064,0.078-0.122,0.114-0.179
		c0.062-0.103,0.131,0.701,0.379,1.762c0.139,0.596,0.343,1.221,0.625,1.869c1.383,3.166,1.395,1.729,2.452-0.792
		c0.444-1.064,1.175-1.823,1.436-1.938s0.433,0.583,0.681,1.64c0.139,0.596,0.343,1.216,0.625,1.861
		c1.571,3.603,1.379,1.248,2.962-1.881c0.522-1.032,1.15-1.727,1.245-1.669c0.094,0.057,0.265,0.706,0.477,1.452
		c0.123,0.429,0.273,0.873,0.474,1.33c1.407,3.224,1.399,1.677,2.55-0.95c0.465-1.057,1.591-2.057,2.366-1.91
		c0.474,0.09,0.951,0.241,1.392,0.318c0.918,0.159,1.844,0.192,2.656,0.723c0.914,0.596,1.579,1.746,2.048,2.701
		c0.771,1.559,1.624,3.08,2.391,4.639c0.282,0.575,0.535,1.203,0.612,1.832c0.277,2.284,0.29,4.541-0.816,6.683
		c-0.445,0.861-0.608,1.865-1.049,2.729c-0.277,0.547-0.75,1.114-1.281,1.384c-1.317,0.665-2.052,1.803-2.811,2.962
		c-0.134,0.208-0.281,0.412-0.44,0.607c-0.261,0.322-1.399,0.253-2.403-0.318c-3.435-1.954-4.562-4.695-4.169-0.518
		c0.057,0.592,0.151,1.138,0.277,1.652c0.224,0.897-0.343,1.232-1.318,0.611c-3.17-2.039-4.235-4.516-3.852-0.452
		c0.094,1.016,0.31,1.913,0.592,2.705c0.387,1.089,0.028,1.525-0.943,0.901c-3.146-2.023-4.198-4.476-3.819-0.424
		c0.065,0.705,0.192,1.35,0.359,1.941c0.298,1.049,0.624,1.787,0.522,1.726c-0.057-0.036-0.118-0.069-0.188-0.105
		c-6.561-3.228-9.723-11.105-8.156-3.949c0.567,2.586,1.506,4.716,2.473,6.385c0.58,1,0.257,1.403-0.722,0.792
		c-3.244-2.036-4.329-4.615-3.945-0.506c0.192,2.056,0.869,3.639,1.62,4.806c0.625,0.971,1.224,1.808,1.151,2.04
		c-0.049,0.146-0.086,0.294-0.114,0.433c-0.082,0.404-0.147,0.8-0.155,1.199c-0.008,0.47,0.216,1.225,0.542,1.358
		c0.257,0.106,0.522,0.188,0.796,0.258c0.449,0.109,1.236,0.579,1.897,0.656c0.367,0.041,0.763-0.024,1.167-0.236
		c0.392-0.204,0.779-0.412,1.171-0.62c0.93-0.453,1.828-0.959,2.726-1.465c0.139-0.086,0.269-0.159,0.392-0.229
		c0.22-0.126,0.808-0.298,1.24-0.559c0.429-0.262,1.64-1.077,2.767-1.742c1.126-0.665,2.183-1.289,2.378-1.354
		c0.118-0.041,0.237-0.069,0.359-0.09c2.146-0.376,4.333-0.539,6.447-1.036c1.53-0.363,2.941-1.196,4.451-1.693
		c1.342-0.445,2.738-0.751,4.121-1.053c1.673-0.363,3.35-0.714,5.043-0.963c1.053-0.155,2.13-0.139,3.199-0.147
		c1.946-0.02,3.872,0.05,5.716-0.877c0.877-0.44,2.008-0.334,2.95-0.677c1.881-0.686,3.688-1.575,5.573-2.24
		c0.53-0.188,1.24,0.102,1.86,0.212c0.824,0.151,1.64,0.347,2.46,0.51c1.452,0.29,2.921,0.453,4.353,0.923
		c1.604,0.526,3.313,0.734,4.917,1.257c1.359,0.444,2.615,1.183,3.945,1.722c1,0.403,2.028,0.754,3.068,1.04
		c2.619,0.718,5.251,1.399,7.882,2.064c0.478,0.122,0.992,0.11,1.489,0.126c0.628,0.021,1.273-0.057,1.669,0.62
		c0.065,0.114,0.286,0.196,0.428,0.192c1.86-0.065,3.24,1.113,4.811,1.812c1.489,0.656,3.031,1.195,4.553,1.778
		c0.155,0.058,0.351,0.029,0.485,0.11c1.143,0.71,2.277,1.437,3.419,2.154c0.135,0.082,0.286,0.143,0.433,0.196
		c2.093,0.767,4.153,1.505,5.724,3.292c0.522,0.596,1.392,1.677,2.615,0.812c0.074-0.049,0.379,0.102,0.469,0.232
		c0.771,1.098,1.498,2.228,2.277,3.316c0.534,0.747,1.105,1.469,1.706,2.167c0.24,0.277,0.616,0.437,0.885,0.689
		c0.583,0.551,1.208,1.077,1.701,1.701c1.028,1.306,2.518,1.885,3.909,2.628c0.175,0.094,0.42,0.098,0.547,0.229
		c0.616,0.641,1.249,1.276,1.783,1.982c0.2,0.266,0.298,0.775,0.188,1.077c-0.335,0.906-0.938,1.73-1.175,2.656
		c-0.331,1.293-1.171,2.166-2.113,2.917c-0.845,0.674-1.853,1.15-2.823,1.652c-1.179,0.612-2.383,1.167-3.591,1.726
		c-1.607,0.747-3.203,1.457-4.978,1.856c-1.559,0.355-3.268,0.608-4.582,1.742c-0.93,0.8-1.906,1.551-2.807,2.383
		c-3.183,2.938-8.327,1.453-11.338-0.885c-1.82-1.412-3.538-3.085-5.729-3.803c-2.999-0.983-6.446,0.094-8.707,2.293
		c-2.26,2.203-3.411,5.369-3.615,8.519c-0.204,3.15-1.33,10.759,1.457,9.295c-1.171-3.591,2.289-12.53,6.279-13.15
		c0.302-0.045,0.771,0.461,1.037,0.812c1.232,1.656,2.093,1.844,4.002,1.248c1.44-0.449,2.982-0.702,4.288,0.526
		c0.11,0.106,0.273,0.151,0.445,0.195c0.261,0.07,0.714,0.396,0.587,0.702c-0.086,0.208-0.286,0.375-0.428,0.375
		c-0.159,0-0.318,0-0.481,0c-0.494,0-0.918,0-1.343-0.004c-0.465-0.008-0.877,0.041-1.244,0.151
		c-0.669,0.195-2.705,1.244-4.178,2.701c-1.473,1.456-2.701,3.488-3.04,4.264c-0.2,0.457-0.322,0.963-0.444,1.46
		c-0.18,0.714-0.335,1.437-0.481,2.158c-0.033,0.155-0.041,0.404,0.049,0.478c1.208,1.008,1.036,2.652,1.84,3.868
		c1.306,1.971,2.726,3.68,5.284,3.904c0.2,0.017,0.4,0.013,0.6-0.004c0.102-0.008,0.2-0.037,0.383-0.082
		c0.208-0.053,0.11-0.289-0.216-0.538c-0.22-0.172-0.412-0.311-0.624-0.404c-2.032-0.905-2.787-2.521-2.448-4.667
		c0.049-0.307,0.412-0.648,0.714-0.82c1.363-0.759,1.759-2.354,0.89-3.655c-1.375-2.061,2.444-3.484,3.852-3.856
		c0.196-0.053,0.396-0.077,0.6-0.089c0.334-0.021,0.885,0.004,1.236,0.04c1.102,0.114-0.849,1.771-1.134,2.028
		c-1.159,1.049-2.15,1.705-2.391,3.41c-0.233,1.657,0.359,3.346,1.318,4.717c0.587,0.837,2.174,2.991,3.235,3.194
		c0.787,0.155,2.264-0.555,1.179-1.525c-0.286-0.253-0.539-0.526-0.763-0.808c-0.383-0.481-0.571-1.2-0.689-1.493
		c-0.123-0.29-0.453-0.73-0.526-1.098c-0.029-0.139-0.041-0.282-0.037-0.404c0.004-0.225,0.91-0.587,1.379-1.354
		c0.681-1.118-0.58-2.24,0.783-3.276c1.408-1.073,4.521-0.437,4.929-2.962c0.029-0.146,2.081-0.963,2.367-1.102
		c1.717-0.836,3.929-1.016,5.059-2.599c2.179-3.052,5.467-4.447,9.07-5.092c5.414-0.968,10.641-2.098,15.859-3.905
		c0.73-0.253,1.436-0.791,1.958-1.375c1.098-1.231,2.073-2.574,3.084-3.88c0.559-0.722,1.081-1.473,1.644-2.194
		c0.069-0.086,0.171-0.147,0.306-0.221c0.184-0.098,0.967,0.334,1.758,0.975c0.474,0.384,0.951,0.768,1.432,1.155
		c0.22,0.18,0.433,0.392,0.689,0.506c0.845,0.379,1.016,1.04,0.441,1.795c-1.73,2.285-3.378,4.639-5.206,6.842
		c-0.392,0.478-0.8,0.938-1.224,1.388c-0.698,0.742-1.779,1.555-2.346,1.881c-2.084,1.195-3.39,2.587-3.762,5.035
		c-0.232,1.521-0.865,5.883-3.289,5.683c-2.313-0.188-4.626-0.42-6.916-0.804c-0.747-0.122-1.448-0.681-2.101-1.143
		c-1.11-0.783-2.22-0.938-3.48-0.371c-1.175,0.53-2.407,0.947-3.603,1.437c-0.188,0.077-0.383,0.265-0.461,0.448
		c-0.771,1.845-1.779,3.644-2.191,5.565c-0.355,1.652-0.085,3.46,0.045,5.19c0.069,0.934,0.326,1.885,0.677,2.754
		c0.894,2.211,2.436,4.015,3.978,5.789c0.232,0.266,0.542,0.469,0.869,0.648c0.526,0.294,1.02,0.478,1.097,0.412
		c0.078-0.065-0.196-0.583-0.6-1.167c-0.245-0.351-0.485-0.701-0.714-1.064c-0.894-1.42-1.767-2.856-1.815-4.606
		c-0.037-1.269-0.049-2.538-0.082-3.807c-0.037-1.399,0.404-2.644,1.318-3.68c0.176-0.2,0.775-0.225,1.069-0.086
		c0.693,0.326,1.269,0.759,2.125,0.824c1.795,0.139,1.971-1.167,3.272-1.714c1.526-0.641,3.819,0.494,5.002,1.452
		c0.31,0.253,0.616,0.551,0.722,0.935c0.241,0.882-0.869,1.289-1.51,1.51c-2.105,0.723-2.889,1.8-2.893,3.978
		c-0.004,1.131-0.314,2.261-0.486,3.395c-0.114,0.764-0.33,1.526-0.302,2.285c0.033,0.914,0.27,1.82,0.42,2.726
		c0.016,0.094,0.041,0.216,0.106,0.266c1.604,1.285,2.656,3.129,4.68,4.03c1.514,0.674,3.007,1.062,4.578,0.91
		c0.955-0.09,1.877-0.633,2.783-1.036c0.098-0.045,0.151-0.192,0.204-0.38c-0.082,0.286-3.256-0.11-3.668-0.225
		c-1.652-0.465-3.142-1.656-3.003-3.573c0.065-0.869,0.461-1.682,0.58-2.542c0.351-2.55-2.46-2.595-0.735-5.288
		c0.102-0.159,0.212-0.313,0.339-0.481c0.196-0.261,0.494,0.281,0.661,1.22c0.106,0.584,0.179,1.151,0.163,1.714
		c-0.037,1.188,0.657,1.645,1.501,2.016c0.979,0.433,2.007,0.759,3.015,1.126c0.653,0.241,1.436,0.229,2.191-0.004
		c1.175-0.363,1.632-1.143,1.334-1.114c-0.192,0.017-0.367,0.037-0.534,0.074c-1.134,0.24-3.228-0.294-3.333-1.682
		c-0.041-0.538,0.085-1.089-0.053-1.615c-0.273-1.032-2.411-1.049-0.771-2.265c0.571-0.424,1.346-0.106,1.877-0.465
		c0.738-0.506,1.183-1.689,1.583-2.465c1.04-2.031,1.819-4.194,2.301-6.426c0.278-1.281,0.461-2.599,0.963-3.814
		c1.669-4.063,5.716-6.435,9.458-8.267c3.864-1.889,9.188-5.985,10.677-10.257c1.245-3.57-0.163-7.503-2.256-10.444
		c-0.641-0.902-1.404-1.742-2.032-2.669c-1.04-1.534-0.824-3.239-0.334-3.415c0.302-0.109,0.608-0.195,0.918-0.195
		c3.676,0.012,7.589-2.64,10.947-3.945c4.019-1.562,8.103-2.954,12.236-4.174c8.486-2.506,17.14-3.741,25.757-5.483
		c0.995-0.2,2.015-0.298,3.031-0.343c0.192-0.009,0.542,0.416,0.583,0.677c0.114,0.723,0.09,1.465,0.143,2.199
		c0.237,3.338,1.008,6.573,1.84,9.805c0.734,2.859,1.069,5.459,2.089,8.254c1.191,3.264,2.322,6.552,3.235,9.906
		c1.795,6.572,2.783,13.476,1.616,20.249c-1.118,6.467-4.141,12.488-7.989,17.809c-4.353,6.022-10.118,10.837-14.721,16.479
		c-1.052,1.289-2.346,3.198-3.97,3.827c-1.791,0.693-4.308-0.054-6.242-0.074c-6.161-0.069-17.854,0.552-19.931,7.952
		c-0.567,2.02,2.252-0.114,2.583-0.269c1.399-0.661,3.117-0.649,4.533-0.045c0.881,0.375,1.734,2.427,2.203,2.484
		c0.359,0.045,2.627-1.787,3.375-1.991c0.298-0.081,0.702,0.208,1.052,0.339c0.49,0.18,0.975,0.526,1.465,0.526
		c7.719,0.032,15.439,0.032,23.154,0.008c0.489,0,0.975-0.249,1.464-0.367c0.857-0.212,1.709-0.465,2.579-0.607
		c1.028-0.168,2.22-1.24,2.208-2.293c-0.017-1.216-0.237-2.424-0.318-3.64c-0.021-0.294,0.118-0.624,0.261-0.897
		c0.22-0.429,0.718-0.82,0.73-1.24c0.057-1.734,1.342-2.575,2.399-3.595c0.098-0.094,0.2-0.184,0.298-0.266
		c0.167-0.139,1.003,0.184,1.876,0.719c0.531,0.33,1.053,0.656,1.563,1.004c0.563,0.383,1.159,0.591,1.812,0.689
		c1.069,0.163,1.852-0.135,1.729-0.384c-0.082-0.172-0.159-0.314-0.273-0.42c-0.343-0.335-0.763-0.596-1.134-0.902
		c-1.273-1.04-1.269-1.044-0.588-2.529c0.298-0.653-0.224-2.146-0.914-2.611c-0.628-0.429-0.845-2.138-0.245-2.607
		c1.64-1.289,3.321-2.525,5.002-3.762c2.538-1.868,5.328-3.423,7.217-6.083c0.367-0.514,1.069-0.779,1.579-1.208
		c0.653-0.551,1.31-1.105,1.885-1.733c0.58-0.629,1.24-1.277,1.538-2.044c0.604-1.563,0.943-3.224,1.477-4.814
		c0.722-2.154,0.379-4.354,0.347-6.532c-0.024-1.665-0.693-3.048-0.645-4.721c0.062-2.22,0.412-4.476,0.706-6.675
		c0.579-4.305,1.399-8.58,2.452-12.795c1.347-5.394,3.072-10.693,5.161-15.847c1.673-4.121,3.187-10.779,7.45-12.701
		c0.172-0.077,0.583,0.127,0.751,0.318c1.118,1.277,2.305,2.518,3.26,3.908c0.808,1.18,1.893,1.828,3.072,2.518
		c0.824,0.485,1.416,1.383,2.085,2.122c1.342,1.489,2.672,2.986,3.994,4.491c1.224,1.392,2.379,2.849,3.651,4.19
		c1.15,1.212,2.42,2.313,3.64,3.456c0.955,0.897,1.897,1.812,2.881,2.677c1.313,1.15,2.668,2.256,3.998,3.39
		c2.354,2.008,4.667,4.061,7.059,6.022c1.889,1.546,3.892,2.958,5.806,4.479c1.641,1.302,3.199,2.701,4.831,4.011
		c1.456,1.167,2.827,2.42,3.664,4.104c0.583,1.18,1.256,2.326,1.162,3.771c-0.102,1.607,0.6,2.88,1.841,4.002
		c1.379,1.245,2.537,2.733,3.766,4.142c0.864,0.991,1.823,1.942,2.492,3.056c1.225,2.036,2.473,4.072,2.979,6.476
		c0.237,1.126,0.828,2.178,1.24,3.271c0.392,1.032,0.755,2.073,1.146,3.101c0.71,1.869,1.433,3.729,2.154,5.594
		c0.045,0.118,0.184,0.208,0.2,0.327c0.33,2.187,0.519,4.406,1.021,6.552c0.306,1.302-0.229,1.722-1.225,2.085
		c-1.188,0.433-2.358,0.91-3.55,1.343c-0.66,0.24-1.33,0.493-2.02,0.607c-1.252,0.213-2.517,0.372-3.782,0.481
		c-2.509,0.217-5.022,0.372-7.531,0.575c-0.236,0.021-0.449,0.241-0.689,0.303c-1.457,0.367-2.901,0.804-4.378,1.044
		c-1.195,0.196-2.424-0.11-3.595,0.616c-0.767,0.478-1.783,0.588-2.701,0.783c-2.477,0.53-3.391,2.815-4.94,4.378
		c-0.123,0.122-0.159,0.33-0.18,0.559c-0.028,0.331,0.469,0.927,1.004,0.62c0.322-0.184,0.596-0.493,0.926-0.615
		c0.963-0.363,1.864-0.959,2.852-1.155c0.502-0.102,1.139,0.445,1.714,0.698s1.139,0.665,1.734,0.722
		c0.294,0.028,0.588,0.045,0.881,0.053c0.49,0.013,1.363-0.04,1.861,0.204c0.351,0.172,0.575,0.425,0.75,0.661
		c0.302,0.408,1.232-0.559,2.367-0.975c0.62-0.229,1.329-0.192,2.158,0.024c1.032,0.273,2.19,0.077,3.296,0.077
		c5.447,0,10.898-0.057,16.345,0.008c2.562,0.033,4.578-1.044,6.431-2.635c1.003-0.861,2.015-1.71,3.015-2.575
		c0.139-0.122,0.253-0.289,0.343-0.457c0.388-0.705,0.987-1.22,1.506-1.812c0.864-0.995,1.391-2.276,2.174-3.354
		c1.779-2.452,0.67-5.214,0.898-7.825c0.028-0.339-0.303-0.922-0.596-1.032c-0.727-0.27-0.931-0.861-1.306-1.412
		c-0.478-0.705-1.171-1.261-1.73-1.913c-0.562-0.657-1.113-1.322-1.664-1.991c-0.734-0.89-1.196-1.905-0.873-2.102
		c0.175-0.105,0.383-0.208,0.611-0.31c0.352-0.159,0.693-0.331,1.012-0.539c0.453-0.298,0.747-0.828,1.143-1.224
		c0.429-0.433,0.906-0.816,1.343-1.24c0.995-0.963,1.432-2.236,1.767-3.513c0.065-0.249-0.009-0.535-0.114-0.865
		c-0.147-0.465-0.408-0.702-0.6-0.534c-0.144,0.122-0.245,0.216-0.327,0.326c-0.652,0.89-1.403,1.632-2.562,1.787
		c-0.311,0.041-0.649,0.073-0.947,0c-1.171-0.29-2.317-0.698-3.32,0.461c-0.078,0.09-0.184,0.155-0.311,0.208
		c-0.191,0.082-0.901-0.049-1.22-0.648c-0.163-0.314-0.318-0.706-0.433-1.143c-0.191-0.727-0.367-1.44-0.494-2.167
		c-0.396-2.272-0.542-4.594-1.027-6.846c-0.273-1.265-1.021-2.428-1.555-3.636c-0.078-0.175-0.176-0.343-0.232-0.526
		c-0.535-1.713-0.931-3.483-1.624-5.128c-2.098-4.966-5.043-6.993-8.152-10.853c-3.757-4.651-5.52-11.657-7.743-17.173
		c-4.867-12.069-9.498-24.235-13.893-36.483c-1.767-4.921,5.026-15.284,6.345-16.349c1.774-1.428,3.68-2.574,5.862-3.293
		c0.91-0.298,1.722-0.894,2.607-1.285c1.334-0.592,2.681-1.167,4.052-1.669c2.546-0.934,5.104-1.831,7.674-2.7
		c1.701-0.575,3.424-1.106,5.153-1.596c1.922-0.543,3.852-1.048,5.794-1.51c1.023-0.245,2.08-0.351,3.121-0.526
		c1.982-0.335,3.957-0.751,5.952-0.992c3.656-0.445,7.328-0.73,10.979-1.191c10.44-1.313,20.918-0.951,31.388-0.669
		c3.949,0.106,7.891,0.604,11.832,0.975c2.872,0.269,5.744,0.542,8.597,0.967c2.166,0.318,4.3,0.881,6.45,1.318
		c1.102,0.225,2.216,0.388,3.317,0.612c2.904,0.592,5.81,1.207,8.715,1.791c1.228,0.249,2.468,0.416,3.696,0.673
		c2.057,0.429,4.101,0.906,6.156,1.343c1.098,0.232,2.212,0.396,3.305,0.637c2.628,0.566,5.243,1.183,7.875,1.737
		c1.261,0.266,2.542,0.474,3.818,0.637c2.077,0.27,4.194,0.339,6.243,0.742c3.672,0.727,7.409,0.612,11.089,1.032
		c8.715,0.996,17.446,0.91,26.182,0.882c3.007-0.008,6.018-0.086,9.017-0.266c4.215-0.253,8.426-0.587,12.632-0.971
		c2.905-0.266,5.802-0.624,8.687-1.032c2.815-0.399,5.614-0.935,8.425-1.375c2.22-0.351,4.447-0.682,6.675-0.975
		c2.828-0.372,5.655-0.727,8.491-1.032c2.211-0.241,4.435-0.4,6.654-0.596c3.271-0.29,6.544-0.58,9.816-0.869
		c0.135-0.013,0.265-0.024,0.399-0.033c3.228-0.163,6.476-0.15,9.678-0.526c2.901-0.339,15.08,1.232,14.672-2.105
		C582.386,236.071,581.799,235.21,580.534,234.097z"/>
</g>
<g>
</g>
<g>
</g>
<g>
</g>
<g>
</g>
<g>
</g>
<g>
</g>
<g>
</g>
<g>
</g>
<g>
</g>
<g>
</g>
<g>
</g>
<g>
</g>
<g>
</g>
<g>
</g>
<g>
</g>
</svg>
