<?xml version="1.0" encoding="iso-8859-1"?>
<!-- Generator: Adobe Illustrator 16.0.0, SVG Export Plug-In . SVG Version: 6.00 Build 0)  -->
<!DOCTYPE svg PUBLIC "-//W3C//DTD SVG 1.1//EN" "http://www.w3.org/Graphics/SVG/1.1/DTD/svg11.dtd">
<svg version="1.1" id="Capa_1" xmlns="http://www.w3.org/2000/svg" xmlns:xlink="http://www.w3.org/1999/xlink" x="0px" y="0px"
	 width="568.113px" height="568.113px" viewBox="0 0 568.113 568.113" style="enable-background:new 0 0 568.113 568.113;"
	 xml:space="preserve">
<g>
	<g id="ySzr04.tif">
		<g>
			<path d="M65.067,236.629c16.564,5.32,33.468,9.878,50.975,10.849c9.246,0.515,18.584,0.421,27.822-0.229
				c6.475-0.452,12.876-3.357,19.27-3.235c6.63,0.131,12.477-1.787,18.589-3.35c2.125-0.542,4.447-0.363,6.536-0.987
				c3.207-0.959,6.206-2.696,9.441-3.46c8.495-2.003,17.169-3.301,25.586-5.569c6.883-1.856,13.391-5.108,20.265-7.013
				c6.593-1.828,13.48-2.586,20.176-4.088c3.076-0.69,5.989-2.089,9.008-3.064c3.733-1.208,7.455-3.019,11.269-3.272
				c4.798-0.318,9.584-1.75,14.513-0.71c0.433,0.09,0.987-0.396,1.562-0.987c0.734-0.755,2.926-0.351,5.133,0.094
				c2.366,0.478,4.921,0.343,7.046-0.355c2.143-0.702,4.794-0.71,6.952-0.061c1.363,0.408,2.799,0.473,4.146,0.184
				c2.203-0.473,4.925-0.457,7.083,0.192c0.906,0.273,1.701,0.224,2.493-0.151c2.031-0.971,3.981-1.093,6.01-0.11
				c1.53,0.743,3.316,0.738,5.81-0.249c1.367-0.542,3.439,1.155,5.537,1.318c2.248,0.171,4.468-0.29,6.226,1.118
				c1.428,1.146,2.644,1.448,3.835,0.938c2.073-0.889,3.836-1.815,4.962-0.62c1.126,1.191,2.297,2.02,2.606,1.844
				c0.311-0.175,0.563-1.538,0.563-3.043c0-1.506,1.358-1.501,3.031,0.004c1.257,1.134,2.521,2.272,3.791,3.411
				c1.672,1.509,3.309,2.48,3.647,2.174c0.343-0.306,0.722-2.158,0.853-4.133c0.13-1.975,1.261-2.073,2.525-0.212
				c0.791,1.167,1.542,2.269,2.272,3.342c1.269,1.864,2.652,3.239,3.097,3.076s1.094-2.097,1.448-4.325
				c0.024-0.159,0.054-0.322,0.078-0.481c0.354-2.224,1.562-2.452,2.696-0.502c0.967,1.661,1.918,3.292,2.901,4.978
				c1.134,1.946,2.627,2.493,3.333,1.22s2.072-0.877,3.048,0.881c0.652,1.184,1.317,2.195,2.244,2.828
				c0.562,0.388,1.591,0.094,2.758-0.331c1.485-0.539,2.742,1.359,4.721,2.436c2.615,1.424,7.025-0.343,9.963,1.342
				c4.138,2.374,10.14,1.477,15.321,2.057c2.721,0.302,5.463,1.126,8.147,0.963c6.679-0.404,13.333-1.212,19.996-1.902
				c9.033-0.934,18.074-1.828,27.095-2.88c14.016-1.636,27.961-3.452,42.171-1.869c13.856,1.542,23.868,8.817,31.824,19.572
				c0.241,0.326,0.453,0.645,0.641,0.955c0.326,0.542,0.616,1.072,0.718,1.146c0.062,0.045,0.119,0.09,0.172,0.139
				c0.126,0.118,0.249,0.24,0.375,0.358c1.036,1,1.004,2.734,0,3.733c-0.204,0.204-0.433,0.363-0.677,0.485
				c-0.412,0.204-0.931,0.302-1.11,0.352c-0.18,0.049-0.677,0.306-1.138,0.542c-0.462,0.232-0.857,0.571-0.857,0.808
				c0,0.237,0.151,0.571,0.335,0.743c0.11,0.105,0.225,0.208,0.334,0.314c1.053,0.982,0.992,2.741,0,3.732
				c-1.044,1.045-2.685,0.979-3.732,0c-0.192-0.175-0.38-0.354-0.571-0.53c-0.314-0.294-2.073-1.57-4.035-2.676
				c-9.376-5.28-19.792-6.981-30.11-5.003c-30.009,5.753-59.699,12.828-90.629,12.171c-9.482-0.2-19.042,2.542-28.527,4.162
				c-2.844,0.485-5.5,1.848-5.063,5.573c1.212,10.31-4.831,16.374-12.607,21.269c-4.374,2.754-6.345,13.15-2.758,16.744
				c5.834,5.847,11.583,11.812,17.801,17.23c4.762,4.149,6.206,9.306,7.214,15.014c0.392,2.22-1.139,3.722-3.354,3.301
				c-2.48-0.469-4.745-0.885-7.018-0.938c-3.337-0.073-4.056-1.619-4.406-4.487c-0.261-2.118-0.812-5.019-2.289-6.03
				c-5.977-4.101-12.203-7.83-18.396-11.612c-1.922-1.175-3.799-1.848-4.202-1.497c-0.404,0.351-0.478,2.444-0.172,4.676
				c1.212,8.768,2.432,17.585,3.705,26.806c0.31,2.231-1.269,4.157-3.517,4.296c-1.897,0.118-3.864,0.232-5.831,0.314
				c-2.889,0.118-3.541-1.412-4.006-4.198c-1.281-7.715-3.231-15.316-4.831-22.982c-1.236-5.937-2.452-11.881-3.447-17.862
				c-0.253-1.53-0.359-3.089-0.429-4.647c-0.098-2.252-2.008-4.08-4.26-4.08h-22.072c-2.253,0-4.264,1.82-4.55,4.056
				c-1.334,10.543-3.341,21.024-0.388,31.493c0.526,1.861,1.555,3.578,2.828,5.402c1.293,1.849,3.524,4.427,2.859,5.667
				c-0.326,0.608-1.098,0.987-2.219,0.991c-4.488,0.009-8.69,0.021-12.889-0.016c-3.787-0.033-5.488-1.742-5.762-5.802
				c-0.469-6.997-1.358-13.966-2.17-20.938c-0.262-2.24-0.845-4.109-1.318-4.179c-0.473-0.069-1.362,1.633-2.081,3.771
				c-1.554,4.643-3.301,9.273-3.533,13.982c-0.253,5.141,1.057,10.375,5.219,14.463c1.607,1.579,1.452,3.085-0.686,3.803
				c-2.102,0.71-3.884,1.302-5.716,1.689c-10.849,2.297-16.483-3.023-15.104-13.926c0.485-3.826,0.653-7.707,0.775-11.57
				c0.338-10.465,0.693-20.935,0.702-31.399c0-1.273-1.832-3.008-3.227-3.754c-9.511-5.08-19.074-10.069-28.736-14.852
				c-5.442-2.692-10.918-5.646-16.724-7.217c-8.083-2.191-16.43-3.697-24.762-4.603c-15.863-1.722-31.783-3.807-47.695-3.913
				c-20.449-0.135-40.171-4.582-59.8-8.833c-15.206-3.293-29.69-9.955-44.464-15.202c-4.729-1.677-9.47-3.382-14.019-5.479
				c-11.75-5.41-23.37-11.11-35.112-16.54c-1.412-0.653-2.905-1.122-4.419-1.555c-2.166-0.616-3.823-1.521-3.692-2.011
				c0.126-0.49,2.016-0.494,4.227-0.065c4.615,0.897,9.262,1.697,13.652,3.24C33.704,224.855,49.135,231.509,65.067,236.629z"/>
		</g>
	</g>
	<path d="M562.023,250.604c0.032,0.036,0.053,0.073,0.073,0.109c0.033,0.062,0.8,0.551,1.714,1.086
		c0.551,0.326,1.105,0.648,1.656,0.975c0.073,0.045,0.139,0.094,0.196,0.147c0.098,0.094,0.236,0.269,0.302,0.383
		c0.041,0.069,0.069,0.144,0.086,0.229l0.526,2.819c0.105,0.567-0.147,1.139-0.739,1.298c-0.518,0.143-1.195-0.172-1.297-0.738
		c-0.078-0.416-0.155-0.837-0.232-1.253c-0.131-0.693-0.951-1.677-1.841-2.199c-0.534-0.314-1.068-0.628-1.604-0.942
		c-0.109-0.065-0.195-0.139-0.261-0.225c-0.122-0.146-0.543-0.71-1.004-1.216c-0.277-0.306-0.555-0.607-0.832-0.914
		c-0.914-1.003,0.575-2.501,1.493-1.493C560.849,249.314,561.436,249.959,562.023,250.604z"/>
</g>
<g>
</g>
<g>
</g>
<g>
</g>
<g>
</g>
<g>
</g>
<g>
</g>
<g>
</g>
<g>
</g>
<g>
</g>
<g>
</g>
<g>
</g>
<g>
</g>
<g>
</g>
<g>
</g>
<g>
</g>
</svg>
