<?xml version="1.0" encoding="iso-8859-1"?>
<!-- Generator: Adobe Illustrator 16.0.0, SVG Export Plug-In . SVG Version: 6.00 Build 0)  -->
<!DOCTYPE svg PUBLIC "-//W3C//DTD SVG 1.1//EN" "http://www.w3.org/Graphics/SVG/1.1/DTD/svg11.dtd">
<svg version="1.1" id="Capa_1" xmlns="http://www.w3.org/2000/svg" xmlns:xlink="http://www.w3.org/1999/xlink" x="0px" y="0px"
	 width="587.44px" height="587.44px" viewBox="0 0 587.44 587.44" style="enable-background:new 0 0 587.44 587.44;"
	 xml:space="preserve">
<g>
	<path d="M587.37,199.516c-0.804-3.366-3.072-6.385-4.753-9.535c-0.114-0.216-0.412-0.347-0.648-0.478
		c-12.982-7.144-25.112-15.94-39.282-20.763c-4.517-1.538-9.314-2.521-14.06-3.007c-2.604-0.265-5.357,1.077-8.059,1.628
		c-1.244,0.253-2.501,0.445-3.803,0.42c-0.897-0.016-1.979,0.506-2.664,1.089c-2.582,2.195-5.618-0.877-6.92-1.758
		c-2.741-1.856-5.585-1.681-8.204-1.897c-3.179-0.266-6.622,0.579-9.694,1.66c-3.778,1.334-7.169,3.799-10.967,5.039
		c-2.726,0.89-5.284,3.358-6.006,4.623c-2.261,3.941-6.401,5.161-9.136,8.205c-2.953,3.292-6.368,6.295-10.004,8.817
		c-3.794,2.631-7.878,5.496-12.24,6.475c-3.921,0.877-8.519-0.159-12.582-1.236c-13.117-3.484-26.467-4.814-39.936-4.463
		c-6.903,0.18-13.758,1.795-20.665,2.424c-10.608,0.958-21.236,1.746-31.869,2.342c-3.202,0.179-6.454-0.555-9.686-0.8
		c-11.673-0.889-22.701,2.607-33.851,5.116c-12.159,2.738-24.264,5.741-36.374,8.703c-14.382,3.517-28.744,7.107-43.109,10.682
		c-12.485,3.105-25.039,5.965-37.426,9.425c-15.047,4.202-29.972,8.866-44.917,13.439c-11.963,3.66-24.133,6.838-35.749,11.399
		c-16.026,6.288-31.955,13.023-47.299,20.804c-11.726,5.945-22.636,13.574-33.595,20.926c-4.076,2.733-7.638,6.491-10.759,10.33
		c-5.846,7.177-3.194,15.361,5.708,17.684c7.703,2.007,15.565,3.41,23.387,4.912c0.506,0.098,1.065-0.11,1.64-0.38
		c0.812-0.384,1.155-1.338,0.779-2.154c-0.286-0.624-0.6-1.175-1.061-1.354c-5.345-2.068-10.804-3.839-16.197-5.781
		c-1.975-0.71-4.056-1.362-5.757-2.525c-2.538-1.734-0.653-3.525,0.75-4.554c6.316-4.614,12.265-10.249,19.315-13.223
		c11.644-4.912,23.868-8.727,36.148-11.816c29.099-7.314,58.895-10.269,88.716-12.978c26.544-2.407,53.077-2.139,79.617-0.393
		c14.773,0.972,29.253,3.57,43.138,8.924c1.118,0.432,2.595,0.897,3.097,1.799c4.729,8.469,13.235,11.933,21.122,16.221
		c4.533,2.465,6.002,6.035,4.558,11.077c-0.669,2.334-1.493,4.721-1.583,7.107c-0.339,8.96-4.631,16.279-9.27,23.489
		c-0.433,0.673-0.886,1.514-1.543,1.832c-6.242,3.022-5.564,8.951-6.115,14.349c-0.42,4.129-0.163,8.516-1.293,12.33
		c-5.496,18.58,1.42,41.318,4.361,47.038c0.412,0.8,1.281,0.689,1.816-0.032c2.696-3.656,5.83-4.039,10.624-1.379
		c1.351,0.75,3.02,0.946,4.562,1.325c2.109,0.522,4.227,1,6.761,1.588c0.877,0.204,1.366-0.327,1.097-1.184
		c-0.566-1.795-1.154-3.66-1.778-5.635c-0.27-0.856,0.22-1.709,1.098-1.905c1.521-0.339,3.138-0.701,4.761-1.061
		c0.878-0.196,1.221-0.983,0.768-1.759c-3.012-5.152-3.432-6.152-1.656-6.69c0.86-0.262,1.652-0.612,1.733-0.935
		c0.082-0.322-0.571-0.73-1.444-0.942c-1.579-0.384-3.162-0.809-4.736-0.796c-6.843,0.057-6.74,0.127-9.144-6.287
		c-4.223-11.265-2.864-21.15,3.443-31.922c5.341-9.119,13.509-14.174,20.698-20.715c8.522-7.756,14.949-17.05,21.049-26.658
		c0.24-0.38,0.481-0.759,0.718-1.122c0.396-0.62,1.44-1.012,2.329-0.881c4.362,0.652,8.581,1.28,12.351,1.848
		c0.89,0.135,1.689,0.967,1.783,1.86c1.016,9.499,1.982,19.091,3.117,28.658c0.645,5.422-0.078,10.457-2.848,15.23
		c-2.285,3.934-1.579,7.626,1.044,11.298c2.183,3.056,4.129,6.345,5.725,9.743c0.734,1.559,0.135,3.708,0.424,5.455
		c0.539,3.256-3.256,8.429-3.447,12.056c-0.045,0.898,0.791,1.266,1.506,0.854c0.714-0.412,1.705-1.351,2.215-2.09
		c0.922-1.33,1.759-2.541,2.685-3.876c0.51-0.738,1.155-0.645,1.44,0.209c0.408,1.231,0.775,2.342,1.15,3.464
		c0.281,0.853,0.6,2.272,0.91,3.116c1.954,5.365,9.543,9.042,12.811,10.408c0.829,0.348,2.244,0.616,3.142,0.67
		c2.579,0.15,5.37,0.367,7.087-0.824c3.877-2.685,8.381-0.466,12.171-2.763c0.869-0.526,2.326-0.081,3.737,0.311
		c0.865,0.24,1.6-0.363,1.412-1.24c-0.931-4.427-5.496-10.245-9.438-10.674c-6.842-0.738-11.322-4.618-14.92-9.942
		c-2.787-4.129-5.757-8.185-8.05-12.583c-4.484-8.604-3.559-17.315,0.938-25.622c5.018-9.274,10.66-18.218,15.446-27.605
		c3.656-7.165,6.112-14.79,4.202-22.991c-0.204-0.877,0.249-1.864,1.073-2.228c5.279-2.317,10.445-4.582,15.663-6.871
		c0.824-0.362,1.645,0.062,1.84,0.935c1.723,7.625,2.673,7.952,11.42,7.715c3.102-0.086,6.238-0.809,9.282-0.498
		c1.787,0.18,3.93,1.436,5.035,2.881c2.387,3.108,4.532,6.332,8.303,7.854c0.832,0.335,1.175-0.127,0.718-0.897
		c-1.387-2.334-2.717-4.574-4.101-6.903c-0.461-0.771-0.105-1.302,0.759-1.061c5.019,1.379,10.209,5.65,11.286,8.968
		c0.277,0.856,0.407,1.718,0.697,1.856s0.82-0.417,1.184-1.236c0.261-0.592,0.481-1.184,0.506-1.783
		c0.049-1.135-1.021-2.424-0.764-3.423c0.992-3.827,0.225-6.888-2.321-9.711c-0.6-0.668-0.469-0.893,0.371-0.579
		c3.688,1.362,7.426,2.615,10.931,4.344c1.383,0.686,3.174,3.534,2.758,4.288c-0.89,1.624-2.517,2.844-4.316,4.374
		c-0.686,0.584-0.498,0.991,0.396,0.882c1.396-0.168,2.819-0.339,4.252-0.511c0.894-0.105,1.733,0.526,1.848,1.416
		c0.58,4.582-0.045,6.169-3.284,7.038c-0.869,0.232-0.979,0.657-0.249,1.094c0.637,0.379,1.118,0.656,1.403,0.518
		c2.759-1.354,5.941-2.456,7.916-4.614c2.113-2.31,2.174-5.569,0.204-8.649c-2.354-3.681-4.179-7.699-6.545-11.371
		c-0.706-1.09-2.424-1.6-3.762-2.187c-8.185-3.615-11.632-11.44-10.845-18.728c0.897-8.311,1.865-17.622,8.479-24.386
		c5.854-5.981,13.436-8.16,21.375-8.988c3.231-0.338,6.602,0.926,9.927,1.061c2.632,0.106,5.536,0.212,7.895-0.743
		c10.359-4.198,20.584-3.868,31.069-0.494c5.459,1.754,11.126,3.125,16.802,3.852c4.732,0.608,7.548-1.869,9.094-6.332
		c0.645-1.869-1.072-5.198-3.076-6.83c1.457-5.108-3.447-9.506-2.664-6.247c0.449,1.86-0.294,3.644-1.175,4.998
		c-0.086-0.016-0.184-0.033-0.273-0.049c1.077-3.562-1.102-5.725-0.963-4.243c0.094,1.052-1.126,2.162-2.293,2.982
		c0.498-3.007-1.244-4.725-1.118-3.375c0.094,1.028-1.073,2.118-2.215,2.93c0.269-2.733-1.314-4.215-1.195-2.93
		c0.077,0.849-0.719,1.738-1.637,2.481c-0.298-0.086-0.6-0.175-0.901-0.265c1.216-3.676-1.012-5.961-0.873-4.452
		c0.105,1.184-1.457,2.448-2.726,3.276c-0.082-0.028-0.163-0.057-0.245-0.085c2.008-4.227-0.592-7.062-0.44-5.427
		c0.122,1.314-1.804,2.722-3.117,3.525c2.321-4.419-0.449-7.442-0.294-5.761c0.135,1.485-2.366,3.113-3.614,3.827
		c1.146-3.623-1.053-5.851-0.918-4.353c0.085,0.942-0.894,1.934-1.935,2.717c-0.09-0.077-0.195-0.151-0.285-0.232
		c-1.975-1.815-4.183-3.468-6.508-4.794c-4.251-2.419-4.831-3.786-1.562-6.716c0.669-0.6,1.465-0.351,1.738,0.502l0.012,0.041
		c0.273,0.856,0.873,1.109,1.343,0.563c0.469-0.547,1.179-0.339,1.583,0.465c0.036,0.069,0.073,0.143,0.109,0.212
		c0.404,0.804,1.049,0.795,1.44-0.017c0.188-0.392,0.38-0.792,0.592-1.232c0.388-0.812,0.935-0.779,1.224,0.073
		c0.062,0.188,0.123,0.363,0.18,0.539c0.286,0.853,0.8,0.963,1.143,0.253c0.176-0.363,0.519-0.657,0.931-0.844
		c0.457,1.249,0.755,2.656,0.154,3.415c-0.934,1.175,2.13,0.518,3.15-3.142c0.652,1.281,1.856,4.01,0.93,5.182
		c-0.856,1.077,1.624,0.571,2.836-2.33c0.478,0.041,0.95,0.045,1.432,0.074c0.2,0.881,0.233,1.73-0.184,2.256
		c-0.836,1.052,1.506,0.591,2.746-2.122c0.519,0.012,1.045,0.082,1.559,0.082c0.155,0.804,0.155,1.559-0.225,2.04
		c-0.836,1.057,1.526,0.587,2.763-2.159c0.502-0.02,1.004-0.065,1.506-0.098c0.199,0.881,0.232,1.726-0.184,2.252
		c-0.865,1.089,1.681,0.563,2.876-2.423c0.444-0.045,0.894-0.045,1.334-0.102c0.262,0.983,0.326,1.946-0.131,2.53
		c-0.93,1.171,2.105,0.53,3.143-3.084c0.281-0.049,0.559-0.102,0.84-0.155c0.42,1.204,0.669,2.518,0.098,3.24
		c-0.987,1.244,2.465,0.392,3.272-3.864c0.024-0.008,0.049-0.017,0.077-0.021c0.144,1.771-0.028,4.207-1.713,5.798
		c-2.889,2.721,6.801,0.849,5.948-6.969c-0.004-0.049-0.012-0.086-0.021-0.135c0.987-0.318,1.987-0.551,2.967-0.918
		c0.84-0.314,1.791-1.265,2.207-2.061C586.681,202.776,587.722,200.98,587.37,199.516z M465.293,290.92
		c-5.814-1.266-11.665-2.538-18.315-3.986c-0.877-0.192-0.93-0.653-0.114-1.028c4.745-2.199,8.972-4.153,13.391-6.202
		c0.816-0.379,1.759-0.012,2.109,0.816c1.399,3.321,2.677,6.36,3.893,9.245C466.599,290.593,466.17,291.112,465.293,290.92z"/>
</g>
<g>
</g>
<g>
</g>
<g>
</g>
<g>
</g>
<g>
</g>
<g>
</g>
<g>
</g>
<g>
</g>
<g>
</g>
<g>
</g>
<g>
</g>
<g>
</g>
<g>
</g>
<g>
</g>
<g>
</g>
</svg>
