<?xml version="1.0" encoding="iso-8859-1"?>
<!-- Generator: Adobe Illustrator 16.0.0, SVG Export Plug-In . SVG Version: 6.00 Build 0)  -->
<!DOCTYPE svg PUBLIC "-//W3C//DTD SVG 1.1//EN" "http://www.w3.org/Graphics/SVG/1.1/DTD/svg11.dtd">
<svg version="1.1" id="Capa_1" xmlns="http://www.w3.org/2000/svg" xmlns:xlink="http://www.w3.org/1999/xlink" x="0px" y="0px"
	 width="588.642px" height="588.641px" viewBox="0 0 588.642 588.641" style="enable-background:new 0 0 588.642 588.641;"
	 xml:space="preserve">
<g>
	<path d="M340.043,358.495c0,0,3.954-0.245,5.483,0.905c1.53,1.151,0-4.333-6.887-4.206
		C331.753,355.32,340.043,358.495,340.043,358.495z"/>
	<path d="M340.043,356.312c0,0,3.954-0.245,5.483,0.905c1.53,1.15,0-4.333-6.887-4.206
		C331.753,353.137,340.043,356.312,340.043,356.312z"/>
	<path d="M372.426,356.312c0,0,3.954-0.245,5.484,0.905c1.529,1.15,0-4.333-6.888-4.206
		C364.136,353.137,372.426,356.312,372.426,356.312z"/>
	<path d="M372.426,354.129c0,0,3.954-0.245,5.484,0.905c1.529,1.15,0-4.333-6.888-4.206
		C364.136,350.955,372.426,354.129,372.426,354.129z"/>
	<path d="M414.609,358.495c0,0,5.639-0.245,7.821,0.905c2.183,1.146,0-4.333-9.82-4.206
		C402.79,355.32,414.609,358.495,414.609,358.495z"/>
	<path d="M414.609,356.312c0,0,5.639-0.245,7.821,0.905c2.183,1.146,0-4.333-9.82-4.206
		C402.79,353.137,414.609,356.312,414.609,356.312z"/>
	<path d="M390.672,352.109c0,0,3.334,3.012,3.741,5.052c0.408,2.04,3.076-3.057-2.517-8.507
		C386.298,343.199,390.672,352.109,390.672,352.109z"/>
	<path d="M392.223,350.571c0,0,3.333,3.012,3.741,5.052s3.076-3.057-2.518-8.507C387.853,341.665,392.223,350.571,392.223,350.571z"
		/>
	<path d="M580.719,270.803c0,0,1.354,0.094,1.877-0.351c0.521-0.449,0,1.688-2.358,1.64
		C577.883,272.043,580.719,270.803,580.719,270.803z"/>
	<g>
		<path d="M542.64,242.671c-0.008,0.024-0.012,0.041-0.021,0.065c0.021,0,0.037,0,0.058,0
			C542.664,242.712,542.652,242.691,542.64,242.671z"/>
		<path d="M584.729,259.187c-0.746-1.619-1.493-3.239-2.239-4.859c-0.033-0.069-0.11-0.171-0.163-0.171
			c-2.979,0.049-3.999-2.958-6.292-4.027c-2.419-1.134-4.646-2.685-7.074-3.794c-1.693-0.775-3.578-1.13-5.386-1.656
			c0.053,0.102,0.114,0.204,0.167,0.302c-0.105-0.033-0.216-0.065-0.326-0.094c0.032-0.078,0.062-0.155,0.069-0.229
			c-2.852-0.674-5.699-1.905-8.552-1.914c-4.08-0.012-8.168-0.032-12.252,0c0.057,0.106,0.114,0.204,0.171,0.307
			c-0.105,0-0.212,0-0.318,0c0.029-0.103,0.058-0.2,0.09-0.307c-6.014,0.045-12.023,0.204-18.001,0.682
			c-18.604,1.477-37.029,5.23-55.761,5.01c-10.657-0.126-21.412-0.579-31.922-2.187c-9.359-1.432-18.58-3.852-27.789-6.226
			c-4.985-1.64-10.045-3.048-15.153-4.223c-3.329-1.032-6.654-2.064-10.032-2.909c-1.661-0.416-3.33-0.82-5.002-1.199
			c-1.796-0.988-3.864-1.612-6.043-1.84c-19.103-1.979-38.715-0.106-57.169,5.235c-2.632,0.33-5.259,0.697-7.862,1.191
			c-1.44,0.273-2.872,0.592-4.3,0.935c-0.959,0.171-1.901,0.412-2.823,0.714c-1.742,0.457-3.48,0.935-5.219,1.412
			c-14.88,3.534-29.511,8.042-43.795,13.53c-10.975,3.5-21.971,6.939-33.052,10.057c-1.885,0.53-3.794,0.979-5.716,1.375
			c-10.073,2.061-20.677,2.456-30.938,3.468c-8.54,0.8-17.075,1.682-25.61,2.521c-8.47,0.833-16.952,0.71-25.483,0.923
			c-18.258,0.456-36.516,0.905-54.778,1.24c-11.338,0.208-22.701-0.322-34.027,0.139c-10.485,0.428-21.032,1.306-30.686,6.156
			c-3.146,1.579-6.222,3.305-9.257,5.088c-0.747,0.425-1.208,1.339-2.203,2.514c1.003-0.359,1.469-0.437,1.836-0.669
			c10.714-6.834,22.607-9.649,35.112-10.8c10.869-1,21.652-0.367,32.469,0.485c4.223,0.334,8.462,0.478,12.697,0.604
			c27.81,0.812,55.631,2.109,83.375,3.252c6.193,0.257,12.403-0.008,18.609,0.021c8.527,0.041,17.054,0.232,25.577,0.273
			c8.287,0.036,15.986,0.322,24.28-0.616c7.507-0.849,15.166-1.354,22.722-1.551c3.39-0.086,6.769,0.388,10.159,0.637
			c3.647,0.27,7.85-0.114,11.408,0.657c7.65,1.66,14.59,4.899,21.204,9.098c1.444,0.918,2.995,1.686,4.558,2.396
			c0.358,3.863,2.525,7.556,6.006,9.592c2.565,1.502,5.442,1.934,8.159,1.465c2.615,0.579,5.227,1.167,7.826,1.812
			c0.632,0.159,1.354,1.073,1.534,1.767c0.963,3.709,1.48,7.405,1.032,11.338c-0.665,5.807-0.204,11.771-1.188,17.504
			c-0.743,4.333-3.175,8.348-4.529,12.607c-1.224,3.851-2.011,7.841-3.121,12.28h23.737c-0.767-1.595-1.484-3.093-2.203-4.578
			c0.021-0.392-0.146-0.783-0.596-1.036c-2.011-1.138-4.022-2.276-6.034-3.415c0.886-2.072,1.289-4.414,1.244-6.552
			c-0.012-0.494-0.032-0.987-0.057-1.485c0.722-3.239,1.849-6.426,4.097-9.331c1.583-2.04,6.874-17.964,7.809-21.403
			c1.587,0.396,3.183,0.746,4.79,1.04c0.253,0.648,0.38,1.587,0.607,3.007c1.444,8.927,0.376,17.716-0.844,26.545
			c-0.433,3.133-0.335,6.356-0.27,9.534c0.062,3.081,1.334,4.554,4.406,4.827c2.231,0.195,4.541-0.028,6.769-0.367
			c1.229-0.188,5.937-0.127,6.598,1.04c0.416,0.734,3.709,0.47,4.022-0.281c1.881-4.479-3.921-8.222-8.474-10.245
			c-0.71-0.314-1.493-1.477-1.478-2.231c0.078-3.492,0.05-7.059,0.775-10.445c0.812-3.794,2.75-7.352,3.546-11.146
			c0.987-4.745,3.521-5.883,8.099-5.667c2.477,0.118,4.978-0.31,7.536-0.791c1.628,4.067,3.239,8.151,4.581,12.301
			c0.029,0.094,0.062,0.188,0.09,0.286c0.232,2.872,0.106,5.789,0.294,8.665c0.176,2.729-0.542,4.696-3.121,5.998
			c-0.914,0.461-1.591,1.591-2.089,2.562c-0.139,0.273,0.751,1.068,1.167,1.624c2.599,2.264,5.193,4.528,7.793,6.797
			c0.302-0.094,0.6-0.188,0.901-0.281c0.122-3.554,1.188-6.594,3.187-9.115c0.139-0.098,0.277-0.2,0.424-0.294
			c0.384-0.24,0.657-0.538,0.845-0.86c1.53-0.515,1.922-2.448,1.176-3.688c0.109-2.99,0.13-5.981,0.045-8.964
			c0.358-2.28,0.767-4.558,0.808-6.846c0.073-4.468,0.139-4.464,4.259-7.324c-0.514,2.901-0.95,5.39-1.407,7.973
			c1.008-0.281,2.926,15.883,3.346,20.563c-0.086,0.269-0.146,0.551-0.18,0.832c-0.081,0.706,0.094,1.407,0.433,2.027
			c0.118,1.167,0.257,2.334,0.281,3.591c-0.575,0.804-0.42,1.873,0.131,2.644c-0.069,3.835,2.33,5.712,5.867,4.178
			c0.506-0.22,0.727-1.085,1.081-1.656c0.163,0.519,0.33,1.032,0.506,1.587h5.394c-0.705-1.701-1.346-3.031-1.815-4.418
			c-0.641-1.89-1.232-3.803-1.685-5.741c-0.213-0.913-0.298-1.856-0.38-2.803c0-0.18-0.013-0.358-0.049-0.551
			c-0.021-0.245-0.041-0.489-0.065-0.73c-0.167-1.619-0.433-3.239-0.437-4.863c-0.008-4.79-0.077-9.592,0.229-14.365
			c0.131-2.061,1.159-4.056,1.722-6.096c1.461-5.316,3.855-10.082,7.177-14.562c3.101-4.182,5.357-9.005,5.948-14.301
			c0.258-2.293,1.429-3.496,3.383-3.88c3.501-0.689,7.042-1.428,10.592-1.579c9.779-0.412,19.633-0.285,29.155-2.819
			c10.074-2.676,20.069-5.691,30.013-8.825c15.884-5.006,31.963-9.151,48.413-11.774c2.57-0.412,5.19-0.551,7.793-0.714
			c7.821-0.49,11.767,1.143,14.668,6.667c0.139,2.37,0.697,4.725,2.407,6.353c2.068,1.971,4.761,2.835,7.413,1.521
			c0.856-0.425,0.702-1.33,0.159-1.849c0.62-0.562,0.697-1.236,0.379-0.967c-0.313,0.27-0.905,0.335-1.346,0.351
			c0.909-0.583,1.072-1.514,0.705-1.203c-0.387,0.335-1.235,0.363-1.644,0.359c-1.722-1.155-2.574-3.068-2.338-5.039
			c1.44,0.853,2.876,1.701,4.316,2.554c-0.032,0.058-0.045,0.131-0.086,0.18c-0.208,0.245,0.151,0.249,0.584-0.045
			c0.09,0.013,0.184,0.069,0.277,0.062c0,0.049,0,0.09-0.004,0.146c-0.073,0.192-0.099,0.392-0.082,0.596
			c-0.053,0.249-0.131,0.485-0.265,0.645c-0.2,0.232,0.114,0.241,0.514-0.004c0.118,0.155,0.273,0.27,0.474,0.347
			c-0.045,0.103-0.074,0.221-0.139,0.294c-0.258,0.302,0.338,0.241,0.885-0.306c0.498-0.151,0.824-0.526,0.857-0.996
			c0.163-0.18,0.289-0.403,0.343-0.648c0.053-0.062,0.105-0.135,0.154-0.212C589.992,265.192,587.418,261.839,584.729,259.187z
			 M413.729,356.385c-0.054-0.024-0.106-0.049-0.159-0.073c0.069,0.016,0.134,0.032,0.204,0.049
			C413.761,356.369,413.744,356.377,413.729,356.385z"/>
	</g>
</g>
<g>
</g>
<g>
</g>
<g>
</g>
<g>
</g>
<g>
</g>
<g>
</g>
<g>
</g>
<g>
</g>
<g>
</g>
<g>
</g>
<g>
</g>
<g>
</g>
<g>
</g>
<g>
</g>
<g>
</g>
</svg>
