<?xml version="1.0" encoding="iso-8859-1"?>
<!-- Generator: Adobe Illustrator 16.0.0, SVG Export Plug-In . SVG Version: 6.00 Build 0)  -->
<!DOCTYPE svg PUBLIC "-//W3C//DTD SVG 1.1//EN" "http://www.w3.org/Graphics/SVG/1.1/DTD/svg11.dtd">
<svg version="1.1" id="Capa_1" xmlns="http://www.w3.org/2000/svg" xmlns:xlink="http://www.w3.org/1999/xlink" x="0px" y="0px"
	 width="581.55px" height="581.55px" viewBox="0 0 581.55 581.55" style="enable-background:new 0 0 581.55 581.55;"
	 xml:space="preserve">
<g>
	<path d="M578.802,220.722c-14.129-9.531-29.344-15.704-46.234-8.523c-13.885,5.904-27.104,13.366-40.69,19.988
		c-15.916,7.765-32.778,11.808-50.448,10.139c-7.708-0.727-15.357-3.06-22.118-7.667c-23.101-15.745-48.765-25.002-76.182-30.021
		c-17.12-3.134-34.284-5.129-51.674-5.169c-23.419-0.057-46.43,2.823-69.314,8.079c-14.847,3.411-30.262,4.263-45.321,6.866
		c-15.826,2.738-31.71,5.5-47.238,9.523c-16.912,4.382-33.958,7.287-51.338,7.792c-20.135,0.588-40.103-1.424-59.36-7.662
		c-6.601-2.138-12.721-5.765-18.829-8.604c-0.371,2.529,1.183,6.752,4.847,9.845c3.215,2.713,6.614,5.415,10.351,7.267
		c13.684,6.781,27.421,13.48,41.367,19.703c18.25,8.144,37.315,11.559,57.507,11.607c25.692,0.057,51.469,1.424,77.022,4.027
		c11.501,1.171,22.591,6.605,33.815,10.273c7.952,2.599,15.663,5.647,21.828,11.767c1.375,1.367,3.982,1.681,6.1,2.073
		c5.569,1.032,11.31,1.391,16.728,2.913c2.921,0.819,5.324,3.479,8.437,5.643c-4.961,3.097-8.69,5.341-12.321,7.739
		c-1.008,0.665-2.208,1.648-2.485,2.709c-1.706,6.418-6.197,10.771-10.465,15.472c-5.234,5.757-4.957,11.971,0.065,17.825
		c3.133,3.656,4.578,8.185,2.407,12.257c-3.99,7.49-0.963,12.578,4.402,17.246c4.121,3.582,8.319,6.381,14.553,5.785
		c7.568-0.722,15.271-0.253,23.407-0.2c2.656,0.751,5.464,1.702,5.896,2.481c0.784,1.407,1.249-5.517-7.544-7.96
		c-0.819-0.8-1.746-1.494-2.896-2c-6.095-2.655-12.317-5.043-18.287-7.951c-5.426-2.648-7.642-7.365-6.736-13.354
		c0.591-3.896,1.143-7.838,2.281-11.587c0.526-1.729,2.122-3.762,3.741-4.435c8.984-3.717,18.12-7.075,27.213-10.522
		c6.459-2.448,10.232-3.889,10.082-11.8h8.05c-1.958,3.027-3.807,6.059-5.847,8.964c-0.897,1.277-2.113,2.354-3.288,3.402
		c-1.555,1.388-4.362,2.485-4.591,4.011c-0.518,3.456-0.33,7.255,0.601,10.629c0.894,3.247,3.345,6.034,4.643,9.213
		c1.636,4.011,4.043,8.245,3.941,12.329c-0.318,13.085,5.304,14.439,15.5,16.206c6.463,1.118,13.219,0.53,19.91,0.335
		c2.999,0.701,6.32,1.607,6.948,2.321c0.935,1.061,0.118-3.305-5.268-6.308c-0.905-0.967-1.852-1.836-2.966-2.293
		c-8.515-3.488-15.271-8.34-17.744-17.842c-0.963-3.705-2.762-7.189-4.174-10.775c-2.774-7.062,2.171-11.562,6.512-14.737
		c10.854-7.936,22.277-15.157,33.889-21.946c3.419-1.999,8.241-1.595,12.685-2.338c-0.583,5.129-1.188,9.698-1.611,14.284
		c-0.983,10.641,4.651,17.765,13.179,22.632c8.458,4.827,17.47,8.67,26.079,13.244c1.607,0.853,3.052,2.015,4.553,3.292
		c0.968,1.126,2.064,2.138,3.297,2.771c0.09,0.073,0.176,0.143,0.241,0.118c1.236,0.575,2.599,0.751,4.088,0.262
		c2.86,1.688,5.753,2.725,8.201-0.127c0.293-0.343,0-0.804-0.335-0.824c-0.086-0.143-0.232-0.249-0.404-0.249
		c-1.134-0.016-2.268-0.028-3.402-0.045l-3.407-2.17c-0.849-0.987-1.66-1.935-2.464-2.873c0.151-0.236,0.298-0.473,0.449-0.71
		c2.615,1.514,5.491,2.347,8.482,2.477c2.994,1.641,6.576,1.204,9.24-1.33c0.348-0.33-0.008-0.926-0.461-0.795
		c-1.387,0.403-2.794,0.604-4.189,0.62c-4.831-1.575-9.307-3.913-13.35-6.969c2.354,0.392,4.769-0.163,6.724-1.587
		c0.18-0.029,0.358-0.062,0.538-0.09c-0.098-0.033-0.195-0.065-0.294-0.094c0.05-0.041,0.099-0.082,0.151-0.123
		c0.856-0.184,1.591-0.628,2.064-1.632c0.212-0.444-0.208-0.849-0.648-0.648c-1.098,0.498-2.195,0.991-3.293,1.489
		c-0.363-0.017-0.722-0.049-1.057-0.073c-0.485-0.037-0.95-0.054-1.403-0.021c-7.442-1.314-15.361-1.028-19.56-10.4
		c12.175-0.021,22.105-9.783,34.937-8.511c2.465,2.134,6.219,2.057,8.585-0.253c0.416-0.408-0.11-0.942-0.575-0.746
		c-2.293,0.971-4.904,0.306-6.504-1.547c1.277-0.453,2.591-0.914,4.019-1.42c0.037-0.004,0.078-0.024,0.119-0.041
		c0.293-0.102,0.591-0.208,0.893-0.313c2.795-0.302,5.101-2.351,5.867-4.929c0.11-0.367-0.354-0.796-0.697-0.535
		c-0.901,0.689-1.804,1.375-2.705,2.064c-3.142,1.098-6.365,1.828-9.661,2.179h-2.371c-0.098-0.15-0.273-0.248-0.502-0.188
		c-0.069,0.021,8.81-5.381,8.593-10.514c-0.053,0.032,0.2-1.11,0.38-1.714c0.163-0.538-0.575-0.796-0.869-0.367
		c-0.972,1.42-1.946,2.84-2.917,4.26c-2.269,1.452-4.591,2.938-6.92,4.427c-0.294-0.277-0.592-0.56-0.886-0.837l1.069-4.985
		c0.897-2.195,0.379-4.798-1.379-6.5c-0.127-0.118-0.232-0.248-0.371-0.358c-0.4-0.318-1.037,0.077-0.747,0.575
		c0.098,0.163,0.171,0.335,0.257,0.502c-0.225,1.967-0.448,3.937-0.677,5.903c-0.27,0.416-0.556,0.816-0.906,1.139
		c-4.5,4.108-9.771,5.813-15.985,5.688c-5.725-0.114-11.469,0.8-18.127,1.334c1.656-3.533,3.039-7.107,4.924-10.396
		c5.378-9.384,14.297-15.182,22.306-21.979c10.723-9.099,23.986-12.444,36.585-17.344c15.565-6.055,29.303-15.296,43.334-24.146
		c9.408-5.932,19.225-12.448,29.756-15.006c9.404-2.285,20.041,0.474,30.131,1.073c0.905,0.053,1.827,0.983,2.66,0.877
		c2.464-0.314,5.977-0.134,7.087-1.628C582.331,226.875,581.939,222.84,578.802,220.722z"/>
</g>
<g>
</g>
<g>
</g>
<g>
</g>
<g>
</g>
<g>
</g>
<g>
</g>
<g>
</g>
<g>
</g>
<g>
</g>
<g>
</g>
<g>
</g>
<g>
</g>
<g>
</g>
<g>
</g>
<g>
</g>
</svg>
