<?xml version="1.0" encoding="iso-8859-1"?>
<!-- Generator: Adobe Illustrator 16.0.0, SVG Export Plug-In . SVG Version: 6.00 Build 0)  -->
<!DOCTYPE svg PUBLIC "-//W3C//DTD SVG 1.1//EN" "http://www.w3.org/Graphics/SVG/1.1/DTD/svg11.dtd">
<svg version="1.1" id="Capa_1" xmlns="http://www.w3.org/2000/svg" xmlns:xlink="http://www.w3.org/1999/xlink" x="0px" y="0px"
	 width="588.498px" height="588.498px" viewBox="0 0 588.498 588.498" style="enable-background:new 0 0 588.498 588.498;"
	 xml:space="preserve">
<g>
	<path d="M567.314,157.716c-0.221,0.049-0.53-0.024-0.689-0.184c-3.533-3.435-6.899-6.785-10.404-9.979
		c-0.445-0.404-1.73-0.069-2.555,0.171c-1.305,0.379-2.554,1.053-3.847,1.42c-0.217,0.061-0.53-0.021-0.702-0.167l-9.967-8.666
		c-0.058-0.049-0.119-0.094-0.176-0.134c-0.098-0.069-0.286-0.27-0.437-0.433c-0.73-0.788-1.89-1.208-3.117-0.641
		c-2.436,1.13-4.876,2.256-7.312,3.386c-0.204,0.094-0.51,0.058-0.697-0.069c-1.221-0.84-2.697-1.285-4.301-1.105
		c-1.42,0.159-2.709,0.767-3.737,1.673c-0.167,0.151-0.388,0.114-0.559-0.028c-0.322-0.278-0.759-0.388-1.032-0.286
		c-0.213,0.078-0.429,0.343-0.645,0.408c-14.358,4.288-27.112,11.522-37.834,19.033c-0.184,0.131-0.404,0.4-0.49,0.604
		c-2.125,5.031-3.684,8.735-5.259,12.436c-3.154,7.41-5.981,14.982-9.588,22.159c-2.599,5.173-5.17,11.155-11.935,12.118
		c-3.5,0.498-7.196-0.273-10.795-0.612c-1.93-0.179-3.86-0.534-5.736-1.016c-6.039-1.55-11.987-3.574-18.096-4.721
		c-12.158-2.285-24.414-4.031-36.605-6.148c-6.111-1.061-12.126-3.146-18.258-3.5c-7.107-0.412-14.37,0.053-21.428,1.073
		c-1.755,0.253-3.505,0.547-5.256,0.857c-0.22,0.041-0.579,0.049-0.804,0.028c-1.469-0.134-2.958,0.037-4.397,0.608
		c-0.4,0.159-0.784,0.322-1.159,0.494c-0.204,0.094-0.555,0.208-0.775,0.257c-4.766,0.996-9.515,2.097-14.26,3.17
		c-4.051,0.914-8.074,2.142-11.938,3.664c-5.904,2.326-11.502,5.496-17.512,7.462c-8.825,2.884-17.923,4.929-26.851,7.515
		c-5.683,1.644-11.216,3.835-16.924,5.386c-6.989,1.901-14.117,3.284-21.126,5.108c-2.505,0.653-4.773,2.195-7.275,2.885
		c-8.095,2.228-16.292,4.084-24.354,6.405c-4.504,1.298-8.715,3.631-13.239,4.814c-12.661,3.313-25.271,6.728-37.724,10.796
		c-8.711,2.844-17.781,4.578-26.573,7.197c-3.999,1.191-7.601,4.386-11.587,4.827c-9.931,1.097-18.009,6.923-27.287,9.706
		c-7.365,2.208-13.721,7.719-20.572,11.693c-12.791,7.414-22.811,18.131-32.044,29.197c-6.002,7.188-9.454,16.593-13.607,25.218
		c-5.288,10.976-6.589,22.763-5.496,34.771c0.191,2.093,1.873,4.047,2.986,6.059c0.11,0.195,0.286,0.204,0.4,0.012
		c1.232-2.02,3.068-3.966,3.333-6.107c4.9-39.25,28.16-63.99,62.95-79.258c22.22-9.748,45.786-14.99,69.943-16.076
		c28.768-1.293,57.622-2.158,86.39-1.395c15.516,0.412,30.955,4.5,46.389,7.148c5.798,0.996,10.094,4.26,11.114,10.408
		c0.22,1.314-0.796,3.787-1.848,4.207c-9.943,3.974-15.77,12.252-22.591,19.824c-5.471,6.075-12.289,11.498-19.519,15.28
		c-8.299,4.345-10.417,11.285-11.437,19.099c-1.448,11.134-2.35,22.342-3.3,33.537c-0.547,6.442-1.098,12.926-0.886,19.368
		c0.086,2.582,1.702,5.561,3.509,7.544c4.354,4.765,8.952,9.404,14.003,13.395c3.142,2.477,7.177,4.011,11.02,5.361
		c4.904,1.722,9.967,3.178,15.08,4.055c2.416,0.412,5.076-0.596,7.899-1.093c0.22-0.041,0.355-0.249,0.293-0.466
		c-1.836-6.576-7.543-9.343-12.644-12.566c-2.424-1.529-5.23-2.456-7.895-3.586c-7.634-3.248-11.673-8.833-12.056-17.274
		c-0.221-4.908-2.085-9.87-1.645-14.66c0.902-9.771,2.412-19.551,4.66-29.094c0.681-2.897,4.186-5.859,7.127-7.377
		c18.03-9.311,36.422-17.769,56.087-23.272c5.753-1.611,11.041-4.896,16.541-7.409c0.963-0.44,1.93-0.881,2.443-1.118
		c0.204-0.094,0.376,0.009,0.372,0.232c-0.024,4.994-0.462,10.273,0.102,15.443c1.208,11.102-1.566,21.334-5.969,31.249
		c-1.849,4.165-2.285,7.955-0.245,12.187c5.251,10.882,10.176,21.918,15.41,32.804c4.818,10.028,9.597,20.098,15.022,29.792
		c1.306,2.333,4.957,4.12,7.817,4.667c6.602,1.257,13.378,2.098,20.09,2.171c6.328,0.069,12.669-1.085,19.005-1.648
		c5.892-0.522,11.787-0.979,18.968-1.571c0.225-0.02,0.261-0.139,0.073-0.265c-4.137-2.893-7.887-5.562-11.677-8.128
		c-0.188-0.126-0.339-0.411-0.38-0.632c-0.126-0.723-0.53-1.388-1.207-1.726c-1.559-0.779-3.121-1.559-4.68-2.338
		c-0.2-0.103-0.485-0.318-0.661-0.461c-0.633-0.519-1.469-0.784-2.236-0.466c-0.918,0.384-1.84,0.771-2.758,1.155
		c-0.208,0.085-0.538,0.077-0.738-0.024c-7.711-3.893-17.096-4.048-25.916-4.121c-0.225,0-0.515-0.147-0.648-0.33
		c-2.407-3.261-4.685-6.459-7.193-9.454c-10.649-12.713-14.876-27.731-15.9-43.884c-0.134-2.134,0.241-4.537,1.139-6.463
		c7.977-17.128,16.108-34.183,24.239-51.237c0.653-1.375,1.611-2.61,2.477-3.88c5.051-7.401,10.355-12.872,20.809-13.725
		c17.747-1.453,35.605-4.063,52.052-11.971c0.657-0.318,1.796-0.342,2.375,0.025c0.742,0.469,1.718,1.028,2.509,1.603
		c0.184,0.131,0.278,0.339,0.221,0.457c-0.057,0.119-0.053,0.123,0.028,0.021c0.082-0.098,0.302-0.057,0.466,0.094
		c0.42,0.388,0.693,0.767,0.673,1.118c-0.09,1.812,2.109,10.91,1.383,13.615c-0.057,0.216,0.033,0.42,0.249,0.478
		c0.494,0.126,1.285,0.326,2.48,0.628c0.221,0.058,0.229,0.188,0.028,0.294c-1.518,0.808-2.565,1.367-4.471,2.383
		c-0.2,0.106-0.192,0.253,0.02,0.33c2.926,1.073,5.166,1.894,7.577,2.779c0.212,0.077,0.204,0.179-0.017,0.229
		c-1.913,0.424-3.64,0.804-5.789,1.28c-0.221,0.05-0.253,0.204-0.069,0.335c4.671,3.362,9.017,1.665,10.249-3.121
		c1.15-4.447-0.824-11.457-3.22-17.675c-0.081-0.212-0.024-0.249,0.131-0.082c2.329,2.509,5.32,5.712,5.888,7.414
		c0.069,0.212,0.261,0.339,0.473,0.265c0.481-0.167,1.249-0.437,2.416-0.84c0.212-0.073,0.293,0.028,0.188,0.229
		c-0.82,1.51-1.388,2.554-2.42,4.451c-0.105,0.2-0.021,0.318,0.2,0.265c3.035-0.718,5.353-1.265,7.854-1.856
		c0.221-0.053,0.27,0.037,0.114,0.2c-1.362,1.408-2.591,2.677-4.124,4.26c-0.155,0.163-0.099,0.306,0.126,0.318
		c5.753,0.232,8.438-3.582,6.834-8.254c-2.276-6.63-13.893-14.248-20.306-18.144c-0.192-0.118-0.213-0.334-0.045-0.485
		c4.296-3.892,8.498-7.601,12.403-11.555c1.578-1.599,3.002-4.006,3.23-6.177c1.122-10.792,6.933-18.674,15.035-25.108
		c5.985-4.753,12.281-9.115,18.479-13.664c0.184-0.135,0.412-0.078,0.522,0.123c4.916,9.155,8.433,9.559,13.99,1.24
		c0.126-0.188,0.347-0.2,0.497-0.033c1.399,1.579,2.641,3.138,4.089,4.468c1.484,1.363,3.88,3.814,4.708,3.407
		c2.211-1.085,4.117-3.228,5.561-5.349c2.8-4.108,5.011-8.621,7.887-12.664c0.809-1.138,3.102-1.787,4.676-1.722
		c5.786,0.228,11.567,1.301,17.324,1.138c3.146-0.086,6.385-1.734,9.281-3.256c0.963-0.506,1.714-3.154,1.229-4.207
		c-0.392-0.845-1.746-1.673-2.958-1.962c-0.221-0.053-0.306-0.216-0.184-0.388l0.221-0.31c0.322-0.457,0.081-1.138-0.367-1.399
		c-0.515-0.302-1.077-0.085-1.399,0.367c-0.335,0.469-0.665,0.942-1,1.416c-0.131,0.184-0.416,0.339-0.641,0.339
		c-0.077,0-0.159-0.004-0.236-0.004c-0.225-0.004-0.302-0.119-0.163-0.245c0.102-0.09,0.188-0.155,0.269-0.22
		c0.441-0.338,0.678-0.873,0.367-1.399c-0.212-0.359-0.738-0.641-1.154-0.469c-0.24,0.098-0.481,0.196-0.722,0.298
		c-0.127,0.053-0.241,0.126-0.335,0.212c-0.163,0.151-0.42,0.371-0.633,0.444c-0.734,0.245-1.473,0.49-2.207,0.735
		c-0.212,0.069-0.562,0.094-0.783,0.044c-0.425-0.094-0.849-0.204-1.265-0.314c-0.217-0.061-0.204-0.171-0.065-0.351
		c0.469-0.595-0.077-1.799-1.102-1.648c-0.951,0.139-1.901,0.277-2.848,0.416c-0.225,0.033-0.571-0.008-0.779-0.098
		c-0.18-0.077-0.363-0.159-0.543-0.236c-0.204-0.09-0.236-0.298-0.135-0.502c0.412-0.836-0.33-1.693-1.057-1.526
		c-0.221,0.049-0.534,0.241-0.746,0.318c-0.188,0.069-0.376,0.134-0.563,0.204c-0.212,0.077-0.551,0.057-0.751-0.049
		c-0.154-0.082-0.313-0.163-0.469-0.245c-0.2-0.106-0.217-0.314-0.127-0.518c0.11-0.249,0.106-0.522,0.017-0.771
		c-0.073-0.212-0.184-0.542-0.266-0.754c-0.126-0.339-0.428-0.583-0.913-0.539c-0.878,0.085-1.759,0.171-2.636,0.257
		c-0.225,0.021-0.563-0.045-0.759-0.151c-1.004-0.539-2.012-1.069-3.028-1.583c-0.199-0.102-0.338-0.363-0.306-0.588
		c0.024-0.171,0.053-0.342,0.078-0.518c0.032-0.224,0.24-0.396,0.465-0.383c1.085,0.049,2.166,0.106,3.252,0.163
		c0.224,0.012,0.452,0.171,0.579,0.314c0.069,0.082,0.159,0.151,0.273,0.212c0.506,0.265,1.012,0.535,1.518,0.8
		c0.351,0.188,0.686,0.151,0.954-0.004c0.196-0.114,0.388-0.273,0.482-0.302c0.057-0.016,0.113-0.037,0.171-0.061
		c0.27-0.123,0.543-0.245,0.812-0.367c0.204-0.094,0.417-0.074,0.502,0.021c0.054,0.053,0.114,0.102,0.188,0.134
		c0.596,0.261,1.191,0.518,1.787,0.779c0.311,0.135,0.641,0.155,0.923,0.033c0.208-0.09,0.403-0.229,0.489-0.241
		c0.053-0.008,0.106-0.021,0.159-0.041c0.665-0.27,1.334-0.543,1.999-0.812c0.208-0.086,0.519-0.037,0.689,0.11
		c0.481,0.412,0.967,0.829,1.448,1.24c0.318,0.273,0.743,0.372,1.11,0.225c0.208-0.082,0.493-0.322,0.686-0.44
		c0.636-0.384,1.231-0.71,1.823-1.024c0.2-0.106,0.461-0.041,0.596,0.143c0.335,0.465,0.665,0.934,1,1.399
		c0.322,0.453,0.885,0.669,1.399,0.367c0.057-0.033,0.11-0.074,0.159-0.119c0.081-0.073,0.175-0.171,0.229-0.208
		c0.032-0.02,0.061-0.045,0.094-0.069c0.787-0.645,1.574-1.289,2.366-1.938c0.176-0.143,0.498-0.269,0.727-0.286
		c0.04-0.004,0.081-0.004,0.122-0.008c0.225-0.012,0.343,0.146,0.367,0.367c0.017,0.13,0.062,0.257,0.143,0.367
		c0.257,0.343,0.51,0.681,0.768,1.024c0.334,0.445,0.877,0.673,1.399,0.367c0.045-0.024,0.085-0.061,0.126-0.098
		c0.065-0.062,0.18-0.151,0.257-0.204c0.045-0.029,0.09-0.065,0.131-0.106c1.053-1.082,2.105-2.159,3.162-3.24
		c0.094-0.098,0.159-0.196,0.204-0.302c0.077-0.184,0.2-0.49,0.339-0.665c0.518-0.645,0.905-1.334,1.003-1.934
		c1.208-7.189,1.028-7.373,6.545-10.612c0.195-0.114,0.289-0.379,0.208-0.587c-1.648-4.276-3.354-8.523-4.908-12.819
		C581.627,161.878,572.328,156.639,567.314,157.716z"/>
</g>
<g>
</g>
<g>
</g>
<g>
</g>
<g>
</g>
<g>
</g>
<g>
</g>
<g>
</g>
<g>
</g>
<g>
</g>
<g>
</g>
<g>
</g>
<g>
</g>
<g>
</g>
<g>
</g>
<g>
</g>
</svg>
