<?xml version="1.0" encoding="iso-8859-1"?>
<!-- Generator: Adobe Illustrator 16.0.0, SVG Export Plug-In . SVG Version: 6.00 Build 0)  -->
<!DOCTYPE svg PUBLIC "-//W3C//DTD SVG 1.1//EN" "http://www.w3.org/Graphics/SVG/1.1/DTD/svg11.dtd">
<svg version="1.1" id="Capa_1" xmlns="http://www.w3.org/2000/svg" xmlns:xlink="http://www.w3.org/1999/xlink" x="0px" y="0px"
	 width="587.201px" height="587.201px" viewBox="0 0 587.201 587.201" style="enable-background:new 0 0 587.201 587.201;"
	 xml:space="preserve">
<g>
	<path d="M586.94,188.184c-0.355-1.412-1.191-3.007-2.31-3.864c-4.524-3.452-6.98-8.311-9.29-13.223
		c-1.783-3.799-2.518-4.166-6.544-4.717c-3.709-0.506-6.883,0.579-10.249,1.596c-1.877,0.566-4.072,0.085-5.957,0.636
		c-2.448,0.715-4.732,1.987-7.083,3.023c-2.436,1.073-4.912,2.068-7.295,3.252c-5.055,2.514-10.069,5.117-15.092,7.704
		c-3.852,1.982-7.74,3.896-11.522,6.005c-4.483,2.505-8.89,5.149-13.288,7.801c-3.986,2.403-7.898,4.92-11.873,7.34
		c-6.561,3.994-13.101,8.029-19.739,11.897c-6.315,3.68-12.758,7.14-19.114,10.751c-5.463,3.105-10.849,6.349-16.328,9.425
		c-6.455,3.623-12.938,7.197-19.474,10.673c-5.182,2.754-10.376,5.508-15.721,7.919c-5.128,2.313-10.396,4.377-15.72,6.201
		c-6.573,2.252-13.191,4.476-19.939,6.104c-6.736,1.624-13.647,1.962-20.641,1.469c-2.407-0.167-4.635-0.702-6.789-1.448
		c-1.832-0.673-3.631-1.44-5.394-2.318c-0.172-0.085-0.339-0.146-0.51-0.196c-6.663-3.117-13.265-6.369-19.956-9.437
		c-2.974-1.367-6.128-2.342-9.184-3.542c-3.28-1.289-6.541-2.635-9.816-3.941c-0.465-0.188-0.975-0.265-1.465-0.396
		c-0.2,0.188-0.4,0.372-0.6,0.559c0.216,0.261-2.812-0.959-3.648-1.093c-3.468-0.559-6.968-0.906-10.506-1.334
		c-2.525,0.09-5.618,1.028-7.568,1.032c-1.453,0.004-2.995,0.408-4.337,0.992c-2.811,1.22-5.496,2.737-8.287,4.015
		c-1.041,0.477-2.252,0.555-3.337,0.946c-4.79,1.73-9.494,3.733-14.362,5.214c-6.911,2.101-13.811,3.929-21.261,3.815
		c-11.236-0.171-21.938-2.554-32.297-6.463c-10.334-3.9-20.571-8.131-30.58-12.803c-6.405-2.987-12.362-6.957-18.438-10.621
		c-11.179-6.744-22.272-13.627-33.452-20.375c-7.989-4.818-16.01-9.584-24.097-14.235c-11.208-6.442-22.901-11.808-35.345-15.418
		c-4.818-1.399-9.682-2.664-14.557-3.843c-0.021-0.004-0.041-0.004-0.065-0.008c-0.057-0.053-0.123-0.098-0.216-0.123
		c-6.291-1.726-12.717-2.501-19.237-2.313c-0.184,0.004-0.314,0.09-0.396,0.208c-1.55,0.037-2.991,0.176-4.063,0.461
		c0.856,0.347,1.317,0.678,1.791,0.706c21.297,1.13,40.522,8.744,58.85,18.984c21.636,12.089,41.339,26.985,60.69,42.367
		c18.192,14.456,36.332,29.025,56.03,41.404c10.616,6.671,21.861,12.334,32.746,18.588c7.805,4.484,15.504,9.156,23.183,13.856
		c1.02,0.624,1.738,1.848,2.411,2.913c1.616,2.554,3.146,5.169,4.668,7.78c0.428,0.734,0.844,1.51,1.069,2.317
		c1.962,7.099,3.929,14.198,5.761,21.334c0.273,1.069,0.037,2.358-0.253,3.473c-1.632,6.287-3.182,12.603-5.12,18.796
		c-1.024,3.272-2.966,6.247-4.166,9.479c-1.187,3.187-1.962,6.527-2.909,9.804c-0.648,2.24-1.326,4.472-1.909,6.732
		c-0.681,2.656,0.041,4.969,1.909,6.928c2.656,0.734,5.333,1.432,7.981,2.228c1.412,1.24,2.933,2.619,3.741,3.48
		c1.216,1.285,1.318-0.294,0.787-2.628c0.404-0.139,0.796-0.367,1.204-0.845c0.033-0.036,0.065-0.049,0.098-0.085
		c1.754,0.946,3.807,2.076,4.859,2.758c1.799,1.163,1.244-1.016-0.229-3.423c1.824,0.452,4.247,1.077,5.455,1.497
		c2.068,0.718,0.343-1.897-2.061-3.994c-0.363-0.318-0.747-0.461-1.138-0.53c0.033-0.155,0.028-0.339-0.069-0.596
		c-0.29-0.792-0.718-1.555-1.277-2.285c-2.591-3.398-3.582-7.475-3.317-11.371c0.42-6.152,1.191-12.399,4.741-17.854
		c1.787-2.746,3.015-5.855,4.814-8.589c3.333-5.06,4.21-10.485,3.252-16.365c-0.204-1.265-0.029-2.591-0.029-4.174
		c1.583,1.045,2.795,1.727,3.848,2.595c0.518,0.429,1,1.188,1.061,1.841c1.334,13.517,1.449,26.936-2.807,40.09
		c-0.641,1.987-0.596,4.305-0.384,6.418c0.118,1.188,1.24,2.272,1.914,3.402c0.306,0.118,0.612,0.232,0.922,0.352
		c0.429,0.146,0.861,0.261,1.29,0.383c1.971,1.334,5.067,3.468,6.479,4.651c1.685,1.416,1.338-1.02,0.11-4.019
		c0.461-0.049,0.926-0.114,1.383-0.212c2.081,0.824,4.627,1.856,5.92,2.492c2.093,1.032,1.22-1.257-0.678-3.668
		c2.028,0.262,4.725,0.633,6.083,0.931c2.272,0.502,0.22-1.975-2.546-3.921c-1.049-1.016-1.856-1.869-2.848-2.313
		c-2.183-0.979-2.795-2.607-2.946-4.712c-0.845-11.657,1.444-22.901,4.561-34.023c0.167-0.588,0.914-1.408,1.424-1.433
		c2.815-0.139,5.643-0.064,8.751-0.064c0,5.708,0.024,11.228-0.008,16.744c-0.032,5.006,0.47,10.045,3.546,14.06
		c5.463,7.132,11.428,13.88,17.087,20.865c0.971,1.199,1.489,2.771,2.215,4.174l-0.04-0.073c1.746,3.41-0.005,6.597-0.8,9.767
		c-0.719,2.873-0.682,3.901,2.22,4.166c1.22,0.11,2.456,0.188,3.692,0.241c1.782,1.256,3.753,2.688,4.806,3.586
		c1.624,1.392,1.428-0.747,0.367-3.606c0.914-0.045,1.82-0.131,2.722-0.232c1.754,0.722,3.554,1.489,4.582,2.007
		c2.003,1.008,1.362-0.991-0.294-3.309c0.249-0.139,0.502-0.257,0.755-0.412c1.877,0.257,3.981,0.567,5.133,0.828
		c2.003,0.453,0.75-1.379-1.429-3.203c-0.383-1.84-2.235-2.685-4.153-3.644c-1.293-0.648-2.35-1.774-3.957-3.035
		c0.021-0.004,0.04-0.008,0.061-0.017c2.154,0.841,5.749,2.265,7.369,3.064c2.093,1.032,1.22-1.257-0.678-3.668
		c2.028,0.261,4.729,0.633,6.083,0.931c2.326,0.514,0.131-2.094-2.729-4.056c-0.412-0.282-0.828-0.396-1.236-0.437
		c-0.024-0.225-0.012-0.425-0.102-0.689c-3.02-8.932-2.46-18.259-3.117-27.463c-0.412-5.765-1.607-11.469-2.297-17.218
		c-0.155-1.272,0.077-2.741,0.592-3.921c1.75-3.99,3.704-7.895,5.594-11.828c0.51-1.064,0.868-2.305,1.656-3.117
		c3.472-3.573,4.296-7.964,4.316-12.688c0.008-2.387-0.637-5.397,0.543-6.977c1.113-1.485,4.312-1.281,6.471-2.134
		c8.776-3.46,17.589-6.854,26.242-10.604c19.764-8.571,37.561-20.452,54.864-33.116c24.7-18.075,49.209-36.418,74.162-54.134
		c13.64-9.686,28.396-17.65,43.685-24.541c3.056-1.379,6.132-2.705,9.212-4.023c0.539-0.232,1.2-0.534,1.714-0.416
		c3.056,0.706,6.141,1.351,9.091,2.375c1.636,0.567,3.284,1.599,4.467,2.852c1.318,1.395,2.575,1.807,4.085,0.869
		c1.052-0.653,1.86-1.705,2.57-2.815C586.903,191.819,587.671,191.072,586.94,188.184z M312.021,369.739
		c-1.224-1.636-1.276-3.325-0.62-5.129c2.13-5.847,4.231-11.701,6.459-17.511c0.326-0.845,1.293-1.444,1.963-2.154
		c0.232,0.195,0.461,0.396,0.693,0.592c-0.106,0.669-0.262,1.329-0.307,2.003c-0.224,3.337-0.922,6.74-0.51,9.996
		c0.759,5.985,2.252,11.872,3.297,17.829c0.645,3.668,1.024,7.385,1.551,11.294C320.182,380.743,316.13,375.219,312.021,369.739z"/>
</g>
<g>
</g>
<g>
</g>
<g>
</g>
<g>
</g>
<g>
</g>
<g>
</g>
<g>
</g>
<g>
</g>
<g>
</g>
<g>
</g>
<g>
</g>
<g>
</g>
<g>
</g>
<g>
</g>
<g>
</g>
</svg>
