<?xml version="1.0" encoding="iso-8859-1"?>
<!-- Generator: Adobe Illustrator 16.0.0, SVG Export Plug-In . SVG Version: 6.00 Build 0)  -->
<!DOCTYPE svg PUBLIC "-//W3C//DTD SVG 1.1//EN" "http://www.w3.org/Graphics/SVG/1.1/DTD/svg11.dtd">
<svg version="1.1" id="Capa_1" xmlns="http://www.w3.org/2000/svg" xmlns:xlink="http://www.w3.org/1999/xlink" x="0px" y="0px"
	 width="574.114px" height="574.114px" viewBox="0 0 574.114 574.114" style="enable-background:new 0 0 574.114 574.114;"
	 xml:space="preserve">
<g>
	<g>
		<path d="M535.354,356.509c-17.336-16.214-45.852-25.721-59.274-38.585c-13.424-12.864-29.638-11.183-29.078-24.602
			c0.559-13.42-10.625-37.467-10.625-37.467c20.69-14.537,38.026,22.926,52.004,26.842c13.979,3.913,23.484-14.537,23.484-14.537
			h-7.829l-15.659-23.484c0,0,27.96,15.655,53.681,6.711c25.72-8.947-7.83-19.572-16.219-33.55
			c-8.388-13.978-33.549-39.703-33.549-39.703s-2.795-13.419-6.712-25.161s8.389-41.938-2.236-31.314
			c-9.886,9.886-10.571,26.046-10.62,28.25c0.897-12.293-12.864-29.89-12.864-24.893c0,5.031,6.712,9.507-0.559,17.336
			c-7.271,7.83-14.537,32.432-14.537,32.432c-46.969,5.594-39.702,33.55-83.317,25.72c-43.611-7.837-60.385,10.616-74.383,7.263
			c-13.999-3.354-51.428-11.184-77.149-11.184c-25.72,0-31.314-7.271-31.314-7.271c-40.261-61.51-73.252-11.183-73.252-11.183
			s29.078-11.184,43.615,15.655c14.537,26.842-27.96,24.043-31.314,61.51c-3.354,37.466-30.196,52.003-40.82,45.292
			c-10.624-6.711-19.572-11.742-20.689-6.152c-1.118,5.594-19.572,20.689-37.467,28.52c-17.895,7.829-22.925,33.55-15.096,32.432
			c7.829-1.118,19.571-5.03,19.571-5.03c-3.354,7.271-3.354,37.467,9.507,13.978c12.86-23.488,57.038-42.497,86.112-33.55
			c29.078,8.947,42.497-17.895,56.475-29.637c13.979-11.742,42.498-42.498,95.06-2.236c52.562,40.262,72.693,12.302,96.178,20.131
			c23.484,7.83,7.83,15.659,8.389,21.808c0.559,6.153,41.379,50.327,54.239,60.951c12.86,10.625,13.979,24.603,35.227,42.497
			c21.249,17.896,41.938,7.83,42.498,5.035c0.559-2.795,3.354-2.795-16.214-14.537c-19.568-11.742-30.756-46.969-46.97-62.069
			c-16.218-15.096-27.96-57.034-27.96-57.034c6.712,10.624,15.659,24.044,25.161,25.161c9.507,1.118-0.559,3.913,44.733,13.42
			c45.292,9.506,50.886,46.409,78.842,30.195S552.686,372.723,535.354,356.509z"/>
	</g>
</g>
<g>
</g>
<g>
</g>
<g>
</g>
<g>
</g>
<g>
</g>
<g>
</g>
<g>
</g>
<g>
</g>
<g>
</g>
<g>
</g>
<g>
</g>
<g>
</g>
<g>
</g>
<g>
</g>
<g>
</g>
</svg>
