<?xml version="1.0" encoding="iso-8859-1"?>
<!-- Generator: Adobe Illustrator 16.0.0, SVG Export Plug-In . SVG Version: 6.00 Build 0)  -->
<!DOCTYPE svg PUBLIC "-//W3C//DTD SVG 1.1//EN" "http://www.w3.org/Graphics/SVG/1.1/DTD/svg11.dtd">
<svg version="1.1" id="Capa_1" xmlns="http://www.w3.org/2000/svg" xmlns:xlink="http://www.w3.org/1999/xlink" x="0px" y="0px"
	 width="589.178px" height="589.178px" viewBox="0 0 589.178 589.178" style="enable-background:new 0 0 589.178 589.178;"
	 xml:space="preserve">
<g>
	<g>
		<path d="M343.169,249.397c56.517,14.97,117.818,11.261,172.119-10.412c25.847-10.314,50.833-25.243,66.916-47.952
			c3.031-4.284,5.777-8.947,6.639-14.121c0.771-4.643,0.175-8.531-1.42-11.783c-7.279-14.839-35.346-16.467-48.98-16.52
			c-63.481-0.241-126.986,6.397-189.047,19.764c-5.32,1.146-14.782,4.035-19.764,0.596c-6.104-4.219-3.473-11.028-0.314-15.879
			c3.289-5.055,5.284-10.816,5.455-16.871c0.253-8.943-3.904-14.104-7.564-21.591c-3.17-6.491-1.228-12.513,5.394-15.602
			c4.464-2.081,9.499-2.432,14.346-3.305c13.423-2.423,26.528-9.682,33.22-21.571c3.773-6.708,5.014-14.888,3.459-22.424
			c-1.231-5.977-6.291-17.821-13.978-16.907c-7.577,0.901-14.888,10.094-15.978,17.254c-0.652,4.317,0.877,9.135,4.509,11.555
			c3.565,2.375,9.796,0,12.852-2.419c1.191-0.942,2.077-2.419,1.909-3.933c-0.759-6.789-8.665-1.734-11.737,0
			c-1.8-3.097-1.894-7.03-0.144-10.163c7.589-13.574,18.164,4.121,17.806,12.889c-0.314,7.662-4.725,14.811-10.812,19.482
			c-7.001,5.369-15.446,6.887-23.811,8.755c-5.716,1.277-11.62,2.876-16.618,6.039c-4.418,2.795-8.552,9.955-13.892,3.954
			c-1.755-1.971-3.807-2.921-6.075-3.64c-3.868-1.228-7.752-2.321-11.755-2.493c0-0.082,0-0.163,0-0.245
			c-4.945-0.331-9.669,0.971-14.382,2.464c-2.269,0.718-4.325,1.668-6.075,3.639c-5.341,6.006-9.474-1.159-13.893-3.954
			c-5.002-3.162-10.901-4.761-16.618-6.038c-8.364-1.869-16.81-3.387-23.811-8.756c-6.083-4.671-10.498-11.82-10.812-19.482
			c-0.359-8.772,10.216-26.463,17.805-12.889c1.75,3.133,1.657,7.066-0.143,10.163c-3.077-1.734-10.979-6.785-11.738,0
			c-0.167,1.514,0.718,2.987,1.909,3.933c3.052,2.419,9.286,4.794,12.852,2.419c3.635-2.419,5.166-7.238,4.509-11.555
			c-1.085-7.16-8.401-16.353-15.978-17.254c-7.687-0.914-12.746,10.93-13.978,16.907c-1.55,7.536-0.314,15.716,3.46,22.424
			c6.691,11.885,19.796,19.147,33.219,21.571c4.847,0.874,9.882,1.224,14.345,3.305c6.622,3.084,8.564,9.11,5.394,15.602
			c-3.656,7.487-7.817,12.648-7.564,21.591c0.171,6.055,2.167,11.816,5.455,16.871c3.158,4.851,5.79,11.665-0.314,15.883
			c-4.981,3.443-14.443,0.551-19.764-0.596C177.721,154.737,114.216,148.1,50.735,148.34c-13.631,0.053-41.698,1.677-48.98,16.52
			c-1.595,3.252-2.191,7.14-1.42,11.783c0.861,5.177,3.603,9.841,6.638,14.121c16.083,22.709,41.069,37.634,66.916,47.953
			c54.301,21.673,115.599,25.381,172.119,10.408c2.526-0.669,11.869-2.607,11.135,1.44c-0.608,3.35-12.118,5.879-14.896,6.879
			c-5.679,2.044-11.42,3.917-17.197,5.667c-23.183,7.022-46.912,11.987-70.417,17.76c-34.227,8.405-68.667,18.83-97.745,38.74
			c-6.744,4.614-13.256,9.82-17.895,16.549c-7.104,10.293-9.164,24.268,0.657,33.17c8.796,7.973,20.522,12.044,31.897,14.68
			c32.697,7.572,67.079,5.602,99.83-1.733c32.75-7.336,64.092-19.898,94.778-33.501c-0.388,7.784,1.452,15.459,6.242,21.726
			c0.979,1.281,2.101,2.574,2.326,4.17c0.563,3.949-5.027,9.024-5.786,13.387c-0.865,4.985-0.281,10.779,2.122,15.304
			c1.722,3.243,4.341,5.219,4.125,9.303c-0.167,3.178-1.571,6.136-2.852,9.049c-2.688,6.1-3.235,12.375,0.727,18.115
			c1.73,2.51,4.231,4.839,4.304,7.883c0.057,2.346-1.379,4.423-2.403,6.536c-4.717,9.743,0.767,14.599,3.101,23.346
			c1.179,4.427-1.318,7.377-2.236,11.403c-0.8,3.509-0.216,7.39,0.225,10.955c1.057,8.511,2.06,17.026,3.17,25.528
			c0.881,6.761,0.645,14.61,3.521,20.89c2.26,4.933,8.789,10.213,11.726,7.104c2.807,3.688,9.641-1.759,11.966-6.83
			c2.877-6.274,2.64-14.129,3.521-20.89c1.109-8.503,2.113-17.018,3.17-25.528c0.444-3.565,1.028-7.446,0.225-10.955
			c-0.918-4.026-3.419-6.977-2.236-11.403c2.334-8.752,7.817-13.606,3.102-23.346c-1.024-2.113-2.457-4.19-2.403-6.536
			c0.073-3.044,2.574-5.378,4.305-7.883c3.961-5.736,3.41-12.016,0.726-18.115c-1.281-2.913-2.685-5.871-2.852-9.049
			c-0.217-4.084,2.403-6.06,4.125-9.307c2.402-4.525,2.986-10.318,2.121-15.305c-0.759-4.361-6.349-9.437-5.785-13.386
			c0.229-1.596,1.351-2.889,2.325-4.17c4.786-6.267,6.626-13.941,6.243-21.727c30.686,13.599,62.023,26.161,94.778,33.501
			c32.75,7.336,67.132,9.311,99.829,1.734c11.375-2.636,23.105-6.708,31.897-14.68c9.82-8.902,7.76-22.877,0.657-33.171
			c-4.644-6.724-11.155-11.93-17.896-16.548c-29.082-19.91-63.521-30.335-97.744-38.74c-23.505-5.773-47.234-10.739-70.417-17.76
			c-5.777-1.75-11.518-3.623-17.197-5.667c-2.778-1-14.292-3.529-14.896-6.879C331.297,246.791,340.64,248.729,343.169,249.397z
			 M284.413,147.487c-1.718,2.077-3.925,3.696-6.564,4.537c-8.083,2.578-15.512-2.216-18.018-9.796
			c-2.974-9.008-0.539-23.354,10.947-24.141c8.303-0.567,16.145,6.1,17.601,14.121C289.326,137.389,287.844,143.342,284.413,147.487
			z M311.337,152.298c-2.64-0.841-4.847-2.464-6.564-4.537c-3.432-4.141-4.908-10.098-3.97-15.28
			c1.456-8.025,9.298-14.688,17.601-14.121c11.489,0.787,13.921,15.133,10.947,24.141
			C326.85,150.082,319.415,154.876,311.337,152.298z"/>
	</g>
</g>
<g>
</g>
<g>
</g>
<g>
</g>
<g>
</g>
<g>
</g>
<g>
</g>
<g>
</g>
<g>
</g>
<g>
</g>
<g>
</g>
<g>
</g>
<g>
</g>
<g>
</g>
<g>
</g>
<g>
</g>
</svg>
