<?xml version="1.0" encoding="iso-8859-1"?>
<!-- Generator: Adobe Illustrator 16.0.0, SVG Export Plug-In . SVG Version: 6.00 Build 0)  -->
<!DOCTYPE svg PUBLIC "-//W3C//DTD SVG 1.1//EN" "http://www.w3.org/Graphics/SVG/1.1/DTD/svg11.dtd">
<svg version="1.1" id="Capa_1" xmlns="http://www.w3.org/2000/svg" xmlns:xlink="http://www.w3.org/1999/xlink" x="0px" y="0px"
	 width="588.81px" height="588.81px" viewBox="0 0 588.81 588.81" style="enable-background:new 0 0 588.81 588.81;"
	 xml:space="preserve">
<g>
	<g>
		<path d="M585.831,10.021c-1.281-0.314-2.566-0.359-3.77-0.359l-1.51,0.008l-0.723-0.008c-0.392,0-0.791,0.065-1.555,0.208
			c-1.027-0.078-2.052-0.18-3.08-0.281c-1.652-0.167-3.309-0.335-4.961-0.408c-3.081-0.123-6.182-0.225-9.245,0.028
			c-1.551,0.127-2.995,0.551-4.395,0.963c-0.648,0.192-1.298,0.384-1.954,0.539c-1.021,0.241-2.044,0.465-3.068,0.69
			c-1.444,0.318-2.889,0.636-4.32,0.995c-1.429,0.355-2.84,0.759-4.256,1.159l-5.365,1.453c-2.411,0.628-4.826,1.261-7.201,2.016
			c-1.232,0.396-2.317,0.975-3.37,1.542c-0.579,0.31-1.154,0.62-1.75,0.89c-1.028,0.461-2.069,0.894-3.113,1.326
			c-1.652,0.685-3.305,1.371-4.904,2.162c-1.832,0.902-3.603,1.926-5.373,2.946l-3.072,1.754c-0.584,0.334-1.163,0.673-1.775,0.935
			c-5.92,2.489-10.616,6.552-14.047,9.812c-1.478,1.408-3.358,2.489-5.354,3.635l-1.207,0.702c-3.48,2.044-6.459,4.892-9.38,8.956
			c-1.388,1.934-3.102,3.884-5.239,5.977c-0.33,0.326-0.673,0.637-1.008,0.951c-1.611,1.485-3.431,3.166-4.23,5.892
			c-0.062,0.175-0.466,0.6-0.73,0.881c-0.384,0.404-0.763,0.816-1.065,1.256c-0.815,1.183-1.235,2.224-1.33,3.28
			c-0.061,0.69-0.004,1.371,0.058,1.979c0.012,0.139,0.032,0.269,0.045,0.396c-0.306,0.282-0.559,0.49-0.579,0.51
			c-0.249,0.11-0.49,0.237-0.719,0.371c-2.934,1.734-4.94,4.235-5.916,7.312c-0.085,0.126-0.216,0.241-0.338,0.359
			c-0.421,0.424-0.996,1-1.273,1.856c-0.106,0.334-0.18,0.665-0.18,0.767c-0.094,0.273-0.693,1.489-1.946,3.717
			c-1.13,2.003-2.179,4.06-3.153,6.153c-1.167,2.513-2.117,4.255-2.452,4.676c-1.004,1.273-1.334,2.354-1.004,3.317l0.062,0.147
			c-0.033,0.126-0.082,0.281-0.147,0.465c-0.171,0.465-0.44,1.004-0.689,1.506c-0.285,0.579-0.546,1.118-0.693,1.518
			c-0.24,0.653-0.367,1.367-0.375,2.252c-0.302,4.472-1.775,10.2-3.199,15.741c-1.077,4.194-2.194,8.536-2.835,12.444
			c-7.643,46.247-31.869,103.241-76.941,124.501c-17.295,8.16-37.226,11.815-56.691,10.392c-3.651-0.261-7.173-0.624-10.624-0.979
			c-6.292-0.649-12.236-1.265-18.425-1.265c-4.929,0-9.478,0.404-13.905,1.224c-11.073,2.057-22.138,4.162-33.203,6.263
			l-16.887,3.227c-39.049,13.33-72.616,43.685-89.584,80.861c-2.016,2.783-2.562,6.521-1.591,9.788
			c-1.693,0.841-3.06,2.48-3.696,4.599c-0.571,1.885-0.449,3.741,0.27,5.259c-1.392,1.016-2.501,2.488-3.154,4.255
			c-0.897,2.437-0.775,5.015,0.294,7.096l-0.922,2.934c-9.735,30.979-20.768,66.088-21.636,98.646
			c-0.069,0.057-0.327,0.179-0.51,0.269l-0.518,0.258c-1.077,0.562-1.607,1.619-2.154,2.717c-0.098,0.196-0.428,0.51-0.722,0.787
			c-0.273,0.258-0.547,0.522-0.934,0.951c-0.367,0.388-0.979,1.032-1.094,1.995c-0.359,2.979-0.657,5.969-0.942,8.955
			c-0.021,0.225-0.033,0.441-0.037,0.661c-0.18,0.307-0.637,0.935-1.293,1.596c-0.653,0.652-1.403,1.444-2.011,2.391
			c-0.743,1.146-1.367,2.37-1.991,3.595c-0.575,1.126-1.143,2.26-1.832,3.312c-0.718,1.098-1.763,2.216-3.289,3.525
			c-0.836,0.714-1.656,1.456-2.48,2.203c-2.366,2.142-4.602,4.166-7.144,5.517c-2.248,1.187-4.006,2.762-5.708,4.283
			c-1.334,1.191-2.595,2.317-4.011,3.195c-0.6,0.371-1.211,0.726-1.828,1.077c-0.681,0.396-1.363,0.783-2.032,1.203
			c-0.951,0.596-1.893,1.204-2.836,1.812c-1.424,0.922-2.844,1.841-4.3,2.701c-2.248,1.33-4.529,2.615-6.805,3.896l-3.558,2.012
			c-0.412,0.232-0.816,0.485-1.216,0.738c-0.534,0.339-1.073,0.682-1.636,0.946c-1.11,0.526-2.236,1.021-3.362,1.514
			c-1.616,0.71-3.228,1.42-4.798,2.212l-2.448,1.235c-4.284,2.154-8.715,4.383-12.93,6.888c-3.158,1.872-5.471,4.736-6.687,8.282
			c-0.502,1.448-0.445,2.86,0.159,3.97c0.51,0.938,1.399,1.611,2.497,1.885c1.281,0.314,2.566,0.359,3.77,0.359l1.51-0.008
			l0.722,0.008c0.392,0,0.792-0.065,1.554-0.208c1.028,0.077,2.052,0.18,3.081,0.281c1.652,0.168,3.309,0.335,4.961,0.408
			c1.681,0.069,3.366,0.131,5.047,0.131c1.403,0,2.807-0.045,4.198-0.159c1.55-0.127,2.995-0.551,4.394-0.963
			c0.649-0.192,1.297-0.384,1.955-0.539c1.02-0.24,2.044-0.465,3.068-0.689c1.444-0.318,2.889-0.637,4.321-0.995
			c1.428-0.355,2.844-0.759,4.26-1.159l5.361-1.452c2.412-0.629,4.827-1.261,7.201-2.016c1.228-0.396,2.317-0.975,3.366-1.538
			c0.579-0.311,1.159-0.624,1.758-0.894c1.028-0.461,2.073-0.897,3.117-1.326c1.648-0.686,3.301-1.375,4.896-2.162
			c1.832-0.901,3.603-1.926,5.374-2.946l3.072-1.754c0.583-0.335,1.163-0.673,1.775-0.935c5.92-2.488,10.616-6.553,14.047-9.812
			c1.477-1.407,3.358-2.488,5.353-3.635l1.208-0.702c3.48-2.044,6.458-4.892,9.38-8.955c1.387-1.935,3.101-3.885,5.239-5.978
			c0.331-0.326,0.673-0.637,1.008-0.951c1.611-1.484,3.431-3.166,4.231-5.891c0.061-0.176,0.465-0.604,0.734-0.89
			c0.379-0.4,0.759-0.808,1.061-1.249c0.286-0.412,0.535-0.819,0.739-1.24c0.175-0.354,1.289-2.061,2.713-3.917
			c17.769-23.227,24.664-51.889,31.331-79.608c8.666-36.022,16.851-70.05,46.72-93.963c13.219-10.587,29.155-18.254,46.087-22.175
			c11.853-2.745,21.44-4.08,29.303-4.08c6.287,0,11.354,0.874,15.063,2.591c0.204,0.095,0.424,0.188,0.652,0.266
			c0.123,0.049,0.339,0.184,0.543,0.318c0.367,0.236,0.738,0.461,1.134,0.628c0.404,0.172,0.833,0.29,1.294,0.392l0.686,0.082
			c0.767,0,1.473-0.294,1.99-0.828c0.217-0.229,0.388-0.481,0.515-0.763c0.155-0.024,0.351-0.041,0.583-0.041
			c0.996,0.004,3.211,0.403,4.831,0.697l2.113,0.363c0.718,0.114,1.428,0.232,2.134,0.375l0.714,0.074
			c1.135-0.005,2.167-0.515,2.853-0.906c2.925-1.685,8.115-1.714,13.133-1.746c4.134-0.021,8.405-0.049,11.824-0.987
			c18.173-1.453,36.141-6.977,51.682-15.835c19.918-7.27,37.042-19.902,55.68-41.146c0.607-0.677,1.525-1.701,1.432-3.043
			c-0.057-0.869,0.099-1.33,1.191-1.787c1.146-0.478,4.194-1.75,3.872-5.553c0.065-0.245,0.47-0.747,0.693-0.869
			c2.444-1.241,3.538-3.097,3.346-5.684c-0.069-0.934,0.221-1.102,0.698-1.265c1.211-0.417,3.904-1.795,2.77-5.749
			c-0.134-0.469-0.171-0.702-0.229-0.722c0.07-0.045,0.209-0.122,0.453-0.22c4.133-1.591,4.276-3.57,3.052-7.156
			c-0.065-0.188-0.126-0.379-0.188-0.58c1.354-0.118,2.615-0.812,3.428-1.901c0.894-1.191,1.162-2.705,0.734-4.158
			c-0.208-0.706-0.506-1.383-0.824-2.056c0.942-0.196,1.868-0.775,2.623-1.665c0.608-0.722,1.273-1.603,1.596-2.701
			c0.313-1.085,0.22-2.175,0.085-3.101c-0.139-0.963-0.673-1.672-1.179-2.223c0.869-0.249,1.701-0.902,2.395-1.897
			c0.616-0.885,1.106-1.648,1.481-2.513c0.583-1.322,0.285-3.35-0.657-4.525c-0.416-0.514-0.705-1.024-0.894-1.575
			c1.869-0.033,3.578-1.591,4.174-3.811c0.481-1.791,0.155-3.476-0.995-5.149c-0.037-0.053-0.106-0.224-0.147-0.775
			c1.314,0.118,2.514-0.559,3.02-1.689c0.123-0.265,0.249-0.542,0.408-0.799c1.146-1.889,1.118-3.709-0.086-5.557
			c-0.384-0.592-0.514-0.926-0.579-0.991c0.131-0.094,0.388-0.216,0.534-0.286c0.421-0.204,1.314-0.628,1.624-1.632
			c0.71-0.546,1.175-1.199,1.379-1.954c0.412-1.51-0.354-2.791-1.044-3.945l-0.343-0.551c-0.192-0.306-0.485-0.747-0.58-0.632
			c0,0,0.074-0.098,0.339-0.278c0.833-0.563,1.028-1.432,1.069-2.06c0.616-0.322,1.102-0.861,1.354-1.514
			c0.322-0.829,0.257-1.783-0.18-2.615c-0.253-0.478-0.514-0.926-0.836-1.33c-0.262-0.331-0.311-0.604-0.27-0.759
			c0.073-0.269,0.787-0.791,1.126-1.044c0.498-0.363,0.967-0.709,1.306-1.199c0.31-0.441,0.6-0.885,0.865-1.354
			c0.437-0.788,0.615-1.759,0.481-2.595c-0.176-1.098-0.376-2.191-0.584-3.313c-0.036-0.188-0.062-0.355-0.081-0.506
			c1.379-0.653,2.346-2.219,2.758-2.986c0.865-1.636,0.771-3.309-0.281-4.965c-0.327-0.514-0.551-1.163-0.764-1.963
			c1.273-0.424,2.403-1.652,3.085-3.415c0.734-1.877,0.489-3.607-0.751-5.275c-0.665-0.898-0.44-1.612,1.257-3.888
			c1.411-1.897,1.591-3.95,0.53-6.104c-0.318-0.641-0.367-1.273,0.375-2.448c1.897-3.003,3.75-6.557,1.918-10.874
			c0.053-0.134,0.151-0.351,0.322-0.665c0.314-0.575,0.661-1.13,1.008-1.689c1.542-2.477,3.468-5.565,2.003-9.812
			c-0.248-0.722-0.261-1.628-0.269-2.754c0.069-0.061,0.326-0.184,0.51-0.269l0.522-0.261c1.077-0.563,1.607-1.62,2.154-2.717
			c0.098-0.196,0.428-0.51,0.722-0.788c0.273-0.257,0.547-0.522,0.935-0.951c0.367-0.388,0.979-1.032,1.093-1.995
			c0.359-2.978,0.657-5.969,0.943-8.956c0.02-0.224,0.032-0.44,0.036-0.661c0.18-0.306,0.637-0.934,1.294-1.595
			c0.652-0.653,1.403-1.444,2.011-2.391c0.743-1.146,1.367-2.371,1.991-3.595c0.575-1.126,1.143-2.26,1.832-3.313
			c0.718-1.097,1.767-2.219,3.293-3.525c0.824-0.71,1.64-1.444,2.456-2.183c2.374-2.15,4.618-4.182,7.168-5.528
			c2.248-1.191,4.011-2.766,5.712-4.292c1.335-1.191,2.591-2.313,4.007-3.19c0.6-0.372,1.212-0.727,1.828-1.077
			c0.682-0.396,1.362-0.783,2.031-1.204c0.951-0.596,1.894-1.204,2.836-1.812c1.424-0.922,2.844-1.84,4.301-2.701
			c2.248-1.33,4.528-2.615,6.805-3.896l3.559-2.012c0.411-0.232,0.815-0.485,1.216-0.738c0.534-0.339,1.072-0.682,1.636-0.947
			c1.109-0.526,2.235-1.02,3.362-1.514c1.615-0.71,3.227-1.42,4.798-2.211l2.448-1.236c4.283-2.154,8.715-4.382,12.929-6.887
			c3.158-1.873,5.472-4.737,6.688-8.283c0.502-1.448,0.444-2.86-0.159-3.97C587.818,10.964,586.933,10.294,585.831,10.021z"/>
	</g>
</g>
<g>
</g>
<g>
</g>
<g>
</g>
<g>
</g>
<g>
</g>
<g>
</g>
<g>
</g>
<g>
</g>
<g>
</g>
<g>
</g>
<g>
</g>
<g>
</g>
<g>
</g>
<g>
</g>
<g>
</g>
</svg>
