<?xml version="1.0" encoding="iso-8859-1"?>
<!-- Generator: Adobe Illustrator 16.0.0, SVG Export Plug-In . SVG Version: 6.00 Build 0)  -->
<!DOCTYPE svg PUBLIC "-//W3C//DTD SVG 1.1//EN" "http://www.w3.org/Graphics/SVG/1.1/DTD/svg11.dtd">
<svg version="1.1" id="Capa_1" xmlns="http://www.w3.org/2000/svg" xmlns:xlink="http://www.w3.org/1999/xlink" x="0px" y="0px"
	 width="567.845px" height="567.845px" viewBox="0 0 567.845 567.845" style="enable-background:new 0 0 567.845 567.845;"
	 xml:space="preserve">
<g>
	<path d="M307.646,506.16c2.844-8.821,19.352-17.671,25.635-24.663c-7.769,1.742-15.655,4.193-23.713,3.312
		c-10.927-1.188-5.814-8.703,0.84-11.641c15.855-7.005,35.745-13.391,42.04-31.485c-17.405-0.212-34.354,4.949-51.742,4.949
		c-16.59,0-32.714-1.105-48.948-4.651c-11.028-2.411-22.04-5.903-33.24-6.87c-8.968-0.457-11.53,3.708-18.287,9.322
		c-29.939,24.929-56.871,40.519-97.014,41.918c-5.161,0.172-37.638,4.211-30.82-8.058c7.352-13.477,25.092-11.845,32.791-23.823
		c-9.519,0-26.218,0.808-33.631-6.022c-8.837-8.233,21.55-15.026,25.39-15.969c14.521-3.565,28.919-7.617,43.346-11.53
		c-20.861,0-41.73,0-62.587,0c-9.054,0-16.838-0.791-25.879-2.473c-9.355-1.705-20.021-4.504-29.303-7.421
		c-41.044-12.893-18.18-17.422,6.953-13.84c44.876,6.397,93.138-0.016,134.819-19.987c35.924-17.397,66.414-43.872,102.926-60.359
		c45.766-20.711,93.881-29.54,143.555-21.237c18.96,3.175,42.114,10.013,61.004,3.619c21.024-7.014,40.739-23.595,51.028-43.191
		c19.132-36.492,14.814-94.407,2.71-132.506c-2.293-7.177-5.451-16.597-12.95-19.918c-8.617-3.831-17.891-2.93-26.5-7.462
		c-8.05-4.227-15.455-9.551-24.646-11.114c-4.179-0.714-5.019,0.477-6.961-2.293c-0.33-0.89,0.375-3.26,1.57-3.26
		c4.949-3.149,21.159,0,27.263,0c-9.18-2.387-19.359-3.133-28.833-3.133c-14.187-9.196,19.979-15.765,26.026-17.144
		c16.609-3.803,32.216-5.741,46.858,5.059c16.006,11.804,24.668,31.265,30.625,49.654c8.882,27.475,9.873,54.097,9.873,82.575
		c0,27.536,0.282,54.264-7.123,81.094c-9.254,33.53-26.238,67.843-53.04,90.801c-10.421,8.923-22.456,17.679-34.456,24.317
		c-12.685,7.054-19.571,11.105-21.098,26.356c-1.604,14.623-5.255,27.01-18.001,35.736c-12.819,8.772-28.274,12.583-41.444,20.906
		c-15.284,9.678-29.608,21.159-46.096,28.801C343.179,506.111,303.224,518.616,307.646,506.16"/>
</g>
<g>
</g>
<g>
</g>
<g>
</g>
<g>
</g>
<g>
</g>
<g>
</g>
<g>
</g>
<g>
</g>
<g>
</g>
<g>
</g>
<g>
</g>
<g>
</g>
<g>
</g>
<g>
</g>
<g>
</g>
</svg>
