<?xml version="1.0" encoding="iso-8859-1"?>
<!-- Generator: Adobe Illustrator 16.0.0, SVG Export Plug-In . SVG Version: 6.00 Build 0)  -->
<!DOCTYPE svg PUBLIC "-//W3C//DTD SVG 1.1//EN" "http://www.w3.org/Graphics/SVG/1.1/DTD/svg11.dtd">
<svg version="1.1" id="Capa_1" xmlns="http://www.w3.org/2000/svg" xmlns:xlink="http://www.w3.org/1999/xlink" x="0px" y="0px"
	 width="593.63px" height="593.63px" viewBox="0 0 593.63 593.63" style="enable-background:new 0 0 593.63 593.63;"
	 xml:space="preserve">
<g>
	<path d="M585.374,146.995c-0.678-2.538-2.15-2.942-4.342-1.179c-0.351,0.282-0.8,0.22-1.028-0.167
		c-0.808-1.375-1.619-2.758-2.46-4.186c-0.229-0.387-0.481-1.048-0.652-1.432c-0.103-0.229-0.229-0.449-0.384-0.657
		c-0.114-0.155-0.232-0.306-0.351-0.457c-0.2-0.249-0.547-0.754-0.775-1.146c-0.906-1.538-1.856-3.158-2.881-4.908
		c-0.229-0.387-0.771-0.747-1.22-0.804c-5.373-0.673-11.901-1.489-18.539-2.321c-0.449-0.057-1.065-0.372-1.433-0.628
		c-0.71-0.494-1.604-0.804-2.685-0.824c-15.328-0.302-30.841,3.55-44.146,11.224c-13.64,7.866-23.876,19.208-32.709,32.081
		c-15.717,22.897-34.048,55.786-67.174,48.373c-9.747-2.183-18.861-6.234-28.249-9.539c-8.576-3.02-17.328-5.549-26.215-7.462
		c-17.833-3.835-36.156-5.684-54.398-5.21c-14.174,0.367-28.278,2.003-42.109,4.888c-0.441,0.094-1.134,0.037-1.563-0.106
		c-0.885-0.29-2.105-0.628-2.285-0.49c-2.913,2.256-6.23,2.301-9.747,2.75c-1.791,0.229-4.619,1.628-5.883,2.317
		c-0.396,0.216-0.812,0.09-1.069-0.249c-0.257-0.338-0.812-0.49-1.236-0.334c-1.347,0.481-2.689,0.963-4.035,1.444
		c-0.424,0.151-0.983-0.037-1.383-0.245c-1.048-0.547-2.999-0.759-3.419-0.09c-1.595,2.538-5.871,3.647-8.723,3.251
		c-2.032-0.281-4.276,0.861-6.401,1.461c-1.514,0.424-2.958,1.118-4.484,1.481c-5.981,1.428-12.183,2.228-17.919,4.316
		c-1.416,0.514-2.835,0.881-4.259,1.171c-0.441,0.089-1.065-0.106-1.432-0.367c-1.167-0.829-2.632-1.2-3.974-0.645
		c-21.432,8.813-44.639,4.092-66.753,1.032c-11.95-1.652-24.272-2.86-36.25-1.775c-0.449,0.041-1.179,0.021-1.624-0.037
		c-6.948-0.889-13.852,0.151-20.755,1.2c-14.129,2.142-27.732,5.928-40.437,12.656c-5.088,2.697-7.76,7.229-9.743,12.264
		c-1.061,2.689,1.449,5.431,4.239,6.418c2.705,0.959,5.039,2.962,7.544,4.5c0.437,0.269,1.163,0.804,1.318,0.677
		c2.554-2.057,4.594,0.906,6.973,0.665c1.673-0.171,3.509,0.494,5.059,0.045c5.565-1.612,11.31-2.966,16.479-5.467
		c8.948-4.325,17.503-9.449,26.243-14.199c4.056-2.203,8.152-4.325,12.252-6.438c0.437-0.225,1.073-0.277,1.554-0.155
		c4.606,1.171,9.192,2.419,13.799,3.603c6.177,1.583,12.342,3.227,18.552,4.667c10.624,2.46,21.236,5.014,31.938,7.083
		c8.666,1.673,17.5,2.489,26.189,4.047c11.783,2.118,23.954,3.007,34.631,9.176c3.855,2.228,7.76,4.557,10.225,8.596
		c3.553,5.827,8.331,9.466,15.573,10.151c8.507,0.804,12.15,4.875,13.594,13.17c0.853,4.904,2.02,9.76,2.644,14.688
		c0.175,1.403-0.624,3.599-1.726,4.386c-10.012,7.14-15.202,17.393-18.568,28.698c-2.383,8.001-7.254,14.288-12.901,19.977
		c-6.091,6.136-12.391,12.048-20.098,16.381c-5.61,3.153-8.083,9.074-9.143,15.116c-1.816,10.322-4.517,20.376-9.291,29.637
		c-2.036,3.95-6.181,6.843-10.686,8.111c-1.477,0.416-3.288-0.375-5.01-0.849c-0.432-0.118-0.865,0.172-0.832,0.62
		c0.22,2.795,3.823,5.818,7.707,5.822c3.786,0.004,4.251,1.244,3.615,5.161c-0.718,4.411-0.575,8.964-0.742,13.46
		c-0.021,0.616,0.134,1.448,0.542,1.836c3.427,3.28,3.052,7.096,1.75,11.371c-0.131,0.433,0.122,0.787,0.571,0.759
		c3.525-0.225,5.349-2.415,6.875-5.345c0.208-0.399,0.547-0.412,0.795-0.037c3.574,5.382,8.695,3.688,13.709,3.24
		c3.219-0.286,6.508,0.195,10.057,0.433c0.449,0.028,0.616-0.258,0.375-0.637c-0.282-0.437-0.575-0.894-0.877-1.358
		c-0.245-0.38-0.322-1.057-0.44-1.494c-0.094-0.351-0.327-0.673-0.734-0.909c-0.086-0.049-0.171-0.094-0.261-0.139
		c-0.147-0.073-0.49-0.421-0.82-0.727c-1.673-1.559-4.031-1.954-6.369-2.265c-5.251-0.689-6.247-1.183-6.704-6.479
		c-0.31-3.591,0.453-7.291,0.865-10.927c0.404-3.541,1.363-7.062,1.391-10.6c0.078-10.298,3.052-19.857,6.834-29.245
		c0.592-1.473,1.661-2.763,2.566-4.101c1.028-1.521,2.636-2.86,3.097-4.528c2.566-9.303,9.768-14.921,16.365-20.968
		c7.887-7.226,16.773-13.007,26.52-17.466c7.577-3.469,15.112-7.018,22.62-10.625c1.367-0.656,2.566-1.652,4.386-2.93
		c0.367-0.257,0.755-0.109,0.861,0.331c1.334,5.472,3.117,10.485,3.464,15.598c0.502,7.422-0.012,14.933-0.453,22.387
		c-0.171,2.86-1.02,5.79-2.113,8.462c-3.884,9.511-3.904,19.046,0.902,27.977c2.868,5.329,2.354,10.515,2.068,15.925
		c-0.13,2.468-0.416,4.944-0.853,7.381c-0.334,1.856-0.926,3.668-1.53,5.817c-0.122,0.433,0.147,0.764,0.592,0.678
		c2.387-0.474,4.08-2.285,5.79-5.157c0.229-0.388,0.408-0.339,0.42,0.11c0.057,2.443,0.334,4.202-0.086,5.781
		c-1.318,4.989,1.403,8.49,3.888,12.179c0.771,1.143,1.632,2.419,1.82,3.721c0.498,3.525,2.44,4.614,5.802,4.582
		c4.116-0.041,8.237,0.371,12.354,0.534c0.963,0.037,2.04,0.114,2.88-0.253c3.419-1.473,6.667-1.579,9.653,0.506
		c0.371,0.258,0.849,0.188,1.114-0.175c4.108-5.631,8.254-2.081,12.982,0.559c0.392,0.221,0.514,0.086,0.257-0.285
		c-3.312-4.688-7.193-7.059-12.02-7.405c-0.449-0.033-0.478-0.176-0.045-0.298c1.673-0.47,3.488-0.392,5.153,0.339
		c1.905,0.836,3.565-1.971,1.644-2.812c-2.945-1.293-6.115-1.354-8.927-0.217c-0.416,0.172-0.922,0.327-1.138,0.318
		c-0.131-0.004-0.262-0.012-0.396-0.016c-0.742-0.024-1.497,0.31-2.235,0.273c-8.928-0.412-10.18-1.661-13.66-10.147
		c-3.692-9.005-8.197-17.715-9.796-27.417c-0.783-4.754-0.788-9.629-1.261-14.439c-0.225-2.285-0.755-4.533-1.098-6.81
		c-0.073-0.494,0.053-1.016,0.102-1.526c0.294-3.093,0.996-6.209,0.812-9.273c-0.877-14.949,1.713-29.119,8.776-42.399
		c2.288-4.309,5.148-8.454,6.589-13.035c1.958-6.243,3.317-12.787,3.945-19.299c0.429-4.447,2.876-5.929,6.259-7.201
		c1.971-0.742,3.884-1.114,5.7,0.396c0.347,0.286,0.362,0.853,0.085,1.208c-2.814,3.606-5.01,7.471-2.994,12.452
		c0.167,0.416,0.502,0.42,0.718,0.024c1.362-2.518,2.636-4.863,3.9-7.197c0.217-0.396,0.579-0.637,0.812-0.538
		c0.233,0.098,0.481,0.538,0.552,0.982c0.139,0.898,0.272,1.771,0.392,2.521c0.069,0.445,0.334,0.506,0.591,0.139
		c3.24-4.614,6.521-9.29,9.805-13.97c0.257-0.367,0.718-0.567,1.024-0.44c0.306,0.127,0.481,0.583,0.396,1.028
		c-1.024,5.193-1.726,10.31,3.717,13.978c0.375,0.253,0.547,0.103,0.396-0.322c-2.574-7.258,1.714-12.587,5.178-18.723
		c0.221-0.392,0.461-0.359,0.547,0.085c0.396,2.125,0.746,3.991,1.138,6.087c0.082,0.444,0.515,0.845,0.959,0.897
		c0.91,0.106,1.942,0.229,3.061,0.359c0.448,0.053,0.909,0.448,0.922,0.901c0.081,2.452-2.574,3.562-4.468,5.067
		c-1.452,1.154-2.982,2.244-4.235,3.546c-0.31,0.326-0.681,0.714-0.808,0.877c-0.126,0.163-0.416,0.612-0.648,1
		c-0.519,0.856-0.897,1.815-1.081,2.934c-0.229,1.387-0.123,2.831-0.069,4.01c0.021,0.449,0.302,0.584,0.641,0.29
		c2.889-2.505,5.561-5.369,8.825-7.148c3.157-1.722,4.794-5.817,8.481-6.593c0.441-0.094,0.972,0.122,1.176,0.416
		s0.081,0.747-0.277,1.016c-2.036,1.547-4.06,3.109-6.12,4.623c-5.174,3.803-7.924,11.71-5.94,18.095
		c0.135,0.429,0.362,0.424,0.489-0.013c0.31-1.085,0.534-1.86,0.747-2.64c1.113-4.039,3.268-7.254,7.123-9.176
		c0.661-0.33,1.379-0.783,1.775-1.375c2.958-4.463,7.535-6.699,12.061-9.082c1.399-0.734,2.541-1.958,3.786-2.975
		c1.746-1.424,3.513-2.831,5.218-4.308c1.767-1.53,3.468-3.142,5.202-4.709c1.493-1.35,2.986-2.692,4.479-4.039
		c0.318-0.31,0.771-0.392,0.992-0.188c0.22,0.204,0.216,0.686-0.013,1.077c-0.478,0.824-0.942,1.661-1.501,2.423
		c-2.889,3.922-5.753,7.867-8.772,11.686c-4.092,5.174-4.725,10.804-2.469,16.838c0.38,1.013,1.073,1.906,2.045,2.689
		c0.351,0.281,0.64,0.122,0.624-0.327c-0.049-1.187-0.086-2.378-0.208-3.558c-0.47-4.431,1.587-7.679,4.635-10.592
		c1.13-1.081,2.321-2.378,2.799-3.802c1.848-5.541,5.977-9.192,9.571-13.509c4.011-4.81,10.812-8.895,9.058-17.046
		c-0.028-0.139-0.012-0.286,0.013-0.392c0.053-0.212,0.375-0.037,0.8-0.191c4.993-1.812,9.661-3.101,13.811-5.345
		c2.317-1.252,3.717-4.276,5.382-6.609c0.607-0.849,0.864-1.991,1.13-3.04c2.468-9.829,10.049-13.811,18.866-15.68
		c16.898-3.582,28.311-13.611,35.675-28.825c4.953-10.236,9.458-20.726,15.052-30.6c4.275-7.548,9.045-14.88,16.691-20.025
		c4.985-3.354,10.102-5.137,15.777-4.961c13.623,0.42,22.7,7.315,35.124,13.113c4.121,1.922,7.997,1.514,10.82-1.399
		c0.314-0.322,0.236-0.808-0.146-1.044c-0.062-0.037-0.123-0.078-0.188-0.114c-0.383-0.232-0.334-0.473,0.103-0.596
		c0.358-0.102,0.686-0.232,0.942-0.404c1.094-0.73-1.575-0.865-3.893-2.779c-0.347-0.286-0.624-0.612-0.652-0.693
		c-0.017-0.049-0.033-0.098-0.054-0.143c-0.016-0.037-0.024-0.102-0.036-0.167c-0.017-0.094,0.306-0.033,0.742,0.078
		c0.555,0.143,1.139,0.208,1.727,0.134c1.28-0.159,0.607-0.485-0.511-1.424c-0.347-0.29-0.787-0.856-1.012-1.249l-0.665-1.171
		c-0.225-0.392-0.053-0.62,0.388-0.583c0.261,0.021,0.53,0.021,0.796-0.012c1.542-0.192,0.265-0.624-1.229-2.093
		c-0.322-0.314-0.562-0.82-0.571-1.098c-0.008-0.277,0.253-0.449,0.588-0.437c0.2,0.008,0.404,0.004,0.608-0.021
		c1.37-0.171,0.514-0.51-0.743-1.607c-0.339-0.298-0.624-0.926-0.682-1.375c-0.036-0.314-0.081-0.608-0.134-0.873
		c-0.086-0.441,0.085-0.58,0.477-0.355c0.689,0.396,1.689,0.922,2.787,1.493c0.399,0.208,0.767,0.734,0.815,1.183
		c0.099,0.918,0.163,1.245,0.833,0.441c0.073-0.09,0.139-0.184,0.199-0.282c0.103-0.159,0.453-0.151,0.796,0.029
		c0.343,0.179,0.71,0.689,0.783,1.134c0.273,1.709,0.073,2.672,0.976,1.591c0.171-0.204,0.31-0.424,0.433-0.653
		c0.204-0.383,0.497-0.404,0.71-0.008c0.195,0.367,0.432,0.812,0.624,1.175c0.212,0.4,0.452,1.077,0.51,1.526
		c0.191,1.449,0.103,2.187,0.926,1.196c0.168-0.2,0.307-0.417,0.425-0.641c0.2-0.375,0.522-0.408,0.779-0.041
		c0.008,0.012,0.017,0.021,0.024,0.033c0.257,0.371,0.461,1.041,0.429,1.489c-0.147,2.007-0.751,3.317,0.184,2.905
		c0.318-0.139,0.636-0.379,0.95-0.673c0.331-0.311,0.763-0.286,1.073,0.045c1.302,1.383,2.619,1.077,3.766-0.816
		c1.261-2.089,2.289-4.32,3.505-6.732c0.204-0.404,0.024-0.836-0.396-1.003c-5.537-2.183-6.026-7.287-7.523-10.771
		C585.305,148.798,585.59,147.815,585.374,146.995z"/>
</g>
<g>
</g>
<g>
</g>
<g>
</g>
<g>
</g>
<g>
</g>
<g>
</g>
<g>
</g>
<g>
</g>
<g>
</g>
<g>
</g>
<g>
</g>
<g>
</g>
<g>
</g>
<g>
</g>
<g>
</g>
</svg>
