<?xml version="1.0" encoding="iso-8859-1"?>
<!-- Generator: Adobe Illustrator 16.0.0, SVG Export Plug-In . SVG Version: 6.00 Build 0)  -->
<!DOCTYPE svg PUBLIC "-//W3C//DTD SVG 1.1//EN" "http://www.w3.org/Graphics/SVG/1.1/DTD/svg11.dtd">
<svg version="1.1" id="Capa_1" xmlns="http://www.w3.org/2000/svg" xmlns:xlink="http://www.w3.org/1999/xlink" x="0px" y="0px"
	 width="568.208px" height="568.208px" viewBox="0 0 568.208 568.208" style="enable-background:new 0 0 568.208 568.208;"
	 xml:space="preserve">
<g>
	<g>
		<path d="M567.3,222.615c0.082-1.085,0.163-2.17,0.245-3.256c1.428-19.723,1.673-41.13-11.253-57.434
			c-5.32-6.712-12.774-12.105-21.313-13.705c-10.078-1.889-20.14,0.571-29.286,4.855c-0.151,0.069-0.303,0.143-0.449,0.216
			c-3.007-0.751-6.132-1.106-9.327-1.044c-8.988,0.175-17.833,2.884-25.708,7.152c-15.777,8.552-27.813,23.068-34.509,39.609
			c-7.764,19.184-8.812,40.845-5.083,61.073c1.754,9.527,5.018,19.083,11.799,26.25c6.022,6.364,13.811,10.506,21.571,14.357
			c3.945,1.954,7.923,3.864,11.742,6.055c3.79,2.171,7.739,4.529,10.567,7.932c1.559,1.877,2.656,4.153,2.717,6.45
			c-2.272,3.183-5.602,5.479-9.686,5.603c-0.127,0.004-0.249,0.016-0.367,0.036c-1.081-1.729-2.342-3.374-3.692-4.908
			c-1.375-1.559-2.958-2.855-5.071-3.468c-6.328-1.824-12.652-2.061-19.046-0.376c-1.04,0.273-2.166,0.359-3.247,0.331
			c-5.859-0.163-11.719-0.453-17.581-0.563c-2.896-0.053-5.798,0.322-8.694,0.277c-10.563-0.167-21.122-0.538-31.682-0.615
			c-5.157-0.037-10.326,0.317-15.476,0.705c-1.424,0.106-2.774,1.012-4.186,1.478c-0.738,0.244-1.526,0.444-2.297,0.465
			c-0.8,0.024-1.604-0.27-2.407-0.29c-9.499-0.244-18.997-0.551-28.495-0.771l20.51-0.253c-10.596-0.099-21.195-0.062-31.791,0.041
			c-1.134-0.017-2.269-0.033-3.406-0.041c-4.786-0.045-9.572-0.062-14.358-0.058c-1.864-0.339-3.594-1.012-5.263-2.149
			c-4.309-2.946-8.621-5.888-12.995-8.735c-7.572-4.925-15.32-9.584-22.75-14.709c-7.062-4.875-13.941-10.04-19.988-16.209
			c-2.028-2.069-4.223-3.99-6.442-5.855c-7.976-6.699-15.561-13.774-22.036-21.975c-4.207-5.328-8.339-10.722-12.705-15.916
			c-3.088-3.676-6.234-7.36-10.49-9.825h-4.529c-1.211,0.931-2.656,1.677-3.574,2.84c-1.085,1.375-1.995,1.412-3.17,0.4
			c-2.122-1.828-4.708-1.783-7.25-1.783c-0.608,0-1.444,0.412-1.779,0.902c-1.53,2.24-3.325,4.418-4.276,6.903
			c-0.062,0.167-0.123,0.331-0.188,0.498c-3.068-3.652-6.206-7.312-10.433-9.76h-4.528c-1.212,0.931-2.656,1.677-3.57,2.84
			c-1.089,1.375-1.995,1.412-3.17,0.4c-2.122-1.828-4.708-1.783-7.25-1.783c-0.608,0-1.444,0.412-1.779,0.902
			c-1.53,2.24-3.325,4.419-4.276,6.903c-2.868,7.511-5.394,15.157-8.045,22.75c-2.75,7.862-5.508,15.725-8.234,23.591
			c-0.836,2.415-0.792,2.423-3.186,1.86c-0.135-0.033-0.311,0.098-0.82,0.277c0.632,1.253,1.228,2.428,1.836,3.631
			c-0.151,0.077-0.293,0.171-0.449,0.225c-0.955,0.306-1.914,0.604-2.873,0.901c0.628,0.767,1.257,1.529,2,2.436
			c-0.743,1.754-1.612,3.704-2.395,5.691c-0.563,1.437-1.171,2.444-2.864,1.203c-0.257-0.188-0.828,0.05-1.252,0.09
			c0.085,0.425,0.069,0.91,0.282,1.261c0.408,0.678,0.942,1.277,1.514,2.024c-0.669,0.383-1.265,0.632-1.75,1.02
			c-0.682,0.543-1.277,1.188-1.91,1.791c0.686,0.371,1.371,0.747,2.273,1.236c-0.992,2.518-2.146,5.227-3.113,8.001
			c-0.481,1.375-1.081,1.889-2.55,1.424c-0.727-0.229-1.583-0.041-2.383-0.041c-0.057,0.163-0.114,0.322-0.171,0.486
			c0.75,0.791,1.505,1.578,2.321,2.439c-1.306,0.555-2.468,1.053-3.635,1.546c0.029,0.188,0.057,0.372,0.086,0.56
			c0.759,0.167,1.55,0.249,2.256,0.538c0.44,0.18,1.057,0.661,1.073,1.024c0.041,1.22-1.648,2.868-2.901,2.905
			c-0.302,0.008-0.604,0.02-0.902,0.028l-7.972,0.098c-21.816-1.188-43.648-1.481-65.488-1.012
			c-8.181,0.176-15.843,2.37-21.947,8.201c-2.966,2.831-5.25,6.164-4.092,10.665c0.457,1.778,0.722,3.725,1.648,5.246
			c4.961,8.156,11.75,14.109,20.939,17.296c7.389,2.562,14.659,5.405,22.313,7.192c10.812,2.525,21.652,4.672,32.807,4.77
			c0.726,0.004,1.453,0.18,2.179,0.273l-0.008,0.343l-5.471,0.657c-0.024,0.171-0.049,0.347-0.073,0.518
			c1.473,0.861,2.946,1.723,4.431,2.591c-2.26,2.163-5.516,1.645-7.479,4.391c1.995,0.159,3.599,0.285,5.23,0.416
			c-0.722,3.089-1.673,3.913-4.402,4.031c-0.926,0.041-1.869-0.013-2.783,0.114c-0.51,0.069-0.987,0.42-1.477,0.645
			c0.33,0.493,0.559,1.171,1.02,1.44c0.783,0.457,1.75,0.596,2.578,0.987c0.596,0.281,1.094,0.767,1.632,1.158
			c-0.445,0.56-0.784,1.306-1.359,1.641c-1.249,0.722-2.615,1.24-3.937,1.823c-0.926,0.408-1.865,0.783-3.166,1.33
			c0.836,0.689,1.326,1.094,1.828,1.51c-0.09,0.143-0.204,0.277-0.273,0.429c-0.22,0.489-0.424,0.983-0.636,1.477
			c0.539,0.069,1.081,0.217,1.616,0.188c0.775-0.04,1.546-0.204,2.493-0.338c-1.048,1.656-1.812,3.215-2.909,4.476
			c-0.742,0.849-1.909,1.688-2.978,1.827c-4.37,0.567-8.768,0.906-13.162,1.241c-3.692,0.281-7.466,0.069-11.065,0.779
			c-2.75,0.542-5.427,0.934-8.213,0.864c-4.708-0.122-8.445,2.583-12.44,4.476c-1.109,0.526-1.301,1.478,0.233,2.045
			c-0.559,1.611-0.698,3.052,1.391,3.594c0.102,0.029,0.225,0.347,0.188,0.498c-0.318,1.428,0.829,1.383,1.416,1.064
			c0.832-0.444,1.869-1.235,2.04-2.044c0.449-2.134,1.799-3.382,3.529-4.234c2.027-1,4.141-1.955,6.72-1.51
			c-0.808,1.95,0.232,2.387,1.668,2.346c2.024-0.057,4.04-0.225,6.063-0.326c0.571-0.028,1.146,0.017,1.722,0.008
			c1.771-0.021,3.774,0.474,5.263-0.184c1.498-0.661,2.97-0.885,4.447-0.926c-0.604,0.534-0.502,1.252,0.747,1.714
			c-0.559,1.611-0.698,3.052,1.392,3.594c0.102,0.029,0.224,0.347,0.188,0.498c-0.318,1.428,0.828,1.383,1.416,1.064
			c0.833-0.444,1.869-1.235,2.04-2.044c0.379-1.812,1.412-2.986,2.779-3.818v1.143c0.636-0.172,1.293-0.294,1.901-0.539
			c0.539-0.216,1.02-0.571,1.526-0.86l0.146,0.253c-0.542,0.579-1.085,1.158-1.62,1.729c0.632,1.379,1.538,1.232,2.468,0.637
			c1.114-0.71,2.187-1.433,3.06-2.354c0.343,0.335,0.951,0.429,1.657,0.412c2.023-0.057,4.039-0.225,6.062-0.326
			c0.571-0.028,1.146,0.017,1.722,0.008c1.771-0.021,3.774,0.474,5.263-0.184c2.729-1.203,5.381-0.963,8.144-0.795
			c1.689,0.102,3.391,0.02,4.867,0.02v2c0.637-0.172,1.293-0.294,1.901-0.539c0.539-0.216,1.02-0.571,1.526-0.861l0.147,0.254
			c-0.542,0.579-1.085,1.158-1.62,1.729c0.632,1.379,1.538,1.232,2.468,0.637c2.093-1.339,4.056-2.697,4.761-5.402
			c0.502-1.934,1.571-3.729,2.452-5.553c3.607-7.507,7.254-14.994,10.849-22.505c0.6-1.253,1.171-2.518,1.718-3.795
			c0.233,0.094,0.478,0.176,0.734,0.249c2.163,0.624,4.321,1.272,6.442,2.023c0.53,0.188,0.971,0.759,1.342,1.236
			c1.375,1.783,3.158,2.913,5.374,3.215c1.665,0.225,3.354,0.258,5.035,0.352c6.716,0.362,13.452,0.493,20.143,1.126
			c9.094,0.86,18.172,1.338,27.295,0.641c1.926-0.147,3.962-0.318,4.357,2.407c0.017,0.098,0.278,0.163,0.151,0.094
			c0.865-0.445,1.505-1.017,2.195-1.081c2.068-0.196,4.19-0.457,6.238-0.229c7.687,0.856,15.374,1.134,23.113,1.183
			c6.581,0.041,13.264,0.38,19.698,1.628c5.544,1.073,11.085,1.763,16.671,2.285c3.407,0.318,6.846,0.384,10.225,0.885
			c3.782,0.563,7.507,1.481,11.256,2.257c0.71,0.146,1.412,0.339,2.118,0.514c-0.959,3.529-2.672,5.035-5.892,5.35
			c-0.808,0.081-1.624,0.143-2.419,0.293c-4.582,0.882-9.127,2.114-13.75,2.596c-5.259,0.551-9.719,3.255-14.651,4.622
			c-1.624,0.449-1.538,2.072-1.583,3.317c-0.024,0.645,0.657,1.362,1.122,1.971c0.437,0.566,1.003,1.032,1.514,1.542
			c0.428,0.424,0.857,0.849,1.281,1.272c0.273-0.51,0.767-1.016,0.783-1.533c0.053-1.534,0.694-2.656,1.905-3.525
			c1.085-0.775,2.069-1.726,3.231-2.351c2.228-1.199,4.431-2.537,7.217-1.42c0.947,0.38,2.191,0.217,3.26,0.058
			c1.122-0.167,2.179-0.759,3.296-0.938c3.815-0.604,7.634-1.257,11.477-1.611c4.443-0.412,6.332-3.256,7.323-7.075
			c0.354-1.371,1.191-1.913,2.48-1.975c4.509-0.216,8.911,0.314,13.244,1.624c1.693,0.51,3.496,0.938,5.247,0.935
			c6.793-0.029,13.59-0.151,20.379-0.421c11.191-0.444,22.354-1.574,33.591-0.971c4.484,0.24,9.017-0.094,13.513-0.388
			c6.937-0.457,13.276-2.934,19.608-5.695c6.427-2.804,9.679-7.984,12.135-14.027c0.167-0.408,0.281-0.836,0.424-1.253
			c0.176-0.064,0.347-0.126,0.522-0.191c0.648,1.028,1.313,2.044,1.934,3.085c0.53,0.889,0.266,1.488-0.697,1.896
			c-1.012,0.425-1.999,0.918-2.967,1.444c-1.42,0.775-1.525,1.942-0.04,2.514c1.619,0.624,3.586,1.289,5.148,0.905
			c2.342-0.571,4.451-1.46,6.789-0.102c0.421,0.245,1.184,0.122,1.701-0.069c1.727-0.637,3.428-1.351,5.108-2.093
			c1.004-0.445,1.963-1,2.938-1.502c0.058,0.783-0.11,1.265-0.351,1.701c-1.248,2.272-2.566,4.513-3.77,6.81
			c-1.021,1.95-1.95,3.954-2.86,5.957c-0.539,1.191,0.253,1.991,1.183,2.313c0.433,0.151,1.416-0.38,1.698-0.865
			c0.828-1.411,1.305-3.031,2.146-4.435c1.285-2.146,2.763-4.174,4.153-6.255c0.286,0.706,0.335,1.379,0.208,2.016
			c-0.542,2.709-1.179,5.397-1.688,8.115c-0.188,1.004-0.245,2.072-0.11,3.076c0.053,0.408,0.759,0.979,1.203,1.012
			c0.388,0.028,1.028-0.514,1.191-0.942c0.347-0.906,0.449-1.905,0.661-2.864c0.665-2.999,1.338-5.993,2.126-9.531
			c0.587,1.347,1.257,2.212,1.306,3.105c0.261,4.855,0.652,9.739-1.2,14.435c-0.313,0.8-0.656,1.71-0.555,2.51
			c0.09,0.701,0.645,1.619,1.253,1.913c0.971,0.47,1.799-0.18,2.126-1.195c0.244-0.767,0.416-1.57,0.501-2.37
			c0.474-4.333,0.906-8.67,1.355-13.008c0.334,4.023,0.469,8.075,0.726,12.114c0.069,1.085-0.583,2.99,1.012,3.007
			c1.481,0.012,1.326-1.914,1.408-3.13c0.118-1.733,0.016-3.484,0.114-5.222c0.053-0.897,0.542-1.796,0.477-2.673
			c-0.24-3.337-0.62-6.662-0.958-9.992c-0.09-0.885,0.236-1.252,1.138-1.583c2.261-0.824,4.447-1.848,6.635-2.859
			c1.224-0.567,2.383-1.27,3.762-2.012c0.575,3.301,1.064,6.446,1.685,9.563c0.608,3.072,1.298,6.132,2.064,9.168
			c0.122,0.489,0.89,1.203,1.302,1.167c3.231-0.27,6.45-0.702,9.678-1.077c0.51-0.058,1.077-0.253,1.521-0.103
			c1.824,0.625,3.436,0.131,4.998-0.759c2.55-1.452,4.962-1.317,7.308,0.481c0.534,0.412,1.228,0.616,1.477,0.738
			c1.008-1.697,1.849-3.112,2.795-4.704c-3.276-0.853-6.731-1.656-10.306-0.489c-2.195,0.714-4.101,1.922-6.761,1.113
			c-1.922-0.583-4.26,0.029-6.381,0.314c-1.379,0.184-1.804-0.257-2.036-1.559c-0.849-4.79-1.783-9.563-2.763-14.329
			c-0.452-2.199-0.285-2.7,1.686-3.929c0.669-0.416,1.347-0.926,1.808-1.551c1.823-2.46,3.578-4.973,5.336-7.482
			c0.931-1.322,2.045-2.57,2.685-4.026c1.832-4.179,3.713-8.36,5.108-12.693c1.559-4.835,2.722-9.812,3.811-14.777
			c0.241-1.102,0.38-2.028,0.931-2.677c2.632-0.612,5.108-1.828,7.226-3.513c3.439-2.004,6.096-5.341,6.643-9.359
			c0.028-0.209,0.049-0.412,0.069-0.62c1.008-1.616,1.812-3.362,2.378-5.182c2.673-8.585-0.248-17.72-5.242-24.872
			c-5.549-7.952-13.146-13.831-20-20.567c-6.382-6.267-11.433-13.443-14.17-22.028c-5.504-17.25-2.774-36.182,6.079-51.824
			c9.017-15.932,23.26-28.796,39.155-37.687c1.139-0.636,2.297-1.257,3.477-1.852c2.061,0.628,4.06,1.501,5.957,2.652
			c17.597,10.694,19.359,33.46,20.44,51.914c0.196,3.35,5.427,3.37,5.227,0c-1.064-18.152-2.697-38.85-17.066-51.935
			c-2.465-2.244-5.178-4.096-8.07-5.541c5.899-2.281,12.146-3.631,18.458-3.04c8.678,0.812,16.16,5.618,21.506,12.362
			c12.827,16.177,11.252,38.05,9.796,57.394C561.82,225.977,567.047,225.953,567.3,222.615z M112.503,379.52
			c-1.987,0.934-4.231,1.134-5.732,3.227c1.995,0.159,3.599,0.286,5.23,0.417c-0.722,3.088-1.673,3.912-4.402,4.03
			c-0.926,0.041-1.869-0.012-2.783,0.114c-0.51,0.069-0.987,0.421-1.477,0.645c0.33,0.494,0.559,1.171,1.02,1.44
			c0.783,0.457,1.75,0.596,2.578,0.987c0.596,0.281,1.094,0.768,1.632,1.159c-0.445,0.559-0.784,1.306-1.359,1.64
			c-1.249,0.723-2.615,1.24-3.937,1.824c-0.926,0.408-1.865,0.783-3.166,1.33c0.836,0.689,1.326,1.093,1.828,1.51
			c-0.09,0.143-0.204,0.277-0.273,0.428c-0.22,0.49-0.424,0.983-0.636,1.478c0.539,0.069,1.085,0.216,1.62,0.188
			c0.775-0.041,1.546-0.204,2.493-0.339c-1.048,1.656-1.812,3.215-2.909,4.476c-0.743,0.849-1.91,1.689-2.979,1.828
			c-4.37,0.567-8.768,0.905-13.162,1.24c-3.692,0.281-7.466,0.069-11.065,0.779c-0.71,0.139-1.416,0.27-2.122,0.384
			c0.379-0.768,0.783-1.53,1.15-2.302c3.607-7.507,7.254-14.993,10.849-22.505c0.995-2.081,1.921-4.198,2.766-6.345
			c0.763-1.945,1.236-2.235,3.37-2.104c5.851,0.358,11.701,0.656,17.556,0.95c0.555,0.028,1.114,0.032,1.681,0.028
			c0.743,0.433,1.489,0.869,2.232,1.306v2.188H112.503z M141.789,310.604c-0.481,1.375-1.081,1.89-2.55,1.425
			c-0.727-0.229-1.583-0.041-2.383-0.041c-0.057,0.163-0.114,0.322-0.171,0.485c0.75,0.791,1.505,1.579,2.321,2.439
			c-1.306,0.556-2.468,1.053-3.635,1.547c0.029,0.188,0.057,0.371,0.086,0.559c0.759,0.167,1.55,0.249,2.256,0.539
			c0.44,0.179,1.061,0.66,1.073,1.023c0.029,0.849-0.775,1.901-1.693,2.477l-26.765,0.331c1.812-4.647,3.37-8.988,5.186-13.216
			c2.722-6.332,5.643-12.578,8.442-18.874c1.379-3.104,2.754-6.217,3.99-9.379c1.432-3.656,2.725-7.373,4.055-11.069
			c1.514-4.194,3.007-8.393,4.504-12.591c1.987-5.573,3.966-11.146,5.945-16.724c0.444-1.249,1.02-1.551,2.125-0.563
			c0.514,0.461,1.318,0.881,1.962,0.845c1.632-0.09,2.627,0.58,3.342,1.967c1.163,2.268,3.052,3.745,5.394,4.647
			c3.166,1.22,6.189,2.607,9.07,4.3c-0.535,1.546-1.065,3.093-1.607,4.635c-2.75,7.862-5.508,15.725-8.233,23.591
			c-0.836,2.415-0.792,2.423-3.187,1.86c-0.135-0.033-0.31,0.098-0.82,0.277c0.633,1.252,1.228,2.428,1.836,3.631
			c-0.151,0.078-0.293,0.172-0.449,0.225c-0.955,0.306-1.914,0.604-2.872,0.901c0.628,0.768,1.256,1.53,1.999,2.436
			c-0.743,1.755-1.616,3.705-2.395,5.691c-0.563,1.437-1.171,2.444-2.864,1.204c-0.257-0.188-0.829,0.049-1.253,0.09
			c0.086,0.424,0.069,0.91,0.282,1.261c0.408,0.677,0.942,1.277,1.514,2.023c-0.669,0.384-1.265,0.633-1.75,1.021
			c-0.681,0.542-1.277,1.187-1.909,1.791c0.685,0.371,1.371,0.746,2.272,1.236C143.911,305.124,142.756,307.829,141.789,310.604z
			 M145.698,320.951c1.738-4.484,3.26-8.687,5.019-12.783c2.721-6.332,5.643-12.578,8.441-18.874
			c1.379-3.104,2.754-6.217,3.99-9.379c1.432-3.656,2.726-7.373,4.056-11.069c1.514-4.194,3.007-8.393,4.504-12.591
			c0.017-0.041,0.029-0.082,0.045-0.123c7.389,6.308,14.513,12.852,20.775,20.257c7.144,8.449,13.933,17.201,20.874,25.821
			c2.909,3.611,5.838,7.206,8.719,10.841c1.734,2.191,3.403,4.436,5.271,6.896L145.698,320.951z M231.827,293.129
			c-7.062-4.875-13.941-10.04-19.988-16.209c-2.027-2.068-4.223-3.99-6.442-5.855c-7.977-6.699-15.562-13.774-22.036-21.975
			c-2.097-2.656-4.174-5.325-6.271-7.98c0.188-0.526,0.375-1.057,0.563-1.583c0.445-1.249,1.02-1.551,2.125-0.563
			c0.514,0.461,1.318,0.881,1.962,0.844c1.632-0.09,2.628,0.58,3.337,1.967c1.163,2.269,3.052,3.745,5.394,4.647
			c5.577,2.15,10.718,4.814,15.402,8.784c7.772,6.589,15.288,13.407,21.853,21.175c7.144,8.45,13.933,17.201,20.874,25.822
			c0.995,1.236,1.995,2.473,2.995,3.709C244.98,301.689,238.281,297.585,231.827,293.129z M481.71,168.625
			c-7.055,5.887-13.439,12.599-18.679,20.159c-10.433,15.06-15.834,33.321-13.419,51.641c1.175,8.902,4.129,17.724,9.209,25.182
			c5.699,8.368,13.684,14.456,20.804,21.513c6.373,6.316,13.063,14.688,12.737,24.203c-0.028,0.86-0.13,1.742-0.298,2.615
			c-2.317-3.913-6.201-7.066-10.102-9.543c-6.691-4.252-13.99-7.36-20.968-11.094c-6.561-3.513-13.231-7.679-17.548-13.908
			c-5.639-8.14-7.756-18.127-8.837-27.822c-1.146-10.249-1.208-20.739,0.489-30.935c3.08-18.515,11.44-36.055,25.786-48.462
			c6.576-5.688,14.309-10.261,22.685-12.713c4.423-1.293,9.135-2.073,13.782-1.962C491.836,160.762,486.605,164.544,481.71,168.625z
			"/>
	</g>
</g>
<g>
</g>
<g>
</g>
<g>
</g>
<g>
</g>
<g>
</g>
<g>
</g>
<g>
</g>
<g>
</g>
<g>
</g>
<g>
</g>
<g>
</g>
<g>
</g>
<g>
</g>
<g>
</g>
<g>
</g>
</svg>
