<?xml version="1.0" encoding="iso-8859-1"?>
<!-- Generator: Adobe Illustrator 16.0.0, SVG Export Plug-In . SVG Version: 6.00 Build 0)  -->
<!DOCTYPE svg PUBLIC "-//W3C//DTD SVG 1.1//EN" "http://www.w3.org/Graphics/SVG/1.1/DTD/svg11.dtd">
<svg version="1.1" id="Capa_1" xmlns="http://www.w3.org/2000/svg" xmlns:xlink="http://www.w3.org/1999/xlink" x="0px" y="0px"
	 width="569.079px" height="569.079px" viewBox="0 0 569.079 569.079" style="enable-background:new 0 0 569.079 569.079;"
	 xml:space="preserve">
<g>
	<g>
		<path d="M559.238,48.168c-3.346-0.788-7.304-1.628-11.877-2.542c-8.263-1.828-16.736-2.636-25.415-2.375
			c-8.645,0.249-17.266,1.314-25.802,3.235c-8.539,1.918-16.911,4.464-25.116,7.667c-8.205,3.19-15.981,6.826-23.301,10.885
			l-214.731,81.963l-16.605,7.654l-9.409,5.671l-8.653,5.214l-3.077,1.852c-14.357,8.65-27.919,17.597-40.673,26.859
			c-12.758,9.253-25.006,19.78-36.777,31.6c-0.473,0.628-1.542,1.844-3.178,3.606c-1.644,1.775-3.554,3.884-5.74,6.345
			c-2.187,2.448-4.562,5.055-7.095,7.809c-2.534,2.754-4.92,5.312-7.132,7.707c-2.232,2.378-4.198,4.492-5.896,6.308
			c-1.713,1.803-2.835,2.982-3.407,3.493c-0.216,0.485-0.856,1.126-1.856,1.905c-1.024,0.783-1.66,1.261-1.913,1.412l-23.648,14.247
			c-0.755,0.457-1.098,1.032-1.012,1.779c0.098,0.735,0.326,1.424,0.71,2.061c0.693,1.15,1.791,1.8,3.284,1.955
			c1.493,0.163,2.538,0.746,3.158,1.774c0.616,1.024,0.755,2.248,0.388,3.685c-0.359,1.439-0.898,2.986-1.641,4.655
			c-0.277,1.574-0.967,3.043-2.072,4.402c-0.408,0.783-0.771,1.346-1.073,1.697c-0.302,0.371-0.51,0.742-0.62,1.158
			c-0.449,0.979-1.224,2.305-2.301,4.002c-1.485,2.473-3.341,5.594-5.606,9.393c-2.24,3.814-4.402,7.552-6.467,11.232
			c-2.04,3.7-3.929,7.009-5.65,9.972c-1.71,2.962-2.774,4.806-3.179,5.581c-3.611,6.177-6.43,12.737-8.478,19.657
			c-2.024,6.883-3.472,13.994-4.321,21.311c-0.816,7.319-1.077,14.643-0.767,21.962c0.294,7.332,1.041,14.391,2.17,21.212
			c-0.485,0.649-1.269,1.815-2.346,3.518c-1.069,1.688-2.252,3.496-3.538,5.41c-1.297,1.921-2.484,3.717-3.554,5.422
			c-1.081,1.689-1.852,2.848-2.346,3.505c-0.057,0.212-0.351,0.828-0.955,1.885c-0.596,1.053-1.224,2.211-1.946,3.521
			c-0.698,1.297-1.42,2.57-2.163,3.807c-0.743,1.235-1.301,2.231-1.726,2.994c-0.551,0.841-1.171,1.975-1.905,3.374
			c-0.718,1.404-1.428,2.84-2.114,4.293c-0.698,1.46-1.228,2.823-1.599,4.108c-0.363,1.261-0.359,2.228,0.02,2.852
			c0.082,0.139,0.225,0.232,0.42,0.281c2.632,0.861,5.426,1.665,8.401,2.411c2.982,0.743,5.859,0.972,8.658,0.67
			c0.991,8.314,3.04,16.353,6.14,24.088c3.089,7.731,6.842,15.268,11.236,22.562l0.351,0.579c0.31,0.519,0.628,0.991,0.947,1.388
			c0.351,0.416,0.657,0.873,0.967,1.387l0.465,0.771c1.286,0.963,2.46,1.13,3.468,0.522c0.89-0.535,1.481-1.167,1.758-1.845
			c0.29-0.689,0.722-2.007,1.298-3.938c0.473-1.84,0.962-3.794,1.464-5.851c0.514-2.035,0.743-3.239,0.714-3.582l7.083-67.39
			l1.498-5.36c0.098-0.408,1.579-2.648,4.447-6.749c2.872-4.075,6.34-8.824,10.396-14.247c4.08-5.427,8.229-10.979,12.485-16.679
			c4.239-5.721,7.74-10.347,10.478-13.921c16.361-20.682,34.292-39.568,53.774-56.639c19.502-17.075,40.453-32.362,62.877-45.875
			l2.88-1.738c1.795-1.081,3.607-2.113,5.443-3.158c1.844-1.004,2.872-1.596,3.137-1.755l129.162-61.318l-0.2,1.448
			c-0.335,0.555-1.004,1.693-1.983,3.423c-0.967,1.722-1.971,3.484-2.974,5.308c-0.983,1.82-1.946,3.574-2.844,5.259
			c-0.906,1.681-1.498,2.864-1.775,3.562c0.021,0.334-0.399,1.11-1.228,2.313c-0.849,1.203-1.073,2.125-0.686,2.77
			c0.607,1.012,2.126,1.583,4.545,1.702c2.444,0.114,4.231,0.253,5.378,0.44c-0.065,1.604-0.73,3.574-1.946,5.888
			c-1.229,2.309-2.008,3.913-2.347,4.814c-0.049,0.204,0.086,0.559,0.404,1.082c0.375,0.624,1.069,0.865,2.093,0.685
			c1.041-0.175,2.109-0.575,3.24-1.171c1.138-0.591,2.554-1.485,4.268-2.688c4.993-3.011,9.192-6.642,12.582-10.861
			c3.403-4.227,6.479-8.76,9.25-13.574c2.782-4.811,5.438-9.727,7.992-14.762c2.566-5.03,5.472-9.768,8.748-14.194l6.54-3.941
			c6.658-4.011,13.374-7.785,20.139-11.351c6.765-3.55,13.554-7.365,20.352-11.461l3.447-2.077c1.416-0.853,2.782-1.709,4.084-2.587
			c1.298-0.873,2.48-1.64,3.496-2.252l1.727-1.041c1.84-1.285,4.716-3.248,8.604-5.953c3.876-2.688,7.846-5.512,11.922-8.49
			c4.043-2.975,7.874-5.757,11.465-8.352c3.582-2.586,5.944-4.418,7.066-5.438c0.571-0.51,1.767-1.583,3.574-3.199
			c1.819-1.616,3.962-3.583,6.426-5.843c2.48-2.281,5.092-4.651,7.903-7.115c2.799-2.473,5.426-4.839,7.891-7.124
			c2.477-2.269,4.646-4.251,6.532-5.899c1.885-1.652,3.17-2.778,3.867-3.374c0.511-0.311,1.682-1.139,3.477-2.477
			c1.808-1.351,3.773-2.803,5.896-4.346c2.134-1.542,4.129-3.019,6.002-4.39c1.881-1.399,3.068-2.244,3.569-2.546
			c1.975-1.371,4.472-3.317,7.499-5.843c3.032-2.513,5.802-5.292,8.353-8.303c2.55-3.015,4.451-6.173,5.703-9.453
			c1.257-3.293,1.012-6.349-0.689-9.172C565.374,51.187,562.583,48.931,559.238,48.168z"/>
	</g>
</g>
<g>
</g>
<g>
</g>
<g>
</g>
<g>
</g>
<g>
</g>
<g>
</g>
<g>
</g>
<g>
</g>
<g>
</g>
<g>
</g>
<g>
</g>
<g>
</g>
<g>
</g>
<g>
</g>
<g>
</g>
</svg>
