<?xml version="1.0" encoding="iso-8859-1"?>
<!-- Generator: Adobe Illustrator 16.0.0, SVG Export Plug-In . SVG Version: 6.00 Build 0)  -->
<!DOCTYPE svg PUBLIC "-//W3C//DTD SVG 1.1//EN" "http://www.w3.org/Graphics/SVG/1.1/DTD/svg11.dtd">
<svg version="1.1" id="Capa_1" xmlns="http://www.w3.org/2000/svg" xmlns:xlink="http://www.w3.org/1999/xlink" x="0px" y="0px"
	 width="565.768px" height="565.768px" viewBox="0 0 565.768 565.768" style="enable-background:new 0 0 565.768 565.768;"
	 xml:space="preserve">
<g>
	<g>
		<path d="M560.874,301.103c-13.733-3.921-14.938-6.524-11.384-21.22c3.109-12.86,2.636-12.297-8.968-18.307
			c-10.155-5.259-21.191-10.542-23.039-24.361c-0.282-2.109-3.19-4.415-5.427-5.626c-22.534-12.208-45.264-24.06-67.769-36.312
			c-19.78-10.767-41.331-15.871-62.869-21.62c-22.02-5.879-43.636-13.525-64.99-21.559c-17.801-6.695-32.608-4.276-48.573,6.508
			c-22.656,15.304-46.769,28.576-70.882,41.563c-30.159,16.242-61,31.212-91.38,47.05c-2.713,1.416-4.198,5.194-6.25,7.871
			c0.722,1.024,1.444,2.052,2.17,3.076c-10.963,1.473-21.955,4.17-32.873,3.888c-5.153-0.13-10.942-5.186-15.076-9.363
			c-10.224-10.335-19.266-21.849-29.608-32.053c-4.137-4.08-10.44-5.961-16.022-8.984c-1.114,2.562-1.824,3.375-1.714,4.056
			c2.864,17.944-1.571,35.011-4.912,52.465c-2.203,11.51-1.297,23.994,0.302,35.757c2.485,18.254,9.478,35.994,3.86,55.509
			c10.592-0.768,18.115-4.423,23.545-12.154c6.74-9.601,13.35-19.299,20.286-28.752c10.522-14.341,26.209-19.303,43.28-14.007
			c1.342,0.416,3.615,0.674,3.835,1.457c3.758,13.476,17.303,13.623,26.602,18.96c23.742,13.635,48.711,25.148,72.285,39.045
			c11.155,6.577,20.037,16.912,30.314,25.088c9.731,7.744,19.584,15.431,30.017,22.167c13.525,8.735,28.842,5.998,43.665,4.729
			c19.915-1.705,38.973-6.903,57.197-15.153c4.129-1.872,8.353-3.562,12.6-5.152c22.9-8.581,45.826-17.1,71.225-26.565
			c-2.118,6.622-3.518,11.012-4.921,15.402c-2.464,7.694,3.044,16.369,11.11,16.092c2.611-0.09,6.458-3.607,7.307-6.32
			c1.298-4.137,0.955-8.992,0.429-13.439c-0.526-4.431-2.138-8.735-3.578-14.256c18.923-8.217,37.825-16.193,56.496-24.667
			c6.193-2.812,11.697-7.112,17.707-10.372c9.914-5.381,20.017-10.424,29.979-15.72c3.199-1.701,7.021-3.121,9.111-5.798
			C566.631,306.59,566.904,302.824,560.874,301.103z"/>
	</g>
</g>
<g>
</g>
<g>
</g>
<g>
</g>
<g>
</g>
<g>
</g>
<g>
</g>
<g>
</g>
<g>
</g>
<g>
</g>
<g>
</g>
<g>
</g>
<g>
</g>
<g>
</g>
<g>
</g>
<g>
</g>
</svg>
