<?xml version="1.0" encoding="iso-8859-1"?>
<!-- Generator: Adobe Illustrator 16.0.0, SVG Export Plug-In . SVG Version: 6.00 Build 0)  -->
<!DOCTYPE svg PUBLIC "-//W3C//DTD SVG 1.1//EN" "http://www.w3.org/Graphics/SVG/1.1/DTD/svg11.dtd">
<svg version="1.1" id="Capa_1" xmlns="http://www.w3.org/2000/svg" xmlns:xlink="http://www.w3.org/1999/xlink" x="0px" y="0px"
	 width="578.121px" height="578.121px" viewBox="0 0 578.121 578.121" style="enable-background:new 0 0 578.121 578.121;"
	 xml:space="preserve">
<g>
	<g>
		<path d="M544.464,150.129c-8.132-3.399-20.567-0.498-26.684,5.806c-1.971,2.032-4.312,3.896-6.821,5.186
			c-10.62,5.455-21.465,10.486-32.016,16.071c-3.224,1.706-5.627,2.232-9.001,0.416c-6.621-3.566-12.835-3.794-18.723,2.407
			c-2.008,2.118-6.165,2.346-9.417,3.089c-3.872,0.881-6.442-0.771-8.095-4.472c-0.596-1.33-2.383-2.15-3.676-3.134
			c-2.913-2.211-5.174-1.208-5.337,2.097c-0.27,5.431-3.231,5.708-7.58,5.585c-22.318-0.624-43.95,4.064-65.517,9.021
			c-3.313,0.763-5.594,0.273-8.353-1.905c-2.179-1.722-5.679-2.848-8.429-2.579c-10.987,1.069-21.95,2.554-32.856,4.309
			c-21.901,3.525-43.717,2.954-65.472-0.914c-33.016-5.871-65.978-12.061-99.014-17.813c-20.718-3.606-41.216-1.334-61.465,3.705
			c-15.117,3.757-30.649,6.67-43.975,15.202c-5.435,3.48-10.249,8.519-14.101,13.766C9.584,217.347,4.99,230.603,1.31,244.12
			c-0.779,2.864-0.787,5.94-1.31,10.229c3.574-1.211,5.953-2.02,8.36-2.839c0.021,0.032,0.229,0.224,0.192,0.334
			c-7.062,22.15,1.477,43.407,3.888,64.995c0.27,2.407,2.525,4.594,4.521,8.013c-3.423,5.108-7.168,11.249-11.469,16.973
			c-6.112,8.128-6.748,15.468-2.162,24.342c2.819,5.459,4.741,11.371,7.356,16.944c1.363,2.9,3.464,5.442,5.027,8.262
			c0.669,1.208,0.824,2.701,1.603,5.431c1.098,0.379,3.574,1.24,6.051,2.101c-0.028,0.526-0.057,1.057-0.085,1.583
			c0,0-5.3,10.82,25.736,8.642l17.968-1.269c0,0,1.444-3.309-0.979-8.564c-1.999-3.908-2.844-7.05-4.831-9.073
			c-2.469-2.514-5.814-4.207-8.895-6.071c-10.429-6.315-12.007-19.07-3.125-27.373c2.073-1.938,4.876-3.093,6.81-4.279
			c-0.212,2.089-0.102,5.928-1.057,9.481c-2.134,7.948,0.294,13.346,7.046,18.099c5.965,4.194,11.914,9.282,10.041,18.785
			c0,0-2.015,8.355,1.253,8.082s-16.063,15.79,45.737,11.437l4.81-0.363c0,0,3.619-0.302,5.712-4.961
			c3.566-7.937-4.81-10.584-10.061-13.803c-1.812-1.11-3.941-2.139-5.112-3.782c-3.774-5.296-7.516-10.682-10.567-16.406
			c-1.42-2.668-2.554-6.772-1.497-9.232c3.166-7.373,7.479-14.256,11.591-21.792c17.695,10.702,35.973,17.304,56.194,18.883
			c20.983,1.636,41.844,4.304,62.95,1.685c11.865-1.473,23.799-2.627,35.737-3.194c9.417-0.449,9.433,0.049,10.849,9.229
			c0.469,3.048,1.322,6.079,1.408,9.136c0.2,6.817,0.938,13.807-0.241,20.42c-1.265,7.075-6.112,13.615-1.241,20.996
			c0,0,1.449,3.537,7.985,4.08c6.532,0.542,59.621-0.543,71.331,0c11.705,0.542,10.371-4.77,11.42-5.651
			c6.598-5.316,5.985-8.955-1.954-13.505c-15.684-8.988-19.286-19.013-9.155-36.418c4.528-7.784,8.425-15.937,12.852-23.782
			c1.261-2.231,3.015-4.655,5.178-5.826c6.81-3.685,11.379-9.168,15.479-15.59c2.729-4.279,6.911-7.67,10.616-11.277
			c3.447-3.357,7.005-6.617,10.751-9.637c1.754-1.416,3.953-2.66,6.128-3.104c7.992-1.62,16.062-2.848,24.092-4.288
			c1.583-0.286,3.697-0.351,4.578-1.367c7.373-8.552,17.21-5.528,26.356-6.055c9.519-0.547,16.83,4.786,24.876,8.417
			c4.68,2.113,9.829,3.26,14.852,4.509c5.255,1.306,10.587,2.338,15.933,3.231c2.619,0.437,5.602,1.04,7.939,0.212
			c2.705-0.955,5.406-3.048,6.98-5.402c0.494-0.738-2.636-3.94-4.174-5.969c-0.637-0.84-1.444-1.555-2.484-2.656
			c2.068-1.971,4.712-3.484,5.65-5.712c0.698-1.656-0.804-4.243-1.562-7.397c3.109-4.386,6.944-9.792,10.877-15.341
			c-3.5-2.835-6.124-2.737-8.771-0.228c-2.105,1.995-4.455,3.753-6.405,5.879c-3.13,3.419-6.268,3.276-9.196,0.126
			c-1.053-1.134-1.444-3.056-1.73-4.688c-0.396-2.276-0.403-4.618-0.579-6.932c-2.325,0.849-4.672,1.665-6.973,2.574
			c-0.641,0.253-1.163,0.8-2.469,1.734c-1.848-2.505-3.884-4.733-5.316-7.299c-7.16-12.848-10.648-26.21-4.622-40.555
			c0.815-1.946,2.121-3.807,3.599-5.32c1.073-1.102,3.541-2.579,4.116-2.158c7.385,5.418,14.896-3.611,22.257,0.408
			c2.628,1.437,5.813,1.84,8.47,3.236c2.832,1.485,4.754,2.933,6.903-1.249c0.273-0.531,0.833-0.914,1.519-1.228
			c8.322,30.196-17.879,57.1,0.767,39.698c14.076-13.138,14.554-35.011,13.497-47.312c0.113-0.069,0.216-0.167,0.334-0.228
			c6.21-3.281,11.143-16.088,7.319-21.979C568.475,168.362,559.201,156.29,544.464,150.129z M315.976,410.604
			c-2.615-3.497-4.553-8.267-4.773-12.575c-0.225-4.386,1.485-9.237,7.65-11.645c2.729,11.262,5.369,22.163,8.017,33.085
			C323.091,416.508,318.669,414.203,315.976,410.604z"/>
	</g>
</g>
<g>
</g>
<g>
</g>
<g>
</g>
<g>
</g>
<g>
</g>
<g>
</g>
<g>
</g>
<g>
</g>
<g>
</g>
<g>
</g>
<g>
</g>
<g>
</g>
<g>
</g>
<g>
</g>
<g>
</g>
</svg>
