<?xml version="1.0" encoding="iso-8859-1"?>
<!-- Generator: Adobe Illustrator 16.0.0, SVG Export Plug-In . SVG Version: 6.00 Build 0)  -->
<!DOCTYPE svg PUBLIC "-//W3C//DTD SVG 1.1//EN" "http://www.w3.org/Graphics/SVG/1.1/DTD/svg11.dtd">
<svg version="1.1" id="Capa_1" xmlns="http://www.w3.org/2000/svg" xmlns:xlink="http://www.w3.org/1999/xlink" x="0px" y="0px"
	 width="571.505px" height="571.505px" viewBox="0 0 571.505 571.505" style="enable-background:new 0 0 571.505 571.505;"
	 xml:space="preserve">
<g>
	<g>
		<path d="M333.468,113.858c-35.892,8.368-67.128,25.63-89.421,59.67c-5.426-11.4-9.433-21.045-14.451-30.131
			c-16.94-30.698-49.323-40.621-80.543-24.586c-6.919,3.554-13.949,7.805-19.327,13.301c-19.425,19.849-42.498,33.484-66.867,44.982
			c-0.453-0.017-0.938,0.053-1.461,0.253c-21.138,8.054-69.135,18.086-60.331,50.551c1.285,4.733,8.629,2.722,7.34-2.023
			c-4.362-16.083,11.803-25.671,28.609-32.175c20.906-3.268,42.791-6.806,64.807-9.437c21.155-2.53,38.364,6.956,46.606,25.904
			c30.424,69.948,78.911,125.174,132.559,177.635c17.732,30.71,26.928,65.688,26.589,101.579c-0.053,5.586,7.308,6.386,9.515,2.444
			c0.767,2.938,1.538,5.875,2.31,8.809c1.484,5.663,9.465,4.093,9.931-0.845c1.02,2.195,2.035,4.386,3.052,6.581
			c0.448,0.967,1.064,1.616,1.758,2.036c0.29,0.926,0.571,1.881,0.865,2.803c0.212,0.661,0.515,1.208,0.882,1.677
			c1.109,2.493,4.067,4.374,7.254,2.836c0.963-0.465,1.823-1.028,2.632-1.636c1.325,5.186,2.647,10.371,3.97,15.561
			c0.856,3.362,4.007,4.166,6.54,3.252c1.506,4.762,3.011,9.519,4.513,14.28c0.465,1.742,0.934,3.484,1.391,5.23
			c0.192-0.033,0.38-0.065,0.571-0.098c0.103,0.134,0.217,0.24,0.331,0.358c0.024,0.135,0.053,0.266,0.077,0.4
			c1.118,6.442,10.902,3.7,9.788-2.697c-3.599-20.698-8.723-41.024-15.247-60.854c-3.994-26.438-8.404-52.771-14.912-78.572
			c-9.657-38.287-26.096-75.039-41.539-111.625c-9.755-23.117-10.942-27.752,6.944-39.604c2.975-0.322,5.933-0.742,8.887-1.22
			c1.958-0.049,3.917-0.094,5.875-0.143c-0.232,0.155-0.457,0.31-0.693,0.469c7.568-0.204,15.055-0.53,22.464-0.995l1.489-0.037
			c0.425-0.012,0.783-0.11,1.191-0.146c68.634-4.639,130.589-21.71,187.387-69.564c-10.229,0-14.848-0.2-19.445,0.033
			c-28.482,1.437-56.965,2.844-85.428,4.578c-1.636,0.098-3.345,0.261-5.055,0.473h-16.206
			c39.299-28.674,76.365-60.176,109.25-96.933c16.978-18.976,31.972-39.764,47.414-60.066c4.056-5.333,6.401-11.966,6.157-21.408
			c-5.468,2.575-11.416,4.451-16.328,7.83C487.785,68.917,412.428,95.453,333.468,113.858z"/>
	</g>
</g>
<g>
</g>
<g>
</g>
<g>
</g>
<g>
</g>
<g>
</g>
<g>
</g>
<g>
</g>
<g>
</g>
<g>
</g>
<g>
</g>
<g>
</g>
<g>
</g>
<g>
</g>
<g>
</g>
<g>
</g>
</svg>
