<?xml version="1.0" encoding="iso-8859-1"?>
<!-- Generator: Adobe Illustrator 16.0.0, SVG Export Plug-In . SVG Version: 6.00 Build 0)  -->
<!DOCTYPE svg PUBLIC "-//W3C//DTD SVG 1.1//EN" "http://www.w3.org/Graphics/SVG/1.1/DTD/svg11.dtd">
<svg version="1.1" id="Capa_1" xmlns="http://www.w3.org/2000/svg" xmlns:xlink="http://www.w3.org/1999/xlink" x="0px" y="0px"
	 width="587.923px" height="587.923px" viewBox="0 0 587.923 587.923" style="enable-background:new 0 0 587.923 587.923;"
	 xml:space="preserve">
<g>
	<g>
		<path d="M582.99,278.729c0.657-8.335-2.072-13.477-9.747-16.891c-7.486-3.33-15.381-3.586-23.157-2.195
			c-16.843,3.011-33.734,5.035-50.861,4.565c-7.691-0.208-15.378-0.865-23.068-0.926c-17.23-0.139-33.31,3.786-48.471,12.46
			c-4.153,2.375-10.457,2.012-15.606,1.432c-18.254-2.048-36.553-4.088-54.618-7.336c-23.383-4.207-44.607-13.084-62.53-29.719
			c-7.923-7.356-18.352-12.048-27.769-17.74c-2.052-1.24-4.651-1.587-7.552-2.521c0.261,3.117,0.551,5.263,0.604,7.417
			c0.159,6.288-2.411,8.356-8.413,6.141c-5.002-1.848-9.718-4.463-14.569-6.724c-11.91-5.553-23.566-11.775-35.802-16.487
			c-2.873-1.105-5.761-2.174-8.654-3.231c-13.701-6.12-27.858-11.098-42.636-14.333c-0.126-0.041-0.253-0.082-0.375-0.122
			c-3.199-1.032-3.986-2.803-4.643-5.488c-5.61-22.901-14.333-44.447-30.645-61.857c-7.115-7.597-15.957-13.627-24.316-19.963
			c-1.828-1.383-5.569-2.125-7.312-1.155c-1.477,0.82-1.485,4.521-1.885,6.989c-1.138,7.059-1.848,14.198-3.268,21.196
			c-2.799,13.79-2.929,27.458-0.477,41.363c0.979,5.553,4.28,10.024,5.088,14.737c-10.666,4.129-21.42,7.65-31.604,12.387
			c-13.958,6.487-25.214,16.442-33.105,29.829c-2.815,4.774-6.381,8.291-11.514,10.71c-2.652,1.249-6.214,4.525-6.079,6.671
			c0.151,2.362,3.696,5.39,6.434,6.557c16.467,7.021,33.876,7.776,51.326,5.79c26.663-3.04,49.911-14.459,70.968-30.69
			c4.443-3.427,8.649-3.59,13.823-0.861c27.777,14.66,51.632,34.398,72.489,57.503c17.356,19.229,32.469,40.486,49.919,59.622
			c10.625,11.648,23.787,20.987,35.843,31.33c1.759,1.506,3.688,2.811,5.239,3.982c-6.255,28.441-24.521,48.821-44.15,68.319
			c-2.856,2.835-5.777,5.614-8.494,8.576c-4.913,5.349-4.439,10.771,1.554,14.908c5.471,3.778,11.702,4.88,18.144,3.945
			c2.219-0.073,4.186-0.53,5.879-1.31c1.518-0.453,2.991-0.979,4.415-1.579c1.094-0.354,2.138-0.836,3.117-1.461
			c6.283-3.301,11.53-8.188,15.757-14.487c12.387-18.463,27.055-34.921,42.999-50.355c3.509-3.399,6.544-3.746,11.028-2.298
			c14.88,4.807,30.18,7.442,45.88,7.365c16.021-0.078,30.959-4.896,45.748-10.38c1.502-0.555,2.995-1.135,4.917-1.86
			c1.778,17.658,10.816,30.673,22.607,42.436c4.929,4.917,9.335,10.69,12.619,16.806c2.909,5.423,4.5,11.751,5.639,17.875
			c1.199,6.458,4.643,8.812,9.282,4.32c3.644-3.525,6.731-8.445,8.151-13.309c5.341-18.308-2.17-33.231-14.565-45.888
			c-8.756-8.943-14.386-19.164-17.263-31.155c-0.89-3.721-0.457-6.45,3.134-8.931c13.027-9.005,21.779-22.077,31.783-33.999
			c16.141-19.233,35.729-33.726,59.943-41.445c6.193-1.975,11.008-5.716,13.056-12.183c1.036-3.268,1.261-6.21-1.767-9.119
			C583.786,284.367,582.799,281.115,582.99,278.729z"/>
	</g>
</g>
<g>
</g>
<g>
</g>
<g>
</g>
<g>
</g>
<g>
</g>
<g>
</g>
<g>
</g>
<g>
</g>
<g>
</g>
<g>
</g>
<g>
</g>
<g>
</g>
<g>
</g>
<g>
</g>
<g>
</g>
</svg>
