<?xml version="1.0" encoding="iso-8859-1"?>
<!-- Generator: Adobe Illustrator 16.0.0, SVG Export Plug-In . SVG Version: 6.00 Build 0)  -->
<!DOCTYPE svg PUBLIC "-//W3C//DTD SVG 1.1//EN" "http://www.w3.org/Graphics/SVG/1.1/DTD/svg11.dtd">
<svg version="1.1" id="Capa_1" xmlns="http://www.w3.org/2000/svg" xmlns:xlink="http://www.w3.org/1999/xlink" x="0px" y="0px"
	 width="579.529px" height="579.529px" viewBox="0 0 579.529 579.529" style="enable-background:new 0 0 579.529 579.529;"
	 xml:space="preserve">
<g>
	<g>
		<path d="M24.917,329.369c1.003,0.514,0.934,1.068-0.171,1.297c-4.215,0.861-7.471,1.697-10.763,1.897
			c-3.154,0.191-6.344-0.2-9.645-0.485c-1.122-0.098-1.55,0.616-0.881,1.525c9.058,12.375,23.958,13.64,42.758,3.831
			c1-0.521,1.877-0.049,1.754,1.073c-0.286,2.562-1.983,4.655-10.792,15.002c-0.73,0.857-0.416,1.686,0.706,1.775
			c8.817,0.727,16.52-1.963,23.354-6.369c7.634-4.92,15.015-10.551,21.424-16.956c4.292-4.288,7.907-9.25,11.53-14.207
			c0.665-0.91,1.575-0.812,2.13,0.172c0.62,1.093,1.318,2.138,2.093,3.112c0.702,0.882,1.318,2.448,1.24,3.57
			c-1.428,21.942-15.561,41.853-36.606,49.56c-14.773,5.41-14.786,5.41-14.129,21.062c0.881,20.955,1.591,41.922,2.917,62.848
			c0.159,2.485,3.68,6.765,5.7,6.798c11.195,0.191,22.505,0.045,33.574-1.469c5.981-0.816,8.205-8.005,5.904-13.979
			c-2.97-7.694-9.841-11.86-19.886-11.885c-1.126-0.004-2.04-0.865-2.036-1.991c0.016-3.623,0.069-7.233-0.024-10.845
			c-0.233-8.854,3.639-15.532,11.334-19.457c10.706-5.464,21.673-10.429,32.611-15.419c13.697-6.242,26.688-13.406,36.724-25.047
			c3.378-3.921,8.454-3.321,9.98,2.117c1.942,6.92,3.558,14.921,1.905,21.616c-2.064,8.38-7.466,15.974-11.689,23.766
			c-1.779,3.285-2.725,5.513,0.931,8.557c15.357,12.799,30.624,25.732,45.439,39.151c5.026,4.553,10.024,7.192,16.736,6.65
			c6.969-0.563,13.99-0.678,20.914-1.583c8.229-1.081,10.424-5.88,6.561-13.374c-1.102-2.139-2.382-4.194-3.741-6.182
			c-3.904-5.695-8.947-8.233-15.41-4.398c-4.137,2.456-6.854,1.726-9.739-1.999c-7.104-9.172-14.459-18.144-22.061-27.585
			c-0.706-0.877-0.49-2.044,0.469-2.636c24.153-14.908,31.424-37.418,31.616-65.17c0.008-1.126,0.804-1.604,1.808-1.098
			c19.551,9.842,37.471,7.087,54.664-5.573c0.906-0.669,1.604-0.313,1.62,0.812c0.196,13.239,4.949,25.944-1.648,38.589
			c-1.224,2.346,0.636,6.308,1.073,9.522c0.628,4.622,1.257,9.249,1.926,14.166c0.151,1.117-0.628,2.17-1.738,2.362
			c-1.334,0.229-2.269,0.392-3.207,0.518c-17.046,2.31-25.998,18.801-18.711,34.492c3.072,6.622,6.234,7.495,12.554,3.913
			c10.616-6.019,21.795-11.191,31.779-18.103c3.921-2.714,5.769-8.952,7.675-13.926c2.994-7.829,4.924-16.066,7.906-23.9
			c2.004-5.264,4.807-10.225,7.858-16.308c0.506-1.008,1.358-1.028,1.918-0.053c12.819,22.439,24.937,43.811,37.271,65.051
			c1.804,3.101,4.3,5.802,6.638,8.593c0.723,0.865,1.869,0.869,2.575-0.008c1.836-2.272,3.777-4.68,6.274-7.772
			c0.706-0.878,1.894-0.91,2.656-0.078c6.937,7.581,14.945,15.618,21.755,24.57c3.778,4.97,7.144,7.625,13.48,7.291
			c9.633-0.511,19.307-0.311,28.96-0.266c6.025,0.028,7.821-3.015,6.218-8.355c-2.893-9.646-8.687-17.161-17.573-21.979
			c-1.982-1.077-5.107-2.023-6.85-1.207c-6.528,3.067-9.886-1.188-13.439-5.015c-7.716-8.311-15.631-16.479-22.73-25.296
			c-2.839-3.525-3.655-8.649-5.549-12.975c-6.744-15.431-13.777-30.742-20.269-46.279c-4.636-11.09-8.687-22.42-12.742-33.126
			c-0.4-1.052-0.069-2.541,0.73-3.333c5.564-5.5,10.686-10.881,16.336-15.631c1.836-1.542,5.549-1.746,8.188-1.297
			c25.558,4.35,48.69,15.193,70.601,28.385c5.442,3.276,8.805,10.534,12.24,16.471c3.721,6.43,6.315,13.501,9.567,20.212
			c2.66,5.496,7.104,8.295,13.329,8.115c1.024-0.028,2.053-0.045,3.08-0.053c1.127-0.008,2.534,0.045,3.138,0.077
			c0.359,0.021,0.727,0.029,1.09,0.029c0.375,0,0.751-0.013,1.118-0.033c0.62-0.032,1.256-0.09,1.419-0.09c0.099,0,0.196,0,0.294,0
			c13.252-0.114,21.176-6.189,22.995-19.196c1.897-13.562,5.974-24.985,19.462-31.416c6.336-3.023,8.768-9.645,9.045-16.385
			c0.262-6.333,3.872-9.213,8.919-11.689c17.434-8.56,19.841-11.559,17.353-30.886c-0.89-6.924-2.297-13.807-3.99-20.637
			c-0.208-1.204-0.519-2.391-0.918-3.558c-1.444-5.5-3.048-10.963-4.704-16.373c-2.677-8.744-5.215-9.103-13.452-4.733
			c-8.087,4.288-15.933,9.037-24.056,13.252c-7.083,3.676-10.853,2.832-13.855-4.394c-2.51-6.039-3.591-12.668-5.324-19.87
			c-0.266-1.094-0.89-1.163-1.384-0.151c-1.852,3.807-3.749,7.715-5.573,11.465c-0.493,1.012-1.228,0.987-1.644-0.062
			c-1.489-3.758-3.171-7.997-5.256-13.256c-0.416-1.048-0.938-0.996-1.158,0.11c-0.768,3.909-1.154,6.605-2.064,9.115
			c-0.453,1.256-1.388,2.342-2.33,3.423c-0.738,0.849-2.027,1.004-2.966,0.375c-1.424-0.955-2.868-1.893-3.501-3.223
			c-1.285-2.717-1.518-5.969-1.995-9.025c-0.375-2.412-0.551-4.855-0.889-8.421c-0.106-1.122-0.665-1.24-1.241-0.269
			c-2.02,3.411-3.659,6.181-5.152,8.703c-0.575,0.971-1.89,1.412-2.897,0.906c-14.944-7.45-15.267-23.419-21.808-36.202
			c-0.514-1.003-1.061-0.881-1.15,0.241c-0.253,3.252-0.403,6.524-1.143,9.662c-0.347,1.481-1.424,2.791-2.477,4.104
			c-0.705,0.881-1.807,0.922-2.599,0.123c-1.604-1.624-3.432-3.281-3.239-4.66c0.71-5.202,2.468-10.257,3.097-16.247
			c0.118-1.122-0.437-1.35-1.184-0.506c-2.387,2.705-4.773,5.406-7.147,8.095c-0.747,0.845-1.8,0.734-2.358-0.245
			c-2.032-3.566-4.484-7.875-6.985-12.269c-0.559-0.979-1.403-1.624-1.893-1.444c-0.49,0.18-0.784,1.232-0.665,2.354
			c0.159,1.444,0.317,2.893,0.477,4.357c0.123,1.118-0.697,1.975-1.782,1.673c-7.148-2.011-11.433-11.6-13.623-28.266
			c-0.147-1.118-0.576-1.175-0.976-0.123c-1.518,4.006-3.031,8.009-4.528,11.967c-0.4,1.053-1.106,1.081-1.579,0.057
			c-1.714-3.692-3.509-7.561-5.729-12.346c-0.474-1.02-1.053-0.955-1.289,0.147c-0.796,3.708-1.379,6.438-1.918,8.959
			c-0.236,1.102-1.012,2.105-1.734,2.24c-0.722,0.139-1.64-0.604-2.048-1.652c-3.02-7.707-6.066-15.483-9.47-24.153
			c-0.412-1.049-0.954-1.012-1.212,0.085c-1.187,5.055-2.235,9.531-3.35,14.276c-0.257,1.098-1.068,1.293-1.808,0.445
			c-3.888-4.48-7.38-8.502-10.828-12.472c-0.738-0.853-1.677-1.249-2.097-0.89c-0.421,0.363-0.49,1.53-0.159,2.607
			c0.44,1.436,0.905,2.942,1.44,4.672c0.33,1.077-0.147,1.432-1.073,0.792c-4.529-3.138-8.613-5.965-13.542-9.376
			c-0.926-0.641-1.362-0.306-0.975,0.751c1.362,3.712,2.424,6.609,3.55,9.682c0.388,1.057-0.119,1.505-1.126,1
			c-8.891-4.451-17.193-8.609-26.818-13.431c-1.008-0.506-1.416-0.09-0.914,0.918c3.199,6.467,5.736,11.595,8.201,16.581
			c0.502,1.008,0.485,2.236-0.033,2.733c-0.518,0.498-1.733,0.461-2.721-0.085c-5.618-3.109-11.281-6.247-17.459-9.666
			c-0.982-0.547-1.521-0.114-1.199,0.963c1.109,3.672,2.154,7.14,3.179,10.53c0.326,1.077-0.302,1.746-1.399,1.489
			c-4.183-0.975-8.499-1.979-12.84-2.991c-1.098-0.257-2.105-0.082-2.252,0.388c-0.147,0.469,0.448,1.416,1.338,2.109
			c2.027,1.591,4.101,3.215,6.381,5.002c0.886,0.694,0.689,1.306-0.437,1.363c-5.157,0.265-9.702,0.498-14.165,0.727
			c-1.126,0.057-2.322,0.628-2.668,1.269c-0.347,0.645,0.192,1.562,1.204,2.057c0.914,0.444,1.922,0.934,3.162,1.538
			c1.012,0.494,0.918,0.926-0.204,0.983c-56.19,2.929-98.981,31.783-140.385,63.101c-14.517,10.983-28.246,23.415-40.469,36.879
			c-7.736,8.523-12.069,20.147-17.834,30.433c-5.814,10.379-13.391,19.058-24.692,23.387c-16.851,6.45-30.058,2.501-44.235-12.677
			c-0.767-0.824-1.628-0.625-1.873,0.473c-1.326,5.94,0.09,8.65,10.082,21.808c0.681,0.898,0.322,1.669-0.804,1.62
			c-10.184-0.453-18.299-7.417-27.663-23.636c-0.563-0.975-1.249-0.885-1.453,0.225C-2.207,304.909,6.965,320.156,24.917,329.369z"
			/>
	</g>
</g>
<g>
</g>
<g>
</g>
<g>
</g>
<g>
</g>
<g>
</g>
<g>
</g>
<g>
</g>
<g>
</g>
<g>
</g>
<g>
</g>
<g>
</g>
<g>
</g>
<g>
</g>
<g>
</g>
<g>
</g>
</svg>
