<?xml version="1.0" encoding="iso-8859-1"?>
<!-- Generator: Adobe Illustrator 16.0.0, SVG Export Plug-In . SVG Version: 6.00 Build 0)  -->
<!DOCTYPE svg PUBLIC "-//W3C//DTD SVG 1.1//EN" "http://www.w3.org/Graphics/SVG/1.1/DTD/svg11.dtd">
<svg version="1.1" id="Capa_1" xmlns="http://www.w3.org/2000/svg" xmlns:xlink="http://www.w3.org/1999/xlink" x="0px" y="0px"
	 width="562.412px" height="562.412px" viewBox="0 0 562.412 562.412" style="enable-background:new 0 0 562.412 562.412;"
	 xml:space="preserve">
<g>
	<path d="M531.522,158.992c-7.639-9.878-6.402-12.383-17.386-6.688c-14.271,2.012-29-14.378-42.664-17.389
		c-18.568-4.097-36.459,1.46-51.894,11.901c-17.336,11.746-26.879,31.437-49.479,30.82c-20.632-0.575-40.135-2.473-60.53,2.224
		c-42.501,9.788-74.342,38.393-114.277,53.562c-26.092,9.906-51.881,12.509-79.348,12.509c-23.456,0-46.891,0-70.343,0
		C17.866,245.932,0,263.382,0,292.742c4.933-2.138,8.311-12.309,13.444-16.65c4.875-4.133,9.392-3.546,15.451-3.546
		c12.799,0,24.786,1.747,37.124,4.741c27.625,6.711,55.259,13.419,82.901,20.126c13.794,3.357,28.283,3.99,42.216,6.973
		c8.344,1.783,16.806,4.301,25.341,5.015c11.2,0.926,16.887,6.055,26.149,11.432c0.767,0.739,4.149,0.535,5.336,1.335
		c-1.187,3.97-2.913,7.666-5.182,11.126c-4.704,7.213-11.351,13.398-19.021,17.229c-10.155,5.047-7.311,17.238-12.407,25.884
		c-5.092,8.633-15.81,19.547-15.81,30.159c1.795,0,4.117-0.506,5.614-1.465c3.848,6.459,5.076,21.403,12.729,21.403
		c5.255,0,10.498,0,15.749,0c0.167,0.14,0.273,0.225,0.273,0.225s6.417,0.522,11.11,1.979c2.938,0.913,0.975-2.779-2.824-5.549
		c1.616,0,3.231,0,4.847,0c0.89,0.212,1.767,0.44,2.595,0.697c2.771,0.861,2.007-1.583-0.579-4.312
		c0.849,0.195,1.693,0.404,2.485,0.648c4.174,1.298-1.546-6.683-8.368-8.131c-3.113-1.975-7.226-3.183-11.334-4.896
		c-8.16-3.37,0.372-25.406,3.982-29.935c11.313-14.219,26.952-21.09,42.893-29.646c-6.597,22.068,16.031,12.823,28.091,20.062
		c7.703,5.259,17.417,17.694,27.029,21.705c1.747,2.004,4.623,5.479,6.639,8.838c2.488,4.146,2.799-6.1-0.882-13.02
		c0.311,0,0.755,0.086,1.257,0.2c0.094,0.469,0.163,0.771,0.163,0.771s6.328,6.753,10.127,13.081
		c2.448,4.08,3.179-3.076,1.105-10.494c1.453,0.326,2.844,0.551,4.048,0.563c0.95,1.276,1.893,2.627,2.692,3.961
		c1.767,2.946,2.424-1.383,1.343-6.617c0.105-0.873-0.024-1.967-0.519-3.395c-0.718-2.077-1.897-3.844-3.333-5.447
		c-0.27-0.33-0.555-0.632-0.853-0.922c-5.59-5.614-14.354-9.29-18.051-17.254c-3.672-7.079-22.859-6.854-29.588-9.927
		c-9.625-4.406,2.077-20.91,6.259-26.781c6.504-9.147,14.941-16.928,23.057-24.644c6.801-6.467,34.324-5.36,44.398-7.984
		c9.873-2.574,22.076-11.179,32.113-11.179c11.506,0,18.421,15.39,30.768,15.39c-0.416-1.755,0-3.934,0-5.749
		c11.098,4.994,17.576,1.815,22.428,12.718c-0.069,0.889-0.065,1.579-0.065,1.579s2.497,4.541,3.733,8.575
		c0.347,1.135,0.771,0.979,1.126,0.106c1.236-0.302,2.611-1.113,3.998-2.265c0.584,1.388,1.15,2.856,1.587,4.288
		c1.041,3.403,2.665-2.346,2.175-8.245c0.371-0.478,0.73-0.967,1.077-1.469c0.828,1.697,1.95,4.161,2.66,6.487
		c1.18,3.852,3.276-6.822,0.286-11.979c1.321-3.431,1.538-6.699-0.372-8.604c-3.084-3.089-5.438-10.449-8.339-11.42
		c-7.532-2.497-17.834-1.958-22.281-9.833c3.158,0.27,6.495,1.612,9.629,1.612c0-13.819-21.971-14.447-30.759-14.447
		c0-12.921,2.284-26.071,8.359-37.597c3.105-5.9,12.808-21.787,20.792-21.787c11.636,0,16.059,13.497,23.334,20.171
		c3.398,3.129,7.968,4.708,11.836,7.185c9.53,6.067,23.868,19.584,35.858,19.584c18.899,0-14.039-38.483-17.52-42.934
		c6.765-4.508,52.29,32.142,52.29-1.334C562.416,180.412,541.897,170.901,531.522,158.992z"/>
</g>
<g>
</g>
<g>
</g>
<g>
</g>
<g>
</g>
<g>
</g>
<g>
</g>
<g>
</g>
<g>
</g>
<g>
</g>
<g>
</g>
<g>
</g>
<g>
</g>
<g>
</g>
<g>
</g>
<g>
</g>
</svg>
