<?xml version="1.0" encoding="iso-8859-1"?>
<!-- Generator: Adobe Illustrator 16.0.0, SVG Export Plug-In . SVG Version: 6.00 Build 0)  -->
<!DOCTYPE svg PUBLIC "-//W3C//DTD SVG 1.1//EN" "http://www.w3.org/Graphics/SVG/1.1/DTD/svg11.dtd">
<svg version="1.1" id="Capa_1" xmlns="http://www.w3.org/2000/svg" xmlns:xlink="http://www.w3.org/1999/xlink" x="0px" y="0px"
	 width="570.102px" height="570.102px" viewBox="0 0 570.102 570.102" style="enable-background:new 0 0 570.102 570.102;"
	 xml:space="preserve">
<g>
	<g>
		<path d="M250.759,487.193c-0.033,0.146-0.061,0.297-0.073,0.416C250.653,487.936,250.69,487.703,250.759,487.193z"/>
		<path d="M201.591,448.307c-0.057-0.09-0.245-0.225-0.49-0.389C201.493,448.307,201.742,448.531,201.591,448.307z"/>
		<path d="M457.693,387.562c0.461-3.395-0.253-5.508-1.146-8.176l-0.511-1.533c-1.142-3.484-3.271-7.928-4.349-9.83
			c-0.144-0.252-0.221-0.432-0.258-0.555c0.225-0.18,0.372-0.445,0.393-0.75c0.004-0.102,0.13-2.652-1.062-5.574
			c-0.946-2.293-2.529-4.328-3.382-5.418c-0.221-0.281-0.396-0.506-0.494-0.652c-0.208-0.311-0.526-0.738-0.84-1.143
			c0.293-0.232,0.448-0.611,0.371-1.008c-0.004-0.012-0.229-1.098-0.343-2.08c-0.176-1.232-0.882-4.105-2.31-6.189
			c-0.865-1.25-2.301-2.922-3.317-4.068l0.575-0.127c0.27-0.064,0.502-0.232,0.646-0.465c0.143-0.24,0.184-0.521,0.109-0.787
			c-0.102-0.408-1.077-3.994-2.293-5.613l-0.808-1.098c-1.387-1.902-2.726-3.697-3.803-4.896c0.322,0.023,0.535-0.086,0.734-0.281
			c0.335-0.322,0.412-0.832,0.184-1.236c-0.139-0.25-3.41-6.072-4.577-7.643c-1.522-1.998-2.448-3.867-2.428-4.5
			c0.017-0.375,0.032-0.799-0.049-0.799c0,0,0,0-0.004,0c0.016-0.004,0.134-0.055,0.591-0.062c0.987,0,2.873,0.625,4.913,2.383
			c1.799,1.551,4.186,2.938,4.288,2.996c0.354,0.203,0.787,0.17,1.113-0.066c0.326-0.24,0.478-0.648,0.392-1.049
			c-0.028-0.109-0.188-0.73-0.853-1.914c-0.404-0.734-1.497-1.836-3.252-3.582c-1.032-1.023-2.113-2.096-2.893-2.986
			c-0.975-1.129-3.578-4.662-5.446-8.074c-1.363-2.514-2.354-5.018-2.885-6.369c-0.017-0.049-0.037-0.09-0.053-0.129l1.109,0.439
			c0.453,0.176,0.959,0.025,1.232-0.387c0.265-0.404,0.212-0.939-0.131-1.281c-0.045-0.049-4.725-4.75-5.684-5.92
			c-0.42-0.539-0.759-1.502-1.113-2.518c-0.367-1.041-0.779-2.215-1.412-3.37c-0.514-0.901-1.163-2.456-1.853-4.096
			c-0.967-2.309-2.064-4.933-3.178-6.728c-0.951-1.509-1.808-2.962-2.604-4.3c-0.779-1.318-1.497-2.53-2.179-3.594
			c-1.191-1.824-3.884-5.663-5.581-7.128l-0.8-0.677c-1.09-0.938-1.95-1.681-3.235-1.681c-0.298,0-0.421-0.155-1.061-1.95
			c-0.76-2.125-2.656-4.043-4.011-5.296c-1.669-1.562-3.199-2.807-6.361-3.488c-1.338-0.286-3.361-0.816-4.631-1.159
			c0.054-0.09,0.09-0.159,0.11-0.184c0.351-0.184,0.669-0.714,0.657-1.11c-0.054-1.354-2.579-2.493-2.604-2.501l-0.326-0.147
			c-0.281-0.13-0.563-0.253-0.886-0.334c0.11-0.277,0.082-0.534,0.058-0.645c-0.118-0.567-0.686-0.906-1.424-1.102
			c0.155-0.27,0.184-0.53,0.18-0.706c-0.024-0.853-0.8-1.31-1.037-1.432c-0.13-0.069-0.293-0.106-0.44-0.11
			c-0.012,0-1.167-0.057-2.938-1.31c-1.008-0.714-1.909-0.992-2.57-1.2c-0.82-0.253-0.82-0.253-0.853-0.62
			c-0.094-1.004,0.289-4.651,0.665-8.172c0.24-2.224,0.489-4.586,0.673-6.724c0.221-2.644,0.359-4.3,0.437-6.173
			c0.106-2.285,0.029-4.578-0.028-5.055c-0.065-0.538-0.163-2.586-0.212-3.643c0.869-0.474,2.366-1.318,2.876-1.747
			c0.058-0.049,0.241-0.073,0.388-0.089c0.392-0.057,1.204-0.167,1.481-1.008c0.22-0.608,0.081-1.146-0.408-1.546
			c0.032-0.082,0.069-0.163,0.094-0.237c0.167-0.388,0.371-0.869,0.493-1.477c0.209-0.212,0.526-0.534,0.678-1.269
			c0.747-0.388,1.257-1.432,1.607-3.289c0.318-1.702,0.633-3.497,0.689-5.235c1.347,0.208,2.407-0.477,3.599-1.579
			c1.388-1.261,4.043-4.104,6.263-9c1.767-3.941,3.276-10.874,4.276-15.459c0.302-1.387,0.562-2.579,0.767-3.423
			c0.6-2.395,1.269-3.97,1.914-5.492c0.322-0.755,0.628-1.481,0.918-2.272c0.546-1.563,1.477-2.713,2.101-3.477
			c0.262-0.326,0.461-0.583,0.575-0.771c0.4-0.706,0.172-1.244,0.054-1.444c-0.421-0.726-1.514-0.832-2.338-0.192
			c-0.339,0.253-2.477,1.13-4.272,1.29c-0.673,0-1.248-0.392-1.872-2.326c-0.363-1.077-0.322-3.807,0.105-7.287
			c0.262-1.901,1.519-6.989,2.575-10.461c0.946-3.117,2.644-6.687,3.333-8.09c0.318-0.628,0.176-1.11,0.062-1.342
			c-0.144-0.286-0.616-0.641-0.935-0.698c-0.354-0.078-0.723,0.073-0.955,0.347c-0.004,0.004-1.281,1.514-1.954,2.183
			c-0.562,0.563-2.493,1.555-3.423,2.032l-0.384,0.196c-0.146,0.057-1.967,0.134-3.003-0.266c0.017-0.032,0.033-0.069,0.049-0.106
			c0.062-0.134,0.217-0.388,0.412-0.714c0.478-0.8,1.2-2.007,1.673-3.219c1.105-2.762,0.882-6.169,0.363-7.723
			c-0.277-0.788-0.714-1.114-1.175-1.306c-0.017-0.282,0.024-0.686,0.094-0.89c0.604-0.388,0.722-1.016,0.91-2.089
			c0.114-0.645,0.281-1.591,0.604-2.987l0.485-2.089c0.73-3.06,1.358-5.704,1.208-7.417c-0.18-1.946-0.674-2.815-1.073-3.513
			l-0.139-0.253c-0.204-0.347-0.449-0.608-0.702-0.808c0.262-0.473,0.535-1.024,0.633-1.432c0.18-0.714,1.774-8.609,2.109-10.686
			c0.302-1.877,0.008-4.125-0.702-5.353c-0.371-0.632-0.864-1.053-1.354-1.297c0.352-1.583,1.065-4.88,1.555-7.801
			c0.682-4.1,0.775-6.23,0.775-7.923c0-0.93-0.339-1.958-0.963-2.921c-0.318-0.461-0.689-0.885-0.951-1.163
			c0.065-1.518,0.277-6.63,0.376-11.171c0.057-2.677-0.004-5.153-0.041-6.581c-0.013-0.481-0.021-0.841-0.021-1.044
			c0-1.962-0.294-3.391-1.016-4.929c-0.241-0.49-0.641-1.465-1.073-2.514c-0.926-2.24-1.51-3.635-1.845-4.141
			c-0.42-0.612-1.252-1.33-1.782-1.754c0.049-0.747,0.077-2.122-0.159-3.79c-0.188-1.432-0.404-3.052-1.693-4.684
			c-1.045-1.313-2.13-2.191-3.66-2.938c-1.86-0.865-3.688-1.297-5.639-1.314c-1.97,0-4.561,1.196-5.079,1.444
			c-0.935,0.474-1.95,1.392-2.064,1.494c-0.339,0.31-0.429,0.812-0.217,1.224c0.209,0.412,0.67,0.628,1.122,0.526
			c0.017-0.004,0.743-0.163,1.856-0.334c1.021-0.155,2.118-0.249,3.737,0.073c1.62,0.335,2.982,1.065,4.158,2.216
			c0.856,0.881,1.061,2.084,1.293,3.468c0.196,1.183-0.114,2.208-0.449,2.734c-0.118,0.196-0.244,0.338-0.322,0.424
			c-0.057-0.069-0.114-0.155-0.188-0.253c-0.232-0.31-0.497-0.669-0.918-1.048c-0.42-0.392-0.971-0.44-1.407-0.44l-0.49,0.053
			c-0.562-0.188-1.228,0.164-1.354,0.734c-0.184,0.804,0.49,1.122,0.935,1.334c0.314,0.146,0.771,0.363,0.775,0.298
			c0.065,0.163,0.098,0.828,0.139,1.604l0.021,0.383c0.065,1.665,0.518,2.644,1.15,4.002l0.51,1.114
			c0.506,1.134,1.412,2.603,2.366,4.158c0.902,1.457,1.828,2.966,2.506,4.312c0.954,1.926,1.272,5.059,1.484,7.136
			c0.086,0.857,0.164,1.571,0.253,2.044c0.335,1.653,0.641,4.631,0.567,5.508c-0.012,0.139-0.028,0.232-0.045,0.286
			c-0.281,0.184-0.461,0.498-0.461,0.853v0.702c-0.253-0.208-0.596-0.286-0.922-0.188c-0.396,0.11-0.686,0.449-0.734,0.861
			c0,0-0.086,0.686-0.094,1.302c-0.208,0.094-0.38,0.253-0.481,0.461c-0.131,0.253-0.147,0.551-0.049,0.816
			c0.004,0.012,0.416,1.118,0.645,2.048c0.277,1.142,0.849,3.729,1.244,6.181c0.747,4.81,0.494,5.72,0.453,5.842
			c-0.188,0.502-0.302,1.167-0.371,1.718c-0.311,0-0.543,0.024-0.661,0.057c-0.629,0.098-1.375,0.502-1.359,1.738
			c-0.04,0.102-0.248,0.359-0.424,0.522c-0.229,0.208-0.347,0.51-0.33,0.816c0.016,0.306,0.175,0.596,0.424,0.771
			c0.146,0.106,0.384,0.355,0.371,0.555c-0.249,0.155-0.416,0.412-0.457,0.698c-0.045,0.29,0.037,0.583,0.225,0.808
			c0.008,0.008,0.232,0.273,0.388,0.519c-0.032,0.155-0.106,0.416-0.191,0.612c-0.127,0.314-0.09,0.673,0.098,0.955
			c0.069,0.102,0.159,0.196,0.257,0.265c-0.041,0.053-0.073,0.11-0.098,0.171c-0.143,0.306-0.122,0.665,0.053,0.955
			c0.009,0.016,0.873,1.452,0.935,2.844c0.09,1.652,0.167,3.888,0.167,4.716c0,0.343-0.041,0.514,0.037,0.498
			c-0.18,0.029-2.599,0.445-3.284,1.249c-0.176,0.204-0.657,0.885-0.058,1.685c-0.232,0.375-0.453,0.857-0.363,1.734
			c0.049,0.596,0.151,1.118,0.294,1.824l0.221,1.114c0.118,0.636,0.367,1.583,0.62,2.558c0.281,1.073,0.583,2.187,0.706,2.958
			c0.208,1.138,0.114,4.255,0.016,5.381c-0.22,0.069-0.538,0.229-1.562,0.082c-0.057-0.147-0.146-0.281-0.265-0.392
			c-0.221-0.196-0.502-0.286-0.788-0.257l-0.661,0.07c-0.379,0.041-0.701,0.29-0.84,0.645s-0.069,0.763,0.184,1.048
			c0.004,0.008,0.448,0.526,0.555,1.302c-0.311,0.196-0.494,0.542-0.478,0.914l0.086,1.538l-0.082,1.008
			c-0.012,0.122-0.012,0.122-0.216,0.399c-0.359,0.481-0.963,1.293-1.755,3.436c-0.812,2.244-1.921,4.892-2.819,6.749
			c-0.542,1.109-1.061,1.966-1.179,2.122c-0.086,0.106-0.155,0.184-0.204,0.232c-0.167-0.302-0.273-0.783-0.302-0.983
			c0.004-0.225-0.069-0.449-0.216-0.636c-0.702-0.902-1.343-1.991-1.869-3.174c-0.686-1.481-1.154-3.032-1.289-4.28
			c-0.253-1.885-0.143-3.941-0.139-3.961c0.021-0.42-0.213-0.804-0.596-0.979c-0.38-0.18-0.824-0.102-1.131,0.188
			c-0.057,0.053-0.562,0.547-0.963,1.351l-0.167,0.298c-0.318,0.539-0.718,1.204-1.028,3.296c-0.306,2.375-0.102,4.305,0.355,6.826
			c0.363,2.061,0.751,3.028,1.004,3.668l0.167,0.425c-0.017,0.044-0.098,0.167-0.266,0.416c-0.428,0.648-0.351,1.167-0.208,2.109
			c0.078,0.485,0.184,1.187,0.298,2.244c0.163,1.481,0.314,2.313,0.429,2.975c0.11,0.604,0.195,1.057,0.236,1.815
			c0.033,0.551,0.103,1.917,0.196,3.627c0.167,3.186,0.396,7.548,0.562,9.976c0.147,2.399,0.596,7.617,0.942,11.665
			c0.196,2.285,0.363,4.186,0.425,5.014c0.106,1.347,0.485,2.942,0.824,4.345c0.229,0.947,0.437,1.844,0.465,2.293
			c0.065,0.755,0.147,2.791,0.2,4.125c-1-0.151-2.362-0.347-3.17-0.4c-1.526,0-4.565,1.208-5.99,1.856
			c-1.737,0.853-2.733,1.432-4.3,2.33c-0.249,0-0.8-0.53-1.171-0.881c-0.351-0.334-0.71-0.673-1.081-0.934
			c-1.229-0.873-7.324-4.88-8.984-5.94c-1.6-1.024-5.341-3.423-8.319-4.994c-2.958-1.567-6.385-4.268-8.001-5.985
			c-2.88-3.011-4.777-4.872-6.165-6.046c-1.505-1.236-2.419-1.697-3.545-2.109c-0.245-0.094-0.62-0.163-1.057-0.216
			c0.081-0.057,0.159-0.11,0.24-0.163c1.722-1.151,2.946-2.701,3.729-4.729c0.995-2.538,1.02-5.708,0.069-7.887
			c-1.021-2.337-2.469-4.043-4.312-5.067c-1.559-0.877-2.946-0.991-3.603-1.048l-0.637-0.061c-0.388-0.029-1.032-0.082-1.171-0.151
			c-0.078-0.078-0.131-0.221-0.172-0.404c0.343,0.09,0.678,0.176,0.902,0.196c0.045,0.004,0.265,0.021,0.31,0.021
			c0.522,0,0.979-0.171,1.388-0.318c0.322-0.122,0.624-0.236,0.926-0.265l1.645-0.13c1.966-0.159,5.234-0.428,6.373-0.428
			c1.179,0.012,1.607-1.049,1.791-1.587c0.184,0.11,0.396,0.229,0.607,0.27c0.404,0.114,1.559,0.367,3.04,0.469
			c0.763,0.053,1.42,0.232,1.803,0.355l0.172,0.424c0.135,0.331,0.437,0.571,0.791,0.62l1.559,0.241
			c0.311,1.236,1.09,1.167,1.465,1.105c0.331,0.094,1.106,0.506,1.489,0.714c0.281,0.147,0.535,0.282,0.693,0.355
			c0.959,0.481,1.771-0.228,2.057-0.591c0.065-0.078,0.155-0.188,0.163-0.2c0.168-0.065,0.347-0.102,0.519-0.143
			c0.559-0.131,1.252-0.298,1.759-0.914c0.044-0.053,0.126-0.094,0.322-0.184c0.313-0.139,0.746-0.331,1.166-0.808
			c0.682-0.816,1.955-3.656,3.42-7.581c1.713-4.586,1.383-8.568,0.901-11.521c-0.4-2.464-0.759-3.591-0.967-4.264
			c-0.054-0.167-0.094-0.302-0.139-0.478c-0.371-1.204-1.347-1.281-2.22-1.354c-0.143-0.021-0.281-0.028-0.416-0.028
			c-0.616,0-2.049,0.232-2.049,2.35c0,0.824-0.734,2.053-1.746,3.75l-0.195,0.33c-1.22,2.028-2.75,4.872-3.126,6.932
			c-0.212,1.142,0.172,1.636,0.608,1.999c0.086,0.065,0.204,0.167,0.204,0.951c0,0.935,0.167,2.656,0.29,3.803h-0.857
			c-0.461,0-0.877-0.184-1.771-0.596c-0.738-0.339-1.686-0.775-3.064-1.257c-3.219-1.146-4.676-0.889-5.618-0.958
			c-0.403-0.033-0.853-0.429-1.248-0.784c-0.204-0.179-0.396-0.343-0.547-0.449c-0.257-0.192-0.751-0.445-2.048-0.445
			c-1.334,0-3.072,0.261-4.541,0.686c-1.212,0.363-2.611,1.29-3.762,2.179c0.154-1.024-0.013-3.04-0.245-5.532l-0.098-1.106
			c-0.065-0.693-0.229-1.864-0.412-3.162c-0.281-2-0.633-4.488-0.661-5.712c-0.086-1.758-0.253-4.06-0.796-6.283
			c-0.559-2.231-1.383-4.084-6.969-7.629c-5.454-3.476-8.266-4.463-10.298-4.97c-1.272-0.318-2.799-0.29-4.28-0.188
			c-0.555,0.045-1.105,0.086-1.656,0.086c-1.093,0-2.701-0.004-4.218-0.049c-1.453,0.045-3.06,0.049-4.158,0.049
			c-0.551,0-1.105-0.041-1.656-0.086c-1.489-0.106-2.999-0.13-4.276,0.188c-2.032,0.506-4.847,1.494-10.298,4.97
			c-5.585,3.542-6.41,5.398-6.973,7.634c-0.539,2.203-0.706,4.508-0.796,6.304c-0.028,1.203-0.379,3.692-0.657,5.695
			c-0.184,1.293-0.347,2.464-0.412,3.162l-0.098,1.102c-0.233,2.48-0.396,4.496-0.245,5.541c-1.15-0.897-2.554-1.828-3.774-2.191
			c-1.46-0.42-3.199-0.681-4.529-0.681c-1.297,0-1.787,0.253-2.028,0.428c-0.171,0.123-0.363,0.286-0.567,0.465
			c-0.396,0.355-0.845,0.754-1.236,0.783c-1,0.082-2.411-0.184-5.622,0.955c-1.387,0.481-2.334,0.922-3.072,1.261
			c-0.898,0.412-1.31,0.596-1.771,0.596h-0.856c0.122-1.142,0.29-2.864,0.29-3.803c0-0.787,0.118-0.889,0.204-0.95
			c0.437-0.367,0.816-0.861,0.604-1.995c-0.379-2.081-1.909-4.921-3.121-6.932l-0.212-0.351c-1.004-1.689-1.73-2.909-1.73-3.733
			c0-2.122-1.437-2.35-2.052-2.35c-0.126,0-0.265,0.008-0.506,0.033c-0.775,0.069-1.75,0.147-2.142,1.408
			c-0.029,0.118-0.074,0.253-0.123,0.42c-0.212,0.677-0.567,1.804-0.963,4.268c-0.481,2.958-0.812,6.936,0.897,11.518
			c1.457,3.929,2.738,6.765,3.444,7.605c0.404,0.457,0.832,0.649,1.142,0.788c0.204,0.09,0.282,0.13,0.331,0.188
			c0.502,0.608,1.191,0.771,1.75,0.91c0.171,0.041,0.347,0.082,0.485,0.126c0.041,0.028,0.131,0.139,0.196,0.216
			c0.216,0.27,0.62,0.767,1.334,0.767c0.241,0,0.481-0.061,0.693-0.167c0.188-0.086,0.445-0.22,0.734-0.372
			c0.396-0.212,1.2-0.636,1.469-0.714c0.086,0.017,0.163,0.024,0.233,0.024c0.236,0,0.979-0.085,1.24-1.126l1.566-0.241
			c0.355-0.053,0.657-0.29,0.792-0.62l0.171-0.424c0.388-0.123,1.044-0.302,1.808-0.355c1.46-0.102,2.595-0.343,2.962-0.449
			c0.273-0.062,0.498-0.18,0.686-0.29c0.18,0.53,0.559,1.575,1.955,1.575c0.004,0,0.012,0,0.02,0c0.836,0,4.182,0.277,6.186,0.44
			l1.616,0.131c0.331,0.033,0.632,0.143,0.955,0.261c0.404,0.151,0.861,0.322,1.383,0.322c0.032,0,0.241-0.012,0.265-0.017
			c0.269-0.024,0.608-0.106,0.955-0.2c-0.037,0.18-0.085,0.31-0.143,0.375c-0.176,0.098-0.824,0.151-1.212,0.18l-0.771,0.074
			c-0.522,0.044-1.906,0.159-3.456,1.032c-1.844,1.024-3.301,2.729-4.316,5.067c-0.955,2.174-0.935,5.349,0.057,7.891
			c0.787,2.023,2.007,3.57,3.733,4.729c0.082,0.053,0.155,0.106,0.237,0.159c-0.424,0.053-0.792,0.114-1.02,0.208
			c-1.159,0.424-2.073,0.885-3.59,2.13c-1.371,1.163-3.268,3.023-6.153,6.039c-1.616,1.713-5.047,4.418-7.993,5.977
			c-3.056,1.612-6.826,4.031-8.425,5.063c-1.628,1.037-7.683,5.019-8.886,5.872c-0.371,0.261-0.726,0.595-1.077,0.934
			c-0.359,0.343-0.897,0.857-1.232,0.857c-0.008,0-0.021,0-0.029-0.004c-1.477-0.869-2.472-1.444-4.239-2.309
			c-1.493-0.681-4.423-1.832-6.161-1.832c-0.004,0-0.012,0-0.02,0c-0.677,0.045-1.975,0.233-2.954,0.388
			c0.053-1.338,0.135-3.382,0.204-4.153c0.024-0.42,0.236-1.314,0.461-2.26c0.334-1.412,0.718-3.003,0.82-4.357
			c0.065-0.833,0.232-2.791,0.428-5.117c0.347-4.035,0.788-9.18,0.938-11.554c0.167-2.436,0.396-6.789,0.563-9.972
			c0.09-1.714,0.163-3.084,0.2-3.651c0.037-0.755,0.119-1.204,0.233-1.82c0.114-0.657,0.265-1.485,0.432-2.962
			c0.11-1.052,0.221-1.754,0.294-2.24c0.143-0.938,0.224-1.457-0.318-2.272c-0.061-0.086-0.143-0.212-0.114-0.355l0.126-0.322
			c0.253-0.641,0.641-1.612,1.004-3.664c0.457-2.529,0.661-4.455,0.347-6.846c-0.302-2.077-0.702-2.746-1.02-3.28l-0.167-0.298
			c-0.404-0.804-0.91-1.297-0.963-1.351c-0.306-0.29-0.759-0.359-1.13-0.191c-0.379,0.175-0.612,0.567-0.596,0.983
			c0.004,0.021,0.106,2.077-0.143,3.986c-0.13,1.224-0.6,2.774-1.293,4.271c-0.514,1.159-1.155,2.252-1.861,3.158
			c-0.143,0.184-0.216,0.408-0.216,0.624c-0.025,0.184-0.123,0.625-0.311,0.983c-0.057-0.053-0.122-0.126-0.208-0.236
			c-0.106-0.135-0.624-0.992-1.167-2.105c-0.894-1.832-2.028-4.541-2.824-6.756c-0.787-2.134-1.391-2.946-1.754-3.427
			c-0.204-0.277-0.204-0.277-0.216-0.404l-0.077-0.877l0.082-1.665c0.016-0.372-0.167-0.718-0.473-0.91
			c0.098-0.775,0.546-1.298,0.546-1.298c0.257-0.286,0.334-0.693,0.196-1.053c-0.139-0.359-0.465-0.607-0.849-0.648l-0.657-0.069
			c-0.282-0.029-0.571,0.065-0.783,0.257c-0.126,0.11-0.221,0.253-0.273,0.404c-0.008,0-0.021,0.004-0.037,0.008
			c-0.596,0.033-1.302-0.033-1.526-0.098c-0.094-1.053-0.191-4.223,0.021-5.402c0.119-0.751,0.42-1.861,0.702-2.934
			c0.257-0.979,0.506-1.926,0.624-2.562l0.229-1.159c0.135-0.681,0.236-1.191,0.286-1.758c0.085-0.833-0.102-1.306-0.359-1.758
			c0.608-0.784,0.11-1.481-0.057-1.677c-0.681-0.804-3.203-1.216-3.146-1.204c-0.033-0.045-0.11-0.216-0.11-0.551
			c0-0.828,0.082-3.064,0.167-4.725c0.065-1.383,0.93-2.819,0.935-2.835c0.175-0.29,0.196-0.649,0.053-0.955
			c-0.028-0.065-0.065-0.119-0.098-0.176c0.098-0.073,0.188-0.159,0.257-0.261c0.188-0.282,0.225-0.641,0.094-0.955
			c-0.073-0.175-0.155-0.444-0.191-0.612c0.159-0.245,0.383-0.514,0.392-0.522c0.184-0.229,0.236-0.518,0.191-0.804
			c-0.049-0.286-0.241-0.546-0.485-0.702c0.045-0.196,0.277-0.44,0.42-0.542c0.253-0.176,0.42-0.461,0.437-0.771
			c0.016-0.311-0.102-0.612-0.331-0.824c-0.18-0.164-0.383-0.417-0.412-0.417c0-1.342-0.747-1.746-1.293-1.828
			c-0.196-0.049-0.433-0.069-0.743-0.073c-0.073-0.555-0.191-1.229-0.383-1.747c-0.114-0.326-0.143-1.917,0.465-5.806
			c0.424-2.668,1.04-5.37,1.24-6.181c0.236-0.935,0.645-2.044,0.648-2.057c0.098-0.265,0.102-0.559-0.028-0.812
			c-0.11-0.221-0.282-0.384-0.506-0.474c-0.012-0.612-0.09-1.289-0.09-1.289c-0.045-0.412-0.42-0.738-0.816-0.849
			c-0.273-0.09-0.592-0.033-0.841,0.098v-0.628c0-0.351-0.179-0.665-0.457-0.849c-0.013-0.062-0.033-0.159-0.045-0.314
			c-0.082-0.849,0.229-3.823,0.563-5.487c0.09-0.469,0.171-1.196,0.257-2.061c0.212-2.068,0.53-5.194,1.485-7.111
			c0.673-1.347,1.604-2.848,2.493-4.305c0.959-1.559,1.869-3.027,2.375-4.17l0.51-1.114c0.632-1.354,1.089-2.333,1.154-3.986
			l0.021-0.388c0.037-0.767,0.074-1.44-0.028-1.44c0.171-0.114,0.612-0.318,0.926-0.465c0.478-0.229,1.13-0.539,0.951-1.342
			c-0.106-0.465-0.522-0.796-1-0.796c-0.159,0-0.236,0.024-0.208,0.029l-0.037,0.624l-0.249-0.632l-0.355-0.008
			c-0.433,0-0.987,0.053-1.396,0.429c-0.428,0.392-0.702,0.75-0.934,1.065c-0.069,0.089-0.126,0.171-0.18,0.236
			c-0.094-0.085-0.216-0.229-0.33-0.42c-0.331-0.519-0.641-1.542-0.449-2.717c0.241-1.392,0.441-2.595,1.285-3.464
			c1.179-1.159,2.542-1.889,4.149-2.228c1.661-0.314,2.66-0.241,3.835-0.061c1.036,0.159,1.762,0.318,1.779,0.322
			c0.445,0.102,0.914-0.114,1.122-0.526c0.216-0.412,0.122-0.914-0.22-1.224c-0.11-0.102-1.13-1.02-2.085-1.505
			C199.465,1.195,196.875,0,194.839,0c-1.893,0.016-3.713,0.445-5.585,1.322c-1.506,0.734-2.599,1.607-3.656,2.934
			c-1.285,1.636-1.501,3.264-1.697,4.712c-0.229,1.648-0.196,3.015-0.147,3.758c-0.53,0.424-1.363,1.138-1.787,1.762
			c-0.331,0.502-0.951,1.979-1.864,4.182c-0.424,1.032-0.816,1.979-1.045,2.464c-0.718,1.534-1.012,2.962-1.012,4.925
			c0,0.204-0.008,0.559-0.021,1.036c-0.037,1.432-0.098,3.909-0.041,6.589c0.09,4.541,0.306,9.653,0.375,11.171
			c-0.266,0.281-0.641,0.71-0.963,1.179c-0.616,0.938-0.955,1.971-0.955,2.905c0,1.681,0.094,3.807,0.784,7.923
			c0.351,2.109,0.889,4.811,1.55,7.801c-0.494,0.249-0.987,0.665-1.363,1.302c-0.698,1.212-0.996,3.509-0.693,5.349
			c0.334,2.077,1.93,9.972,2.109,10.686c0.098,0.408,0.371,0.955,0.632,1.432c-0.253,0.208-0.51,0.478-0.722,0.836l-0.131,0.237
			c-0.396,0.702-0.885,1.571-1.061,3.509c-0.151,1.706,0.477,4.349,1.208,7.409l0.485,2.089c0.323,1.399,0.49,2.342,0.604,2.987
			c0.192,1.089,0.306,1.726,0.91,2.089c0.078,0.225,0.114,0.649,0.123,0.873c-0.445,0.176-0.914,0.494-1.208,1.334
			c-0.518,1.534-0.747,4.941,0.363,7.703c0.474,1.212,1.191,2.419,1.669,3.215c0.196,0.331,0.351,0.583,0.424,0.755
			c0.012,0.032,0.024,0.065,0.041,0.089c-0.563,0.216-1.347,0.351-2.122,0.351c-0.539,0-0.824-0.069-0.849-0.078l-0.425-0.22
			c-0.93-0.473-2.86-1.465-3.419-2.024c-0.669-0.673-1.954-2.187-1.954-2.19c-0.237-0.278-0.596-0.408-0.955-0.343
			c-0.318,0.057-0.792,0.412-0.935,0.697c-0.114,0.233-0.257,0.714,0.069,1.363c0.689,1.396,2.387,4.974,3.329,8.07
			c1.061,3.5,2.31,8.588,2.575,10.453c0.428,3.497,0.469,6.226,0.098,7.315c-0.616,1.914-1.187,2.309-1.987,2.309
			c-0.004,0-0.012,0-0.016,0c-1.657-0.155-3.799-1.032-4.141-1.289c-0.804-0.628-1.914-0.53-2.33,0.196
			c-0.118,0.2-0.347,0.738,0.062,1.453c0.102,0.179,0.302,0.432,0.567,0.759c0.616,0.767,1.55,1.917,2.101,3.484
			c0.282,0.775,0.592,1.501,0.91,2.252c0.648,1.522,1.318,3.101,1.917,5.5c0.208,0.836,0.461,2.007,0.763,3.37
			c1,4.602,2.517,11.559,4.292,15.516c2.211,4.896,4.868,7.74,6.247,8.992c1.448,1.338,2.444,1.746,3.606,1.587
			c0.049,1.689,0.367,3.509,0.689,5.234c0.351,1.86,0.865,2.905,1.657,3.484c0.098,0.534,0.42,0.857,0.75,1.171
			c0,0.51,0.204,0.991,0.372,1.379c0.024,0.062,0.057,0.131,0.085,0.2c-0.473,0.449-0.604,0.975-0.404,1.562
			c0.286,0.861,1.102,0.971,1.489,1.028c0.151,0.021,0.334,0.045,0.4,0.098c0.498,0.42,1.995,1.265,2.864,1.742
			c-0.057,1.212-0.151,3.15-0.212,3.64c-0.057,0.477-0.135,2.774-0.028,5.051c0.077,1.758,0.204,3.317,0.399,5.688l0.041,0.494
			c0.184,2.134,0.433,4.5,0.673,6.72c0.375,3.521,0.763,7.168,0.665,8.181c-0.033,0.359-0.033,0.359-0.853,0.612
			c-0.657,0.208-1.562,0.485-2.57,1.2c-1.771,1.252-2.921,1.31-2.913,1.31c-0.159,0-0.314,0.037-0.457,0.106
			c-0.241,0.123-1.02,0.583-1.041,1.436c-0.008,0.171,0.021,0.424,0.192,0.702c-0.747,0.196-1.318,0.534-1.44,1.105
			c-0.025,0.11-0.057,0.367,0.057,0.645c-0.327,0.082-0.6,0.208-0.89,0.339l-0.314,0.143c-0.029,0.008-2.554,1.146-2.607,2.501
			c-0.016,0.465,0.237,0.894,0.583,1.061c0.045,0.041,0.102,0.126,0.171,0.241c-1.269,0.343-3.284,0.869-4.619,1.155
			c-3.149,0.677-4.68,1.93-6.356,3.484c-1.354,1.253-3.252,3.162-4.064,5.435c-0.591,1.657-0.709,1.812-1.007,1.812
			c-1.286,0-2.146,0.743-3.236,1.681l-0.816,0.694c-1.693,1.457-4.382,5.292-5.565,7.12c-0.682,1.057-1.399,2.268-2.179,3.586
			c-0.792,1.338-1.648,2.791-2.607,4.305c-1.109,1.795-2.215,4.422-3.186,6.74c-0.686,1.636-1.33,3.178-1.849,4.096
			c-0.62,1.138-1.036,2.313-1.403,3.35c-0.359,1.021-0.698,1.983-1.106,2.501c-0.967,1.191-5.65,5.891-5.695,5.941
			c-0.343,0.342-0.4,0.881-0.131,1.279c0.27,0.408,0.775,0.557,1.232,0.389l1.105-0.441c-0.012,0.029-0.024,0.062-0.037,0.09
			c-0.53,1.352-1.518,3.869-2.901,6.402c-1.856,3.406-4.463,6.939-5.443,8.074c-0.783,0.902-1.869,1.975-2.896,2.998
			c-1.754,1.742-2.844,2.844-3.248,3.574c-0.669,1.188-0.828,1.805-0.856,1.918c-0.086,0.4,0.065,0.809,0.392,1.049
			c0.331,0.24,0.763,0.27,1.114,0.064c0.098-0.061,2.485-1.443,4.292-2.994c2.04-1.758,3.921-2.383,4.941-2.383
			c0.253,0.004,0.388,0.029,0.449,0.012c0.033,0.18,0.045,0.539,0.062,0.895c0.021,0.588-0.906,2.455-2.44,4.467
			c-1.155,1.559-4.427,7.385-4.565,7.631c-0.229,0.402-0.151,0.914,0.184,1.236c0.2,0.191,0.416,0.244,0.734,0.281
			c-1.077,1.203-2.411,2.994-3.798,4.887l-0.816,1.105c-1.216,1.617-2.191,5.207-2.293,5.611c-0.073,0.264-0.032,0.555,0.11,0.787
			c0.143,0.24,0.375,0.408,0.645,0.469l0.58,0.131c-1.016,1.143-2.46,2.818-3.325,4.072c-1.424,2.076-2.126,4.949-2.305,6.205
			c-0.114,0.955-0.339,2.045-0.343,2.057c-0.082,0.395,0.078,0.779,0.371,1.012c-0.31,0.404-0.628,0.824-0.832,1.131
			c-0.098,0.15-0.27,0.371-0.486,0.645c-0.856,1.098-2.444,3.133-3.395,5.438c-1.195,2.918-1.065,5.467-1.061,5.574
			c0.021,0.297,0.167,0.566,0.392,0.742c-0.041,0.117-0.114,0.301-0.257,0.559c-1.082,1.902-3.207,6.344-4.354,9.838l-0.502,1.514
			c-0.906,2.672-1.616,4.789-1.15,8.18c0.608,4.695,0.991,6.145,1.803,6.744c0.257,0.184,0.514,0.461,0.437,1.131l-0.057,0.334
			c-0.151,0.848-0.428,2.428-0.008,4.369c0.461,2.053,1.792,4.41,3.167,5.611c2.444,2.104,3.941,2.328,5.149,2.508
			c0.196,0.029,0.392,0.062,0.604,0.098c1.559,0.27,4.504-0.818,4.806-0.934c0.457-0.176,0.727-0.656,0.637-1.139
			c-0.09-0.48-0.514-0.832-1.004-0.832c-0.449,0-0.934-0.012-1.403-0.033c0.596-0.252,1.048-0.514,1.143-0.566
			c0.416-0.244,0.604-0.742,0.461-1.195c-0.151-0.457-0.596-0.771-1.073-0.705c-0.021,0.004-0.551,0.053-1.301,0.053
			c-2.256,0-3.958-0.438-4.553-1.184c-1.347-1.652-1.444-4.717-0.935-5.578c0.2-0.33,0.596-0.461,0.947-0.51l0.208,0.936
			c0.106,0.488,0.461,0.848,1.073,0.795c0.506-0.037,0.906-0.438,0.938-0.943c0.004-0.012,0.106-1.451,0.347-2.615
			c0.298-1.469,0.273-4.115-0.273-5.988c-0.486-1.746-1.306-8.854-0.955-11.105c0.265-1.836,0.82-3.75,1.191-5.016
			c0.119-0.42,0.22-0.762,0.286-1.02c0.155-0.633,0.686-1.578,0.938-1.99c0.245,0.166,0.539,0.289,0.902,0.289
			c0.118,0,0.412-0.053,0.526-0.094c0.922-0.34,1.66-1.686,2.011-2.443c0.045-0.164,1.041-4.072,0.906-6.467
			c-0.139-2.453,0.106-3.041,0.22-3.143c0.363-0.27,0.637-0.604,0.861-0.877c0.017-0.021,0.033-0.041,0.053-0.061
			c0.135,0.084,0.302,0.158,0.514,0.223c0.371,0.131,0.767,0.254,1.175,0.254c0.812,0,1.416-0.48,1.645-1.301l0.179-0.555
			c0.375-1.139,0.845-2.559,0.739-5.297c-0.086-2.199,0.726-4.68,1.052-5.59c0.102,0.281,0.225,0.572,0.367,0.812
			c0.404,0.668,0.971,0.99,1.375,1.076c0.494,0.094,0.979-0.166,1.155-0.637c0.114-0.305,0.445-1.248,0.453-2.035
			c0.232-0.064,0.437-0.213,0.575-0.412c0.155-0.232,0.212-0.518,0.151-0.787l-0.024-0.119c0.298-0.154,0.51-0.447,0.546-0.807
			c0.18-1.889,0.563-5.162,0.829-5.924c0.347-1.094,1.807-4.949,1.799-4.953c0.224-0.416,0.624-0.914,0.75-0.977l0.253-0.008
			c0,0,0.11,0.078,0.265,0.494c0.334,0.848,0.433,1.84,0.433,1.852c0.049,0.482,0.424,0.865,0.91,0.914
			c0.457,0.049,0.935-0.244,1.082-0.701c0.75-2.35,3.187-10.109,3.187-11.334c0-0.596,0.167-1.566,0.396-2.6
			c0.6,2.738,1.334,5.92,1.632,6.721c0.478,1.289,0.959,3.148,0.963,3.166c0.123,0.469,0.478,0.803,1.041,0.766
			c0.481-0.023,0.881-0.387,0.955-0.863c0.559-3.611,1.449-9.234,1.624-9.939c0.085-0.371,0.212-0.979,0.331-1.604
			c0.983,1.264,2.236,2.885,2.864,3.725c1.118,1.473,4.941,7.156,5.422,8.1c0.514,1.072,1.159,1.975,1.187,2.012
			c0.265,0.379,0.747,0.525,1.188,0.361c0.428-0.162,0.702-0.596,0.657-1.051c-0.012-0.107-0.261-2.648-1.29-5.738
			c-0.718-2.154-2.325-5.82-2.933-7.205l-0.221-0.496c-0.159-0.393-0.155-0.76,0.021-1.266l0.131-0.416
			c0.22-0.746,0.522-1.768,1.644-2.637c1.722-1.309,2.742-3.537,3.027-6.602c0.367-3.406,0.934-6.033,1.685-7.828
			c1.044-2.502,1.559-7.854,1.583-8.074l0.375-3.864c0.008-0.086,0.004-0.18-0.008-0.261c-0.232-1.42-0.653-5.496,0.167-7.312
			l0.139-0.306c0.041-0.086,0.078-0.167,0.11-0.253c-0.171,2.333-0.22,4.533-0.057,5.667l0.237,1.706
			c0.478,3.484,1.934,14.072,1.86,15.279c-0.343,3.035-0.763,5.031-1.249,5.932c-0.946,1.779-1.22,3.521-1.232,3.6
			c-0.061,0.404,0.123,0.803,0.469,1.02c0.485,0.299,1.277,0.922,1.538,1.387c0.118,0.205,0.265,0.412,0.424,0.621
			c0.612,0.84,0.73,1.113,0.343,1.693c-0.539,0.82-2.387,4.377-0.873,5.5c0.118,0.086,0.29,0.184,0.506,0.293
			c0.877,0.453,1.542,0.91,1.477,2.225c-0.062,1.061-0.139,1.822-0.212,2.496c-0.094,0.939-0.175,1.709-0.175,2.807
			c0,0.408-0.012,1.119-0.024,1.996c-0.078,4.602-0.119,8.828,0.184,10.02c0.375,1.502,0.461,1.889,0.461,2.758
			c0,0.756,0.286,1.184,0.473,1.465c0.143,0.221,0.2,0.299,0.159,0.711c-0.114,1.248,0.126,2.611,0.363,3.934l0.147,0.84
			c0.085,0.506,0.212,1.053,0.343,1.619c0.257,1.131,0.53,2.297,0.53,3.457c0,1.795,0,2.615-0.885,3.578
			c-0.743,0.84-9.038,11.623-10.004,17.025c-0.889,4.912-0.946,6.393-0.322,7.947c0.151,0.363,0.012,1.078-0.114,1.709
			c-0.175,0.902-0.363,1.832,0.106,2.771c0.506,1.027,0.828,1.803,0.367,2.455c-0.188,0.27-0.388,0.393-0.665,0.561
			c-0.804,0.477-1.534,1.064-1.628,2.969c-0.049,1.021-0.318,2-0.604,3.045c-0.335,1.223-0.714,2.615-0.779,4.25l-0.119,2.693
			c-0.073,1.615-0.126,2.865-0.126,3.461c0,0.252-0.114,0.615-0.236,1.002c-0.184,0.592-0.396,1.262-0.396,2.033
			c0,0.473,0.021,0.994,0.041,1.604c0.033,0.832,0.069,1.84,0.069,3.141c0,2.068-0.318,3.371-0.322,3.383
			c-0.119,0.48,0.118,0.979,0.575,1.184l0.388,0.17c-0.119,0.674-0.253,1.527-0.253,1.898c0,0.453,0.196,0.787,0.355,1.057
			c0.184,0.314,0.342,0.588,0.281,1.219c-0.11,1.285-0.906,2.895-0.914,2.91c-0.179,0.359-0.049,0.779,0.208,1.094
			c0.114,0.139,0.281,0.244,0.461,0.297c-0.11,0.547-0.29,1.27-0.449,1.723c-0.123,0.346-0.273,1.08-0.429,1.873
			c-0.159,0.811-0.375,1.926-0.555,2.328c-0.135,0.322-0.294,0.531-0.494,0.793c-0.245,0.312-0.514,0.668-0.755,1.219
			c-0.383,0.887-1.032,2.803-1.032,2.803c-0.114,0.332-0.049,0.699,0.171,0.973c0.225,0.268,0.579,0.402,0.918,0.367
			c0.028,0,1.579-0.115,2.073-0.062c-0.008,0.4-0.086,1.045-0.204,1.611c-0.037,0.176-0.024,0.359,0.037,0.531
			c0.131,0.391,0.327,1.117,0.327,1.443c0,0.385-0.221,2.273-0.375,3.494c-0.024,0.174,0.004,0.357,0.073,0.521l0.417,0.979
			c-0.249,1.742-0.653,4.424-0.808,4.982c-0.204,0.713-0.049,1.26,0.057,1.619c0.082,0.277,0.106,0.389,0.078,0.523
			c-0.208,0.693-0.698,2.316-1.265,3.227c-0.649,1.027-2.093,4.133-2.485,5.354c-0.322,0.967-2.897,5.662-3.798,7.066
			c-0.874,1.402-2.342,4.32-2.407,4.443c-0.143,0.289-0.143,0.631,0.004,0.926c0.151,0.289,0.428,0.488,0.755,0.543l0.747,0.113
			c0.265,0.045,0.539-0.023,0.763-0.188c0.216-0.158,0.363-0.404,0.404-0.67c0.028-0.184,0.114-0.432,0.216-0.604
			c0.098,0.539,0.106,1.477,0.11,1.988c0.008,1.146,0.017,1.777,0.445,2.219c0.13,0.131,0.535,0.535,1.167,0.535
			c0.591,0,1.097-0.328,1.73-0.869c0.596-0.52,2.162-0.967,3.002-1.213l0.363-0.102c0.09-0.023,0.204-0.037,0.331-0.041
			c-0.775,2.877-1.869,6.752-2.167,7.422l-2.619,5.748c-0.123,0.27-0.123,0.588,0.004,0.857c0.196,0.416,0.665,0.898,1.338,0.898
			c0.53,0,1.008-0.287,1.424-0.869c0.62-0.906,2.269-2.787,3.011-3.457c-0.836,1.857-2.586,6.893-2.966,8.4
			c-0.49,1.898-0.543,5.697-0.543,7.242c0,0.711,0.241,2.248,0.266,2.424c0.053,0.334,0.269,0.621,0.579,0.768
			c0.302,0.143,0.661,0.131,0.955-0.053l0.4-0.242c-0.942,2.184-1.334,5.08-1.301,9.396c0,2.322,0.481,4.623,0.506,4.717
			c0.085,0.396,0.392,0.701,0.779,0.783l1.416,0.307c-0.049,0.996-0.13,2.6-0.208,3.346l-0.11,0.877
			c-0.4,3.008-0.788,6.344-0.347,7.789c0.188,0.604,0.253,1.08,0.318,1.473c0.102,0.697,0.204,1.35,0.689,1.9
			c0.306,0.654,0.567,4.818,0.567,9.092c0,0.496-0.017,0.945-0.033,1.391c-0.062,1.848-0.118,3.59,0.808,7.617
			c1.146,4.92,1.534,5.867,1.971,6.729c0.114,0.24,0.225,0.408,0.318,0.555c0.135,0.217,0.2,0.311,0.2,1.125
			c0,1.074,0.388,2.184,0.727,3.162c0.179,0.516,0.363,1.045,0.4,1.367c0.151,1.074,0.706,1.293,1.146,1.293
			c1.248,0,1.248-1.627,1.248-2.818l-0.012-1.037c-0.012-0.803-0.028-1.803-0.008-1.953l0.31-0.045
			c0.061,0.109,0.191,0.51,0.293,0.832c0.245,0.762,0.583,1.803,1.122,2.791c0.73,1.316,2.175,2.646,3.529,2.646
			c0.502,0,0.951-0.174,1.302-0.502c1.122-1.039,1.546-3.332,1.701-5.074c0.053-0.559-0.359-1.049-0.914-1.105
			c-0.616-0.066-1.057,0.35-1.114,0.9c-0.057,0.461-0.229,1.262-0.718,1.375c-0.285-0.045-1.093-0.791-1.562-1.893
			c-0.298-0.67-0.371-0.828-0.057-2.105c0.433-1.873-0.416-3.998-1.163-5.871c-0.241-0.6-0.469-1.166-0.628-1.682
			c-0.616-1.957-2.199-10.42-2.313-12.744c-0.045-0.809-0.102-1.572-0.155-2.24c-0.074-0.922-0.155-1.963-0.164-2.023
			c0.743-0.547,0.694-1.168,0.551-1.562c0.437-0.516,0.327-1.887-0.044-6.508c-0.086-1.098-0.167-2.064-0.188-2.58
			c-0.021-0.387-0.069-0.869-0.114-1.379c-0.069-0.668-0.171-1.77-0.159-2.463c0.318,0.158,0.628,0.371,0.779,0.496
			c0.27,0.221,0.632,0.283,0.975,0.176c0.331-0.109,0.588-0.387,0.665-0.73c0.041-0.166,0.363-1.746-0.501-5.857
			c-0.506-2.438-1.44-4.488-2.122-5.986c-0.347-0.764-0.775-1.709-0.775-1.99l-0.008-0.457c-0.008-0.352-0.024-1.074,0.049-1.51
			c1.412,0.812,2.342,1.811,2.354,1.824c0.253,0.268,0.632,0.375,1.003,0.293c0.363-0.094,0.645-0.379,0.739-0.746
			c0.016-0.066,0.388-1.633,0.021-4.223c-0.359-2.58-1.343-5.525-1.873-7.1c-0.555-1.66-0.971-3.672-1.122-5.387
			c-0.069-0.705-0.004-1.293,0.11-1.713c0.143,0.24,0.383,0.412,0.665,0.465c0.379,0.07,0.767-0.064,1.003-0.371l0.502-0.637
			c0.102-0.131,0.176-0.281,0.204-0.449l0.216-1.191c0.281-0.387,0.804-1.227,1.269-2.605c0.399-1.205,1.815-4.023,2.664-5.713
			c0.331-0.664,0.596-1.188,0.714-1.443c0.159-0.355,0.306-0.686,0.429-0.951l0.363,0.061c0.861,0.742,4.092,3.521,5.524,4.811
			c1.579,1.424,2.187,2.264,2.713,3.244c0.494,0.9,0.645,1.689,0.645,1.697c0.106,0.547,0.604,0.918,1.187,0.816l0.481-0.086
			c0.519-0.094,0.877-0.568,0.833-1.094c-0.151-1.738-0.338-3.027-0.563-3.855c0.159,0.109,0.331,0.229,0.506,0.35
			c1.962,1.367,4.933,3.436,6.042,4.439c1.612,1.449,2.999,2.99,3.015,3.004c0.261,0.293,0.669,0.416,1.044,0.297
			c0.379-0.109,0.657-0.424,0.722-0.816c0.021-0.121,0.473-3.152-2.733-6.902c-2.509-2.934-4.562-5.275-6.198-7.059
			c0.302-0.09,0.559-0.314,0.673-0.621c0.155-0.406,0.073-0.84-0.265-1.117c-0.343-0.445-2.081-3.717-3.872-7.156
			c0.163-0.008,0.327-0.053,0.478-0.139c0.444-0.262,0.624-0.824,0.416-1.297l-1.795-3.994c1.473,1.656,3.774,4.627,3.803,4.658
			c0.273,0.355,0.738,0.475,1.175,0.326c0.42-0.162,0.681-0.586,0.645-1.035l-0.196-2.398c0.273-0.225,0.551-0.531,0.669-0.924
			c0.114-0.371,0.082-0.758-0.073-1.023c-0.221-0.49-0.571-1.537-0.571-1.547c-0.131-0.395-0.49-0.668-0.91-0.697l-1.554-0.09
			l-2.093-4.043l1.232,1.266c0.375,0.383,0.975,0.412,1.387,0.068c0.412-0.346,0.481-0.947,0.167-1.379l-0.42-0.584
			c0.359,0.404,0.714,0.805,1.065,1.205c0.363,0.402,0.955,0.457,1.387,0.129c0.285-0.219,0.424-0.57,0.396-0.908
			c0.689,0.424,0.828,0.424,1.024,0.424c0.396,0,0.763-0.232,0.931-0.584c0.167-0.346,0.102-0.795-0.126-1.102
			c-0.11-0.143-0.368-0.574-0.661-1.094c0.159-0.072,0.306-0.184,0.416-0.334c0.249-0.334,0.265-0.787,0.045-1.143l-0.591-0.941
			c0.012-0.01,0.024-0.018,0.037-0.025c0.277-0.18,0.449-0.486,0.461-0.816c0.004-0.121,0.078-2.566-0.824-4.639
			c0.045-0.02,0.085-0.045,0.126-0.074c0.424-0.293,0.567-0.855,0.327-1.312l-2.897-5.525c0.338,0.188,0.767,0.164,1.098-0.08
			c0.428-0.318,0.539-0.924,0.249-1.371l-3.305-5.084c0.017-0.018,0.033-0.033,0.049-0.049c0.306-0.314,0.375-0.797,0.167-1.188
			c0,0-2.244-4.23-3.746-7.234c-1.485-2.998-4.565-12.061-5.41-17.131c-0.82-4.908-2.293-8.936-2.558-9.625
			c1.616,0.289,3.615,0.146,4.933-0.381c1.273-0.51,5.035-3.43,6.038-4.213c0.632,3.246,6.377,18.209,9.176,24.801
			c2.301,5.48,13.06,29.822,19.755,40.033c5.716,8.674,12.656,18.145,20.768,22.592c4.562,2.504,7.058,3.623,8.36,4.117
			l-1.657,3.721c-0.216,0.488-0.02,1.061,0.449,1.312c0.477,0.25,1.061,0.094,1.342-0.354l2.583-4.084l3.121,1.016
			c-0.069,1.342-0.13,4.084,0.29,6.275c0.62,3.121,2.163,5.078,2.232,5.164c0.22,0.273,0.563,0.42,0.902,0.379
			c0.004,0.467,0.33,0.883,0.799,0.984c0.563,0.117,1.065-0.209,1.204-0.73l1.865-6.932c0.212,2.102,0.522,5.83,0.779,9.24
			c0.041,0.535,0.481,0.943,1.016,0.943c0.004,0,0.008,0,0.012,0c0.534-0.004,0.975-0.424,1.008-0.963l0.077-1.379
			c0.404,1.203,0.898,1.963,0.926,2.008c0.237,0.361,0.677,0.537,1.098,0.432c0.424-0.102,0.73-0.461,0.771-0.893l0.106-1.094
			c0.012,0,0.029,0.004,0.045,0.004c0.375,0.057,0.755-0.16,0.951-0.482l1.053,3.281c0.163,0.494,0.645,0.787,1.171,0.689
			c0.506-0.098,0.861-0.568,0.816-1.086l-0.188-2.281c0.114,0.062,0.224,0.104,0.326,0.131l0.196,3.787
			c0.029,0.494,0.404,0.902,0.894,0.959c0.543,0.061,0.955-0.24,1.106-0.711l0.139-0.453c-0.004,0.426,0.253,0.812,0.665,0.963
			c0.359,0.135,0.767,0.049,1.041-0.199c0.379,0.334,0.938,0.359,1.33,0.033l1.812-1.486l1.273,0.066l0.673,2.199
			c0.114,0.379,0.437,0.652,0.829,0.709c0.065,0.008,0.139,0.014,0.179,0.014l-0.31,4.662c-0.037,0.518,0.322,0.98,0.836,1.074
			c0.518,0.098,1.012-0.217,1.159-0.719l1.848-6.271l1.848,6.271c0.146,0.502,0.648,0.816,1.159,0.719
			c0.51-0.09,0.873-0.557,0.836-1.074l-0.31-4.662c0.053,0,0.114-0.006,0.175-0.014c0.392-0.057,0.719-0.33,0.833-0.709l0.677-2.199
			l1.273-0.066l1.812,1.486c0.396,0.326,0.959,0.301,1.326-0.033c0.281,0.254,0.685,0.334,1.04,0.199
			c0.412-0.15,0.669-0.541,0.665-0.967l0.139,0.457c0.146,0.471,0.592,0.771,1.105,0.711c0.49-0.062,0.865-0.465,0.894-0.959
			l0.196-3.787c0.102-0.027,0.212-0.072,0.326-0.131l-0.188,2.281c-0.045,0.52,0.31,0.984,0.815,1.086
			c0.526,0.086,1.013-0.195,1.171-0.689l1.053-3.285c0.184,0.303,0.515,0.49,0.873,0.49c0.045,0,0.094-0.008,0.127-0.008
			l0.106,1.094c0.044,0.428,0.351,0.787,0.771,0.893c0.42,0.102,0.861-0.078,1.098-0.432c0.028-0.045,0.519-0.801,0.926-2.012
			l0.078,1.383c0.032,0.539,0.473,0.959,1.008,0.963c0.004,0,0.008,0,0.012,0c0.535,0,0.976-0.412,1.017-0.943
			c0.257-3.414,0.57-7.146,0.779-9.24l1.864,6.932c0.139,0.521,0.641,0.844,1.203,0.73c0.47-0.102,0.796-0.518,0.8-0.984
			c0.331,0.051,0.682-0.105,0.897-0.379c0.069-0.086,1.612-2.043,2.232-5.168c0.424-2.188,0.358-4.93,0.293-6.271l3.122-1.016
			l2.582,4.084c0.282,0.447,0.865,0.596,1.343,0.354c0.469-0.252,0.665-0.828,0.448-1.312l-1.656-3.721
			c1.294-0.494,3.799-1.613,8.36-4.117c8.11-4.447,15.047-13.918,20.767-22.596c6.716-10.244,17.45-34.557,19.752-40.023
			c2.807-6.602,8.56-21.596,9.18-24.811c0.995,0.783,4.762,3.707,6.038,4.219c1.302,0.514,3.187,0.684,4.929,0.379
			c-0.229,0.604-1.726,4.668-2.558,9.625c-0.841,5.066-3.921,14.129-5.406,17.131c-1.502,3.004-3.75,7.23-3.75,7.234
			c-0.208,0.391-0.139,0.869,0.168,1.188c0.016,0.016,0.032,0.033,0.053,0.049l-3.305,5.084c-0.29,0.449-0.184,1.053,0.249,1.371
			c0.33,0.248,0.759,0.268,1.098,0.08l-2.897,5.525c-0.24,0.457-0.098,1.02,0.327,1.312c0.04,0.029,0.081,0.055,0.122,0.074
			c-0.897,2.064-0.824,4.508-0.82,4.639c0.013,0.33,0.184,0.637,0.461,0.816c0.013,0.008,0.024,0.016,0.037,0.025l-0.592,0.941
			c-0.225,0.355-0.204,0.809,0.045,1.143c0.106,0.15,0.253,0.262,0.416,0.334c-0.289,0.516-0.543,0.936-0.637,1.066
			c-0.253,0.305-0.322,0.766-0.154,1.121c0.171,0.355,0.538,0.588,0.934,0.588c0.192,0,0.335,0,1.024-0.43
			c-0.032,0.344,0.106,0.689,0.396,0.914c0.429,0.326,1.024,0.27,1.388-0.129c0.343-0.393,0.693-0.785,1.048-1.184l-0.407,0.562
			c-0.314,0.428-0.245,1.033,0.167,1.379c0.412,0.344,1.012,0.314,1.387-0.068l1.241-1.273l-2.098,4.051l-1.555,0.09
			c-0.42,0.029-0.774,0.303-0.909,0.697c0,0.008-0.352,1.057-0.535,1.469c-0.188,0.336-0.229,0.727-0.109,1.102
			c0.122,0.393,0.399,0.699,0.673,0.922l-0.196,2.4c-0.036,0.449,0.229,0.873,0.645,1.035c0.438,0.152,0.902,0.033,1.18-0.326
			c0.024-0.031,2.321-3.002,3.799-4.662l-1.796,3.998c-0.212,0.473-0.032,1.035,0.416,1.297c0.151,0.086,0.314,0.131,0.478,0.139
			c-1.787,3.432-3.505,6.688-3.798,7.07c-0.314,0.281-0.494,0.805-0.348,1.203c0.114,0.303,0.372,0.531,0.678,0.617
			c-2.052,2.248-4.378,4.941-6.201,7.062c-3.203,3.75-2.75,6.781-2.729,6.902c0.064,0.393,0.347,0.707,0.722,0.816
			c0.384,0.107,0.783-0.008,1.045-0.297c0.016-0.018,1.403-1.555,3.015-3.004c1.109-1.008,4.101-3.088,6.075-4.463
			c0.167-0.115,0.322-0.229,0.474-0.33c-0.225,0.828-0.412,2.121-0.563,3.859c-0.045,0.525,0.314,0.996,0.832,1.094l0.481,0.086
			c0.571,0.102,1.081-0.27,1.188-0.816c0-0.008,0.151-0.797,0.653-1.705c0.518-0.973,1.126-1.812,2.705-3.236
			c1.432-1.285,4.667-4.068,5.523-4.807l0.363-0.064c0.123,0.27,0.273,0.596,0.433,0.959c0.114,0.252,0.396,0.807,0.747,1.51
			c0.832,1.664,2.235,4.459,2.631,5.643c0.457,1.379,0.983,2.215,1.27,2.607l0.212,1.191c0.028,0.162,0.098,0.316,0.204,0.447
			l0.502,0.637c0.24,0.307,0.624,0.445,1.004,0.371c0.289-0.061,0.538-0.244,0.681-0.492c0.099,0.432,0.168,1.031,0.099,1.746
			c-0.155,1.725-0.58,3.736-1.122,5.381c-0.53,1.588-1.522,4.541-1.873,7.096c-0.367,2.594,0,4.16,0.017,4.223
			c0.085,0.367,0.371,0.652,0.738,0.75c0.359,0.086,0.751-0.02,1.004-0.293c0.008-0.014,0.905-0.967,2.358-1.816
			c0.069,0.432,0.053,1.146,0.044,1.498l-0.008,0.461c0,0.281-0.429,1.232-0.775,1.994c-0.677,1.498-1.611,3.547-2.113,5.979
			c-0.873,4.111-0.551,5.695-0.51,5.861c0.081,0.344,0.335,0.617,0.665,0.73c0.334,0.107,0.701,0.045,0.971-0.174
			c0.159-0.127,0.474-0.348,0.788-0.502c0.012,0.693-0.09,1.795-0.159,2.467c-0.049,0.512-0.094,0.988-0.114,1.385
			c-0.021,0.496-0.094,1.443-0.184,2.516c-0.376,4.604-0.485,6.006-0.041,6.545c-0.143,0.393-0.184,0.984,0.493,1.531
			c0.017,0.402-0.053,1.279-0.114,2.072c-0.053,0.668-0.109,1.432-0.154,2.244c-0.118,2.312-1.702,10.779-2.313,12.746
			c-0.159,0.51-0.392,1.08-0.629,1.676c-0.75,1.877-1.604,3.998-1.158,5.893c0.31,1.256,0.24,1.414-0.073,2.1
			c-0.457,1.086-1.265,1.832-1.469,1.885c-0.567-0.121-0.747-0.922-0.8-1.387c-0.065-0.555-0.571-0.941-1.118-0.896
			c-0.555,0.061-0.959,0.555-0.91,1.109c0.163,1.746,0.596,4.039,1.697,5.066c0.355,0.332,0.809,0.506,1.306,0.506
			c1.416,0,2.819-1.371,3.533-2.646c0.543-0.984,0.882-2.029,1.122-2.791c0.103-0.322,0.237-0.723,0.266-0.797l0.245-0.139
			c0.109,0.295,0.098,1.303,0.085,2.119l-0.008,1.02c0,1.191,0,2.818,1.248,2.818c0.441,0,0.996-0.225,1.146-1.312
			c0.037-0.303,0.221-0.834,0.4-1.348c0.339-0.979,0.722-2.092,0.722-3.162c0-0.811,0.065-0.91,0.204-1.121
			c0.094-0.15,0.204-0.318,0.307-0.535c0.448-0.885,0.836-1.828,1.986-6.756c0.922-4.023,0.861-5.766,0.8-7.609
			c-0.017-0.445-0.032-0.898-0.032-1.395c0-4.273,0.257-8.434,0.489-8.98c0.567-0.658,0.665-1.314,0.767-2.012
			c0.065-0.396,0.131-0.869,0.323-1.477c0.428-1.434,0.049-4.742-0.348-7.732c-0.057-0.412-0.094-0.734-0.114-0.926
			c-0.081-0.76-0.159-2.354-0.208-3.35l1.416-0.307c0.392-0.086,0.697-0.391,0.779-0.783c0.024-0.094,0.506-2.395,0.506-4.709
			c0.033-4.324-0.359-7.217-1.306-9.404l0.404,0.242c0.294,0.184,0.652,0.195,0.954,0.053c0.307-0.143,0.526-0.43,0.58-0.768
			c0.028-0.176,0.265-1.713,0.265-2.424c0-1.545-0.053-5.348-0.547-7.232c-0.392-1.564-2.08-6.373-2.938-8.316
			c0.824,0.697,2.392,2.488,2.995,3.375c0.408,0.57,0.881,0.855,1.411,0.855c0.678,0,1.143-0.48,1.339-0.896
			c0.126-0.27,0.126-0.588,0.004-0.857l-2.611-5.744c-0.302-0.674-1.396-4.549-2.175-7.426c0.127,0,0.241,0.016,0.311,0.033
			l0.384,0.109c0.84,0.246,2.411,0.693,3.015,1.221c0.624,0.533,1.13,0.861,1.722,0.861c0.633,0,1.036-0.404,1.175-0.543
			c0.425-0.434,0.429-1.066,0.437-2.217c0-0.51,0.009-1.455,0.11-1.99c0.086,0.154,0.176,0.393,0.212,0.611
			c0.041,0.266,0.184,0.51,0.404,0.67c0.221,0.162,0.494,0.232,0.763,0.188l0.751-0.113c0.322-0.051,0.6-0.254,0.755-0.543
			c0.146-0.291,0.146-0.633,0.004-0.926c-0.065-0.123-1.538-3.045-2.415-4.457c-0.922-1.443-3.464-6.074-3.786-7.049
			c-0.4-1.225-1.841-4.33-2.489-5.354c-0.571-0.914-1.061-2.537-1.252-3.182c-0.05-0.184-0.021-0.291,0.061-0.572
			c0.103-0.359,0.262-0.906,0.062-1.615c-0.155-0.562-0.563-3.244-0.808-4.986l0.416-0.979c0.069-0.164,0.094-0.348,0.073-0.527
			c-0.155-1.219-0.38-3.107-0.38-3.488c0-0.326,0.196-1.039,0.331-1.443c0.062-0.172,0.073-0.359,0.036-0.539
			c-0.118-0.57-0.199-1.225-0.216-1.607c0.498-0.061,2.057,0.061,2.085,0.061c0.343,0.037,0.693-0.094,0.918-0.367
			c0.221-0.273,0.285-0.641,0.176-0.971c0,0-0.653-1.918-1.037-2.799c-0.244-0.551-0.51-0.906-0.75-1.215
			c-0.204-0.266-0.363-0.475-0.506-0.82c-0.172-0.389-0.388-1.498-0.547-2.311c-0.155-0.791-0.307-1.525-0.425-1.859
			c-0.154-0.449-0.334-1.143-0.444-1.682c0.208-0.053,0.399-0.166,0.538-0.342c0.253-0.311,0.303-0.748,0.123-1.105
			c-0.225-0.441-0.82-1.828-0.914-2.914c-0.062-0.629,0.098-0.902,0.281-1.215c0.155-0.266,0.351-0.596,0.351-1.053
			c0-0.371-0.134-1.221-0.253-1.895l0.392-0.174c0.453-0.205,0.694-0.703,0.576-1.184c-0.005-0.014-0.322-1.314-0.322-3.383
			c0-1.297,0.036-2.305,0.069-3.143c0.02-0.604,0.04-1.125,0.04-1.602c0-0.771-0.212-1.445-0.396-2.033
			c-0.118-0.387-0.236-0.754-0.236-1.004c0-0.559-0.054-1.701-0.118-3.182l-0.127-2.971c-0.069-1.631-0.444-3.02-0.779-4.238
			c-0.285-1.045-0.559-2.033-0.604-3.057c-0.094-1.904-0.824-2.488-1.628-2.971c-0.277-0.166-0.478-0.285-0.678-0.574
			c-0.457-0.637-0.13-1.416,0.445-2.578c0.403-0.797,0.216-1.73,0.04-2.633c-0.126-0.633-0.265-1.346-0.114-1.717
			c0.625-1.547,0.567-3.031-0.326-7.936c-0.963-5.402-9.262-16.189-10.017-17.051c-0.856-0.91-0.856-1.73-0.856-3.521
			c0-1.15,0.27-2.316,0.53-3.447c0.135-0.576,0.262-1.123,0.347-1.629l0.147-0.84c0.236-1.322,0.477-2.684,0.363-3.934
			c-0.041-0.412,0.016-0.492,0.158-0.709c0.188-0.281,0.474-0.715,0.474-1.465c0-0.881,0.094-1.297,0.457-2.754
			c0.302-1.195,0.257-5.422,0.184-10.025c-0.013-0.877-0.024-1.59-0.024-1.994c0-1.102-0.082-1.873-0.176-2.816
			c-0.069-0.668-0.146-1.436-0.208-2.477c-0.065-1.32,0.596-1.777,1.473-2.234c0.217-0.111,0.393-0.213,0.502-0.295
			c1.514-1.113-0.326-4.676-0.869-5.512c-0.383-0.566-0.265-0.84,0.343-1.678c0.159-0.215,0.311-0.424,0.433-0.639
			c0.253-0.445,1.045-1.074,1.53-1.371c0.347-0.217,0.53-0.617,0.469-1.021c-0.012-0.072-0.277-1.818-1.231-3.605
			c-0.719-1.326-1.11-4.75-1.245-5.875l-0.028-0.242c-0.049-1.008,1.408-11.59,1.885-15.062l0.237-1.718
			c0.167-1.142,0.114-3.346-0.058-5.684c0.045,0.098,0.086,0.196,0.135,0.298l0.118,0.257c0.82,1.82,0.4,5.896,0.168,7.315
			c-0.013,0.085-0.017,0.175-0.009,0.261l0.376,3.859c0.024,0.229,0.538,5.578,1.583,8.082c0.754,1.787,1.317,4.42,1.685,7.814
			c0.285,3.08,1.302,5.303,3.016,6.605c1.126,0.873,1.436,1.893,1.652,2.635l0.134,0.424c0.176,0.506,0.18,0.873,0.029,1.246
			l-0.168,0.383c-0.615,1.398-2.252,5.111-2.994,7.34c-1.028,3.088-1.273,5.631-1.285,5.736c-0.045,0.457,0.229,0.895,0.661,1.053
			c0.424,0.164,0.913,0.012,1.187-0.367c0.024-0.037,0.665-0.938,1.167-1.986c0.49-0.959,4.321-6.643,5.443-8.129
			c0.624-0.84,1.872-2.455,2.855-3.721c0.122,0.625,0.249,1.24,0.335,1.617c0.171,0.697,1.068,6.318,1.624,9.93
			c0.077,0.477,0.473,0.84,0.954,0.865c0.612,0.033,0.918-0.293,1.041-0.768c0.004-0.016,0.485-1.877,0.963-3.162
			c0.298-0.799,1.032-3.99,1.632-6.723c0.229,1.031,0.396,1.998,0.396,2.598c0,1.229,2.439,8.984,3.187,11.334
			c0.146,0.463,0.604,0.76,1.081,0.703c0.481-0.049,0.861-0.43,0.91-0.914c0-0.012,0.098-1.004,0.444-1.881
			c0.139-0.393,0.253-0.465,0.453-0.469c0.18,0.08,0.575,0.562,0.755,0.873c0,0,1.497,3.961,1.856,5.1
			c0.257,0.734,0.645,4.002,0.824,5.895c0.036,0.355,0.249,0.65,0.547,0.805l-0.025,0.117c-0.061,0.27,0.045,0.576,0.2,0.805
			c0.118,0.176,0.314,0.318,0.522,0.396c0.004,0.783,0.339,1.729,0.453,2.035c0.175,0.469,0.673,0.73,1.154,0.637
			c0.404-0.086,0.976-0.408,1.388-1.086c0.139-0.24,0.253-0.521,0.358-0.803c0.326,0.904,1.135,3.377,1.049,5.59
			c-0.106,2.729,0.363,4.152,0.742,5.291l0.176,0.539c0.236,0.84,0.836,1.322,1.648,1.322c0.408,0,0.804-0.123,1.139-0.246
			c0.224-0.068,0.403-0.146,0.551-0.236c0.02,0.02,0.036,0.045,0.057,0.064c0.221,0.27,0.494,0.602,0.804,0.838
			c0.159,0.135,0.408,0.727,0.266,3.178c-0.131,2.391,0.864,6.299,0.979,6.658c0.273,0.562,1.017,1.91,1.935,2.244
			c0.114,0.045,0.412,0.098,0.534,0.098c0.359,0,0.652-0.117,0.897-0.285c0.253,0.416,0.787,1.355,0.942,2
			c0.065,0.24,0.159,0.57,0.273,0.967c0.371,1.271,0.935,3.197,1.204,5.066c0.358,2.281-0.457,9.291-0.955,11.082
			c-0.555,1.885-0.579,4.533-0.273,6.006c0.241,1.154,0.343,2.598,0.347,2.611c0.037,0.506,0.437,0.91,0.938,0.941
			c0.563,0.053,0.963-0.305,1.073-0.795l0.208-0.934c0.351,0.049,0.747,0.178,0.938,0.5c0.519,0.869,0.42,3.934-0.931,5.59
			c-0.596,0.738-2.301,1.18-4.557,1.18c-0.755,0-1.281-0.049-1.302-0.053c-0.489-0.066-0.922,0.248-1.073,0.705
			c-0.143,0.457,0.049,0.951,0.461,1.195c0.094,0.055,0.547,0.311,1.159,0.568c-0.47,0.02-0.959,0.031-1.416,0.031
			c-0.489,0-0.914,0.352-1.004,0.834c-0.086,0.48,0.18,0.963,0.637,1.137c0.298,0.115,3.109,1.24,4.822,0.936
			c0.196-0.037,0.392-0.07,0.588-0.094c1.269-0.188,2.705-0.404,5.157-2.514c1.375-1.199,2.701-3.555,3.157-5.609
			c0.425-1.93,0.144-3.502-0.004-4.35l-0.057-0.34c-0.082-0.68,0.175-0.959,0.465-1.158
			C456.693,393.699,457.077,392.252,457.693,387.562z M310.85,485.621l0.257-0.064l0.139,2.406L310.85,485.621z M259.013,485.557
			l0.257,0.064l-0.4,2.355L259.013,485.557z"/>
	</g>
</g>
<g>
</g>
<g>
</g>
<g>
</g>
<g>
</g>
<g>
</g>
<g>
</g>
<g>
</g>
<g>
</g>
<g>
</g>
<g>
</g>
<g>
</g>
<g>
</g>
<g>
</g>
<g>
</g>
<g>
</g>
</svg>
