<?xml version="1.0" encoding="iso-8859-1"?>
<!-- Generator: Adobe Illustrator 16.0.0, SVG Export Plug-In . SVG Version: 6.00 Build 0)  -->
<!DOCTYPE svg PUBLIC "-//W3C//DTD SVG 1.1//EN" "http://www.w3.org/Graphics/SVG/1.1/DTD/svg11.dtd">
<svg version="1.1" id="Capa_1" xmlns="http://www.w3.org/2000/svg" xmlns:xlink="http://www.w3.org/1999/xlink" x="0px" y="0px"
	 width="582.943px" height="582.944px" viewBox="0 0 582.943 582.944" style="enable-background:new 0 0 582.943 582.944;"
	 xml:space="preserve">
<g>
	<g>
		<path d="M3.696,329.89c2.428,1.734,4.851,3.469,7.279,5.205c3.309,2.367,8.282,0.588,10.192-2.672
			c0.73-1.248,1.012-2.533,0.983-3.781c0.967-0.633,1.819-1.58,2.427-2.986c9.241-21.404,18.482-42.808,27.724-64.212
			c17.67,5.793,35.341,11.587,53.007,17.377c-0.42,5.141-0.665,10.334-0.665,15.585c0,31.85,7.112,61.828,19.939,88.141
			c-15.471,8.16-31.024,16.219-46.169,24.934c-7.05,4.059-12.734,12.791-10.829,21.191c3.027,13.338,9.976,25.953,16.218,38.332
			l17.111,55.133v0.705c0,0.33,0.057,0.645,0.098,0.959c-7.116,5.855-14.231,11.705-21.343,17.557
			c-7.425,6.107,3.178,16.584,10.535,10.533c5.802-4.773,11.604-9.547,17.405-14.32c6.667,2.727,15.071,1.379,19.674-4.504
			c2.207-2.824,2.819-5.717,1.163-9.025l-2.48-4.965c-0.445-0.895-1.179-1.6-2.007-2.188c-8.796-18.58-17.589-37.164-26.385-55.748
			c-3.868-12.457-7.732-24.908-11.6-37.365c15.512-8.854,31.028-17.711,46.541-26.568c27.03,44.818,72.004,76.496,127.377,84.125
			c7.932,1.094,22.505-53.432,31.583-60.719c9.078,7.287,23.652,61.812,31.583,60.719c55.373-7.629,100.343-39.307,127.377-84.125
			c15.513,8.857,31.028,17.711,46.541,26.568c-3.868,12.457-7.731,24.908-11.6,37.365c-8.797,18.584-17.589,37.164-26.386,55.748
			c-0.828,0.592-1.562,1.293-2.007,2.188l-2.48,4.965c-1.657,3.312-1.045,6.205,1.162,9.025c4.603,5.883,13.008,7.225,19.674,4.504
			c5.802,4.773,11.604,9.543,17.405,14.32c7.356,6.051,17.961-4.426,10.535-10.533c-7.116-5.852-14.228-11.707-21.343-17.557
			c0.041-0.318,0.098-0.633,0.098-0.959v-0.705l17.112-55.133c6.242-12.379,13.19-24.99,16.218-38.332
			c1.905-8.4-3.774-17.133-10.828-21.191c-15.142-8.715-30.698-16.777-46.17-24.934c12.828-26.316,19.939-56.291,19.939-88.141
			c0-5.25-0.245-10.444-0.665-15.585c17.67-5.794,35.341-11.587,53.007-17.377c9.241,21.404,18.482,42.808,27.724,64.212
			c0.608,1.406,1.461,2.354,2.428,2.986c-0.028,1.248,0.253,2.529,0.983,3.781c1.909,3.26,6.883,5.039,10.191,2.672
			c2.428-1.736,4.852-3.471,7.279-5.205c3.297-2.359,4.867-6.447,2.672-10.191c-1.909-3.26-6.883-5.039-10.191-2.674
			c-0.249,0.176-0.498,0.355-0.747,0.531c-9.657-22.367-19.318-44.737-28.976-67.108c0.416-3.909-2.975-8.262-7.454-8.609
			c-5.166-3.264-11.514-3.415-18.523-1.46c-14.052,3.921-27.965,10.106-41.689,16.165c-6.422-31.461-20.547-60.111-40.502-83.754
			c6.736-5.083,13.472-10.167,20.208-15.251c9.029-3.623,18.058-7.246,27.083-10.869c1.755-0.702,2.986-1.848,3.795-3.191
			c2.362-1.493,3.736-4.206,2.427-7.711c-1.742-4.659-3.484-9.319-5.227-13.974c1.429-7.548,2.86-15.096,4.288-22.64
			c8.585-5.749,16.676-12.154,24.265-19.156c2.395-1.791,4.789-3.582,7.185-5.373c1.746-1.302,2.668-2.995,3.007-4.75
			c1.167-1.244,2.351-2.472,3.488-3.75c6.369-7.144-4.129-17.719-10.534-10.534c-4.312,4.834-8.846,9.38-13.554,13.696
			L475.54,87.774c-0.686,0.51-1.203,1.094-1.652,1.702c-3.406,2.158-6.871,4.251-10.444,6.206c-2.265,1.24-3.35,3.081-3.603,5.014
			c-0.425,1.273-0.417,2.779,0.216,4.459c2.235,5.978,4.472,11.955,6.707,17.932c-0.465,2.456-0.93,4.908-1.395,7.364
			c-6.21,4.688-12.42,9.376-18.634,14.064c-9.612,3.855-19.225,7.715-28.838,11.571c-17.535-16.279-38.188-29.229-60.935-37.94
			c5.309-5.602,8.364-11.93,8.364-18.658c0-16.042-17.083-29.89-41.91-36.618c-0.604-2.109-1.207-4.223-1.807-6.332
			c-0.298-1.044-0.824-1.967-1.489-2.758c-0.481-1.95-1.652-3.717-3.501-4.761c4.802-3.998,8.576-9.237,10.91-15.292
			c1.729-4.488-5.476-6.414-7.181-1.982c-2.885,7.482-8.739,13.019-15.933,15.924c-3.696-0.167-7.394-0.33-11.094-0.494v-0.167
			c-0.62,0.028-1.24,0.053-1.86,0.085c-0.62-0.028-1.24-0.057-1.86-0.085v0.167c-3.697,0.164-7.393,0.331-11.094,0.494
			c-7.193-2.905-13.048-8.441-15.933-15.924c-1.709-4.431-8.915-2.509-7.181,1.982c2.334,6.055,6.108,11.29,10.91,15.292
			c-1.849,1.041-3.02,2.807-3.501,4.761c-0.665,0.792-1.191,1.714-1.489,2.758c-0.604,2.109-1.208,4.219-1.807,6.332
			c-24.827,6.724-41.91,20.576-41.91,36.618c0,6.728,3.052,13.056,8.364,18.658c-22.746,8.711-43.399,21.661-60.935,37.94
			c-9.613-3.859-19.225-7.715-28.837-11.571c-6.21-4.688-12.42-9.376-18.634-14.064c-0.465-2.456-0.93-4.908-1.395-7.364
			c2.236-5.977,4.472-11.95,6.708-17.932c0.628-1.685,0.636-3.187,0.216-4.459c-0.253-1.934-1.338-3.774-3.603-5.014
			c-3.574-1.958-7.038-4.047-10.444-6.206c-0.449-0.608-0.967-1.191-1.653-1.702L82.652,69.288
			c-4.708-4.321-9.241-8.862-13.554-13.696c-6.405-7.185-16.903,3.39-10.535,10.534c1.139,1.277,2.322,2.505,3.489,3.75
			c0.338,1.754,1.265,3.448,3.007,4.75c2.395,1.791,4.79,3.582,7.185,5.373C79.833,87,87.924,93.405,96.508,99.154
			c1.428,7.544,2.86,15.092,4.288,22.64c-1.742,4.66-3.484,9.319-5.227,13.974c-1.31,3.505,0.065,6.218,2.428,7.711
			c0.808,1.338,2.04,2.485,3.794,3.191c9.029,3.623,18.058,7.246,27.083,10.869c6.736,5.083,13.472,10.167,20.208,15.251
			c-19.955,23.644-34.084,52.293-40.502,83.754c-13.729-6.055-27.638-12.24-41.689-16.165c-7.01-1.955-13.354-1.804-18.523,1.46
			c-4.48,0.343-7.87,4.696-7.454,8.609c-9.657,22.367-19.319,44.737-28.976,67.108c-0.249-0.176-0.498-0.355-0.747-0.531
			c-3.309-2.365-8.283-0.59-10.192,2.674C-1.171,323.443,0.404,327.533,3.696,329.89z"/>
	</g>
</g>
<g>
</g>
<g>
</g>
<g>
</g>
<g>
</g>
<g>
</g>
<g>
</g>
<g>
</g>
<g>
</g>
<g>
</g>
<g>
</g>
<g>
</g>
<g>
</g>
<g>
</g>
<g>
</g>
<g>
</g>
</svg>
