<?xml version="1.0" encoding="iso-8859-1"?>
<!-- Generator: Adobe Illustrator 16.0.0, SVG Export Plug-In . SVG Version: 6.00 Build 0)  -->
<!DOCTYPE svg PUBLIC "-//W3C//DTD SVG 1.1//EN" "http://www.w3.org/Graphics/SVG/1.1/DTD/svg11.dtd">
<svg version="1.1" id="Capa_1" xmlns="http://www.w3.org/2000/svg" xmlns:xlink="http://www.w3.org/1999/xlink" x="0px" y="0px"
	 width="581.414px" height="581.414px" viewBox="0 0 581.414 581.414" style="enable-background:new 0 0 581.414 581.414;"
	 xml:space="preserve">
<g>
	<g>
		<path d="M1.358,381.402l1.13-0.437c1.102-0.429,2.016-0.784,2.497-0.894c0.016,0.098,0.041,0.24,0.065,0.437
			c0.073,0.44,0.286,1.782,1.46,1.782c0.6,0,1.024-0.383,1.559-0.864c0.339-0.307,0.767-0.694,1.318-1.041
			c1.53-0.95,2.917-1.37,6.418-1.31c-0.159,0.445-0.184,0.894,0.02,1.322c0.314,0.657,1.351,1.302,4.504,0.354
			c4.57-1.358,11.13-3.166,15.427-3.166l0,0c1.24,0.009,1.844,0.082,2.146,0.118c0.167,0.021,0.273,0.029,0.347,0.029
			c0.502,0,1.041-0.494,1.118-0.991c0.037-0.241,0.367-0.69,0.914-1.236c8.776-8.817,13.081-23.207,15.394-30.935
			c0.302-1.008,0.571-1.914,0.816-2.685c1.428-4.55,7.414-16.21,11.979-24.909l7.76,2.113c1.265,0.09,2.648,0.204,4.157,0.327
			c4.68,0.379,10.796,0.877,18.303,1.138c-0.375,0.363-0.637,0.73-0.881,1.073c-0.457,0.641-0.763,1.065-1.816,1.367
			c-2.187,0.636-3.3,1.407-3.615,2.509c-0.383,1.334,0.641,2.477,1.465,3.395c0.326,0.363,0.934,1.045,0.955,1.261
			c-0.653,0.832-1.387,1.775-1.008,2.827c0.465,1.273,2.244,1.865,7.026,2.889l0.58,0.114c-0.759,2.09-1.444,3.636-1.991,4.488
			c-2.624,3.929-3.578,5.949-3.713,9.49c-0.085,2.681-1.13,3.635-2.542,4.929c-1.183,1.102-3.043,4.562-2.391,6.21
			c0.078,0.191,0.18,0.358,0.31,0.502c-2.668,4.639-3.46,7.009-3.203,9.399c0.167,1.657-3.958,10.417-5.37,11.849
			c-1.261,1.294-1.383,2.795-1.497,4.247c-0.045,0.535-0.086,1.094-0.196,1.682c-0.216,1.183-0.273,1.261-0.714,1.868
			c-0.257,0.351-0.604,0.828-1.102,1.645c-1.289,2.097-1.383,3.035-1.371,4.129v0.221c-0.062,0.028-0.131,0.064-0.188,0.085
			c-0.579,0.266-1.942,0.89-1.559,2.844c0.094,0.506-0.412,1.167-1,1.93c-0.836,1.09-1.876,2.444-1.848,4.305
			c0.049,2.93-2.203,4.966-4.096,6.157c-5.374,3.35-26.883,19.747-30.139,23.447c-2.061,2.375-2.717,3.88-2.191,5.022
			c0.375,0.824,1.273,1.24,2.664,1.24c0.294,0,0.616-0.016,0.983-0.053c1.146-0.127,2.032-1.302,3.362-3.08
			c1.155-1.538,2.55-3.403,4.419-4.994c0.591,1.032,1.42,2.04,2.705,2.04c1.244,0,2.521-0.942,4.137-3.052
			c1.518-1.963,4.333-4.187,7.062-6.332c3.003-2.371,5.851-4.61,7.373-6.736c0.698-0.127,1.412-0.196,2.114-0.266
			c3.456-0.347,7.376-0.738,7.385-7.658c0.008-5.769,5.524-17.188,9.172-24.745c0.983-2.036,1.856-3.843,2.501-5.279
			c1.942-4.325,10.559-25.378,17.891-44.37c5.218,0.669,10.988,0.996,17.605,0.996c24.565,0,63.668-4.685,126.994-13.334
			c-3.484,6.553-4.296,7.98-5.035,7.98c-0.179,0-0.379-0.024-0.608-0.049c-0.82-0.09-2.097-0.094-3.382-0.114
			c-3.035-0.045-6.63-0.171-10.249,0.951c-2.999-0.996-6.708-1.612-9.772-1.612c-3.101,0-5.255,0.588-6.397,1.742
			c-1.852,1.84-2.517,3.183-2.089,4.223c0.318,0.764,1.155,1.637,5.055,0.62c4.733-1.235,7.107-1.803,11.281-0.873
			c-0.041,0.433,0.012,0.894,0.31,1.302c0.535,0.738,1.501,0.837,2.289,0.837c1.249,0,3.276-0.29,6.789-0.972
			c2.358-0.457,4.802-0.424,6.589-0.298c3.709,0.27,5.447-0.383,7.487-4.071c2.807-5.031,5.169-9.657,5.92-11.135
			c1.881-0.289,6.867-1.411,15.765-3.554c7.536,2.497,12.913,1.081,14.855-3.655c5.679-1.408,11.187-2.791,15.581-3.9
			c-1.322,0.62-2.722,1.272-4.137,1.934c-15.549,7.254-28.581,13.419-30.523,15.386c-2.823,2.84-1.958,4.97-1.33,6.523
			c0.164,0.396,0.314,0.775,0.408,1.146c-2.097,5.594-4.248,22.673-5.675,34.04c-0.506,4.039-0.906,7.226-1.118,8.331
			c-0.759,3.938-0.995,4.284-3.651,5.275c-0.481,0.18-1.126,0.408-1.881,0.669c-6.777,2.367-10.877,4.084-12.048,5.916
			c-3.729,0.62-12.423,4.354-14.492,10.89c-0.106,0.335-0.033,0.702,0.196,0.972c0.232,0.269,0.571,0.387,0.935,0.342
			c1.607-0.248,2.941,0.086,3.398,0.833c0.163,0.27,0.441,0.444,0.755,0.481c0.31,0.032,0.624-0.078,0.845-0.298
			c0.628-0.641,1.334-1.53,2.154-2.566c1.734-2.195,4.08-5.153,6.026-5.839l0.502,0.249c1.836,0.926,2.321,1.061,5.488-0.212
			c1.265-0.526,3.084-1.6,5.006-2.738c2.966-1.754,6.654-3.933,8.405-4.075c1.354-0.106,2.448-0.653,3.162-1.571
			c1.195-1.538,1-3.61,0.861-4.423c-0.22-1.317-0.29-2.717-0.237-3.472c0.306-0.041,0.739-0.253,0.914-0.465
			c0.473-0.567,0.547-1.474,0.208-3.709c0.314-0.058,0.596-0.212,0.812-0.444c0.681-0.73,0.587-1.967,0.388-4.676
			c-0.074-1.004-0.163-2.203-0.229-3.607c0.926-0.779,1.089-3.076,1.358-6.883c0.18-2.521,0.384-5.377,0.861-7.389
			c0.58-2.428,1.053-4.672,1.469-6.634c0.722-3.403,1.464-6.92,1.999-7.422c4.569-2.722,12.942-5.137,20.331-7.267
			c5.304-1.53,10.313-2.974,13.415-4.378c1.836-0.836,4.479-1.644,7.539-2.578c8.973-2.742,22.534-6.887,36.586-17.781
			c0.746-0.575,1.411-1.113,2.04-1.628c4.006,4.235,8.074,8.772,11.085,12.135c2.742,3.06,4.725,5.275,5.521,5.997
			c0.632,0.571,1.032,1.061,1.362,1.465c0.91,1.105,1.571,1.783,3.623,1.783c0.47,0,1.032-0.037,1.726-0.11
			c5.688-0.62,9.825-0.856,12.502-0.612c2.864,0.273,4.03-0.759,6.389-2.811c0.653-0.567,1.416-1.232,2.362-2
			c2.881,0.237,5.178,0.943,6.875,1.461c0.931,0.286,1.701,0.519,2.321,0.62c0.421,0.073,0.812-0.118,1.028-0.465
			c0.465-0.742,2.673-4.533,0.49-6.075c-0.147-0.102-0.314-0.167-0.494-0.184l-3.04-0.29c-7.466-0.734-9.894-0.864-13.786,1.498
			c-3.888,2.358-9.241,3.194-12.647,3.194c-0.474,0-0.865,0.013-1.204,0.024l-0.624,0.013c-0.828,0-0.897,0-3.142-2.587
			c-0.702-0.796-2.146-2.347-3.962-4.301c-3.533-3.794-8.303-8.919-11.877-13.052c1.506-1.819,2.354-3.57,2.791-5.749
			c0.498-0.114,0.95-0.281,1.392-0.485c2.644,7.002,5.981,10.6,15.476,11.171c-0.539,0.894-0.809,1.738-0.449,2.473
			c0.208,0.425,0.689,0.935,1.799,0.935c1.073,0,3.313-0.396,10.339-3.782l4.333,0.159c-0.547,1.126-0.637,2.109-0.249,2.885
			c0.229,0.461,0.833,1.231,2.322,1.231c1.48,0,3.554-0.787,5.997-2.276c2.158-0.285,4.252-0.433,6.214-0.433
			c5.349,0,9.021,1.049,11.971,1.89c3.044,0.869,5.582,1.452,7.919,0.62c4.256,5.504,9.271,13.811,13.713,21.171
			c3.484,5.777,6.496,10.763,8.315,12.982c4.112,5.022,5.765,6.128,10.841,5.818c2.587-0.184,5.961,0.518,8.902,1.118
			c2.281,0.465,4.431,0.901,6.002,0.901c0.518,0,2.093,0,2.835-1.118c0.294-0.44,0.408-0.959,0.343-1.57
			c2.02,0.15,3.855,0.873,5.643,1.574c1.106,0.433,2.15,0.845,3.211,1.11c1.335,0.334,2.587-0.637,3.053-2.362
			c0.379-1.412,0.179-3.284-1.159-4.06c-1.926-1.098-6.671-1.583-15.382-1.583c-2.142,0-4.194,0.028-5.907,0.057
			c-1.221,0.017-2.269,0.033-3.057,0.033c-5.21,0-8.629-1.706-11.436-5.7c-0.996-1.412-2.595-3.619-4.488-6.234
			c-5.953-8.226-15.912-21.987-17.446-25.382l-0.126-0.273c-2.044-4.528-2.452-5.051-7.928-5.761
			c-5.324-0.689-15.899-1.126-22.975-1.15c-1.064-1.656-3.545-5.116-5.626-5.116c-0.53,0-1,0.204-1.358,0.592
			c-0.522,0.566-0.771,1.484-0.768,2.855c-2.885,0.404-2.982,0.18-5.063-1.697c-0.661-0.592-2.35-1.967-3.79-1.967
			c-0.62,0-1.143,0.253-1.477,0.715c-0.29,0.403-0.408,0.93-0.352,1.583c-5.463-0.47-7.902-2.118-9.629-4.746l4.402-1.354
			l1.069-0.51c0.024,0.049,0.049,0.094,0.077,0.143c0.462,0.796,1.42,1.253,2.632,1.253c1.437,0,4.472-0.649,9.115-4.831
			c4.521,5.264,11.387,2.864,23.439-8.907l3.309-5.018c4.239-4.667,5.545-7.817,6.699-10.6c1.021-2.456,1.897-4.578,4.668-7.401
			c1.905-1.95,3.631-3.929,5.296-5.851c3.623-4.166,6.748-7.76,10.098-9.082c3.803-1.514,7.552-6.059,11.521-10.877
			c5.386-6.528,10.964-13.297,16.765-12.815c2.354,0.192,4.811,0.29,7.3,0.29c15.663,0,32.134-3.864,46.182-7.646
			c17.254-4.655,36.879-17.07,51.22-32.391c0.371-0.4,0.367-1.02-0.012-1.408c-0.376-0.387-0.996-0.416-1.408-0.053
			c-16.83,14.831-40.534,26.541-51.175,29.29c-9.286,2.395-29.784,6.455-47.716,6.455c-1.114,0-2.212-0.016-3.28-0.049
			c15.071-5.639,34.227-16.222,45.198-28.434c0.714-0.795,1.611-1.722,2.636-2.791c6.426-6.675,18.384-19.095,23.57-37.679
			c0.15-0.543-0.163-1.102-0.702-1.257c-0.551-0.171-1.105,0.159-1.261,0.694c-1.199,4.104-14.513,24.941-27.373,37.972
			c-12.468,12.611-31.061,23.162-51.053,28.977c-2.097-0.367-4.492,0.885-7.229,2.382c-1.567,0.857-3.19,1.747-4.938,2.412
			l-1.856,0.722c-2.859,1.13-4.435,1.754-7.515,1.754l-0.853-0.008c-12.42,0-15.635,8.788-16.161,10.587
			c-1.795,1.526-12.448,4.986-16.81,6.186c-8.299,2.293-15.395,4.814-21.657,7.038c-12.88,4.578-22.089,7.792-31.109,5.39
			c-2.122-0.302-4.517-0.457-7.12-0.457c-11.068,0-23.415,2.709-28.103,6.161c-4.782,3.509-6.765,2.84-10.539,2.322
			c-0.987-0.139-2.068-0.286-3.301-0.404c-6.553-0.616-15.3,2.187-21.938,4.606c-6.532,2.383-24.716,7.838-33.403,9.335
			l-10.804,1.514l-1.216-0.742c-12.628-7.699-24.558-14.974-29.584-18.413c-5.953-4.068-13.909-8.919-21.599-13.607
			c-10.343-6.304-21.033-12.828-27.385-17.732c-2.909-2.248-4.333-3.798-5.373-4.933c-2.322-2.534-3.15-3.17-10.519-4.157
			c-0.322-0.057-0.641,0.065-0.865,0.298c-0.225,0.232-0.327,0.555-0.273,0.873c0.024,0.147,0.053,0.286,0.085,0.412
			c-3.509-0.408-5.014,1.934-5.899,4.59c-2.905-2.416-6.193-4.839-10.331-6.765c-3.211-5.761-6.769-7.152-10.873-8.76
			c-1.42-0.559-2.889-1.13-4.447-1.934c-0.351-0.179-0.775-0.146-1.089,0.098c-0.29,0.22-0.433,0.579-0.388,0.938
			c-4.133,0.559-5.757,2.55-8.952,10.073c-4.17,9.776-24.863,59.984-34.374,84.583l-1.624,4.337
			c-4.88,1.109-10.102,2.313-10.098,2.317l-6.561,0.975c-11.396,4.423-13.407,5.831-13.354,7.573
			c0.045,1.611,1.995,2.239,5.222,3.288c1.546,0.502,3.301,1.069,5.243,1.873l12.016,3.309c-1.987,3.863-4.035,7.124-5.704,9.788
			c-2.644,4.215-4.1,6.536-3.443,8.131c0.078,0.18,0.192,0.384,0.371,0.575c-0.571,0.869-1.306,1.841-2.023,2.787
			c-2.358,3.113-3.656,4.94-2.979,6.308c0.114,0.229,0.302,0.478,0.616,0.665c-1.408,2.313-1.734,3.949-1.979,5.198
			c-0.293,1.465-0.437,2.199-2.109,3.341c-1.583,1.086-1.273,2.428-1.085,3.231c0.175,0.764,0.236,1.021-0.58,1.547
			c-1.681,1.061-1.86,1.982-1.91,2.994c-0.032,0.612-0.057,1.098-1.126,2.064c-2.399,2.188-2.652,3.31-2.285,4.61
			c0.073,0.253,0.163,0.567-1.681,1.967c-1.171,0.897-1.44,1.596-1.403,2.391c-0.388,0.241-1.522,0.706-4.529,1.604
			c-3.427,1.024-6.552,1.526-9.56,1.526c-2.077,0-3.868-0.236-5.442-0.44c-4.953-0.649-8.674-1.277-15.847,6.006
			c-0.338,0.343-0.387,0.873-0.126,1.272C0.428,381.423,0.914,381.577,1.358,381.402z M160.678,229.25
			c-2.358-1.852-4.463-3.619-6.394-5.295c0.935,0.29,1.995,0.571,3.228,0.856c5.275,1.228,17.797,11.53,21.453,15.377
			c1.779,1.877,4.023,4.113,6.715,6.7C174.269,239.095,165.048,232.698,160.678,229.25z M192.902,274.281l-11.979,1.681
			c-8.417,1.714-26.879,4.921-46.427,8.311l-8.4,1.461l1.273-3.839c2.199-6.903,6.34-17.989,9.845-26.349
			c2.138-5.088,4.223-12.791,6.234-20.237c0.637-2.354,1.273-4.708,1.914-6.989c3.313,2.897,6.891,6.12,9.645,9.009
			C160.511,243.102,185.452,267.671,192.902,274.281z M79.262,294.172l0.869-2.077c3.187-11.277,9.2-31.241,13.692-38.275
			c4.884-7.658,14.5-33.839,16.797-41.122c1.914-5.998,3.525-6.891,4.317-6.891c0.587,0,1.285,0.408,2.084,1.211
			c3.301,3.285,5.275,4.007,11.416,5.831c2.248,2.791,6.789,6.732,11.645,10.926c-2.064,8.4-6.189,19.592-10.551,31.424
			c-3.354,9.102-6.826,18.511-9.42,26.883l-1.893,5.014c-13.758,2.42-25.908,4.566-35.3,6.349L79.262,294.172z"/>
	</g>
</g>
<g>
</g>
<g>
</g>
<g>
</g>
<g>
</g>
<g>
</g>
<g>
</g>
<g>
</g>
<g>
</g>
<g>
</g>
<g>
</g>
<g>
</g>
<g>
</g>
<g>
</g>
<g>
</g>
<g>
</g>
</svg>
