<?xml version="1.0" encoding="iso-8859-1"?>
<!-- Generator: Adobe Illustrator 16.0.0, SVG Export Plug-In . SVG Version: 6.00 Build 0)  -->
<!DOCTYPE svg PUBLIC "-//W3C//DTD SVG 1.1//EN" "http://www.w3.org/Graphics/SVG/1.1/DTD/svg11.dtd">
<svg version="1.1" id="Capa_1" xmlns="http://www.w3.org/2000/svg" xmlns:xlink="http://www.w3.org/1999/xlink" x="0px" y="0px"
	 width="578.941px" height="578.941px" viewBox="0 0 578.941 578.941" style="enable-background:new 0 0 578.941 578.941;"
	 xml:space="preserve">
<g>
	<g>
		<path d="M68.953,548.362c0,2.496-0.481,4.998-0.759,7.494c1.991,0.204,4.476,1.229,5.847,0.404
			c1.681-1.012,2.419-3.578,3.59-5.455c0.192-0.306,0.506-0.53,1.444-1.485c0.983,4.252,1.383,8.181,2.836,11.678
			c1.754,4.227,4.019,8.384,6.842,11.954c1.118,1.411,4.863,2.195,6.459,1.383c1.648-0.836,2.746-3.896,2.97-6.096
			c0.281-2.762-0.571-5.634-0.983-8.865c9.445,1.436,18.739,2.207,21.763,13.443c0.359,1.33,1.208,2.958,2.313,3.562
			c2.158,1.184,4.655,1.742,7.013,2.562c0.702-2.358,2.007-4.721,2-7.079c-0.049-12.374-7.585-18.678-18.442-22.424
			c-3.852-1.33-7.556-3.361-10.975-5.605c-7.103-4.672-7.944-12.248-2.052-18.441c5.349-5.618,11.024-10.927,17.858-17.654
			c-0.119,5.777,0.184,10.188-0.522,14.431c-0.232,1.392-2.95,2.701-4.778,3.419c-3.566,1.404-7.307,2.367-10.979,3.509l0.045,2.126
			c1.542,1.167,2.921,2.758,4.655,3.436c10.526,4.116,21.036,8.327,31.771,11.84c3.802,1.244,6.087,2.55,6.748,6.691
			c0.661,4.146,2.632,7.36,7.813,5.854c2.893,8.544,6.703,10.768,11.195,6.598c2.142,2.656,4.292,5.324,6.446,7.997
			c0.833-0.355,1.665-0.71,2.497-1.065c-0.587-3.157-1.024-6.349-1.795-9.461c-1.082-4.357-3.195-8.609-3.436-12.987
			c-0.327-5.977-3.284-9.008-8.413-10.75c-3.313-1.127-6.887-1.734-9.91-3.366c-2.57-1.388-5.161-3.538-6.63-6.014
			c-3.595-6.067-0.437-11.18,6.585-10.735c12.742,0.809,25.476,1.861,38.181,3.089c15.312,1.481,27.352-5.345,33.864-19.327
			c1.759-3.77,3.517-10,8.34-7.956c3.537,1.502,5.989,7.349,7.197,11.734c0.526,1.909-2.774,5.741-5.214,7.418
			c-5.271,3.623-5.219,7.638-2.876,12.799c1.926,4.243,2.962,8.906,5.026,13.063c0.873,1.755,3.386,2.697,5.153,4.007
			c1.02-1.938,2.929-3.896,2.888-5.81c-0.11-4.974-1.081-9.927-0.392-15.19c2.917,4.606,5.451,9.535,8.923,13.673
			c1.539,1.831,4.978,2.064,7.557,3.022c-0.078-2.146,0.077-4.333-0.311-6.418c-0.281-1.514-1.281-2.893-1.958-4.333
			c0.575-0.261,1.15-0.521,1.726-0.783c2.044,1.18,4.007,2.57,6.173,3.443c1.138,0.457,3.113,0.502,3.847-0.188
			c0.727-0.681,0.792-2.66,0.412-3.827c-1.261-3.855-2.856-7.601-4.37-11.501c6.903-3.57,12.713-6.145,18.429,1.057
			c2.387,3.007,6.055,3.158,8.291,0.008c-2.672-4.663-5.165-8.816-7.462-13.072c-2.995-5.545-4.908-5.944-10.412-2.811
			c-2.134,1.216-4.863,1.383-7.319,2.027c-0.657-0.416-1.318-0.836-1.975-1.253c2.224-9.131,4.443-18.262,6.879-28.274
			c20.277,11.82,40.992,6.504,61.461,3.864c4.737-0.612,6.851,0.465,8.992,4.578c7.014,13.484,14.778,26.589,21.6,40.163
			c1.787,3.558,0.787,8.409,1.828,12.473c1.905,7.438,4.309,14.758,6.707,22.057c0.27,0.815,1.865,1.191,2.844,1.771
			c0.58-1.122,1.706-2.285,1.62-3.354c-0.155-1.901-1.049-3.741-1.542-5.324c6.491,2.501,12.795,4.483,18.625,7.409
			c2.121,1.064,3.599,4.189,4.513,6.687c0.967,2.645,0.514,5.811,1.46,8.466c0.563,1.575,2.636,2.616,4.68,4.484
			c0.519-4.157,0.845-6.781,1.172-9.404l1.338-0.049c0.652,2.644,0.894,5.496,2.105,7.854c0.738,1.44,2.962,2.126,4.517,3.15
			c0.62-1.682,1.901-3.428,1.737-5.031c-0.555-5.475-1.771-10.881-2.439-16.353c-0.551-4.513-2.881-7.226-7.25-8.009
			c-2.619-0.469-5.32-0.555-7.988-0.686c-8.703-0.424-11.404-1.897-12.452-10.514c-2.229-18.315-3.701-36.732-5.166-55.134
			c-0.481-6.034,1.024-11.722,4.966-16.752c1.832-2.342,2.954-5.447,3.7-8.385c1.971-7.76,3.19-15.72,5.386-23.411
			c3.072-10.763,2.566-21.15-1.521-31.477c-0.751-1.897-1.314-3.864-2.265-6.695c8.96-5.19,17.964-10.241,26.777-15.614
			c1.799-0.237,3.084-1.244,3.852-2.595c1.566-1.232,2.848-2.587,2.884-3.84c0.069-2.309-3.19-5.879-5.781-6.887
			c-7.821-3.052-15.888-5.875-24.116-7.353c-6.328-1.138-11.241-3.644-15.28-8.266c-9.82-11.236-22.681-16.688-36.83-19.996
			c-2.537-0.596-5.186-2.228-7.001-4.129c-5.537-5.802-10.6-12.053-16.019-17.973c-4.989-5.451-9.515-5.055-12.134,1.836
			c-1.742,4.586-1.999,9.988-1.824,14.981c0.217,6.096,1.583,12.146,2.648,19.58c-9.229-4.341-17.067-8.747-25.402-11.795
			c-15.112-5.524-29.755-11.437-45.341-15.443c1.326-53.39,37.12-103.015,82.083-129.837c29.783-17.769,63.619-27.483,97.789-32.256
			c41.285-5.77,94.052-11.759,100.385-63.24c4.504-36.614-19.968-77.157-55.146-88.948C418.149-9.141,375.791,9.631,351.898,43.54
			c-8.748,12.416-3.954,30.542,8.4,38.466c25.781,16.54,38.278-15.549,58.394-23.75c9.065-3.696,19.927-3.868,28.286,1.232
			c8.36,5.1,13.276,16.03,9.947,25.234c-2.489,6.887-8.936,11.747-15.859,14.142s-14.365,2.681-21.685,2.941
			c-17.553,1.702-35.235,2.946-52.485,6.781c-65.795,14.631-124.416,51.873-159.239,110.409
			c-9.421,15.839-16.537,32.738-21.686,50.143c-4.418,14.933-7.385,30.245-9.119,45.578c-1.6,14.146-5.521,13.101-15.831,23.717
			c-21.399,22.023-33.754,49.482-33.68,81.339c0.008,4.101-0.935,8.87-3.146,12.191c-9.694,14.569-20.522,28.396-29.943,43.134
			c-6.716,10.506-11.905,21.995-17.654,33.104c-3.59,6.937-6.993,13.966-10.404,20.988c-2.24,4.61-2.742,8.82,1.763,12.807
			C69.206,543.111,68.953,546.188,68.953,548.362z M172.304,459.568c0.237,3.351,0.212,6.039,0.653,8.65
			c1.236,7.344-1.003,12.562-8.083,14.476c-9.013,2.436-18.356,3.66-27.556,5.406C144.478,472.968,156.682,465.562,172.304,459.568z
			"/>
	</g>
</g>
<g>
</g>
<g>
</g>
<g>
</g>
<g>
</g>
<g>
</g>
<g>
</g>
<g>
</g>
<g>
</g>
<g>
</g>
<g>
</g>
<g>
</g>
<g>
</g>
<g>
</g>
<g>
</g>
<g>
</g>
</svg>
