<?xml version="1.0" encoding="iso-8859-1"?>
<!-- Generator: Adobe Illustrator 16.0.0, SVG Export Plug-In . SVG Version: 6.00 Build 0)  -->
<!DOCTYPE svg PUBLIC "-//W3C//DTD SVG 1.1//EN" "http://www.w3.org/Graphics/SVG/1.1/DTD/svg11.dtd">
<svg version="1.1" id="Capa_1" xmlns="http://www.w3.org/2000/svg" xmlns:xlink="http://www.w3.org/1999/xlink" x="0px" y="0px"
	 width="588.345px" height="588.345px" viewBox="0 0 588.345 588.345" style="enable-background:new 0 0 588.345 588.345;"
	 xml:space="preserve">
<g>
	<path d="M469.19,258.061c-25.174,2.644-50.396,3.823-75.709,1.718c-18.947-1.575-36.752-7.177-53.99-14.745
		c-11.979-5.263-23.64-11.245-35.545-16.675c-14.684-6.7-30.221-7.601-45.97-5.79c-25.247,2.905-48.617,12.081-71.91,21.636
		c-13.154,5.397-26.5,10.522-40.115,14.557c-7.792,2.31-15.7,3.382-23.644,3.611c-0.449,0.012-1.012-0.061-1.261-0.118
		c-0.147-0.037-0.298-0.062-0.453-0.073c-1.42-0.098-2.836-0.2-4.255-0.298c-0.273-0.021-0.539,0.016-0.788,0.098
		c-0.42,0.135-1.069,0.355-1.522,0.334c-6.079-0.245-12.167-0.914-18.221-1.848c-0.445-0.069-0.718-0.51-0.951-0.861
		c-0.126-0.188-0.331-0.327-0.632-0.375c-5.1-0.82-10.216-1.403-15.349-1.771c-0.449-0.033-1.175-0.123-1.62-0.204
		c-16.365-3.003-32.685-6.299-49.099-9.013c-4.823-0.795-9.996,0.567-15.218,1.11c-0.449,0.045-0.788,0.143-0.759,0.22
		c0.029,0.078-0.31,0.196-0.754,0.273c-1.971,0.347-3.893,0.865-5.639,1.611c-0.417,0.18-1.094,0.445-1.526,0.575
		c-0.677,0.204-1.354,0.412-2.032,0.616c-0.102,0.021-0.204,0.037-0.302,0.065c-1.155,0.318-1.844,1.318-1.905,2.428
		c-0.024,0.449-0.029,1.167-0.016,1.62c0.012,0.437,0.118,0.845,0.297,1.212c0.196,0.408,0.592,1.024,0.931,1.322
		c0.057,0.053,0.118,0.102,0.184,0.147c0.363,0.269,0.897,0.718,1.167,1.077c0.417,0.559,1.032,1.208,1.869,1.644
		c1.057,0.547,0.841-0.061,0.62-1.232c-0.085-0.445-0.024-0.836,0.106-0.869c0.13-0.033,0.404,0.204,0.661,0.498
		c0.151,0.171,0.314,0.339,0.498,0.494c0.804,0.686,0.84,0.249,0.873-0.685c0.016-0.449,0.123-0.836,0.224-0.861
		c0.102-0.024,0.355,0.204,0.596,0.481c0.143,0.164,0.298,0.323,0.474,0.469c0.779,0.661,0.836,0.278,0.869-0.596
		c0.016-0.449,0.318-0.873,0.665-0.934c0.347-0.061,0.808,0.159,1.064,0.453c0.151,0.171,0.314,0.339,0.498,0.498
		c0.775,0.661,0.836,0.281,0.869-0.587c0.016-0.449,0.261-0.853,0.539-0.906c0.277-0.053,0.624-0.021,0.779,0.016
		c0.089,0.021,0.184,0.033,0.285,0.033c0.126,0,0.27,0,0.42,0.004c0.232,0.004,0.139,0.237-0.163,0.575
		c-0.163,0.184-0.314,0.375-0.445,0.588c-0.241,0.383,0.008,0.697,0.457,0.657c1.224-0.118,2.44-0.232,3.635-0.347
		c0.449-0.045,0.926,0.106,0.987,0.367c0.057,0.261-0.249,0.714-0.648,0.922c-0.767,0.4-1.673,0.645-2.224,0.8
		c-0.102,0.028-0.335,0.253-0.653,0.6c-0.306,0.331-0.886,0.469-1.277,0.245c-1.644-0.938-2.436-2.159-2.383-0.612
		c0.033,0.967,0.375,1.824,0.71,2.444c0.212,0.396,0.078,0.583-0.33,0.388c-1.91-0.914-2.815-2.411-2.754-0.763
		c0.012,0.404,0.086,0.775,0.188,1.122c0.126,0.433-0.037,0.58-0.404,0.318c-1.11-0.779-1.645-1.391-1.6-0.118
		c0.021,0.596,0.159,1.146,0.343,1.632c0.159,0.42,0.041,0.522-0.29,0.212c-1.326-1.261-1.804-2.542-2.093-1.057
		c-0.021,0.098-0.021,0.188-0.024,0.281c0,0.155-0.282,0.522-0.53,0.897c-1.367,2.073,0.522,4.647,3.166,5.125
		c5.553,1.008,11.143-5.83,16.316-7.748c2.281-0.69,4.557-1.383,6.838-2.073c0.433-0.131,1.138-0.155,1.575-0.053
		c4.888,1.146,10.481,2.566,16.161,3.55c34.109,5.908,68.246,11.656,102.367,17.487c9.482,1.62,18.96,3.272,28.421,5.031
		c1.228,0.229,2.742,0.877,3.419,1.832c6.858,9.691,16.41,15.615,27.283,19.622c2.321,0.856,3.231,1.872,3.439,4.423
		c0.371,4.573,1.722,9.078,1.991,13.651c0.277,4.68-2.105,7.124-6.605,8.825c-2.627,0.995-5.178,2.358-7.479,3.962
		c-0.155,0.105-0.286,0.257-0.4,0.428c-0.18,0.273-0.469,0.828-0.689,1.221c-0.62,1.097-1.408,2.672-1.33,3.459
		c0.106,1.037,1.065-0.457,3.341-1.803c0.388-0.229,0.551-0.062,0.367,0.351c-0.457,1.028-0.832,2.093-0.775,2.726
		c0.122,1.347,1.358-0.922,4.365-2.595c0.396-0.221,0.576-0.041,0.42,0.383c-0.257,0.694-0.424,1.335-0.383,1.768
		c0.134,1.501,1.636-1.502,5.451-3.154c0.641-0.298,1.228-0.571,1.803-0.837c0.408-0.188,0.833,0.013,0.914,0.453
		c0.608,3.26-0.241,5.562,0.836,4.794c0.795-0.566,1.701-2.574,2.244-3.925c0.167-0.42,0.461-1.085,0.661-1.489
		c3.452-6.96,6.063-14.137,6.541-22.187c0.028-0.449,0.179-0.474,0.347-0.054c0.44,1.118,0.857,2.244,1.387,3.313
		c1.604,3.228,3.084,6.536,4.981,9.588c2.485,4.002,1.539,11.559-2.129,14.447c-0.388,0.302-0.951,0.877-1.208,0.775
		c-4.178-1.686-7.115,2.305-10.91,2.317c-1.028,0.004-1.803,0.195-2.407,0.51c-0.126,0.058-3.798,1.779-4.366,2.954
		c-0.322,0.673,0.388,0.51,1.775,0.371c0.449-0.045,0.795,0.11,0.788,0.326c-0.008,0.217-0.184,0.714-0.359,1.131
		c-0.204,0.481-0.334,0.918-0.314,1.231c0.057,0.918,0.861-0.032,2.631-1.138c0.384-0.237,1.069-0.461,1.518-0.515
		c1.297-0.154,2.586-0.294,3.859-0.403c0.449-0.037,0.62,0.249,0.404,0.645c-0.478,0.873-0.874,1.774-0.836,2.325
		c0.057,0.886,0.787,0.028,2.415-1.028c0.379-0.244,1.032-0.562,1.444-0.746c1.228-0.547,2.419-1.188,3.676-1.379
		c6.03-0.91,9.984-5.084,10.706-11.339c0.326-2.823,1.126-5.59,1.444-8.413c0.151-1.317-0.184-2.745-0.531-4.063
		c-1.754-6.617-3.582-13.219-5.333-19.633c-0.118-0.437,0.135-0.901,0.563-1.049c8.005-2.676,15.231-4.978,22.351-7.56
		c3.382-1.229,6.618-2.918,9.788-4.644c1.853-1.008,3.17-1.139,4.419,0.763c0.681,1.041,1.566,1.95,2.395,2.885
		c6.756,7.617,7.964,15.777,2.917,24.558c-0.225,0.392-0.539,0.796-0.808,1.159c-0.849,1.146-2.689,3.814-3.415,5.512
		c-0.045,0.106-0.078,0.212-0.094,0.314c-0.032,0.179-0.179,0.559-0.383,0.849c-0.123,0.171-0.249,0.347-0.371,0.518
		c-2.979,3.554-6.659,5.777-11.906,5.981c-4.141,0.163-5.92,2.733-5.944,6.65c-0.004,0.449,0.363,0.698,0.792,0.555
		c1.081-0.363,2.179-0.73,3.289-1.102c0.428-0.143,0.526,0.017,0.253,0.376c-0.286,0.379-0.498,0.738-0.575,1.032
		c-0.359,1.342,1.697-0.511,5.275-0.996c0.444-0.061,0.853,0.277,0.906,0.727c0.065,0.571,0.13,1.13,0.2,1.714
		c0.053,0.448,0.322,0.526,0.62,0.188c4.333-4.863,10.727-7.046,16.006-5.067c0.42,0.159,0.547,0.012,0.322-0.376
		c-2.17-3.757-0.383-5.948,2.061-7.891c0.355-0.281,0.555-0.521,0.437-0.555c-0.118-0.032,0.024-0.334,0.314-0.682
		c2.416-2.941,4.264-6.263,5.516-9.918c0.033-0.094,0.049-0.184,0.058-0.27c0.012-0.15,0.089-0.624,0.204-1.057
		c1.354-5.043,2.032-11.281,0.767-13.211c-3.276-5.01-3.888-10.481-3.994-16.72c-0.008-0.449,0.359-0.792,0.808-0.768
		c5.667,0.331,11.318,0.616,16.952,1.094c0.661,0.058,1.375,1.224,1.804,2.02c1.244,2.306,2.199,4.773,3.554,7.006
		c3.631,5.989,8.576,9.143,15.978,10.18c8.678,1.216,17.091,4.476,25.536,7.119c4.998,1.566,9.812,3.713,14.75,5.492
		c7.535,2.717,13.003,9.849,13.329,17.723c0.028,0.719-0.608,1.514-1.057,2.195c-0.747,1.143-2.102,2.138-2.31,3.346
		c-1.061,6.152-6.189,6.332-10.571,7.173c-3.578,0.689-6.365,1.979-8.311,5.512c-0.217,0.396-0.029,0.592,0.392,0.425
		c1.028-0.404,1.941-0.759,2.953-1.159c0.421-0.163,0.571,0.017,0.352,0.412c-0.604,1.09-1.322,2.559-1.245,3.309
		c0.07,0.702,0.543,0.241,1.543-0.551c0.354-0.281,0.954-0.559,1.33-0.632c0.375-0.073,0.526,0.204,0.388,0.632
		c-0.131,0.388-0.204,0.739-0.176,0.996c0.126,1.272,1.53-1.273,5.1-2.677c0.058-0.021,0.106-0.045,0.151-0.065
		c0.082-0.036,0.444-0.154,0.804-0.265c0.216-0.065,0.433-0.139,0.645-0.221c4.704-1.804,9.996-3.129,13.664-6.267
		c3.741-3.199,4.937-8.356,3.084-13.782c-1.35-3.949-2.138-8.177-2.554-12.342c-0.588-5.884-3.962-9.168-9.208-10.47
		c-6.929-1.714-12.11-5.712-16.553-11.008c-5.835-6.956-12.75-12.358-22.298-15.092c-0.432-0.123-0.489-0.433-0.126-0.698
		c5.777-4.207,10.27-8.368,18.462-6.863c49.192,9.038,96.859,3.134,142.938-16.185c28.405-11.91,57.781-20.935,87.373-29.303
		c1.53-0.432,3.036-0.946,4.432-1.917c0.371-0.257,0.289-0.424-0.155-0.343c-5.512,1.044-11.024,2.064-16.528,3.154
		C537.551,248.615,503.54,254.458,469.19,258.061z"/>
</g>
<g>
</g>
<g>
</g>
<g>
</g>
<g>
</g>
<g>
</g>
<g>
</g>
<g>
</g>
<g>
</g>
<g>
</g>
<g>
</g>
<g>
</g>
<g>
</g>
<g>
</g>
<g>
</g>
<g>
</g>
</svg>
