<?xml version="1.0" encoding="iso-8859-1"?>
<!-- Generator: Adobe Illustrator 16.0.0, SVG Export Plug-In . SVG Version: 6.00 Build 0)  -->
<!DOCTYPE svg PUBLIC "-//W3C//DTD SVG 1.1//EN" "http://www.w3.org/Graphics/SVG/1.1/DTD/svg11.dtd">
<svg version="1.1" id="Capa_1" xmlns="http://www.w3.org/2000/svg" xmlns:xlink="http://www.w3.org/1999/xlink" x="0px" y="0px"
	 width="592.667px" height="592.667px" viewBox="0 0 592.667 592.667" style="enable-background:new 0 0 592.667 592.667;"
	 xml:space="preserve">
<g>
	<g>
		<path d="M590.543,290.424c-0.938-0.188-1.889-0.4-2.84-0.616c-3.729-0.845-7.776-1.62-10.963-0.894
			c-6.471,1.473-12.795,3.912-18.915,6.274c-1.93,0.747-3.855,1.489-5.793,2.208c-0.646,0.24-1.767-0.017-2.257-0.515l-1.51-1.555
			c-0.485-0.502-0.636-1.493-0.326-2.121c0.967-1.971,1.918-3.958,2.864-5.94c2.729-5.716,5.545-11.632,8.931-17.026
			c3.023-4.819,3.95-8.266,2.995-11.184c-0.975-2.982-3.949-5.328-9.641-7.597c-41.694-16.614-82.437-33.489-121.107-50.147
			c-2.741-1.183-4.79-4.047-6.956-7.083c-1.665-2.326-3.387-4.737-5.536-6.5c-16.071-13.183-22.845-29.654-30.005-47.091
			c-4.476-10.894-9.103-22.163-16.23-32.917c-3.737-5.647-13.341-11.085-22.627-16.345c-3.819-2.163-7.765-4.398-11.135-6.557
			c-0.686-0.44-0.963-0.563-1.285-0.563l-0.727,0.012l-0.253,0.653c-0.277,0.73,0.27,1.224,0.854,1.75
			c25.781,23.109,32.109,40.763,38.805,59.454c2.909,8.124,5.916,16.524,10.624,25.562c0.098,0.191,0.11,0.338,0.082,0.404
			c-0.029,0.065-0.155,0.134-0.367,0.159c-5.704,0.689-10.976,1.301-15.945,1.876c-11.832,1.367-22.056,2.55-32.142,4.166
			c-4.312,0.689-8.625,1.893-12.799,3.06c-6.161,1.718-12.526,3.497-18.748,3.534l-2.497,0.016
			c-1.636,0.012-3.309,0.024-4.989,0.024c-10.919,0-23.302-0.445-32.082-5.769c-12.248-7.421-25.141-11.032-39.412-11.032
			c-14.562,0-28.919,3.782-41.045,7.482c-17.969,5.488-35.9,11.706-54.876,18.291c-8.16,2.827-16.569,5.745-25.353,8.735
			c-1.273,0.433-1.506,1.281-1.546,1.628c-0.041,0.347-0.008,1.224,1.134,1.938l63.223,39.274
			c-10.693,3.052-20.151,4.533-28.911,4.533c-11.37,0-21.542-2.448-31.097-7.482c-14.961-7.891-29.845-16.565-44.244-24.958
			c-9.616-5.606-19.559-11.399-29.445-16.916c-5.096-2.844-10.526-5.088-16.813-7.687c-2.64-1.093-5.451-2.252-8.462-3.554
			c-1.612-0.685-3.337,0.245-3.656,1.942c-10.49,56.136-7.805,109.564-4.965,166.133c0.085,1.734,1.693,2.876,3.358,2.411
			c3.847-1.081,7.613-2.057,11.301-3.015c9.307-2.416,18.103-4.692,26.422-8.201c9.78-4.125,19.433-8.98,28.76-13.672
			c8.642-4.346,17.581-8.842,26.582-12.738c25.997-11.248,49.519-11.146,76.304,0.437l-44.248,14.876
			c-1.505,0.506-2.599,2.138-2.488,3.721l1.016-0.069l-0.983,0.49c0.099,1.501,1.2,3.117,2.562,3.758
			c6.39,3.022,12.852,6.222,19.103,9.314c15.696,7.76,31.918,15.789,48.576,21.849c5.121,1.864,10.526,2.807,16.071,2.807
			c14.88,0,28.964-6.536,42.579-12.856c1.901-0.885,3.79-1.763,5.667-2.611c12.351-5.609,23.428-8.221,34.864-8.221
			c3.708,0,7.413,0.266,11.326,0.808c16.197,2.244,32.203,3.28,50.738,4.48c7.3,0.473,14.9,0.963,22.909,1.559
			c-25.382,15.549-36.022,37.589-33.477,69.27c2.849,35.402-6.576,57.394-31.514,73.534c-1.118,0.722-1.188,1.452-1.049,1.934
			c0.144,0.481,0.588,1.057,1.91,1.061h0.388c45.863,0,60.979-32.448,75.594-63.831l0.27-0.579
			c8.886-19.078,13.603-40.404,18.168-61.029l1.388-6.242c2.056-9.217,5.096-11.22,13.794-12.921l4.733-0.923
			c26.883-5.246,54.684-10.673,80.682-19.951c20.229-7.221,39.494-18.078,58.123-28.58c4.26-2.399,8.52-4.802,12.783-7.156
			c3.138-1.734,4.749-5.875,6.308-9.882c0.433-1.118,0.869-2.235,1.334-3.297c0.351-0.791,0.347-1.604-0.012-2.284
			C592.04,291.052,591.384,290.587,590.543,290.424z"/>
	</g>
</g>
<g>
</g>
<g>
</g>
<g>
</g>
<g>
</g>
<g>
</g>
<g>
</g>
<g>
</g>
<g>
</g>
<g>
</g>
<g>
</g>
<g>
</g>
<g>
</g>
<g>
</g>
<g>
</g>
<g>
</g>
</svg>
