<?xml version="1.0" encoding="iso-8859-1"?>
<!-- Generator: Adobe Illustrator 16.0.0, SVG Export Plug-In . SVG Version: 6.00 Build 0)  -->
<!DOCTYPE svg PUBLIC "-//W3C//DTD SVG 1.1//EN" "http://www.w3.org/Graphics/SVG/1.1/DTD/svg11.dtd">
<svg version="1.1" id="Capa_1" xmlns="http://www.w3.org/2000/svg" xmlns:xlink="http://www.w3.org/1999/xlink" x="0px" y="0px"
	 width="590.479px" height="590.48px" viewBox="0 0 590.479 590.48" style="enable-background:new 0 0 590.479 590.48;"
	 xml:space="preserve">
<g>
	<g>
		<path d="M586.947,158.631c-12.596-5.839-21.869-15.712-36.785-13.647c-14.814,2.048-30.286,10.241-43.188,17.523
			c-22.558,12.742-47.405,29.906-61.815,51.661c-14.142,21.342-34.244,44.603-58.055,54.892
			c-24.382,10.539-53.982,0.241-77.157-7.728c-14.516-4.994-28.906-12.485-44.092-15.116c-13.586-2.35-28.115-1.718-41.632,0.844
			c-30.486,5.777-55.276,25.271-79.479,43.387c-12.619,9.429-27.111,14.635-41.709,20.09c-12.542,4.68-23.774,10.979-35.439,17.454
			c-21.958,12.229-57.385,28.78-65.753,55.007c-9.992,31.281,22.754,44.913,47.83,44.913c16.206,0.036,32.093-1.747,48.062-4.423
			c7.842-1.318,16.035-2.338,23.688-4.55c6.61-1.896,12.991-5.598,20.004-5.851c22.256-0.819,44.072-8.719,66.639-8.719
			c15.304,0,30.625,0,45.937,0c21.554,0,44.337,4.565,65.149,9.898c16.977,4.354,33.529,10.285,49.372,17.797
			c4.781,2.269,24.77,17.98,30.155,12.591c7.413-7.401-59.642-35.639-67.096-37.952c-26.622-8.254-54.342-13.644-82.126-15.884
			c-34.08-2.75-66.557,1.914-100.315,5.178c-26.3,2.644-51.265,12.505-78.258,12.505c-12.109,0-24.137-1.248-32.489-11.351
			c-10.09-12.211,3.187-23.839,13.407-29.6c9.984-5.619,20.551-9.445,32.024-9.837c14.231-0.49,27.756-5.162,41.935-6.21
			c12.048-0.894,24.186-1.18,36.189-2.673c11.473-1.428,11.987,3.105,14.052,13.509c2.101,10.441,12.721,14.146,23.105,15.357
			c0.918,0.734,1.701,1.457,2.146,2.085c1.183,1.673,2.513,1.289,1.771-1.742c0.588,0.037,1.171,0.073,1.742,0.098
			c1.338,0.629,2.542,1.294,3.228,1.926c1.53,1.416,2.75,0.706,1.285-2.228c-0.021-1.253-0.151-2.521-0.412-3.754
			c0.648,0.163,1.236,0.347,1.668,0.563c2.812,1.42,3.725-1.571-5.593-7.222c-0.27-0.204-0.522-0.416-0.82-0.596
			c-3.138-1.824-5.39-3.61-5.149-7.564c0.229-4.908,10.163-9.106,14.411-9.106c5.896,0,0.375,9.078-0.625,12.946
			c-3.831,0.673,2.44,8.576,2.44,8.494c0,11.669,3.729,10.114,14.549,10.114c5.08,0,9.519,0.894,14.215,1.184
			c2.562,0.774,7.397,2.366,9.155,3.867c1.677,1.433,2.893,0.494,0.873-2.811c2.228,0.318,4.525,0.774,5.732,1.436
			c2.518,1.371,3.57-0.958-3.137-5.867c1.673-0.171,3.264-0.232,4.276-0.008c3.117,0.698,3.256-2.525-7.625-5.769
			c-2.244-0.67-3.876-0.951-5.092-1c-3.305-1.922-6.903-3.477-7.103-5.394c-0.526-4.962,2.75-13.758,7.74-15.414
			c8.947-3.023,19.47,0.285,29.164-0.29c2.26-0.139,18.915-3.19,20.583,0.131c0,6.683-0.812,13.346-0.812,20.143
			c1.677,4.027,6.688,4.541,10.869,5.019c5.61,0.656,6.499,6.577,13.248,6.997c5.1,0.322,10.146,0.787,15.23,0.991
			c2.664,0.853,6.418,2.203,7.915,3.484c1.677,1.433,2.893,0.494,0.873-2.812c2.228,0.318,4.524,0.775,5.732,1.437
			c2.191,1.195,3.269-0.42-0.918-4.101c0.191-0.656,0.191-1.293,0.037-1.905c0.774-0.012,1.489,0.013,2.02,0.131
			c3.117,0.697,3.256-2.525-7.626-5.77c-0.351-0.105-0.652-0.175-0.975-0.265c-1.399-0.686-2.722-1.212-3.619-1.547
			c-8.05-3.023-6.182-18.474,2.064-18.355c16.055,0.244,31.718-7.891,44.292-17.205c13.167-9.752,24.692-23.42,32.191-38.018
			c6.598-12.885,15.749-24.333,23.591-36.635c15.047-23.619,31.975-50.086,54.211-67.769c15.59-12.473,35.598-20.996,55.762-20.996
			c8.511,0,17.009,0,25.512,0C584.964,174.6,596.266,162.895,586.947,158.631z"/>
	</g>
</g>
<g>
</g>
<g>
</g>
<g>
</g>
<g>
</g>
<g>
</g>
<g>
</g>
<g>
</g>
<g>
</g>
<g>
</g>
<g>
</g>
<g>
</g>
<g>
</g>
<g>
</g>
<g>
</g>
<g>
</g>
</svg>
