<?xml version="1.0" encoding="iso-8859-1"?>
<!-- Generator: Adobe Illustrator 16.0.0, SVG Export Plug-In . SVG Version: 6.00 Build 0)  -->
<!DOCTYPE svg PUBLIC "-//W3C//DTD SVG 1.1//EN" "http://www.w3.org/Graphics/SVG/1.1/DTD/svg11.dtd">
<svg version="1.1" id="Capa_1" xmlns="http://www.w3.org/2000/svg" xmlns:xlink="http://www.w3.org/1999/xlink" x="0px" y="0px"
	 width="571.333px" height="571.333px" viewBox="0 0 571.333 571.333" style="enable-background:new 0 0 571.333 571.333;"
	 xml:space="preserve">
<g>
	<g>
		<path d="M560.898,134.648c-10.064-1.567-18.221-6.68-26.846-11.241c-5.309-2.807-11.086-4.708-16.598-7.14
			c-1.465-0.645-2.782-1.673-4.067-2.656c-1.816-1.396-3.411-3.101-5.312-4.354c-8.201-5.397-13.533-4.333-18.572,4.134
			c-6.475,10.881-16.193,18.38-26.152,25.557c-14.215,10.241-30.706,13.949-47.716,12.926c-16.72-1.004-33.362-3.827-49.947-6.426
			c-37.781-5.912-75.264-14.293-113.702-14.762c-26.397-0.322-51.959,3.863-76.161,15.536c-20.47,9.87-35.104,26.406-50.878,41.727
			c-7.776,7.556-14.721,15.998-22.762,23.24c-5.483,4.933-12.02,8.817-18.425,12.587c-33.134,19.486-53.158,49.213-68.181,83.729
			c-20.482,47.047-18.776,94.566-6.349,142.809c0.885,3.436,1.652,6.94,2.974,10.212c0.779,1.93,2.774,5.019,3.807,4.859
			c2.322-0.354,5.549-1.926,6.345-3.852c3.011-7.287,6.209-14.749,7.499-22.448c3.402-20.371,5.749-40.918,8.703-61.367
			c2.354-16.275,8.319-31.277,16.589-45.435c1.244-2.13,2.513-4.5,2.815-6.879c2.57-20.388,14.994-34.848,29.099-48.115
			c5.577-5.251,12.309-9.258,18.274-14.121c5.23-4.264,9.865-3.464,14.427,0.808c4.565,4.276,9.372,8.348,13.538,12.991
			c5.165,5.761,11.204,8.779,18.959,9.55c24.692,2.448,49.278,0.429,73.856-1.375c2.656-0.195,7.258-3.292,7.226-4.974
			c-0.09-4.631-1.702-10.053-7.442-10.853c-7.891-1.098-15.924-1.697-23.884-1.607c-3.713,0.041-5.235-0.755-6.21-4.174
			c-1.081-3.778-2.746-7.385-4.447-11.82c24.676-8.584,49.294-9.416,74.403-5.643c16.438,2.473,33.065,3.726,49.495,6.255
			c8.789,1.354,17.23,5.219,26.019,6.197c9.335,1.041,19.115,1.225,28.319-0.392c15.133-2.66,29.947-7.128,44.925-10.722
			c4.835-1.159,7.776,1.648,8.919,5.806c3.19,11.607,9.159,21.62,18.107,29.372c6.328,5.479,13.492,10.387,21.036,13.961
			c6.703,3.174,15.667-0.841,19.552-7.173c0.759-1.24,0.849-3.965,0.008-4.92c-3.199-3.644-6.589-7.274-10.498-10.102
			c-4.814-3.484-12.407-4.945-14.888-9.441c-4.59-8.315-7.919-17.564-8.45-27.716c-0.461-8.833,3.244-13.721,10.065-18.103
			c16.94-10.877,33.575-22.232,50.434-33.236c8.67-5.659,18.4-8.091,28.629-9.666c13.052-2.007,23.599-9.335,31.665-19.519
			C574.517,149.797,569.421,135.974,560.898,134.648z"/>
	</g>
</g>
<g>
</g>
<g>
</g>
<g>
</g>
<g>
</g>
<g>
</g>
<g>
</g>
<g>
</g>
<g>
</g>
<g>
</g>
<g>
</g>
<g>
</g>
<g>
</g>
<g>
</g>
<g>
</g>
<g>
</g>
</svg>
