<?xml version="1.0" encoding="iso-8859-1"?>
<!-- Generator: Adobe Illustrator 16.0.0, SVG Export Plug-In . SVG Version: 6.00 Build 0)  -->
<!DOCTYPE svg PUBLIC "-//W3C//DTD SVG 1.1//EN" "http://www.w3.org/Graphics/SVG/1.1/DTD/svg11.dtd">
<svg version="1.1" id="Capa_1" xmlns="http://www.w3.org/2000/svg" xmlns:xlink="http://www.w3.org/1999/xlink" x="0px" y="0px"
	 width="587.182px" height="587.182px" viewBox="0 0 587.182 587.182" style="enable-background:new 0 0 587.182 587.182;"
	 xml:space="preserve">
<g>
	<g>
		<path d="M475.147,264.768c-11.18,2.396-22.942,4.46-34.428,3.631c-5.65-0.407-11.272-2.37-16.695-5.173
			c-9.991-5.169-19.51-16.365-27.128-22.791c-12.79-10.795-25.557-21.64-38.69-32.012c-8.67-6.846-18.278-12.452-29.144-15.055
			c-7.854-1.881-15.932-2.807-23.912-4.153c-16.018-2.705-32.097-4.406-48.389-3.562c-22.399,1.159-43.632,7.01-63.852,16.357
			c-21.877,10.114-43.534,20.718-65.17,31.351c-7.213,3.545-14.655,3.888-22.395,3.5c-7.548-0.375-15.117-0.706-22.665-0.51
			c-8.029,0.208-14.77,3.615-20.065,9.768c-3.623,4.21-7.634,8.123-10.955,12.554c-5.182,6.916-12.204,10.967-19.874,14.345
			c-7.479,3.293-14.867,6.802-22.236,10.343c-2.048,0.983-3.909,2.375-5.785,3.685c-4.08,2.844-4.35,3.668-3.122,8.526
			c3.317,13.098,17.564,20.698,30.266,15.676c5.765-2.28,11.13-5.605,16.602-8.593c4.937-2.696,9.768-5.585,14.659-8.372
			c2.35-1.338,4.766-1.31,7.393-0.706c2.615,0.604,5.361,0.633,8.05,0.931c0.6,0.065,1.252,0.053,1.783,0.294
			c15.712,7.181,32.114,12.036,49.196,14.59c0.139,0.021,0.257,0.184,1.114,0.837c-5.517,4.186-10.743,8.155-16.071,12.198
			c1.95,1.114,4.068,2.322,6.332,3.611c-1.249,2.256-2.477,4.476-3.705,6.695c0.22,0.176,0.445,0.351,0.665,0.522
			c1.706-1.27,3.248-2.975,5.161-3.685c1.881-0.697,4.137-0.388,6.202-0.514c0.714,2.566,1.277,4.581,1.93,6.936
			c0.983-2.317,1.816-4.275,2.607-6.148c4.843-0.118,7.703,2.154,9.29,6.577c0.632-2.391,1.163-4.818,1.917-7.169
			c0.971-3.023,2.412-3.439,4.811-1.392c1.46,1.245,2.733,2.705,4.512,4.492c0.734-2.46,1.045-4.275,1.836-5.851
			c0.514-1.02,1.722-2.383,2.64-2.403c11.485-0.236,22.163-3.929,32.799-7.633c6.553-2.281,13.044-1.935,19.527-0.453
			c16.157,3.688,32.612,4.455,49.054,5.178c14.431,0.632,28.886,1.032,43.325,0.897c9.563-0.09,19.118-1.298,29.144-2.04
			c0.061,7.119-3.93,14.826-0.314,22.819c1.04-1.481,2.085-2.685,2.803-4.06c0.861-1.645,1.995-1.832,3.676-1.534
			c4.627,0.824,4.631,0.755,5.509,5.373c0.253,1.343,0.562,2.673,1.419,4.162c0.931-2.122,1.881-4.235,2.787-6.369
			c0.538-1.277,1.081-2.399,2.836-2.102c1.583,0.27,3.354-0.135,3.929,2.171c0.44,1.774,1.281,3.447,2.003,5.312
			c1.053-3.134,2.049-6.092,3.04-9.054c0.322,0,0.645,0.004,0.971,0.004c1.967,2.958,3.934,5.92,5.896,8.878
			c0.18-0.041,0.355-0.077,0.535-0.118c-0.114-1.823-0.2-3.647-0.352-5.472c-0.146-1.803-0.383-3.406,2.053-4.169
			c0.954-0.298,1.693-1.922,2.121-3.093c0.408-1.118,0.445-2.44,0.371-3.66c-0.354-5.854,2.338-10.028,7.544-12.122
			c8.145-3.275,15.99-11.737,24.501-13.582c0,0,116.198-15.002,60.494,29.4c-35.786,28.527,28.417,104.362,82.102,49.466
			C654.32,271.129,520.664,255.021,475.147,264.768z"/>
	</g>
</g>
<g>
</g>
<g>
</g>
<g>
</g>
<g>
</g>
<g>
</g>
<g>
</g>
<g>
</g>
<g>
</g>
<g>
</g>
<g>
</g>
<g>
</g>
<g>
</g>
<g>
</g>
<g>
</g>
<g>
</g>
</svg>
