<?xml version="1.0" encoding="iso-8859-1"?>
<!-- Generator: Adobe Illustrator 16.0.0, SVG Export Plug-In . SVG Version: 6.00 Build 0)  -->
<!DOCTYPE svg PUBLIC "-//W3C//DTD SVG 1.1//EN" "http://www.w3.org/Graphics/SVG/1.1/DTD/svg11.dtd">
<svg version="1.1" id="Capa_1" xmlns="http://www.w3.org/2000/svg" xmlns:xlink="http://www.w3.org/1999/xlink" x="0px" y="0px"
	 width="591.815px" height="591.815px" viewBox="0 0 591.815 591.815" style="enable-background:new 0 0 591.815 591.815;"
	 xml:space="preserve">
<g>
	<g>
		<path d="M589.883,310.674c-6.129,1.998-13.102,1.889-18.989-0.906c-3.451-1.641-6.846-3.9-10.493-4.9
			c2.097-2.432,0.73-3.529,0.73-3.529s-16.524-4.57-42.188-0.701c-25.667,3.867-33.398-11.955-35.859-15.472
			c-2.46-3.517-8.931-6.295-8.931-6.295c-1.506-1.958-3.93-3.207-5.933-4.782c-0.273-0.216-0.571-0.4-0.841-0.625
			c-4.496-3.745-8.874-7.646-13.509-11.212c-6.948-5.353-13.831-10.853-21.188-15.598c-9.763-6.295-20.865-10.029-31.652-14.035
			c-10.33-3.839-21.351-5.826-32.077-8.592c-3.896-1.004-7.857-1.779-11.709-2.925c-1.196-0.355-2.714-1.408-3.044-2.464
			c-0.526-1.681-1.212-1.698-2.518-1.277c-2.121,0.682-2.207,0.616-2.934-1.599c-0.697-2.138-1.081-2.419-3.149-1.522
			c-1.759,0.763-3.007,0.355-4.202-0.975c-0.576-0.641-1.298-1.15-2.118-1.86c-0.339,1.199-0.551,1.962-0.824,2.929
			c-0.824-0.473-1.505-0.795-2.109-1.224c-1.143-0.816-2.166-1.269-3.402-0.028c-0.273,0.273-1.363,0.028-1.877-0.294
			c-0.89-0.563-1.62-1.379-2.57-2.224c-0.8,2.122-1.894,1.718-3.117,0.877c-1.697-1.167-3.423-2.285-5.467-3.644
			c0.167,1.016,0.253,1.53,0.407,2.481c-2.219-1.555-4.108-2.876-6.001-4.199h-1.057c0.232,0.881,0.469,1.767,0.767,2.889
			c-0.604-0.363-0.987-0.579-1.362-0.816c-0.873-0.551-1.461-0.383-1.983,0.559c-1.714,3.101-1.738,3.088-4.312,0.498
			c-1.734-1.746-2.166-1.869-4.243-0.596c-1.379,0.845-2.697,0.914-4.17,0.404c-0.881-0.306-1.807-0.474-3.142-0.808
			c0.686,1.171,1.11,1.897,1.783,3.048c-0.967-0.412-1.534-0.637-2.085-0.897c-1.583-0.747-3.138-1.571-4.757-2.232
			c-0.49-0.2-1.591-0.126-1.677,0.098c-0.795,2.114-2.403,1.444-3.835,1.208c-2.02-0.331-4.019-0.767-6.026-1.159
			c-0.049,0.134-0.098,0.273-0.147,0.408c0.53,0.481,1.061,0.959,1.595,1.44c-0.045,0.065-0.09,0.126-0.135,0.192
			c-1.938-0.722-3.872-1.449-6.038-2.256c0.363,0.6,0.563,0.926,0.836,1.379c-1.783,0.583-3.444,1.122-5.296,1.726
			c0.542,0.657,0.849,1.032,1.338,1.628c-2.33-0.71-4.411-1.342-6.797-2.069c0.367,0.784,0.551,1.179,0.84,1.795
			c-1.995-0.302-3.782-0.571-6.075-0.922c0.898,0.751,1.359,1.134,2.179,1.816c-1.975,0.338-3.545,0.669-5.137,0.861
			c-1.652,0.2-3.321,0.261-5.222,0.404c0.489,0.963,0.881,1.726,1.493,2.925c-3.762-0.686-7.079-1.285-10.8-1.962
			c0.473,1.167,0.726,1.787,1.081,2.66c-0.93,0.163-1.762,0.29-2.586,0.461c-2.036,0.424-4.37,0.11-5.533,2.583
			c-0.236,0.498-1.306,0.914-1.938,0.853c-1.824-0.18-3.619-0.641-5.435-0.942c-0.567-0.094-1.562-0.241-1.677-0.017
			c-0.734,1.453-1.693,0.861-2.644,0.449c-1.538-0.665-3.06-1.358-4.745-2.109c-0.069,0.759-0.114,1.245-0.167,1.84
			c-1.334-0.102-2.546-0.225-3.762-0.27c-0.506-0.02-1.371-0.016-1.469,0.225c-0.686,1.648-1.73,0.82-2.726,0.535
			c-2.75-0.784-5.475-1.677-8.266-2.256c-0.918-0.192-2.215,0.192-2.97,0.787c-0.914,0.718-0.62,1.889,0.045,2.86
			c0.171,0.249,0.175,0.616,0.322,1.2c-2.26-0.449-4.309-0.861-6.54-1.306v2.089c-1.179-0.245-2.208-0.388-3.195-0.677
			c-2.073-0.604-4.1-1.371-6.197-1.873c-0.702-0.167-1.571,0.2-2.326,0.449c-0.571,0.188-1.106,0.856-1.612,0.812
			c-1.852-0.171-3.684-0.575-5.532-0.84c-1.257-0.184-2.526-0.286-4.125-0.461c0.649,1.138,1.028,1.803,1.498,2.619
			c-0.682,0.086-1.085,0.208-1.473,0.176c-4.423-0.404-8.89-0.567-13.256-1.314c-6.206-1.061-12.305-2.733-18.511-3.815
			c-8.258-1.44-16.324-3.945-24.884-3.753c-7.38,0.167-14.818-0.078-21.914,2.109c-10.808,3.333-21.481,7.116-32.204,10.726
			c-2.872,0.967-5.65,2.518-8.592,2.926c-10.73,1.489-21.249,3.802-31.604,6.956c-4.268,1.297-8.576,2.469-12.869,3.697
			c0.021,0.085,0.041,0.171,0.062,0.261c2.101-0.363,4.202-0.73,6.303-1.093c0.049,0.159,0.098,0.318,0.147,0.478
			c-2.236,1.526-4.472,3.052-6.711,4.578c0.073,0.118,0.147,0.237,0.22,0.355c1.64-0.457,3.28-0.91,4.917-1.367
			c0.094,0.163,0.188,0.322,0.281,0.485c-3.423,3.219-6.846,6.434-10.269,9.653v0.702c2.215-0.481,4.431-0.967,6.646-1.448
			c0.025,0.143,0.049,0.286,0.074,0.428l2.77-3.268c0.159,0.082,0.318,0.163,0.474,0.245c-0.318,1.142-0.6,2.297-0.967,3.419
			c-1.729,5.267-3.5,10.518-5.21,15.793c-0.188,0.58-0.082,1.252-0.139,2.419c1.183-0.836,1.922-1.277,2.566-1.832
			c1.33-1.146,2.513-2.497,3.945-3.484c1-0.694,2.289-1.134,3.5-1.306c1-0.143,1.546,0.583,0.788,1.579
			c-0.637,0.836-1.371,1.6-2.057,2.399c-0.856,1.008-1.709,2.023-2.562,3.035c0.09,0.135,0.184,0.27,0.273,0.404
			c2.183-0.918,4.361-1.84,6.544-2.758c0.13,0.155,0.261,0.31,0.387,0.469c-0.726,1.644-1.452,3.289-2.179,4.929
			c0.098,0.069,0.2,0.139,0.298,0.208l2.97-1.808c0.114,0.094,0.229,0.184,0.343,0.277c-0.681,2.644-1.363,5.284-2.044,7.928
			c0.175,0.102,0.351,0.204,0.522,0.306c2.835-1.539,4.63-4.594,7.862-5.757c-0.277,2.109-0.795,4.052-1.322,5.989
			c-0.49,1.804-1.036,3.591-1.453,5.406c-0.229,0.991,0.306,1.566,1.285,1.073c2.338-1.171,4.619-2.452,6.916-3.7
			c0.714-0.388,1.407-0.809,2.109-1.212c0.102,0.122,0.208,0.249,0.31,0.371c-0.886,1.853-1.775,3.704-2.66,5.553
			c0.126,0.114,0.253,0.232,0.379,0.347c1.852-1.407,3.705-2.819,5.553-4.227l0.4,0.31c-0.261,0.73-0.445,1.502-0.796,2.191
			c-1.591,3.125-3.312,6.185-4.814,9.355c-0.841,1.771-1.485,3.664-1.934,5.57c-0.27,1.143,0.18,2.293,1.783,2.627
			c0.42-1.131,0.816-2.188,1.212-3.244c0.098,0.018,0.196,0.029,0.298,0.045v3.689c2.252,0.18,2.24,0.184,2.432,2.418
			c0.061,0.703,0.229,1.396,0.347,2.094c1.265-6.76,5.884-11.09,10.2-15.627c0.225,0.104,0.449,0.201,0.677,0.303
			c-1.028,3.736-2.056,7.475-3.084,11.211c0.163,0.066,0.327,0.135,0.49,0.201c1.481-2.387,2.962-4.77,4.447-7.156
			c0.11,0.049,0.22,0.094,0.33,0.143c-0.31,1.574-0.616,3.148-0.926,4.729c0.191,0.078,0.383,0.154,0.575,0.232
			c2.676-3.721,5.349-7.445,8.025-11.168c0.151,0.096,0.302,0.184,0.453,0.279c-2.803,6.049-5.606,12.1-8.409,18.15
			c0.159,0.09,0.314,0.18,0.473,0.27c2.024-2.822,4.047-5.643,6.071-8.465c0.134,0.08,0.273,0.162,0.408,0.244
			c-0.22,0.652-0.453,1.301-0.665,1.955c-0.763,2.324-1.652,4.625-2.207,7c-0.18,0.771,0.245,2.139,0.853,2.551
			c1.416,0.955,2.195,1.859,1.432,3.615c2.154-3.314,4.312-6.631,6.467-9.943c0.204,0.098,0.408,0.195,0.612,0.289l-2.007,9.609
			c0.155,0.086,0.31,0.17,0.465,0.256c0.832-1.072,1.661-2.15,2.493-3.223c0.204,0.102,0.412,0.203,0.616,0.303
			c0.241,0.746,0.433,1.514,0.734,2.23c0.237,0.562,0.608,1.064,0.922,1.596c0.461-0.393,1.049-0.705,1.359-1.191
			c0.816-1.281,1.505-2.641,2.256-3.961c0.82-1.445,1.648-2.881,2.472-4.316c0.184,0.057,0.367,0.109,0.551,0.166
			c-0.416,3.541-0.832,7.088-1.248,10.629c0.22,0.068,0.437,0.135,0.657,0.203c1.436-1.721,2.876-3.447,4.312-5.168
			c0.18,0.08,0.359,0.158,0.539,0.24c0.331,2.125,0.665,4.256,1.069,6.863c0.853-1.168,1.391-1.902,1.926-2.637
			c0.11,0.049,0.216,0.094,0.327,0.143v5.234l0.387,0.09c1.795-3.023,3.595-6.041,5.39-9.064c0.233,0.057,0.461,0.113,0.694,0.17
			c0.049,0.996,0.167,1.996,0.135,2.992c-0.09,2.684,1.044,4.883,2.672,6.873c1.126,1.381,1.685,1.27,2.203-0.402
			c1.191-3.848,2.317-7.717,3.509-11.562c0.241-0.779,0.665-1.498,1.216-2.715c0.677,2.18,1.179,3.795,1.832,5.893
			c0.934-1.547,1.571-2.604,2.211-3.664c0.224,0.057,0.449,0.113,0.677,0.172v12.312c0.163,0.016,0.331,0.033,0.494,0.053
			c0.75-0.824,1.501-1.648,2.362-2.594c0.755,1.428,1.379,2.611,2.003,3.789c0.196-0.02,0.388-0.041,0.583-0.061
			c1.024-4.035,2.048-8.066,3.077-12.102c0.269,0.004,0.534,0.012,0.804,0.018c0.559,1.439,1.041,2.916,1.709,4.303
			c0.367,0.764,1.041,1.379,1.579,2.061c0.143-0.086,0.281-0.17,0.424-0.256c0.29,2.309,0.575,4.621,0.865,6.932l0.49-0.004
			c0.755-2.211,1.509-4.424,2.264-6.635l0.486,0.025c0.828,2.016,1.66,4.025,2.489,6.041c0.208-0.016,0.412-0.031,0.62-0.045
			c1.105-2.193,2.215-4.389,3.321-6.584l0.494,0.068c0.481,1.971,0.963,3.941,1.571,6.422c1.216-1.48,2.061-2.508,3.089-3.766
			c0.755,1.75,1.379,3.191,2.187,5.061c1.064-1.711,1.864-2.988,2.742-4.395c0.432,0.457,0.661,0.637,0.816,0.869
			c1.179,1.795,1.497,1.881,2.896,0.273c1.032-1.184,1.824-2.57,2.803-3.803c0.326-0.408,0.934-0.883,1.363-0.838
			c0.347,0.037,0.689,0.771,0.897,1.258c0.216,0.502,0.277,1.072,0.441,1.779c4.374-2.053,9.229-2.67,12.794-6.211
			c-0.347,1.248-0.697,2.498-1.044,3.75c0.126,0.094,0.253,0.191,0.379,0.285c1.795-1.514,3.595-3.023,5.39-4.537l0.514,0.348
			c-0.249,2.525-0.501,5.051-0.75,7.576c0.184,0.053,0.363,0.102,0.547,0.154c1.66-2.439,3.321-4.879,4.981-7.322
			c0.184,0.076,0.367,0.15,0.551,0.229v6.148c0.163,0.068,0.322,0.139,0.485,0.207c0.922-1.143,1.849-2.283,2.771-3.422
			c0.167,0.057,0.334,0.109,0.506,0.166v4.465c0.184,0.053,0.367,0.109,0.547,0.162c1.003-1.334,1.954-2.713,3.036-3.977
			c0.575-0.674,1.383-1.152,2.081-1.719c0.469,0.705,0.979,1.391,1.399,2.125c0.522,0.918,0.967,1.877,1.713,3.342
			c1.559-2.41,2.795-4.328,4.329-6.703c0.2,1.574,0.331,2.6,0.461,3.623c0.167,0.041,0.334,0.086,0.506,0.127l5.512-8.691
			c0.2,0.074,0.4,0.152,0.6,0.225c0.135,1.918,0.27,3.84,0.404,5.758c0.179,0.049,0.363,0.094,0.546,0.143
			c1.518-2.836,3.032-5.668,4.667-8.719c0.481,0.768,0.771,1.225,1.232,1.953c1.477-2.586,2.832-4.961,4.423-7.752
			c0.469,1.891,0.787,3.15,1.102,4.412c0.224,0.072,0.449,0.146,0.673,0.223c2.542-3.398,5.088-6.793,7.932-10.596
			c0.294,1.404,0.465,2.236,0.637,3.064l0.404,0.014c0.971-2.359,1.938-4.717,3.068-7.467c0.135,1.102,0.208,1.705,0.331,2.684
			c0.841-0.611,1.399-1.023,1.983-1.447c0.29,0.248,0.51,0.432,0.727,0.627c1.803,1.648,2.064,1.656,3.941,0
			c0.857-0.754,1.689-1.545,2.534-2.316c0.106,0.072,0.212,0.143,0.318,0.217c-0.934,2.305-1.869,4.609-2.803,6.91
			c0.2,0.146,0.396,0.295,0.595,0.445c2.869-2.162,5.737-4.324,8.605-6.486c0.065,0.084,0.13,0.166,0.2,0.248
			c-1.864,2.391-3.729,4.781-5.593,7.172l0.412,0.51c2.04-0.604,4.076-1.211,6.116-1.814c0.102,0.168,0.2,0.338,0.302,0.506
			c-1.093,1.994-2.183,3.986-3.276,5.98c0.143,0.127,0.29,0.254,0.432,0.385c2.171-1.311,4.345-2.619,6.516-3.934
			c-0.734,1.578-1.742,2.795-2.709,4.035c-0.963,1.232-1.885,2.496-2.823,3.746c0.143,0.154,0.29,0.309,0.433,0.465
			c1.881-0.738,3.766-1.477,5.65-2.217c0.053,0.104,0.11,0.209,0.164,0.311c-1.428,1.465-2.86,2.926-4.288,4.391
			c0.085,0.154,0.171,0.311,0.253,0.461c1.408-0.082,2.819-0.164,4.77-0.273c-1.146,2.293-2.101,4.211-3.19,6.389
			c0.958-0.143,1.566-0.232,2.276-0.338c0.045,0.881,0.086,1.709,0.13,2.562c1.93-1.559,3.75-3.031,5.569-4.5
			c0.208,0.17,0.416,0.338,0.625,0.51c-1.22,2.002-2.334,4.084-3.688,5.992c-1.453,2.053-3.158,3.922-4.696,5.912
			c-0.489,0.633-0.799,1.4-1.444,2.559c1.901-0.412,3.195-0.693,5.006-1.09c-1.073,1.621-1.82,2.746-2.721,4.113
			c1.073-0.154,1.787-0.258,2.839-0.408c-1.367,2.398-2.574,4.521-3.782,6.639c0.114,0.109,0.232,0.217,0.347,0.326
			c1.265-0.559,2.529-1.113,3.794-1.672c0.114,0.133,0.224,0.264,0.338,0.398c-1.795,2.979-3.586,5.957-5.381,8.936
			c0.171,0.008,0.347,0.016,0.522,0.025c0.131,0.734,0.445,1.488,0.363,2.199c-0.404,3.541-0.946,7.066-1.379,10.607
			c-0.849,6.988,2.35,12.93,8.535,15.936h5.626c3.235-0.746,6.516-1.334,9.69-2.271c4.476-1.326,5.002-3.035,2.403-6.822
			c-0.065-0.098-0.126-0.195-0.2-0.289c-3.121-3.914-3.256-8.504-2.974-13.184c0.008-0.135,0.175-0.26,0.171-0.252
			c3.129,2.926,6.279,5.797,9.331,8.768c0.995,0.967,1.938,2.09,2.554,3.312c0.955,1.893,2.428,2.855,4.415,2.971
			c3.268,0.188,6.553,0.408,9.812,0.24c2.122-0.105,4.272-0.689,6.287-1.395c1.967-0.689,2.269-2.207,1.102-3.93
			c-0.293-0.436-0.673-0.816-0.95-1.26c-2.179-3.457-4.623-6.781-6.418-10.43c-1.436-2.92-1.604-6.246-0.51-9.584
			c3.493,2.82,3.493,2.824,5.247-1.268c0.069-0.16,0.114-0.336,0.192-0.49c0.571-1.176,1.142-2.346,1.885-3.867
			c0.775,1.227,1.297,2.061,2.056,3.264c0.539-2.184,0.967-3.914,1.396-5.646l0.416,0.02c0.775,1.947,1.551,3.893,2.326,5.834
			c0.171-0.012,0.347-0.023,0.522-0.037c0.522-1.688,1.04-3.381,1.624-5.266c0.51,1.102,0.922,1.994,1.334,2.889
			c0.176,0.012,0.354,0.023,0.53,0.035l5.5-11.047l0.437,0.174c0.143,0.918,0.281,1.832,0.424,2.75
			c0.213,0.094,0.425,0.193,0.633,0.287c3.354-4.199,6.712-8.402,10.27-12.861c0.146,1,0.229,1.574,0.379,2.6
			c5.888-6.443,11.221-12.717,13.971-20.861c0.351,0.889,0.645,1.742,0.44,2.451c-1.171,4.094-1.6,8.557-5.577,11.326
			c0.134,0.164,0.273,0.322,0.407,0.486c3.566-2.08,7.132-4.158,10.702-6.238c0.028,0.045,0.062,0.09,0.09,0.135
			c-1.514,1.432-3.027,2.863-4.541,4.297c0.106,0.15,0.212,0.301,0.318,0.451c1.759-0.125,3.517-0.252,5.577-0.398
			c-0.522,1.492-0.926,2.646-1.432,4.092c1.146-0.527,1.95-0.895,3.161-1.453c-3.019,5.166-7.14,9.018-9.567,13.963
			c0.131,0.166,0.266,0.338,0.396,0.506c1.529-0.408,3.06-0.816,4.59-1.225c-0.604,0.795-1.322,1.371-2.077,1.9
			c-1.154,0.812-1.546,1.715-0.453,2.869c0.972,1.023,0.727,1.975-0.15,2.93c-0.967,1.053-1.881,2.146-2.819,3.223
			c0.09,0.139,0.18,0.277,0.27,0.416c1.615-0.363,3.23-0.727,4.847-1.088c-0.686,1.275-1.616,2.215-2.542,3.16
			c-0.959,0.984-0.592,1.527,0.612,1.748c0.379,0.068,0.775,0.064,1.31,0.102v3.75c0.975-0.359,1.714-0.629,2.664-0.98
			c-0.363,1.461-0.828,2.723-0.963,4.016c-0.396,3.713-2.085,6.914-3.88,10.057c-1.42,2.484-2.396,2.623-4.803,0.996
			c-0.967-0.658-1.876-1.404-2.835-2.072c-0.449-0.314-0.955-0.557-1.779-1.025c0.151,1.15,0.114,1.938,0.363,2.619
			c1.081,2.955,2.134,5.924,3.407,8.797c1.102,2.488,3.035,4.256,5.594,5.312c3.871,1.604,7.919,2.117,12.035,1.701
			c3.986-0.404,9.144-5.133,9.564-8.764c0.379-3.277,1.774-5.875,4.251-7.98c4.777-4.057,9.53-8.141,14.32-12.176
			c1.771-1.492,3.647-2.855,5.427-4.336c0.808-0.674,1.265-0.424,1.864,0.289c1.478,1.754,1.734,1.764,3.603,0.449
			c1.114-0.783,2.212-1.596,3.317-2.391c0.131,0.098,0.262,0.199,0.388,0.297l-1.306,4.326c0.172,0.113,0.343,0.232,0.515,0.346
			l2.321-2.934c0.188,0.09,0.375,0.18,0.562,0.27c0.147,2.305,0.294,4.611,0.466,7.279c1.334-0.832,2.252-1.408,3.603-2.252
			c-0.633,2.211-1.139,3.986-1.648,5.756c0.081,0.025,0.163,0.049,0.24,0.07c0.608-0.768,1.212-1.535,1.979-2.498
			c0.277,1.629,0.493,2.885,0.71,4.137c0.191,0.014,0.379,0.025,0.571,0.037c0.738-1.301,1.424-2.635,2.228-3.893
			c1.244-1.945,2.313-2.268,3.978-0.693c2.791,2.645,5.369,5.521,7.952,8.381c1.416,1.57,1.669,3.414,0.722,5.381
			c-0.742,1.543-0.591,3.041,0.29,4.514c1.098,1.836,2.742,2.912,4.786,3.219c2.366,0.355,4.646,0.898,7.185,0
			c1.726-0.607,3.925,0.045,5.899,0.24c2.673,0.266,5.333,0.674,8.005,0.926c0.567,0.055,1.176-0.293,1.763-0.457
			c-0.195-0.525-0.33-1.088-0.604-1.574c-0.281-0.506-0.755-0.906-1.036-1.412c-0.992-1.766-2.338-3.455-2.815-5.357
			c-0.991-3.969-2.489-7.469-5.704-10.188c-1.555-1.312-1.383-2.611,0.09-4.254c0.485,0.236,0.987,0.48,1.774,0.863
			c0.567-1.84,1.069-3.553,1.628-5.246c0.155-0.465,0.457-0.889,0.719-1.314c0.24-0.391,0.722-0.75,0.742-1.146
			c0.09-1.477,0.037-2.961,0.037-4.447c0.159-0.012,0.313-0.027,0.473-0.039c0.09,0.188,0.159,0.387,0.273,0.555
			c0.127,0.184,0.29,0.338,0.449,0.521c-0.2-4.309-1.191-8.25-4.142-11.539c0.645,0.381,1.29,0.764,1.935,1.143
			c0.167-0.125,0.33-0.252,0.497-0.379c-0.575-1.15-1.023-2.387-1.746-3.436c-1.191-1.734-2.591-3.324-3.835-5.025
			c-0.481-0.658-0.787-1.445-1.273-2.359c1.294-0.117,2.188-0.195,3.75-0.338c-2.399-3.301-4.509-6.207-6.699-9.221
			c0.624,0.072,0.959,0.109,1.313,0.15c-0.783-2.219-2.9-3.402-3.134-6.025c-0.167-1.857-1.97-3.566-3.215-5.631
			c5.015-1.525,9.801-3,14.59-4.439c3.668-1.105,7.418-1.705,11.253-1.342c1.298,0.121,2.995,0.158,3.766,0.959
			c2.334,2.41,5.19,4.834,8.197,5.973c6.006,2.268,13.337,3.949,17.503,8.992c4.451,5.389,25.786,9.381,32.815,4.104
			c7.034-5.275,20.392-7.385,24.61-10.195s22.502-0.701,22.502-0.701s2.06-0.689,4.708-2.619c5.308,0.229,10.184,4.707,15.108,6.266
			c5.937,1.877,12.289,1.885,18.213-0.049C592.652,313.092,591.828,310.038,589.883,310.674z"/>
	</g>
</g>
<g>
</g>
<g>
</g>
<g>
</g>
<g>
</g>
<g>
</g>
<g>
</g>
<g>
</g>
<g>
</g>
<g>
</g>
<g>
</g>
<g>
</g>
<g>
</g>
<g>
</g>
<g>
</g>
<g>
</g>
</svg>
