<?xml version="1.0" encoding="iso-8859-1"?>
<!-- Generator: Adobe Illustrator 16.0.0, SVG Export Plug-In . SVG Version: 6.00 Build 0)  -->
<!DOCTYPE svg PUBLIC "-//W3C//DTD SVG 1.1//EN" "http://www.w3.org/Graphics/SVG/1.1/DTD/svg11.dtd">
<svg version="1.1" id="Capa_1" xmlns="http://www.w3.org/2000/svg" xmlns:xlink="http://www.w3.org/1999/xlink" x="0px" y="0px"
	 width="577.88px" height="577.88px" viewBox="0 0 577.88 577.88" style="enable-background:new 0 0 577.88 577.88;"
	 xml:space="preserve">
<g>
	<g>
		<path d="M576.401,277.969c-1.272-2.403-3.361-4.517-6.295-6.046c-7.797-4.068-15.655-8.176-23.868-11.236
			c-4.618-1.722-9.453-2.342-14.333-2.248c-3.199-0.636-6.63-0.612-10.103-0.053c-2.093,0.339-4.189,0.669-6.287,0.967
			c-0.853,0.106-1.705,0.212-2.562,0.314c-3.736,0.433-7.479,0.824-11.231,1.126c-8.038,0.645-16.096,1.053-24.158,1.102
			c-1.171,0.008-2.342-0.012-3.513-0.02c-0.273-0.069-0.551-0.139-0.824-0.208c-1.322-0.338-2.644-0.718-3.929-1.183
			c-4.64-1.681-9.486-2.978-13.836-5.23c-5.442-2.823-10.579-6.292-15.639-9.784c-3.039-2.097-5.459-5.121-8.551-7.111
			c-6.382-4.109-13.032-7.801-19.56-11.681c-4.852-2.88-9.486-6.23-14.586-8.56c-5.157-2.35-10.727-3.843-16.189-5.459
			c-9.788-2.893-19.593-5.724-29.458-8.344c-17.866-4.745-35.651-9.898-53.709-13.774c-13.803-2.966-27.944-4.451-41.992-6.153
			c-7.058-0.856-14.239-0.702-21.363-1.052c-7.222-0.355-14.472-1.379-21.657-1.028c-16.609,0.816-32.766,4.329-48.601,9.461
			c-19.637,6.361-37.928,15.631-55.974,25.447c-7.421,4.039-14.684,8.376-22.081,12.464c-2.281,1.261-4.778,2.129-7.16,3.211
			c-10.135,4.598-19.393,10.408-26.94,18.784c-1.493,1.657-3.778,2.97-5.945,3.586c-8.833,2.505-16.981,5.887-23.708,12.591
			c-3.631,3.619-8.287,6.316-12.767,8.952c-7.348,4.325-9.69,10.179-9.58,18.857c0.118,9.43,3.798,16.104,10.677,21.27
			c4.496,3.374,9.241,6.993,15.476,7.001c1.003,0,2.032,0.727,2.999,1.212c6.573,3.293,12.734,7.255,20.404,8.25
			c5.553,0.723,9.09-2.31,13.133-4.635c2.86-1.645,5.528-3.647,8.176-5.639c7.491-5.631,14.656-3.452,22.297,0.069
			c6.377,2.941,13.174,5.39,20.049,6.684c4.508,0.849,9.469-1.062,14.243-1.155c4.994-0.094,10.041,0.221,14.99,0.902
			c3.794,0.521,3.986,4.521,3.766,6.928c-0.938,10.216,2.317,19.633,7.018,27.911c3.248,5.716,9.686,10.045,15.471,13.799
			c8.156,5.287,16.875,9.792,25.659,13.994c4.562,2.183,9.458,4.316,14.986,2.982c3.949-0.955,5.308-3.113,3.753-6.834
			c-0.779-1.86-1.424-3.774-2.607-6.957c3.545,1.27,7.16,2.318,10.824,3.154c-0.175,0.049-0.351,0.09-0.53,0.139
			c3.023,0.616,6.022,1.538,9.078,1.783c7.369,0.592,14.782,1.383,22.143,1.118c7.446-0.27,9.543-4.305,6.724-11.172
			c-6.153-14.993-17.487-24.839-31.734-31.754c-2.346-1.139-4.733-2.191-7.083-3.334c-0.449-0.216-0.788-0.652-1.004-1.901
			c3.268,0.331,6.536,0.723,9.808,0.983c7.765,0.616,15.529,1.51,23.305,1.661c8.613,0.163,17.295,0.143,25.847-0.759
			c8.246-0.869,16.463-2.583,24.521-4.599c15.121-3.786,30.078-8.213,45.183-12.061c7.396-1.885,14.92-3.419,22.48-4.439
			c6.128-0.828,12.407-0.485,18.589-0.995c2.962-0.245,5.851-1.318,8.792-1.922c8.43-1.734,16.867-3.423,25.305-5.112
			c0.253-0.049,0.645,0.225,0.799,0.11c0.343-0.249,0.689-0.469,1.041-0.686c0.571-0.151,1.143-0.326,1.705-0.551
			c1.701-0.669,3.423-1.272,5.17-1.804c4.414-0.628,9.024-0.13,13.439-0.767c0.216-0.032,0.428-0.09,0.648-0.163l13.884-0.363
			c0.054,0.008,0.11,0.013,0.168,0.017c0.628,0.094,1.261,0.188,1.889,0.289c1.963,0.327,3.925,0.665,5.879,1.041
			c2.457,0.473,4.913,0.967,7.369,1.469c6.944,4.667,17.136,8.065,21.126,4.17c0.894,0.154,1.791,0.31,2.688,0.457
			c0.425,0.285,0.861,0.579,1.339,0.897c-0.005-0.241-0.009-0.461-0.013-0.686c0.429,0.069,0.861,0.139,1.293,0.204
			c-0.098,0.171-0.191,0.338-0.293,0.518c6.948,0.674,13.492,1.392,20.053,1.922c4.333,0.351,8.947,1.437,12.967,0.392
			c5.568-1.448,10.894-4.235,15.965-7.095c7.87-4.443,15.189-9.678,22.085-15.655c4.5-3.9,6.463-9.038,5.817-13.762
			C577.711,280.605,577.218,279.169,576.401,277.969z M255.204,376.021c0.225,0.27,0.441,0.53,0.669,0.804
			c-0.245-0.013-0.465-0.021-0.69-0.032C255.2,376.53,255.208,376.273,255.204,376.021z"/>
	</g>
</g>
<g>
</g>
<g>
</g>
<g>
</g>
<g>
</g>
<g>
</g>
<g>
</g>
<g>
</g>
<g>
</g>
<g>
</g>
<g>
</g>
<g>
</g>
<g>
</g>
<g>
</g>
<g>
</g>
<g>
</g>
</svg>
