<?xml version="1.0" encoding="iso-8859-1"?>
<!-- Generator: Adobe Illustrator 16.0.0, SVG Export Plug-In . SVG Version: 6.00 Build 0)  -->
<!DOCTYPE svg PUBLIC "-//W3C//DTD SVG 1.1//EN" "http://www.w3.org/Graphics/SVG/1.1/DTD/svg11.dtd">
<svg version="1.1" id="Capa_1" xmlns="http://www.w3.org/2000/svg" xmlns:xlink="http://www.w3.org/1999/xlink" x="0px" y="0px"
	 width="592.404px" height="592.404px" viewBox="0 0 592.404 592.404" style="enable-background:new 0 0 592.404 592.404;"
	 xml:space="preserve">
<g>
	<path d="M570.793,205.301c-3.721-2.583-7.605-4.921-11.339-7.487c-2.546-1.747-5.055-2.509-8.155-1.412
		c-1.053,0.371-2.645-0.172-3.778-0.727c-4.194-2.048-8.237-1.942-12.51-0.09c-8.641,3.746-16.181,9.07-23.374,15.08
		c-5.467,4.565-11.358,8.625-17.054,12.917c-5.484,4.133-11.816,5.855-18.508,6.756c-11.424,1.546-22.688-0.326-34.031-1.077
		c-11.566-0.767-23.187-0.816-34.786-0.938c-7.861-0.082-15.732,0.11-23.586,0.461c-5.798,0.257-11.616,0.681-17.349,1.546
		c-10.632,1.603-21.228,3.452-31.795,5.435c-14.904,2.794-29.091,7.984-43.305,13.129c-22.554,8.16-45.488,14.39-69.373,18.029
		c-27.939,4.255-55.015,1.098-82.22-4.214c-15.174-2.962-30.27-6.524-45.565-8.581c-24.513-3.301-48.956-2.762-72.902,4.664
		c-6.601,2.048-13.374,3.545-20.085,5.247c-0.657,0.167-1.134,0.591-1.073,0.946s0.653,0.58,1.322,0.51
		c2.836-0.286,5.712-0.417,8.454-1.094c16.785-4.129,33.86-5.981,51.041-4.924c10.555,0.648,21.049,2.876,31.473,4.9
		c8.886,1.73,17.597,4.341,26.447,6.287c20.992,4.619,41.869,10.025,63.073,13.293c17.156,2.644,34.708,3.121,52.109,3.631
		c11.334,0.33,22.718-1.184,34.084-1.539c14.545-0.457,28.018,3.211,40.024,11.613c1.869,1.305,3.529,2.912,5.063,4.303
		c0.502,0.453,0.551,1.225,0.103,1.73c-1.682,1.893-3.179,3.594-4.7,5.271c-3.24,3.574-6.365,7.271-9.801,10.645
		c-2.643,2.6-5.487,5.109-8.6,7.088c-12.526,7.955-20.641,19.441-26.822,32.578c-1.938,4.117-6.01,8.363-5.577,12.154
		c0.473,4.15,0.824,8.662,2.003,12.865c0.918,3.26,1.807,6.531,2.705,9.799c0.179,0.652,0.596,1.164,0.93,1.143
		c0.334-0.02,0.632-0.588,0.665-1.26c0.13-2.701,0.261-5.402,0.392-8.104c0.033-0.674,0.245-1.363,0.477-1.543
		c0.233-0.18,0.621,0.188,0.918,0.797c3.244,6.662,9.062,8.367,15.884,8.445c0.677,0.008,1.273-0.295,1.306-0.652
		c0.024-0.258,0.016-0.506-0.114-0.629c-1.856-1.713-5.565-3.518-5.41-4.93c0.008-0.057,0-0.102-0.004-0.146
		c-0.013-0.082,0.526-0.027,1.183,0.139c1.709,0.434,3.419,1.016,3.999,1.705c1.175,1.412,3.186-3.031-9.086-8.527
		c-0.616-0.277-1.15-1.035-1.265-1.701c-0.531-3.035-2.171-6.152-1.587-8.873c1.032-4.811,3.321-9.535,5.94-13.762
		c2.521-4.068,5.671-8.043,9.393-10.992c4.104-3.252,9.033-5.598,13.855-7.789c8.271-3.758,16.862-6.367,25.957-7.764
		c4.88-0.75,9.637-3.619,11.665-8.887c1.493-3.875,4.206-5.441,8.185-5.947c2.958-0.377,5.838-1.482,8.715-2.393
		c2.044-0.648,3.112-0.297,4.227,1.854c1.754,3.387,3.893,6.695,6.442,9.518c4.382,4.848,7.679,10.201,9.91,16.32
		c3.644,9.988,7.576,19.76,14.088,28.455c2.763,3.688,4.035,8.49,5.451,12.182c0.241,0.633,0.906,1.445,1.473,1.812
		c1.306,0.844,2.244,1.371,2.958,2.117c4.027,4.215,7.969,8.506,12.367,13.248c0.461,0.494,0.982,0.371,1.057-0.303
		c0.473-4.279-2.905-6.65-3.975-9.857c-0.212-0.641,0.245-1.012,0.878-0.771c2.276,0.861,4.406,1.838,6.626,2.131
		c1.313,0.176,2.66,0.102,3.974-0.033c0.673-0.068,1.297-0.004,1.461,0.086c0.089,0.049,0.195,0.078,0.317,0.082
		c2.815,0.078,5.627,0.154,8.442,0.229c0.575,0.016,0.877-0.625,0.628-1.094c-1.518-2.893-4.101-4.908-7.164-5.744
		c-0.653-0.18-1.388-0.494-1.682-0.711c-0.195-0.146-0.392-0.248-0.587-0.293c-2.628-0.596-5.292-1.023-7.961-1.445
		c-0.669-0.105-0.685-0.35-0.032-0.529c1.934-0.523,3.929-0.865,5.247-0.562c2.881,0.664-2.905-4.994-11.828-4.496
		c-0.673,0.035-1.437-0.152-1.705-0.463c-0.27-0.309-0.738-1.057-1.126-1.611c-0.682-0.975-1.538-1.84-2.534-2.521
		c-0.559-0.383-1.362-1.076-1.742-1.635c-0.771-1.131-1.534-2.262-2.272-3.412c-5.247-8.111-8.36-17.1-11.012-26.324
		c-2.986-10.395-5.532-20.828-5.129-31.742c0.037-1.008,0.466-2.492,1.191-2.9c4.084-2.297,8.36-4.256,12.489-6.479
		c5.802-3.13,12.061-4.011,18.523-4.113c6.042-0.098,12.101-0.02,18.11-0.506c3.068-0.249,6.039-1.624,9.082-2.366
		c1.163-0.286,2.367-0.424,3.55-0.575c0.669-0.086,1.273,0.379,1.383,1.044c1.673,10.147,9.486,15.778,15.093,22.86
		c2.582,3.264,5.018,6.691,7.111,10.281c0.628,1.074,0.542,2.562,0.849,4.02c0.139,0.66,0.562,0.66,0.815,0.037
		c0.163-0.4,0.331-0.824,0.519-1.281c0.253-0.629,0.665-0.629,0.922-0.004c0.816,1.982,1.551,3.777,2.272,5.535
		c0.257,0.625,0.686,1.07,0.963,0.992s0.396-0.678,0.273-1.338c-0.465-2.473-0.926-4.949-1.392-7.422
		c-0.122-0.666-0.004-1.314,0.27-1.443c0.273-0.131,0.768,0.236,1.098,0.822c1.24,2.18,2.518,4.428,4.097,7.201
		c0.334,0.588,0.641,0.52,0.604-0.154c-0.2-3.916-2.265-6.539-4.019-9.674c-0.331-0.592-0.094-0.812,0.497-0.48
		c1.534,0.852,2.849,1.582,4.117,2.285c0.592,0.326,1.154,0.506,1.261,0.395c0.106-0.109-0.163-0.615-0.559-1.162
		c-0.894-1.232-1.734-2.562-2.942-3.219c-9.551-5.207-12.954-15.26-18.805-23.371c-0.367-0.51-0.673-1.607-0.399-1.954
		c1.742-2.215,3.61-4.329,5.744-6.797c0.441-0.51,1.049-0.441,1.351,0.163c1.791,3.59,3.146,6.72,5.007,9.506
		c1.22,1.832,3.182,3.742,5.197,4.365c7.01,2.172,14.207,3.73,21.285,5.691c1.167,0.322,2.224,1.389,3.102,2.326
		c1.02,1.098,1.913,2.318,2.819,3.521c0.407,0.539,0.934,0.865,1.171,0.73c0.236-0.135,0.163-0.719-0.163-1.311
		c-0.604-1.094-1.212-2.182-1.816-3.275c-0.326-0.592-0.485-1.266-0.351-1.506s0.727-0.188,1.326,0.127
		c2.26,1.174,4.521,2.35,6.776,3.525c0.601,0.309,1.196,0.455,1.335,0.33c0.139-0.127-0.155-0.6-0.657-1.053
		c-1.836-1.652-3.726-3.354-6.006-5.402c-0.502-0.453-0.388-0.656,0.257-0.457c3.13,0.971,5.753,1.783,8.303,2.574
		c0.645,0.201,1.285,0.127,1.429-0.162c0.143-0.291-0.241-0.756-0.857-1.041c-2.97-1.371-5.973-2.758-9.273-4.283
		c-0.612-0.283-0.592-0.682,0.049-0.887c1.42-0.453,2.713-0.865,3.978-1.268c0.646-0.205,1.135-0.621,1.09-0.932
		c-0.045-0.309-0.62-0.502-1.298-0.453c-0.905,0.066-1.812,0.127-2.668,0.367c-4.513,1.266-8.735,0.543-12.986-1.24
		c-3.439-1.444-7.038-2.533-10.616-3.61c-2.036-0.612-3.175-1.648-2.934-3.868c0.024-0.236-0.037-0.481-0.045-0.726
		c-0.11-4.982-1.105-10.159-0.073-14.896c1.016-4.676,3.998-8.952,6.295-13.309c0.641-1.22,1.722-2.701,2.909-3.06
		c15.524-4.725,26.104-16.25,37.267-26.932c4.97-4.757,10.882-6.226,17.446-6.1c0.444,0.008,1.016,0.204,1.31,0.518
		c1.767,1.885,3.651,2.399,5.655,2.22c0.673-0.062,1.261,0.155,1.505,0.481c0.135,0.18,0.314,0.347,0.551,0.485
		c9.425,5.626,18.854,11.253,28.283,16.875c0.199,0.118,0.392,0.192,0.583,0.232c0.339,0.069,0.698,0.024,0.787,0.049
		c0.09,0.025,0.188-0.008,0.213-0.073s0.583-0.375,0.894-0.975c0.045-0.085,0.081-0.171,0.109-0.261
		c0.225-0.636,0.065-1.367,0.095-1.579c0.016-0.131,0.028-0.261,0.024-0.392c0-0.069-0.013-0.139-0.024-0.212
		c-0.021-0.114,0.02-0.302,0.089-0.408c0.037-0.057,0.074-0.118,0.11-0.2c1.518-3.436-1.501-5.035-1.012-4.129
		c0.082,0.155,0.062,0.371-0.032,0.632c-0.118,0.339-0.322,0.535-0.367,0.461c-0.024-0.041-0.058-0.082-0.103-0.114
		c-0.15-0.106-0.302-0.208-0.452-0.31c-0.249-0.167-0.522-0.873-0.878-1.448c-0.51-0.82-1.211-1.044-0.954-0.567
		c0.036,0.065,0.049,0.147,0.049,0.237c-0.004,0.135-0.371-0.041-0.812-0.359c-0.44-0.318-0.934-1.061-1.321-1.539
		c-0.425-0.522-0.865-0.624-0.674-0.22c0.033,0.069,0.045,0.155,0.037,0.249c-0.013,0.139-0.314,0.102-0.637-0.078
		c-0.326-0.175-0.71-0.865-1.122-1.403c-0.481-0.628-1.02-0.771-0.787-0.343c0.058,0.11,0.058,0.253,0.021,0.42
		c-0.053,0.232-0.253,0.363-0.388,0.302s-0.11-0.649-0.18-1.318c-0.195-1.832-1.767-2.558-1.399-1.881
		c0.127,0.237,0.013,0.624-0.225,1.069c-0.293,0.551-0.669,0.918-0.742,0.881s0.065-0.592,0.073-1.269
		c0.033-2.015-1.632-2.925-1.289-2.203c0.053,0.114,0.045,0.265-0.004,0.437c-0.069,0.237-0.135-0.159-0.363-0.795
		c-0.453-1.265-1.521-1.706-1.212-1.13c0.2,0.367-0.188,1.11-0.714,1.861c-0.388,0.555-0.812,0.938-0.89,0.897
		c-0.077-0.041,0.094-0.571,0.196-1.24c0.399-2.55-1.808-3.656-1.379-2.868c0.167,0.31-0.078,0.885-0.478,1.505
		c-0.363,0.571-0.755,0.702-0.861,0.351c-0.102-0.351-0.069-1.163-0.118-1.836c-0.131-1.803-1.632-2.586-1.306-1.897
		c0.065,0.139,0.049,0.322-0.021,0.534c-0.098,0.286-0.604,0.09-1.077-0.392c-0.567-0.579-1.143-1.15-1.628-1.767
		c-0.42-0.53-0.175-0.816,0.457-0.571c1.632,0.628,3.264,1.257,4.892,1.889c0.633,0.245,1.037,0.628,0.849,0.816
		c-0.134,0.139-0.272,0.225-0.407,0.233c-0.616,0.033,0.191,0.657,1.395,0.489c0.67-0.089,1.457-0.269,1.832-0.122
		c0.376,0.147,0.539,0.53,0.294,0.812c-0.188,0.216-0.375,0.347-0.555,0.347c-0.714,0,0.437,0.894,1.971,0.453
		c0.648-0.188,1.265-0.465,1.481-0.383c0.216,0.082,0.195,0.591-0.139,1.081c-0.27,0.392-0.543,0.657-0.8,0.657
		c-0.653,0,0.244,0.73,1.574,0.526c0.669-0.102,1.045-0.236,0.873-0.061c-0.126,0.126-0.257,0.204-0.383,0.212
		c-0.796,0.041,0.771,1.061,2.513,0.106c0.592-0.322,1.028-0.718,1.105-0.686c0.078,0.033-0.057,0.526-0.403,1.053
		c-0.281,0.424-0.571,0.714-0.841,0.714c-0.853,0.004,0.947,1.261,2.889,0.016c0.571-0.363,1.012-0.759,1.122-0.718
		c0.11,0.041,0.032,0.412-0.249,0.771c-0.22,0.282-0.444,0.461-0.652,0.461c-0.768,0.004,0.607,1.028,2.305,0.343
		c0.629-0.253,1.139-0.596,1.265-0.547c0.127,0.049,0.062,0.522-0.24,1.004c-0.241,0.388-0.494,0.648-0.743,0.661
		c-0.771,0.041,0.678,1.008,2.354,0.204c0.608-0.293,1.204-0.591,1.457-0.457c0.253,0.134,0.269,0.673-0.058,1.146
		c-0.266,0.379-0.534,0.636-0.783,0.636c-0.787,0.004,0.686,1.077,2.448,0.265c0.611-0.281,1.134-0.612,1.285-0.534
		c0.15,0.077,0.065,0.652-0.29,1.228c-0.306,0.498-0.628,0.849-0.926,0.849c-0.845,0.004,0.909,1.232,2.831,0.049
		c0.575-0.355,1.105-0.698,1.313-0.587c0.209,0.11,0.657-0.278,0.914-0.902c2.399-5.822-1.293-13.66-5.875-17.409
		C581.005,212.225,575.853,208.814,570.793,205.301z"/>
</g>
<g>
</g>
<g>
</g>
<g>
</g>
<g>
</g>
<g>
</g>
<g>
</g>
<g>
</g>
<g>
</g>
<g>
</g>
<g>
</g>
<g>
</g>
<g>
</g>
<g>
</g>
<g>
</g>
<g>
</g>
</svg>
