<?xml version="1.0" encoding="iso-8859-1"?>
<!-- Generator: Adobe Illustrator 16.0.0, SVG Export Plug-In . SVG Version: 6.00 Build 0)  -->
<!DOCTYPE svg PUBLIC "-//W3C//DTD SVG 1.1//EN" "http://www.w3.org/Graphics/SVG/1.1/DTD/svg11.dtd">
<svg version="1.1" id="Capa_1" xmlns="http://www.w3.org/2000/svg" xmlns:xlink="http://www.w3.org/1999/xlink" x="0px" y="0px"
	 width="582.471px" height="582.471px" viewBox="0 0 582.471 582.471" style="enable-background:new 0 0 582.471 582.471;"
	 xml:space="preserve">
<g>
	<path d="M549.974,282.879c-7.218,1.02-14.398,2.325-21.575,3.614c-3.603,0.645-7.145,1.604-10.747,2.269
		c-4.255,0.783-8.556,1.326-12.807,2.113c-4.138,0.768-8.233,1.727-12.358,2.57c-2.396,0.49-4.949,0.56-7.173,1.457
		c-3.35,1.354-6.675,0.747-10.045,0.779c-2.958,0.028-5.953,0.191-8.861,0.689c-3.697,0.633-7.594-1.229-11.127,0.979
		c-0.057,0.036-0.208-0.024-0.285-0.082c-2.212-1.583-4.39-0.935-6.654-0.057c-0.768,0.298-1.767,0.045-2.656-0.024
		c-0.461-0.037-0.922-0.078-1.379-0.123c-0.674-0.065-1.354-0.15-1.522-0.18c-0.098-0.016-0.199-0.024-0.306-0.028
		c-0.236-0.012-0.469-0.024-0.706-0.036c-0.416-0.041-0.832-0.082-1.252-0.119c-0.865-0.073-1.746-0.016-2.604-0.134
		c-1.518-0.204-3.015-0.567-4.532-0.734c-1.29-0.144-2.938,0.383-3.836-0.241c-2.146-1.493-4.194-0.815-6.405-0.697
		c-1.819,0.098-3.908-0.106-5.459-0.951c-2.199-1.199-4.108-2.228-6.748-1.424c-2.073,0.633-4.19,0.648-5.451-1.909
		c-0.343-0.698-1.641-1.122-2.574-1.306c-2.934-0.579-6.508,0.583-8.193-3.231c-0.069-0.155-0.791,0.053-1.166-0.053
		c-3.623-1.012-7.74-0.869-9.968-4.941c-0.673-1.231-1.094-0.384-3.958-0.412c-2.611-0.028-5.94-0.914-7.604-2.688
		c-1.645-1.754-2.954-2.982-5.312-3.252c-1.808-0.208-3.66-0.506-5.337-1.167c-1.44-0.566-3.374-1.428-3.839-2.636
		c-1.396-3.627-4.554-3.737-7.438-4.639c-1.55-0.485-3.855-0.832-4.373-1.926c-1.339-2.815-3.415-4.031-6.65-4.37
		c-0.674-0.069-1.371-0.616-1.693-1.211c-1.934-3.57-5.81-1.143-6.589-2.457c-1.869-3.146-5.072-4.28-7.683-3.839
		c-3.958,0.665-6.084-1.583-8.576-3.386c-1.853-1.338-3.477-2.599-5.966-2.464c-0.942,0.053-2.138-0.775-2.876-1.53
		c-1.819-1.869-3.733-2.95-6.483-2.383c-1.077,0.22-2.99,0.11-3.354-0.522c-2.244-3.925-5.805-3.207-9.293-3.186
		c-1.139,0.008-2.934-0.266-3.309-0.992c-1.91-3.705-5.067-3.052-8.213-2.897c-0.951,0.045-2.591-0.057-2.774-0.53
		c-0.983-2.546-2.668-3.125-4.529-3.231c-0.673-0.037-1.424-0.057-1.677-0.09c-0.151-0.02-0.302-0.037-0.457-0.044
		c-1.094-0.069-2.22-0.159-3.37-0.261c-0.673-0.062-1.461-0.608-1.901-1.122c-1.64-1.917-3.839-1.367-6.051-1.265
		c-1.195,0.053-2.693-0.11-3.578-0.792c-2.22-1.706-4.521-1.938-7.168-1.612c-1.269,0.159-3.101,0.004-3.864-0.788
		c-2.126-2.219-4.639-2.174-7.087-1.595c-2.836,0.669-5.471,1.665-7.63-1.297c-0.204-0.277-0.942-0.192-1.436-0.224
		c-3.758-0.241-7.813,2.811-11.297-1.114c-0.363-0.408-1.787-0.065-2.64,0.196c-1.351,0.412-2.611,1.126-3.958,1.559
		c-0.697,0.225-1.86,0.449-2.199,0.094c-2.672-2.819-4.97-0.583-7.43,0.306c-1.139,0.412-2.693,0.967-3.583,0.518
		c-2.839-1.436-5.198-0.995-7.691,0.714c-0.261,0.179-0.571,0.367-0.897,0.539c-0.51,0.269-1.155,0.473-1.408,0.539
		c-0.253,0.065-0.628,0.143-0.832,0.122c-0.131-0.012-0.253-0.041-0.359-0.094c-2.746-1.285-4.888-0.355-7.172,0.955
		c-0.82,0.469-1.856,0.616-2.815,0.775c-2.097,0.343-4.214,0.592-6.32,0.894c-1.412,0.204-2.832,0.698-4.219,0.604
		c-2.036-0.135-3.876,0.102-5.724,1.216c-0.58,0.351-1.55,0.718-2.228,0.75c-0.938,0.045-1.877,0.086-2.819,0.131
		c-0.677,0.032-1.702-0.151-2.305-0.372c-0.363-0.13-0.73-0.253-1.102-0.359c-0.857-0.245-1.934-0.494-2.734,0.078
		c-0.551,0.392-1.277,0.991-1.954,1.024c-0.857,0.041-1.714,0.078-2.57,0.118c-0.677,0.033-1.722-0.184-2.383-0.326
		c-1.404-0.298-2.803-0.041-4.357,0.302c-3.921,0.857-8.074-1.093-12.081,0.416c-0.143,0.053-0.408-0.082-0.563-0.2
		c-2.215-1.709-4.525-1.493-6.793-0.727c-0.641,0.216-1.501,0.008-2.02-0.428c-1.921-1.62-4.104-1.746-6.116-0.249
		c-0.542,0.404-1,0.27-1.204-0.375c-0.959-3.003-3.28-3.676-6.438-3.125c-0.657,0.114-1.477-0.845-2.256-1.236
		c-1.367-0.681-2.742-1.351-4.149-1.938c-0.616-0.261-1.424-0.151-1.962-0.494c-2.713-1.738-5.312-3.651-8.062-5.32
		c-0.979-0.596-2.322-0.563-3.411-1.02c-3.207-1.342-6.353-2.844-9.563-4.178c-2.428-1.008-4.937-1.832-7.385-2.795
		c-1.265-0.498-2.432-1.273-3.721-1.656c-3.402-1.008-6.854-1.869-10.281-2.799c-0.188-0.053-0.334-0.245-0.522-0.314
		c-1.53-0.571-3.064-1.13-4.598-1.685c-1.412-0.51-2.832-0.987-4.235-1.518c-0.833-0.314-1.607-0.841-2.46-1.016
		c-3.398-0.71-7.009-0.84-10.192-2.081c-5.777-2.252-11.093-1.041-16.634,0.673c-2.881,0.89-4.778,2.656-6.075,5.055
		c-0.873,1.62-2.216,2.767-1.665,5.549c0.706,3.558,0.29,4.411,4.072,4.717c7.491,0.604,15.051,0.938,22.432,2.244
		c16.255,2.876,30.653,10.249,44.452,19.111c14.492,9.302,30.73,14.194,47.446,17.805c8.511,1.836,17.014,3.9,25.288,6.585
		c3.399,1.102,6.479,3.17,9.429,5.002c0.575,0.355,1.146,1.184,1.301,1.84c0.596,2.521,1.469,4.913,2.62,7.148
		c0.31,0.6,0.596,1.146,0.624,1.24c0.017,0.054,0.033,0.11,0.053,0.168c1.379,4.051,3.872,7.172,6.862,9.8
		c0.506,0.444,1.245,1.244,1.657,1.778c0.224,0.29,0.453,0.571,0.689,0.845c0.44,0.515,0.918,1.453,1.073,2.109
		c0.522,2.22,1.362,4.219,2.647,5.219c0.535,0.416,1.302,1.061,1.583,1.673c0.387,0.845,0.787,1.685,1.216,2.509
		c1.179,2.261,1.216,4.357-0.392,6.431c-1.579,2.027-2.97,4.219-4.704,6.1c-0.894,0.967-2.644,2.243-3.509,1.941
		c-2.681-0.938-5.708-1.827-6.577-5.059c-0.176-0.653-0.375-0.682-0.543-0.029c-0.293,1.135-0.498,2.24-0.571,3.351
		c-0.045,0.66,0.159,1.578,0.608,1.994c1.191,1.098,2.509,2.064,4.219,3.379c0.535,0.412,0.445,0.897-0.208,1.064
		c-1.371,0.352-2.333,0.555-3.203,0.955c-0.833,0.384-1.587,0.938-2.53,1.6c-0.555,0.388-0.465,0.636,0.208,0.566
		c1.498-0.154,2.774-0.285,3.99-0.412c0.673-0.069,1.236,0.029,1.257,0.217s-0.388,0.689-0.914,1.118
		c-0.579,0.469-1.159,0.942-1.734,1.411c-0.526,0.429-0.396,0.779,0.261,0.637c0.816-0.18,1.546-0.51,2.285-0.812
		c1.285-0.525,2.615-1.452,3.893-1.399c2.342,0.099,4.096-0.399,5.679-2.223c0.6-0.69,1.51-1.11,2.411-1.534
		c0.612-0.29,1.195-0.4,1.326-0.213c0.13,0.188-0.065,0.804-0.429,1.375c-0.453,0.714-0.906,1.424-1.358,2.139
		c-0.363,0.57-0.567,1.158-0.461,1.313s0.71,0.081,1.342-0.159c0.836-0.318,1.681-0.645,2.554-0.979c0.632-0.24,1,0.094,0.828,0.747
		c-0.033,0.126-0.069,0.253-0.102,0.388c-0.175,0.652,0.212,1.02,0.861,0.84c2.175-0.611,4.186-1.061,5.973-1.962
		c1.685-0.849,2.856-2.664,4.48-3.701c3.251-2.072,6.679-3.867,10-5.838c3.876-2.302,8.405-3.705,10.865-8.01
		c0.351-0.611,1.501-1.126,2.256-1.089c7.275,0.318,14.035-1.93,20.82-4.047c0.906-0.282,1.718-0.951,2.505-1.526
		c0.179-0.131,0.351-0.27,0.526-0.408c0.286-0.232,0.176,0.009-0.216,0.563c-2.876,4.092-6.247,11.261-4.251,20.905
		c3.235,15.618,0.856,15.28,0.518,21.062c-0.339,5.781-1.028,12.411-1.11,14.961c-0.021,0.612,0.078,1.845,0.073,3.354
		c0,0.677-0.245,1.726-0.53,2.337c-0.771,1.648-1.644,3.24-2.652,4.721c-0.379,0.56-1.004,0.682-1.367,0.298
		c-0.363-0.383-1.134-0.42-1.673-0.016c-1.379,1.04-2.436,2.391-3.162,4.002c-0.277,0.616-0.996,1.146-1.673,1.167
		c-10.518,0.29-10.587,2.562-12.554,4.365c-1.114,1.021,2.191,0.343,5.553,0c0.673-0.069,0.75,0.176,0.171,0.522l-3.708,2.22
		c-0.608,0.363-0.526,1.143-0.094,1.514c0.269,0.188,0.518,0.249,0.804,0.167c0.114-0.032,0.224-0.065,0.338-0.094
		c0.188-0.053,0.886-0.126,1.563-0.163c0.465-0.024,0.934-0.053,1.408-0.077c0.673-0.037,1,0.44,0.808,1.085
		c-0.885,2.982-0.212,5.349,0.661,3.546c0.645-1.33,2.68-2.819,4.541-3.966c0.575-0.355,1.587-0.53,2.26-0.453
		c4.271,0.506,8.348-0.2,11.387-2.93c5.137-4.622,9.062-10.637,13.223-16.263c0.873-1.179,0.604-3.276,0.682-4.961
		c0.102-2.22-0.478-4.599,0.126-6.646c1.293-4.382,2.905-8.715,4.851-12.844c3.492-7.405,5.749-14.986,5.202-23.272
		c-0.061-0.942,0.539-2.183,1.236-2.881c2.362-2.366,4.99-4.472,7.348-6.846c1.297-1.302,2.358-1.796,4.243-1.073
		c2.428,0.926,5.055,1.313,7.585,1.986c0.534,0.144,1.216,0.408,1.465,0.829c1.648,2.807,3.733,5.504,4.675,8.547
		c0.253,0.82,0.531,1.616,0.824,2.396c0.241,0.632,0.375,1.624,0.583,2.158c0.114,0.294,0.298,0.583,0.567,0.856
		c0.045,0.049,0.094,0.094,0.143,0.139c0.078,0.078,0.379,0.633,0.702,1.229c3.566,6.65,8.984,11.562,16.376,14.863
		c4.941,2.203,8.977,5.333,9.878,11.289c0.768,5.047,3.88,9.702,2.072,15.206c-0.681,2.073-2.586,4.154-4.77,4.207
		c-0.64,0.017-1.415,0.159-2.052,0.437c-0.62,0.27-1.518,0.836-2.15,1.081c-4.614,1.791-6.532,5.879-4.271,4.631
		c0.444-0.245,1.061-0.424,1.763-0.555c0.665-0.123,1.138-0.033,1.053,0.139c-0.086,0.171-0.6,0.384-1.105,0.583
		c-0.286,0.11-0.576,0.257-0.882,0.449c-3.827,2.407-2.934,6.1-1.656,4.541c0.473-0.575,1.693-1.199,3.048-1.763
		c0.624-0.257,1.497-0.38,1.93-0.257c0.261,0.073,0.518,0.163,0.763,0.265c0.192,0.082,0.384,0.144,0.571,0.2
		c0.322,0.098,0.388,0.689,0.225,1.347c-0.686,2.754-0.028,4.794,0.8,3.08c0.444-0.922,1.562-1.913,2.827-2.819
		c0.551-0.396,1.559-0.677,2.231-0.714c4.089-0.221,8.018-1.84,11.963-2.975c2.587-0.742,5.553-8.563,5.251-11.354
		c-0.38-3.517-0.897-7.115-0.526-10.592c0.645-6.046-1.008-10.645-6.014-14.341c-3.722-2.75-6.65-6.467-7.438-11.22
		c-0.979-5.925-4.397-10.396-8.649-14.031c-2.917-2.493-2.452-5.002-1.917-7.883c0.184-0.991,0.754-1.913,0.901-2.905
		c0.314-2.089,1.525-2.428,3.272-1.901c2.231,0.678,4.431,1.461,6.679,2.064c4.916,1.322,9.865,2.53,14.786,3.844
		c7.278,1.946,14.487,4.166,21.823,5.851c6.822,1.566,13.763,2.64,20.67,3.823c10.522,1.808,21.008,4.186,31.611,5.06
		c3.786,0.313,7.617,0.183,11.457-0.119c0.673-0.053,1.754,0.013,2.424,0.127c9.429,1.611,19.416-0.551,28.743-3.391
		c0.645-0.196,1.709-0.444,2.379-0.547c0.787-0.122,1.579-0.249,2.366-0.379c0.354-0.062,0.714-0.119,1.069-0.18
		c0.591-0.103,1.285-0.151,1.55-0.155c0.155,0,0.314-0.013,0.481-0.037c5.394-0.812,10.73-1.872,16.01-3.166
		c0.657-0.159,1.73-0.363,2.399-0.452c14.182-1.914,28.107-5.554,41.44-10.914c0.285-0.114,0.502-0.286,0.665-0.486
		c0.285-0.358,0.485-0.828,0.682-0.922c0.195-0.094,0.542-0.236,0.774-0.314c0.233-0.077,0.91-0.399,1.515-0.705
		c3.402-1.734,6.887-3.26,10.424-4.647c1.502-0.474,3.023-0.886,4.578-1.212c0.379-0.081,0.706-0.208,0.983-0.375
		c0.501-0.306,1.285-0.901,1.93-1.118c8.617-2.86,17.486-4.945,26.528-6.23c0.094-0.012,0.175-0.032,0.257-0.061
		c0.139-0.045,0.787-0.163,1.452-0.29c1.926-0.371,3.79-1.036,5.667-1.126c3.46-0.167,6.916-0.494,10.372-0.775
		c0.673-0.053,1.224-0.33,1.224-0.616c0-0.285-0.543-0.534-1.22-0.555c-4.595-0.146-9.196-0.465-13.771-0.245
		C561.622,281.402,555.775,282.059,549.974,282.879z M192.692,302.634c-2.02,1.771-3.855,3.733-5.516,5.888
		c-0.412,0.534-0.722,0.429-0.71-0.249c0.069-3.048,0.232-6.275,0.408-9.612c0.037-0.674,0.563-0.991,1.175-0.706
		c1.562,0.73,3.162,1.478,4.81,2.244c0.612,0.285,1.032,0.771,0.935,1.085C193.7,301.59,193.202,302.186,192.692,302.634z"/>
</g>
<g>
</g>
<g>
</g>
<g>
</g>
<g>
</g>
<g>
</g>
<g>
</g>
<g>
</g>
<g>
</g>
<g>
</g>
<g>
</g>
<g>
</g>
<g>
</g>
<g>
</g>
<g>
</g>
<g>
</g>
</svg>
