<?xml version="1.0" encoding="iso-8859-1"?>
<!-- Generator: Adobe Illustrator 16.0.0, SVG Export Plug-In . SVG Version: 6.00 Build 0)  -->
<!DOCTYPE svg PUBLIC "-//W3C//DTD SVG 1.1//EN" "http://www.w3.org/Graphics/SVG/1.1/DTD/svg11.dtd">
<svg version="1.1" id="Capa_1" xmlns="http://www.w3.org/2000/svg" xmlns:xlink="http://www.w3.org/1999/xlink" x="0px" y="0px"
	 width="574px" height="574px" viewBox="0 0 574 574" style="enable-background:new 0 0 574 574;" xml:space="preserve">
<g>
	<g>
		<path d="M390.964,217.833c8.062,0,24.068-0.302,26.981-1.448c8.18-3.227,15.643-8.025,22.864-12.664
			c2.28-1.465,4.557-2.93,6.858-4.345c18.241-11.232,38.181-19.547,59.262-24.705c2.289-0.559,6.899-0.987,12.244-1.485
			c17.834-1.657,32.991-3.505,37.838-9.4c1.216-1.477,1.742-3.138,1.559-4.929c-0.098-0.979-0.886-1.75-1.868-1.828
			c-9.932-0.792-21.069,1.069-31.686,2.852c-2.538,0.424-5.019,0.845-7.422,1.208c-23.774,3.627-42.252,9.082-58.148,17.168
			c-4.438,2.26-8.809,4.794-13.031,7.25c-7.76,4.504-15.785,9.168-24.301,12.085c-4.569,1.567-8.943,2.326-13.378,2.33
			c-8.854,0-16.732-3.088-25.071-6.356c-5.875-2.301-11.95-4.684-18.471-6.042c-0.208-0.175-0.607-0.91-0.849-1.346
			c-0.208-0.38-0.416-0.751-0.62-1.073c-8.743-13.737-10.905-21.967-1.656-37.41c15.949-26.61,37.883-50.519,63.432-69.14
			c13.325-9.71,27.609-18.013,42.457-24.671c0.326-0.147,32.709-15.455,32.138-23.199c-0.073-0.967-0.607-2.713-3.395-3.497
			c-0.832-0.232-1.729-0.351-2.668-0.351c-7.997,0-18.438,8.49-27.65,15.977c-3.758,3.056-7.312,5.944-9.784,7.417
			c-14.68,8.751-30.261,16.03-46.312,21.632c-12.828,4.476-24.239,12.941-35.921,26.642c-1.709,2.003-3.953,5.484-6.548,9.515
			c-5.61,8.699-14.99,23.252-21.024,23.252l0,0c-3.443-0.229-6.557-2.489-9.976-5.198c-1.085-0.857-2.265-1.718-3.468-2.595
			c-3.052-2.223-6.193-4.512-8.152-7.091c3.362-1.652,7.683-1.848,12.224-2.056c4.108-0.188,8.356-0.384,12.22-1.759
			c3.293-1.346,19.756-10.979,20.714-19.131c0.192-1.652-0.13-4.019-2.778-5.916c-1.053-0.759-2.383-1.139-3.957-1.139
			c-3.986,0-9.241,2.464-14.325,4.847c-3.953,1.853-8.046,3.77-10.588,3.798c-9.241,0-17.756-4.271-22.215-11.154
			c-3.003-4.639-3.971-10.788-2.514-16.047c0.38-1.371,1.832-3.341,3.235-5.251c2.464-3.341,5.01-6.797,4.468-10.139
			c-0.804-4.965-4.758-6.145-7.936-7.091c-3.374-1.007-6.043-1.799-6.858-6.075c-1.841-9.646,5.598-14.721,13.472-20.098
			c6.671-4.553,13.566-9.262,14.068-17.005c0.04-0.633-0.217-1.253-0.694-1.669c-0.481-0.42-1.13-0.587-1.746-0.465
			c-6.1,1.24-12.518,7.046-19.307,13.19c-7.597,6.879-15.614,13.982-21.15,12.562c-1.844-1.555-4.488-1.865-6.809-0.779l-0.518,0.24
			c-0.167,0.037-0.334,0.094-0.49,0.176c-5.634,2.856-14.202-4.725-22.383-12.146c-6.801-6.173-13.219-12.003-19.323-13.243
			c-0.62-0.119-1.269,0.044-1.746,0.465c-0.481,0.416-0.735,1.032-0.694,1.669c0.502,7.748,7.397,12.456,14.068,17.005
			c7.875,5.377,15.312,10.453,13.472,20.098c-0.816,4.271-3.484,5.067-6.858,6.075c-3.178,0.947-7.132,2.126-7.936,7.091
			c-0.543,3.346,2.003,6.801,4.463,10.139c1.403,1.905,2.856,3.876,3.235,5.251c1.457,5.263,0.498,11.408-2.509,16.047
			c-4.459,6.879-12.97,11.154-22.587,11.154c-0.004,0-0.004,0-0.004,0c-2.167-0.028-6.254-1.946-10.208-3.798
			c-5.084-2.383-10.339-4.847-14.325-4.847c-1.571,0-2.901,0.384-3.958,1.139c-2.648,1.897-2.974,4.264-2.778,5.916
			c0.959,8.156,17.426,17.789,20.804,19.168c3.774,1.342,8.021,1.534,12.13,1.722c4.537,0.208,8.862,0.404,12.224,2.056
			c-1.962,2.579-5.1,4.868-8.156,7.095c-1.2,0.873-2.378,1.734-3.464,2.595c-3.419,2.709-6.532,4.97-10.176,5.206
			c-5.834,0-15.222-14.565-20.828-23.264c-2.595-4.027-4.839-7.507-6.544-9.51c-11.681-13.701-23.097-22.167-35.92-26.643
			c-16.055-5.606-31.636-12.88-46.312-21.632c-2.472-1.473-6.026-4.361-9.784-7.417c-9.213-7.486-19.653-15.977-27.65-15.977
			c-0.938,0-1.836,0.118-2.668,0.351c-2.787,0.787-3.321,2.529-3.395,3.497c-0.567,7.744,31.812,23.052,32.138,23.199
			c14.852,6.663,29.136,14.961,42.457,24.672c25.549,18.621,47.483,42.53,63.432,69.14c9.253,15.438,7.091,23.672-1.652,37.409
			c-0.204,0.327-0.412,0.694-0.621,1.073c-0.241,0.437-0.64,1.171-0.518,1.204c-6.85,1.501-12.925,3.884-18.8,6.185
			c-8.34,3.268-16.218,6.357-25.072,6.357c-4.431,0-8.809-0.763-13.378-2.33c-8.515-2.917-16.54-7.581-24.3-12.085
			c-4.227-2.457-8.593-4.99-13.036-7.25c-15.896-8.083-34.374-13.537-58.148-17.168c-2.403-0.367-4.888-0.783-7.425-1.212
			c-10.616-1.779-21.75-3.631-31.681-2.848c-0.979,0.082-1.767,0.849-1.869,1.828c-0.18,1.792,0.343,3.452,1.559,4.929
			c4.847,5.896,20.008,7.744,37.838,9.4c5.345,0.498,9.955,0.926,12.244,1.485c21.081,5.162,41.02,13.473,59.262,24.705
			c2.301,1.416,4.582,2.885,6.863,4.345c7.217,4.639,14.676,9.433,22.86,12.66c2.909,1.146,18.919,1.449,26.977,1.449
			c6.373,0,13.758-0.131,19.042-0.621c-4.504,5.243-8.364,10.539-12.403,16.071c-1.383,1.893-2.787,3.819-4.243,5.777
			c-7.364,9.902-14.696,19.821-21.962,29.792c-17.5,23.999-31.416,43.885-43.803,62.583c-32.338,48.83-55.39,91.314-72.55,133.698
			c-6.634,16.385-12.412,35.336-4.933,51.64c6.601,14.403,22.681,23.347,41.962,23.347c5.141,0,10.18-0.67,14.974-1.983
			c14.142-3.884,24.913-12.758,35.329-21.343c7.474-6.16,15.194-12.518,24.011-16.825c4.019,5.397-1.236,16.532-3.562,21.456
			c-0.755,1.596-2.33,4.366-4.158,7.577c-9.151,16.091-17.878,32.48-15.386,40.608c0.583,1.9,1.787,3.345,3.472,4.178
			c0.935,0.461,2.061,0.143,2.624-0.734c7.895-12.399,15.166-28.303,21.579-42.334l2.615-5.713
			c1.718-3.729,3.162-8.266,4.696-13.072c2.562-8.041,5.214-16.353,9.274-21.24c2.256-2.717,5.969-4.577,9.898-6.548
			c3.187-1.6,6.483-3.252,9.425-5.537c3.725-2.893,7.12-6.197,10.4-9.388c2.897-2.819,5.896-5.732,9.054-8.291
			c1.297-1.048,2.713-1.31,4.492-0.832c21.155,38.258,46.23,53.64,79.217,48.943c22.717-3.231,39.779-19.759,50.727-49.131
			c1.057,0.012,1.946,0.338,2.786,1.02c3.158,2.559,6.157,5.476,9.058,8.295c3.28,3.19,6.675,6.491,10.396,9.384
			c2.938,2.289,6.233,3.938,9.425,5.537c3.929,1.971,7.642,3.831,9.897,6.548c4.06,4.884,6.712,13.195,9.274,21.236
			c1.529,4.807,2.979,9.344,4.695,13.072l2.615,5.712c6.414,14.031,13.685,29.936,21.58,42.335c0.387,0.604,1.044,0.942,1.722,0.942
			c0.302,0,0.611-0.069,0.901-0.213c1.685-0.832,2.889-2.276,3.472-4.178c2.493-8.127-6.229-24.517-15.386-40.608
			c-1.827-3.211-3.402-5.985-4.157-7.576c-2.321-4.925-7.581-16.059-3.562-21.457c8.82,4.309,16.536,10.665,24.011,16.826
			c10.416,8.584,21.188,17.458,35.328,21.343c4.794,1.317,9.833,1.982,14.974,1.982c19.282,0,35.361-8.943,41.963-23.346
			c7.475-16.308,1.702-35.255-4.933-51.641c-17.16-42.383-40.208-84.868-72.551-133.697c-12.362-18.666-26.279-38.552-43.803-62.583
			c-7.267-9.972-14.598-19.89-21.962-29.792c-1.453-1.954-2.856-3.876-4.235-5.765c-4.039-5.536-7.903-10.836-12.411-16.083
			C377.21,217.703,384.591,217.833,390.964,217.833L390.964,217.833z"/>
	</g>
</g>
<g>
</g>
<g>
</g>
<g>
</g>
<g>
</g>
<g>
</g>
<g>
</g>
<g>
</g>
<g>
</g>
<g>
</g>
<g>
</g>
<g>
</g>
<g>
</g>
<g>
</g>
<g>
</g>
<g>
</g>
</svg>
