<?xml version="1.0" encoding="iso-8859-1"?>
<!-- Generator: Adobe Illustrator 16.0.0, SVG Export Plug-In . SVG Version: 6.00 Build 0)  -->
<!DOCTYPE svg PUBLIC "-//W3C//DTD SVG 1.1//EN" "http://www.w3.org/Graphics/SVG/1.1/DTD/svg11.dtd">
<svg version="1.1" id="Capa_1" xmlns="http://www.w3.org/2000/svg" xmlns:xlink="http://www.w3.org/1999/xlink" x="0px" y="0px"
	 width="557.51px" height="557.51px" viewBox="0 0 557.51 557.51" style="enable-background:new 0 0 557.51 557.51;"
	 xml:space="preserve">
<g>
	<g>
		<path d="M539.841,207.899c0.225-0.636-0.037-1.477-0.584-1.876c-46.769-34.076-94.451-66.402-152.604-78.471
			c-5.015-1.041-9.891-2.779-14.917-3.729c-23.754-4.496-40.8-12.072-42.733-42.317c-1.999-31.306-20.665-56.467-50.127-78.524
			c-0.543-0.404-0.808-0.208-0.6,0.437c2.506,7.833,3.134,12.362,5.398,15.818c13.979,21.346,12.187,45.333,11.963,68.989
			c-0.159,16.817-12.909,22.766-26.072,26.699c-28.221,8.434-56.72,15.945-85.101,23.852c-34.064,9.49-64.839,23.26-78.511,63.081
			c-0.22,0.641-0.751,0.751-1.195,0.245c-25.459-29.066-49.527-56.541-73.526-83.942c-1.485-1.693-3.023-3.452-3.59-3.586
			c-0.351-0.082-0.726-0.074-1.036,0.057c-0.938,0.379-1.877,0.759-2.812,1.138c-1.554,0.628-3.272,1.293-3.431,1.771
			c-0.09,0.273-0.057,0.588,0.118,0.873c39.185,64.558,30.253,124.559-20.236,183.76c-0.437,0.514-0.273,0.783,0.375,0.587
			c48.283-14.406,72.788-58.104,118.198-64.362c0.669-0.094,0.722,0.073,0.118,0.379c-18.711,9.441-18.902,24.786-10.135,39.013
			c11.648,18.907,25.5,36.822,40.596,53.139c18.258,19.734,38.491,37.707,58.613,55.602c4.443,3.949,14.3,8.009,17.748,5.826
			c16.255-10.289,31.546-6.413,47.785-1.281c11.722,3.705,23.938,5.843,39.826,9.531c0.657,0.151,0.963,0.775,0.677,1.388
			c-13.223,28.254-25.708,53.941-37.238,80.053c-6.455,14.619-10.775,30.164-16.969,44.913c-5.1,12.142-2.995,23.823,8.434,27.349
			c6.76,2.089,21.041-3.771,24.46-10.095c14.778-27.348,28.205-55.659,39.209-84.721c5.275-13.934,3.361-30.453,6.206-45.517
			c0.893-4.732,6.634-12.207,10.216-12.24c60.147-0.551,96.569-37.568,130.601-80.8c19.552-24.839,43.191-46.476,65.228-69.332
			c3.288-3.411,7.674-5.765,12.893-9.409c0.555-0.388,0.571-1.04,0.036-1.457C534.969,223.607,534.504,222.975,539.841,207.899z"/>
	</g>
</g>
<g>
</g>
<g>
</g>
<g>
</g>
<g>
</g>
<g>
</g>
<g>
</g>
<g>
</g>
<g>
</g>
<g>
</g>
<g>
</g>
<g>
</g>
<g>
</g>
<g>
</g>
<g>
</g>
<g>
</g>
</svg>
