<?xml version="1.0" encoding="iso-8859-1"?>
<!-- Generator: Adobe Illustrator 16.0.0, SVG Export Plug-In . SVG Version: 6.00 Build 0)  -->
<!DOCTYPE svg PUBLIC "-//W3C//DTD SVG 1.1//EN" "http://www.w3.org/Graphics/SVG/1.1/DTD/svg11.dtd">
<svg version="1.1" id="Capa_1" xmlns="http://www.w3.org/2000/svg" xmlns:xlink="http://www.w3.org/1999/xlink" x="0px" y="0px"
	 width="561.804px" height="561.804px" viewBox="0 0 561.804 561.804" style="enable-background:new 0 0 561.804 561.804;"
	 xml:space="preserve">
<g>
	<g>
		<path d="M561.804,255.993c-4.985-2.685-6.132-1.362-9.017,2.432c-1.122,1.474-2.501,2.824-3.999,3.909
			c-0.729,0.526-1.995,0.31-3.019,0.433c0.049-1.021-0.241-2.236,0.208-3.031c2.795-4.929,5.753-9.768,8.666-14.627
			c0.322-0.539,1.113-1.354,0.995-1.518c-3.179-4.211,1.249-6.508,2.351-9.617c0.285-0.8,0.538-1.615,0.804-2.424
			c-0.245-0.244-0.49-0.489-0.734-0.729c-0.996,0.963-2.008,1.901-2.975,2.889c-2.102,2.138-4.08,4.414-6.332,6.372
			c-0.567,0.494-2.163,0.29-2.958-0.167c-0.404-0.232-0.196-1.763-0.037-2.664c0.127-0.71,0.661-1.343,0.91-2.044
			c0.881-2.489,3.488-5.011-0.155-7.487c-0.298-0.204,0.058-1.379,0.118-2.235c-4.655,2.627-4.854,2.407-5.589-6.638
			c-1.146,1.815-1.832,2.982-2.6,4.096c-0.84,1.22-1.636,2.509-2.692,3.521c-0.478,0.461-2.008,0.677-2.228,0.383
			c-0.494-0.665-0.783-1.787-0.6-2.595c0.714-3.133,1.644-6.218,2.529-9.457c-4.296,0.51-4.558,0.089-3.848-3.832
			c0.261-1.444-0.18-3.043-0.424-4.549c-0.29-1.816-0.706-3.611-1.065-5.398c-1.991,0.392-4.414,0.963-6.866,1.212
			c-0.258,0.024-0.951-1.836-1.021-2.852c-0.155-2.297-0.049-4.615-0.049-7.581c-2.003,1.717-3.048,2.815-4.288,3.603
			c-0.808,0.51-1.901,0.559-2.868,0.816c-0.285-1.134-0.971-2.35-0.767-3.391c0.354-1.807,1.261-3.509,1.934-5.267
			c-1.995-2.399-4.076-2.864-6.646-1.032c-0.999,0.71-2.276,1.028-3.432,1.526c0.069-1.273,0.095-2.554,0.217-3.823
			c0.069-0.722,0.281-1.432,0.433-2.154c-2.195-0.816-4.492-1.302-2.909-4.712c0.424-0.918-1.008-2.697-1.457-3.774
			c-1.31,0.416-2.799,1.403-3.749,1.028c-0.808-0.318-1.053-2.195-1.44-3.415c-0.526-1.661-0.955-3.354-1.506-5.304
			c-1.444,1.824-2.366,3.492-3.745,4.553c-1.073,0.824-3.076,1.583-4.022,1.102c-0.894-0.453-1.375-2.595-1.277-3.937
			c0.225-3.093,0.914-6.149,1.416-9.221c-0.331-0.22-0.661-0.44-0.992-0.661c-0.828,0.934-1.554,1.999-2.513,2.77
			c-1.269,1.024-2.722,1.824-4.097,2.722c-0.726-1.326-1.452-2.656-2.142-3.913c-0.167,0.286-0.437,1.253-1.077,1.734
			c-0.942,0.706-2.473,1.742-3.158,1.412c-0.959-0.461-1.848-2.024-1.926-3.174c-0.253-3.721-0.077-7.471-0.159-11.208
			c-0.021-0.889-0.399-1.771-0.616-2.66c-0.313,0.041-0.632,0.078-0.946,0.119c0,1.301,0,2.599,0,3.884
			c-2.183-1.049-2.183-1.049-3.432-9.164c-0.139,2.028-0.053,3.036-0.313,3.945c-0.241,0.833-0.857,1.555-1.306,2.326
			c-0.775-0.567-1.995-0.983-2.244-1.726c-0.673-2.003-0.931-4.146-1.392-6.414c-0.143,0.718-0.061,1.526-0.428,1.942
			c-1.245,1.408-2.648,2.672-3.995,3.99c-0.428-1.571-1.057-3.121-1.244-4.721c-0.216-1.877-0.053-3.794-0.053-5.394
			c-1.534,0.608-3.591,2.134-4.545,1.62c-1.2-0.649-1.506-2.962-2.016-4.149c-0.951,0.632-2.216,1.477-3.48,2.321
			c-0.604-1.248-1.204-2.497-1.566-3.248c-1.44,0.625-3.48,2.301-4.774,1.848c-1.272-0.444-1.896-3.007-2.599-4.725
			c-0.596-1.469-0.894-3.056-1.444-5.022c-0.444,0.612-0.648,0.829-0.779,1.085c-0.808,1.583-1.6,3.174-2.395,4.766
			c-1.118-1.453-2.403-2.812-3.325-4.382c-2.579-4.398-4.818-8.956-9.009-12.252c-1.135-0.894-1.184-3.166-1.461-3.999
			c-0.746,1.404-1.746,3.292-2.75,5.186c-1.269-1.46-2.537-2.921-3.595-4.141c-1.424-0.159-2.994-0.338-5.026-0.567
			c0.041-0.065-0.225,0.718-0.763,1.171c-0.608,0.506-1.566,1.102-2.187,0.938c-0.625-0.164-1.212-1.134-1.481-1.873
			c-1.089-2.991-2.048-6.026-3.615-8.857c0.18,1.326,0.58,2.668,0.478,3.97c-0.094,1.224-0.718,2.407-1.109,3.611
			c-1.114-0.824-2.317-1.559-3.313-2.509c-0.497-0.473-0.624-1.338-1.003-2.219c-0.547,0.489-0.979,0.885-1.759,1.587
			c-0.27-1.436-0.465-2.477-0.661-3.517c-0.11,0-0.225,0.004-0.335,0.004c-0.077,1.048-0.15,2.097-0.272,3.77
			c-2.795-4.239-5.271-8.005-7.989-12.125c-1.068,4.639,4.623,8.915-0.318,13.264c-2.158-2.297-4.182-4.451-6.279-6.679
			c-1.469,1.865-2.766,4.382-5.186,0.935c-1.371-1.951-3.035-3.697-4.929-5.349c0.18,0.502,0.49,0.996,0.519,1.506
			c0.09,1.493,0.069,2.995,0.09,4.492c-1.555-0.808-3.599-1.252-4.533-2.517c-1.098-1.489-1.321-2.946-3.917-2.734
			c-1.325,0.106-2.844-2.162-4.189-3.289c-0.217,0.845-0.192,2.216-0.861,2.942c-0.628,0.681-1.991,0.686-3.08,1
			c0,0.106-0.028,0.334,0.004,0.551c0.27,1.86,0.555,3.721,0.832,5.578c-1.688-0.816-3.749-1.261-4.985-2.518
			c-2.55-2.586-4.659-5.606-6.279-7.617c-1.893,0.775-3.215,1.318-4.537,1.86c-0.139-0.331-0.273-0.661-0.412-0.992
			c-0.049,0.245-0.114,0.486-0.139,0.73c-0.175,1.946,0.367,4.949-0.648,5.63c-2.525,1.702-3.068-1.701-4.239-2.974
			c-1.763-1.914-2.99-4.316-4.447-6.516c-3.031,2.297-3.264,2.24-7.095-1.024c0.849,1.759,1.934,3.448,2.477,5.3
			c0.44,1.514,0.232,3.219,0.314,4.839c-1.592-0.31-3.562-0.135-4.709-1.02c-3.57-2.75-6.883-5.834-10.273-8.821
			c-0.343,0.979-0.689,1.958-1.036,2.938c-1.934-0.91-3.868-1.815-5.944-2.794c-4.374,3.403-4.529,3.39-9.531-1.444
			c1.036,2.941,1.828,5.12,2.57,7.311c0.318,0.943,0.771,1.922,0.743,2.873c-0.029,0.897-0.421,1.979-1.041,2.57
			c-0.294,0.277-1.664-0.192-2.26-0.677c-2.909-2.358-5.725-4.835-8.344-7.075c-0.608,0.078-1.955,0.465-3.256,0.355
			c-2.163-0.184-4.362-0.494-6.43-1.126c-1.685-0.514-3.199-1.575-4.794-2.399c-2.648,4.521-3.183,4.346-8.181-3.166
			c-0.84,1.897-1.159,4.227-2.419,4.982c-1.085,0.645-3.243-0.514-5.186-0.93c-1.012,2.224-3.003,1.856-5.108,0.29
			c-0.91-0.673-1.624-1.599-2.501-2.326c-1.901-1.571-3.847-3.088-5.349-4.284c-1.901,1.433-2.938,2.265-4.043,3.003
			c-0.2,0.135-0.869-0.281-0.967-0.159c-0.747,0.934-1.889,2.856-2.016,2.787c-1.754-0.935-3.378-2.118-5.002-3.285
			c-0.506-0.363-0.914-0.857-1.473-1.399c-0.64,0.478-1.338,1-2.117,1.579c0.408,0.804,1.098,1.546,1.098,2.293
			c0,1.436-0.396,2.868-0.625,4.304c-1.208-0.449-2.485-0.775-3.611-1.379c-1.636-0.873-3.162-1.946-4.745-2.934
			c-1.595,3.807-2.713,4.129-6.544,2.073c-3.146-1.689-6.333-3.297-10.196-5.304c0.625,2.876,5.606,3.933,1.061,6.732
			c-0.779-0.355-1.885-0.853-3.125-1.419c-1.905,2.538-3.807,4.271-7.242,1.889c-0.89-0.616-3.321,0.987-5.186,1.62
			c-0.347,3.048-3.043,4.647-7.136,2.978c-3.741-1.521-6.41-2.289-7.605,2.701c-0.106,0.44-1.799,0.853-2.66,0.706
			c-4.427-0.754-8.825-1.693-13.77-2.672c0.983,1.775,1.795,3.554,2.889,5.141c1.379,1.999,0.485,3.019-1.412,2.97
			c-2.093-0.057-4.166-1.082-6.259-1.114c-2.077-0.033-4.162,0.669-6.247,1.008c-2.195,0.354-4.39,0.763-6.597,0.95
			c-1.885,0.159-3.794,0.033-5.802,0.033c-0.784,1.734-1.191,4.076-2.583,5.296c-1.293,1.134-3.635,1.069-5.867,1.616
			c-0.461,0.665-1.334,1.93-2.261,3.272c0.335,0,0.902-0.147,1.347,0.028c1.114,0.44,2.175,1.028,3.252,1.555
			c-0.82,0.808-1.542,2.162-2.477,2.325c-4.305,0.759-8.687,1.069-13.003,1.779c-1.921,0.318-3.721,1.35-5.634,1.783
			c-1.987,0.449-4.051,0.563-5.904,0.8c1.542,0.902,3.317,1.783,4.884,2.946c0.53,0.396,0.8,1.55,0.677,2.272
			c-0.085,0.494-1,1.073-1.628,1.216c-5.047,1.138-10.118,2.187-15.826,3.398c1.163,0.543,2.007,0.678,2.383,1.171
			c0.722,0.943,1.175,2.093,1.742,3.158c-1.053,0.485-2.089,1.358-3.154,1.391c-4.121,0.131-7.658,0.983-10.327,4.635
			c-0.722,0.987-3.146,0.901-4.802,0.991c-1.856,0.098-3.729-0.163-5.688,0.078c3.068,0.343,6.193,0.155,7.948,3.545
			c1.424,2.75,1.049,4.557-2.052,5.431c-4.427,1.248-8.947,2.166-13.974,3.354c2.375,0.11,4.256,0.073,6.092,0.351
			c0.657,0.102,1.465,0.869,1.701,1.518c0.159,0.441-0.392,1.51-0.897,1.771c-3.656,1.885-7.381,3.635-11.082,5.426
			c-0.196-0.31-0.392-0.625-0.587-0.935c-0.257,0.669-0.906,1.481-0.722,1.983c2.338,6.336-3.076,5.5-6.189,6.765
			c-0.546,0.225-1.167,0.273-2.007,0.461c1.681,1.779,6.434,0.849,4.631,4.594c-0.788,1.636-4.129,2.044-6.467,3.081
			c-0.277,5.132-6.805,1.889-8.776,5.483c0.094,0.037,0.489,0.09,0.771,0.298c1.028,0.755,2.024,1.562,3.027,2.35
			c-1.191,0.722-2.305,1.689-3.594,2.118c-3.15,1.052-6.385,1.86-9.592,2.766c0.13,0.591,0.265,1.183,0.396,1.771
			c1.277-0.281,2.55-0.743,3.839-0.8c2.428-0.11,4.884-0.13,7.275,0.196c0.367,0.049,1,2.864,0.579,3.183
			c-1.889,1.436-4.06,2.542-6.226,3.562c-1.73,0.812-3.594,1.33-6.169,2.256c3.33,2.387,4.296,3.712,0.935,5.561
			c-1.424,0.784-3.109,3.754-2.636,4.839c1.718,3.921-1.379,4.043-3.309,4.917c-1.44,0.653-3.154,0.71-4.231,0.926
			c-1.036,1.82-1.962,3.436-2.876,5.039c1.991,0.041,4.427-0.103,4.57,3.211c0.135,3.146-0.82,5.218-4.198,6.186
			c-2.448,0.697-4.647,2.268-6.708,4.116c1.832-0.27,3.664-0.763,5.492-0.734c1.24,0.021,2.472,0.771,3.705,1.195
			c-0.51,1.175-0.804,2.529-1.587,3.484c-0.853,1.04-2.154,1.714-3.248,2.538c1.926,3.574,1.163,5.079-4.186,8.503
			c1.249,0.64,3.652,1.415,3.595,1.93c-0.167,1.546-1.094,3.146-2.089,4.438c-0.979,1.273-2.411,2.199-2.938,2.66
			c1.277,2.244,2.979,3.909,2.954,5.545c-0.024,1.804-1.64,3.582-1.518,4.223c0.571,1.163,1.787,2.44,1.608,3.473
			C4.28,286.21,6.997,293.909,0,299.115c1.775-0.082,3.142-0.143,4.504-0.208c-0.27,1.934-0.539,3.867-0.828,5.937
			c1.003-0.535,2.015-1.191,3.117-1.624c1.04-0.408,2.174-0.584,3.268-0.861c0.212,1.195,0.946,2.619,0.542,3.554
			c-1.702,3.958-3.741,7.769-5.773,11.873c1.583,0,2.975,0.375,4.002-0.077c2.199-0.963,3.905-1.583,4.215,1.722
			c0.012,0.126-0.008,0.351,0.041,0.367c7.446,2.517,0.906,5.145-0.147,7.385c-1.069,2.272-3.015,4.133-4.092,6.634
			c2.215-0.967,4.37-2.15,6.679-2.803c0.975-0.277,2.269,0.562,3.415,0.894c-0.412,1.044-0.689,2.17-1.265,3.112
			c-1.326,2.167-2.799,4.243-3.893,6.622c2.55-3.427,6.104-3.517,9.646-3.093c2.093,0.249,2.297,1.747,0.958,3.261
			c-0.551,0.624-1.375,1.007-1.799,1.31c1.184,0.836,2.33,1.652,3.48,2.468c-1.252,0.698-2.468,1.469-3.77,2.061
			c-0.897,0.404-1.909,0.555-3.19,0.906c3.958,4.695-2.795,4.353-3.28,7.768c2.064-0.452,3.839-0.746,5.561-1.236
			c2.595-0.742,3.656,0.069,3.513,2.611c0.963,0.698,2.097,1.526,3.235,2.351c-2.04,2.011-4.076,4.022-6.055,5.981
			c0.686,1.093,1.869,2.962,2.84,4.508c1.999-0.15,3.623-0.273,5.247-0.396c-0.065,1.42-0.13,2.844-0.204,4.41
			c1.371-0.562,2.729-1.265,4.166-1.685c4.072-1.195,3.276,3.215,5.133,4.496c1.591,1.098,5.345-1.804,5.218,3.031
			c-0.024,1.04,2.558,1.942,3.403,3.256c2.02,3.134,3.705,6.479,5.553,9.723c1.204,2.109,2.456,4.194,3.978,6.781
			c1.673-0.437,3.533-0.902,5.386-1.403c1.652-0.449,4.765,2.786,4.933,5.589c0.134,2.253-0.037,4.582-0.498,6.789
			c-0.689,3.321,0.775,4.953,3.717,4.113c3.701-1.057,6.577,0.318,9.56,1.844c3.301,1.689,6.267,1.95,9.918,0.212
			c2.346-1.117,5.655-0.208,7.703-0.208c2.118-2.37,3.558-4.729,5.639-6.148c3.978-2.713,3.635,2.917,7.181,3.864
			c-1.061-3.097-1.55-5.831-2.864-8.091c-2.701-4.647-6.675-7.442-12.293-8.323c-2.525-0.396-4.929-2.632-6.948-4.505
			c-0.498-0.456,0.31-3.112,1.212-4.157c3.819-4.398,9.205-6.111,14.562-7.724c0.673-0.199,2.272,0.404,2.285,0.674
			c0.041,1.33-0.306,2.672-0.445,3.569c1.281,0.114,3.244,0.906,4.398,0.258c2.048-1.146,3.109-1.404,3.582,0.726
			c0.987-0.392,2.048-0.808,3.105-1.228c0.657,2.023,1.314,4.047,2.04,6.267c2.754-1.216,5.957-2.762,9.253-4.063
			c5.006-1.971,6.528-0.971,7.601,4.227c0.273,1.339,1.444,2.497,2.265,3.831c0.53-0.363,0.942-0.489,1.069-0.75
			c1.118-2.351,0.122-6.324,4.696-5.99c2.726,0.2,5.476,0.641,8.172,0.441c2.46-0.18,4.974-0.812,7.258-1.742
			c1.701-0.689,2.934-2.542,4.635-3.199c1.608-0.62,3.554-0.351,5.349-0.473c-0.021,1.395,0.037,2.803-0.094,4.186
			c-0.065,0.678-0.481,1.318-0.833,2.211c1.754,0.188,3.513,0.38,5.271,0.567c-0.229,1.689-0.453,3.379-0.726,5.398
			c1.432-0.502,3.142-1.339,4.945-1.648c1.02-0.176,2.191,0.502,3.558,0.864c0.926-0.979,2.354-2.685,4.007-4.137
			c0.608-0.534,2.272-0.901,2.55-0.579c0.624,0.738,1.204,2.183,0.873,2.929c-0.779,1.771-2.105,3.301-3.366,5.162
			c0.437,0.84,1.04,2.011,1.232,2.378c1.706-2.542,3.513-5.573,5.729-8.274c0.522-0.64,2.493-0.42,3.667-0.105
			c1.094,0.294,2.016,1.24,3.411,2.162c-1.363-6.503-0.902-12.154,4.623-16.116c1.008-0.722,2.464-0.815,3.717-1.203
			c0.265,1.126,0.49,2.26,0.808,3.37c0.494,1.714,1.057,3.406,1.534,4.937c1.685-2.089,2.999-4.19,4.794-5.736
			c0.795-0.686,2.619-0.494,3.843-0.18c0.355,0.09,0.473,1.999,0.331,3.02c-0.571,4.06-1.437,7.85,1.171,11.889
			c2.383,3.705,3.113,8.45,5.333,12.302c2.55,4.431,3.178,10.073,8.021,13.142c0.922,0.583,2.33,1.872,2.167,2.46
			c-1.856,6.679,6.487,8.646,6.553,14.386c0,0.294,1.318,0.441,1.787,0.894c0.734,0.71,1.673,1.571,1.795,2.469
			c0.273,1.958,0.086,3.982,0.086,5.989c3.725,0.135,6.03,1.579,6.977,4.986c0.192,0.693,1.073,1.619,1.718,1.688
			c4.068,0.441,3.893,3.509,4.341,6.386c1.065,6.776,8.045,15.406,14.933,16.512c0.608,0.098,1.408,0.204,1.865-0.09
			c3.758-2.407,7.274-1.506,11.045,0.18c1.615,0.722,3.798,0.135,5.716,0.244c1.297,0.078,2.587,0.335,3.415,0.449
			c4.149-2.183,8.213-4.316,12.272-6.455c0.053,0.253,0.102,0.511,0.159,0.764c1.02-1.367,2.044-2.733,3.737-4.994
			c-2.514-1.66-5.667-3.627-8.679-5.79c-1.036-0.742-1.632-2.064-2.582-2.966c-0.727-0.689-1.648-1.212-2.55-1.669
			c-3.102-1.57-6.304-2.962-9.319-4.684c-0.991-0.567-1.738-1.84-2.199-2.958c-0.322-0.779-0.294-2.105,0.184-2.688
			c0.437-0.53,1.714-0.6,2.583-0.506c4.762,0.51,9.498,1.277,14.268,1.681c5.447,0.461,9.768-2.089,13.13-6.075
			c0.954-1.13,1.081-3.183,1.04-4.794c-0.012-0.44-1.987-1.053-3.113-1.203c-3.773-0.502-6.642-5.137-5.283-8.589
			c0.261-0.669,0.073-1.525,0.049-2.293c-0.146-4.271-0.861-8.629-0.232-12.782c0.339-2.236,2.982-4.125,4.863-6.524
			c1.53,1.379,2.885,2.595,4.027,3.623c0.354-1.518,0.501-4.316,1.138-4.435c1.967-0.363,4.125,0.298,6.634,0.616
			c2.759-2.971,2.759-2.971,6.373,0.485c0.62-4.027,1.11-4.227,5.957-2.391c1.571-3.57,7.724-1.804,12.42,3.896
			c0.261-3.207,1.216-4.799,4.21-2.521c0.213-1.918,0.074-4.138,3.276-2.538c1.126,0.562,2.648,0.367,3.99,0.457
			c1.669,0.11,3.346,0.159,5.663,0.265c0.946-0.118,2.909-0.975,4.28-0.407c2.688,1.109,3.807,0.689,4.88-2.053
			c1.791-4.59,4.969-5.74,8.438-3.696c3.271-3.357,6.821-3.688,11.016-0.779c-0.555-1.86-0.935-3.125-1.53-5.129
			c2.179,0.163,3.896,0.294,5.614,0.421c0.013-3.464,0.013-3.464,9.114-0.869c1.461-2.819,7.512-4.284,9.833-1.865
			c3.99,4.162,9.221,3.718,14.097,4.819c3.48,0.787,6.851,2.027,10.281,3.039c2.146,0.633,4.447,0.931,6.438,1.881
			c4.207,2.008,9.352,1.073,13.13,4.766c1.489,1.456,4.431,1.383,6.683,2.105c8.772,2.815,16.761,7.694,26.337,8.601
			c4.137,0.392,8.135,3.627,11.926,6.002c6.731,4.218,13.717,7.784,21.836,7.29c4.843-0.293,9.927,0.05,13.994-4.271
			c1.975-2.097,3.105-3.814,3.415-6.597c0.869-7.83-2.607-13.986-6.65-20.241c-3.778-5.847-7.516-11.93-9.861-18.417
			c-1.799-4.974-1.371-10.743-2.02-16.148c-0.229-1.922-0.856-3.803-1.036-5.729c-0.147-1.571-0.118-3.224,0.212-4.758
			c1.313-6.1,2.774-12.166,4.187-18.245c0.109-0.486,0.506-1.045,0.367-1.424c-1.588-4.374,1.403-7.059,3.766-10.095
			c-3.941-5.772,0.865-9.645,3.264-13.749c-1.302-1.607-2.346-2.897-3.55-4.382c-0.714,0.24-1.86,1.04-2.509,0.742
			c-0.856-0.392-1.812-1.632-1.828-2.521c-0.016-0.971,0.983-1.967,1.551-2.941c2.632-4.541,5.059-9.217,7.98-13.566
			c1.664-2.477,4.096-4.455,6.267-6.572c1.44-1.404,3.031-2.652,4.337-4.37c-0.452,0.172-0.905,0.474-1.362,0.494
			c-1.367,0.057-2.742,0.008-4.112-0.005c0.371-1.321,0.358-2.986,1.179-3.904C552.946,265.21,557.446,260.6,561.804,255.993z"/>
	</g>
</g>
<g>
</g>
<g>
</g>
<g>
</g>
<g>
</g>
<g>
</g>
<g>
</g>
<g>
</g>
<g>
</g>
<g>
</g>
<g>
</g>
<g>
</g>
<g>
</g>
<g>
</g>
<g>
</g>
<g>
</g>
</svg>
