<?xml version="1.0" encoding="iso-8859-1"?>
<!-- Generator: Adobe Illustrator 16.0.0, SVG Export Plug-In . SVG Version: 6.00 Build 0)  -->
<!DOCTYPE svg PUBLIC "-//W3C//DTD SVG 1.1//EN" "http://www.w3.org/Graphics/SVG/1.1/DTD/svg11.dtd">
<svg version="1.1" id="Capa_1" xmlns="http://www.w3.org/2000/svg" xmlns:xlink="http://www.w3.org/1999/xlink" x="0px" y="0px"
	 width="600.409px" height="600.409px" viewBox="0 0 600.409 600.409" style="enable-background:new 0 0 600.409 600.409;"
	 xml:space="preserve">
<g>
	<g>
		<path d="M592.44,363.061c2.044,0.51,4.084,1.02,6.128,1.53c-0.452-1.184-1.216-1.697-1.64-2.411
			c-1.897-3.199-3.701-6.459-5.528-9.698c-0.144-0.253-0.433-0.674-0.355-0.764c1.322-1.57-0.379-1.941-1.089-2.48
			c-1.143-0.86-2.493-1.444-3.713-2.211c-0.425-0.27-0.73-0.73-1.09-1.102c1.371-1.077-0.13-1.306-0.575-1.514
			c-3.614-1.706-7.267-3.342-10.926-4.962c-1.587-0.701-3.215-1.313-4.827-1.971c0.058-0.191,0.114-0.379,0.172-0.57
			c1.306,0,2.611,0,3.917,0c-0.649-0.788-1.416-1.11-2.212-1.277c-1.489-0.311-3.011-0.47-4.496-0.8
			c-1.489-0.33-1.885-1.085-0.236-2.33c-2.722-0.812-5.101-1.521-8.128-2.423c1.746-0.547,2.783-0.869,4.391-1.371
			c-2.836-1.371-5.133-2.484-7.589-3.672c0.677-0.478,1.049-0.738,1.722-1.22c-2.917-0.845-5.427-1.575-8.188-2.375
			c1.158-0.722,2.089-1.302,3.325-2.072c-2.396-1.322-4.537-2.506-6.679-3.688c0.057-0.118,0.114-0.241,0.171-0.359
			c1.146,0.147,2.297,0.294,3.443,0.44c0.054-0.135,0.106-0.265,0.159-0.399c-2.603-1.452-5.206-2.909-7.809-4.361
			c0.077-0.184,0.154-0.371,0.232-0.555c1.746,0.461,3.488,0.922,5.234,1.379c0.098-0.217,0.2-0.433,0.298-0.649
			c-2.399-1.501-4.798-2.998-7.548-4.716c1.403-0.29,2.22-0.457,3.039-0.625c0.062-0.195,0.127-0.387,0.188-0.583
			c-0.894-0.543-1.73-1.383-2.693-1.57c-4.015-0.792-6.568-3.729-9.49-6.145c-0.437-0.363-0.787-0.829-1.469-1.555
			c1.604,0.212,2.746,0.363,3.889,0.514c0.077-0.15,0.15-0.306,0.229-0.457c-1.845-1.473-3.688-2.945-5.603-4.476
			c0.352-0.188,0.588-0.265,0.751-0.42c0.18-0.172,0.294-0.412,0.808-1.171c-3.961-1.652-7.608-3.179-11.044-4.61
			c0.808-1.077,1.632-2.171,2.113-2.812c-2.489-1.909-5.047-3.868-8.123-6.226c2.387-0.11,4.108-0.188,5.826-0.266
			c0-0.273-0.004-0.547-0.009-0.82c-3.052-0.212-6.104-0.424-9.151-0.636c-0.126-0.135-0.248-0.266-0.375-0.4
			c0.665-0.261,1.33-0.522,1.995-0.783c-0.139-0.184-0.277-0.367-0.416-0.551c-2.15-0.727-4.305-1.457-6.455-2.183
			c0.029-0.168,0.062-0.331,0.09-0.498c0.588-0.131,1.18-0.266,2.036-0.457c-1.232-0.592-2.154-1.036-3.301-1.587
			c0.481-1.077,0.91-2.04,1.493-3.35c-7.274-2.138-11.272-8.229-15.961-13.57c2.102,1.354,4.207,2.709,6.308,4.063
			c0.208-0.253,0.421-0.506,0.629-0.759c-0.478-0.873-0.959-1.75-1.351-2.464c1.105,0.502,2.207,1.004,3.309,1.506
			c0.155-0.253,0.311-0.506,0.465-0.759c-2.048-2.987-5.251-5.312-5.785-9.352c1.555,0.91,2.941,1.726,4.333,2.542
			c0.208-0.273,0.416-0.547,0.62-0.816c-4.354-4.676-8.707-9.352-13.06-14.027c0.069-0.069,0.139-0.135,0.208-0.204
			c2.606,1.673,5.214,3.342,7.821,5.015c0.18-0.233,0.358-0.461,0.538-0.694c-0.771-1.146-1.542-2.293-2.395-3.558
			c2.615-0.714,2.187-2.436,0.991-3.615c-2.313-2.293-4.925-4.296-7.467-6.353c-1.231-0.996-2.591-1.832-3.892-2.742
			c0.105-0.143,0.212-0.29,0.318-0.432c3.414,1.62,6.825,3.239,10.24,4.855c0.151-0.277,0.302-0.559,0.457-0.836
			c-1.628-1.432-3.256-2.86-5.043-4.431c1.167-0.265,1.959-0.449,3.423-0.784c-4.871-4.022-9.236-7.629-13.749-11.358
			c2.966-0.543,4.79,2.75,7.858,1.256c-4.529-3.288-9.054-6.573-13.583-9.861c0.098-0.134,0.196-0.269,0.294-0.404
			c2.42,0.767,4.835,1.534,7.254,2.301c0.147-0.302,0.294-0.604,0.441-0.906c-2.379-1.738-4.762-3.476-7.549-5.508
			c1.828,0.123,3.109,0.208,4.391,0.294c0.057-0.204,0.114-0.408,0.171-0.608c-4.349-2.146-8.694-4.296-13.043-6.446
			c0.069-0.151,0.139-0.302,0.208-0.453c3.5,0,7.001,0,10.502,0c0.028-0.188,0.053-0.375,0.081-0.563
			c-6.426-1.999-12.852-4.002-19.273-6.001c2.676,0.13,5.271,0.608,7.87,1.053c2.55,0.432,5.1,0.828,7.654,1.244
			c0.069-0.331,0.139-0.661,0.208-0.991c-5.027-1.995-10.054-3.99-15.541-6.165c3.709-0.188,7.014-0.355,10.322-0.522
			c0-0.241,0-0.481,0-0.726c-4.026-0.792-8.05-1.587-12.076-2.378c0.016-0.164,0.032-0.323,0.045-0.486
			c1.872-0.363,3.745-0.722,5.622-1.085c-7.201-2.171-14.692-0.853-21.971-2.419c5.724-0.42,11.448-0.841,17.172-1.265
			c0-0.404,0.005-0.804,0.005-1.208c-6.957-0.42-13.909-0.836-20.865-1.257c-0.013-0.212-0.024-0.428-0.037-0.645
			c5.21-0.6,10.42-1.195,15.631-1.795c-0.013-0.278-0.024-0.555-0.041-0.836c-7.263,0-14.529,0-21.791,0
			c-0.024-0.347-0.049-0.694-0.078-1.041c5.631-0.877,11.257-1.754,16.888-2.632c-1.457-0.559-2.893-0.795-4.297-0.677
			c-5.116,0.433-10.22,1.008-15.337,1.477c-1.215,0.11-2.451,0.017-3.676,0.017c-0.021-0.359-0.036-0.718-0.057-1.077
			c5.594-1.155,11.183-2.31,16.776-3.464c-0.036-0.31-0.077-0.624-0.114-0.934c-4.602,0.257-9.204,0.514-13.807,0.771
			c2.562-0.918,5.166-1.571,7.748-2.297c0.363-0.102,0.624-0.583,0.935-0.885c-0.326-0.29-0.612-0.763-0.983-0.841
			c-1.244-0.261-2.542-0.632-3.778-0.51c-6.409,0.632-12.713,1.75-18.552,4.7c-1.118,0.563-2.313,0.971-3.476,1.448
			c-0.127-0.298-0.258-0.596-0.384-0.89c5.94-2.742,11.877-5.487,17.817-8.229c-5.328-0.771-9.902,1.571-14.848,2.579
			c2.518-1.363,5.039-2.726,7.557-4.088c-6.353-0.485-12.053,1.767-17.866,3.411c-0.086-0.237-0.167-0.474-0.253-0.706
			c4.369-1.893,8.739-3.786,13.108-5.679c-7.861-0.686-14.667,2.799-21.746,5.125c-0.077-0.2-0.159-0.404-0.236-0.604
			c4.186-2.003,8.372-4.002,13.142-6.287c-5.88-0.192-10.457,1.979-15.182,3.835c2.852-1.93,5.708-3.864,8.56-5.793
			c-7.079-0.718-11.367,5.684-17.866,6.377c4.578-2.807,9.159-5.61,13.737-8.417c-0.106-0.245-0.216-0.49-0.322-0.734
			c-4.594,1.424-9.184,2.848-13.778,4.272c-0.098-0.172-0.2-0.347-0.298-0.519c2.102-1.783,4.207-3.566,6.308-5.349
			c-0.963,0-1.93,0-2.893,0c-2.921,1.326-5.843,2.656-8.764,3.982c-0.094-0.167-0.188-0.338-0.281-0.506
			c0.416-0.698,0.828-1.396,1.396-2.35c-2.526-0.396-4.007,1.057-5.623,2.113c-1.604,1.045-3.17,2.146-4.753,3.219
			c-0.167-0.232-0.335-0.469-0.506-0.702c1.199-1.004,2.403-2.003,3.603-3.007c-0.094-0.249-0.191-0.502-0.285-0.751
			c-4.011,1.236-8.025,2.477-12.261,3.782c1.049-1.6,1.954-2.982,2.864-4.361c-0.122-0.184-0.245-0.363-0.367-0.547
			c-0.792,0.334-1.779,0.473-2.342,1.036c-2.269,2.261-4.391,4.66-6.594,6.985c-1.068,1.126-2.199,2.199-3.301,3.292
			c-0.163-0.159-0.326-0.322-0.489-0.481c1-2.925,4.275-4.965,3.848-8.45c-0.262-0.192-0.519-0.384-0.779-0.58
			c-2.285,2.358-4.569,4.712-6.854,7.071c-0.232-0.159-0.465-0.322-0.697-0.481c0.729-1.881,1.46-3.762,2.194-5.643
			c-1.143,0.09-2.162,0.433-2.717,1.143c-1.375,1.754-2.591,3.643-3.766,5.541c-0.653,1.052-1.196,1.921-2.293,1.016
			c0.407-1.489,0.767-2.815,1.13-4.141c-0.257-0.126-0.519-0.253-0.775-0.379c-1.849,1.856-3.696,3.713-5.545,5.569
			c-0.212-0.196-0.428-0.396-0.641-0.592c0.861-1.754,1.722-3.504,2.583-5.259c-0.139-0.188-0.281-0.375-0.425-0.567
			c-0.958,0.514-2.125,0.836-2.818,1.595c-1.069,1.163-1.792,2.64-2.701,3.958c-1.808,2.624-3.64,5.227-5.459,7.838
			c-0.221-0.151-0.441-0.302-0.661-0.453c1.885-3.452,3.77-6.899,5.858-10.718c-4.423,0.134-4.835,4.635-8.099,6.026
			c0.433-1.33,0.759-2.33,1.081-3.329c-0.146-0.139-0.294-0.277-0.44-0.416c-2.889,2.513-5.777,5.022-8.662,7.536
			c-0.122-0.135-0.244-0.273-0.367-0.408c0.575-1.538,1.151-3.076,1.73-4.61c-0.2-0.102-0.4-0.2-0.596-0.302
			c-1.105,1.204-2.212,2.407-3.787,4.125c0.526-1.669,0.82-2.599,1.118-3.534c-0.196-0.122-0.396-0.249-0.596-0.371
			c-2.379,3.044-4.761,6.087-7.14,9.127c-0.249-0.13-0.494-0.261-0.738-0.392c0.408-1.685,0.82-3.37,1.228-5.055
			c-0.29-0.171-0.58-0.338-0.865-0.51c-1.848,2.391-3.7,4.782-5.96,7.699c0-2.272,0-3.794,0-5.32
			c-0.212-0.11-0.424-0.216-0.633-0.326c-2.166,2.827-4.333,5.65-6.503,8.474c-0.192-0.11-0.379-0.225-0.567-0.335
			c0.351-1.779,0.698-3.562,1.048-5.34c-0.281-0.143-0.567-0.286-0.849-0.424c-2.954,4.606-5.904,9.212-8.857,13.815
			c-0.155-0.065-0.31-0.135-0.465-0.2c0.763-2.615,1.522-5.234,2.338-8.042c-2.383,0.44-3.036,2.342-4.027,3.9
			c-0.979,1.542-1.979,3.072-2.97,4.606c-0.176-0.102-0.355-0.2-0.53-0.302c0.514-1.722,1.024-3.439,1.538-5.161
			c-0.257-0.098-0.518-0.196-0.775-0.293c-1.828,1.566-2.754,3.619-3.093,6.075c-0.196,1.416-0.273,3.089-2.799,3.26
			c0.62-3.129,1.2-6.047,1.779-8.96c-0.408-0.106-0.82-0.208-1.228-0.314c-1.791,4.908-3.586,9.812-5.377,14.721
			c0.2,0.118,0.396,0.236,0.596,0.359c-0.579,0.106-1.163,0.216-2.183,0.404c0.991-3.676,1.893-7.021,2.795-10.371
			c-0.343-0.114-0.686-0.232-1.032-0.347c-2.824,5.022-4.435,10.624-6.985,15.822c-0.094-0.735,0.033-1.412,0.119-2.093
			c0.229-1.828,0.494-3.652,0.612-5.483c0.024-0.408-0.498-0.853-0.767-1.285c-0.363,0.355-0.885,0.645-1.061,1.077
			c-0.298,0.73-0.318,1.571-0.563,2.334c-0.865,2.685-1.775,5.357-2.668,8.034c-0.277-0.053-0.559-0.102-0.836-0.155
			c0.983-3.076,1.795-6.116-1.795-8.576c-2.656,5.826-5.304,11.636-7.952,17.446c-0.119-0.029-0.237-0.057-0.355-0.086
			c1.228-4.194,2.456-8.388,3.684-12.583c-0.204-0.082-0.408-0.163-0.608-0.241c-1.048,1.673-2.211,3.284-3.117,5.035
			c-0.971,1.877-1.697,3.88-2.301,5.296c-0.784-0.502-1.579-1.391-2.118-1.257c-0.596,0.151-1.081,1.179-1.404,1.918
			c-1.211,2.77-2.342,5.573-3.488,8.372c-0.135,0.331-0.167,0.702-0.249,1.053c-0.204-0.188-0.404-0.375-0.604-0.563
			c0.836-2.852,1.673-5.704,2.513-8.556c-0.212-0.143-0.424-0.286-0.636-0.428c-0.526,0.522-1.453,0.996-1.522,1.571
			c-0.502,4.255-3.982,6.516-6.458,9.857c0-1.506,0-2.75,0-3.995c-0.302-0.033-0.604-0.061-0.906-0.094
			c-0.4,2.477-0.8,4.949-1.2,7.426c-0.098,0.016-0.196,0.033-0.298,0.049c-0.445-1.991-0.885-3.986-1.485-6.671
			c-1.615,2.159-2.725,3.631-3.382,4.508c-0.51-0.236-1.297-0.926-1.819-0.763c-0.547,0.171-1.044,1.11-1.208,1.795
			c-0.371,1.555-0.481,3.167-0.775,4.741c-0.196,1.048-0.522,2.077-0.792,3.113c-0.159-0.053-0.318-0.102-0.478-0.155
			c0.253-2.317,0.51-4.631,0.767-6.948c-0.2-0.057-0.4-0.118-0.6-0.175c-0.384,0.738-0.767,1.473-1.155,2.224
			c-0.542-0.735-1.02-1.383-1.73-2.35c-0.747,3.149-1.375,5.806-2.003,8.466c-0.281-0.065-0.563-0.13-0.844-0.192
			c0.188-2.048,0.379-4.1,0.567-6.148c-0.171-0.049-0.338-0.094-0.51-0.143c-1.175,1.355-2.35,2.709-3.521,4.06
			c-0.453-1.184-0.955-2.497-1.551-4.043c-1.203,2.044-2.158,3.664-3.137,5.329c-0.596-0.514-1.049-0.906-1.604-1.383
			c-1.098,2.423-2.118,4.68-3.154,6.973c-0.331-1.256-0.587-2.236-0.845-3.219c-1.469,0.898-2.941,1.799-4.459,2.729
			c0.017,0.029-0.212-0.392-0.734-1.346c-0.914,1.767-1.62,3.129-2.407,4.655c-1.277-4.316-3.9,0.167-5.643-1.175
			c-1.273,3.166-3.651,4.696-5.537,4.08c-1.424,1.473-2.721,2.815-4.019,4.158c-0.673-0.788-1.342-1.575-2.036-2.391
			c-1.844,2.154-3.684,4.345-5.589,6.483c-0.347,0.392-0.967,0.542-1.461,0.804c-0.163-0.481-0.501-0.987-0.449-1.444
			c0.126-1.13,0.437-2.236,0.677-3.354c-1.199,0.669-2.003,1.526-2.729,2.444c-2.174,2.75-4.219,2.538-5.998-0.539
			c-1.926-3.325-3.872-6.643-5.981-9.854c-1.481-2.252-4.484-3.182-7.03-2.346c-3.035,0.995-5.712,2.521-7.409,5.414
			c-1.232,2.101-2.583,4.133-4.027,6.438c-0.632-0.991-1.102-1.921-1.746-2.709c-3.142-3.852-6.153-7.83-9.556-11.436
			c-2.301-2.44-5.397-1.392-6.777,1.677c-2.55,5.659-3.248,11.718-4.002,17.756c-0.196,1.566-0.828,2.415-2.228,3.056
			c-9.461,4.312-18.891,8.694-28.335,13.04c-0.327,0.151-0.714,0.155-1.184,0.249c-0.114-1.371-0.216-2.575-0.318-3.778
			c-1.33,1.795,0.041,4.721-2.852,5.863c-0.265-0.922-0.481-1.677-0.698-2.432c-0.535,2.333-0.498,4.786-3.705,5.385
			c-0.661-5.998-1.314-11.909-1.962-17.821c-0.253,0.029-0.506,0.061-0.755,0.09c0.314,5.035,0.632,10.073,0.947,15.108
			c-0.164,0.02-0.331,0.041-0.494,0.057c-1.109-4.117-2.219-8.234-3.333-12.346c-0.241,0.073-0.481,0.147-0.722,0.216
			c0.946,4.77,1.84,9.551,2.872,14.3c0.388,1.795-0.11,3.068-1.395,4.292c-3.778,3.603-8.475,5.19-13.452,5.745
			c-7.576,0.845-15.198,1.314-22.803,1.934c-3.558,0.29-4.998,2.439-3.791,5.781c0.624,1.734,1.412,3.407,2.044,5.141
			c0.408,1.118,0.322,1.853-1.22,2.188c-4.3,0.938-8.552,2.109-12.815,3.215c-0.542,0.139-1.041,0.444-1.559,0.673
			c2.542-0.188,4.92-0.86,7.332-1.383c2.729-0.592,5.475-1.208,8.246-1.493c1.036-0.106,2.167,0.677,3.256,1.057
			c-0.021,0.285-0.041,0.571-0.062,0.856c-5.39,1.873-10.804,3.692-14.92,7.875c2.224-0.857,4.264-2.085,6.414-3.064
			c2.183-0.995,4.476-1.75,6.724-2.611c0.053,0.135,0.11,0.27,0.163,0.408c-3.251,2.126-6.5,4.251-9.751,6.381
			c0.122,0.204,0.241,0.408,0.363,0.612c4.811-1.028,7.932-5.867,13.269-6.291c-0.237,0.411-0.306,0.669-0.474,0.795
			c-4.7,3.497-9.42,6.969-14.108,10.485c-0.518,0.393-1.269,1.437-1.224,1.478c1.302,1.269-0.216,1.714-0.743,2.175
			c-0.698,0.611-1.668,0.914-2.521,1.351c0.392,0.42,0.784,0.84,1.175,1.261c7.05-4.395,11.718-11.91,19.355-15.729
			c1.114,2.023-0.473,2.868-1.289,3.867c-4.459,5.472-8.997,10.878-13.464,16.341c-0.522,0.641-0.767,1.51-1.138,2.272
			c0.253,0.171,0.51,0.339,0.767,0.51c4.741-7.042,10.494-13.113,16.887-18.56c-2.885,3.811-6.12,7.315-9.005,11.089
			c-2.921,3.827-5.34,7.993-5.928,12.967c0.771-0.571,1.277-1.293,1.608-2.085c2.905-7.006,7.246-13.04,12.57-18.368
			c0.755-0.755,2.187-0.836,3.305-1.232c-0.331,0.996-0.44,2.154-1.032,2.967c-3.888,5.336-6.532,11.207-7.907,17.649
			c-0.126,0.596-0.016,1.24-0.016,1.86c0.286,0.078,0.567,0.155,0.853,0.237c1.236-7.23,4.272-13.554,9.038-19.046
			c-0.119,2.049-0.535,3.986-1.037,5.899c-0.473,1.812-1.044,3.599-1.571,5.395c0.384,0.11,0.767,0.22,1.146,0.33
			c1.252-3.9,2.505-7.805,3.758-11.705c0.18,6.16-1.245,12.252-0.469,18.355c0.314,0.017,0.628,0.037,0.938,0.053
			c0.343-4.337,0.686-8.674,1.028-13.007c0.253-0.024,0.51-0.049,0.767-0.073c0.123,4.149,3.868,7.03,3.493,11.399
			c-0.449,5.182-0.722,10.38-1.061,15.573c-0.037,0.534-0.004,1.069-0.004,1.604c0.245,0,0.49,0,0.734,0
			c3.848-10.575,1.351-21.326,0.543-32.102c5.757,12.864,9.212,26.283,10.718,40.249c0.347-13.415-3.08-26.111-7.385-38.812
			c2.134-0.049,3.411,0.641,4.043,2.383c0.82,2.26,1.738,4.492,2.436,6.789c2.048,6.731,5.639,12.975,6.361,20.127
			c0.045,0.444,0.424,0.853,0.653,1.28c-0.008-9.755-3.386-18.67-6.361-27.674c0.188-0.078,0.379-0.155,0.567-0.237
			c3.443,6.169,6.887,12.334,10.331,18.503c0.249-0.139,0.494-0.277,0.742-0.42c-2.583-5.19-5.165-10.38-7.748-15.565
			c0.191-0.11,0.388-0.216,0.579-0.326c2.554,3.655,5.365,7.16,7.564,11.016c1.44,2.525,1.991,5.557,2.962,8.355
			c0.229,0.657,0.547,1.286,0.829,1.926c0.261-0.085,0.526-0.171,0.792-0.257c-0.49-2.501-0.979-5.002-1.469-7.503
			c0.788,0.673,1.526,1.302,2.607,2.228c0-1.317,0-2.072,0-3.142c1.661,2.493,3.207,4.688,4.623,6.969
			c1.367,2.207,2.599,4.505,3.893,6.761c0.196-0.004,0.392-0.004,0.587-0.008c0.155-1.967,0.31-3.938,0.489-6.174
			c0.788,0.437,1.375,0.764,1.383,0.768c0.09,1.763,0.017,3.039,0.261,4.255c0.171,0.837,0.779,1.583,1.195,2.371
			c0.424-0.596,0.845-1.191,1.359-1.922c0.412,0.946,0.693,1.877,1.204,2.66c0.29,0.444,0.946,0.648,1.44,0.963
			c0.135-0.551,0.408-1.114,0.359-1.648c-0.049-0.579-0.4-1.134-0.771-2.105c3.705,2.566,1.2,7.116,4.57,10.404
			c0.331-0.979,0.591-1.742,0.946-2.791c1.567,2.403,2.917,4.17,3.938,6.112c1.876,3.578,4.912,6.034,7.899,8.539
			c0.494,0.416,1.444,0.282,2.489,0.453c0-1.75,0-3.154,0-4.562c0.179-0.049,0.359-0.102,0.534-0.151
			c0.979,1.478,1.955,2.954,3.077,4.655c-0.93,0.164-1.428,0.249-1.971,0.343c2.011,3.607,3.174,4.243,5.683,3.162
			c-0.412-1.265-0.824-2.533-1.236-3.798c2.077,1.701,1.864,4.745,4.696,5.896c-0.416-1.358-0.832-2.718-1.244-4.076
			c0.216-0.135,0.437-0.27,0.653-0.404c0.657,0.768,1.497,1.44,1.93,2.317c0.743,1.502,1.122,3.183,1.873,4.676
			c0.347,0.682,1.224,1.098,1.856,1.637c0.171-0.192,0.343-0.388,0.514-0.58c-0.669-1.562-1.338-3.125-2.105-4.916
			c3.129,0.718,3.289,2.66,3.02,4.912c-0.155,1.294-0.355,2.767,1.595,2.848c0.571-1.126,1.041-2.056,1.428-2.827
			c0.943,0.991,1.914,1.706,2.448,2.66c0.53,0.951,0.62,2.15,0.902,3.239c0.228,0.029,0.461,0.058,0.689,0.09
			c0.273-0.812,0.469-1.664,0.844-2.428c0.249-0.506,0.759-0.885,1.151-1.325c0.412,0.506,0.971,0.95,1.199,1.529
			c0.229,0.575,0.131,1.281,0.18,1.935c0.2,0.053,0.396,0.105,0.596,0.159c0.49-0.743,0.979-1.481,1.416-2.143
			c0.555,0.421,1.236,0.951,1.934,1.457c1.681,1.22,3.974,2.093,4.888,3.737c0.987,1.778,1.416,1.31,2.322,0.392
			c1.469-1.485,3.721-1.285,4.729,0.478c0.747,1.306,1.685,2.537,2.199,3.929c0.918,2.484,2.489,4.945,0.894,7.789
			c-0.184,0.326,0.277,1.089,0.563,1.578c0.216,0.372,0.967,0.809,0.914,0.906c-1.359,2.493-0.388,4.981-0.2,7.503
			c0.078,1.061-0.844,2.203-1.354,3.293c-0.2,0.433-0.645,0.791-0.726,1.228c-0.09,0.466,0.004,1.041,0.212,1.478
			c0.739,1.534,1.775,3.011,0.902,4.81c-0.767,1.583-1.652,3.113-2.444,4.685c-0.625,1.24-1.191,2.513-1.783,3.77
			c0.192,0.11,0.384,0.225,0.576,0.335c0.926-1.098,1.848-2.195,2.774-3.293c0.196,0.155,0.396,0.311,0.596,0.465
			c-2.505,3.317-5.01,6.635-7.617,10.086c0.759,0.384,1.277,0.645,2.301,1.159c-3.093,2.248-5.708,4.614-8.719,6.229
			c-4.415,2.367-9.298,2.836-14.288,2.13c-2.428-0.343-4.569,0.277-5.487,2.823c-0.514,1.429-1.412,1.718-2.742,1.727
			c-2.493,0.016-4.981,0.102-7.47,0.253c-0.461,0.028-0.894,0.493-1.338,0.759c0.31,0.408,0.563,0.885,0.947,1.203
			c0.306,0.253,0.771,0.307,1.779,0.669c-2.326,0.47-4.047,0.694-5.675,1.212c-0.596,0.192-1.105,1.032-1.375,1.689
			c-0.106,0.261,0.514,1.191,0.833,1.203c3.484,0.147,2.721,3.554,2.472,4.672c-0.608,2.688,1.167,2.57,2.485,3.13
			c1.436,0.607,2.942,1.036,4.394,1.604c2.33,0.913,4.565,1.623,7.042,0.195c4.203-2.419,8.939-2.819,13.517-2.027
			c4.631,0.799,8.731,0.032,12.812-1.926c0.771-0.372,1.66-0.515,2.509-0.698c1.485-0.326,3.113-0.326,4.443-0.967
			c2.011-0.971,3.896-2.256,5.688-3.61c3.199-2.424,6.299-4.97,9.392-7.528c0.445-0.367,0.498-1.183,0.914-1.619
			c0.449-0.474,1.105-0.751,1.673-1.114c0.416,0.906,0.681,1.481,1.187,2.587c0.514-1.836,0.833-3.068,1.204-4.284
			c0.727-2.37,2.885-3.325,5.569-2.285c0.702-1.354,1.359-2.766,2.158-4.096c0.339-0.56,0.914-1.032,1.477-1.392
			c2.575-1.652,5.19-3.243,7.776-4.884c0.176-0.11,0.318-0.403,0.331-0.62c0.139-2.488,2.22-2.574,3.884-3.125
			c1.24-0.412,2.525-0.693,3.713-1.008c0-1.351,0-2.399,0-3.203c1.252,0.62,2.436,1.208,3.925,1.946c0-2.305,0-3.921,0-5.536
			c0.204-0.099,0.404-0.192,0.608-0.29c1.269,1.779,2.538,3.562,3.803,5.341c0.224-0.045,0.449-0.094,0.677-0.139
			c0-3.097,0-6.197,0-9.294c0.298-0.05,0.596-0.099,0.894-0.151c1.306,2.664,2.615,5.328,3.921,7.997
			c0.224-0.058,0.449-0.118,0.673-0.176c-0.767-3.472-1.538-6.948-2.444-11.049c1.493,1.689,2.542,2.873,3.59,4.06
			c0.257-0.139,0.51-0.277,0.767-0.416c-0.624-2.158-1.244-4.312-1.869-6.471c0.184-0.09,0.363-0.176,0.547-0.266
			c1.734,1.682,3.468,3.366,5.202,5.047c-1.082-6.327-1.082-6.327-0.062-7.103c1.432,1.538,1.538,4.721,5.145,4.223
			c-1.114-3.154-2.15-6.104-3.19-9.05c0.343-0.139,0.689-0.277,1.032-0.416c0.873,2.068,1.75,4.138,2.624,6.206
			c0.224,0.069,0.453,0.139,0.677,0.208c0.681-1.869,1.783-3.705,1.938-5.618c0.179-2.257,1.089-3.305,3.166-2.334
			c2.574,1.204,5.022,2.688,7.638,3.782c1.938,0.812,3.329,1.913,4.255,3.835c0.694,1.437,1.881,2.387,3.407,0.931
			c2.411,3.321,4.725,6.528,7.066,9.71c0.221,0.298,0.633,0.649,0.951,0.649c2.412-0.013,3.02,1.713,3.595,3.541
			c0.22,0.697,0.587,1.351,0.889,2.023c0.147-0.041,0.294-0.086,0.441-0.126c0.171-0.996,0.338-1.991,0.51-2.991
			c0.27-0.036,0.539-0.073,0.808-0.11c0.424,1.135,0.775,2.302,1.297,3.387c0.371,0.768,0.91,1.481,1.489,2.113
			c0.579,0.637,1.591,1.024,1.889,1.738c0.51,1.216,0.693,2.428,2.484,2.212c0.318-0.037,0.951,0.746,1.082,1.248
			c0.343,1.322,0.494,2.697,0.722,4.052c0.249,0.012,0.494,0.021,0.742,0.032c0.347-0.938,0.69-1.877,1.106-3.011
			c0.257,0.388,0.465,0.559,0.477,0.742c0.363,4.398,0.755,8.793,1,13.195c0.037,0.693-0.469,1.546-0.963,2.121
			c-4.321,5.067-9.988,7.687-16.459,8.482c-3.696,0.457-5.365,1.754-5.981,5.81c2.905-0.179,5.781-0.354,8.658-0.53
			c0.073,0.326,0.143,0.653,0.216,0.979c-1.579,0.485-3.142,1.31-4.741,1.379c-2.701,0.114-4.468,1.526-6.079,3.387
			c-1.057,1.22-1.293,2.501-0.126,4.056c2.285-1.311,4.259-0.665,6.214,1.089c-2.052,1.049-0.853,2.212-0.171,3.187
			c1.542,2.211,2.864-0.021,4.451-0.514c0.726,3.264,3.305,3.039,5.765,3.479c3.264,0.584,3.582-3.121,6.079-3.753
			c0.314,0.959,0.351,2.085,0.935,2.64c1.526,1.461,7.568-0.262,8.335-2.24c1.408-3.623,1.657-3.713,4.978-1.763
			c2.868,1.686,7.438,0.633,8.495-1.754c1.668-3.791,3.66-7.438,5.324-11.229c1.424-3.243,2.758-6.548,3.774-9.935
			c0.522-1.738,0.265-3.713,0.379-5.916c1.914-1.109,1.245-4.933,4.305-5.859c0.118-0.036,0.065-0.596,0.122-0.901
			c0.412-2.138,0.828-4.271,1.293-6.646c0.004,0,0.669-0.081,1.106-0.135c1.118-2.962-2.048-7.066,2.868-8.412
			c0-0.906-0.253-1.894,0.045-2.673c1.057-2.733,1.632-5.394-0.078-8.205c1.861-0.636,2.31-1.958,1.845-3.782
			c-0.294-1.154-0.191-2.134,1.489-1.881c0.502,0.074,1.057-0.208,1.587-0.326c-0.146-0.562-0.139-1.24-0.465-1.665
			c-0.938-1.24-2.012-2.378-3.13-3.663c0.927-0.592,1.652-1.057,2.444-1.562c1.036,1.554,2.003,3.002,3.215,4.814
			c0.273-3.04,0.485-5.427,0.689-7.736c1.15-0.114,1.864-0.188,2.893-0.289c-1.175-1.437-2.105-2.571-3.288-4.011
			c1.212-0.078,1.958-0.123,2.852-0.18c-1.448-3.938,3.411-2.812,3.811-5.056c0.604,0.457,1.127,0.854,1.648,1.249
			c0.775-1.028,1.551-2.053,2.317-3.068c0.062,0.425,0.147,1.04,0.262,1.844c5.92-0.285,11.669-0.566,16.948-0.824
			c0-0.559,0-1.558,0-2.554c0.901,0.355,1.828,0.657,2.696,1.073c1.069,0.506,2.094,1.105,3.705,1.971
			c-0.563-1.828-0.873-2.832-1.184-3.831c0.192-0.086,0.388-0.176,0.58-0.262c1.236,1.718,2.477,3.439,3.329,4.623
			c1.66-1.371,3.125-2.583,4.7-3.884c0.396,0.437,0.914,1.003,1.555,1.705c0.485-0.53,0.881-0.967,1.102-1.208
			c1.868-0.073,2.979,4.072,4.924,0.837c2.285-0.27,4.354-0.515,6.406-0.755c0.159,3.713,0.171,3.827-3.57,4.129
			c-3.28,0.266-6.581,0.245-9.874,0.33c-3.488,0.094-6.784,0.556-9.792,2.709c-1.559,1.118-3.663,1.522-5.573,2.085
			c-2.374,0.698-4.892,0.996-7.168,1.905c-1.665,0.666-3.709,1.702-2.232,4.301c0.11,0.191-0.154,0.669-0.338,0.946
			c-0.596,0.902-1.236,1.779-1.935,2.767c1.461,0.983,2.742,2.142,4.248,2.733c0.754,0.294,2.432-0.163,2.786-0.796
			c0.845-1.484,1.51-0.967,2.693-0.6c1.823,0.567,3.961,1.314,5.667,0.865c5.842-1.542,11.448-4.108,17.34-5.292
			c8.771-1.758,17.687-2.938,26.594-3.818c4.067-0.404,8.273,0.815,12.398,0.693c3.791-0.11,8.213,3.958,6.524,8.527
			c1.162-0.657,2.113-1.191,2.468-1.396c1.306,0.853,2.465,1.334,3.22,2.179c0.979,1.098,1.795,2.419,2.321,3.782
			c0.151,0.392-0.796,1.542-1.469,1.864c-2.379,1.126-4.814,2.183-7.312,3.011c-3.631,1.208-7.327,2.216-11.008,3.261
			c-1.456,0.412-2.941,0.722-4.423,1.032c-1.416,0.293-2.844,0.526-4.463,0.819c1.407,2.126,2.546,3.84,3.766,5.68
			c-4.998,2.836-10.498,2.521-15.725,3.346c-0.098,0.245-0.191,0.485-0.29,0.73c1.221,0.865,2.44,1.733,4.068,2.889
			c-1.611,0.697-2.546,0.954-3.293,1.477c-0.51,0.359-0.759,1.094-1.122,1.661c0.506,0.285,1.065,0.506,1.498,0.873
			c0.84,0.714,1.758,1.407,2.362,2.301c0.742,1.098,0.889,2.815,1.844,3.496c1.244,0.89,3.064,1.478,4.565,1.355
			c1.44-0.114,2.791-1.306,4.138-2.004c0.787,2.763,2.864,4.659,5.397,5.007c3.228,0.444,4.867-1.225,5.646-4.329
			c1,1.383,1.738,2.529,2.615,3.554c0.359,0.42,1.057,0.881,1.538,0.819c4.101-0.514,8.107-1.19,10.616-5.169
			c0.914-1.452,2.179-2.917,3.644-3.745c4.55-2.574,9.27-4.843,13.921-7.242c0.2-0.103,0.326-0.339,0.498-0.506
			c5.365-5.394,10.534-11.004,16.161-16.112c4.182-3.794,5.43-7.96,3.627-13.153c-1.09-3.138-0.118-6.193,1.228-8.707
			c1.624-3.031,4.035-5.626,4.582-9.209c0.054-0.354,0.343-0.84,0.645-0.967c1.779-0.73,1.869-2.187,1.815-3.786
			c-0.064-1.885,0.535-3.08,2.8-2.905c0.57,0.045,1.591-0.791,1.75-1.391c0.285-1.09,0.081-2.31,0.081-3.607
			c0.392-0.089,0.841-0.248,1.294-0.281c1.975-0.135,2.696-0.856,2.272-3.06c-0.498-2.604-0.396-5.316-0.543-7.851
			c1.31,0.612,2.326,1.09,3.342,1.567c0.33-1.184,0.808-2.347,0.955-3.55c0.175-1.428,0.024-2.893,0.094-4.337
			c0.061-1.212,0.44-2.126,1.95-1.412c1.183,0.563,1.742,0.204,1.971-1.113c0.143-0.812,0.681-1.551,1.04-2.326
			c0.897,0.575,1.844,1.09,2.685,1.742c0.914,0.71,1.677,2.146,2.595,2.22c2.208,0.18,2.33,1.334,2.338,3.048
			c0.009,2.362,1.077,4.022,3.415,5.006c1.077,0.453,2.117,1.583,2.615,2.664c0.682,1.465,1.448,2.562,3.109,2.526
			c1.534-0.033,1.941,0.742,2.007,2.052c0.078,1.559,0.808,2.477,2.493,2.604c1.689,0.126,3.027,0.677,3.484,2.688
			c0.167,0.738,1.66,1.922,1.967,1.767c2.031-1.041,2.027,0.767,2.859,1.628c1.139,1.175,2.579,2.068,3.941,3.007
			c0.51,0.351,1.424,0.318,1.718,0.755c1.302,1.93,2.93,2.215,4.198,1.514c1.632,1.351,2.986,3.374,4.162,3.272
			c3.052-0.27,4.268,2.104,6.291,3.271c0.877,0.506,1.722,1.31,2.64,1.399c0.396,0.041,0.938-1.383,1.139-1.701
			c1.999,1.542,4.398,2.803,5.933,4.749c1.664,2.113,3.777,2.46,5.997,2.938c1.726,0.372,3.48,0.604,5.223,0.882
			c2.546,0.403,5.096,0.795,8.127,1.269c-0.856-1.42-1.396-2.31-2.305-3.818c3.361,1.325,6.006,2.447,8.706,3.402
			c1.494,0.526,3.093,1.13,4.627,1.081c3.256-0.102,6.516-0.51,9.747-0.975c3.823-0.551,7.617-1.298,11.424-1.959
			c0.005-0.139,0.009-0.277,0.017-0.416c-1.542-0.318-3.084-0.637-4.627-0.955c-0.004-0.212-0.008-0.424-0.012-0.632
			c3.5-0.412,7.213-0.058,10.195-2.926c-2.293,0-4.582,0-6.874,0c-0.033-0.326-0.062-0.652-0.095-0.979
			c4.974,1.306,8.907-0.865,12.991-3.236c-1.257-0.799-2.325-1.48-3.509-2.235c1.298-0.481,2.477-0.918,3.782-1.403
			c-0.302-0.608-0.53-1.057-0.787-1.567c0.934-0.521,1.767-0.982,2.595-1.444c0-0.158,0-0.322,0-0.481
			c-2.697-1.484-5.398-2.97-8.095-4.455C592.322,363.317,592.379,363.191,592.44,363.061z M94.113,349.535
			c-0.232,0.082-0.461,0.159-0.693,0.241c-0.849-1.849-1.702-3.692-2.55-5.541C93.876,345.092,94.746,346.957,94.113,349.535z
			 M95.056,349.951c0.535-0.856,1.02-1.632,1.506-2.407c0.232-0.02,0.465-0.045,0.693-0.064c0.135,1.559,0.27,3.116,0.461,5.324
			C96.529,351.526,95.79,350.739,95.056,349.951z M470.313,210.738c0.151-0.269,0.307-0.542,0.457-0.812
			c3.443,1.946,6.888,3.896,10.335,5.843c-0.147,0.261-0.29,0.526-0.437,0.787C477.217,214.618,473.766,212.676,470.313,210.738z
			 M477.887,223.594c0.163-0.232,0.326-0.461,0.493-0.693c3.08,2.142,6.165,4.28,9.249,6.422c-0.163,0.196-0.33,0.392-0.493,0.592
			C484.047,227.805,480.967,225.699,477.887,223.594z"/>
	</g>
</g>
<g>
</g>
<g>
</g>
<g>
</g>
<g>
</g>
<g>
</g>
<g>
</g>
<g>
</g>
<g>
</g>
<g>
</g>
<g>
</g>
<g>
</g>
<g>
</g>
<g>
</g>
<g>
</g>
<g>
</g>
</svg>
