<?xml version="1.0" encoding="iso-8859-1"?>
<!-- Generator: Adobe Illustrator 16.0.0, SVG Export Plug-In . SVG Version: 6.00 Build 0)  -->
<!DOCTYPE svg PUBLIC "-//W3C//DTD SVG 1.1//EN" "http://www.w3.org/Graphics/SVG/1.1/DTD/svg11.dtd">
<svg version="1.1" id="Capa_1" xmlns="http://www.w3.org/2000/svg" xmlns:xlink="http://www.w3.org/1999/xlink" x="0px" y="0px"
	 width="568.784px" height="568.784px" viewBox="0 0 568.784 568.784" style="enable-background:new 0 0 568.784 568.784;"
	 xml:space="preserve">
<g>
	<g>
		<path d="M540.839,145.388c-11.38-10.787-23.113-21.2-34.583-31.897c-14.802-13.803-29.502-27.711-44.186-41.636
			c-1.404-1.33-2.787-2.938-3.509-4.696c-2.877-6.989-6.283-13.868-5.365-21.836c0.795-6.903-1.11-13.558-2.742-20.106
			c-0.959-3.839-2.876-7.899-5.549-10.747c-3.672-3.909-8.201-7.222-12.872-9.906c-3.183-1.828-7.201-2.276-10.902-3.101
			c-8.225-1.828-16.613-1.404-24.953-1.449c-1.489-0.008-3.072,0.306-4.451,0.869c-2.55,1.041-4.978,1.367-7.825,1.342
			c-2.917-0.024-5.908,2.007-8.769,3.35c-1.913,0.898-3.729,2.048-5.454,3.276c-1.967,1.399-4.027,2.795-5.618,4.574
			c-4.513,5.043-9.05,10.102-13.097,15.512c-2.673,3.57-4.603,7.715-6.663,11.706c-0.388,0.75,0.171,1.995,0.314,3.137
			c-1.167,0.763-2.298,1.502-3.493,2.285c2.188,2.399,1.693,4.77-0.18,6.94c3.37,3.26,3.334,3.24,1.298,6.969
			c-0.648,1.187-1.139,2.48-1.538,3.778c-0.596,1.946,0.065,3.162,2.562,2.893c-0.396,1.722-0.751,3.031-0.991,4.361
			c-0.217,1.191-0.812,2.64-0.38,3.574c2.803,6.075,0.135,12.64,1.942,18.878c0.869,2.999,0.302,6.377,1.57,9.584
			c1.146,2.897-1.15,7.071-3.953,8.789c-0.494,0.302-1.139,0.645-1.661,0.579c-11.469-1.457-22.31,1.967-32.652,5.732
			c-8.11,2.95-16.825,4.941-24.06,10.367c-3.194,2.399-7.168,3.962-11.008,5.251c-4.439,1.489-9.159,2.122-13.688,3.378
			c-5.704,1.579-11.641,2.77-16.924,5.284c-8.462,4.027-17.528,6.067-26.218,9.261c-8.694,3.195-17.201,6.903-25.814,10.318
			c-3.66,1.453-7.417,2.652-11.069,4.117c-4.231,1.697-8.625,3.166-12.546,5.431c-8.841,5.1-17.071,11.098-24.615,18.034
			c-3.57,3.28-7.107,6.891-11.314,9.115c-5.442,2.88-11.391,5.667-17.385,6.417c-8.107,1.02-15.594,3.652-23.211,6.047
			c-13.146,4.129-26.61,5.953-40.319,6.891c-10.306,0.706-20.555,2.313-30.816,3.631c-1.383,0.18-2.689,0.983-4.019,1.494
			c0.743,2.493,2.509,2.199,3.9,2.342c8.328,0.857,16.663,1.64,24.999,2.411c3.925,0.363,7.854,0.657,12.672,1.053
			c-1.375,0.795-1.991,1.277-2.693,1.538c-4.704,1.754-9.409,3.505-14.146,5.166c-1.869,0.653-3.292,1.55-3.419,4.235
			c4.015,1.51,8.176,3.072,12.338,4.635c0.021,0.306,0.045,0.612,0.069,0.918c-3.402,0.898-6.81,1.787-10.208,2.697
			c-1.905,0.51-3.917,0.93-3.815,3.92c1.302-0.098,2.44-0.184,3.583-0.269c0.049,0.31,0.208,0.653,0.106,0.775
			c-0.743,0.885-1.391,2.02-2.358,2.509c-1.628,0.824-2.003,2-2.138,3.656c-0.151,1.914-0.669,3.803-1.134,6.271
			c1.742,0.065,3.195,0.229,4.635,0.147c2.428-0.135,4.859-0.673,7.275-0.596c4.357,0.135,8.707,0.539,13.043,0.979
			c0.755,0.077,1.424,0.922,2.154,1.379c1.763,1.102,3.46,2.921,5.329,3.129c5.222,0.575,9.788,3.027,14.725,4.357
			c1.469,0.396,2.934,0.799,4.806,1.306c-0.281,2.962,1.958,4.214,4.325,5.149c4.345,1.717,8.695,4.276,13.174,4.603
			c6.353,0.456,11.216,4.186,16.94,5.875c1.942,0.571,3.419,2.758,5.083,4.234c2.525,2.236,4.125,5.056,5.047,8.658
			c3.264-1.424,5.377,0.693,7.756,2.179c1.648,1.032,3.456,1.808,5.186,2.705c3.99,2.061,7.907,4.275,11.987,6.145
			c3.398,1.559,6.94,2.86,10.501,4.002c4.729,1.519,9.515,2.909,14.333,4.104c4.271,1.062,8.601,2.024,12.958,2.562
			c3.154,0.388,4.092,2.171,4.406,4.814c0.126,1.057,0.42,2.175,0.216,3.179c-0.983,4.814,0.693,9.017,2.909,13.06
			c1.154,2.105,0.971,4.048,0.057,6.104c-3.889,8.76-7.952,17.397-13.109,25.541c-2.815,4.443-4.439,9.331-2.375,15.076
			c2.762,7.694,4.839,15.658,6.846,23.603c3.489,13.814,6.736,27.69,10.012,41.562c1.816,7.683,3.57,15.382,5.174,23.113
			c0.767,3.696,2.395,7.344,2.799,10.828c0.477,4.125,2.672,8.482,0.078,13.057c-1.396,2.46-1.146,6.752-1.359,9.47
			c-0.318,4.104-0.885,8.711-0.184,12.758c1.55,8.936,4.978,16.116-3.549,22.864c-5.896,4.663-13.231,7.487-19.796,11.351
			c-1.775,1.045-3.292,2.518-5.398,4.382c-0.967,0.853-0.743,1.734,0.539,1.885c8.152,0.963,13.301-1.917,17.952-6.312
			c11.216-10.592,27.858-10.146,41.338-5.287c7.76,2.799,14.99,7.784,22.914,9.184c6.544,1.154,15.916-3.211,21.489-2.183
			c1.265,0.232,1.722-0.127,1.073-1.24c-3.174-5.447-6.495-6.247-15.014-5.39c-10.114,1.016-19.409-0.824-28.262-8.479
			c-0.975-0.841-0.681-1.57,0.608-1.57h33.338c1.289,0,2.077-0.49,1.762-1.098c-0.314-0.604-0.824-2.171-0.453-3.407
			c0.51-1.714,2.248-3.615,7.658-2.754c1.273,0.204,1.501-0.221,0.469-0.991c-3.652-2.718-8.988-5.463-12.591-4.55
			c-6.728,1.702-13.015,5.056-19.682,7.083c-7.087,2.158-12.101,0.522-15.639-4.953c-0.698-1.081-0.159-1.697,1.114-1.497
			c4.712,0.738,7.079-1.44,7.352-5.888c0.078-1.285,1.012-2.276,2.301-2.211c0.873,0.045,1.726,0.09,2.64,0.135
			c1.285,0.064,1.587-0.616,0.592-1.437c-8.074-6.618-13.375-2.33-18.425,5.174c-1.632,2.423-2.991-0.927-2.746-2.457
			c0.204-1.265,1.253-2.305,2.146-3.125c2.293-2.113,5.691-3.149,8.568-4.157c2.489-0.873,13.497-2.962,12.183-7.295
			c-0.951-3.138-2.231-6.173-3.639-10.009c0.359-3.019,0.689-7.05,1.351-11.028c1.073-6.442,2.35-12.852,3.574-19.27
			c0.983-5.148,0.592-10.191-1.407-15.015c-2.412-5.826-5.651-11.265-7.654-17.312c-2.77-8.359-6.552-16.413-8.882-24.875
			c-1.729-6.292-3.142-12.583-6.43-18.283c0.359-4.863-1.828-9.131-3.268-13.549c-2.35-7.222-4.949-14.366-7.348-21.571
			c-1.437-4.309-3.219-8.609-3.823-13.048c-0.347-2.559,1.122-5.492,2.26-8.042c0.359-0.804,2.607-1.591,3.444-1.203
			c3.313,1.534,5.646-0.339,7.797-2.044c1.909-1.514,3.762-1.979,6.128-2.313c3.439-0.486,7.405,0.518,10.266-2.697
			c0.449-0.506,1.987-0.171,2.99-0.028c3.26,0.478,6.202-0.049,9.062-1.865c1.448-0.913,3.39-1.387,5.125-1.432
			c2.692-0.073,5.394,0.465,8.099,0.592c1.489,0.069,2.991-0.139,4.484-0.277c0.547-0.054,1.448-0.53,1.559-0.371
			c1.877,2.655,4.198,0.84,6.292,0.636c5.283-0.506,10.567-1.057,15.826-1.767c12.591-1.705,24.627-5.116,35.766-11.461
			c4.447-2.533,9.363-4.268,13.758-6.879c7.703-4.577,15.328-9.326,22.668-14.455c3.305-2.31,6.01-5.569,8.711-8.638
			c5.912-6.724,11.669-13.586,17.43-20.441c1.069-1.269,1.999-2.701,2.75-4.182c1.591-3.149,3.398-5.553,7.564-5.328
			c1.281,0.069,3.035-1.449,3.917-2.701c1.375-1.95,2.501-4.207,3.162-6.495c0.967-3.35,1.415-6.851,2.117-10.282
			c0.298-1.448,0.686-2.873,1.126-4.692c1.322,0.636,2.216,1.069,3.354,1.616c0.208-0.286,0.637-0.616,0.698-1
			c0.763-4.798,1.636-9.584,2.162-14.406c0.938-8.617,1.705-17.254,2.46-25.892c0.437-5.002,0.723-10.021,1.041-15.031
			c0.338-5.3,0.114-10.702,1.121-15.871c0.723-3.713,1.257-7.54,2.787-11.196c2.469-5.908,4.211-12.134,4.402-18.649
			c0.008-0.302,0-0.616-0.069-0.906c-1.073-4.333-2.154-8.662-3.297-13.228c0.56-0.151,1.334-0.355,2.261-0.6
			c-1.526-8.364-4.309-16.279-7.752-24.484c1.55-0.424,2.807-1.073,4.063-1.061c6.944,0.057,13.9,0.123,20.828,0.535
			c2.004,0.118,4.089,1.126,5.884,2.166c11.897,6.883,22.632,15.386,33.436,23.835c11.387,8.903,23.28,17.157,34.904,25.753
			c6.365,4.705,12.619,9.556,18.96,14.292c1.701,1.273,3.484,2.46,5.316,3.537c1.726,1.016,3.586,1.677,6.218,0.502
			c-0.788-1.73-1.253-3.68-2.396-5.08C548.586,153.939,545.008,149.341,540.839,145.388z M219.134,484.477
			c-1.84-4.414-2.081-6.381-1.306-9.8c1.722-0.176,3.444-0.355,5.312-0.547c1.232-1.579,2.387-3.415,3.896-4.884
			c1.448-1.412,2.228-3.774,4.875-4.333C229.024,472.666,223.476,478.002,219.134,484.477z M235.336,498.1
			c0.494,4.19-0.889,7.724,0.037,10.237c1.452,3.94-1.469,9.828-3.317,12.558c-2.395-2.183-2.472-9-1.787-11.416
			C231.305,505.84,233.321,502.482,235.336,498.1z M217.584,396.023c3.342,11.881,7.968,23.362,10.914,35.353
			c1.412,5.749,2.688,11.534,3.929,17.324c0.645,3.007-0.171,5.732-2.24,8.013c-2.044,2.253-4.304,4.321-6.209,6.68
			c-2.665,3.296-5.537,6.54-6.214,10.979c-0.873-1.64-2.101-3.202-2.469-4.948c-3.509-16.639-6.878-33.306-10.241-49.977
			c-0.681-3.374-1.481-6.679-0.653-10.273c1.077-4.659,1.428-9.481,2.318-14.194c0.645-3.427,0-6.271-2.607-8.662
			c-2.105-1.93-2.497-4.569-1.975-7.095c0.673-3.256,1.856-6.409,2.942-9.567c0.293-0.861,1.016-1.575,1.771-2.697
			c1.2,2.403,2.362,4.223,3.056,6.206C212.57,380.748,215.409,388.295,217.584,396.023z M369.535,13.151
			c-0.098-0.388-0.199-0.775-0.298-1.163c1.024-0.143,2.053-0.282,3.076-0.424c0.045,0.179,0.09,0.359,0.135,0.539
			C371.474,12.453,370.503,12.8,369.535,13.151z"/>
	</g>
</g>
<g>
</g>
<g>
</g>
<g>
</g>
<g>
</g>
<g>
</g>
<g>
</g>
<g>
</g>
<g>
</g>
<g>
</g>
<g>
</g>
<g>
</g>
<g>
</g>
<g>
</g>
<g>
</g>
<g>
</g>
</svg>
