<?xml version="1.0" encoding="iso-8859-1"?>
<!-- Generator: Adobe Illustrator 16.0.0, SVG Export Plug-In . SVG Version: 6.00 Build 0)  -->
<!DOCTYPE svg PUBLIC "-//W3C//DTD SVG 1.1//EN" "http://www.w3.org/Graphics/SVG/1.1/DTD/svg11.dtd">
<svg version="1.1" id="Capa_1" xmlns="http://www.w3.org/2000/svg" xmlns:xlink="http://www.w3.org/1999/xlink" x="0px" y="0px"
	 width="587.565px" height="587.565px" viewBox="0 0 587.565 587.565" style="enable-background:new 0 0 587.565 587.565;"
	 xml:space="preserve">
<g>
	<g>
		<path d="M586.923,293.246c-7.434-5.328-16.088-8.498-27.658-10.069l3.994-0.424c1.183-0.127,1.746-0.249,1.778-0.787
			c0.021-0.172-0.04-0.352-0.146-0.481c-0.126-0.151-0.27-0.318-1.645-0.384l-6.638-0.322c0.808-0.106,1.611-0.208,2.391-0.307
			c1.734-0.216,1.75-0.823,1.759-1.04c0-0.596-0.6-0.89-1.832-0.897c-0.763-0.008-1.526-0.021-2.293-0.032
			c-1.175-0.021-2.351-0.041-3.525-0.041c-1.942,0-3.524,0.053-4.989,0.171c-1.865,0.155-2.754-0.306-3.484-1.827
			c-1.204-2.502-1.624-5.063-1.29-7.83c0.898-7.389-0.22-13.925-3.312-19.429c-1.358-2.428-3.313-4.753-5.643-6.72
			c-4.174-3.537-7.1-7.377-8.939-11.738c-0.44-1.036-1.163-1.987-1.971-2.607c-3.978-3.056-8.515-4.435-13.688-4.215
			c-0.579,0.024-1.167,0.037-1.758,0.037c-3.685,0-6.871-0.489-9.47-1.448c-6.341-2.346-13.093-3.488-20.646-3.488
			c-3.32,0-6.776,0.216-10.562,0.661c-15.606,1.836-31.886,6.776-51.232,15.544c-3.456,1.567-6.903,3.285-10.241,4.941
			c-2.403,1.191-4.807,2.391-7.226,3.541c-0.734,0.347-1.771,0.485-2.46,0.318c-9.649-2.338-19.69-1.836-30.086,1.518
			c-4.501,1.444-8.903,0.771-13.077-2.003c-29.58-19.682-61.419-29.661-94.635-29.661c-1.738,0-3.484,0.028-5.239,0.081
			c-23.395,0.718-45.92,6.862-66.94,18.262c-10.632,5.766-19.417,11.371-26.851,17.137c-6.124,4.753-11.33,10.845-16.369,16.74
			l-1.089,1.272c-9.511,11.102-17.259,23.35-23.028,36.398c-1.726,3.9-4.125,7.732-7.124,11.379
			c-0.355,0.428-1.028,0.885-1.412,1.02c-0.486,0.172-0.812,0.34-1.032,0.531c-0.767,0.656-1.11,1.432-1.485,2.277
			c-0.253,0.574-0.53,1.031-0.571,1.084c-0.085,0.086-0.151,0.191-0.277,0.404c-0.139,0.225-0.338,0.547-0.579,0.848
			c-0.408,0.512-0.938,1-1.632,1.502c-4.312,3.105-8.67,5.855-12.954,8.172c-3.966,2.154-10,5.068-16.259,6.695
			c-2.909,0.748-5.532,1.172-7.813,1.262c-1.204,0.057-2.354,0.049-3.448-0.057c-1.126-0.111-2.167-0.303-3.174-0.58
			c-1.191-0.334-2.195-0.719-3.154-1.211c-1.118-0.584-2.24-1.318-3.337-2.191c-0.995-0.764-2.06-1.791-3.452-3.334l-1.914-2.365
			c-0.041-0.051-0.089-0.107-0.155-0.16l-2.428-3.656c-0.147-0.232-0.298-0.484-0.453-0.742l-0.388-0.641
			c-0.29-0.457-0.547-0.918-0.804-1.383l-0.241-0.424c-0.184-0.322-0.372-0.645-0.543-0.988c-0.979-1.811-1.864-3.713-2.627-5.65
			c-1.518-3.852-2.411-7.594-2.656-11.121c-0.257-3.607,0.191-7.121,1.342-10.441c1.22-3.44,3.264-6.708,5.92-9.446
			c2.713-2.844,6.206-5.246,10.098-6.956c3.954-1.718,8.176-2.652,12.224-2.709l0.596-0.004c1.795,0,3.644,0.188,5.483,0.559
			c0.498,0.103,0.979,0.221,1.457,0.343l0.367,0.102c0.192,0.058,0.522,0.155,0.734,0.237c0.225,0.086,0.42,0.146,0.661,0.225
			l1.546,0.473c0.62,0.184,1.252,0.355,1.869,0.519c0.542,0.15,0.971,0.229,1.403,0.31l0.767,0.144
			c0.396,0.073,0.792,0.146,1.188,0.195c4.022,0.551,8.18,0.47,12.24-0.221c3.558-0.611,7.144-1.664,10.649-3.129
			c3.133-1.302,6.124-2.909,9.155-4.908c2.754-1.819,5.377-3.893,7.797-6.157c4.847-4.532,8.719-9.637,11.518-15.177
			c2.917-5.753,4.521-11.897,4.651-17.769c0.147-5.729-1.114-11.481-3.655-16.643c-1.151-2.306-2.518-4.513-4.068-6.568
			c-1.673-2.143-3.231-3.88-4.749-5.309c-2.921-2.819-6.198-5.353-10.021-7.748c-3.084-1.917-6.288-3.643-9.506-5.116
			c-0.514-0.257-1.037-0.481-1.551-0.698l-1.407-0.608c-0.474-0.204-0.938-0.412-1.416-0.6l-1.432-0.563
			c-0.885-0.347-1.738-0.686-2.566-0.983c-4.618-1.713-8.388-2.787-11.138-3.57l-3.888-1.028c-0.363-0.094-0.51-0.106-0.608-0.106
			c-0.286,0-0.592,0.22-0.649,0.502c-0.114,0.542,0.417,0.775,0.8,0.942l3.595,1.607c2.562,1.2,6.067,2.844,10.253,5.218
			c0.743,0.408,1.493,0.857,2.269,1.322l1.305,0.775c0.384,0.232,0.763,0.478,1.146,0.722l1.338,0.853
			c0.429,0.273,0.869,0.551,1.31,0.873c2.75,1.844,5.427,3.901,7.964,6.108c2.999,2.636,5.459,5.268,7.528,8.05
			c1,1.293,1.975,2.823,3.068,4.798c0.881,1.681,1.616,3.46,2.183,5.279c1.106,3.709,1.318,7.605,0.6,11.27
			c-0.71,3.717-2.419,7.486-4.941,10.914c-2.473,3.374-5.773,6.475-9.539,8.976c-3.888,2.578-8.107,4.435-12.199,5.373
			c-2.068,0.474-4.084,0.714-5.989,0.714h-0.159c-1.816-0.012-3.611-0.306-5.19-0.844c-0.09-0.033-0.18-0.069-0.261-0.106
			c-0.094-0.041-0.188-0.082-0.281-0.114l-0.212,0.575l-0.004-0.657c-0.037-0.012-0.123-0.073-0.249-0.154
			c-0.016-0.009-0.151-0.086-0.167-0.09l-1.069-0.522c-0.045-0.045-0.098-0.082-0.155-0.106l-1.657-0.812
			c-0.894-0.412-1.791-0.808-2.713-1.18c-3.705-1.473-7.544-2.529-11.404-3.137c-7.613-1.24-15.696-0.906-23.57,0.975
			c-4.022,0.983-7.846,2.293-11.346,3.9c-1.983,0.877-3.852,1.894-5.435,2.778c-1.555,0.918-3.382,2.032-5.173,3.334
			c-3.317,2.354-6.479,5.148-9.4,8.299c-2.828,3.06-5.394,6.52-7.63,10.294c-4.292,7.286-7.087,15.675-8.086,24.244
			c-0.942,7.73-0.575,15.863,1.098,24.17c0.743,3.695,1.718,7.385,2.905,10.949c0.22,0.707,0.461,1.389,0.706,2.07l0.191,0.537
			c0.311,0.861,0.621,1.727,0.951,2.559l0.322,0.816c0.221,0.562,0.437,1.117,0.69,1.713l2.611,5.889
			c0.033,0.068,0.123,0.252,0.204,0.395l1.808,3.477c0.416,0.75,0.853,1.498,1.285,2.244l0.151,0.258
			c2.301,3.834,4.476,6.924,6.826,9.717c2.685,3.225,5.61,6.178,8.699,8.785c3.15,2.656,6.634,5.055,10.351,7.127
			c3.545,1.98,7.328,3.66,11.249,4.998c3.566,1.209,7.364,2.164,11.285,2.828c3.627,0.611,7.234,0.984,10.73,1.098
			c3.325,0.119,6.552,0.057,9.915-0.168c2.929-0.203,5.887-0.537,9.053-1.016c2.591-0.404,5.288-0.918,8.246-1.574
			c4.823-1.105,9.646-2.473,14.341-4.072c3.872-1.305,7.744-2.787,11.84-4.516c1.697-0.719,3.084-0.752,4.431-0.785
			c1.338-0.027,2.726-0.061,4.248-0.811c1.656-0.816,3.443-1.918,5.455-3.375c0.49-0.359,1.387-0.896,1.975-1.139
			c5.357-2.193,11.604-3.26,19.139-3.26c2.799,0,5.275,1.299,7.356,3.848c1.273,1.566,3.101,3.02,5.427,4.33
			c2.839,1.594,5.777,3.125,8.617,4.605c2.505,1.305,5.01,2.611,7.483,3.975c3.505,1.938,7.45,4.357,9.841,8.551
			c0.632,1.113,1.812,1.832,2.95,2.529c0.583,0.355,1.179,0.719,1.669,1.119c1.053,0.855,2.085,1.787,3.17,2.77l0.693,0.625
			c0.792,0.721,1.954,0.416,2.313-0.584l0.8-2.244c0.11-0.322,0.477-0.514,0.836-0.412c0.637,0.184,1.286,0.352,1.938,0.521
			c3.375,0.887,6.863,1.805,9.478,4.611c0.339,0.359,0.783,0.566,1.232,0.566c0.514,0,0.967-0.264,1.248-0.727
			c1.314-2.189,1.257-4.602,1.094-6.693c-0.008-0.09,0.004-0.145,0.004-0.16c0.024,0,0.078,0.008,0.155,0.045l11.73,5.201
			c0.632,0.277,1.171,0.168,1.432-0.244c0.139-0.217,0.245-0.596-0.037-1.188l-4.015-8.416l7.581,3.246
			c0.996,0.43,2.105-0.174,2.228-1.203c0.286-2.529-0.836-4.891-1.849-6.67c-1.13-1.992-2.285-3.971-3.435-5.949
			c-1.82-3.133-3.705-6.373-5.471-9.604c-0.167-0.311,0.11-1.457,0.591-2.082c4.549-5.973,10.253-10.672,16.949-13.965
			c8.947-4.402,18.188-6.178,28.233-5.459c7.854,0.57,15.532,1.08,23.141,1.08c5.549,0,10.555-0.27,15.309-0.824
			c1.677-0.195,3.187-0.391,4.688-0.783c5.949-1.555,12.093-1.506,19.604,0.188c4.015,0.902,8.119,1.682,12.089,2.438
			c3.859,0.734,7.854,1.488,11.746,2.357c1.869,0.42,3.705,1.297,5.484,2.15c0.697,0.334,1.391,0.664,2.089,0.971
			c0.514,0.229,1.003,0.648,1.559,1.127c8.245,7.098,16.671,12.084,25.761,15.238c5.605,1.945,10.196,6.092,14.056,9.824
			c2.473,2.391,5.275,4.504,7.984,6.545c1.31,0.986,2.624,1.975,3.9,2.998c0.931,0.742,1.82,1.518,2.795,2.363l0.371,0.326
			c0.738,0.637,2.036,0.689,2.729,0.09c1.518-1.318,2.371-3.143,3.256-5.211c0.127-0.293,0.47-0.441,0.768-0.297l8.857,4.1
			c0.604,0.277,1.175,0.184,1.489-0.221c0.155-0.203,0.31-0.574,0.151-1.162l-2.016-7.512c-0.033-0.119-0.021-0.191,0-0.217
			c0.02-0.027,0.102-0.076,0.298-0.076l0.367,0.004c0.444,0,0.901-0.018,1.358-0.037c0.448-0.016,0.901-0.037,1.354-0.037
			c1.195,0,2.583,0.123,3.794,1.037c0.906,0.689,2.069,0.334,2.261-0.686c0.469-2.453-0.955-5.283-4.484-8.924l3.162-0.424
			c0.543-0.074,1.028-0.383,1.302-0.832c0.253-0.412,0.302-0.885,0.143-1.33c-0.885-2.502-3.663-5.762-6.25-6.451l-0.314-0.086
			c-4.655-1.232-9.462-2.508-14.26-3.48c-1.51-0.305-3.068-0.346-4.577-0.387c-1.037-0.029-2.109-0.057-3.142-0.172
			c-3.122-0.35-3.525-0.713-4.346-3.855c-0.812-3.113-1.632-6.223-2.578-9.791l0.045,0.023c0.742,0.434,1.33,0.775,1.799,1.209
			c2.081,1.896,4.533,2.695,6.871,3.35c2.782,0.773,5.573,1.729,8.27,2.646c2.036,0.693,4.068,1.389,6.124,2.02
			c1.534,0.471,3.162,0.6,4.737,0.723l0.416,0.033c0.979,0.082,1.971,0.061,3.109,0.045l0.477-0.008
			c1.013-0.014,1.832-0.846,1.832-1.846v-4.463c0-0.086,0.013-0.139,0.004-0.15c0.025,0,0.082,0.012,0.168,0.061
			c5.724,2.975,11.632,3.607,16.74,3.836c0.506,0,0.942-0.209,1.199-0.576c0.253-0.371,0.298-0.861,0.118-1.346l-2.064-5.574
			c-0.032-0.09-0.036-0.146-0.041-0.162c0.041,0,0.18-0.008,0.18-0.008l4.346,0.551c1.109,0.154,2.036-0.666,2.056-1.658
			c0.033-2.346-1.138-4.957-3.582-7.988c-0.098-0.121-0.139-0.256-0.118-0.379c0.021-0.119,0.094-0.221,0.221-0.297l2.325-1.445
			c0.465-0.289,0.742-0.734,0.763-1.225c0.017-0.469-0.208-0.914-0.62-1.215c-2.239-1.645-4.908-2.26-7.887-1.816
			c-2.031,0.311-3.623-0.082-5.463-1.33c-4.32-2.934-9.388-4.295-15.94-4.295c-2.477,0-4.937,0.188-6.802,0.35l-1.158,0.107
			c0.693-0.516,1.362-1.004,2.064-1.441c6.634-4.117,11.975-9.76,17.136-15.215c1.71-1.803,3.477-3.668,5.255-5.445
			c4.488-4.473,9.404-8.508,14.048-12.199c1.224-0.977,2.771-1.576,4.333-2.061c-1.611,1.533-3.313,2.994-4.978,4.414
			c-3.925,3.357-7.984,6.83-10.853,11.4c-0.229,0.357-0.412,0.746-0.213,1.105c0.106,0.191,0.352,0.334,0.575,0.334
			c0.258,0,0.494-0.131,0.841-0.465c1.105-1.057,2.203-2.127,3.301-3.195c3.766-3.668,7.65-7.457,11.954-10.623
			c-1.272,1.373-2.542,2.748-3.831,4.107l-0.637,0.674c-1.391,1.465-2.831,2.979-4.141,4.594c-0.245,0.297-0.547,0.674-0.351,1.086
			c0.098,0.211,0.334,0.357,0.57,0.357c0.241,0,0.437-0.109,0.82-0.447l3.432-3.049l-10.208,10.336
			c-0.8,0.814-1.017,1.57-0.575,2.014c0.114,0.119,0.416,0.234,0.579,0.234c0.583,0,1.212-0.539,1.452-0.768l16.189-15.373
			l-2.741,3.26l-8.246,8.939c-0.232,0.252-0.767,0.9-0.742,1.48c0.008,0.221,0.098,0.416,0.249,0.551
			c0.114,0.102,0.375,0.199,0.53,0.199c0.596,0,1.207-0.641,1.444-0.918l7.857-9.213l3.84-3.766l-9.76,12.701
			c-0.763,0.984-0.914,1.588-0.498,1.951c0.114,0.098,0.298,0.17,0.449,0.17c0.146,0,0.53,0,1.403-0.982l9.425-10.648l-2.142,3.59
			c-0.653,1.098-0.563,1.469-0.53,1.592c0.04,0.162,0.167,0.334,0.313,0.416c0.09,0.053,0.225,0.086,0.331,0.086
			c0.163,0,0.551,0,1.387-1.127l5.002-6.723l-1.603,4.482c-0.429,1.209-0.396,1.787,0.109,2.004c0.078,0.033,0.18,0.057,0.266,0.057
			c0.188,0,0.588,0,1.313-1.293l0.494-0.885c0.918-1.637,1.86-3.334,2.929-4.893c0.348-0.51,1.343-1.008,2.045-1.008
			c3.251,0.078,6.715,0.299,10.909,0.697c0.886,0.086,1.759,0.396,2.681,0.723l0.768,0.266c6.512,2.199,13.158,2.451,19.702,0.746
			c3.762-0.982,6.634-3.158,8.543-6.459c1.18-2.039,1.865-2.398,2.86-2.398c0.522,0,1.184,0.119,2.138,0.387l0.849,0.242
			c1.91,0.537,3.885,1.098,5.9,1.518c0.212,0.045,0.383,0.064,0.514,0.064c0.285,0,0.669-0.24,0.734-0.518
			c0.127-0.566-0.474-0.854-0.767-0.992l-3.827-1.828l14.631,3.791c0.285,0.078,0.995,0.25,1.321,0.25
			c0.225,0,0.494-0.139,0.601-0.336c0.085-0.154,0.094-0.342,0.04-0.51c-0.077-0.203-0.139-0.379-1.436-0.906l-7.23-2.938
			l13.705,3.918c0.474,0.135,0.918,0.211,1.22,0.211c0.485,0,0.689-0.225,0.779-0.428c0.065-0.15,0.065-0.367,0-0.518
			c-0.049-0.119-0.195-0.475-1.383-0.947l-18.005-7.201l5.059,0.383c0.257,0.021,0.502,0.029,0.706,0.029
			c0.429,0,1.081,0,1.195-0.604c0.098-0.681-0.665-0.873-1.673-1.057l-3.447-0.637c9.543-0.432,18.846,1.987,29.73,7.618
			c0.425,0.221,0.592,0.262,0.743,0.262c0.265,0,0.526-0.18,0.604-0.434C587.689,293.797,587.282,293.504,586.923,293.246z"/>
	</g>
</g>
<g>
</g>
<g>
</g>
<g>
</g>
<g>
</g>
<g>
</g>
<g>
</g>
<g>
</g>
<g>
</g>
<g>
</g>
<g>
</g>
<g>
</g>
<g>
</g>
<g>
</g>
<g>
</g>
<g>
</g>
</svg>
