<?xml version="1.0" encoding="iso-8859-1"?>
<!-- Generator: Adobe Illustrator 16.0.0, SVG Export Plug-In . SVG Version: 6.00 Build 0)  -->
<!DOCTYPE svg PUBLIC "-//W3C//DTD SVG 1.1//EN" "http://www.w3.org/Graphics/SVG/1.1/DTD/svg11.dtd">
<svg version="1.1" id="Capa_1" xmlns="http://www.w3.org/2000/svg" xmlns:xlink="http://www.w3.org/1999/xlink" x="0px" y="0px"
	 width="577.807px" height="577.807px" viewBox="0 0 577.807 577.807" style="enable-background:new 0 0 577.807 577.807;"
	 xml:space="preserve">
<g>
	<g>
		<path d="M571.373,346.904c-0.942,0.151-1.885,0.303-2.827,0.453c-4.974-2.994-10.069-5.789-15.031-8.809
			c-10.384-6.324-20.359-13.419-31.126-18.988c-2.574-1.33-5.198-2.55-7.854-3.68c-1.848-1.991-4.21-3.419-7.005-3.831
			c-1.86-0.273-3.717-0.547-5.577-0.82c-6.916-2.224-13.986-4.035-21.103-5.721c-15.928-3.766-31.75-8.258-48.144-9.037
			c-14.492-0.689-29.037-0.534-43.554-0.261c-2.828-4.264-7.712-7.038-13.179-7.23c-40.657-1.439-79.992,10.225-119.463,18.136
			c-4.631,0.927-9.27,1.815-13.929,2.595c-1.966,0.331-3.933,0.649-5.904,0.947c-3.162,0.298-6.328,0.583-9.482,0.93
			c-4.676,0.515-9.359,0.959-14.043,1.38c-0.481,0.045-0.958,0.073-1.44,0.105c-1.498,0.065-2.995,0.118-4.492,0.151
			c-8.364-0.009-16.618-1.493-24.708-3.289c-5.067-1.126-10.041-2.701-14.982-4.395c8.658-8.968,16.704-18.592,22.208-29.714
			c7.438-15.031,10.874-32.596,5.476-48.765c-0.037-0.318-0.094-0.628-0.208-0.918c-1.453-3.753-3.02-7.674-5.476-10.796
			c-9.27-11.787-21.318-18.812-36.32-21.326c-13.076-2.19-25.969-2.231-38.997-0.199c-10.318,1.611-20.693,2.827-31.016,4.414
			c-6.557,1.008-13.019,2.946-19.596,3.395c-5.377,0.371-10.89-0.648-16.299-1.396c-9.139-1.256-17.348-4.879-25.329-9.551
			c-4.635-2.713-10.127-4.17-15.41-5.504c-5.235-1.322-7.206,0.367-6.381,5.536c2.146,13.46,7.674,25.292,17.197,35.346
			c13.244,13.981,30.188,18.657,48.45,20.053c18.691,1.428,37.401,1.478,56.104-0.229c5.308-0.485,10.571-0.261,15.708,2.269
			c3.251,1.6,7.25,1.689,11.15,2.505c-5.981,4.876-11.958,9.76-17.952,14.623c-8.951,7.267-14.924,16.414-17.499,27.699
			c-2.371,10.399-4.847,20.723-4.002,31.612c0.616,7.951,2.579,15.165,6.002,22.448c5.177,11.02,13.309,19.339,22.032,27.188
			c8.181,7.36,18.066,11.706,28.74,14.558c6.332,1.693,12.676,2.827,19.029,3.443c10.164,1.347,20.616,0.951,30.771-0.555
			c24.386-3.619,47.834-12.195,71.865-17.557c24.326-5.426,48.968-9.429,73.788-11.754c45.206-4.235,90.849-3.509,135.863,2.428
			c6.813,1.113,13.603,2.224,20.352,3.325c5.969,1.583,12.044,2.733,18.176,3.447c5.133,1.057,10.515,1.13,15.876,1.313
			c-0.828-0.15-1.657-0.298-2.485-0.448c4.342,0.053,8.694-0.106,13.032-0.494c3.419-0.306,5.059-3.264,4.899-5.928
			c0.18-0.069,0.355-0.123,0.535-0.2c-1.706-3.998-4.248-5.316-8.083-4.77c-2.786,0.396-5.577,0.767-8.368,1.134
			c-2.994-0.004-5.981-0.109-8.955-0.326c5.459-0.873,10.918-1.75,16.373-2.623c3.777-0.176,7.613-0.351,11.489-0.534
			c-1.343-0.254-2.677-0.47-4.007-0.666c1.804-0.289,3.603-0.575,5.406-0.864c0.416,0.302,0.828,0.616,1.231,0.954
			c1.017-0.587,1.816-1.142,2.416-1.685C580.198,354.416,577.383,345.942,571.373,346.904z"/>
	</g>
</g>
<g>
</g>
<g>
</g>
<g>
</g>
<g>
</g>
<g>
</g>
<g>
</g>
<g>
</g>
<g>
</g>
<g>
</g>
<g>
</g>
<g>
</g>
<g>
</g>
<g>
</g>
<g>
</g>
<g>
</g>
</svg>
