<?xml version="1.0" encoding="iso-8859-1"?>
<!-- Generator: Adobe Illustrator 16.0.0, SVG Export Plug-In . SVG Version: 6.00 Build 0)  -->
<!DOCTYPE svg PUBLIC "-//W3C//DTD SVG 1.1//EN" "http://www.w3.org/Graphics/SVG/1.1/DTD/svg11.dtd">
<svg version="1.1" id="Capa_1" xmlns="http://www.w3.org/2000/svg" xmlns:xlink="http://www.w3.org/1999/xlink" x="0px" y="0px"
	 width="583.783px" height="583.783px" viewBox="0 0 583.783 583.783" style="enable-background:new 0 0 583.783 583.783;"
	 xml:space="preserve">
<g>
	<g>
		<path d="M508.898,37.307c-5.794,2.734-11.273,6.504-16.21,10.621c-23.37,19.49-48.458,36.569-73.648,53.542
			c-20.184,13.603-40.444,27.124-60.127,41.424c-16.319,11.856-31.787,24.872-47.748,37.234
			c-10.963,8.491-22.746,16.026-33.06,25.227c-25.427,22.689-50.237,46.055-68.038,75.692c-2.668,4.443-6.614,8.103-9.641,12.355
			c-3.097,4.349-6.728,8.649-8.458,13.562c-3.419,9.706-8.266,18.188-16.051,24.929c-5.859,5.072-8.98,11.637-10.408,19.107
			c-1.061,5.561-4.305,9.474-8.315,13.419c-5.325,5.238-9.564,11.57-14.354,17.364c-1.685,2.04-3.346,4.108-5.035,6.145
			c-10.433,11.506-21.078,22.84-31.143,34.663c-17.988,21.135-33.86,43.583-41.91,70.694c-3.941,13.272-12.709,20.857-26.903,22.338
			c-13.346,1.396-24.382,8.319-34.5,16.646c-1.673,1.379-2.26,4.08-3.35,6.174c2.089,0.575,4.361,1.999,6.234,1.591
			c10.71-2.334,20.547,0.424,30.082,4.729c10.518,4.749,20.033,4.37,28.548-4.884c6.247,10.478,10.245,12.66,22.097,10.29
			c9.388-1.877,18.311-1.942,27.112,2.097c1.367,0.629,2.986,0.976,4.488,0.972c1.714-0.005,3.423-0.547,5.137-0.857
			c-0.433-1.733-0.31-4.019-1.396-5.1c-4.325-4.325-8.792-8.58-13.651-12.276c-5.015-3.815-10.612-6.851-15.827-10.413
			c-4.235-2.888-5.308-6.784-3.513-11.729c3.484-9.612,10.327-16.598,17.385-23.578c11.563-11.437,27.108-18.385,42.261-23.673
			c7.336-2.558,14.843-4.867,22.391-6.724c5.006-1.232,12.097-3.121,15.178,2.456c2.052,3.713,5.422,2.615,8.05,0.897
			c4.1-2.68,8.192-5.54,11.697-8.935c12.868-12.461,28.964-19.76,44.325-28.229c21.049-11.607,42.457-22.591,63.211-34.692
			c18.165-10.592,33.982-24.472,49.454-38.662c11.343-10.404,22.742-20.747,34.488-31.453c0.616,2.317,0.959,4.354,1.697,6.234
			c2.146,5.488,7.283,6.373,10.555,1.469c2.701-4.051,4.644-8.653,6.553-13.17c1.437-3.395,2.383-7.006,3.395-10.563
			c3.048-10.706,7.609-20.164,16.573-27.642c5.549-4.627,9.526-11.257,13.803-17.275c7.984-11.236,24.521-11.599,36.414-18.262
			c12.733-7.132,29.384-9.775,41.767-17.54c7.703-4.827,15.536-9.441,23.244-14.26c1.807-1.13,3.374-2.668,4.985-4.092
			c2.289-2.02,3.745-4.643,1.718-7.295c-1.812-2.371-4.223-4.337-7.813-1.975c-2.158,1.42-4.524,2.57-6.948,3.644l-3.329-4.137
			l-2.235,6.544c-1.371,0.607-2.722,1.236-4.027,1.926l-4.578-5.696l-2.831,8.315c-1.102,0.592-2.269,1.105-3.488,1.546
			l-4.655-5.786l-2.677,7.842c-1.146,0.27-2.293,0.535-3.432,0.812l-4.149-5.157l-2.423,7.104c-1.2,0.457-2.351,0.967-3.424,1.579
			c-0.053,0.029-0.114,0.053-0.175,0.078l-4.235-5.263l-1.881,5.508c-0.221,0.049-0.425,0.114-0.588,0.208
			c-2.362,1.342-6.503-0.796-8.869,0.539c-1.828,1.032-5.174-0.012-7.201,0.665c-0.278-0.49-0.556-0.979-0.833-1.469
			c4.974-4.651,9.702-9.604,14.97-13.893c11.718-9.539,23.611-18.862,35.639-28.009c3.513-2.672,7.544-4.855,11.632-6.552
			c15.863-6.593,28.115-17.715,37.887-31.343c3.265-4.553,5.227-11.285,4.974-16.895c-1.158-25.778-8.457-49.731-24.333-70.552
			C545.696,29.453,534.08,25.426,508.898,37.307z"/>
	</g>
</g>
<g>
</g>
<g>
</g>
<g>
</g>
<g>
</g>
<g>
</g>
<g>
</g>
<g>
</g>
<g>
</g>
<g>
</g>
<g>
</g>
<g>
</g>
<g>
</g>
<g>
</g>
<g>
</g>
<g>
</g>
</svg>
