<?xml version="1.0" encoding="iso-8859-1"?>
<!-- Generator: Adobe Illustrator 16.0.0, SVG Export Plug-In . SVG Version: 6.00 Build 0)  -->
<!DOCTYPE svg PUBLIC "-//W3C//DTD SVG 1.1//EN" "http://www.w3.org/Graphics/SVG/1.1/DTD/svg11.dtd">
<svg version="1.1" id="Capa_1" xmlns="http://www.w3.org/2000/svg" xmlns:xlink="http://www.w3.org/1999/xlink" x="0px" y="0px"
	 width="563.117px" height="563.118px" viewBox="0 0 563.117 563.118" style="enable-background:new 0 0 563.117 563.118;"
	 xml:space="preserve">
<g>
	<g>
		<path d="M11.928,456.739c4.802-5.61,12.272-22.469,44.411-42.894c11.873-7.531,24.586-17.911,46.606-24.68
			c2.754-0.849,5.638-1.628,8.535-2.383c-0.13,3.982-0.673,10.437-0.934,13.644c-1.2,14.573-5.223,24.513-4.459,31.71
			c-6.189,8.584-20.147,10.412-26.271,12.301c-5.508,1.686-8.282,6.969-15.793,5.635c-5.121-0.914-15.533-2.313-19.759-1.478
			c-2.975,0.601-6.94,1.478-6.643,2.367c0.2,0.583,7.764-0.522,15.651,0.954c11.575,2.183,10.375,4.496,13.228,4.659
			c6.887,0.425,10.706-5.523,14.827-6.915c10.938-3.672,29.09-9.4,29.837-14.574c5.398-2.786,5.002-19.983,5.63-27.535
			c0.453-5.187,2.093-15.112,2.876-22.289c12.852-2.824,19.98-4.015,33.167-5.112c1.983,0.632,9.449,2.859,11.179,3.382
			c0.771,0.241,1.607,0.519,2.423,0.768c-4.219,1.342-6.875,4.487-6.797,8.185c-4.892,2.546-5.153,22.893-5.475,36.124
			c-0.31,13.243-3.713,46.654-5.606,54.133c-1.86,7.463-4.627,11.714-4.627,11.714s-7.018,1.053-15.928,4.533
			c-8.923,3.477-13.945,7.585-19.045,6.548c-5.08-1.057-14.133-5.495-17.271-4.365c-2.84,1.021-7.744,4.027-6.642,4.9
			c2.003,1.579,1.587-2.897,14.737,1.113c3.635,1.086,1.75,3.24,3.031,3.999c1.29,0.75,2.248-1.481,4.925-0.445
			c2.676,1.028,1.661,3.733,4.602,3.358c2.975-0.347,0.718-2.767,16.369-8.372c7.997-2.864,19.131-3.146,19.927-8.295
			c5.333-2.053,7.601-24.183,11.126-51.44c1.885-14.525,3.24-38.63,5.145-46.562c1.795,1.514,7.071,0.408,19.188,3.513
			c7.866,1.995,32.13,9.486,39.564,11.824c7.426,2.338,19.111,4.925,22.526,3.243c1.562-0.774,4.031,0.204,6.63,1.47
			c2.179,5.744,3.57,10.04,3.57,10.04s1.465,9.638,4.66,13.979c2.676,3.668,5.883,4.88,5.883,4.88
			c-2.611,5.206,0.726,14.153,4.459,11.905c3.712-2.231-4.459-8.939,1.497-8.939c1.057,0,2.093-0.155,3.105-0.379
			c0.991,0.199,4.418,0.375,5.255,0.407c0.114,0.005,0.204,0.013,0.314,0.021c0.11-0.004,0.2-0.012,0.314-0.021
			c0.837-0.032,4.264-0.212,5.255-0.407c1.017,0.229,2.049,0.379,3.105,0.379c5.961,0-2.216,6.708,1.497,8.939
			c3.733,2.248,7.07-6.703,4.459-11.905c0,0,3.207-1.212,5.884-4.88c3.194-4.337,4.659-13.979,4.659-13.979s1.388-4.296,3.57-10.04
			c2.599-1.27,5.067-2.249,6.63-1.47c3.415,1.682,15.1-0.901,22.525-3.243c7.434-2.342,31.702-9.833,39.564-11.824
			c12.117-3.104,17.393-1.999,19.188-3.513c1.905,7.932,3.261,32.036,5.146,46.562c3.524,27.254,5.793,49.384,11.126,51.44
			c0.796,5.148,11.93,5.431,19.927,8.295c15.65,5.605,13.395,8.025,16.369,8.372c2.941,0.375,1.926-2.33,4.602-3.358
			c2.677-1.036,3.636,1.195,4.925,0.445c1.277-0.759-0.604-2.913,3.031-3.999c13.15-4.011,12.734,0.47,14.737-1.113
			c1.102-0.873-3.799-3.88-6.643-4.9c-3.138-1.13-12.195,3.309-17.271,4.365c-5.1,1.037-10.122-3.072-19.045-6.548
			c-8.911-3.48-15.929-4.533-15.929-4.533s-2.767-4.251-4.627-11.714c-1.893-7.479-5.296-40.886-5.605-54.133
			c-0.318-13.228-0.584-33.578-5.476-36.125c0.077-3.696-2.578-6.842-6.797-8.184c0.611-0.188,1.224-0.384,1.823-0.575
			c0.196-0.062,0.408-0.131,0.6-0.188c1.73-0.521,9.196-2.745,11.18-3.382c10.706,0.89,17.458,1.856,26.483,3.696
			c2.089,0.425,4.264,0.886,6.679,1.416c0.783,7.177,2.424,17.099,2.876,22.289c0.629,7.552,0.232,24.749,5.631,27.536
			c0.751,5.173,18.902,10.897,29.837,14.573c4.121,1.396,7.939,7.34,14.827,6.916c2.852-0.164,1.652-2.477,13.227-4.66
			c7.887-1.477,15.455-0.367,15.651-0.954c0.298-0.894-3.668-1.767-6.643-2.366c-4.23-0.837-14.639,0.562-19.76,1.477
			c-7.511,1.334-10.289-3.949-15.793-5.635c-6.124-1.889-20.082-3.717-26.271-12.301c0.759-7.197-3.26-17.141-4.459-31.71
			c-0.266-3.207-0.804-9.661-0.935-13.644c2.896,0.755,5.781,1.538,8.535,2.383c22.02,6.769,34.729,17.145,46.606,24.68
			c32.142,20.421,39.608,37.279,44.41,42.894c8.042,9.44,15.234,16.042,10.331,10.208c-6.333-7.532-19.421-33.33-49.731-53.782
			c-14.256-9.617-29.221-20.747-52.583-27.732c-2.424-0.722-4.9-1.383-7.426-2.027c-0.44-10.547-1.224-20.67-4.305-22.313
			c-4.944-7.177-39.653,0.926-49.282,4.279c-0.232,0.095-0.53,0.176-0.783,0.266c8.45-5.011,16.532-10.163,24.011-15.133
			c21.722-14.492,44.113-43.179,68.062-58.312c6.104-3.843,15.133-4.721,19.376,1.905c2.844,9.919-1.42,31.196-3.79,39.707
			c-2.346,8.503-3.766,17.952-3.766,23.149c0,5.211,1.42,10.878,4.736,9.923c3.293-0.946,14.651,0.013,20.258,0.849
			c5.63,0.832,13.187-6.263,15.695-8.47c0.959-0.845,2.521-1.775,3.876-2.624c1.849-0.143,3.138,0.339,3.162-0.012
			c0.021-0.318-0.901-0.727-1.652-1.021c1.224-0.909,1.652-1.587-0.298-1.718c-4.264-0.265-9.857,6.011-15.165,7.573
			c-5.309,1.546-16.896-2.13-21.633-3.089c-3.305-14.639,2.371-37.806,6.63-50.58c4.231-12.754,8.503-24.096,8.503-38.286
			c0-7.552-5.055-10.073-5.055-10.073s-3.448-3.15-10.078-0.788c-4.096,1.461-8.348,7.177-13.692,11.82
			c-10.408,8.972-33.859,27.911-48.687,37.499c-22.701,14.655-55.79,30.322-71.245,37.185
			c-16.291,7.251-36.446,19.344-49.103,29.344c1.665-4.247,3.603-7.984,6.279-10.433c8.205-7.426,28.262-14.876,44.346-25.957
			c16.115-11.081,63.488-55.145,78.458-81.779c14.981-26.646,23.791-63.599,23.925-91.119c0.123-20.343-14.691-63.02-25.598-75.35
			c-10.926-12.322-20.918-36.537-43.374-40.441c-21.755-3.791-48.377,18.703-63.501,30.196
			c-15.133,11.521-26.324,26.638-36.292,37.471c-9.458,10.253-25.691,29.886-30.241,48.866
			c-4.549-18.98-20.783-38.617-30.229-48.866c-9.967-10.832-21.159-25.953-36.292-37.471
			c-15.125-11.493-41.747-33.986-63.501-30.196c-22.46,3.904-32.448,28.119-43.374,40.441
			c-10.906,12.326-25.721,55.002-25.598,75.349c0.13,27.52,8.943,64.477,23.925,91.119c14.969,26.633,62.346,70.698,78.458,81.779
			c16.083,11.081,36.141,18.531,44.346,25.957c2.676,2.443,4.614,6.186,6.279,10.433c-12.656-10-32.815-22.098-49.103-29.344
			c-15.455-6.862-48.544-22.529-71.245-37.185c-14.827-9.588-38.278-28.527-48.687-37.499c-5.345-4.643-9.596-10.359-13.692-11.82
			c-6.63-2.362-10.078,0.788-10.078,0.788s-5.055,2.521-5.055,10.073c0,14.194,4.272,25.532,8.503,38.286
			c4.264,12.778,9.935,35.941,6.63,50.58c-4.737,0.959-16.324,4.635-21.632,3.089c-5.308-1.563-10.906-7.838-15.165-7.573
			c-1.95,0.131-1.522,0.809-0.298,1.718c-0.751,0.29-1.673,0.698-1.652,1.021c0.024,0.351,1.313-0.131,3.162,0.012
			c1.355,0.849,2.917,1.779,3.876,2.624c2.509,2.207,10.065,9.302,15.696,8.47c5.606-0.836,16.965-1.795,20.257-0.849
			c3.313,0.95,4.737-4.717,4.737-9.923c0-5.193-1.42-14.643-3.766-23.149c-2.371-8.516-6.63-29.788-3.791-39.707
			c4.239-6.626,13.272-5.748,19.376-1.905c23.946,15.133,46.341,43.823,68.062,58.312c7.479,4.974,15.565,10.122,24.011,15.133
			c-0.253-0.09-0.551-0.172-0.783-0.266c-9.625-3.354-44.333-11.456-49.282-4.279c-3.084,1.648-3.864,11.767-4.305,22.313
			c-2.521,0.645-5.002,1.306-7.425,2.027c-23.362,6.981-38.332,18.111-52.583,27.731c-30.314,20.453-43.399,46.251-49.731,53.783
			C-3.307,472.781,3.886,466.179,11.928,456.739z M442.078,371.124c0.604,2.574,1.159,6.283,1.665,10.408
			c-2.436-0.526-4.937-0.946-7.413-1.403c-5.933-1.094-11.931-2.068-17.944-2.787c5.794-1.827,11.604-3.545,16.785-4.794
			C437.635,371.96,440.002,371.442,442.078,371.124z M121.031,371.124c6.442,0.976,15.145,3.521,23.692,6.218
			c-8.527,1.021-17.095,2.411-25.357,4.19C119.873,377.411,120.427,373.698,121.031,371.124z"/>
	</g>
</g>
<g>
</g>
<g>
</g>
<g>
</g>
<g>
</g>
<g>
</g>
<g>
</g>
<g>
</g>
<g>
</g>
<g>
</g>
<g>
</g>
<g>
</g>
<g>
</g>
<g>
</g>
<g>
</g>
<g>
</g>
</svg>
