<?xml version="1.0" encoding="iso-8859-1"?>
<!-- Generator: Adobe Illustrator 16.0.0, SVG Export Plug-In . SVG Version: 6.00 Build 0)  -->
<!DOCTYPE svg PUBLIC "-//W3C//DTD SVG 1.1//EN" "http://www.w3.org/Graphics/SVG/1.1/DTD/svg11.dtd">
<svg version="1.1" id="Capa_1" xmlns="http://www.w3.org/2000/svg" xmlns:xlink="http://www.w3.org/1999/xlink" x="0px" y="0px"
	 width="594.394px" height="594.394px" viewBox="0 0 594.394 594.394" style="enable-background:new 0 0 594.394 594.394;"
	 xml:space="preserve">
<g>
	<g>
		<path d="M382.189,423.254c1.37,0.163,2.938,0.302,4.708,0.302c0.008,0,0.021,0,0.032,0c4.484-0.073,8.964-0.261,13.444-0.449
			c3.288-0.139,6.581-0.277,9.869-0.371c3.982-0.11,8.653-0.701,11.645-3.872c1.085-0.102,2.13-0.489,3.088-1.13
			c1.751,0.474,3.812,0.734,6.239,0.363c1.758-0.29,3.811,0.285,6.091,0.865c1.832,0.465,3.729,0.946,5.749,1.134
			c9.396,0.865,19.352,3.398,30.433,7.752l2.452,0.938c5.23,1.983,10.167,3.852,13.194,8.197l1.363,1.958
			c4.627,6.667,9.408,13.562,16.21,19.307c5.291,4.472,11.175,6.838,17.021,6.838l0,0c6.712,0,12.958-3.224,17.589-9.069
			c2.358-2.975,4.614-6.03,6.875-9.082l3.011-4.052c1.351-1.8,0.991-4.346-0.8-5.704l-0.918-0.693
			c-0.865-0.657-1.967-0.946-3.035-0.792c-1.077,0.147-2.049,0.723-2.701,1.596c-0.779,1.036-1.571,2.064-2.362,3.093
			c-1.791,2.329-3.582,4.663-5.234,7.087c-3.436,5.051-7.899,7.833-12.559,7.833c-4.594,0-8.988-2.713-11.461-7.082
			c-2.599-4.591-5.634-8.919-8.572-13.102c-1.366-1.946-2.733-3.888-4.051-5.858l-0.347-0.502c-0.013-0.021-0.029-0.041-0.045-0.062
			c0.008-4.606-2.86-7.001-5.545-8.584c0.478-1.632-0.11-3.387-1.469-4.406c-0.367-0.273-0.706-0.584-1.045-0.882
			c-1.105-0.975-2.48-2.194-4.414-2.7c-0.567-0.147-1.131-0.254-1.689-0.331c0.037-0.901-0.225-1.808-0.775-2.566
			c-0.775-1.064-2.003-1.677-3.288-1.681c-0.021-0.935-0.363-1.853-0.996-2.579c-0.93-1.077-2.357-1.57-3.762-1.354
			c-0.982,0.168-1.941,0.359-2.88,0.547c-1.706,0.343-3.22,0.645-4.644,0.738c-0.175-0.171-0.362-0.367-0.571-0.575
			c-0.615-0.611-1.313-1.293-2.121-1.962c-0.976-0.809-2.276-1.114-3.501-0.833l-5.65,1.281c-1.551-1.162-3.387-1.767-5.418-1.767
			c-2.53,0-4.823,0.927-6.667,1.665l-0.816,0.326c-2.921,1.122-5.626,1.375-9.53,0.845c-0.571-0.082-1.143-0.139-1.718-0.191
			l-0.147-0.478c-0.343-1.131-1.167-2.061-2.248-2.542c-1.085-0.481-2.321-0.465-3.395,0.037c-0.645,0.302-1.321,0.53-1.991,0.759
			c-0.375,0.126-0.771,0.261-1.179,0.416c-1.244-0.511-2.632-0.755-4.072-0.661c-2.072-1.285-4.708-1.914-7.98-1.914l-0.607,0.005
			c-8.177,0.171-16.353,0.379-24.545,0.583l-6.071,0.151c-1.648-8.956-5.031-20.114-13.713-28.915
			c2.293-1.763,4.292-3.913,5.928-6.382l0.302-0.184c4.819-2.974,9.556-5.899,14.35-8.727c4.019-2.366,7.969-4.639,12.064-6.405
			l2.188-0.935c6.353-2.701,12.921-5.492,18.404-10.942c2.93-2.913,6.12-5.745,9.205-8.486c2.941-2.615,5.985-5.316,8.878-8.145
			c0.922-0.905,1.962-1.722,3.007-2.55c3.61-2.864,8.486-6.724,8.589-13.835c1.297-2.102,2.565-4.215,3.839-6.337
			c2.729-4.541,5.557-9.241,8.552-13.647c12.774-18.776,24.337-24.778,40.335-21.477c2.37,0.485,5.39,0.449,8.413,0.277
			c1.081-0.065,2.166-0.126,3.235-0.13c2.08-0.008,3.822-1.579,4.043-3.648c0.225-2.068-1.146-3.97-3.174-4.418
			c-3.803-0.84-7.512-1.179-11.098-1.51c-1.502-0.134-2.995-0.269-4.492-0.444c-12.461-1.444-22.432,1.509-30.747,9.062
			c-6.137,5.573-13.056,12.493-17.85,21.567c-1.021,1.934-2.167,3.807-3.379,5.716c-1.248-0.326-2.599-0.041-3.619,0.796
			c-1.272,1.048-2.484,2.064-3.659,3.052c-2.595,2.179-5.047,4.235-7.54,6.075c-1.212,0.894-2.672,1.645-4.219,2.436
			c-0.755-0.339-1.607-0.448-2.448-0.27c-1.456,0.286-2.644,1.347-3.093,2.763l-1.754,5.491c-3.484,0.453-4.725,1.51-7.568,5.198
			c0,0-0.013,0.017-0.033,0.041c-4.427,1.636-9.828,3.725-12.55,9.771c-0.216,0.204-0.485,0.375-0.73,0.555l-0.518,0.392
			c-9.833,7.52-19.67,15.035-29.539,22.506c-0.775,0.591-1.519,1.207-2.22,1.848c-0.363,0.013-0.727,0.033-1.09,0.058
			c3.044-9.604,2.48-19.025,1.665-25.77c-0.339-2.799,0.399-4.569,2.917-7.03c2.272-2.224,4.153-4.818,5.438-7.499
			c1.18-2.464,2.22-4.989,3.256-7.52c1.229-2.982,2.383-5.805,3.774-8.506c2.464-4.802,4.606-10.057,1.469-16.81
			c-3.771-8.107-4.068-16.455-0.877-24.811c0.783-2.056-0.2-4.357-2.229-5.21c-2.027-0.857-4.361,0.049-5.287,2.04
			c-1.514,3.268-3.035,6.769-3.521,10.534c-1.053,8.172,0.045,16.149,3.228,23.624c0.077,0.314-0.024,1.089-0.18,1.371
			c-1.566,2.603-3.288,5.112-5.01,7.625c-1.416,2.069-2.832,4.142-4.17,6.255c-1.718,2.709-3.325,5.487-5.039,8.47
			c-6.675-7.025-14.745-9.233-21.995-10.714c-3.537-0.726-6.553-1.86-8.727-3.289c-1.444-0.938-2.824-2.04-4.203-3.227
			c1.171-0.175,2.338-0.355,3.509-0.53c6.985-1.057,14.207-2.146,21.294-3.534c8.241-1.611,13.66-7.413,16.104-17.25
			c1.469-5.916,2.782-11.873,4.097-17.826c0.641-2.905,1.281-5.806,1.941-8.707c2.24-9.865,0.339-17.291-5.821-22.709
			c-0.755-0.661-1.547-1.256-2.326-1.787c1.763-1.656,3.529-3.553,4.668-5.953c12.994-27.352,9.519-52.975-10.331-76.153
			c-1.113-1.302-2.334-2.416-3.558-3.46c37.051-39.478,28.548-100.291,10.519-129.919c-1.073-1.763-3.289-2.456-5.17-1.6
			c-1.877,0.849-2.827,2.966-2.211,4.933c3.301,10.583,2.819,25.79,1.24,35.72c-4.251-4.484-9.458-7.805-15.562-9.918
			c-1.615-0.567-3.415-0.053-4.496,1.277s-1.22,3.191-0.343,4.667c0.792,1.33,1.632,2.62,2.465,3.889
			c1.619,2.48,3.149,4.826,4.088,7.217c6.695,17.116,6.866,33.823,0.51,49.658c-4.773,11.901-13.974,19.257-27.34,21.86
			c-2.023,0.396-4.027,0.874-6.315,1.424l-3.469,0.816c-1.819,0.424-3.125,2.028-3.157,3.9c-0.033,1.869,1.203,3.521,3.011,4.011
			c1.918,0.522,3.725,0.967,5.446,1.396c3.403,0.84,6.349,1.57,9.095,2.615c10.526,3.998,16.006,10.045,17.246,19.025
			c1.918,13.868,0.18,27.275-5.165,39.837c-3.982,9.364-11.358,15.912-19.172,22.852l-1.967,1.759
			c-0.069-0.029-0.122-0.053-0.155-0.069c-2.994-2.493-6.36-4.133-10.028-4.888c-0.18-0.29-0.384-0.567-0.612-0.824
			c-1.15-1.306-2.778-2.028-4.586-2.028h-7.65c-1.844,0-3.497,0.75-4.655,2.105c-0.253,0.298-0.477,0.616-0.669,0.955
			c-3.313,0.824-6.356,2.382-9.037,4.618c-0.061,0.041-0.147,0.082-0.245,0.123l-1.958-1.75
			c-7.813-6.936-15.19-13.488-19.172-22.852c-5.345-12.562-7.083-25.965-5.166-39.837c1.24-8.98,6.72-15.027,17.246-19.025
			c2.75-1.045,5.696-1.775,9.099-2.615c1.722-0.425,3.529-0.874,5.447-1.396c1.803-0.49,3.043-2.142,3.011-4.011
			c-0.037-1.873-1.338-3.48-3.158-3.9l-3.468-0.816c-2.289-0.551-4.296-1.028-6.316-1.424c-13.366-2.607-22.566-9.959-27.344-21.86
			c-6.356-15.834-6.186-32.542,0.51-49.658c0.938-2.395,2.469-4.741,4.092-7.226c0.829-1.273,1.665-2.554,2.457-3.88
			c0.877-1.469,0.742-3.333-0.339-4.663c-1.081-1.334-2.889-1.84-4.496-1.281c-6.108,2.113-11.314,5.435-15.561,9.918
			c-1.579-9.931-2.061-25.137,1.24-35.72c0.612-1.967-0.339-4.084-2.211-4.933c-1.877-0.853-4.092-0.159-5.169,1.6
			c-18.029,29.629-26.528,90.441,10.519,129.919c-1.224,1.044-2.444,2.154-3.562,3.46c-19.849,23.178-23.321,48.801-10.331,76.153
			c1.138,2.399,2.905,4.296,4.667,5.953c-0.775,0.531-1.571,1.118-2.321,1.787c-6.161,5.418-8.066,12.844-5.827,22.709
			c0.661,2.901,1.297,5.802,1.942,8.707c1.313,5.953,2.627,11.91,4.096,17.826c2.444,9.833,7.862,15.639,16.104,17.25
			c7.087,1.387,14.309,2.477,21.294,3.534c1.171,0.175,2.338,0.351,3.504,0.53c-1.379,1.187-2.762,2.289-4.202,3.231
			c-2.17,1.424-5.186,2.558-8.723,3.284c-7.25,1.48-15.325,3.688-22,10.714c-1.713-2.982-3.321-5.761-5.039-8.47
			c-1.342-2.118-2.754-4.186-4.17-6.255c-1.718-2.513-3.439-5.022-5.002-7.617c-0.159-0.29-0.261-1.065-0.22-1.281
			c3.219-7.568,4.316-15.549,3.26-23.717c-0.485-3.766-2.007-7.267-3.521-10.535c-0.926-1.987-3.256-2.893-5.288-2.04
			c-2.028,0.853-3.011,3.154-2.228,5.21c3.187,8.352,2.889,16.7-0.877,24.815c-3.138,6.748-0.996,12.003,1.469,16.805
			c1.387,2.701,2.546,5.525,3.774,8.507c1.037,2.529,2.077,5.055,3.256,7.515c1.285,2.685,3.162,5.28,5.439,7.508
			c2.513,2.456,3.251,4.227,2.913,7.021c-0.816,6.748-1.379,16.169,1.665,25.773c-0.363-0.024-0.727-0.045-1.089-0.058
			c-0.702-0.641-1.444-1.265-2.22-1.848c-9.865-7.471-19.707-14.986-29.539-22.51l-0.518-0.388c-0.245-0.18-0.514-0.351-0.73-0.555
			c-2.717-6.042-8.119-8.131-12.55-9.771c-0.028-0.041-0.049-0.065-0.049-0.065c-2.832-3.668-4.068-4.721-7.552-5.178l-1.754-5.491
			c-0.449-1.416-1.636-2.473-3.093-2.763c-0.849-0.179-1.693-0.069-2.448,0.27c-1.546-0.787-3.003-1.542-4.214-2.436
			c-2.497-1.84-4.945-3.896-7.544-6.075c-1.175-0.987-2.387-2.003-3.66-3.052c-1.02-0.836-2.379-1.122-3.619-0.795
			c-1.212-1.914-2.358-3.787-3.378-5.716c-4.794-9.074-11.713-15.994-17.85-21.567c-8.315-7.56-18.274-10.514-30.751-9.062
			c-1.489,0.175-2.987,0.31-4.488,0.445c-3.586,0.33-7.295,0.669-11.098,1.509c-2.032,0.449-3.398,2.35-3.174,4.419
			c0.221,2.068,1.963,3.639,4.043,3.647c1.069,0.004,2.154,0.069,3.235,0.13c3.052,0.175,6.03,0.216,8.417-0.277
			c15.994-3.309,27.557,2.697,40.335,21.477c2.995,4.406,5.822,9.103,8.552,13.647c1.273,2.122,2.546,4.235,3.839,6.337
			c0.106,7.107,4.978,10.971,8.588,13.835c1.044,0.828,2.089,1.645,3.007,2.55c2.893,2.828,5.937,5.529,8.878,8.145
			c3.084,2.741,6.275,5.573,9.205,8.486c5.479,5.45,12.052,8.241,18.405,10.942l2.183,0.935c4.096,1.771,8.046,4.039,12.068,6.405
			c4.794,2.823,9.531,5.749,14.35,8.728l0.302,0.184c1.636,2.468,3.64,4.622,5.928,6.381c-8.682,8.801-12.068,19.959-13.713,28.915
			l-6.071-0.151c-8.193-0.204-16.369-0.412-24.542-0.583l-0.616-0.005c-3.272,0-5.904,0.625-7.98,1.914
			c-1.412-0.094-2.824,0.151-4.072,0.661c-0.404-0.151-0.8-0.286-1.179-0.416c-0.669-0.229-1.347-0.453-1.991-0.759
			c-1.069-0.502-2.305-0.519-3.395-0.037c-1.081,0.481-1.901,1.412-2.248,2.542l-0.147,0.478c-0.575,0.053-1.146,0.109-1.718,0.191
			c-3.904,0.53-6.614,0.277-9.531-0.845l-0.816-0.326c-1.844-0.743-4.141-1.665-6.667-1.665c-2.032,0-3.868,0.6-5.418,1.767
			l-5.651-1.281c-1.236-0.281-2.53,0.024-3.5,0.833c-0.808,0.669-1.501,1.351-2.122,1.962c-0.208,0.208-0.396,0.404-0.576,0.575
			c-1.416-0.085-2.929-0.396-4.643-0.738c-0.938-0.188-1.897-0.379-2.881-0.547c-1.407-0.216-2.832,0.277-3.762,1.354
			c-0.632,0.727-0.975,1.641-0.996,2.579c-1.285,0.004-2.513,0.616-3.288,1.681c-0.551,0.759-0.812,1.665-0.775,2.566
			c-0.563,0.077-1.126,0.184-1.701,0.335c-1.922,0.502-3.297,1.722-4.402,2.696c-0.339,0.298-0.677,0.604-1.044,0.882
			c-1.359,1.016-1.942,2.771-1.473,4.394c-2.546,1.481-5.553,3.872-5.541,8.593c-0.017,0.021-0.029,0.041-0.045,0.062l-0.343,0.497
			c-1.322,1.971-2.688,3.917-4.056,5.863c-2.938,4.183-5.973,8.511-8.572,13.101c-2.473,4.37-6.863,7.083-11.461,7.083
			c-4.664,0-9.119-2.782-12.558-7.833c-1.652-2.428-3.443-4.758-5.235-7.087c-0.792-1.028-1.583-2.057-2.362-3.093
			c-0.653-0.873-1.624-1.444-2.701-1.596c-1.077-0.155-2.171,0.135-3.036,0.792l-0.918,0.693c-1.791,1.358-2.15,3.904-0.8,5.704
			l3.011,4.051c2.26,3.052,4.517,6.104,6.875,9.082c4.631,5.847,10.881,9.07,17.593,9.07c5.842,0,11.73-2.366,17.021-6.838
			c6.802-5.745,11.583-12.645,16.21-19.307l1.363-1.959c3.027-4.341,7.964-6.209,13.195-8.196l2.452-0.938
			c11.085-4.354,21.041-6.887,30.437-7.752c2.016-0.188,3.913-0.669,5.745-1.134c2.285-0.58,4.309-1.155,6.096-0.865
			c2.411,0.371,4.484,0.11,6.238-0.363c0.958,0.641,2.003,1.028,3.084,1.13c2.991,3.171,7.662,3.762,11.644,3.872
			c3.293,0.09,6.581,0.232,9.87,0.371c4.48,0.188,8.96,0.38,13.815,0.453c1.534,0,3.023-0.139,4.374-0.306l0.485,2.819
			c1.396,8.099,2.815,16.332,4.158,24.573c-11.922,13.677-17.899,30.18-22.62,44.758c-0.29,0.869-0.833,2.493-0.098,4.284
			c1.669,4.06-0.085,6.364-3.892,10.775c-0.543,0.628-1.085,1.257-1.607,1.893c-0.567,0.686-1.224,1.384-1.889,2.094
			c-2.53,2.688-5.394,5.74-5.443,9.629c-0.016,1.195-0.559,1.855-2.113,3.439c-1.771,1.803-4.19,4.279-4.047,8.478
			c0.033,0.894,0.42,1.759,1.012,2.452c-0.037,0.058-0.073,0.114-0.114,0.176c-1.081,1.645-2.342,3.223-3.798,5.047
			c-0.686,0.86-1.399,1.759-2.138,2.713c-0.995,1.285-1.13,3.04-0.347,4.464c0.367,0.669,0.906,1.203,1.538,1.57
			c-0.351,1.081-0.241,2.281,0.343,3.297c0.424,0.734,1.049,1.298,1.783,1.648l-1.955,6.797c-0.371,1.285-0.085,2.677,0.767,3.713
			c0.849,1.041,2.146,1.607,3.493,1.478l0.897-0.074c0.51,1.791,1.024,3.591,1.55,5.378c0.11,0.375,0.257,0.755,0.506,1.313
			c-0.51,5.622-5.944,9.809-11.065,7.944c-3.57-1.285-6.936-3.599-10.498-6.043c-1.02-0.697-2.036-1.396-3.052-2.068
			c-2.338-1.542-4.554-3.269-6.896-5.096c-1.057-0.824-2.117-1.648-3.187-2.456c-0.865-0.649-1.942-0.935-3.031-0.784
			c-1.073,0.151-2.04,0.727-2.693,1.596l-0.689,0.926c-1.326,1.787-0.979,4.309,0.783,5.668c1.962,1.509,3.884,3.084,5.806,4.659
			c4.39,3.594,8.927,7.312,13.958,10.306c4.198,2.505,8.348,3.778,12.334,3.778c9.666,0,16.907-7.454,18.907-19.458l0.257-1.554
			c3.701-22.257,7.528-45.276,18.376-65.586c4.994-9.348,10.016-18.683,15.112-28.156l4.096-7.617
			c13.203,19.335,28.552,38.996,51,52.301c4.431,2.628,9.576,4.852,16.104,6.965c0.012,0.013,0.028,0.024,0.044,0.037
			c0.845,0.616,1.881,0.885,2.909,0.767c0.828-0.017,1.701-0.236,2.432-0.697c6.688-2.143,11.93-4.402,16.438-7.071
			c22.448-13.309,37.797-32.962,51-52.306l4.097,7.622c5.096,9.474,10.118,18.809,15.112,28.156
			c10.849,20.314,14.676,43.329,18.372,65.586l0.257,1.554c1.999,12,9.241,19.458,18.906,19.458c3.986,0,8.136-1.273,12.334-3.778
			c5.031-2.994,9.568-6.716,13.958-10.306c1.926-1.575,3.844-3.146,5.806-4.659c1.763-1.359,1.942-4.109,0.612-5.896l-0.519-0.694
			c-0.648-0.869-1.619-1.444-2.692-1.595c-1.085-0.151-2.162,0.13-3.031,0.783c-1.069,0.804-2.126,1.628-3.187,2.456
			c-2.347,1.828-4.562,3.554-6.896,5.096c-1.02,0.673-2.036,1.371-3.052,2.068c-3.566,2.448-6.932,4.758-10.498,6.043
			c-5.12,1.853-10.559-2.326-11.064-7.948c0,0,0-0.004,0.004-0.004c0.191-0.433,0.375-0.873,0.502-1.306
			c0.526-1.791,1.04-3.586,1.55-5.377l0.897,0.073c1.335,0.146,2.641-0.437,3.493-1.478c0.853-1.036,1.138-2.427,0.767-3.712
			l-1.954-6.798c0.734-0.351,1.358-0.918,1.783-1.648c0.587-1.016,0.693-2.215,0.343-3.297c0.632-0.367,1.171-0.901,1.538-1.57
			c0.783-1.424,0.648-3.174-0.347-4.464c-0.739-0.954-1.453-1.852-2.139-2.713c-1.456-1.824-2.717-3.402-3.802-5.051
			c-0.024-0.041-0.054-0.078-0.078-0.11c0.588-0.689,0.942-1.566,0.976-2.509c0.143-4.199-2.281-6.676-4.048-8.479
			c-1.55-1.583-2.097-2.244-2.113-3.439c-0.049-3.889-2.913-6.94-5.442-9.629c-0.665-0.71-1.322-1.407-1.89-2.093
			c-0.521-0.637-1.064-1.265-1.607-1.894c-3.807-4.41-5.561-6.716-3.892-10.779c0.734-1.787,0.191-3.411-0.155-4.455
			c-4.668-14.402-10.645-30.914-22.559-44.619c1.343-8.233,2.758-16.45,4.153-24.541L382.189,423.254z"/>
	</g>
</g>
<g>
</g>
<g>
</g>
<g>
</g>
<g>
</g>
<g>
</g>
<g>
</g>
<g>
</g>
<g>
</g>
<g>
</g>
<g>
</g>
<g>
</g>
<g>
</g>
<g>
</g>
<g>
</g>
<g>
</g>
</svg>
