<?xml version="1.0" encoding="iso-8859-1"?>
<!-- Generator: Adobe Illustrator 16.0.0, SVG Export Plug-In . SVG Version: 6.00 Build 0)  -->
<!DOCTYPE svg PUBLIC "-//W3C//DTD SVG 1.1//EN" "http://www.w3.org/Graphics/SVG/1.1/DTD/svg11.dtd">
<svg version="1.1" id="Capa_1" xmlns="http://www.w3.org/2000/svg" xmlns:xlink="http://www.w3.org/1999/xlink" x="0px" y="0px"
	 width="582.874px" height="582.874px" viewBox="0 0 582.874 582.874" style="enable-background:new 0 0 582.874 582.874;"
	 xml:space="preserve">
<g>
	<g>
		<path d="M175.838,287.429c-3.207-0.551-6.214-1.159-9.18-1.881c-8.784-2.171-17.446-3.35-21.469,0.114
			c-0.27,0.229-0.498,0.62-0.698,1.122c-0.273,0.681-1.195,1.726-2.089,2.411c-8.592,6.557-11.681,20.31-16.255,32.623
			c-5.194,13.921-12.485,28.707-17.548,36.153c-4.762,6.997-8.495,5.899-9.653,11.473c-0.102,0.485-0.126,0.991-0.09,1.514
			c0.057,0.841-0.673,1.567-1.799,1.611c-6.936,0.273-12.423-0.244-15.406,3.807c-0.669,0.906-1.909,1.942-3.002,2.204
			c-3.579,0.86-8.536,2.651-13.15,8.478c-7.246,9.144-3.966,20.906-2.208,20.931c1.759,0.017-0.555-5.691,5.618-12.142
			c3.615-3.767,9.004-3.351,13.631-5.398c1.032-0.457,2.697-1.085,3.803-1.306c4.782-0.95,12.375-3.239,18.458-6.324
			c1.004-0.51,2.587-0.477,3.636-0.073c2.003,0.771,4.047,0.91,5.826,0.054c8.192-3.958,14.831-30.449,18.572-44.224
			c4.182-15.406,6.581-25.753,13.387-33.819c0.726-0.86,2.003-0.853,2.954-0.249c0.689,0.441,1.464,0.792,2.358,0.996
			c6.002,1.396,15.37,0.232,24.668-1.118c1.114-0.163,2.048,0.616,2.077,1.746c0.453,16.202,0.922,32.143,0.334,44.48
			c-0.661,13.811-0.481,31.604,1.269,49.935c0.106,1.122-0.71,2.008-1.836,1.979c-7.275-0.192-13.142-0.555-18.936-1.351
			c-8.956-1.244-17.711-1.521-21.351,2.35c-0.445,0.474-1.053,1.094-1.424,2.081c-0.396,1.053-0.877,2.737-1.493,3.685
			c-13.301,20.384-17.1,65.394-18.993,79.715c-1.934,14.721-5.157,28.237-8.429,36.639c-3.068,7.87-6.63,8.919-7.34,14.153
			c-0.155,1.057,0.106,2.166,0.669,3.272c0.51,1.003,0.2,1.848-0.918,1.982c-7.312,0.886-13.166,0.547-15.969,4.978
			c-0.604,0.951-1.771,2.072-2.844,2.411c-3.509,1.11-8.335,3.244-12.53,9.385c-6.573,9.633-2.464,21.143-0.714,21.048
			c1.747-0.114-0.967-5.646,4.749-12.501c3.33-4.031,8.744-3.99,13.211-6.369c0.995-0.53,2.611-1.276,3.7-1.574
			c5.729-1.555,15.517-5.382,21.559-9.947c0.897-0.682,2.493-1.122,3.615-1.236c1.391-0.143,2.583-0.701,3.386-1.856
			c7.267-10.506,5.08-30.318,7.246-44.419c3.33-21.689,8.976-63.072,16.854-81.567c0.441-1.036,1.498-1.473,2.387-1.179
			c0.522,0.171,1.073,0.298,1.652,0.375c8.238,1.028,21.991-3.158,33.681-6.006c1.093-0.265,2.122,0.429,2.289,1.543
			c0.922,5.989,2.023,11.917,3.366,17.658c0.84,3.569,2.419,5.92,3.59,7.262c0.743,0.849,1.624,2.306,1.84,3.411
			c0.987,5.071,3.949,18.47,8.768,24.831c0.934,1.224,2.011,1.688,2.921,1.828c1.114,0.171,2.334,0.693,2.75,1.741
			c1.91,4.839,7.373,17.932,14.3,27.94c2.032,2.945,3.893,4.275,5.675,4.553c1.114,0.176,2.489,0.678,3.081,1.637
			c4.19,6.797,10.6,15.948,15.308,18.604c2.873,1.6,5.528,1.787,7.254,1.661c1.122-0.082,2.48,0.436,3.08,1.391
			c5.855,9.311,10.841,14.9,18.401,14.268c1.122-0.094,2.448,0.511,3.228,1.326c2.921,3.056,8.87,5.349,13.741,6.148
			c1.11,0.184,2.938,0.184,4.052,0c4.871-0.8,10.82-3.088,13.745-6.148c0.779-0.815,2.105-1.42,3.228-1.326
			c7.561,0.633,12.546-4.957,18.4-14.268c0.601-0.954,1.959-1.473,3.081-1.391c1.726,0.126,4.386-0.062,7.254-1.661
			c4.708-2.656,11.118-11.812,15.309-18.604c0.591-0.959,1.97-1.461,3.08-1.637c1.783-0.281,3.64-1.607,5.675-4.553
			c6.928-10.009,12.392-23.102,14.301-27.939c0.412-1.049,1.636-1.571,2.75-1.742c0.91-0.14,1.991-0.604,2.921-1.828
			c4.823-6.361,7.785-19.76,8.769-24.831c0.216-1.105,1.102-2.562,1.84-3.411c1.171-1.342,2.746-3.692,3.59-7.262
			c1.343-5.741,2.448-11.665,3.366-17.658c0.172-1.114,1.195-1.808,2.289-1.543c11.689,2.853,25.447,7.034,33.681,6.006
			c0.579-0.073,1.13-0.2,1.652-0.375c0.89-0.294,1.941,0.143,2.387,1.179c7.878,18.491,13.525,59.878,16.854,81.567
			c2.166,14.101-0.024,33.913,7.246,44.419c0.804,1.155,1.995,1.714,3.387,1.856c1.121,0.114,2.717,0.559,3.618,1.24
			c6.043,4.565,15.822,8.389,21.551,9.943c1.085,0.298,2.709,1.044,3.705,1.574c4.467,2.383,9.882,2.338,13.211,6.369
			c5.716,6.854,3.003,12.392,4.749,12.501c1.75,0.094,5.858-11.415-0.714-21.048c-4.194-6.145-9.021-8.279-12.53-9.385
			c-1.073-0.338-2.239-1.456-2.844-2.407c-2.799-4.435-8.661-4.092-15.973-4.981c-1.118-0.135-1.429-0.979-0.918-1.982
			c0.562-1.106,0.824-2.216,0.669-3.272c-0.71-5.234-4.271-6.283-7.34-14.153c-3.276-8.401-6.495-21.918-8.43-36.639
			c-1.893-14.325-5.695-59.331-18.992-79.715c-0.616-0.942-1.098-2.628-1.493-3.685c-0.371-0.991-0.979-1.607-1.424-2.081
			c-3.64-3.871-12.396-3.594-21.351-2.35c-5.794,0.796-11.661,1.158-18.936,1.351c-1.126,0.028-1.946-0.856-1.836-1.979
			c1.75-18.332,1.93-36.129,1.269-49.936c-0.587-12.338-0.118-28.278,0.335-44.48c0.032-1.126,0.963-1.905,2.076-1.746
			c9.303,1.354,18.666,2.518,24.668,1.118c0.894-0.204,1.669-0.555,2.358-0.995c0.95-0.604,2.228-0.612,2.954,0.248
			c6.81,8.066,9.208,18.413,13.387,33.819c3.741,13.774,10.379,40.266,18.571,44.224c1.779,0.856,3.823,0.718,5.827-0.054
			c1.052-0.403,2.627-0.437,3.635,0.074c6.079,3.084,13.672,5.369,18.454,6.323c1.105,0.221,2.778,0.849,3.811,1.306
			c4.627,2.049,10.017,1.637,13.631,5.398c6.174,6.45,3.86,12.158,5.618,12.142c1.759-0.024,5.039-11.787-2.207-20.931
			c-4.614-5.826-9.571-7.617-13.149-8.478c-1.094-0.266-2.338-1.298-3.003-2.208c-2.982-4.051-8.471-3.537-15.406-3.807
			c-1.126-0.045-1.856-0.771-1.8-1.611c0.037-0.522,0.013-1.028-0.089-1.514c-1.155-5.577-4.893-4.479-9.653-11.473
			c-5.063-7.446-12.354-22.232-17.549-36.153c-4.573-12.313-7.666-26.066-16.255-32.623c-0.893-0.686-1.815-1.73-2.089-2.411
			c-0.199-0.502-0.428-0.894-0.697-1.122c-4.022-3.464-12.685-2.285-21.469-0.114c-2.971,0.722-5.974,1.33-9.181,1.881
			c-1.109,0.191-1.995-0.575-1.982-1.701c0.09-6.704,0.102-13.195-0.065-19.217c0.588-9.511,8.854-14.685,8.286-23.477
			c-0.489-7.699-21.31-24.007-31.281-26.944c-10.448-3.076-13.06-5.949-16.956-9.258c-0.861-0.73-0.792-1.767,0.176-2.342
			c5.137-3.064,9.563-5.504,14.153-7.63c8.213-3.798,15.569-9.367,17.405-14.341c0.061-0.18,0.114-0.367,0.159-0.559
			c0.073-0.311,0.999-0.376,2.093-0.103c3.501,0.873,7.834,2.207,12.403,4.227c10.963,4.827,37.409,15.876,40.376,15.027
			c2.097-0.596,3.68-2.171,4.749-4.174c0.53-0.996,1.726-1.812,2.852-1.808c8.274,0.032,18.756-2.51,23.272-4.276
			c5.328-2.117,11.143-2.432,15.847-1.167c4.708,1.273,8.299,4.117,9.139,2.934c0.829-1.179-6.589-12.329-12.962-14.182
			c-5.223-1.526-9.237-0.804-12.403,0.118c-1.081,0.314-2.672,0.024-3.696-0.44c-5.577-2.529-11.053,2.623-19.526,6.186
			c-1.041,0.437-2.15,0.114-2.591-0.592c-0.27-0.433-0.58-0.832-0.938-1.18c-2.885-2.737-8.585-0.832-16.41-0.995
			c-9.013-0.196-17.887-2.647-25.283-5.521c-6.626-2.574-10.764-4.74-20.633-5.234c-1.126-0.058-2.828-0.559-3.917-0.849
			c-2.077-0.555-4.427-0.229-6.879,1.555c-6.173,4.472-18.177,15.847-30.054,25.847c-0.86,0.727-2.415,0.975-3.472,0.588
			c-9.612-3.518-16.646-4.301-19.608-11.408c-2.726-6.564-6.679-7.98-7.226-9.393c-1.069-2.896-2.272-8.307-1.905-14.442
			c0.122-2.057-0.526-3.452-1.493-4.338c-0.828-0.763-1.543-1.905-1.27-2.994c10.147-40.009,40.56-76.296,43.897-81.49
			c1.717-2.688,2.354-5.479,2.586-7.299c0.144-1.118,0.979-2.387,2.004-2.848c1.57-0.706,3.713-1.726,4.721-2.473
			c4.063-2.95,10.448-12.521,13.35-17.038c1.306-2.036,3.529-4.178,3.745-6.418c0.106-1.122,0.543-1.995,1.566-2.46
			c2.388-1.081,5.488-3.688,7.304-5.357c6.295-5.806,17.055-14.271,21.09-20.261c4.01-5.937-1.604-11.526-7.699-9.132
			c-5.056,1.971-20.253,17.789-23.436,21.257c-2.061,2.257-3.138,5.827-3.64,8.05c-0.249,1.098-1.265,1.751-2.391,1.742
			c-1.171-0.008-2.685,0.217-4.101,1.155c-2.855,1.901-12.533,14.59-14.916,18.226c-2.008,3.056-3.04,4.794-3.012,8.09
			c0.013,1.126-0.783,2.184-1.815,2.636c-7.593,3.313-15.401,17.769-23.432,34.272c-9.629,19.771-19.457,42.979-21.827,61.931
			c0,0-0.045,0.473-0.099,1.057c-0.053,0.583-0.677,1.934-1.787,2.138c-1.162,0.212-2.264-0.747-2.599-3.717
			c-0.498-4.325-6.744-8.907-15.182-8.666c-0.106,0.004-0.208,0.032-0.314,0.036c-0.106-0.004-0.204-0.032-0.314-0.036
			c-8.438-0.241-14.684,4.341-15.182,8.666c-0.334,2.97-1.436,3.929-2.599,3.717c-1.11-0.204-1.734-1.555-1.787-2.138l-0.098-1.057
			c-2.371-18.948-12.199-42.159-21.828-61.931c-8.025-16.504-15.838-30.963-23.432-34.272c-1.032-0.448-1.824-1.505-1.815-2.636
			c0.033-3.296-1-5.034-3.011-8.09c-2.382-3.636-12.06-16.324-14.916-18.226c-1.412-0.935-2.93-1.163-4.101-1.155
			c-1.126,0.009-2.142-0.645-2.391-1.742c-0.501-2.223-1.579-5.793-3.639-8.05c-3.178-3.468-18.376-19.286-23.436-21.257
			c-6.096-2.395-11.709,3.199-7.699,9.132c4.035,5.989,14.798,14.455,21.089,20.261c1.812,1.669,4.917,4.276,7.303,5.357
			c1.028,0.465,1.46,1.338,1.566,2.46c0.212,2.24,2.44,4.382,3.746,6.418c2.901,4.521,9.286,14.088,13.35,17.038
			c1.012,0.742,3.154,1.767,4.721,2.473c1.028,0.461,1.86,1.729,2.003,2.848c0.232,1.819,0.869,4.614,2.587,7.299
			c3.337,5.194,33.75,41.485,43.896,81.49c0.277,1.094-0.437,2.235-1.269,2.994c-0.967,0.89-1.616,2.285-1.493,4.338
			c0.367,6.136-0.836,11.546-1.905,14.442c-0.547,1.412-4.5,2.828-7.226,9.393c-2.966,7.107-9.996,7.891-19.608,11.407
			c-1.057,0.388-2.611,0.14-3.472-0.587c-11.873-10-23.88-21.375-30.053-25.847c-2.452-1.779-4.807-2.109-6.879-1.555
			c-1.089,0.29-2.791,0.791-3.917,0.849c-9.87,0.493-14.007,2.66-20.632,5.234c-7.397,2.872-16.271,5.329-25.284,5.521
			c-7.821,0.167-13.521-1.738-16.41,0.995c-0.355,0.347-0.665,0.743-0.938,1.18c-0.44,0.706-1.55,1.028-2.586,0.592
			c-8.479-3.562-13.954-8.715-19.531-6.189c-1.028,0.465-2.615,0.755-3.696,0.44c-3.166-0.922-7.181-1.645-12.403-0.118
			c-6.373,1.853-13.786,13.003-12.962,14.182c0.836,1.188,4.431-1.656,9.139-2.934c4.704-1.261,10.518-0.95,15.847,1.167
			c4.517,1.767,14.998,4.309,23.272,4.276c1.126-0.005,2.321,0.812,2.852,1.807c1.073,2.008,2.652,3.578,4.75,4.174
			c2.966,0.849,29.417-10.199,40.375-15.026c4.57-2.023,8.902-3.354,12.403-4.227c1.093-0.273,2.023-0.208,2.093,0.102
			c0.045,0.192,0.098,0.376,0.159,0.56c1.836,4.974,9.192,10.542,17.405,14.341c4.59,2.126,9.017,4.565,14.154,7.63
			c0.967,0.579,1.036,1.615,0.175,2.342c-3.896,3.309-6.508,6.181-16.957,9.258c-9.967,2.938-30.792,19.245-31.281,26.944
			c-0.567,8.792,7.699,13.966,8.287,23.476c-0.167,6.022-0.151,12.518-0.065,19.217C177.837,286.854,176.952,287.62,175.838,287.429
			z"/>
	</g>
</g>
<g>
</g>
<g>
</g>
<g>
</g>
<g>
</g>
<g>
</g>
<g>
</g>
<g>
</g>
<g>
</g>
<g>
</g>
<g>
</g>
<g>
</g>
<g>
</g>
<g>
</g>
<g>
</g>
<g>
</g>
</svg>
