<?xml version="1.0" encoding="iso-8859-1"?>
<!-- Generator: Adobe Illustrator 16.0.0, SVG Export Plug-In . SVG Version: 6.00 Build 0)  -->
<!DOCTYPE svg PUBLIC "-//W3C//DTD SVG 1.1//EN" "http://www.w3.org/Graphics/SVG/1.1/DTD/svg11.dtd">
<svg version="1.1" id="Capa_1" xmlns="http://www.w3.org/2000/svg" xmlns:xlink="http://www.w3.org/1999/xlink" x="0px" y="0px"
	 width="580.451px" height="580.451px" viewBox="0 0 580.451 580.451" style="enable-background:new 0 0 580.451 580.451;"
	 xml:space="preserve">
<g>
	<g>
		<path d="M229.797,217.3c-8.552,2.656-15.251-2.007-23.138-9.144c-11.081-10.028-24.174-18.935-37.923-24.635
			c-10.049-4.166-20.282-3.231-27.165,5.72c-6.528,8.49-6.475,22.109-9.005,32.457c-6.104,24.937-14.823,49.229-25.969,72.354
			c-6.209,12.877-18.543,19.91-27.736,30.89c-7.38,8.817-13.5,18.568-18.205,29.058c-2.105,4.7-4.08,9.453-4.643,14.615
			c-0.318,2.933,0.485,6.083,1.187,9.139c0.506,2.195,1.787,2.477,2.95,0.551c7.658-12.673,13.048-27.242,21.971-39.637
			c9.363-13.008,20.082-24.99,31.391-36.329c4.341-4.349,21.877-16.891,22.599-22.685c0.784-6.275,6.43-60.563,8.96-75.737
			c0.371-2.224,2.509-2.954,4.435-1.783c12.509,7.605,50.706,30.429,50.045,32.273c-7.54,20.963-15.141,43.456-23.974,65.451
			c-1.685,4.198-7.87,7.169-12.583,9.474c-19.915,9.743-39.972,19.267-61.388,29.454c-2.036,0.967-5.504,1.514-7.756,1.51
			c-3.778-0.005-7.691,0.729-10.09,3.623c-2.648,3.187-4.684,7.634-2.236,11.673c3.7,6.111,10.281,10.506,15.569,15.178
			c0.709,0.628,1.419,1.256,2.129,1.881c1.175,1.04,3.191,3.37,4.504,5.201c6.605,9.241,13.207,18.482,19.812,27.724
			c6.548,9.164,13.101,18.328,19.649,27.495c5.169,7.234,12.738,13.632,10.049,23.146c-4.562,16.141-15.422,28.078-25.39,41.081
			c-11.444,14.929-22.958,29.801-34.594,44.578c-3.023,3.844-6.989,7.724-11.367,9.576c-12.542,5.308-15.438,13.264-9.131,27.278
			c0.926,2.057,2.97,2.276,4.439,0.567c31.167-36.341,66.455-71.894,94.232-110.728c1.31-1.831,1.84-4.32,1.093-5.475
			c-0.747-1.155-0.069-0.935,1.885,0.191c2.313,1.334,4.664,2.685,6.981,3.889c2,1.04,4.068-0.045,3.766-2.277
			c-1.926-14.296-25.141-35.418-32.718-45.075c-7.842-10-15.708-19.98-23.574-29.96c-5.994-7.601-8.817-16.475-15.9-22.941
			c-1.665-1.518-1.416-2.93,0.779-3.439c10.682-2.477,36.255-8.789,43.689-14.729c1.758-1.407,2.305-1.529,2.64,0.698
			c1.709,11.306,3.644,22.578,4.831,33.929c6.671,63.934,42.91,105.187,98.659,133.347c7.821,3.95,15.014,6.202,22.089,6.912
			c2.244,0.224,4.182,0.257,4.325,0.257c0.086,0,0.172-0.004,0.253-0.004c0.171,0,0.338,0.016,0.51,0.016
			c8.405-0.171,16.835-2.468,26.157-7.176c55.749-28.16,91.988-69.413,98.658-133.347c1.184-11.351,3.122-22.624,4.831-33.93
			c0.339-2.228,0.882-2.105,2.64-0.697c7.43,5.94,33.008,12.252,43.688,14.729c2.195,0.51,2.448,1.922,0.784,3.439
			c-7.083,6.467-9.906,15.341-15.9,22.941c-7.866,9.979-15.729,19.964-23.574,29.96c-7.576,9.653-30.792,30.779-32.718,45.075
			c-0.302,2.232,1.771,3.317,3.767,2.277c2.317-1.208,4.667-2.555,6.98-3.889c1.95-1.126,2.632-1.351,1.881-0.191
			c-0.751,1.158-0.216,3.644,1.094,5.479c27.776,38.833,63.061,74.387,94.231,110.727c1.469,1.71,3.513,1.489,4.435-0.566
			c6.304-14.016,3.407-21.971-9.131-27.279c-4.382-1.853-8.344-5.736-11.366-9.576c-11.637-14.777-23.15-29.648-34.595-44.578
			c-9.968-13.003-20.828-24.944-25.39-41.081c-2.689-9.515,4.875-15.908,10.049-23.146c6.549-9.164,13.101-18.328,19.649-27.495
			c6.605-9.241,13.207-18.482,19.812-27.724c1.31-1.832,3.325-4.162,4.504-5.202c0.71-0.629,1.42-1.253,2.13-1.881
			c5.288-4.672,11.869-9.065,15.569-15.178c2.448-4.043,0.408-8.486-2.235-11.673c-2.399-2.893-6.316-3.627-10.09-3.623
			c-2.253,0.004-5.721-0.543-7.757-1.51c-21.416-10.188-41.469-19.71-61.388-29.453c-4.712-2.306-10.897-5.275-12.582-9.474
			c-8.829-21.996-16.431-44.489-23.975-65.452c-0.661-1.844,37.536-24.672,50.046-32.273c1.926-1.171,4.063-0.44,4.435,1.783
			c2.533,15.173,8.181,69.462,8.96,75.737c0.722,5.793,18.258,18.332,22.599,22.685c11.314,11.338,22.032,23.321,31.392,36.328
			c8.919,12.395,14.312,26.961,21.971,39.637c1.167,1.931,2.444,1.648,2.95-0.551c0.701-3.052,1.51-6.205,1.188-9.139
			c-0.563-5.161-2.538-9.919-4.644-14.614c-4.704-10.49-10.824-20.241-18.205-29.059c-9.192-10.979-21.525-18.013-27.735-30.889
			c-11.15-23.122-19.866-47.418-25.97-72.355c-2.533-10.343-2.477-23.966-9.004-32.456c-6.884-8.952-17.12-9.886-27.165-5.72
			c-13.754,5.7-26.847,14.606-37.924,24.635c-7.882,7.136-14.586,11.795-23.138,9.144c-2.149-0.669-2.896-3.199-1.848-5.19
			c4.459-8.454,8.955-16.977,13.827-26.21c1.053-1.991,3.737-3.619,5.989-3.701c22.836-0.836,42.061-7.642,37.85-41.457
			c-0.277-2.236,0.727-2.774,2.347-1.208c17.385,16.871,33.75,34.86,48.062,54.427c13.737,18.78,22.542,39.482,33.9,59.266
			c1.122,1.955,4.264,3.235,5.133,1.159c3.704-8.87-12.877-39.303-15.643-43.248c-18.552-26.479-39.319-51.501-60.4-76.067
			c-8.123-9.465-12.469-18.36-9.85-30.559c2.546-11.849,2.812-22.562-12.31-23.872c-2.243-0.196-3.528-1.869-2.953-4.047
			c7.147-27.022,3.961-58.099,35.618-69.103c2.13-0.738,2.844-2.726,1.158-4.223c-9.865-8.772-21.436,1.885-28.592,10.853
			c-10.384,13.015-16.667,28.323-15.386,45.239c0.681,9.013-1.221,18.221-2.437,27.34c-0.298,2.232-2.035,3.093-3.953,1.91
			c-18.784-11.591-35.676-22.016-52.212-32.216c-1.917-1.183-1.849-1.187,0.396-0.979c5.961,0.563,14.313-2.55,18.744-3.685
			c3.619-0.926,25.545-4.418,20.775-10.828c-1.11-1.489-3.13-2.073-4.982-1.922c-7.812,0.633-16.52,4.357-24.178,6.288
			c-2.027,0.51-7.475,0.82-11.358,1.485c-2.22,0.379-2.432,0.065-0.637-1.297c6.643-5.055,20.828-15.623,27.761-19.376
			c1.982-1.073,2.207-2.236,0.118-3.081c-16.178-6.556-22.469,9.964-29.511,14.835c-1.853,1.281-5.182,0.119-6.842-1.407
			c-9.568-8.809-17.435-18.785-24.685-22.599c-1.995-1.049-3.901-1.514-4.052-1.53c-0.151-0.016-0.388,0.004-0.526-0.024
			s-2.064,0.355-4.047,1.424c-7.254,3.917-15.129,13.909-24.7,22.726c-1.657,1.526-4.99,2.689-6.842,1.408
			c-7.066-4.867-13.358-21.392-29.539-14.827c-2.085,0.849-1.853,2.003,0.126,3.081c6.932,3.753,21.114,14.316,27.756,19.372
			c1.792,1.367,1.583,1.681-0.636,1.302c-3.884-0.665-9.335-0.975-11.359-1.485c-7.658-1.93-16.361-5.655-24.178-6.287
			c-1.853-0.151-3.872,0.428-4.982,1.921c-4.77,6.41,17.161,9.902,20.775,10.829c4.427,1.134,12.783,4.247,18.744,3.684
			c2.244-0.212,2.313-0.204,0.396,0.979c-16.532,10.2-33.423,20.62-52.204,32.211c-1.917,1.183-3.664,0.326-3.958-1.91
			c-1.216-9.123-3.117-18.327-2.436-27.34c1.281-16.916-5.002-32.224-15.386-45.239C170.352,5.161,158.78-5.5,148.915,3.276
			c-1.685,1.497-0.971,3.48,1.159,4.223c31.657,11,28.474,42.077,35.619,69.099c0.575,2.179-0.706,3.856-2.954,4.048
			c-15.121,1.31-14.855,12.023-12.31,23.872c2.62,12.199-1.726,21.093-9.849,30.559c-21.081,24.565-41.848,49.588-60.4,76.067
			c-2.767,3.945-19.348,34.378-15.643,43.248c0.869,2.081,4.011,0.795,5.133-1.159c11.359-19.784,20.163-40.486,33.901-59.266
			c14.312-19.568,30.677-37.552,48.062-54.427c1.616-1.571,2.624-1.032,2.346,1.204c-4.21,33.815,15.014,40.621,37.85,41.457
			c2.252,0.082,4.933,1.701,5.985,3.696c4.875,9.237,9.372,17.764,13.835,26.218C232.698,214.11,231.947,216.635,229.797,217.3z
			 M327.884,89.608c1.388-5.304,2.783-10.649,4.269-16.324c0.571-2.179,2.782-3.423,4.937-2.767
			c12.999,3.938,27.422,9.037,34.876,26.838c5.867,14.019,14.716,26.752,21.489,40.429c6.459,13.048-3.685,17.838-12.975,19.658
			c-5.148,1.007-16.291-3.468-16.454-6.002c-1.645-25.851-19.87-36.132-36.524-44.594c-2.008-1.02-3.179-3.611-2.607-5.794
			C325.902,97.193,326.893,93.411,327.884,89.608z M216.402,151.441c-0.159,2.53-11.306,7.009-16.455,6.002
			c-9.29-1.82-19.433-6.61-12.975-19.658c6.773-13.676,15.623-26.414,21.49-40.429c7.45-17.801,21.873-22.901,34.875-26.838
			c2.159-0.653,4.37,0.592,4.937,2.771c2.546,9.743,4.843,18.523,7.262,27.772c0.571,2.179-0.6,4.766-2.611,5.786
			C236.268,115.312,218.042,125.594,216.402,151.441z"/>
	</g>
</g>
<g>
</g>
<g>
</g>
<g>
</g>
<g>
</g>
<g>
</g>
<g>
</g>
<g>
</g>
<g>
</g>
<g>
</g>
<g>
</g>
<g>
</g>
<g>
</g>
<g>
</g>
<g>
</g>
<g>
</g>
</svg>
