<?xml version="1.0" encoding="iso-8859-1"?>
<!-- Generator: Adobe Illustrator 16.0.0, SVG Export Plug-In . SVG Version: 6.00 Build 0)  -->
<!DOCTYPE svg PUBLIC "-//W3C//DTD SVG 1.1//EN" "http://www.w3.org/Graphics/SVG/1.1/DTD/svg11.dtd">
<svg version="1.1" id="Capa_1" xmlns="http://www.w3.org/2000/svg" xmlns:xlink="http://www.w3.org/1999/xlink" x="0px" y="0px"
	 width="587.24px" height="587.24px" viewBox="0 0 587.24 587.24" style="enable-background:new 0 0 587.24 587.24;"
	 xml:space="preserve">
<g>
	<g>
		<path d="M16.776,220.996c2.832,2.665,5.508,5.182,7.189,7.246c1.424,1.747,2.778,3.509,4.121,5.255
			c4.582,5.949,9.319,12.101,16.128,16.773c4.239,2.909,8.18,4.7,12.403,5.655c12.383,2.778,21.938,11.371,31.179,19.682
			c3.696,3.321,7.516,6.757,11.481,9.8c6.532,5.01,15.125,10.85,23.688,11.588c1.64,0.143,3.281,0.184,4.896,0.225
			c6.593,0.159,11.804,0.285,14.888,7.25c1.457,3.284,1.391,7.417-0.171,11.053c-0.465,1.077-1.983,2.518-3.325,3.79
			c-2.142,2.032-4.166,3.953-4.418,6.222c-0.392,3.489,2.999,6.888,5.989,9.891c0.902,0.905,1.722,1.713,2.224,2.37
			c2.48,3.228,4.884,6.847,5.671,11.433c0.155,0.913-0.008,2.664-0.171,4.361c-0.372,3.957-0.796,8.441,1.505,10.971
			c0.706,0.775,2.003,1.706,4.255,1.706c7.173,0,13.505,13.476,14.423,20.518c0.155,1.204-0.163,2.774-0.502,4.436
			c-0.645,3.174-1.375,6.776,0.885,9.727c2.338,3.052,6.042,3.235,9.311,3.395c2.048,0.098,3.982,0.195,5.439,0.914
			c6.67,3.288,5.226,15.015,2.546,20.652c-0.31,0.649-1.167,1.722-2,2.759c-2.525,3.146-5.667,7.062-3.68,10.751
			c2.146,3.965,4.647,7.245,7.067,10.424c5.304,6.961,9.881,12.975,8.511,23.75c-1.46,11.493-8.898,20.567-16.394,28.874
			l-0.351,0.388c-3.072,3.402-5.296,5.862-6.459,10.873l-0.11,0.461c-0.596,2.529-1.273,5.394,0.069,7.095
			c1.175,1.481,3.182,1.584,5.936-0.224l3.803-2.473c8.854-5.74,18.013-11.681,25.737-19.449c5.145-5.17,9.857-10.837,14.411-16.32
			c2.884-3.472,5.765-6.94,8.768-10.298c0.375-0.424,0.628-0.457,0.833-0.457c0.591,0,1.44,0.392,2.26,0.768
			c1.105,0.51,2.252,1.036,3.517,1.036c1.114,0,2.676-0.425,3.79-2.436c1.759-3.187,0.126-6.227-1.313-8.915
			c-1.828-3.411-2.762-5.472-0.637-8.07c2.305-2.836,4.61-2.261,6.683-2.073c0.734,0.065,1.444,0.123,2.122,0.123
			c4.015,0,6.193-2.272,7.062-7.369c0.314-1.819,0.58-3.627,0.849-5.409c0.795-5.357,1.55-10.425,3.378-15.545
			c0.522-1.474,1.175-3.146,2.236-4.305c0.795-0.869,1.534-1.367,2.036-1.367c0.816,0,1.958,1.408,2.795,2.432
			c1.204,1.481,2.448,3.012,4.321,3.012c2.33,0,3.574-2.436,4.137-3.717l0.163-0.376c1.652-3.904,1.277-9.979,0.946-15.341
			c-0.134-2.203-0.265-4.259-0.22-5.903c0.343-13.162,0.62-26.328,0.841-39.499c0.175-10.73,0.314-21.465,0.408-32.199
			c0.029-3.108-0.118-6.413-0.269-9.783c-0.159-3.501-0.318-7.059-0.282-10.511c0.024,0.204,0.053,0.408,0.078,0.6
			c0.29,2.277,0.563,4.427,0.991,6.039c1.648,6.21,3.819,12.195,6.451,17.797c2.036,4.329,3.815,7.642,6.646,7.642
			c0.759,0,1.449-0.245,2.077-0.73c0.624,0.485,1.317,0.73,2.077,0.73c2.832,0,4.609-3.312,6.646-7.642
			c2.631-5.602,4.797-11.587,6.449-17.797c0.43-1.616,0.703-3.766,0.992-6.039c0.025-0.195,0.053-0.399,0.078-0.6
			c0.037,3.452-0.123,7.01-0.281,10.511c-0.152,3.37-0.299,6.679-0.27,9.787c0.094,10.73,0.232,21.465,0.408,32.195
			c0.215,13.171,0.498,26.337,0.84,39.499c0.045,1.645-0.086,3.7-0.221,5.903c-0.33,5.357-0.701,11.437,0.943,15.333l0.17,0.404
			c0.568,1.28,1.812,3.696,4.131,3.696c1.867,0,3.115-1.53,4.32-3.012c0.836-1.023,1.979-2.432,2.795-2.432
			c0.498,0,1.24,0.498,2.031,1.367c1.064,1.158,1.713,2.827,2.24,4.305c1.824,5.12,2.578,10.184,3.377,15.545
			c0.266,1.786,0.535,3.59,0.85,5.409c0.869,5.097,3.047,7.369,7.062,7.369c0.678,0,1.387-0.062,2.121-0.123
			c2.072-0.188,4.379-0.767,6.688,2.073c2.121,2.599,1.191,4.659-0.641,8.07c-1.439,2.685-3.072,5.724-1.309,8.919
			c1.109,2.007,2.672,2.432,3.785,2.432c1.266,0,2.408-0.526,3.518-1.036c0.82-0.38,1.672-0.768,2.26-0.768
			c0.16,0,0.424,0,0.832,0.457c3.004,3.357,5.883,6.83,8.768,10.298c4.559,5.483,9.266,11.15,14.412,16.32
			c7.723,7.764,16.883,13.704,25.736,19.449l3.803,2.473c1.402,0.922,2.529,1.351,3.541,1.351c0.971,0,1.82-0.404,2.395-1.127
			c1.342-1.701,0.666-4.565,0.07-7.091l-0.111-0.465c-1.162-5.015-3.387-7.471-6.459-10.873l-0.35-0.388
			c-7.496-8.307-14.934-17.381-16.395-28.878c-1.371-10.775,3.211-16.785,8.512-23.746c2.42-3.174,4.92-6.459,7.078-10.453
			c1.971-3.655-1.17-7.572-3.691-10.722c-0.832-1.037-1.693-2.109-2-2.759c-2.684-5.638-4.125-17.364,2.547-20.652
			c1.451-0.719,3.391-0.812,5.438-0.914c3.268-0.159,6.973-0.343,9.311-3.395c2.26-2.95,1.531-6.549,0.885-9.727
			c-0.338-1.661-0.656-3.231-0.5-4.436c0.918-7.046,7.25-20.518,14.523-20.518c2.15,0,3.447-0.931,4.158-1.706
			c2.297-2.529,1.877-7.018,1.502-10.971c-0.16-1.697-0.328-3.452-0.172-4.361c0.783-4.586,3.189-8.205,5.666-11.433
			c0.506-0.657,1.326-1.465,2.229-2.37c2.99-2.999,6.381-6.397,5.99-9.891c-0.258-2.272-2.281-4.189-4.42-6.222
			c-1.342-1.272-2.863-2.713-3.324-3.79c-1.566-3.636-1.633-7.769-0.172-11.053c3.088-6.965,8.295-7.091,14.889-7.25
			c1.615-0.041,3.256-0.082,4.895-0.225c8.564-0.738,17.156-6.578,23.689-11.588c3.969-3.043,7.789-6.479,11.48-9.8
			c9.242-8.311,18.797-16.907,31.184-19.682c4.223-0.951,8.16-2.746,12.404-5.655c6.805-4.676,11.541-10.824,16.123-16.773
			c1.346-1.747,2.701-3.509,4.121-5.255c1.686-2.068,4.357-4.582,7.189-7.246c9.053-8.523,20.322-19.127,15.725-29.506
			c-6.117-13.794-31.641-24.802-39.32-27.85c-28.213-11.195-58.273-16.871-89.355-16.871c-6.871,0-13.818,0.286-20.656,0.861
			c-18.988,1.587-37.654,5.353-55.484,11.195c-5.492,1.799-11.689,4.619-18.254,7.601c-13.293,6.034-28.357,12.881-41.389,12.881
			c-4.16,0-7.809-0.673-11.15-2.064c-2.672-1.106-8.314-6.847-7.838-8.434c3.131-2.701,5.199-5.357,6.721-8.604
			c1.686-3.603,1.836-7.202,0.424-10.135c-1.203-2.518-3.512-4.374-6.545-5.292c-0.791-4.231,3.807-25.41,5.652-31.702
			c5.025-17.099,15.111-29.776,27.764-34.965c1.727,0.983,4.1,0.905,5.729-0.253c1.783-1.277,2.668-3.856,2.309-6.724
			c-0.363-2.917-1.877-5.235-3.949-6.051c-2.938-1.138-7.314,1.84-11.346,5.055c-0.461,0.367-0.857,0.686-1.164,0.914
			c-11.357,8.425-20.395,19.976-26.135,33.411c-2.902,6.777-4.893,13.888-5.916,21.13c-0.25,1.762-0.279,3.692-0.307,5.732
			c-0.061,4.337-0.127,8.809-2.342,11.489c-2.215-2.681-2.281-7.152-2.342-11.489c-0.028-2.04-0.057-3.974-0.306-5.732
			c-1.024-7.238-3.015-14.354-5.916-21.13c-5.74-13.436-14.777-24.986-26.136-33.411c-0.306-0.229-0.702-0.547-1.163-0.914
			c-4.031-3.215-8.4-6.202-11.346-5.055c-2.073,0.816-3.586,3.138-3.95,6.051c-0.354,2.868,0.526,5.447,2.313,6.728
			c1.616,1.15,3.995,1.236,5.725,0.253c12.656,5.189,22.738,17.866,27.764,34.965c1.848,6.292,6.442,27.467,5.651,31.702
			c-3.027,0.918-5.337,2.774-6.544,5.292c-1.408,2.938-1.256,6.536,0.424,10.135c1.522,3.248,3.59,5.904,6.732,8.604
			c0.461,1.591-5.177,7.328-7.85,8.434c-3.297,1.371-7.046,2.064-11.151,2.064c-13.031,0-28.095-6.846-41.388-12.881
			c-6.564-2.982-12.762-5.802-18.254-7.601c-17.83-5.843-36.496-9.608-55.484-11.196c-6.838-0.575-13.786-0.861-20.657-0.861
			c-31.082,0-61.143,5.675-89.356,16.871c-7.678,3.048-33.203,14.056-39.319,27.85C-3.55,201.874,7.723,212.473,16.776,220.996z"/>
	</g>
</g>
<g>
</g>
<g>
</g>
<g>
</g>
<g>
</g>
<g>
</g>
<g>
</g>
<g>
</g>
<g>
</g>
<g>
</g>
<g>
</g>
<g>
</g>
<g>
</g>
<g>
</g>
<g>
</g>
<g>
</g>
</svg>
