<?xml version="1.0" encoding="iso-8859-1"?>
<!-- Generator: Adobe Illustrator 16.0.0, SVG Export Plug-In . SVG Version: 6.00 Build 0)  -->
<!DOCTYPE svg PUBLIC "-//W3C//DTD SVG 1.1//EN" "http://www.w3.org/Graphics/SVG/1.1/DTD/svg11.dtd">
<svg version="1.1" id="Capa_1" xmlns="http://www.w3.org/2000/svg" xmlns:xlink="http://www.w3.org/1999/xlink" x="0px" y="0px"
	 width="590.687px" height="590.687px" viewBox="0 0 590.687 590.687" style="enable-background:new 0 0 590.687 590.687;"
	 xml:space="preserve">
<g>
	<path d="M361.08,299.889c-0.306,2.448-0.612,4.591-0.612,6.732c0,1.836,0,3.672,0,5.508c0.307,2.143,0.612,3.979,1.225,6.12
		c0.918,3.672,2.447,6.732,5.508,8.874c3.672,2.754,5.813,6.426,7.956,10.098c0.611,0.919,0.918,2.143,0.918,3.366
		c0,2.143,0,3.979-0.307,6.12c0,1.836-0.306,3.672-0.306,5.508c0,3.366,0.918,6.732,3.061,9.792c2.142,2.754,3.978,6.12,5.813,8.874
		c2.754,3.979,5.508,8.263,7.65,12.546c1.224,2.143,1.836,4.284,1.224,6.732c-0.306,1.53,0,3.06,0.612,4.284
		c1.224,2.754,2.754,4.896,5.508,6.12c0.918,0.611,1.53,1.224,2.448,2.142c1.529,1.836,2.754,3.366,3.978,5.508
		c0.307,0.612,0.918,1.225,1.53,1.53c2.142,0.612,4.284,1.53,6.426,1.53c3.979,0.306,7.956,0,11.934,0
		c0.612,0,1.53-0.307,1.837-0.612c1.224-0.918,2.447-0.918,3.672-0.306c0.611,0.306,1.224,0.306,1.836,0.611
		c0.611-1.224,0.306-2.447-0.307-3.365c-1.224-1.837-2.754-3.061-4.896-3.673c-2.448-0.611-4.896-0.918-7.344-1.224
		c-1.53-0.306-3.061-0.918-3.979-2.142c-2.142-2.448-3.978-4.896-6.12-7.345c-0.918-1.224-1.224-2.754-1.836-3.978
		c-1.224-2.142-2.142-4.284-3.366-6.426c-3.365-5.814-6.731-11.628-10.098-17.442c-1.836-3.672-3.366-7.344-4.896-11.016
		c-1.837-4.59-1.837-9.486-0.612-14.382c1.224-5.202,2.754-10.099,4.59-14.994c3.06-8.874,3.672-17.748,2.448-26.929
		c-0.307-1.224-0.307-2.754-0.307-3.978c0-1.53,0.307-1.53,1.837-1.836c0.918,0,1.836-0.306,2.754-0.306
		c5.201,0,10.403-0.307,15.605-0.918c5.508-0.612,11.017-1.225,16.524-1.837c1.529-0.306,3.366-0.611,4.896-1.224
		c1.225-0.306,2.143-0.612,3.366-0.306c3.06,0.918,6.12,1.529,9.18,2.448c1.53,0.611,3.366,1.224,4.896,1.836
		c0.918,0.306,1.53,0.611,2.448,0.611c1.529,0.307,3.365,0.612,4.896,0.918c3.061,0.918,6.426-0.306,7.65-3.365
		c0.306-0.612,0.306-1.225,0.611-2.143c-2.142,0.918-3.978,2.448-6.426,0.918c1.225-1.836,3.061-3.366,1.53-6.426
		c-0.612,0.306-0.918,0.612-1.224,1.224c-0.612,1.224-1.837,1.53-3.061,1.836c-0.918,0.306-2.142,0.612-3.06,0.612
		c-4.284,0.612-7.345-1.53-11.017-3.672c0.918-0.612,1.53-0.918,2.143-1.224c6.426-2.754,11.934-7.038,17.441-11.016
		c3.366-2.448,5.202-5.814,5.202-9.792c0-0.306,0-0.918,0-1.224c0.306-3.366,1.224-4.59,4.59-5.508
		c2.143-0.612,4.284-0.918,6.426-1.53c3.673-0.918,6.732-3.06,10.099-5.202c6.426-3.978,11.016-9.792,14.688-16.218
		c0.612-1.224,1.225-2.754,2.754-3.672c0.919,0.612,1.225,1.53,1.225,2.448c0,3.366,1.224,5.814,3.672,7.956
		c1.836,1.53,3.06,3.366,4.59,4.896c2.142,2.754,4.896,4.59,7.65,6.732c1.529,1.224,3.366,1.836,5.202,2.142
		c5.508,0.918,10.71,2.448,15.605,4.284c1.224,0.306,2.448,0.918,3.672,1.224c4.59,1.224,8.568,3.672,12.546,5.814
		c1.53,0.918,3.366,1.53,5.202,1.53c2.754,0.306,4.896-0.918,7.038-2.142c1.224-0.918,2.142-1.836,3.366-2.754
		c0.612-0.612,0.918-1.224,0.612-2.142c-0.307-0.918-0.307-1.836-0.612-3.06c-0.306,0.918-0.612,1.53-0.918,2.142
		c-0.307,0-0.307-0.306-0.612-0.306c0-0.612-0.306-1.53-0.306-2.448c-1.225,0.612-0.918,2.448-2.754,2.754
		c-0.307-0.612-0.307-1.224-0.612-1.836c-0.612,0.306-1.224,0.918-1.836,1.224c-0.306-0.918-0.306-1.836-0.612-2.448h-0.306
		c-0.306,0.306-0.306,0.612-0.612,1.224c-0.611,1.224-0.918,1.224-1.836,0.306c-0.306-0.306-0.918-0.306-1.224-0.612
		c0-0.612,0-1.53,0-2.754c-0.612,0.918-0.918,1.53-1.53,2.142c-0.306-0.918-0.306-1.53-0.612-2.448
		c-0.611,0.612-0.918,0.918-1.529,1.224c-0.307-0.612-0.307-1.224-0.612-1.836c-0.306,0-0.612,0.306-1.224,0.306
		c0-0.612-0.307-1.224-0.307-2.142c-0.611,0.612-0.918,0.918-1.529,1.53c-0.307-0.918-0.307-1.53-0.612-2.142
		c-0.306,0.306-0.918,0.612-1.224,0.918c0-0.918,0-1.836,0-2.754c-0.612,0.306-0.919,0.918-1.837,1.224
		c-0.306-0.612-0.306-1.224-0.306-1.836c-0.612,0-0.918,0.306-1.53,0.306c0-0.918-0.306-1.836-1.529-1.836
		c-1.225-2.142-3.672-3.06-4.896-5.202c-1.53-2.142-3.366-3.978-5.813-5.508c-1.53-0.918-1.836-1.224-0.918-3.06
		c0.611,0,0.918,0,1.529,0c3.366,0.612,6.427,1.224,9.486,3.06c1.53,0.918,1.53,0.918,1.836,2.754
		c1.224-0.306,1.224,0.612,1.53,1.53c0.611-0.306,1.224-0.612,2.142-1.224c0,0.612,0,1.53,0,2.448
		c0.612-0.306,1.225-0.612,1.836-0.918c0.307,0.306,0.307,0.612,0.612,0.918c0.612,0,0.918,0,1.836-0.306
		c-0.306,0.918-0.612,1.836-0.918,2.448c1.224,0.612,1.836-0.918,2.448-1.224c1.224,0.612-0.307,1.836,0.611,2.448
		c0.612-0.612,1.225-1.224,2.143-1.836c0.306,0.612,0.306,0.918,0.612,1.53c0.611-0.306,1.224-0.612,2.142-0.918
		c0,0.918-0.306,1.53-0.306,2.448c1.529,0.306,1.529-1.836,3.06-1.836c0.306,0.306,0.306,0.918,0.612,1.53
		c0.918-0.306,0.918-1.836,2.447-1.53c0,0.612,0,1.224,0,2.142c1.836,0,1.836-2.448,3.366-2.448c0,0.612,0,1.224,0.307,1.53
		l0.306,0.306c0.306-0.612,0.918-1.224,1.224-2.142c0,0,0.307,0,0.307,0.306c0,0.612,0.306,0.918,0.306,1.53
		c1.53,0.306,1.53-1.836,2.754-2.142c0,0.612,0.307,0.918,0.307,1.53c1.224-0.918,2.754-1.836,3.978-3.06
		c0.612-0.612,0.612-1.53,0.918-2.142c0.306-3.366,0-6.732-1.53-9.792c-1.224-2.448-2.754-5.202-3.978-7.65
		c-0.307-0.918-0.918-1.53-1.53-2.142c-0.612-0.918-1.224-1.53-1.836-2.142c-0.306-0.612-0.918-1.224-1.224-1.53
		c-0.307-0.612-0.918-0.918-1.225-1.53c-0.611-0.918-1.224-1.836-2.142-2.142c-0.307,0-0.307,0-0.612-0.306
		c-1.224-1.836-3.366-2.142-5.202-3.366c-0.611-0.612-1.529-0.612-2.447-0.918c-0.612,0-1.225,0-1.53-0.306
		c-1.224-1.224-2.448-1.53-3.979-2.142c-0.918-0.306-1.836-0.918-3.06-0.918c-0.612,0-1.224-0.306-1.836-0.612
		c-1.53-1.53-3.061-3.06-4.59-4.59c-0.918-0.918-1.53-1.836-2.448-3.06c-1.224-1.224-2.448-1.53-3.978-0.918
		c-1.53,0.612-2.448,0.306-3.366-0.918c-0.918-0.918-1.836-1.836-2.754-2.754c-1.53-0.918-3.366-1.53-5.202,0
		c-0.307,0.306-0.918,0.612-1.225,0.612c-2.447,0-4.896-0.306-6.731-2.142c-3.979-4.284-8.874-6.426-14.382-7.65
		c-3.672-0.918-7.65-0.612-11.322-0.612c-1.836,0-3.672,0.918-5.202,1.836c-3.366,2.142-6.426,4.284-8.567,7.65
		c-2.755,3.978-6.12,7.038-9.793,9.792c-1.224,0.918-2.447,1.836-3.672,2.448c-0.918,0.306-1.836,0.612-3.06,0.612
		c-1.53,0.306-3.366,0.306-4.896,0.306c-7.038,0-14.075-1.224-20.808-3.366c-1.53-0.306-2.754-0.918-4.284-1.224
		c-4.59-0.918-9.18-2.142-13.77-3.06c-7.345-1.224-14.382-2.142-22.032-1.836c-4.59,0.306-9.18,0.612-13.77,0.918
		c-2.143,0-4.284,0-6.427,0.306c-5.508,0.612-11.321,1.224-16.83,2.142c-3.06,0.306-6.12,0-9.18-0.612
		c-3.978-0.612-7.65-1.224-11.628-0.612c-4.284,0.918-8.568,1.836-12.852,2.754c-5.814,1.224-11.629,2.448-17.137,3.978
		c-3.366,0.918-6.426,2.142-9.18,3.978c-3.061,2.142-6.426,2.754-10.098,3.366c-6.121,1.224-12.24,1.836-18.36,2.448
		c-5.202,0.306-10.71,1.224-15.912,1.53c-7.956,0.612-16.218,1.224-24.174,0.306c-0.918,0-1.53,0-2.448,0
		c-6.426-0.306-12.852-0.306-19.278-0.612c-3.366,0-7.038,0-10.404-0.306c-4.284-0.306-8.262-0.918-12.24-1.53
		c-6.732-0.918-13.77-1.53-20.502-2.142c-4.896-0.306-9.792-1.224-14.994-1.836c-7.65-0.918-14.994-2.754-22.338-4.284
		c-5.508-1.224-11.016-1.836-16.83-2.448c-8.874-0.918-17.748-1.836-26.622-2.448c-5.508-0.306-11.016-0.306-16.218,0.306
		c-2.448,0.306-4.59,0.306-7.038,0.612c-4.284,0.612-8.568,1.224-12.546,1.836c-6.732,1.224-13.77,3.06-20.502,4.59
		c-3.06,0.612-5.814,1.53-8.874,2.448c-2.142,0.612-3.978,1.53-5.814,2.448c-5.814,2.448-11.628,4.896-17.442,7.344
		c-1.836,0.612-3.366,1.53-4.896,2.448c-0.612,0.306-1.224,0.918-1.836,1.53c0,0.306,0,0.306,0,0.612c0.612,0,0.918,0.306,1.53,0
		c1.224-0.306,2.754-0.612,3.978-1.224c6.12-2.142,12.24-4.59,18.36-6.732c8.262-2.448,16.524-4.284,25.092-5.202
		c10.098-1.224,20.196-1.224,30.294,0c4.59,0.612,9.18,0.918,13.77,1.53c4.896,0.918,9.792,2.142,14.688,3.672
		c6.426,1.836,13.158,3.366,19.584,5.508c10.098,3.366,20.196,6.426,29.682,11.016c4.284,1.836,8.874,3.366,13.158,5.508
		c5.814,2.448,11.628,4.59,17.748,6.732c7.038,2.448,14.382,4.284,21.726,5.814c1.224,0.306,2.448,0.918,3.672,1.224
		c0.306,0,0.612,0.306,0.918,0.306c6.732,1.836,13.77,3.672,20.502,5.508c8.262,1.836,16.83,3.978,25.092,6.426
		c3.366,0.918,6.426,2.448,8.874,4.896c3.06,3.06,5.814,6.12,9.18,8.874c2.448,2.142,5.508,3.978,8.568,5.508
		c4.59,2.448,9.486,4.284,14.076,6.426c1.224,0.611,1.836,1.224,1.836,2.754c0,0.918,0,1.836,0,2.447
		c0,1.836-0.612,2.143-2.142,2.755c-1.53,0.306-3.366,0.611-4.896,1.224c-1.224,0.306-2.448,1.224-3.366,2.142
		c-2.448,2.448-4.284,5.202-5.814,8.263c-0.306,0.611-0.612,1.529-0.612,2.447c-0.306,3.366-0.306,7.038-0.918,10.404
		c-0.612,4.59-1.836,9.18-4.59,13.158c-1.224,1.53-2.448,3.06-4.284,3.978c-5.202,3.366-8.874,7.956-11.322,13.771
		c-2.142,5.202-4.896,10.404-6.12,15.912c-0.306,1.224-0.612,2.447-2.142,2.754c-0.612,0-0.918,0.611-1.224,1.224
		c-1.224,1.836-1.836,1.836-3.672,0.612c-0.306-0.307-0.918-0.307-1.224-0.612c-1.224,1.53-1.224,3.061,0.306,4.284
		c0.306,0.306,0.612,0.612,0.918,0.612c0.918,0.306,0.918,1.224,0.612,1.836c-0.918,1.224-1.53,2.448-2.754,3.366
		c-3.06,2.754-3.06,5.201-0.918,8.262c0.918,1.224,1.224,2.754,1.224,4.284c0.306,2.142,0.612,4.283,1.53,6.426
		c0.612,2.142,1.53,4.284,2.448,6.12c1.224,2.447,3.366,3.672,6.12,3.366c1.224,0,2.448,0,3.978,0c0.918,0,2.142,0,3.06-0.307
		c0.918-0.306,2.142-0.612,3.06-0.612c1.53-0.306,3.06-0.611,4.59,0.307c0.306,0,0.612,0,0.918,0.306
		c0-0.611,0.306-0.918,0.306-1.224c-0.306-1.836-2.754-3.979-4.896-4.284c-0.306,0-0.306,0-0.612,0
		c-3.06,0.306-4.896-1.53-6.12-3.672c-2.142-3.672-2.448-7.344-0.918-11.322c0.612-1.529,1.224-2.754,1.836-3.978
		c0.306-1.225,0.918-2.448,1.224-3.366c0.918-6.12,3.366-11.628,6.426-17.136c1.53-2.754,3.366-5.508,4.896-8.263
		c1.836-3.06,3.978-5.813,7.038-7.956c3.672-2.754,7.344-5.201,11.016-7.649c3.366-1.836,6.732-3.366,10.404-4.896
		c4.59-1.836,8.262-4.59,11.628-7.956c2.142-2.142,3.672-4.59,4.896-7.037c0.918-1.837,1.836-3.673,3.061-5.509
		c2.448-3.672,5.202-7.649,8.567-10.71c1.53-1.529,3.061-3.06,4.591-4.59c0.918-1.224,2.142-1.53,3.672-1.53
		c2.142,0.307,4.284,0.307,6.426,0.612c3.366,0,7.038,0.306,10.404,0.306C359.55,299.889,360.162,299.889,361.08,299.889z"/>
</g>
<g>
</g>
<g>
</g>
<g>
</g>
<g>
</g>
<g>
</g>
<g>
</g>
<g>
</g>
<g>
</g>
<g>
</g>
<g>
</g>
<g>
</g>
<g>
</g>
<g>
</g>
<g>
</g>
<g>
</g>
</svg>
