<?xml version="1.0" encoding="iso-8859-1"?>
<!-- Generator: Adobe Illustrator 16.0.0, SVG Export Plug-In . SVG Version: 6.00 Build 0)  -->
<!DOCTYPE svg PUBLIC "-//W3C//DTD SVG 1.1//EN" "http://www.w3.org/Graphics/SVG/1.1/DTD/svg11.dtd">
<svg version="1.1" id="Capa_1" xmlns="http://www.w3.org/2000/svg" xmlns:xlink="http://www.w3.org/1999/xlink" x="0px" y="0px"
	 width="591.318px" height="591.319px" viewBox="0 0 591.318 591.319" style="enable-background:new 0 0 591.318 591.319;"
	 xml:space="preserve">
<g>
	<path d="M43.876,212.106c-9.926-0.804-18.625,2.88-26.414,8.233c-8.397,5.769-7.772,15.545,0.648,21.392
		c0.935,0.649,1.885,1.265,3.142,1.624c0.51,0.146,0.706-0.155,0.404-0.596c-0.449-0.657-0.897-1.31-1.285-2
		c-2.848-5.043-1.322-9.625,3.782-11.656c0.861-0.343,1.677-0.959,2.334-1.624c7.193-7.271,16.646-7.98,25.985-8.845
		c1.375-0.126,2.823,0.542,4.276,1.693c0.416,0.331,0.314,0.698-0.212,0.784c-1.925,0.322-3.864,0.608-5.765,1.048
		c-8.303,1.922-16.561,3.999-21.661,11.779c-5.357,8.172-3.623,13.509,4.745,16.594c0.498,0.184,0.836-0.106,0.751-0.632
		c-0.498-2.938-1.037-6.12-1.579-9.323c-0.09-0.526,0.241-0.795,0.739-0.608c0.094,0.037,0.184,0.069,0.277,0.106
		c0.498,0.188,1.232,0.065,1.64-0.278c1.832-1.53,3.656-3.068,5.504-4.582c1.191-0.975,2.289-2.281,3.668-2.783
		c6.752-2.456,13.611-4.614,20.375-7.034c3.798-1.359,6.304-0.796,7.923,3.341c1.416,3.619,3.366,7.026,4.884,9.951
		c0.245,0.473,0.045,1.036-0.441,1.257c-11.579,5.234-22.929,9.996-33.888,15.52c-7.801,3.933-15.039,8.976-22.53,13.513
		c-3.276,1.983-6.463,4.153-9.878,5.871c-6.83,3.435-13.048,16.969-10.853,24.222c0.298,0.987,0.84,1.901,1.599,3.415
		c0.241,0.478,0.608,0.474,0.833-0.008c1.457-3.142,2.668-5.757,3.986-8.592c0.225-0.481,0.494-0.453,0.625,0.065
		c2.052,7.939,8.291,12.778,16.801,12.712c0.531-0.004,0.563-0.191,0.069-0.383c-2.068-0.816-3.558-1.339-4.957-2.032
		c-5.014-2.493-5.626-7.776-1.522-11.244c1.146-0.971,2.379-2.521,2.505-3.9c0.494-5.32,3.757-7.972,8.327-9.833
		c0.494-0.2,0.804,0.069,0.706,0.592c-1.526,8.217,0.897,14.965,7.601,20.429c4.655,3.794,9.469,3.745,14.659,2.61
		c0.518-0.114,0.575-0.448,0.123-0.729c-3.415-2.13-6.769-4.007-9.731-6.373c-1.179-0.938-1.379-3.203-1.836-4.913
		c-0.363-1.371,0.016-3.142-0.722-4.169c-3.146-4.39-1.709-7.732,1.877-10.865c0.832-0.73,1.534-1.652,2.15-2.579
		c8.124-12.203,20.045-15.977,33.958-15.361c1.122,0.049,2.252,0.176,3.358,0.065c0.657-0.065,1.297-0.281,2.036-0.522
		c0.506-0.164,1,0.139,1.11,0.661c0.673,3.301,1.514,6.548,1.828,9.849c0.833,8.796,9.086,11.098,14.888,5.745
		c0.281-0.261,0.657-0.42,1.13-0.624c0.49-0.208,1.082-0.017,1.343,0.449c6.336,11.33,16.124,19.266,25.814,27.405
		c3.15,2.647,5.594,6.63,7.238,10.481c4.019,9.412,7.401,19.098,10.992,28.694c0.477,1.277,0.734,2.636,1.342,5.051
		c0.13,0.519-0.123,0.693-0.567,0.404c-4.227-2.774-7.491-4.778-10.563-7.038c-3.088-2.269-5.875-4.949-8.935-7.263
		c-5.467-4.137-12.95-3.818-19.201,0.302c-4.659,3.072-9.555,5.781-14.341,8.666c-3.284,1.979-5.544,1.444-8.123-1.774
		c-2.615-3.269-6.071-6.169-9.714-8.254c-10.461-5.981-19.812,2.762-21.763,12.093c-0.767,3.672,0.159,7.699,0.506,11.604
		c0.045,0.53,0.465,1.021,0.951,1.098c0.485,0.078,1.04-0.265,1.232-0.763c0.82-2.134,1.55-4.312,2.627-6.308
		c1.269-2.351,2.603-4.961,4.631-6.508c1.338-1.024,4.06-0.759,5.945-0.261c0.657,0.171,1.085,2.831,0.897,4.259
		c-0.481,3.668,0.583,6.296,4.068,7.757c2.113,0.885,4.247,1.729,6.964,2.827c0.494,0.2,0.58,0.657,0.216,1.044
		c-3.966,4.269-2.729,8.254-0.465,12.718c1.987,3.921,2.126,8.809,4.231,12.636c3.558,6.471,7.654,11.514,17.079,10.931
		c5.386-0.335,9.865-0.547,14.688-4.003c0.433-0.31,0.355-0.697-0.151-0.853c-1.567-0.481-2.656-0.886-3.778-1.049
		c-6.279-0.909-8.331-2.398-8.495-8.625c-0.118-4.414-1.326-8.009-3.737-11.497c-2.419-3.505-2.093-6.41,1.905-8.752
		c4.957-2.905,9.625-6.315,14.659-9.065c1.191-0.648,3.688-0.033,5.002,0.86c8.613,5.843,17.062,11.922,25.569,17.916
		c0.914,0.645,1.795,1.383,2.794,1.86c7.356,3.509,12.791,1.269,16.039-6.5c0.637-1.525,1.387-3.003,2.113-4.492
		c0.233-0.477,0.812-0.905,1.293-0.95s1.053,0.31,1.29,0.787c1.734,3.497,4.149,6.907,4.606,10.567
		c1.864,14.998,7.964,27.259,20.873,35.558c10.575,6.801,21.412,13.207,31.918,20.11c2.925,1.926,6.14,4.565,7.417,7.633
		c3.843,9.237,5.712,19.033,4.088,29.095c-0.351,2.163-1.689,4.166-3.113,6.161c-0.31,0.433-0.689,0.371-0.853-0.135
		c-2.077-6.45-4.851-12.236-12.073-12.921c-8.911-0.845-14.549,3.451-19.058,13.684c-0.216,0.485,0,0.678,0.465,0.425
		c1.767-0.955,3.007-1.592,4.19-2.317c1.498-0.918,2.807-2.298,4.415-2.84c1.408-0.474,2.987-0.437,4.533-0.498
		c0.53-0.021,0.926,0.376,0.889,0.906c-0.094,1.342-0.167,2.685-0.367,4.006c-0.494,3.256-1.065,6.496-1.51,9.103
		c-0.089,0.526-0.591,0.923-1.122,0.882c-3.99-0.314-8.744-1.024-13.423-0.686c-5.422,0.392-9.16,3.664-11.392,9.258
		c-0.196,0.493,0.049,0.71,0.522,0.473c2.33-1.158,4.427-2.199,7.177-3.569c0.477-0.237,0.608-0.078,0.298,0.351
		c-2.22,3.06-3.962,5.455-5.802,7.988c-0.314,0.433-0.151,0.665,0.363,0.522c4.174-1.171,7.614-2.261,11.126-3.003
		c3.081-0.648,5.765-0.11,8.083,2.709c2.33,2.836,9.816,2.093,12.811-0.041c2.118-1.509,4.937-2.097,7.507-2.893
		c3.835-1.188,7.707-2.269,11.604-3.228c1.204-0.297,2.558-0.179,3.815-0.028c4.578,0.555,9.143,1.188,13.713,1.8
		c0.526,0.069,1.052-0.294,1.175-0.812c0.012-0.057,0.024-0.114,0.041-0.171c0.118-0.519-0.184-1.102-0.677-1.302l-9.233-3.733
		c-0.494-0.199-0.522-0.579-0.073-0.869c11.114-7.181,5.582-17.45,6.059-26.304c0.331-6.169-1.146-12.411-1.379-18.633
		c-0.257-6.875-3.611-12.416-8.764-15.847c-8.258-5.5-12.917-13.632-18.091-21.416c-2.733-4.117-4.488-8.883-6.602-13.411
		c-0.224-0.481-0.114-1.143,0.257-1.477c0.367-0.335,1.069-0.445,1.571-0.273c1.216,0.416,2.477,0.767,3.468,1.493
		c7.45,5.476,14.59,11.399,22.26,16.54c5.998,4.019,12.44,7.482,18.98,10.559c17.634,8.295,34.982,17.495,53.277,24.003
		c19.168,6.817,39.396,9.441,60.066,7.638c15.059-1.313,30.191-2.374,44.65-6.679c20.836-6.206,41.396-13.423,58.4-27.87
		c11.326-9.621,23.248-18.617,33.889-28.939c12.816-12.428,25.416-25.276,36.518-39.209c10.615-13.321,21.031-27.132,27.326-43.329
		c1.217-3.125,2.053-6.402,3.012-9.629c0.15-0.51-0.123-1.085-0.611-1.285l0,0c-0.494-0.2-1.082,0.028-1.314,0.506
		c-5.564,11.396-12.125,22.117-21.27,31.081c-7.748,7.597-15.223,15.508-23.346,22.681c-16.932,14.953-33.695,30.172-51.502,44.035
		c-15.516,12.081-33.553,19.657-52.811,24.406c-18.654,4.599-37.287,4.035-56.256,2.987c-16.258-0.897-30.934-6.431-45.846-11.6
		c-10.107-3.505-20.426-6.973-29.695-12.162c-10.404-5.827-19.926-13.313-29.469-20.56c-7.846-5.961-14.802-13.121-22.791-18.857
		c-10.453-7.504-18.205-16.957-23.167-28.63c-5.557-13.076-9.992-26.662-16.079-39.469c-3.848-8.095-9.099-15.822-15.027-22.559
		c-8.629-9.804-18.376-18.637-27.772-27.756c-4.843-4.7-10.024-9.05-14.92-13.697c-3.672-3.484-3.599-5.214,0.269-8.552
		c3.758-3.244,7.744-6.222,11.53-9.433c13.121-11.123,17.891-25.333,14.994-42.102c-1.143-6.618-2.587-13.24-4.606-19.633
		c-2.244-7.091-8.017-11.342-14.239-14.835c-6.263-3.517-12.632-6.838-18.964-10.232c-0.563-0.302-1.159-0.648-1.775-0.73
		c-19.731-2.578-37.993-10.955-57.475-14.537c-10.657-1.958-18.911,3.007-21.383,13.464c-0.445,1.876-0.779,3.815-0.951,5.757
		c-0.045,0.53-0.22,1.367-0.339,1.885c-0.322,1.44-0.241,2.95,0.379,4.309c0.221,0.485,0.604,1.252,0.824,1.734
		c2.036,4.447,6.879,6.61,10.836,9.319c11.494,7.871,23.158,15.492,34.778,23.178c1.73,1.146,3.497,2.342,5.41,3.085
		c11.6,4.5,14.708,14.725,7.226,24.59c-2.02,2.66-4.508,4.982-6.895,7.336c-7.536,7.43-13.374,16.002-17.769,25.618
		c-0.914,1.995-2.297,3.844-3.757,5.5c-2.33,2.64-4.855,5.108-7.487,7.793c-0.372,0.379-0.894,0.322-1.167-0.139
		c-2.17-3.672-4.312-7.536-6.785-11.171c-1.399-2.056-3.174-4.688-5.288-5.292c-11.175-3.199-19.359-11.024-28.576-17.324
		c-9.372-6.41-15.296-6.32-23.685,0.082c-3.933,3.003-4.108,5.989-0.681,9.82c0.355,0.396,0.767,0.286,0.865-0.236
		c0.253-1.334,0.384-2.648,1.069-3.529c0.955-1.224,2.583-2.211,4.092-2.587c0.628-0.155,1.665,1.6,2.603,2.383
		c1,0.836,2.432,2.44,3.109,2.187c7.924-2.946,12.701,2.338,19.009,6.752c0.437,0.306,0.363,0.53-0.167,0.514
		C50.278,212.359,47.067,212.363,43.876,212.106z"/>
</g>
<g>
</g>
<g>
</g>
<g>
</g>
<g>
</g>
<g>
</g>
<g>
</g>
<g>
</g>
<g>
</g>
<g>
</g>
<g>
</g>
<g>
</g>
<g>
</g>
<g>
</g>
<g>
</g>
<g>
</g>
</svg>
