<?xml version="1.0" encoding="iso-8859-1"?>
<!-- Generator: Adobe Illustrator 16.0.0, SVG Export Plug-In . SVG Version: 6.00 Build 0)  -->
<!DOCTYPE svg PUBLIC "-//W3C//DTD SVG 1.1//EN" "http://www.w3.org/Graphics/SVG/1.1/DTD/svg11.dtd">
<svg version="1.1" id="Capa_1" xmlns="http://www.w3.org/2000/svg" xmlns:xlink="http://www.w3.org/1999/xlink" x="0px" y="0px"
	 width="579.879px" height="579.879px" viewBox="0 0 579.879 579.879" style="enable-background:new 0 0 579.879 579.879;"
	 xml:space="preserve">
<g>
	<g>
		<path d="M578.111,451.54c-4.381-1.269-8.719-2.966-13.199-3.569c-12.289-1.657-24.43-3.782-36.047-8.282
			c-10.619-4.113-20.301-9.679-27.764-18.52c-4.215-4.99-7.227-10.596-8.322-17.128c-0.523-3.097-0.01-5.598,2.373-8.082
			c2.326-2.428,4.133-5.524,5.549-8.609c2.539-5.532,4.477-11.338,6.916-16.924c2.379-5.438,5.451-10.596,7.557-16.128
			c6.111-16.075,7.145-32.755,5.781-49.805c-0.914-11.437-0.801-22.955-1.117-34.436c-0.135-4.896-0.006-9.804-0.355-14.684
			c-0.336-4.667-1.322-9.205-4.406-13.04c-0.621-0.771-0.764-2.089-0.768-3.158c-0.029-5.973-0.967-11.673-4.387-16.761
			c-0.412-0.616-0.615-1.489-0.615-2.244c0.004-4.402,0.207-8.809,0.131-13.207c-0.066-3.578-0.936-6.973-3.02-10.008
			c-0.559-0.816-0.943-1.93-0.955-2.913c-0.117-10.343-4.822-19.519-7.385-29.237c-0.359-1.354-1.371-2.521-1.941-3.835
			c-0.314-0.726-0.617-1.652-0.441-2.37c0.832-3.399,0.611-6.401-1.803-9.262c-1.053-1.249-1.355-3.174-1.848-4.835
			c-0.637-2.142-0.85-4.451-1.734-6.471c-1.727-3.933-3.727-7.752-5.736-11.555c-1.877-3.549-3.955-6.993-5.889-10.51
			c-8.906-16.202-22.252-26.798-40.139-31.481c-3.537-0.926-7.275-1.383-10.934-1.465c-9.242-0.212-17.141,3.57-24.443,8.895
			c-2.199,1.604-4.371,3.37-6.814,4.504c-8.449,3.925-15.994,9.098-21.648,16.495c-5.385,7.046-11.383,13.472-17.553,19.8
			c-7.67,7.866-14.52,16.32-17.988,27.046c-0.619,1.926-1.904,3.753-3.271,5.28c-1.029,1.15-2.582,2.162-4.072,2.509
			c-6.793,1.591-11.959,4.814-14.104,11.946c-0.449,1.494-1.881,3.003-3.262,3.856c-8.158,5.047-15.576,10.877-20.586,19.217
			c-1.18,1.966-2.555,2.917-4.64,3.639c-2.754,0.951-5.521,2.183-7.878,3.855c-2.187,1.551-3.77,3.929-5.761,5.794
			c-5.916,5.544-12.342,10.277-20.408,12.276c-2.489,0.616-5.055,1.028-7.446,1.91c-7.98,2.946-15.875,6.128-23.852,9.09
			c-5.333,1.979-10.641,4.186-16.149,5.479c-6.704,1.575-13.639,2.113-20.412,3.423c-9.653,1.873-19.331,3.252-29.188,2.701
			c-9.51-0.531-18.959,0.134-28.356,1.526c-19.629,2.909-38.466,8.674-56.985,15.675c-21.265,8.042-39.454,20.176-52.473,39.131
			C7.916,325.146,0.518,344.971,0.412,367.174c-0.004,0.689-0.269,1.375-0.412,2.064v5.79c0.232,1.252,0.355,2.533,0.722,3.745
			c1.795,5.899,3.782,11.746,5.463,17.679c3.317,11.71,9.583,21.669,17.744,30.539c9.502,10.33,20.714,18.479,32.738,25.59
			c13.023,7.703,26.41,14.651,40.931,19.131c7.324,2.261,14.766,3.966,22.518,2.672c4.108-0.685,7.715-2.342,10.327-5.98
			c-7.315-3.22-14.802-5.435-21.371-9.694c1.306-0.253,2.497-0.163,3.692-0.139c1.281,0.024,2.57,0.069,3.843-0.049
			c3.611-0.327,4.5-1.967,2.913-5.149c-0.677-1.358-1.412-2.726-1.832-4.17c-0.596-2.06,0.143-2.872,2.171-2.272
			c2.06,0.612,3.949,1.779,5.993,2.448c4.215,1.379,8.425,2.885,12.754,3.762c3.194,0.648,4.406-1.13,3.549-4.325
			c-0.371-1.387-0.889-2.733-1.236-3.794c3.888,2.313,7.678,4.855,11.73,6.883c3.129,1.566,6.609,1.869,10.09,0.759
			c3.402-1.085,5.304-5.431,2.709-8.711c-0.253-0.318-0.506-0.632-0.759-0.946c5.324,0.901,10.645,1.804,15.969,2.705
			c15.827,5.394,32.167,7.67,49.038,6.675c1.293-0.077,2.272-0.474,3.174-1.15c2.811-0.131,5.606-0.453,8.401-0.845
			c-0.828,0.637-1.657,1.277-2.481,1.914c-1.648,1.272-2.868,3.251-3.909,5.116c-1.003,1.795-1.407,3.912-2.285,5.793
			c-5.202,11.171-8.646,23.207-16.826,33.652c3.79-0.192,7.107,0.016,10.269-0.592c11.734-2.248,23.489-4.459,35.096-7.254
			c19.409-4.672,38.479-10.751,58.467-12.938c8.213-0.897,16.234-3.129,23.68-6.968c3.766-1.942,7.156-4.35,9.25-8.177
			c1.762-3.223,1.518-6.605,0.432-10.062c0.494-0.053,0.809-0.105,1.123-0.114c16.479-0.338,32.924-1.199,49.207-3.888
			c14.113-2.334,28.129-5.104,39.902-13.064c3.15,1.995,5.945,4.264,9.123,5.659c4.904,2.15,9.98,4.051,15.15,5.435
			c14.785,3.953,29.947,5.695,45.17,6.973c21.562,1.808,43.152,2.403,64.777,1.767c0.824-0.024,1.641-0.241,2.461-0.367
			C579.393,452.312,578.805,451.74,578.111,451.54z"/>
	</g>
</g>
<g>
</g>
<g>
</g>
<g>
</g>
<g>
</g>
<g>
</g>
<g>
</g>
<g>
</g>
<g>
</g>
<g>
</g>
<g>
</g>
<g>
</g>
<g>
</g>
<g>
</g>
<g>
</g>
<g>
</g>
</svg>
