<?xml version="1.0" encoding="iso-8859-1"?>
<!-- Generator: Adobe Illustrator 16.0.0, SVG Export Plug-In . SVG Version: 6.00 Build 0)  -->
<!DOCTYPE svg PUBLIC "-//W3C//DTD SVG 1.1//EN" "http://www.w3.org/Graphics/SVG/1.1/DTD/svg11.dtd">
<svg version="1.1" id="Capa_1" xmlns="http://www.w3.org/2000/svg" xmlns:xlink="http://www.w3.org/1999/xlink" x="0px" y="0px"
	 width="568.226px" height="568.226px" viewBox="0 0 568.226 568.226" style="enable-background:new 0 0 568.226 568.226;"
	 xml:space="preserve">
<g>
	<g>
		<path d="M528.464,302.701c3.518-14.37,13.848-23.007,33.999-30.543c1.693-13.084-8.091-16.564-17.255-20.363
			c-30.159-12.501-59.902-26.218-90.706-36.867c-21.534-7.446-44.477-10.951-66.933-15.533c-6.014-1.228-7.947-3.182-10.457-9.208
			c-4.504-10.816-12.46-20.196-19.486-30.959c-8.352,7.989-8.788-4.431-15.145-5.671c-0.873,1.795-2.117,4.362-4.219,8.678
			c-3.162-4.623-5.716-8.355-9.078-13.268c-3.072,6.198-4.981,10.045-7.377,14.876c-4.577-3.644-8.103-6.451-11.941-9.507
			c-1.518,4.868-2.877,9.229-4.541,14.578c-3.607-2.101-6.524-3.803-9.951-5.798c-1.135,4.174-2.195,8.079-3.57,13.129
			c-4.015-2.211-7.185-3.958-10.38-5.716c-5.695,13.052-5.695,13.052-17.687,6.185c-0.963,2.211-1.771,4.411-2.86,6.459
			c-0.967,1.815-2.252,3.464-3.713,5.671c-3.958-1.86-7.446-3.497-10.996-5.165c-8.274,5.198-16.25,6.593-24.619-0.563
			c-12.848-10.983-28.332-6.826-42.028-4.01c-21.33,4.386-35.998,20.163-49.327,36.438c-4.994,6.095-3.558,12.946,1.734,18.568
			c2.623,2.791,5.863,5.002,11.318,9.56c-23.122-0.306-43.701,2.036-60.042-15.194c-15.337-16.169-30.963-32.061-46.598-47.94
			c-7.059-7.169-15.528-11.179-26.051-10.302c-9.833,62.546-14.77,124.835-6.014,188.21c12.085,0.478,22.575-5.193,32.11-12.13
			c13.647-9.931,27.258-20.11,39.646-31.526c17.617-16.238,36.871-19.343,58.719-11.158c7.629,2.859,15.316,5.568,22.62,10.465
			c-5.28,0-10.559,0.045-15.834-0.008c-10.286-0.103-13.999,3.688-12.477,13.688c1.293,8.502,2.509,17.136,5.06,25.308
			c5.361,17.173,19.013,22.212,34.647,13.231c11.779-6.765,23.337-13.904,36.887-19.241c-0.91,2.656-1.824,5.316-2.913,8.486
			c1.138-0.347,2.293-0.347,2.868-0.926c11.791-11.815,24.321-13.778,41.485-10.445c26.598,5.17,54.239,4.998,81.449,6.981
			c4.239,0.31,8.522,0.045,16.613,0.045c-13.402,8.857-9.352,15.279-3.451,23.99c6.193,9.147,8.687,20.759,13.174,31.13
			c1.652,3.819,4.387,7.169,8.005,12.922c3.982-6.083,8.222-10.286,9.747-15.309c4.46-14.684,8.625-29.56,11.298-44.643
			c1.269-7.169,3.003-10.878,10.575-11.608c20.625-1.99,41.273-3.953,61.775-6.898c15.916-2.285,31.755-5.479,47.381-9.282
			c16.365-3.982,32.444-9.127,48.63-13.84c17.287-5.034,19.449-11.183,10.502-23.758
			C551.39,296.871,540.554,299.625,528.464,302.701z"/>
	</g>
</g>
<g>
</g>
<g>
</g>
<g>
</g>
<g>
</g>
<g>
</g>
<g>
</g>
<g>
</g>
<g>
</g>
<g>
</g>
<g>
</g>
<g>
</g>
<g>
</g>
<g>
</g>
<g>
</g>
<g>
</g>
</svg>
