<?xml version="1.0" encoding="iso-8859-1"?>
<!-- Generator: Adobe Illustrator 16.0.0, SVG Export Plug-In . SVG Version: 6.00 Build 0)  -->
<!DOCTYPE svg PUBLIC "-//W3C//DTD SVG 1.1//EN" "http://www.w3.org/Graphics/SVG/1.1/DTD/svg11.dtd">
<svg version="1.1" id="Capa_1" xmlns="http://www.w3.org/2000/svg" xmlns:xlink="http://www.w3.org/1999/xlink" x="0px" y="0px"
	 width="556.373px" height="556.373px" viewBox="0 0 556.373 556.373" style="enable-background:new 0 0 556.373 556.373;"
	 xml:space="preserve">
<g>
	<g>
		<path d="M178.775,241.539c-9.404,9.021-18.854,18.005-27.948,27.332c-3.684,3.778-7.229,4.264-12.219,3.231
			c-14.684-3.048-29.458-5.766-44.28-8.042c-14.574-2.24-29.246-3.908-43.909-5.472c-1.771-0.188-4.039,1.543-5.594,2.93
			c-0.677,0.604-1.077,1.522-1.509,2.632c-0.547,1.416,0.184,2.701,1.689,2.896c29.372,3.815,58.785,7.638,88.197,11.457
			c1.505,0.195,2.86,0.767,3.027,1.272c0.167,0.506-0.616,1.738-1.75,2.75c-1.024,0.918-2.052,1.828-3.117,2.693
			c-11.171,9.102-22.673,17.825-33.48,27.34c-21.869,19.258-35.875,43.076-39.78,72.298c-0.449,3.361-0.42,6.862-0.073,10.24
			c1.053,10.294,5.757,15.438,15.896,15.088c0.922-0.032,1.84-0.069,2.758-0.11c1.518-0.065,3.954,0.082,5.459,0.298
			c34.464,4.953,69.421-8.964,90.751-36.227c0.934-1.195,2.333-2.66,3.244-3.072c0.91-0.411,2.835-0.036,4.264,0.478
			c3.468,1.249,7.136,1.881,10.922,1.959c1.518,0.032,3.954,0.253,5.471,0.273c1.232,0.016,2.481-0.135,3.725-0.478
			c5.218-1.437,9.017-5.94,9.89-11.069c0.253-1.493,0.881-3.745,1.742-4.994c0.151-0.22,0.306-0.44,0.457-0.66
			c0.861-1.249,2.448-3.113,3.55-4.158c1.579-1.497,3.195-3.031,4.859-4.614c1.102-1.044,1.926-0.665,1.848,0.853
			c-1.024,19.576-2.061,39.282-3.081,58.989c-0.118,2.28-0.379,4.581-0.204,6.842c1.338,17.254,1.473,34.737,4.561,51.678
			c2.615,14.353,6.483,28.959,11.759,42.403c5.908,15.047,16.247,28.453,25.382,42.089c4.553,6.797,8.748,7.201,15.879,2.921
			c0.171-0.102,0.342-0.208,0.514-0.31c0.286-0.172,0.747-0.172,1.032,0c0.171,0.106,0.343,0.208,0.514,0.31
			c7.132,4.28,11.326,3.876,15.88-2.921c9.135-13.636,19.474-27.042,25.381-42.089c5.28-13.444,9.144-28.051,11.763-42.403
			c3.089-16.94,3.224-34.428,4.562-51.678c0.176-2.261-0.085-4.562-0.204-6.842c-1.023-19.707-2.056-39.413-3.08-58.989
			c-0.077-1.518,0.747-1.896,1.849-0.853c1.664,1.583,3.28,3.113,4.859,4.614c1.102,1.045,2.685,2.909,3.545,4.158
			c0.151,0.22,0.302,0.44,0.453,0.66c0.86,1.249,1.489,3.501,1.746,4.998c0.873,5.125,4.676,9.633,9.89,11.069
			c1.245,0.343,2.497,0.494,3.726,0.478c1.518-0.021,3.953-0.245,5.471-0.273c3.787-0.082,7.455-0.714,10.923-1.958
			c1.428-0.515,3.346-0.894,4.259-0.478c0.914,0.416,2.31,1.877,3.248,3.072c21.33,27.258,56.283,41.175,90.747,36.226
			c1.502-0.216,3.941-0.362,5.459-0.298c0.918,0.041,1.837,0.078,2.759,0.11c10.139,0.352,14.843-4.794,15.896-15.088
			c0.347-3.382,0.375-6.879-0.073-10.24c-3.909-29.222-17.911-53.04-39.78-72.298c-10.804-9.515-22.31-18.237-33.48-27.34
			c-1.064-0.865-2.093-1.779-3.117-2.693c-1.13-1.012-1.918-2.239-1.75-2.75c0.167-0.51,1.521-1.081,3.027-1.272
			c29.412-3.823,58.825-7.642,88.193-11.457c1.505-0.195,2.235-1.48,1.688-2.896c-0.428-1.109-0.832-2.027-1.51-2.632
			c-1.55-1.387-3.818-3.117-5.593-2.929c-14.668,1.562-29.336,3.231-43.909,5.471c-14.823,2.277-29.597,4.994-44.28,8.042
			c-4.99,1.036-8.535,0.547-12.22-3.231c-9.095-9.327-18.544-18.311-27.948-27.332c-4.517-4.333-9.18-8.507-13.672-12.599
			c-1.122-1.021-1.894-2.158-1.742-2.542c0.171-0.433,0.221-0.604,0.326-0.653c0.62-0.285,1.261-0.546,1.918-0.734
			c10.266-2.921,19.938-5.312,28.67-13.496c10.013-9.389,23.623-14.97,35.777-22.028c4.203-2.439,9.801-3.357,12.84-6.711
			c4.647-5.133,7.977-6.695,13.211-2.726c1.208,0.918,1.775,0.592,1.392-0.878c-0.922-3.517-1.714-6.527-2.317-8.833
			c-0.384-1.469-1.738-3.312-3.023-4.12c-0.571-0.359-1.081-0.682-1.534-0.963c-1.285-0.809-2.896-0.372-3.488,1.027
			c-1.068,2.542-2.113,5.305-4.101,6.504c-8.106,4.908-18.29,5.676-25.729,12.24c-0.163,0.146-0.371,0.318-0.571,0.334
			c-7.475,0.657-11.763,6.59-16.091,11.221c-6.332,6.772-12.024,12.346-22.362,12.317c-5.663-0.017-11.661,3.121-16.899,5.961
			c-4.685,2.537-8.001,3.476-11.698-1.265c-3.79-4.859-8.024-9.385-12.224-13.913c-6.735-7.274-12.685-14.565-12.109-25.627
			c0.221-4.247,0.535-6.911,4.109-9.637c14.137-10.783,23.19-25.084,27.43-42.338c0.971-3.945,0.885-8.16,1.946-12.073
			c2.093-7.703,5.761-15.137,6.784-22.941c2.249-17.185,7.055-32.815,20.433-44.749c0.335-0.298,0.535-0.743,0.82-1.098
			c7.813-9.588,16.067-18.422,28.703-21.882c7.878-2.158,8.147-4.227,2.488-9.763c-0.521-0.511-1.012-1.062-1.436-1.567
			c-0.755-0.897-2.269-0.849-3.415,0.147c-2.362,2.04-4.729,4.088-7.14,6.173c-1.146,0.991-2.367,1.139-2.726,0.322
			c-0.355-0.812-1.828-1.122-3.203-0.474c-5.989,2.824-9.168,8.05-12.407,13.375c-0.71,1.167-2.375,1.75-4.251,2.456
			c-1.42,0.53-3.236,2.064-4.101,3.312c-5.802,8.36-12.012,17.304-18.238,26.271c-0.864,1.244-2.436,1.66-3.509,0.922
			c-1.072-0.738-2.056-0.106-2.198,1.403c-1.384,14.713-2.73,29.046-4.072,43.354c-0.143,1.51-0.633,2.452-1.094,2.101
			c-0.461-0.351-1.619,0.314-2.656,1.425c-1.831,1.975-3.749,3.912-4.732,6.246c-5.193,12.269-12.362,22.864-22.66,30.894
			c-1.195,0.935-3.085,0.783-4.17-0.277c-4.818-4.708-9.543-9.327-14.406-14.076c-1.086-1.061-0.734-1.905,0.783-1.877
			c1.379,0.029,2.733,0.041,4.076-0.045c12.398-0.791,20.375-10.521,17.67-22.574c-2.656-11.828-6.332-23.301-20.845-25.88
			c-1.493-0.265-1.713-1.068-0.465-1.93c7.789-5.353,14.688-9.792,20.702-16.605c15.055-17.05,32.465-32.016,49.106-47.765
			c1.102-1.044,2.95-1.098,3.815,0.147c2.104,3.031,3.643,7.254,8.4,7.988c1.501,0.232,2.627-1.179,2.521-2.692
			c-0.151-2.163-0.281-4.224-0.723-6.214c-1.33-6.03-2.317-13.113-9.901-14.003c-6.871-0.808-12.669,1.905-16.101,8.951
			c-1.812,3.726-5.156,6.777-8.09,9.87c-10.69,11.269-21.449,22.473-32.302,33.582c-2.183,2.236-4.786,4.108-7.36,5.908
			c-5.034,3.517-10.853,6.193-15.137,10.44c-4.558,4.521-9.188,7.557-14.749,8.254c-1.506,0.188-2.742,0.131-2.742,0.106
			s-0.208-0.029-0.465-0.013s-0.677,0.017-0.938,0c-0.257-0.017-0.465-0.017-0.465,0.013c0,0.028-1.232,0.085-2.742-0.106
			c-5.561-0.697-10.191-3.737-14.749-8.254c-4.284-4.247-10.102-6.924-15.137-10.44c-2.574-1.8-5.178-3.672-7.36-5.908
			c-10.853-11.113-21.612-22.313-32.301-33.582c-2.934-3.093-6.275-6.145-8.091-9.87c-3.431-7.046-9.229-9.759-16.1-8.951
			c-7.581,0.89-8.572,7.973-9.902,14.003c-0.44,1.99-0.571,4.051-0.722,6.214c-0.106,1.514,1.02,2.925,2.518,2.692
			c4.757-0.73,6.295-4.953,8.401-7.988c0.865-1.249,2.713-1.191,3.814-0.147c16.643,15.749,34.052,30.715,49.107,47.765
			c6.018,6.813,12.917,11.257,20.702,16.605c1.249,0.857,1.028,1.665-0.465,1.93c-14.508,2.579-18.188,14.052-20.845,25.88
			c-2.705,12.053,5.271,21.787,17.67,22.574c1.347,0.086,2.697,0.074,4.076,0.045c1.518-0.028,1.869,0.82,0.783,1.881
			c-4.863,4.754-9.588,9.372-14.406,14.076c-1.085,1.061-2.97,1.212-4.166,0.277c-10.298-8.029-17.47-18.621-22.66-30.894
			c-0.987-2.334-2.901-4.271-4.733-6.246c-1.032-1.11-2.191-1.775-2.656-1.424c-0.465,0.351-0.951-0.592-1.094-2.102
			c-1.342-14.309-2.688-28.642-4.072-43.354c-0.143-1.509-1.126-2.138-2.199-1.403c-1.073,0.734-2.644,0.322-3.509-0.922
			c-6.226-8.968-12.436-17.911-18.242-26.271c-0.865-1.244-2.68-2.778-4.1-3.312c-1.877-0.706-3.542-1.289-4.251-2.456
			c-3.244-5.324-6.418-10.551-12.407-13.374c-1.371-0.646-2.844-0.339-3.203,0.473c-0.354,0.812-1.575,0.669-2.725-0.322
			c-2.416-2.089-4.782-4.133-7.14-6.173c-1.146-0.991-2.66-1.045-3.415-0.146c-0.424,0.506-0.914,1.052-1.436,1.566
			c-5.663,5.536-5.39,7.605,2.489,9.764c12.636,3.46,20.89,12.293,28.703,21.881c0.29,0.354,0.49,0.8,0.82,1.098
			c13.378,11.93,18.185,27.561,20.429,44.749c1.02,7.805,4.692,15.239,6.785,22.942c1.061,3.912,0.975,8.127,1.946,12.072
			c4.239,17.254,13.292,31.555,27.43,42.338c3.574,2.726,3.889,5.39,4.109,9.638c0.575,11.061-5.374,18.352-12.109,25.626
			c-4.194,4.529-8.43,9.054-12.224,13.913c-3.696,4.74-7.013,3.803-11.697,1.265c-5.239-2.84-11.24-5.974-16.899-5.961
			c-10.338,0.028-16.03-5.545-22.362-12.317c-4.329-4.631-8.621-10.563-16.096-11.22c-0.2-0.017-0.408-0.188-0.571-0.335
			c-7.434-6.564-17.617-7.332-25.729-12.24c-1.987-1.203-3.031-3.962-4.1-6.503c-0.587-1.399-2.203-1.832-3.488-1.024
			c-0.453,0.285-0.959,0.604-1.53,0.963c-1.285,0.808-2.64,2.652-3.023,4.121c-0.604,2.305-1.396,5.315-2.318,8.833
			c-0.383,1.469,0.184,1.795,1.392,0.877c5.234-3.97,8.564-2.407,13.211,2.726c3.04,3.354,8.637,4.271,12.84,6.712
			c12.154,7.054,25.765,12.64,35.777,22.027c8.731,8.185,18.405,10.575,28.67,13.497c0.657,0.188,1.297,0.444,1.917,0.734
			c0.106,0.049,0.155,0.22,0.326,0.652c0.151,0.384-0.62,1.518-1.742,2.542C187.959,233.028,183.292,237.206,178.775,241.539z"/>
	</g>
</g>
<g>
</g>
<g>
</g>
<g>
</g>
<g>
</g>
<g>
</g>
<g>
</g>
<g>
</g>
<g>
</g>
<g>
</g>
<g>
</g>
<g>
</g>
<g>
</g>
<g>
</g>
<g>
</g>
<g>
</g>
</svg>
