<?xml version="1.0" encoding="iso-8859-1"?>
<!-- Generator: Adobe Illustrator 16.0.0, SVG Export Plug-In . SVG Version: 6.00 Build 0)  -->
<!DOCTYPE svg PUBLIC "-//W3C//DTD SVG 1.1//EN" "http://www.w3.org/Graphics/SVG/1.1/DTD/svg11.dtd">
<svg version="1.1" id="Capa_1" xmlns="http://www.w3.org/2000/svg" xmlns:xlink="http://www.w3.org/1999/xlink" x="0px" y="0px"
	 width="560.821px" height="560.821px" viewBox="0 0 560.821 560.821" style="enable-background:new 0 0 560.821 560.821;"
	 xml:space="preserve">
<g>
	<g>
		<path d="M4.947,248.361c1.685,6.356,7.173,5.753,8.258,2.342c0.934-2.966,6.891-6.287,11.003-10.392
			c1.143-0.225,2.236-0.58,3.276-1.024c1.273,1.648,3.289,3.68,5.871,5.998c-1.763,2.607-2.938,6.132-3.187,9.588
			c-5.451,1.783-8.095,9.788-10.763,13.423c-3.109,4.259-12.627,6.267-12.591,9.208c0.037,2.92,12.126,3.231,17.956-0.021
			c5.219-2.897,11.546-5.688,15.61-11.371c4.912-0.224,10.58-2.162,14.023-4.325c0.184,0.155,0.367,0.29,0.567,0.4
			c-1.493,2.521-2.444,5.732-2.676,8.874c-5.451,1.783-8.083,9.767-10.771,13.403c-3.104,4.259-10.273,8.474-10.236,11.415
			c0.033,2.922,9.78,1.029,15.61-2.207c5.223-2.921,11.538-5.707,15.594-11.395c5.374-0.225,11.551-2.542,14.823-4.905
			c3.178,2.028,5.834,3.611,7.805,4.684c-2.917,2.721-4.227,8.43-3.595,13.513c-5.031,2.856-6.071,11.126-8.001,15.187
			c-2.248,4.748-8.511,10.256-7.895,13.113c0.608,2.855,8.095,1.893,13.223-2.387c4.61-3.881,11.75-10.104,14.929-16.949
			c5.724-1.404,11.962-5.394,14.382-8.475c2.057,1.697,3.774,3.436,5.002,5.174c4.712,6.666,38.017,23.166,53.538,22.477
			c0.09,0,0.196,0.025,0.286,0c1.901,11.865,10.869,14.428,11.534,18.307c0.106,0.625,0.216,1.184,0.334,1.719
			c-0.412,3.9,0.049,7.695-1.832,10.906c-4.271,7.314,10.547,13.402,15.569,6.377c2.713-3.791,3.231-8.34,3.986-12.285
			c0.747-0.715,1.44-1.539,2.073-2.652c1.526-2.652,8.943-2.697,11.917-9.053c4.565,1.826,8.54,3.369,11.522,4.324
			c3.839,6.287,13.876,8.584,13.75,11.75c-0.073,1.783,0.163,3.121,0.637,4.193c0.196,3.012,0.506,5.863-0.673,8.541
			c-3.398,7.734,12.024,12.109,16.206,4.523c2.301-4.17,2.244-8.854,2.571-12.934c0.624-0.734,1.199-1.562,1.726-2.586
			c1.261-2.453,9.453-3.191,12.783-8.141c2.416,0.246,4.704,0.49,6.899,0.689c4.398,5.6,13.843,7.027,14.495,10.033
			c0.188,0.85,0.481,1.473,0.734,2.162c0.429,3.701,1.478,7.137,0.339,10.527c-2.713,8.004,13.032,10.992,16.536,3.1
			c1.938-4.393,1.474-9.076,1.433-13.156c0.522-0.76,1.02-1.629,1.501-2.678c0.894-1.982,5.492-3.477,8.646-6.646
			c0.213,0,0.408,0.025,0.612,0.025c5.528,4.35,15.019,5.283,16.463,7.736c0.314,0.514,0.702,0.867,1.061,1.338
			c1.22,4.148,3.778,8.07,2.922,11.84c-1.906,8.205,12.402,8.988,15.107,0.779c1.306-3.994,0.743-8.029,0.286-11.705
			c1.105-1.229,1.901-2.898,2.432-5.195c0.444-1.961,3.166-3.365,5.202-5.977c1.521-0.02,3.108-0.02,4.725-0.064
			c5.189,3.945,13.247,4.568,13.966,7.314c0.379,1.404,0.853,2.521,1.448,3.436c1.098,3.791,2.636,7.516,1.901,10.727
			c-1.901,8.25,11.774,7.58,14.476-0.625c1.383-4.17,1.016-8.363,0.865-12.064c0.701-1.004,1.297-2.186,1.746-3.564
			c0.53-1.693,3.048-3.168,5.264-5.439c1.199,0,2.37,0,3.483-0.025c4.02,1.584,8.36,2.053,9.286,3.926
			c0.592,1.203,1.354,2.428,2.253,3.521c0.485,4.658,1.677,9.498,0.819,13.203c-1.562,6.756,10.923,6.846,13.113,0.18
			c1.294-3.947,1.808-8.205,2.432-12.131c1.367-1.293,2.493-2.922,3.452-5.084c0.371-0.869,1.248-1.672,2.325-2.631
			c3.762,3.879,9.621,5.688,9.895,8.25c0.253,2.361,1.126,4.125,2.239,5.553c-0.057,4.08-0.118,8.139-2.835,10.791
			c-4.766,4.57,10.236,10.322,15.03,2.188c1.946-3.277,2.966-6.777,3.938-10.033c1.534-0.893,2.819-2.297,3.855-4.459
			c1.053-2.207,5.985-3.121,9.144-6.732c0.701,0.469,1.391,0.979,1.938,1.494c5.414,5.217,13.134,12.979,21.354,7.449
			c4.562-3.102,8.646,2.562,6.953,6.891c-3.534,9.029,12.338,12.91,18.947,7.357c6.617-5.574,7.674-13.023,13.243-11.996
			c5.558,1.004,14.55-3.656,11-16.254c-2.546-9.1-2.375-22.521-4.472-30.928c-2.102-8.383-12.109-19.555-22.297-25.752
			c-10.18-6.178-15.533-13.023-28.271-15.186c-12.738-2.097-31.804-6.132-42.913-9.029c-11.098-2.901-15.068-3.859-29.523-2.742
			c-14.459,1.159-19.245,1.338-28.054,0.649c-19.964-1.538-34.533,2.007-43.269,0.934c-19.14-2.342-28.988,0-38.605-0.714
			c-27.128-2.073-43.341-1.763-50.469-3.701c-6.234-1.717-29.947-6.087-40.314-10.991c-10.379-4.904-13.223-4.684-18.503-6.557
			c-5.275-1.853-21.212-4.794-27.724-7.984c-6.512-3.191-18.246-12.285-24.957-16.724c-5.402-3.525-12.514-18.931-18.96-23.77
			c-6.438-4.818-29.343-15.476-37.622-14.827c-8.291,0.624-27.075,4.304-32.856-1.228c-7.895-7.561-20.738,1.073-29.878,7.291
			c-0.396,0.265-0.816,0.693-1.232,1.048c-0.167-0.11-0.306-0.245-0.485-0.355c-7.213-4.28-21.938-2.342-32.138,10.881
			c-6.467,8.384-8.695,19.286-6.846,27.25C-0.365,233.354,3.242,242.008,4.947,248.361z"/>
	</g>
</g>
<g>
</g>
<g>
</g>
<g>
</g>
<g>
</g>
<g>
</g>
<g>
</g>
<g>
</g>
<g>
</g>
<g>
</g>
<g>
</g>
<g>
</g>
<g>
</g>
<g>
</g>
<g>
</g>
<g>
</g>
</svg>
