<?xml version="1.0" encoding="iso-8859-1"?>
<!-- Generator: Adobe Illustrator 16.0.0, SVG Export Plug-In . SVG Version: 6.00 Build 0)  -->
<!DOCTYPE svg PUBLIC "-//W3C//DTD SVG 1.1//EN" "http://www.w3.org/Graphics/SVG/1.1/DTD/svg11.dtd">
<svg version="1.1" id="Capa_1" xmlns="http://www.w3.org/2000/svg" xmlns:xlink="http://www.w3.org/1999/xlink" x="0px" y="0px"
	 width="573.224px" height="573.224px" viewBox="0 0 573.224 573.224" style="enable-background:new 0 0 573.224 573.224;"
	 xml:space="preserve">
<g>
	<g>
		<path d="M4.745,365.092c6.724,4.341,12.844,9.597,19.461,14.117c6.243,4.264,12.848,7.299,20.694,3.672
			c9.425-4.357,19.074-8.246,28.446-12.709c12.807-6.104,25.562-12.33,39.76-14.484c12.852-1.946,25.141,0.277,36.728,6.087
			c5.688,2.853,7.287,13.962,2.783,19.405c-3.709,4.483-8.434,7.266-14.488,7.274c-2.599,0.004-5.206,0.049-7.801,0.204
			c-8.111,0.481-12.758,4.541-14.749,13.097h19.041c-4.345,4.435-9.857,6.593-9.237,13.451c7.095-1.211,13.941-2.382,21.146-3.614
			c-0.049,1.016-0.22,1.86-0.098,2.66c0.282,1.848,0.302,4.97,1.163,5.238c1.701,0.535,4.467,0.139,5.793-1.02
			c3.893-3.398,8.564-3.276,13.121-3.893c7.312-0.987,14.794-0.849,21.677-4.288c4.757-2.379,8.417-5.659,10.343-10.583
			c1.012-2.587,2.371-3.191,5.19-3.313c3.468-0.151,7.038-1.358,10.261-2.791c3.333-1.484,5.087-0.343,6.552,2.411
			c0.245,0.457,0.498,0.914,0.669,1.404c3.774,10.697,3.505,11.289-7.515,13.5c-9.319,1.869-17.414,5.941-24.104,12.718
			c-0.853,0.865-1.538,1.894-2.403,2.971c3.052,1.061,6.43,1.261,7.984,3.043c1.62,1.865,1.485,5.26,2.183,8.278
			c6.369-2.709,12.346-3.762,18.878-2.289c-0.343,1.151-0.648,1.971-0.832,2.815c-0.682,3.154-0.192,4.933,3.611,6.214
			c17.536,5.925,32.097-0.473,46.05-10.15c13.403-9.295,24.974-20.592,33.713-34.272c3.321-5.198,3.872-12.175,5.614-18.36
			c0.343-1.216,0.363-2.525,0.424-2.99c10.384-1.184,20.372-1.832,30.164-3.574c9.184-1.632,18.099-4.766,27.263-6.577
			c6.189-1.224,12.623-1.913,18.919-1.763c11.224,0.266,18.205,7.227,23.108,16.622c0.449,0.861,0.253,2.212,0.005,3.256
			c-3.13,13.195-12.143,20.522-24.395,24.978c-7.642,2.779-15.333,5.745-22.362,9.748c-3.954,2.248-6.688,6.707-9.788,10.33
			c-0.833,0.971-0.991,2.518-1.567,4.08c4.827-0.437,9.14-0.828,12.294-1.114c1.93,5.717,3.606,10.674,5.304,15.7
			c4.219-3.023,7.556-5.418,11.244-8.066c0.318,5.635,0.571,10.062,0.861,15.141c4.292-3.361,7.988-5.965,11.342-8.955
			c4.443-3.966,9.368-4.296,14.893-3.187c6.128,1.232,12.248,1.828,18.503-0.167c4.557-1.453,7.931-4.048,10.032-8.07
			c6.862-13.138,17.242-23.346,27.422-33.778c12.261-12.562,27.552-15.161,44.056-13.807c4.814,0.396,9.14,2.558,11.849,6.703
			c1.587,2.432,2.668,5.324,3.395,8.156c0.73,2.84-0.38,5.145-3.076,6.924c-5.896,3.884-10.384,11.366-10.824,17.878
			c2.803-2.194,5.116-4.354,7.76-5.973c2.158-1.322,4.668-2.146,7.107-2.926c2.048-0.652,2.705,0.168,2.428,2.444
			c-0.481,3.933-0.51,7.919-0.738,12.085c4.655-2.347,8.8-4.439,12.795-6.455c1.334,5.423,2.484,10.099,3.639,14.774
			c0.4,0.016,0.8,0.028,1.2,0.045c1.64-2.249,3.309-4.477,4.912-6.753c3.386-4.811,7.939-7.809,13.297-10.318
			c4.944-2.317,9.277-6.034,13.647-9.433c3.252-2.53,3.835-6.173,2.265-9.878c-1.151-2.713-2.273-5.83-4.374-7.67
			c-5.146-4.509-5.822-10.433-6.573-16.496c-2.334-18.898,0.897-37.267,5.08-55.586c3.7-16.214,7.327-32.452,7.336-49.241
			c0.016-31.266-10.343-58.862-29.556-83.236c-17.634-22.366-39.943-39.042-65.346-51.502
			c-23.183-11.371-47.434-19.755-73.04-23.962c-24.558-4.015-49.188-5.026-73.852-1.729c-24.827,3.321-48.85,10.017-72.216,18.979
			c-10,3.836-19.816,8.16-29.678,12.358c-24.888,10.596-49.6,21.62-74.684,31.73c-13.938,5.618-28.466,9.768-42.746,14.533
			c-1.057,0.351-2.232,0.334-3.697,0.538c0.62-3.019,1.171-5.708,1.791-8.719c-5.675,0.041-8.551,3.199-11.208,6.847
			c-1.183,1.623-2.497,4.011-4.084,4.312c-3.644,0.689-7.516,0.551-11.228,0.146c-0.641-0.069-1.673-3.312-1.269-4.732
			c0.844-2.971,0.061-3.733-2.795-3.677c-0.641,0.013-1.24,0.099-1.852,0.168c0.763-4.962,0.747-11.041-2.297-15.61
			c-3.398-5.096-4.908-0.763-5.582,4.104c-0.616,4.464-3.509,7.879-7.168,7.564s-6.63,2.424-6.63,6.12s-2.513,6.69-5.61,6.69
			s-5.61,2.514-5.61,5.61c0,2.962,2.542,7.552,5.965,10.249c-13.375,19.074-24.656,39.421-35.235,60.318
			C5.569,294.879,2.991,315.81,0.914,337.14c-0.6,6.161-0.53,12.383-0.885,18.572C-0.208,359.805,0.996,362.673,4.745,365.092z"/>
	</g>
</g>
<g>
</g>
<g>
</g>
<g>
</g>
<g>
</g>
<g>
</g>
<g>
</g>
<g>
</g>
<g>
</g>
<g>
</g>
<g>
</g>
<g>
</g>
<g>
</g>
<g>
</g>
<g>
</g>
<g>
</g>
</svg>
