<?xml version="1.0" encoding="iso-8859-1"?>
<!-- Generator: Adobe Illustrator 16.0.0, SVG Export Plug-In . SVG Version: 6.00 Build 0)  -->
<!DOCTYPE svg PUBLIC "-//W3C//DTD SVG 1.1//EN" "http://www.w3.org/Graphics/SVG/1.1/DTD/svg11.dtd">
<svg version="1.1" id="Capa_1" xmlns="http://www.w3.org/2000/svg" xmlns:xlink="http://www.w3.org/1999/xlink" x="0px" y="0px"
	 width="576.863px" height="576.863px" viewBox="0 0 576.863 576.863" style="enable-background:new 0 0 576.863 576.863;"
	 xml:space="preserve">
<g>
	<g>
		<path d="M0.208,388.794c9.131,0,18.262,0,27.389,0c0.021,0.652,0.045,1.309,0.065,1.961c-3.064,1.625-6.128,3.248-9.209,4.881
			c0.559,1.004,0.89,1.828,1.024,1.795c9.531-2.211,13.04,2.855,15.851,11.195c5.022,14.893,11.616,29.25,16.932,44.053
			c1.143,3.178,0.212,7.479-0.828,10.941c-0.853,2.828-3.566,5.039-4.961,7.773c-2.13,4.168-3.831,8.559-5.712,12.855
			c0.983,0.619,1.971,1.24,2.954,1.859c5.28-4.818,10.388-9.848,15.924-14.348c2.354-1.918,5.606-2.734,8.454-4.053
			c0.277,2.926,1.224,5.979,0.685,8.74c-0.869,4.459-2.713,8.723-4.639,14.568c2.24-1.33,3.17-1.725,3.909-2.346
			c11.575-9.709,11.383-9.502,22.497,0.082c6.369,5.492,12.97,11.068,20.339,14.957c9.278,4.896,10.62,12.338,9.669,21.195
			c-0.567,5.264-1.709,10.461-1.408,16.148c3.317-5.703,6.634-11.41,9.951-17.119c0.894-0.016,1.791-0.033,2.685-0.049
			c1.808,5.598,3.619,11.195,6.047,18.707c2.848-10,5.173-18.16,7.625-26.777c3.88,1.18,7.115,2.045,10.269,3.143
			c9.547,3.312,18.85,7.645,28.642,9.848c11.824,2.66,15.292,11.098,17.801,20.965c0.91,3.568,1.746,7.156,2.615,10.738
			c0.726-0.098,1.453-0.197,2.179-0.295c0.42-8.107,0.84-16.217,1.403-27.045c4.341,7.379,7.405,12.594,10.474,17.805
			c0.816-0.273,1.636-0.543,2.452-0.816c-1.114-7.445-2.228-14.893-3.37-22.547c11.273-3.219,22.15-6.273,32.999-9.439
			c5.377-1.572,9.347,0.334,12.423,4.65c3.75,5.264,7.417,10.584,11.146,15.859c1.347,1.904,2.762,3.766,5.002,5.096
			c-3.305-9.703-6.614-19.4-9.918-29.104c0.608-0.33,1.22-0.656,1.828-0.986c5.577,4.748,11.151,9.498,17.903,15.25
			c3.542-11.963-9.469-14.182-9.833-22.129c13.321-14.492,28.841-7.01,44.108-2.506c0.232-0.885,0.465-1.77,0.693-2.656
			c-5.711-3.129-11.693-5.871-17.021-9.559c-2.42-1.678-4.639-5.084-5.014-7.961c-0.645-4.916,3.338-5.523,7.389-5.508
			c8.434,0.037,16.871-0.057,25.305-0.318c2.926-0.09,5.834-0.84,8.787-2.803c-8.098-1.766-16.168-3.709-24.312-5.238
			c-5.773-1.082-9.273-3.158-5.564-9.449c5.309-9.004,1.314-16.08-6.549-24.137c9.568-4.383,17.902-8.201,26.238-12.016
			c-0.207-0.834-0.416-1.662-0.623-2.49c-1.693-0.273-3.529-1.109-5.061-0.727c-6.535,1.637-13.109,3.273-19.428,5.57
			c-13.094,4.766-15.102,4.361-23.183-6.545c-5.708-7.699-10.621-7.932-17.964-1.293c-2.056,1.861-4.888,2.863-7.364,4.26
			c-0.661-3.008-2.138-6.1-1.82-9c0.71-6.508,2.313-12.922,3.554-19.373c-1.024-0.371-2.052-0.738-3.076-1.105
			c-2.109,4.762-4.814,9.355-6.189,14.32c-2.293,8.299-6.214,15.227-14.08,18.984c-3.052,1.457-8.862,2.877-9.992,1.498
			c-2.876-3.504-5.047-8.557-5.186-13.061c-0.126-4.17,2.799-8.412,4.292-12.656c0.727-2.064,1.253-4.197,0.355-7.168
			c-1.815,2.514-3.537,5.104-5.463,7.531c-5.039,6.34-9.714,13.076-15.484,18.674c-2.268,2.203-7.066,1.801-10.71,2.588
			c0.212-3.357-0.082-6.852,0.788-10.029c0.706-2.578,2.811-4.773,4.529-7.508c-1.542-0.656-2.941-1.256-4.553-1.941
			c2.403-3.844,4.737-7.568,7.071-11.297c-0.604-0.67-1.212-1.334-1.816-2.004c-1.975,1.689-4.415,3.061-5.838,5.129
			c-5.684,8.27-13.031,13.248-23.342,12c-2.766-0.336-5.32-2.441-9.759-4.607c9.6-6.271,17.152-11.203,26.695-17.438
			c-15.304-0.648-28.327,8.85-40.861-2.469c8.931,0,17.866,0,26.797,0c0.082-0.771,0.159-1.543,0.241-2.316
			c-6.691-2.588-13.382-5.17-20.074-7.754c0.367-1.189,0.73-2.377,1.098-3.568c5.12,1.271,10.237,2.541,15.594,3.875
			c-2.387-9.873-19.184-12.098-16.785-25.1c1.159-0.662,2.321-1.322,3.48-1.982c4.276,7.506,8.556,15.014,12.832,22.521
			c1.077-0.385,2.158-0.764,3.235-1.143c-3.64-13.982-8.307-28.084,4.043-40.621c16.251,3.574,10.743,18.43,13.521,28.85
			c10.759-0.689,10.293-8.783,10.546-15.68c0.306-8.209,3.468-13.125,8.601-14.121c0.775,2.506,1.53,4.941,2.391,7.711
			c2.134-1.762,3.215-4.508,4.345-7.078c1.363,0.441,2.791,1.053,4.288,1.865c2.44,1.322,5.198,2.098,7.862,2.957
			c9.906,3.199,11.901,6.189,11.073,16.643c-0.383,4.859-0.657,9.727-0.979,14.59c0.906,0.25,1.812,0.498,2.717,0.748
			c4.023-9.939,8.025-19.838,11.795-29.148c0.261-0.143,0.51-0.281,0.775-0.432c1.184,2.328,3.036,5.98,4.807,9.477
			c0.897,0,1.774,0.213,1.93-0.031c8.968-14.037,21.032-8.039,32.362-5.721c2.889,1.367,5.705,3.301,9.715,5.576
			c0.588,5.324,1.393,12.648,2.443,22.191c2.979-5.77,5.758-9.258,6.518-13.137c0.551-2.824,0.191-5.814-0.148-8.344
			c4.346,2.188,8.65,4.807,13.979,7.748c-0.199,0.338,0.824-1.281,1.738-2.967c0.938-1.725,1.771-3.512,2.648-5.271
			c1.102,1.91,2.357,3.746,3.26,5.744c0.967,2.146,1.596,4.443,3.365,7.047c1.277-8.363,4.709-13.549,13.473-11.387
			c2.908,0.717,5.98,2.174,8.131,4.193c2.588,2.428,4.275,5.818,6.354,8.789c0.91-0.686,1.818-1.375,2.732-2.061
			c-0.994-3.473-1.994-6.943-3.059-10.66c18.25-3.705,21.783,11.121,29.543,21.256c-0.604-5.627-0.865-11.314-1.914-16.854
			c-0.902-4.754,0.885-6.934,5.271-7.582c10.547-1.566,21.176-2.684,31.633-4.699c18.094-3.484,34.141-0.336,47.584,12.926
			c0.242,0.24,1.029-0.074,0.648-0.037c-1.92-7.031-4.137-14.057-5.588-21.232c-0.367-1.816,1.146-4.814,2.74-6.1
			c11.359-9.18,22.854-18.197,34.537-26.961c5.607-4.203,9.381-11.44,18.01-10.967c4.59,0.253,9.217-0.277,13.832-0.359
			c4.051-0.073,8.105-0.016,12.387-1.155c-7.949-3.182-15.893-6.36-23.84-9.539c0.199-0.702,0.395-1.403,0.596-2.109
			c4.752,1.004,9.51,2.008,14.264,3.011c0.289-0.653,0.584-1.306,0.873-1.958c-1.896-1.322-3.619-3.158-5.721-3.872
			c-7.051-2.391-8.004-6.442-5.977-13.415c5.002-17.197,8.832-34.729,13.729-51.963c0.902-3.174,4.068-6.715,7.092-8.07
			c6.523-2.921,13.631-4.533,20.502-6.679c-0.07-0.689-0.139-1.383-0.209-2.073c-9.131,0-18.262,0-27.389,0
			c-0.02-0.653-0.045-1.31-0.064-1.966c3.064-1.624,6.127-3.244,9.209-4.875c-0.561-1.004-0.891-1.828-1.025-1.795
			c-9.531,2.211-13.039-2.856-15.85-11.195c-5.023-14.892-11.617-29.25-16.934-44.052c-1.143-3.179-0.211-7.479,0.828-10.943
			c0.854-2.827,3.566-5.039,4.963-7.776c2.129-4.17,3.83-8.56,5.711-12.856c-0.982-0.62-1.971-1.24-2.953-1.86
			c-5.279,4.818-10.389,9.845-15.924,14.349c-2.355,1.917-5.607,2.734-8.455,4.047c-0.277-2.921-1.223-5.977-0.686-8.739
			c0.869-4.459,2.713-8.727,4.639-14.57c-2.238,1.33-3.17,1.726-3.908,2.346c-11.574,9.714-11.383,9.506-22.496-0.082
			c-6.369-5.492-12.971-11.069-20.34-14.958c-9.277-4.896-10.619-12.338-9.67-21.195c0.568-5.264,1.711-10.461,1.408-16.149
			c-3.316,5.704-6.635,11.412-9.951,17.12c-0.893,0.017-1.791,0.033-2.684,0.049c-1.809-5.598-3.619-11.195-6.047-18.707
			c-2.848,10-5.174,18.16-7.627,26.777c-3.879-1.179-7.115-2.044-10.268-3.142c-9.549-3.313-18.85-7.646-28.643-9.849
			c-11.824-2.66-15.291-11.097-17.801-20.963c-0.91-3.57-1.746-7.156-2.615-10.734c-0.727,0.098-1.453,0.196-2.18,0.293
			c-0.42,8.107-0.84,16.218-1.402,27.046c-4.342-7.38-7.406-12.595-10.475-17.809c-0.814,0.273-1.635,0.547-2.451,0.816
			c1.113,7.446,2.229,14.892,3.369,22.546c-11.271,3.219-22.15,6.275-32.998,9.441c-5.377,1.571-9.348-0.334-12.424-4.651
			c-3.75-5.263-7.418-10.583-11.146-15.859c-1.346-1.909-2.762-3.766-5.002-5.096c3.305,9.702,6.613,19.4,9.918,29.103
			c-0.607,0.331-1.219,0.657-1.828,0.987c-5.576-4.749-11.15-9.498-17.902-15.251c-3.542,11.962,9.469,14.182,9.832,22.13
			c-13.32,14.492-28.841,7.009-44.108,2.505c-0.233,0.886-0.465,1.771-0.694,2.656c5.712,3.129,11.693,5.871,17.022,9.56
			c2.419,1.677,4.639,5.083,5.014,7.96c0.645,4.917-3.337,5.524-7.389,5.508c-8.434-0.037-16.871,0.058-25.304,0.318
			c-2.925,0.09-5.834,0.841-8.789,2.803c8.099,1.767,16.169,3.708,24.313,5.239c5.773,1.085,9.273,3.158,5.565,9.449
			c-5.308,9.004-1.314,16.079,6.548,24.137c-9.567,4.382-17.903,8.201-26.238,12.016c0.208,0.833,0.416,1.661,0.624,2.489
			c1.693,0.273,3.529,1.11,5.059,0.726c6.537-1.636,13.109-3.272,19.429-5.569c13.093-4.766,15.1-4.362,23.183,6.544
			c5.707,7.699,10.619,7.932,17.963,1.293c2.057-1.86,4.889-2.864,7.365-4.259c0.66,3.007,2.139,6.1,1.82,9
			c-0.711,6.507-2.314,12.921-3.555,19.372c1.023,0.371,2.053,0.739,3.076,1.106c2.109-4.762,4.814-9.355,6.189-14.321
			c2.293-8.299,6.215-15.227,14.08-18.984c3.053-1.457,8.861-2.876,9.992-1.498c2.877,3.505,5.047,8.556,5.186,13.06
			c0.127,4.17-2.799,8.413-4.291,12.656c-0.727,2.064-1.254,4.198-0.355,7.168c1.814-2.513,3.537-5.104,5.463-7.532
			c5.039-6.34,9.715-13.076,15.482-18.674c2.27-2.203,7.068-1.799,10.711-2.587c-0.213,3.358,0.082,6.854-0.787,10.029
			c-0.707,2.579-2.811,4.773-4.529,7.507c1.543,0.657,2.941,1.256,4.553,1.942c-2.402,3.843-4.736,7.568-7.07,11.297
			c0.604,0.669,1.213,1.334,1.816,2.003c1.975-1.689,4.414-3.06,5.838-5.128c5.684-8.271,13.031-13.248,23.342-12
			c2.766,0.334,5.32,2.44,9.76,4.606c-9.6,6.271-17.152,11.204-26.695,17.438c15.303,0.648,28.326-8.85,40.861,2.468
			c-8.932,0-17.867,0-26.799,0c-0.08,0.771-0.158,1.542-0.24,2.317c6.691,2.587,13.383,5.169,20.074,7.752
			c-0.367,1.191-0.73,2.379-1.098,3.57c-5.121-1.273-10.236-2.546-15.594-3.876c2.387,9.874,19.184,12.097,16.785,25.1
			c-1.158,0.661-2.322,1.322-3.48,1.983c-4.275-7.507-8.557-15.015-12.832-22.522c-1.076,0.384-2.158,0.763-3.234,1.143
			c3.639,13.982,8.307,28.083-4.043,40.616c-16.252-3.574-10.744-18.425-13.521-28.85c-10.76,0.689-10.295,8.784-10.547,15.68
			c-0.307,8.209-3.469,13.125-8.602,14.121c-0.775-2.505-1.529-4.941-2.391-7.711c-2.133,1.763-3.215,4.504-4.346,7.079
			c-1.361-0.44-2.789-1.053-4.287-1.864c-2.439-1.322-5.197-2.097-7.863-2.958c-9.906-3.199-11.9-6.189-11.072-16.643
			c0.383-4.859,0.656-9.727,0.979-14.59c-0.904-0.249-1.811-0.498-2.717-0.743c-4.023,9.939-8.025,19.837-11.795,29.147
			c-0.262,0.143-0.51,0.282-0.775,0.433c-1.184-2.33-3.035-5.981-4.807-9.478c-0.896,0-1.773-0.212-1.93,0.033
			c-8.967,14.035-21.031,8.038-32.362,5.72c-2.889-1.367-5.704-3.301-9.714-5.577c-0.588-5.325-1.392-12.648-2.444-22.191
			c-2.979,5.769-5.757,9.258-6.516,13.138c-0.551,2.823-0.191,5.814,0.147,8.344c-4.345-2.187-8.649-4.807-13.978-7.748
			c0.2-0.339-0.824,1.281-1.738,2.966c-0.938,1.726-1.771,3.513-2.648,5.271c-1.102-1.909-2.358-3.745-3.26-5.745
			c-0.967-2.146-1.595-4.443-3.366-7.046c-1.277,8.364-4.708,13.549-13.472,11.387c-2.909-0.718-5.981-2.175-8.132-4.194
			c-2.586-2.428-4.276-5.818-6.353-8.788c-0.91,0.685-1.819,1.375-2.733,2.06c0.996,3.472,1.995,6.944,3.06,10.661
			c-18.25,3.705-21.783-11.122-29.543-21.257c0.604,5.626,0.865,11.314,1.914,16.854c0.902,4.753-0.885,6.932-5.271,7.581
			c-10.547,1.567-21.175,2.685-31.632,4.7c-18.095,3.484-34.142,0.335-47.585-12.925c-0.241-0.241-1.028,0.074-0.648,0.037
			c1.921,7.03,4.137,14.052,5.589,21.232c0.367,1.815-1.146,4.814-2.742,6.1c-11.359,9.18-22.852,18.197-34.537,26.96
			c-5.606,4.203-9.38,11.44-18.009,10.968c-4.59-0.254-9.217,0.277-13.831,0.359c-4.051,0.072-8.107,0.016-12.387,1.154
			c7.948,3.182,15.892,6.359,23.839,9.539c-0.2,0.701-0.396,1.402-0.596,2.109c-4.753-1.004-9.511-2.008-14.264-3.012
			c-0.29,0.652-0.583,1.307-0.873,1.959c1.897,1.322,3.619,3.162,5.72,3.871c7.05,2.391,8.005,6.443,5.977,13.416
			c-5.002,17.197-8.833,34.729-13.729,51.963c-0.902,3.174-4.068,6.715-7.091,8.07c-6.524,2.92-13.631,4.531-20.502,6.678
			C0.069,387.409,0.139,388.099,0.208,388.794z"/>
	</g>
</g>
<g>
</g>
<g>
</g>
<g>
</g>
<g>
</g>
<g>
</g>
<g>
</g>
<g>
</g>
<g>
</g>
<g>
</g>
<g>
</g>
<g>
</g>
<g>
</g>
<g>
</g>
<g>
</g>
<g>
</g>
</svg>
