<?xml version="1.0" encoding="iso-8859-1"?>
<!-- Generator: Adobe Illustrator 16.0.0, SVG Export Plug-In . SVG Version: 6.00 Build 0)  -->
<!DOCTYPE svg PUBLIC "-//W3C//DTD SVG 1.1//EN" "http://www.w3.org/Graphics/SVG/1.1/DTD/svg11.dtd">
<svg version="1.1" id="Capa_1" xmlns="http://www.w3.org/2000/svg" xmlns:xlink="http://www.w3.org/1999/xlink" x="0px" y="0px"
	 width="587.216px" height="587.215px" viewBox="0 0 587.216 587.215" style="enable-background:new 0 0 587.216 587.215;"
	 xml:space="preserve">
<g>
	<g>
		<path d="M578.189,329.266c-4.102-4.672-8.781-8.829-13.061-13.354c-1.045-1.102-1.889-2.709-2.135-4.198
			c-2.758-16.797-10.844-30.225-25.455-39.131c-7.09-4.321-14.875-7.483-22.182-11.465c-5.109-2.783-10.197-5.729-14.863-9.18
			c-31.547-23.341-65.008-43.015-102.797-54.586c-14.711-4.504-29.893-6.039-45.111-7.426c-5.732-0.522-11.482-0.922-17.193-1.607
			c-1.51-0.18-3.174-0.922-4.33-1.914c-13.398-11.506-27.734-21.685-43.068-30.429c-9.18-5.234-18.784-9.56-29.164-11.934
			c-2.864-0.657-5.92-1.069-7.679,1.718c-1.881,2.979-0.461,5.814,1.636,8.339c7.482,9.009,10.84,19.915,14.011,30.882
			c0.845,2.929,1.595,5.904,2.117,8.906c1.094,6.324-0.061,8.646-5.679,11.792c-2.456,1.375-5.031,2.542-7.52,3.864
			c-43.635,23.17-83.265,51.979-119.397,85.579c-18.172,16.899-35.415,34.725-49.221,55.533c-1.946,2.933-3.941,5.896-5.377,9.09
			c-2.917,6.479-8.086,9.951-14.39,12.644c-19.094,8.152-38.075,16.586-57.067,24.974c-1.334,0.588-2.652,1.245-3.929,1.963
			c-2.762-1.15-5.202,1.506-4.92,3.868c-0.473,0.652-0.922,1.338-1.416,1.954c1.403,0.89,2.713,2.313,4.227,2.57
			c5.316,0.901,10.698,1.938,16.055,1.954c13.04,0.041,26.079-0.457,39.119-0.738c1.645-0.037,3.293-0.033,4.933-0.106
			c8.804-0.403,15.345,2.64,19.123,11.212c3.746,8.499,10.167,15.092,16.993,21.249c0.498,0.448,1.041,0.869,1.612,1.24
			c0.788,0.759,1.897,1.171,2.946,1.122c0.959,0.061,1.742-0.273,2.211-1.073c0.302-0.38,0.534-0.861,0.657-1.461
			c0.587-2.893,0.722-5.785,0.4-8.604c0.073-1.632,0.126-3.264,0.126-4.896c-0.004-15.627-0.028-31.253-0.314-46.871
			c-0.126-6.961,3.398-11.221,8.755-14.97c26.186-18.319,54.868-30.429,86.329-36.32c37.356-6.993,75.06-9.058,112.948-9.266
			c0.457-0.004,0.908,0.102,1.383,0.159c-1.221,4.386-0.629,5.806,3.713,7.042c3.246,0.922,6.646,1.51,10.012,1.783
			c24.684,1.995,49.314,1.032,73.918-1.42c3.541-0.351,7.111-0.437,10.664-0.649c0.082,0.307,0.164,0.612,0.246,0.914
			c-8.186,4.239-16.369,8.479-24.555,12.718c-2.68,1.387-6.156,2.415-5.725,6.23c0.461,4.084,4.33,4.238,7.336,4.777
			c3.334,0.6,6.77,0.824,10.164,0.856c14.092,0.131,28.189,0.245,42.281,0.123c6.977-0.062,13.377-2.261,18.98-6.577
			c6.719-5.178,14.156-8.001,22.826-7.895c6.32,0.077,12.652-0.955,18.984-1.058c3.109-0.049,6.529,0.249,9.299,1.51
			c8.205,3.729,16.875,4.929,25.619,5.773c6.25,1.51,12.562,2.742,18.922,3.705c2.004,0.681,3.986,1.448,5.953,2.312
			c3.492,1.534,7.332,2.628,11.113,3.081c7.055,0.84,12.199-6.418,8.98-12.84C584.166,336.593,581.258,332.767,578.189,329.266z
			 M4.872,406.868l-0.057-0.453c0.501,0.229,1.003,0.445,1.509,0.641C5.842,406.99,5.357,406.924,4.872,406.868z"/>
	</g>
</g>
<g>
</g>
<g>
</g>
<g>
</g>
<g>
</g>
<g>
</g>
<g>
</g>
<g>
</g>
<g>
</g>
<g>
</g>
<g>
</g>
<g>
</g>
<g>
</g>
<g>
</g>
<g>
</g>
<g>
</g>
</svg>
